<?xml version="1.0" encoding="UTF-8"?>
<!--Generator: Apple Native CoreSVG 123-->
<!DOCTYPE svg
PUBLIC "-//W3C//DTD SVG 1.1//EN"
       "http://www.w3.org/Graphics/SVG/1.1/DTD/svg11.dtd">
<svg version="1.1" xmlns="http://www.w3.org/2000/svg" xmlns:xlink="http://www.w3.org/1999/xlink" width="3300" height="2200">
 <!--glyph: "uni100684.medium", point size: 100.000000, font version: "Version 15.0d7e11", template writer version: "5"-->
 <g id="Notes">
  <rect height="2200" id="artboard" style="fill:white;opacity:1" width="3300" x="0" y="0"/>
  <line id="" style="fill:none;stroke:black;opacity:1;stroke-width:0.5;" x1="263" x2="3036" y1="292" y2="292"/>
  <text style="stroke:none;fill:black;font-family:-apple-system,&quot;SF Pro Display&quot;,&quot;SF Pro Text&quot;,Helvetica,sans-serif;font-weight:bold;" transform="matrix(1 0 0 1 263 322)">Weight/Scale Variations</text>
  <text style="stroke:none;fill:black;font-family:-apple-system,&quot;SF Pro Display&quot;,&quot;SF Pro Text&quot;,Helvetica,sans-serif;text-anchor:middle;" transform="matrix(1 0 0 1 559.711 322)">Ultralight</text>
  <text style="stroke:none;fill:black;font-family:-apple-system,&quot;SF Pro Display&quot;,&quot;SF Pro Text&quot;,Helvetica,sans-serif;text-anchor:middle;" transform="matrix(1 0 0 1 856.422 322)">Thin</text>
  <text style="stroke:none;fill:black;font-family:-apple-system,&quot;SF Pro Display&quot;,&quot;SF Pro Text&quot;,Helvetica,sans-serif;text-anchor:middle;" transform="matrix(1 0 0 1 1153.13 322)">Light</text>
  <text style="stroke:none;fill:black;font-family:-apple-system,&quot;SF Pro Display&quot;,&quot;SF Pro Text&quot;,Helvetica,sans-serif;text-anchor:middle;" transform="matrix(1 0 0 1 1449.84 322)">Regular</text>
  <text style="stroke:none;fill:black;font-family:-apple-system,&quot;SF Pro Display&quot;,&quot;SF Pro Text&quot;,Helvetica,sans-serif;text-anchor:middle;" transform="matrix(1 0 0 1 1746.56 322)">Medium</text>
  <text style="stroke:none;fill:black;font-family:-apple-system,&quot;SF Pro Display&quot;,&quot;SF Pro Text&quot;,Helvetica,sans-serif;text-anchor:middle;" transform="matrix(1 0 0 1 2043.27 322)">Semibold</text>
  <text style="stroke:none;fill:black;font-family:-apple-system,&quot;SF Pro Display&quot;,&quot;SF Pro Text&quot;,Helvetica,sans-serif;text-anchor:middle;" transform="matrix(1 0 0 1 2339.98 322)">Bold</text>
  <text style="stroke:none;fill:black;font-family:-apple-system,&quot;SF Pro Display&quot;,&quot;SF Pro Text&quot;,Helvetica,sans-serif;text-anchor:middle;" transform="matrix(1 0 0 1 2636.69 322)">Heavy</text>
  <text style="stroke:none;fill:black;font-family:-apple-system,&quot;SF Pro Display&quot;,&quot;SF Pro Text&quot;,Helvetica,sans-serif;text-anchor:middle;" transform="matrix(1 0 0 1 2933.4 322)">Black</text>
  <line id="" style="fill:none;stroke:black;opacity:1;stroke-width:0.5;" x1="263" x2="3036" y1="1903" y2="1903"/>
  <g id="" transform="matrix(1 0 0 1 263 1933)">
   <path d="M 9.24805 0.830078 C 13.5547 0.830078 17.1387 -2.74414 17.1387 -7.05078 C 17.1387 -11.3574 13.5449 -14.9316 9.23828 -14.9316 C 4.94141 -14.9316 1.36719 -11.3574 1.36719 -7.05078 C 1.36719 -2.74414 4.95117 0.830078 9.24805 0.830078 Z M 9.24805 -0.654297 C 5.70312 -0.654297 2.87109 -3.49609 2.87109 -7.05078 C 2.87109 -10.6055 5.69336 -13.4473 9.23828 -13.4473 C 12.793 -13.4473 15.6348 -10.6055 15.6445 -7.05078 C 15.6543 -3.49609 12.8027 -0.654297 9.24805 -0.654297 Z M 9.22852 -3.42773 C 9.69727 -3.42773 9.9707 -3.74023 9.9707 -4.25781 L 9.9707 -6.31836 L 12.1973 -6.31836 C 12.6953 -6.31836 13.0371 -6.57227 13.0371 -7.04102 C 13.0371 -7.51953 12.7148 -7.7832 12.1973 -7.7832 L 9.9707 -7.7832 L 9.9707 -10.0098 C 9.9707 -10.5273 9.69727 -10.8496 9.22852 -10.8496 C 8.75977 -10.8496 8.50586 -10.5078 8.50586 -10.0098 L 8.50586 -7.7832 L 6.29883 -7.7832 C 5.78125 -7.7832 5.44922 -7.51953 5.44922 -7.04102 C 5.44922 -6.57227 5.80078 -6.31836 6.29883 -6.31836 L 8.50586 -6.31836 L 8.50586 -4.25781 C 8.50586 -3.75977 8.75977 -3.42773 9.22852 -3.42773 Z"/>
  </g>
  <g id="" transform="matrix(1 0 0 1 281.506 1933)">
   <path d="M 11.709 2.91016 C 17.1582 2.91016 21.6699 -1.60156 21.6699 -7.05078 C 21.6699 -12.4902 17.1484 -17.0117 11.6992 -17.0117 C 6.25977 -17.0117 1.74805 -12.4902 1.74805 -7.05078 C 1.74805 -1.60156 6.26953 2.91016 11.709 2.91016 Z M 11.709 1.25 C 7.09961 1.25 3.41797 -2.44141 3.41797 -7.05078 C 3.41797 -11.6504 7.08984 -15.3516 11.6992 -15.3516 C 16.3086 -15.3516 20 -11.6504 20.0098 -7.05078 C 20.0195 -2.44141 16.3184 1.25 11.709 1.25 Z M 11.6895 -2.41211 C 12.207 -2.41211 12.5195 -2.77344 12.5195 -3.33984 L 12.5195 -6.23047 L 15.5762 -6.23047 C 16.123 -6.23047 16.5039 -6.51367 16.5039 -7.03125 C 16.5039 -7.55859 16.1426 -7.86133 15.5762 -7.86133 L 12.5195 -7.86133 L 12.5195 -10.9277 C 12.5195 -11.5039 12.207 -11.8555 11.6895 -11.8555 C 11.1719 -11.8555 10.8789 -11.4844 10.8789 -10.9277 L 10.8789 -7.86133 L 7.83203 -7.86133 C 7.26562 -7.86133 6.89453 -7.55859 6.89453 -7.03125 C 6.89453 -6.51367 7.28516 -6.23047 7.83203 -6.23047 L 10.8789 -6.23047 L 10.8789 -3.33984 C 10.8789 -2.79297 11.1719 -2.41211 11.6895 -2.41211 Z"/>
  </g>
  <g id="" transform="matrix(1 0 0 1 304.924 1933)">
   <path d="M 14.9707 5.67383 C 21.9336 5.67383 27.6953 -0.078125 27.6953 -7.04102 C 27.6953 -14.0039 21.9238 -19.7559 14.9609 -19.7559 C 8.00781 -19.7559 2.25586 -14.0039 2.25586 -7.04102 C 2.25586 -0.078125 8.01758 5.67383 14.9707 5.67383 Z M 14.9707 3.85742 C 8.93555 3.85742 4.08203 -1.00586 4.08203 -7.04102 C 4.08203 -13.0762 8.92578 -17.9395 14.9609 -17.9395 C 21.0059 -17.9395 25.8594 -13.0762 25.8691 -7.04102 C 25.8789 -1.00586 21.0156 3.85742 14.9707 3.85742 Z M 14.9512 -1.06445 C 15.5176 -1.06445 15.8691 -1.45508 15.8691 -2.06055 L 15.8691 -6.13281 L 20.1074 -6.13281 C 20.6934 -6.13281 21.1133 -6.46484 21.1133 -7.02148 C 21.1133 -7.59766 20.7227 -7.93945 20.1074 -7.93945 L 15.8691 -7.93945 L 15.8691 -12.1875 C 15.8691 -12.8027 15.5176 -13.1934 14.9512 -13.1934 C 14.3848 -13.1934 14.0625 -12.7832 14.0625 -12.1875 L 14.0625 -7.93945 L 9.83398 -7.93945 C 9.21875 -7.93945 8.80859 -7.59766 8.80859 -7.02148 C 8.80859 -6.46484 9.23828 -6.13281 9.83398 -6.13281 L 14.0625 -6.13281 L 14.0625 -2.06055 C 14.0625 -1.47461 14.3848 -1.06445 14.9512 -1.06445 Z"/>
  </g>
  <text style="stroke:none;fill:black;font-family:-apple-system,&quot;SF Pro Display&quot;,&quot;SF Pro Text&quot;,Helvetica,sans-serif;font-weight:bold;" transform="matrix(1 0 0 1 263 1953)">Design Variations</text>
  <text style="stroke:none;fill:black;font-family:-apple-system,&quot;SF Pro Display&quot;,&quot;SF Pro Text&quot;,Helvetica,sans-serif;" transform="matrix(1 0 0 1 263 1971)">Symbols are supported in up to nine weights and three scales.</text>
  <text style="stroke:none;fill:black;font-family:-apple-system,&quot;SF Pro Display&quot;,&quot;SF Pro Text&quot;,Helvetica,sans-serif;" transform="matrix(1 0 0 1 263 1989)">For optimal layout with text and other symbols, vertically align</text>
  <text style="stroke:none;fill:black;font-family:-apple-system,&quot;SF Pro Display&quot;,&quot;SF Pro Text&quot;,Helvetica,sans-serif;" transform="matrix(1 0 0 1 263 2007)">symbols with the adjacent text.</text>
  <rect height="14" id="" style="fill:#00AEEF;stroke:none;opacity:0.4;" width="3" x="776" y="1919"/>
  <g id="" transform="matrix(1 0 0 1 779 1933)">
   <path d="M 10.5273 0 L 12.373 0 L 7.17773 -14.0918 L 5.43945 -14.0918 L 0.244141 0 L 2.08984 0 L 3.50586 -4.0332 L 9.11133 -4.0332 Z M 6.2793 -11.9531 L 6.33789 -11.9531 L 8.59375 -5.52734 L 4.02344 -5.52734 Z"/>
  </g>
  <rect height="14" id="" style="fill:#00AEEF;stroke:none;opacity:0.4;" width="3" x="791.617" y="1919"/>
  <text style="stroke:none;fill:black;font-family:-apple-system,&quot;SF Pro Display&quot;,&quot;SF Pro Text&quot;,Helvetica,sans-serif;font-weight:bold;" transform="matrix(1 0 0 1 776 1953)">Margins</text>
  <text style="stroke:none;fill:black;font-family:-apple-system,&quot;SF Pro Display&quot;,&quot;SF Pro Text&quot;,Helvetica,sans-serif;" transform="matrix(1 0 0 1 776 1971)">Leading and trailing margins on the left and right side of each symbol</text>
  <text style="stroke:none;fill:black;font-family:-apple-system,&quot;SF Pro Display&quot;,&quot;SF Pro Text&quot;,Helvetica,sans-serif;" transform="matrix(1 0 0 1 776 1989)">can be adjusted by modifying the width of the blue rectangles.</text>
  <text style="stroke:none;fill:black;font-family:-apple-system,&quot;SF Pro Display&quot;,&quot;SF Pro Text&quot;,Helvetica,sans-serif;" transform="matrix(1 0 0 1 776 2007)">Modifications are automatically applied proportionally to all</text>
  <text style="stroke:none;fill:black;font-family:-apple-system,&quot;SF Pro Display&quot;,&quot;SF Pro Text&quot;,Helvetica,sans-serif;" transform="matrix(1 0 0 1 776 2025)">scales and weights.</text>
  <g id="" transform="matrix(1 0 0 1 1289 1933)">
   <path d="M 2.83203 3.11523 L 4.375 4.6582 C 5.22461 5.48828 6.19141 5.41992 7.06055 4.46289 L 17.2754 -6.66016 C 17.7051 -6.36719 18.0957 -6.37695 18.5645 -6.47461 L 19.6094 -6.68945 L 20.3027 -5.99609 L 20.2539 -5.47852 C 20.1855 -4.95117 20.3516 -4.53125 20.8496 -4.0332 L 21.6602 -3.22266 C 22.168 -2.71484 22.8223 -2.68555 23.3008 -3.16406 L 26.5527 -6.41602 C 27.0312 -6.89453 27.0117 -7.54883 26.5039 -8.05664 L 25.6836 -8.87695 C 25.1855 -9.375 24.7754 -9.55078 24.2383 -9.47266 L 23.7109 -9.41406 L 23.0566 -10.0781 L 23.3398 -11.2207 C 23.4863 -11.7871 23.3398 -12.2559 22.7148 -12.8613 L 20.3027 -15.2539 C 16.7578 -18.7793 12.2266 -18.6719 9.11133 -15.5371 C 8.69141 -15.1074 8.64258 -14.5215 8.91602 -14.0918 C 9.15039 -13.7207 9.62891 -13.4961 10.2734 -13.6621 C 11.7871 -14.043 13.3008 -13.9258 14.7852 -12.9199 L 14.1602 -11.3379 C 13.9258 -10.752 13.9453 -10.2734 14.1797 -9.83398 L 3.01758 0.439453 C 2.08008 1.30859 1.97266 2.25586 2.83203 3.11523 Z M 10.6738 -15.1465 C 13.3398 -17.1387 16.6504 -16.8262 19.0527 -14.4141 L 21.6797 -11.8066 C 21.9141 -11.5723 21.9434 -11.3867 21.8848 -11.0938 L 21.5039 -9.53125 L 23.0762 -7.95898 L 24.043 -8.04688 C 24.3262 -8.07617 24.4141 -8.05664 24.6387 -7.83203 L 25.2637 -7.20703 L 22.5098 -4.46289 L 21.8848 -5.07812 C 21.6602 -5.30273 21.6406 -5.40039 21.6699 -5.68359 L 21.7578 -6.64062 L 20.1953 -8.20312 L 18.5742 -7.89062 C 18.291 -7.83203 18.1445 -7.83203 17.9102 -8.07617 L 15.7324 -10.2539 C 15.5078 -10.4883 15.4785 -10.625 15.6055 -10.9473 L 16.5527 -13.2227 C 14.9512 -14.7559 12.8418 -15.6055 10.8008 -14.9512 C 10.7129 -14.9219 10.6445 -14.9414 10.6152 -14.9805 C 10.5859 -15.0293 10.5859 -15.0781 10.6738 -15.1465 Z M 4.10156 2.41211 C 3.61328 1.91406 3.78906 1.61133 4.12109 1.30859 L 15.0781 -8.80859 L 16.3086 -7.57812 L 6.15234 3.34961 C 5.84961 3.68164 5.46875 3.7793 5.06836 3.37891 Z"/>
  </g>
  <text style="stroke:none;fill:black;font-family:-apple-system,&quot;SF Pro Display&quot;,&quot;SF Pro Text&quot;,Helvetica,sans-serif;font-weight:bold;" transform="matrix(1 0 0 1 1289 1953)">Exporting</text>
  <text style="stroke:none;fill:black;font-family:-apple-system,&quot;SF Pro Display&quot;,&quot;SF Pro Text&quot;,Helvetica,sans-serif;" transform="matrix(1 0 0 1 1289 1971)">Symbols should be outlined when exporting to ensure the</text>
  <text style="stroke:none;fill:black;font-family:-apple-system,&quot;SF Pro Display&quot;,&quot;SF Pro Text&quot;,Helvetica,sans-serif;" transform="matrix(1 0 0 1 1289 1989)">design is preserved when submitting to Xcode.</text>
  <text id="template-version" style="stroke:none;fill:black;font-family:-apple-system,&quot;SF Pro Display&quot;,&quot;SF Pro Text&quot;,Helvetica,sans-serif;text-anchor:end;" transform="matrix(1 0 0 1 3036 1933)">Template v.1.0</text>
  <text style="stroke:none;fill:black;font-family:-apple-system,&quot;SF Pro Display&quot;,&quot;SF Pro Text&quot;,Helvetica,sans-serif;text-anchor:end;" transform="matrix(1 0 0 1 3036 1951)">Generated from arrow.counterclockwise.circle.fill</text>
  <text style="stroke:none;fill:black;font-family:-apple-system,&quot;SF Pro Display&quot;,&quot;SF Pro Text&quot;,Helvetica,sans-serif;text-anchor:end;" transform="matrix(1 0 0 1 3036 1969)">Typeset at 100 points</text>
  <text style="stroke:none;fill:black;font-family:-apple-system,&quot;SF Pro Display&quot;,&quot;SF Pro Text&quot;,Helvetica,sans-serif;" transform="matrix(1 0 0 1 263 726)">Small</text>
  <text style="stroke:none;fill:black;font-family:-apple-system,&quot;SF Pro Display&quot;,&quot;SF Pro Text&quot;,Helvetica,sans-serif;" transform="matrix(1 0 0 1 263 1156)">Medium</text>
  <text style="stroke:none;fill:black;font-family:-apple-system,&quot;SF Pro Display&quot;,&quot;SF Pro Text&quot;,Helvetica,sans-serif;" transform="matrix(1 0 0 1 263 1586)">Large</text>
 </g>
 <g id="Guides">
  <g id="H-reference" style="fill:#27AAE1;stroke:none;" transform="matrix(1 0 0 1 339 696)">
   <path d="M 54.9316 0 L 57.666 0 L 30.5664 -70.459 L 28.0762 -70.459 L 0.976562 0 L 3.66211 0 L 12.9395 -24.4629 L 45.7031 -24.4629 Z M 29.1992 -67.0898 L 29.4434 -67.0898 L 44.8242 -26.709 L 13.8184 -26.709 Z"/>
  </g>
  <line id="Baseline-S" style="fill:none;stroke:#27AAE1;opacity:1;stroke-width:0.577;" x1="263" x2="3036" y1="696" y2="696"/>
  <line id="Capline-S" style="fill:none;stroke:#27AAE1;opacity:1;stroke-width:0.577;" x1="263" x2="3036" y1="625.541" y2="625.541"/>
  <g id="H-reference" style="fill:#27AAE1;stroke:none;" transform="matrix(1 0 0 1 339 1126)">
   <path d="M 54.9316 0 L 57.666 0 L 30.5664 -70.459 L 28.0762 -70.459 L 0.976562 0 L 3.66211 0 L 12.9395 -24.4629 L 45.7031 -24.4629 Z M 29.1992 -67.0898 L 29.4434 -67.0898 L 44.8242 -26.709 L 13.8184 -26.709 Z"/>
  </g>
  <line id="Baseline-M" style="fill:none;stroke:#27AAE1;opacity:1;stroke-width:0.577;" x1="263" x2="3036" y1="1126" y2="1126"/>
  <line id="Capline-M" style="fill:none;stroke:#27AAE1;opacity:1;stroke-width:0.577;" x1="263" x2="3036" y1="1055.54" y2="1055.54"/>
  <g id="H-reference" style="fill:#27AAE1;stroke:none;" transform="matrix(1 0 0 1 339 1556)">
   <path d="M 54.9316 0 L 57.666 0 L 30.5664 -70.459 L 28.0762 -70.459 L 0.976562 0 L 3.66211 0 L 12.9395 -24.4629 L 45.7031 -24.4629 Z M 29.1992 -67.0898 L 29.4434 -67.0898 L 44.8242 -26.709 L 13.8184 -26.709 Z"/>
  </g>
  <line id="Baseline-L" style="fill:none;stroke:#27AAE1;opacity:1;stroke-width:0.577;" x1="263" x2="3036" y1="1556" y2="1556"/>
  <line id="Capline-L" style="fill:none;stroke:#27AAE1;opacity:1;stroke-width:0.577;" x1="263" x2="3036" y1="1485.54" y2="1485.54"/>
  <rect height="119.336" id="left-margin" style="fill:#00AEEF;stroke:none;opacity:0.4;" width="8.74023" x="1391.3" y="1030.79"/>
  <rect height="119.336" id="right-margin" style="fill:#00AEEF;stroke:none;opacity:0.4;" width="8.74023" x="1499.65" y="1030.79"/>
 </g>
 <g id="Symbols">
  <g id="Black-L" transform="matrix(1 0 0 1 2854.05 1556)">
   <path d="M 79.3457 32.9102 C 116.748 32.9102 147.412 2.29492 147.412 -35.1074 C 147.412 -72.5586 116.748 -103.174 79.2969 -103.174 C 41.8945 -103.174 11.2793 -72.5586 11.2793 -35.1074 C 11.2793 2.29492 41.9434 32.9102 79.3457 32.9102 Z M 107.959 -32.373 C 107.959 -16.5039 95.0684 -3.56445 79.2969 -3.56445 C 63.5742 -3.56445 50.6836 -16.5039 50.6836 -32.2754 C 50.6836 -35.8398 53.6133 -38.7695 57.1777 -38.7695 C 60.8398 -38.7695 63.7695 -35.8398 63.7695 -32.2754 C 63.7695 -23.584 70.6543 -16.748 79.2969 -16.748 C 88.0371 -16.748 94.873 -23.6328 94.873 -32.2754 C 94.873 -39.0625 90.8203 -45.3125 85.1074 -46.2402 C 84.7168 -46.3379 84.2773 -46.582 83.8379 -46.8262 L 85.2539 -45.166 C 85.7422 -44.4824 85.9863 -43.3594 85.9863 -42.2363 C 85.9863 -38.4277 83.3984 -36.3281 79.8828 -36.3281 C 78.2715 -36.3281 76.6602 -37.1094 75.6348 -38.1348 L 64.5508 -49.1699 C 62.1094 -51.5625 62.3047 -55.6152 64.502 -57.8125 L 75.5371 -68.9453 C 76.709 -70.1172 78.2227 -71.0938 80.0781 -71.0938 C 83.9355 -71.0938 86.084 -68.3105 86.084 -65.5273 C 86.084 -63.6719 85.3027 -62.6953 84.5703 -61.7188 L 83.5449 -60.5469 C 83.7891 -60.498 84.2773 -60.4492 84.5703 -60.4004 C 97.4609 -58.5938 107.959 -46.5332 107.959 -32.373 Z"/>
  </g>
  <g id="Heavy-L" transform="matrix(1 0 0 1 2558.39 1556)">
   <path d="M 78.2715 31.8848 C 115.088 31.8848 145.312 1.66016 145.312 -35.1074 C 145.312 -71.9238 115.039 -102.148 78.2715 -102.148 C 41.4551 -102.148 11.2793 -71.9238 11.2793 -35.1074 C 11.2793 1.66016 41.5039 31.8848 78.2715 31.8848 Z M 106.787 -32.373 C 106.787 -16.5527 93.9453 -3.71094 78.2715 -3.71094 C 62.5488 -3.71094 49.7559 -16.5527 49.7559 -32.2754 C 49.7559 -35.498 52.3926 -38.1348 55.6152 -38.1348 C 58.9355 -38.1348 61.5723 -35.498 61.5723 -32.2754 C 61.5723 -22.9492 68.9453 -15.5273 78.2715 -15.5273 C 87.5977 -15.5273 94.9707 -22.998 94.9707 -32.2754 C 94.9707 -40.1367 89.7461 -47.0215 82.666 -47.7539 C 82.0801 -47.8516 81.4453 -47.998 80.8594 -48.0957 L 83.6914 -45.1172 C 84.2285 -44.4336 84.5215 -43.3594 84.5215 -42.2363 C 84.5215 -38.8672 82.1777 -36.9141 79.0527 -36.9141 C 77.5879 -36.9141 76.123 -37.5977 75.1953 -38.5254 L 63.7207 -49.9512 C 61.5723 -52.1484 61.6699 -55.8105 63.6719 -57.8613 L 75.0488 -69.3359 C 76.123 -70.4102 77.4902 -71.2891 79.1504 -71.2891 C 82.6172 -71.2891 84.6191 -68.7988 84.6191 -66.2109 C 84.6191 -64.5508 83.9355 -63.5742 83.2031 -62.6465 L 81.0547 -60.4004 C 81.4453 -60.3516 82.0312 -60.3516 82.5195 -60.3027 C 95.752 -58.9355 106.787 -46.875 106.787 -32.373 Z"/>
  </g>
  <g id="Bold-L" transform="matrix(1 0 0 1 2262.88 1556)">
   <path d="M 77.0996 30.7129 C 113.232 30.7129 142.92 0.976562 142.92 -35.1074 C 142.92 -71.2402 113.184 -100.977 77.0508 -100.977 C 40.9668 -100.977 11.2793 -71.2402 11.2793 -35.1074 C 11.2793 0.976562 41.0156 30.7129 77.0996 30.7129 Z M 105.42 -32.373 C 105.42 -16.5527 92.7246 -3.80859 77.0508 -3.80859 C 61.377 -3.80859 48.7305 -16.5527 48.7305 -32.2754 C 48.7305 -35.0586 51.0254 -37.4023 53.8574 -37.4023 C 56.7871 -37.4023 59.082 -35.0586 59.082 -32.2754 C 59.082 -22.2168 67.041 -14.209 77.0508 -14.209 C 87.1094 -14.209 95.0684 -22.2168 95.0684 -32.2754 C 95.0684 -41.3086 88.5254 -48.9746 79.9805 -49.4141 C 79.1016 -49.4629 78.2715 -49.5605 77.5391 -49.5605 L 81.9824 -45.0684 C 82.5684 -44.3848 82.8613 -43.3594 82.8613 -42.2363 C 82.8613 -39.4043 80.8105 -37.5488 78.0762 -37.5488 C 76.8066 -37.5488 75.5371 -38.1348 74.6582 -38.9648 L 62.793 -50.8789 C 60.9375 -52.7832 61.0352 -56.0547 62.793 -57.9102 L 74.5605 -69.8242 C 75.4883 -70.8008 76.709 -71.4844 78.1738 -71.4844 C 81.1035 -71.4844 82.959 -69.3359 82.959 -66.8945 C 82.959 -65.5273 82.4219 -64.502 81.6895 -63.6719 L 78.2715 -60.2051 C 78.8086 -60.2539 79.541 -60.2539 80.1758 -60.2539 C 93.8477 -59.3262 105.42 -47.2656 105.42 -32.373 Z"/>
  </g>
  <g id="Semibold-L" transform="matrix(1 0 0 1 1966.97 1556)">
   <path d="M 76.2695 29.8828 C 111.914 29.8828 141.309 0.488281 141.309 -35.1074 C 141.309 -70.752 111.865 -100.146 76.2695 -100.146 C 40.625 -100.146 11.2793 -70.752 11.2793 -35.1074 C 11.2793 0.488281 40.6738 29.8828 76.2695 29.8828 Z M 104.492 -32.373 C 104.492 -16.6016 91.8945 -3.90625 76.2695 -3.90625 C 60.5957 -3.90625 47.998 -16.6016 47.998 -32.2754 C 47.998 -34.7656 50.0977 -36.9141 52.6367 -36.9141 C 55.2734 -36.9141 57.373 -34.7656 57.373 -32.2754 C 57.373 -21.7285 65.7227 -13.3301 76.2695 -13.3301 C 86.8164 -13.3301 95.166 -21.7285 95.166 -32.2754 C 95.166 -42.1387 87.6953 -50.293 78.0762 -50.5859 C 77.0508 -50.6348 76.0742 -50.6348 75.2441 -50.5859 L 80.7617 -45.0195 C 81.3965 -44.3359 81.7383 -43.3594 81.7383 -42.2363 C 81.7383 -39.7461 79.8828 -37.9883 77.3926 -37.9883 C 76.2695 -37.9883 75.0977 -38.5254 74.3164 -39.3066 L 62.1582 -51.5137 C 60.4492 -53.2227 60.5469 -56.25 62.1582 -57.9102 L 74.2188 -70.1172 C 75.0488 -71.0449 76.1719 -71.6309 77.4414 -71.6309 C 80.0781 -71.6309 81.7871 -69.6777 81.7871 -67.4316 C 81.7871 -66.1621 81.3477 -65.1855 80.6152 -64.4043 L 76.3672 -60.1074 C 76.9531 -60.1562 77.832 -60.2051 78.5645 -60.2051 C 92.5293 -59.6191 104.492 -47.5098 104.492 -32.373 Z"/>
  </g>
  <g id="Medium-L" transform="matrix(1 0 0 1 1670.87 1556)">
   <path d="M 75.6836 29.248 C 110.938 29.248 140.088 0.146484 140.088 -35.1074 C 140.088 -70.4102 110.889 -99.5117 75.6348 -99.5117 C 40.3809 -99.5117 11.2793 -70.4102 11.2793 -35.1074 C 11.2793 0.146484 40.3809 29.248 75.6836 29.248 Z M 103.809 -32.4219 C 103.809 -16.6016 91.2598 -4.00391 75.6348 -4.00391 C 60.0098 -4.00391 47.4609 -16.6016 47.4609 -32.2754 C 47.4609 -34.5703 49.4141 -36.5234 51.7578 -36.5234 C 54.1504 -36.5234 56.0547 -34.5703 56.0547 -32.2754 C 56.0547 -21.3379 64.7461 -12.5977 75.6348 -12.5977 C 86.5723 -12.5977 95.2148 -21.3379 95.2148 -32.2754 C 95.2148 -42.7734 87.0605 -51.3184 76.6602 -51.4648 C 75.5371 -51.4648 74.4141 -51.4648 73.4863 -51.3184 L 79.834 -45.0195 C 80.5176 -44.2871 80.8594 -43.3594 80.8594 -42.2852 C 80.8594 -39.9902 79.1504 -38.3301 76.8555 -38.3301 C 75.8301 -38.3301 74.8047 -38.8184 74.0723 -39.502 L 61.6699 -51.9531 C 60.1562 -53.5645 60.2051 -56.3477 61.6699 -57.9102 L 73.9258 -70.3613 C 74.707 -71.2402 75.7812 -71.7285 76.9531 -71.7285 C 79.2969 -71.7285 80.9082 -69.9707 80.9082 -67.7734 C 80.9082 -66.6992 80.5176 -65.7227 79.834 -64.9902 L 74.9023 -60.0098 C 75.5859 -60.0586 76.5137 -60.1562 77.3438 -60.1562 C 91.5527 -59.8145 103.809 -47.7051 103.809 -32.4219 Z"/>
  </g>
  <g id="Regular-L" transform="matrix(1 0 0 1 1374.97 1556)">
   <path d="M 74.8535 28.4668 C 109.668 28.4668 138.477 -0.341797 138.477 -35.1074 C 138.477 -69.9219 109.619 -98.7305 74.8047 -98.7305 C 40.0391 -98.7305 11.2793 -69.9219 11.2793 -35.1074 C 11.2793 -0.341797 40.0879 28.4668 74.8535 28.4668 Z M 102.93 -32.4219 C 102.93 -16.6504 90.4297 -4.10156 74.8047 -4.10156 C 59.1797 -4.10156 46.7773 -16.6504 46.7773 -32.2754 C 46.7773 -34.2773 48.4863 -36.0352 50.5371 -36.0352 C 52.6855 -36.0352 54.3945 -34.2773 54.3945 -32.2754 C 54.3945 -20.8496 63.4277 -11.7188 74.8047 -11.7188 C 86.2305 -11.7188 95.2637 -20.8008 95.2637 -32.2754 C 95.2637 -43.6035 86.2305 -52.6367 74.8047 -52.6367 C 73.5352 -52.6367 72.2168 -52.5391 71.2402 -52.2949 L 78.6621 -44.9707 C 79.3945 -44.2383 79.7363 -43.3594 79.7363 -42.2852 C 79.7363 -40.332 78.2227 -38.7695 76.2207 -38.7695 C 75.293 -38.7695 74.3652 -39.209 73.7305 -39.8438 L 61.084 -52.5879 C 59.7168 -53.9551 59.7168 -56.543 61.084 -57.959 L 73.584 -70.7031 C 74.2676 -71.4844 75.2441 -71.875 76.2207 -71.875 C 78.2715 -71.875 79.7852 -70.3125 79.7852 -68.3105 C 79.7852 -67.334 79.4922 -66.3574 78.8086 -65.6738 L 72.998 -59.8633 C 73.7793 -59.9609 74.8047 -60.1074 75.7812 -60.1074 C 90.2344 -60.1074 102.93 -47.9492 102.93 -32.4219 Z"/>
  </g>
  <g id="Light-L" transform="matrix(1 0 0 1 1079.18 1556)">
   <path d="M 73.9258 27.5879 C 108.301 27.5879 136.621 -0.732422 136.621 -35.1074 C 136.621 -69.4336 108.252 -97.7539 73.9258 -97.7539 C 39.5508 -97.7539 11.2793 -69.4336 11.2793 -35.1074 C 11.2793 -0.732422 39.5996 27.5879 73.9258 27.5879 Z M 101.416 -32.3242 C 101.416 -16.8945 89.209 -4.6875 73.9258 -4.6875 C 58.5938 -4.6875 46.4844 -16.8945 46.4844 -32.2266 C 46.4844 -33.8379 47.9004 -35.2539 49.4629 -35.2539 C 51.1719 -35.2539 52.5391 -33.8379 52.5391 -32.2266 C 52.5391 -20.2637 61.9629 -10.7422 73.9258 -10.7422 C 85.8887 -10.7422 95.3613 -20.2148 95.3613 -32.2266 C 95.3613 -44.1406 85.8887 -53.5645 73.9258 -53.5645 C 71.9238 -53.5645 70.0684 -53.418 68.5547 -53.0762 L 77.6367 -44.043 C 78.3203 -43.3594 78.6133 -42.627 78.6133 -41.6992 C 78.6133 -40.1855 77.3926 -38.8672 75.7324 -38.8672 C 75.0488 -38.8672 74.2676 -39.209 73.7793 -39.6973 L 60.7422 -53.0273 C 59.6191 -54.1992 59.5703 -56.2988 60.7422 -57.5684 L 73.5352 -70.7031 C 74.1699 -71.3867 74.9512 -71.7773 75.7812 -71.7773 C 77.4414 -71.7773 78.6621 -70.5078 78.6621 -68.8477 C 78.6621 -68.1152 78.5156 -67.2852 77.8809 -66.6992 L 70.3613 -59.1309 C 71.5332 -59.3262 73.0469 -59.5215 74.5117 -59.5215 C 89.1113 -59.5215 101.416 -47.6074 101.416 -32.3242 Z"/>
  </g>
  <g id="Thin-L" transform="matrix(1 0 0 1 783.693 1556)">
   <path d="M 72.7051 26.416 C 106.494 26.416 134.18 -1.26953 134.18 -35.0586 C 134.18 -68.7988 106.494 -96.4844 72.7051 -96.4844 C 38.9648 -96.4844 11.2793 -68.7988 11.2793 -35.0586 C 11.2793 -1.26953 38.9648 26.416 72.7051 26.416 Z M 99.3652 -32.2266 C 99.3652 -17.2363 87.5977 -5.46875 72.7051 -5.46875 C 57.7637 -5.46875 46.0938 -17.2363 46.0938 -32.2266 C 46.0938 -33.252 47.0215 -34.1797 47.998 -34.1797 C 49.2188 -34.1797 50.0488 -33.252 50.0488 -32.2266 C 50.0488 -19.4824 60.0586 -9.42383 72.7051 -9.42383 C 85.4492 -9.42383 95.459 -19.3848 95.459 -32.2266 C 95.459 -44.873 85.4492 -54.7852 72.7051 -54.7852 C 69.8242 -54.7852 67.1875 -54.5898 65.0391 -54.0527 L 76.2695 -42.8223 C 76.9531 -42.1875 77.1484 -41.6504 77.1484 -40.918 C 77.1484 -39.9414 76.3184 -39.0137 75.1465 -39.0137 C 74.6582 -39.0137 74.1211 -39.2578 73.8281 -39.5508 L 60.3027 -53.6133 C 59.4727 -54.4922 59.3262 -56.0059 60.3027 -57.0312 L 73.5352 -70.6543 C 74.0234 -71.2402 74.6094 -71.582 75.1953 -71.582 C 76.3672 -71.582 77.1973 -70.752 77.1973 -69.5801 C 77.1973 -69.0918 77.1484 -68.5547 76.6602 -68.0664 L 66.7969 -58.2031 C 68.6035 -58.3984 70.7031 -58.7402 72.8516 -58.7402 C 87.5977 -58.7402 99.3652 -47.1191 99.3652 -32.2266 Z"/>
  </g>
  <g id="Ultralight-L" transform="matrix(1 0 0 1 487.616 1556)">
   <path d="M 72.1191 25.7812 C 105.566 25.7812 132.91 -1.5625 132.91 -35.0098 C 132.91 -68.5059 105.566 -95.8496 72.1191 -95.8496 C 38.623 -95.8496 11.2793 -68.5059 11.2793 -35.0098 C 11.2793 -1.5625 38.623 25.7812 72.1191 25.7812 Z M 98.3398 -32.1777 C 98.3398 -17.4316 86.8164 -5.85938 72.1191 -5.85938 C 57.3242 -5.85938 45.9473 -17.4316 45.9473 -32.2266 C 45.9473 -32.959 46.6309 -33.6426 47.2656 -33.6426 C 48.1934 -33.6426 48.7793 -32.959 48.7793 -32.2266 C 48.7793 -19.0918 59.0332 -8.74023 72.1191 -8.74023 C 85.2539 -8.74023 95.5078 -18.9941 95.5078 -32.2266 C 95.5078 -45.2637 85.2539 -55.4199 72.1191 -55.4199 C 68.75 -55.4199 65.7227 -55.1758 63.2324 -54.5898 L 75.5859 -42.1875 C 76.2207 -41.5527 76.3672 -41.1621 76.3672 -40.5273 C 76.3672 -39.7949 75.7324 -39.0625 74.8047 -39.0625 C 74.4629 -39.0625 74.0723 -39.3066 73.877 -39.502 L 60.0586 -53.9062 C 59.4238 -54.6387 59.2285 -55.8594 60.0586 -56.7871 L 73.5352 -70.6543 C 73.9746 -71.1914 74.4141 -71.4844 74.9023 -71.4844 C 75.8301 -71.4844 76.4648 -70.8984 76.4648 -69.9707 C 76.4648 -69.6289 76.5137 -69.1895 76.0254 -68.75 L 64.9902 -57.7148 C 67.0898 -57.959 69.4824 -58.3008 71.9727 -58.3008 C 86.8164 -58.3008 98.3398 -46.875 98.3398 -32.1777 Z"/>
  </g>
  <g id="Black-M" transform="matrix(1 0 0 1 2870.97 1126)">
   <path d="M 62.4023 18.5547 C 91.9922 18.5547 116.113 -5.56641 116.113 -35.1562 C 116.113 -64.7461 91.9922 -88.8184 62.4023 -88.8184 C 32.8125 -88.8184 8.74023 -64.7461 8.74023 -35.1562 C 8.74023 -5.56641 32.8125 18.5547 62.4023 18.5547 Z M 84.4727 -32.959 C 84.4727 -20.8008 74.5117 -10.8398 62.4023 -10.8398 C 50.3418 -10.8398 40.3809 -20.8008 40.3809 -32.959 C 40.3809 -35.9863 42.8223 -38.4277 45.8008 -38.4277 C 48.9746 -38.4277 51.416 -35.9863 51.416 -32.959 C 51.416 -26.7578 56.2988 -21.9238 62.4023 -21.9238 C 68.6035 -21.9238 73.4375 -26.8555 73.4375 -32.959 C 73.4375 -37.0117 71.6797 -41.2109 68.75 -42.2363 C 68.3594 -42.3828 67.9688 -42.627 67.5293 -42.8711 L 67.627 -42.5293 C 67.8711 -42.041 68.0176 -41.1621 68.0176 -40.332 C 68.0176 -37.0117 65.8203 -35.4004 62.8418 -35.4004 C 61.4746 -35.4004 60.1074 -36.0352 59.2285 -36.9141 L 50.9277 -45.166 C 48.877 -47.2168 48.9746 -50.6348 50.8789 -52.4902 L 59.1309 -60.7422 C 60.1562 -61.7676 61.4258 -62.6953 63.0371 -62.6953 C 66.4551 -62.6953 68.1152 -60.3516 68.1152 -58.1543 C 68.1152 -56.4941 67.4316 -55.8594 66.8945 -55.0293 L 66.6504 -54.6875 C 66.9434 -54.6387 67.3828 -54.541 67.6758 -54.4922 C 77.1973 -52.5391 84.4727 -43.3594 84.4727 -32.959 Z"/>
  </g>
  <g id="Heavy-M" transform="matrix(1 0 0 1 2575.19 1126)">
   <path d="M 61.5234 17.627 C 90.5273 17.627 114.258 -6.10352 114.258 -35.1562 C 114.258 -64.1602 90.5273 -87.8906 61.4746 -87.8906 C 32.4707 -87.8906 8.74023 -64.1602 8.74023 -35.1562 C 8.74023 -6.10352 32.4707 17.627 61.5234 17.627 Z M 83.5449 -32.959 C 83.5449 -20.8008 73.6328 -10.8398 61.4746 -10.8398 C 49.3652 -10.8398 39.4531 -20.8008 39.4531 -32.959 C 39.4531 -35.6934 41.6504 -37.8906 44.3848 -37.8906 C 47.2656 -37.8906 49.4629 -35.6934 49.4629 -32.959 C 49.4629 -26.2207 54.7852 -20.8984 61.4746 -20.8984 C 68.2129 -20.8984 73.5352 -26.2695 73.5352 -32.959 C 73.5352 -38.0859 70.5566 -42.8711 66.3086 -43.6523 C 65.8691 -43.75 65.4297 -43.9453 64.9902 -44.0918 L 66.2109 -42.7246 C 66.5039 -42.1875 66.6992 -41.3574 66.6992 -40.4785 C 66.6992 -37.5488 64.6973 -35.9863 62.0117 -35.9863 C 60.791 -35.9863 59.5215 -36.5723 58.7402 -37.3535 L 50.1465 -45.9473 C 48.291 -47.8027 48.3887 -50.9277 50.0977 -52.6367 L 58.6426 -61.2305 C 59.5703 -62.1582 60.6934 -62.9395 62.1582 -62.9395 C 65.1855 -62.9395 66.7969 -60.791 66.7969 -58.6914 C 66.7969 -57.2754 66.2109 -56.543 65.625 -55.7617 L 64.6484 -54.6875 C 64.9414 -54.6875 65.3809 -54.6387 65.7227 -54.5898 C 75.6348 -53.0762 83.5449 -43.8477 83.5449 -32.959 Z"/>
  </g>
  <g id="Bold-M" transform="matrix(1 0 0 1 2279.5 1126)">
   <path d="M 60.498 16.6016 C 88.8672 16.6016 112.207 -6.73828 112.207 -35.1562 C 112.207 -63.5742 88.8672 -86.9141 60.4492 -86.9141 C 32.0312 -86.9141 8.74023 -63.5742 8.74023 -35.1562 C 8.74023 -6.73828 32.0801 16.6016 60.498 16.6016 Z M 82.5195 -33.0078 C 82.5195 -20.752 72.6074 -10.791 60.4492 -10.791 C 48.291 -10.791 38.3789 -20.752 38.3789 -32.959 C 38.3789 -35.3516 40.3809 -37.3535 42.8223 -37.3535 C 45.3125 -37.3535 47.3145 -35.3516 47.3145 -32.959 C 47.3145 -25.5859 53.125 -19.7754 60.4492 -19.7754 C 67.8223 -19.7754 73.6328 -25.6348 73.6328 -32.959 C 73.6328 -39.209 69.3359 -44.6777 63.623 -45.2148 C 63.1348 -45.2637 62.5977 -45.3613 62.1094 -45.459 L 64.5996 -42.9199 C 64.9902 -42.3828 65.2344 -41.5527 65.2344 -40.6738 C 65.2344 -38.1348 63.4766 -36.6211 61.084 -36.6211 C 60.0098 -36.6211 58.8867 -37.1582 58.1543 -37.8906 L 49.2188 -46.7773 C 47.6074 -48.4375 47.7051 -51.2207 49.2188 -52.7832 L 58.1055 -61.7676 C 58.8867 -62.5488 59.9121 -63.2324 61.1816 -63.2324 C 63.7695 -63.2324 65.2832 -61.3281 65.2832 -59.3262 C 65.2832 -58.1055 64.7949 -57.3242 64.2578 -56.6406 L 62.4023 -54.7363 C 62.6953 -54.6875 63.1836 -54.6875 63.5742 -54.6875 C 73.877 -53.6621 82.5195 -44.3359 82.5195 -33.0078 Z"/>
  </g>
  <g id="Semibold-M" transform="matrix(1 0 0 1 1983.5 1126)">
   <path d="M 59.7656 15.8691 C 87.7441 15.8691 110.791 -7.17773 110.791 -35.1562 C 110.791 -63.1348 87.6953 -86.1816 59.7656 -86.1816 C 31.7871 -86.1816 8.74023 -63.1348 8.74023 -35.1562 C 8.74023 -7.17773 31.7871 15.8691 59.7656 15.8691 Z M 81.8359 -33.0566 C 81.8359 -20.7031 71.9238 -10.791 59.7656 -10.791 C 47.5586 -10.791 37.6465 -20.7031 37.6465 -32.959 C 37.6465 -35.1562 39.502 -36.9629 41.6992 -36.9629 C 43.9941 -36.9629 45.8008 -35.1562 45.8008 -32.959 C 45.8008 -25.1465 52.002 -18.9453 59.7656 -18.9453 C 67.5293 -18.9453 73.6816 -25.1953 73.6816 -32.959 C 73.6816 -39.9902 68.5059 -45.9473 61.7676 -46.2891 C 61.2305 -46.3379 60.6445 -46.3867 60.1562 -46.3867 L 63.4766 -43.0664 C 63.9648 -42.4805 64.209 -41.6992 64.209 -40.8203 C 64.209 -38.5742 62.5977 -37.1094 60.4492 -37.1094 C 59.4727 -37.1094 58.4473 -37.5488 57.8125 -38.2324 L 48.584 -47.3633 C 47.1191 -48.877 47.2168 -51.4648 48.584 -52.8809 L 57.7148 -62.1094 C 58.3984 -62.8418 59.375 -63.3789 60.498 -63.3789 C 62.793 -63.3789 64.2578 -61.6699 64.2578 -59.7656 C 64.2578 -58.6914 63.8672 -57.8613 63.2812 -57.2266 L 60.8398 -54.7363 C 61.1328 -54.7363 61.6699 -54.7363 62.0605 -54.7363 C 72.7051 -54.1016 81.8359 -44.6777 81.8359 -33.0566 Z"/>
  </g>
  <g id="Medium-M" transform="matrix(1 0 0 1 1687.3 1126)">
   <path d="M 59.2285 15.332 C 86.9141 15.332 109.766 -7.51953 109.766 -35.1562 C 109.766 -62.793 86.8652 -85.6445 59.1797 -85.6445 C 31.543 -85.6445 8.74023 -62.793 8.74023 -35.1562 C 8.74023 -7.51953 31.5918 15.332 59.2285 15.332 Z M 81.2988 -33.0566 C 81.2988 -20.7031 71.4355 -10.791 59.1797 -10.791 C 46.9727 -10.791 37.1094 -20.7031 37.1094 -32.959 C 37.1094 -34.9609 38.8184 -36.6699 40.8691 -36.6699 C 42.9688 -36.6699 44.6777 -34.9609 44.6777 -32.959 C 44.6777 -24.8535 51.123 -18.3594 59.1797 -18.3594 C 67.2852 -18.3594 73.7305 -24.8535 73.7305 -32.959 C 73.7305 -40.625 67.8711 -46.9238 60.3516 -47.1191 C 59.7656 -47.1191 59.1309 -47.1191 58.6426 -47.1191 L 62.6465 -43.1641 C 63.1836 -42.5781 63.4277 -41.7969 63.4277 -40.8691 C 63.4277 -38.8672 61.9629 -37.4512 59.9609 -37.4512 C 59.0332 -37.4512 58.1543 -37.8906 57.5195 -38.5254 L 48.1445 -47.8516 C 46.7773 -49.2188 46.875 -51.6602 48.0957 -52.9297 L 57.4219 -62.4023 C 58.0566 -63.0859 58.9844 -63.5254 60.0098 -63.5254 C 62.0605 -63.5254 63.4766 -61.9629 63.4766 -60.1074 C 63.4766 -59.1309 63.1348 -58.3008 62.5488 -57.666 L 59.6191 -54.7363 C 59.9609 -54.7363 60.498 -54.7852 60.8887 -54.7852 C 71.7773 -54.3945 81.2988 -44.9219 81.2988 -33.0566 Z"/>
  </g>
  <g id="Regular-M" transform="matrix(1 0 0 1 1391.3 1126)">
   <path d="M 58.5449 14.6484 C 85.791 14.6484 108.35 -7.95898 108.35 -35.1562 C 108.35 -62.4023 85.7422 -84.9609 58.4961 -84.9609 C 31.2988 -84.9609 8.74023 -62.4023 8.74023 -35.1562 C 8.74023 -7.95898 31.3477 14.6484 58.5449 14.6484 Z M 80.6152 -33.1055 C 80.6152 -20.7031 70.752 -10.7422 58.4961 -10.7422 C 46.2402 -10.7422 36.377 -20.7031 36.377 -32.959 C 36.377 -34.7656 37.9395 -36.2793 39.7949 -36.2793 C 41.6504 -36.2793 43.2129 -34.7656 43.2129 -32.959 C 43.2129 -24.4141 50 -17.5781 58.4961 -17.5781 C 67.041 -17.5781 73.7793 -24.4141 73.7793 -32.959 C 73.7793 -41.4062 67.041 -48.1445 58.4961 -48.1445 C 57.8613 -48.1445 57.2266 -48.1445 56.7383 -48.0469 L 61.5234 -43.3105 C 62.1094 -42.7246 62.4512 -41.9434 62.4512 -41.0156 C 62.4512 -39.3066 61.084 -37.8906 59.3262 -37.8906 C 58.5449 -37.8906 57.7148 -38.2812 57.1289 -38.8672 L 47.5098 -48.4375 C 46.3379 -49.6094 46.3867 -51.8555 47.5098 -53.0273 L 57.0312 -62.7441 C 57.6172 -63.3789 58.4473 -63.7207 59.3262 -63.7207 C 61.1328 -63.7207 62.4512 -62.3047 62.4512 -60.5469 C 62.4512 -59.668 62.1582 -58.8379 61.6211 -58.252 L 58.1055 -54.7363 C 58.4473 -54.7852 58.9844 -54.834 59.4238 -54.834 C 70.6055 -54.834 80.6152 -45.2637 80.6152 -33.1055 Z"/>
  </g>
  <g id="Light-M" transform="matrix(1 0 0 1 1095.42 1126)">
   <path d="M 57.7148 13.8184 C 84.5215 13.8184 106.689 -8.30078 106.689 -35.1562 C 106.689 -61.9629 84.5215 -84.1309 57.666 -84.1309 C 30.8594 -84.1309 8.74023 -61.9629 8.74023 -35.1562 C 8.74023 -8.30078 30.9082 13.8184 57.7148 13.8184 Z M 79.248 -33.0078 C 79.248 -20.8984 69.6777 -11.2793 57.666 -11.2793 C 45.6543 -11.2793 36.1328 -20.8984 36.1328 -32.9102 C 36.1328 -34.375 37.4023 -35.5957 38.8184 -35.5957 C 40.332 -35.5957 41.5527 -34.375 41.5527 -32.9102 C 41.5527 -23.877 48.6816 -16.6992 57.666 -16.6992 C 66.6992 -16.6992 73.877 -23.877 73.877 -32.9102 C 73.877 -41.8945 66.6992 -49.0234 57.666 -49.0234 C 56.4453 -49.0234 55.2734 -48.9258 54.3457 -48.7305 L 60.6445 -42.4805 C 61.1816 -41.8945 61.4258 -41.3086 61.4258 -40.4785 C 61.4258 -39.1113 60.3516 -37.9883 58.8867 -37.9883 C 58.252 -37.9883 57.6172 -38.3301 57.1777 -38.7695 L 47.2168 -48.8281 C 46.2402 -49.8535 46.2402 -51.6602 47.2168 -52.6855 L 57.0312 -62.6953 C 57.5195 -63.2812 58.2031 -63.5742 58.9355 -63.5742 C 60.4004 -63.5742 61.4746 -62.5 61.4746 -61.0352 C 61.4746 -60.3516 61.2793 -59.668 60.791 -59.1797 L 55.7129 -54.1016 C 56.4453 -54.1992 57.373 -54.2969 58.3008 -54.2969 C 69.5801 -54.2969 79.248 -44.9707 79.248 -33.0078 Z"/>
  </g>
  <g id="Thin-M" transform="matrix(1 0 0 1 799.806 1126)">
   <path d="M 56.6406 12.793 C 82.9102 12.793 104.492 -8.78906 104.492 -35.1074 C 104.492 -61.377 82.9102 -82.959 56.5918 -82.959 C 30.3223 -82.959 8.74023 -61.377 8.74023 -35.1074 C 8.74023 -8.78906 30.3223 12.793 56.6406 12.793 Z M 77.4414 -32.9102 C 77.4414 -21.2402 68.2617 -12.0117 56.5918 -12.0117 C 44.9219 -12.0117 35.8398 -21.2402 35.8398 -32.9102 C 35.8398 -33.8379 36.6211 -34.668 37.5 -34.668 C 38.5742 -34.668 39.3066 -33.8379 39.3066 -32.9102 C 39.3066 -23.1934 46.9727 -15.4785 56.5918 -15.4785 C 66.3086 -15.4785 73.9746 -23.1445 73.9746 -32.9102 C 73.9746 -42.5781 66.3086 -50.1465 56.5918 -50.1465 C 54.541 -50.1465 52.6855 -49.9512 51.1719 -49.6094 L 59.4238 -41.4062 C 59.9121 -40.8691 60.1074 -40.4297 60.1074 -39.7949 C 60.1074 -38.916 59.375 -38.1348 58.3496 -38.1348 C 57.959 -38.1348 57.4707 -38.3789 57.2266 -38.623 L 46.8262 -49.3652 C 46.1426 -50.0977 46.0449 -51.416 46.8262 -52.2461 L 56.9824 -62.6953 C 57.4219 -63.1836 57.8613 -63.4277 58.3984 -63.4277 C 59.4238 -63.4277 60.1562 -62.6953 60.1562 -61.6699 C 60.1562 -61.2793 60.1074 -60.791 59.668 -60.3516 L 52.5391 -53.2227 C 53.8086 -53.418 55.2734 -53.6133 56.7871 -53.6133 C 68.2129 -53.6133 77.4414 -44.5801 77.4414 -32.9102 Z"/>
  </g>
  <g id="Ultralight-M" transform="matrix(1 0 0 1 503.656 1126)">
   <path d="M 56.0547 12.2559 C 82.0801 12.2559 103.369 -9.0332 103.369 -35.0586 C 103.369 -61.084 82.0801 -82.373 56.0547 -82.373 C 30.0293 -82.373 8.74023 -61.084 8.74023 -35.0586 C 8.74023 -9.0332 30.0293 12.2559 56.0547 12.2559 Z M 76.5137 -32.9102 C 76.5137 -21.3867 67.5293 -12.3535 56.0547 -12.3535 C 44.5312 -12.3535 35.6445 -21.3867 35.6445 -32.9102 C 35.6445 -33.5449 36.2793 -34.1797 36.8652 -34.1797 C 37.6465 -34.1797 38.1836 -33.5449 38.1836 -32.9102 C 38.1836 -22.8516 46.0449 -14.8926 56.0547 -14.8926 C 66.1133 -14.8926 73.9746 -22.7539 73.9746 -32.9102 C 73.9746 -42.8711 66.1133 -50.6836 56.0547 -50.6836 C 53.6133 -50.6836 51.3672 -50.4883 49.5605 -50.0488 L 58.7891 -40.8203 C 59.2773 -40.332 59.4238 -39.9414 59.4238 -39.4531 C 59.4238 -38.8184 58.8867 -38.1836 58.0566 -38.1836 C 57.7637 -38.1836 57.4219 -38.3789 57.2266 -38.5742 L 46.6309 -49.6094 C 46.0449 -50.2441 45.9473 -51.2695 46.6309 -52.002 L 56.9824 -62.6953 C 57.3242 -63.1348 57.7148 -63.3789 58.1543 -63.3789 C 58.9355 -63.3789 59.4727 -62.793 59.4727 -62.0117 C 59.4727 -61.7188 59.4727 -61.377 59.1309 -60.9863 L 50.9277 -52.7832 C 52.4414 -52.9785 54.1992 -53.2227 56.0547 -53.2227 C 67.5293 -53.2227 76.5137 -44.3359 76.5137 -32.9102 Z"/>
  </g>
  <g id="Black-S" transform="matrix(1 0 0 1 2884.57 696)">
   <path d="M 48.8281 6.83594 C 71.9727 6.83594 90.8203 -12.0117 90.8203 -35.1562 C 90.8203 -58.3008 71.9727 -77.1484 48.8281 -77.1484 C 25.6836 -77.1484 6.83594 -58.3008 6.83594 -35.1562 C 6.83594 -12.0117 25.6836 6.83594 48.8281 6.83594 Z M 66.1133 -33.4473 C 66.1133 -23.9258 58.3008 -16.1133 48.8281 -16.1133 C 39.3555 -16.1133 31.543 -23.9258 31.543 -33.4473 C 31.543 -35.791 33.4473 -37.6953 35.791 -37.6953 C 38.2324 -37.6953 40.1367 -35.791 40.1367 -33.4473 C 40.1367 -28.5645 43.9941 -24.7559 48.8281 -24.7559 C 53.7109 -24.7559 57.5195 -28.6133 57.5195 -33.4473 C 57.5195 -36.7188 56.0547 -40.0391 53.6621 -40.8203 C 53.3691 -40.918 53.0762 -41.1133 52.7344 -41.3086 L 52.8809 -40.9668 C 53.0762 -40.5762 53.1738 -39.8926 53.1738 -39.2578 C 53.1738 -36.6699 51.4648 -35.4004 49.1699 -35.4004 C 48.0957 -35.4004 47.0215 -35.8887 46.3379 -36.5723 L 39.8438 -43.0664 C 38.2324 -44.6777 38.3301 -47.3145 39.7949 -48.7793 L 46.2891 -55.2734 C 47.0703 -56.0547 48.0469 -56.7871 49.3164 -56.7871 C 51.9531 -56.7871 53.2715 -54.9316 53.2715 -53.2227 C 53.2715 -51.9531 52.7344 -51.416 52.2949 -50.7812 L 52.0996 -50.4883 C 52.2949 -50.4395 52.6367 -50.3906 52.8809 -50.3418 C 60.3516 -48.8281 66.1133 -41.6504 66.1133 -33.4473 Z"/>
  </g>
  <g id="Heavy-S" transform="matrix(1 0 0 1 2588.47 696)">
   <path d="M 48.2422 6.20117 C 70.9961 6.20117 89.5996 -12.4023 89.5996 -35.1562 C 89.5996 -57.9102 70.9961 -76.5625 48.1934 -76.5625 C 25.4395 -76.5625 6.83594 -57.9102 6.83594 -35.1562 C 6.83594 -12.4023 25.4395 6.20117 48.2422 6.20117 Z M 65.5762 -33.4961 C 65.5762 -23.877 57.7637 -16.0645 48.1934 -16.0645 C 38.6719 -16.0645 30.8594 -23.877 30.8594 -33.4473 C 30.8594 -35.5957 32.6172 -37.4023 34.8145 -37.4023 C 37.0605 -37.4023 38.8184 -35.5957 38.8184 -33.4473 C 38.8184 -28.2227 43.0176 -24.0723 48.1934 -24.0723 C 53.4668 -24.0723 57.5684 -28.2227 57.5684 -33.4473 C 57.5684 -37.4512 55.2246 -41.2109 51.9043 -41.7969 C 51.6113 -41.8945 51.3672 -42.041 51.0254 -42.1875 L 51.8555 -41.2109 C 52.1484 -40.7715 52.2949 -40.0879 52.2949 -39.4531 C 52.2949 -37.1094 50.6836 -35.8398 48.584 -35.8398 C 47.6074 -35.8398 46.582 -36.2793 45.9473 -36.9141 L 39.2578 -43.6035 C 37.793 -45.0684 37.8906 -47.5586 39.209 -48.9258 L 45.8984 -55.6152 C 46.6309 -56.3477 47.5586 -56.9824 48.6816 -56.9824 C 51.0742 -56.9824 52.3438 -55.2734 52.3438 -53.6133 C 52.3438 -52.4414 51.9043 -51.8555 51.416 -51.2695 L 50.8301 -50.5859 C 50.9766 -50.5371 51.3184 -50.4883 51.5137 -50.4395 C 59.2773 -49.3164 65.5762 -42.041 65.5762 -33.4961 Z"/>
  </g>
  <g id="Bold-S" transform="matrix(1 0 0 1 2292.44 696)">
   <path d="M 47.5586 5.51758 C 69.873 5.51758 88.2324 -12.8418 88.2324 -35.1562 C 88.2324 -57.5195 69.873 -75.8789 47.5098 -75.8789 C 25.1953 -75.8789 6.83594 -57.5195 6.83594 -35.1562 C 6.83594 -12.8418 25.1953 5.51758 47.5586 5.51758 Z M 64.9414 -33.4961 C 64.9414 -23.8281 57.1289 -15.9668 47.5098 -15.9668 C 37.9395 -15.9668 30.0781 -23.8281 30.0781 -33.4473 C 30.0781 -35.4004 31.7383 -37.0605 33.6914 -37.0605 C 35.7422 -37.0605 37.4023 -35.4004 37.4023 -33.4473 C 37.4023 -27.7832 41.8945 -23.291 47.5098 -23.291 C 53.1738 -23.291 57.666 -27.832 57.666 -33.4473 C 57.666 -38.2812 54.3457 -42.4805 49.9512 -42.8711 C 49.707 -42.9199 49.4141 -43.0176 49.1699 -43.1152 L 50.7812 -41.4551 C 51.123 -41.0156 51.2695 -40.332 51.2695 -39.6484 C 51.2695 -37.5977 49.8535 -36.3281 47.9004 -36.3281 C 47.0215 -36.3281 46.1426 -36.7676 45.5566 -37.3535 L 38.623 -44.2383 C 37.2559 -45.5566 37.3535 -47.8516 38.5742 -49.0723 L 45.459 -56.0059 C 46.0938 -56.6895 46.9727 -57.1777 47.998 -57.1777 C 50.0977 -57.1777 51.3184 -55.6641 51.3184 -54.0039 C 51.3184 -53.0273 50.9277 -52.3438 50.4883 -51.8066 L 49.3652 -50.6348 C 49.5117 -50.6348 49.8047 -50.6348 50 -50.5859 C 58.0566 -49.8535 64.9414 -42.4805 64.9414 -33.4961 Z"/>
  </g>
  <g id="Semibold-S" transform="matrix(1 0 0 1 1996.2 696)">
   <path d="M 47.0703 5.0293 C 69.0918 5.0293 87.3047 -13.1348 87.3047 -35.2051 C 87.3047 -57.2266 69.0918 -75.4395 47.0215 -75.4395 C 25 -75.4395 6.83594 -57.2266 6.83594 -35.2051 C 6.83594 -13.1348 25.0488 5.0293 47.0703 5.0293 Z M 64.5508 -33.5449 C 64.5508 -23.7793 56.6895 -15.918 47.0215 -15.918 C 37.4023 -15.918 29.541 -23.7793 29.541 -33.4473 C 29.541 -35.3027 31.1035 -36.8164 32.959 -36.8164 C 34.8633 -36.8164 36.377 -35.3027 36.377 -33.4473 C 36.377 -27.4902 41.1133 -22.7539 47.0215 -22.7539 C 52.9785 -22.7539 57.7148 -27.5391 57.7148 -33.4473 C 57.7148 -38.8184 53.7109 -43.4082 48.584 -43.6523 C 48.3398 -43.6523 48.0957 -43.75 47.8516 -43.7988 L 50 -41.6504 C 50.3906 -41.2109 50.5859 -40.5273 50.5859 -39.7461 C 50.5859 -37.9395 49.2676 -36.6699 47.4609 -36.6699 C 46.6309 -36.6699 45.8008 -37.0605 45.2637 -37.6465 L 38.1348 -44.6289 C 36.9141 -45.8496 37.0117 -48.0469 38.1348 -49.1699 L 45.166 -56.2988 C 45.752 -56.9336 46.582 -57.3242 47.5098 -57.3242 C 49.4141 -57.3242 50.6348 -55.9082 50.6348 -54.2969 C 50.6348 -53.3691 50.293 -52.6855 49.8047 -52.1973 L 48.3887 -50.7324 C 48.5352 -50.7324 48.7793 -50.6836 48.9258 -50.6836 C 57.2266 -50.1953 64.5508 -42.7734 64.5508 -33.5449 Z"/>
  </g>
  <g id="Medium-S" transform="matrix(1 0 0 1 1699.83 696)">
   <path d="M 46.7285 4.6875 C 68.5547 4.6875 86.6211 -13.3789 86.6211 -35.2051 C 86.6211 -56.9824 68.5059 -75.0977 46.6797 -75.0977 C 24.8535 -75.0977 6.83594 -56.9824 6.83594 -35.2051 C 6.83594 -13.3789 24.9023 4.6875 46.7285 4.6875 Z M 64.209 -33.5449 C 64.209 -23.7793 56.3477 -15.8691 46.6797 -15.8691 C 37.0117 -15.8691 29.1504 -23.7793 29.1504 -33.4473 C 29.1504 -35.1562 30.6152 -36.6211 32.373 -36.6211 C 34.1797 -36.6211 35.6445 -35.1562 35.6445 -33.4473 C 35.6445 -27.2949 40.5273 -22.3633 46.6797 -22.3633 C 52.832 -22.3633 57.7148 -27.2949 57.7148 -33.4473 C 57.7148 -39.2578 53.2715 -44.0918 47.5586 -44.1895 C 47.3633 -44.2383 47.0703 -44.2383 46.875 -44.2871 L 49.4141 -41.7969 C 49.8535 -41.3086 50.0977 -40.625 50.0977 -39.8926 C 50.0977 -38.1836 48.8281 -36.9141 47.1191 -36.9141 C 46.3379 -36.9141 45.5566 -37.3047 45.0195 -37.8418 L 37.793 -44.9707 C 36.6699 -46.0938 36.7676 -48.1934 37.793 -49.2676 L 44.9707 -56.4941 C 45.5078 -57.0801 46.2891 -57.4707 47.168 -57.4707 C 48.877 -57.4707 50.0977 -56.1035 50.0977 -54.541 C 50.0977 -53.6621 49.7559 -52.9785 49.3164 -52.4414 L 47.6562 -50.7812 C 47.7539 -50.7812 47.998 -50.7812 48.1445 -50.7324 C 56.6406 -50.4883 64.209 -42.9688 64.209 -33.5449 Z"/>
  </g>
  <g id="Regular-S" transform="matrix(1 0 0 1 1403.58 696)">
   <path d="M 46.2402 4.19922 C 67.7734 4.19922 85.6934 -13.6719 85.6934 -35.2051 C 85.6934 -56.7383 67.7246 -74.6094 46.1914 -74.6094 C 24.707 -74.6094 6.83594 -56.7383 6.83594 -35.2051 C 6.83594 -13.6719 24.7559 4.19922 46.2402 4.19922 Z M 63.8184 -33.5938 C 63.8184 -23.7305 55.957 -15.8203 46.1914 -15.8203 C 36.4746 -15.8203 28.6133 -23.7305 28.6133 -33.4473 C 28.6133 -35.0586 29.9805 -36.4258 31.6406 -36.4258 C 33.3008 -36.4258 34.668 -35.0586 34.668 -33.4473 C 34.668 -27.002 39.7949 -21.8262 46.1914 -21.8262 C 52.6367 -21.8262 57.7637 -27.002 57.7637 -33.4473 C 57.7637 -39.8438 52.6367 -44.9707 46.1914 -44.9707 C 45.9961 -44.9707 45.752 -44.9707 45.5566 -44.9219 L 48.6328 -41.9434 C 49.1211 -41.4551 49.4141 -40.8203 49.4141 -39.9902 C 49.4141 -38.4766 48.2422 -37.2559 46.6797 -37.2559 C 45.9473 -37.2559 45.2637 -37.5977 44.7266 -38.1348 L 37.3535 -45.3613 C 36.3281 -46.4355 36.4258 -48.3398 37.3535 -49.3652 L 44.6777 -56.7871 C 45.166 -57.3242 45.8984 -57.6172 46.6797 -57.6172 C 48.2422 -57.6172 49.4141 -56.3965 49.4141 -54.834 C 49.4141 -54.0527 49.1211 -53.3203 48.6328 -52.832 L 46.6309 -50.8301 C 46.7773 -50.8301 46.9727 -50.8301 47.0703 -50.8301 C 55.8105 -50.8301 63.8184 -43.2617 63.8184 -33.5938 Z"/>
  </g>
  <g id="Light-S" transform="matrix(1 0 0 1 1107.6 696)">
   <path d="M 45.5078 3.51562 C 66.6992 3.51562 84.2285 -14.0137 84.2285 -35.1562 C 84.2285 -56.3477 66.6504 -73.877 45.5078 -73.877 C 24.3164 -73.877 6.83594 -56.3477 6.83594 -35.1562 C 6.83594 -14.0137 24.3652 3.51562 45.5078 3.51562 Z M 62.5977 -33.5449 C 62.5977 -23.9258 54.9805 -16.2598 45.5078 -16.2598 C 35.9863 -16.2598 28.418 -23.9258 28.418 -33.4473 C 28.418 -34.7168 29.4922 -35.791 30.7617 -35.791 C 32.0801 -35.791 33.1543 -34.7168 33.1543 -33.4473 C 33.1543 -26.5625 38.623 -21.0449 45.5078 -21.0449 C 52.3926 -21.0449 57.8125 -26.5137 57.8125 -33.4473 C 57.8125 -40.2832 52.3926 -45.7031 45.5078 -45.7031 C 44.7754 -45.7031 44.043 -45.6543 43.457 -45.5078 L 47.8516 -41.2109 C 48.291 -40.7715 48.4863 -40.2344 48.4863 -39.5508 C 48.4863 -38.3301 47.5586 -37.3535 46.2891 -37.3535 C 45.752 -37.3535 45.166 -37.6465 44.7754 -38.0371 L 37.1094 -45.7031 C 36.2305 -46.582 36.2793 -48.1934 37.1094 -49.0723 L 44.6777 -56.7871 C 45.0684 -57.2266 45.7031 -57.5195 46.3379 -57.5195 C 47.5586 -57.5195 48.5352 -56.543 48.5352 -55.2734 C 48.5352 -54.6387 48.3398 -54.0527 47.9004 -53.6133 L 44.5312 -50.2441 C 44.9707 -50.293 45.5566 -50.3906 46.0938 -50.3906 C 54.8828 -50.3906 62.5977 -42.9688 62.5977 -33.5449 Z"/>
  </g>
  <g id="Thin-S" transform="matrix(1 0 0 1 811.867 696)">
   <path d="M 44.5801 2.58789 C 65.2832 2.58789 82.2754 -14.4043 82.2754 -35.1562 C 82.2754 -55.8594 65.2344 -72.8516 44.5312 -72.8516 C 23.8281 -72.8516 6.83594 -55.8594 6.83594 -35.1562 C 6.83594 -14.4043 23.877 2.58789 44.5801 2.58789 Z M 61.0352 -33.4473 C 61.0352 -24.1699 53.7109 -16.8945 44.5312 -16.8945 C 35.3516 -16.8945 28.125 -24.1699 28.125 -33.3984 C 28.125 -34.2285 28.8574 -34.9609 29.6387 -34.9609 C 30.5176 -34.9609 31.2012 -34.2285 31.2012 -33.3984 C 31.2012 -25.9277 37.1094 -20.0195 44.5312 -20.0195 C 52.0508 -20.0195 57.9102 -25.8789 57.9102 -33.3984 C 57.9102 -40.8203 52.0508 -46.6797 44.5312 -46.6797 C 43.1152 -46.6797 41.748 -46.582 40.6738 -46.3379 L 46.7773 -40.2832 C 47.168 -39.8438 47.3145 -39.4531 47.3145 -38.9648 C 47.3145 -38.1836 46.6797 -37.4512 45.8008 -37.4512 C 45.459 -37.4512 45.0684 -37.6465 44.7754 -37.9395 L 36.7676 -46.1914 C 36.1328 -46.8262 36.084 -47.9492 36.7676 -48.6328 L 44.6289 -56.7383 C 44.9707 -57.1289 45.4102 -57.373 45.8496 -57.373 C 46.7285 -57.373 47.3633 -56.6895 47.3633 -55.8105 C 47.3633 -55.4688 47.3145 -55.0293 46.9727 -54.6875 L 41.748 -49.5117 C 42.627 -49.6094 43.7012 -49.7559 44.7754 -49.7559 C 53.7109 -49.7559 61.0352 -42.627 61.0352 -33.4473 Z"/>
  </g>
  <g id="Ultralight-S" transform="matrix(1 0 0 1 515.644 696)">
   <path d="M 44.043 2.09961 C 64.502 2.09961 81.2988 -14.6484 81.2988 -35.1074 C 81.2988 -55.5664 64.502 -72.3145 44.043 -72.3145 C 23.584 -72.3145 6.83594 -55.5664 6.83594 -35.1074 C 6.83594 -14.6484 23.584 2.09961 44.043 2.09961 Z M 60.2051 -33.3984 C 60.2051 -24.3164 53.0762 -17.2363 44.043 -17.2363 C 35.0098 -17.2363 27.9785 -24.3164 27.9785 -33.3984 C 27.9785 -33.9844 28.5156 -34.5215 29.0527 -34.5215 C 29.7363 -34.5215 30.2246 -33.9844 30.2246 -33.3984 C 30.2246 -25.5859 36.3281 -19.4824 44.043 -19.4824 C 51.8555 -19.4824 57.959 -25.5859 57.959 -33.3984 C 57.959 -41.1621 51.8555 -47.2168 44.043 -47.2168 C 42.2363 -47.2168 40.5762 -47.0703 39.2578 -46.7285 L 46.2402 -39.7461 C 46.6309 -39.3555 46.7285 -39.0625 46.7285 -38.623 C 46.7285 -38.0371 46.2402 -37.5488 45.5566 -37.5488 C 45.3125 -37.5488 44.9707 -37.6953 44.8242 -37.8418 L 36.5723 -46.4355 C 36.084 -46.9238 35.9863 -47.8516 36.5723 -48.4375 L 44.6289 -56.7383 C 44.9219 -57.0801 45.2637 -57.2754 45.6055 -57.2754 C 46.2891 -57.2754 46.7773 -56.8359 46.7773 -56.1523 C 46.7773 -55.8594 46.7773 -55.5664 46.4355 -55.2246 L 40.332 -49.1211 C 41.4551 -49.2676 42.7246 -49.4141 44.0918 -49.4141 C 53.0762 -49.4141 60.2051 -42.4316 60.2051 -33.3984 Z"/>
  </g>
 </g>
</svg>
