<?xml version="1.0" encoding="UTF-8"?>
<!--Generator: Apple Native CoreSVG 123-->
<!DOCTYPE svg
PUBLIC "-//W3C//DTD SVG 1.1//EN"
       "http://www.w3.org/Graphics/SVG/1.1/DTD/svg11.dtd">
<svg version="1.1" xmlns="http://www.w3.org/2000/svg" xmlns:xlink="http://www.w3.org/1999/xlink" width="3300" height="2200">
 <!--glyph: "uni1002C3.medium", point size: 100.000000, font version: "Version 15.0d7e11", template writer version: "5"-->
 <g id="Notes">
  <rect height="2200" id="artboard" style="fill:white;opacity:1" width="3300" x="0" y="0"/>
  <line id="" style="fill:none;stroke:black;opacity:1;stroke-width:0.5;" x1="263" x2="3036" y1="292" y2="292"/>
  <text style="stroke:none;fill:black;font-family:-apple-system,&quot;SF Pro Display&quot;,&quot;SF Pro Text&quot;,Helvetica,sans-serif;font-weight:bold;" transform="matrix(1 0 0 1 263 322)">Weight/Scale Variations</text>
  <text style="stroke:none;fill:black;font-family:-apple-system,&quot;SF Pro Display&quot;,&quot;SF Pro Text&quot;,Helvetica,sans-serif;text-anchor:middle;" transform="matrix(1 0 0 1 559.711 322)">Ultralight</text>
  <text style="stroke:none;fill:black;font-family:-apple-system,&quot;SF Pro Display&quot;,&quot;SF Pro Text&quot;,Helvetica,sans-serif;text-anchor:middle;" transform="matrix(1 0 0 1 856.422 322)">Thin</text>
  <text style="stroke:none;fill:black;font-family:-apple-system,&quot;SF Pro Display&quot;,&quot;SF Pro Text&quot;,Helvetica,sans-serif;text-anchor:middle;" transform="matrix(1 0 0 1 1153.13 322)">Light</text>
  <text style="stroke:none;fill:black;font-family:-apple-system,&quot;SF Pro Display&quot;,&quot;SF Pro Text&quot;,Helvetica,sans-serif;text-anchor:middle;" transform="matrix(1 0 0 1 1449.84 322)">Regular</text>
  <text style="stroke:none;fill:black;font-family:-apple-system,&quot;SF Pro Display&quot;,&quot;SF Pro Text&quot;,Helvetica,sans-serif;text-anchor:middle;" transform="matrix(1 0 0 1 1746.56 322)">Medium</text>
  <text style="stroke:none;fill:black;font-family:-apple-system,&quot;SF Pro Display&quot;,&quot;SF Pro Text&quot;,Helvetica,sans-serif;text-anchor:middle;" transform="matrix(1 0 0 1 2043.27 322)">Semibold</text>
  <text style="stroke:none;fill:black;font-family:-apple-system,&quot;SF Pro Display&quot;,&quot;SF Pro Text&quot;,Helvetica,sans-serif;text-anchor:middle;" transform="matrix(1 0 0 1 2339.98 322)">Bold</text>
  <text style="stroke:none;fill:black;font-family:-apple-system,&quot;SF Pro Display&quot;,&quot;SF Pro Text&quot;,Helvetica,sans-serif;text-anchor:middle;" transform="matrix(1 0 0 1 2636.69 322)">Heavy</text>
  <text style="stroke:none;fill:black;font-family:-apple-system,&quot;SF Pro Display&quot;,&quot;SF Pro Text&quot;,Helvetica,sans-serif;text-anchor:middle;" transform="matrix(1 0 0 1 2933.4 322)">Black</text>
  <line id="" style="fill:none;stroke:black;opacity:1;stroke-width:0.5;" x1="263" x2="3036" y1="1903" y2="1903"/>
  <g id="" transform="matrix(1 0 0 1 263 1933)">
   <path d="M 9.24805 0.830078 C 13.5547 0.830078 17.1387 -2.74414 17.1387 -7.05078 C 17.1387 -11.3574 13.5449 -14.9316 9.23828 -14.9316 C 4.94141 -14.9316 1.36719 -11.3574 1.36719 -7.05078 C 1.36719 -2.74414 4.95117 0.830078 9.24805 0.830078 Z M 9.24805 -0.654297 C 5.70312 -0.654297 2.87109 -3.49609 2.87109 -7.05078 C 2.87109 -10.6055 5.69336 -13.4473 9.23828 -13.4473 C 12.793 -13.4473 15.6348 -10.6055 15.6445 -7.05078 C 15.6543 -3.49609 12.8027 -0.654297 9.24805 -0.654297 Z M 9.22852 -3.42773 C 9.69727 -3.42773 9.9707 -3.74023 9.9707 -4.25781 L 9.9707 -6.31836 L 12.1973 -6.31836 C 12.6953 -6.31836 13.0371 -6.57227 13.0371 -7.04102 C 13.0371 -7.51953 12.7148 -7.7832 12.1973 -7.7832 L 9.9707 -7.7832 L 9.9707 -10.0098 C 9.9707 -10.5273 9.69727 -10.8496 9.22852 -10.8496 C 8.75977 -10.8496 8.50586 -10.5078 8.50586 -10.0098 L 8.50586 -7.7832 L 6.29883 -7.7832 C 5.78125 -7.7832 5.44922 -7.51953 5.44922 -7.04102 C 5.44922 -6.57227 5.80078 -6.31836 6.29883 -6.31836 L 8.50586 -6.31836 L 8.50586 -4.25781 C 8.50586 -3.75977 8.75977 -3.42773 9.22852 -3.42773 Z"/>
  </g>
  <g id="" transform="matrix(1 0 0 1 281.506 1933)">
   <path d="M 11.709 2.91016 C 17.1582 2.91016 21.6699 -1.60156 21.6699 -7.05078 C 21.6699 -12.4902 17.1484 -17.0117 11.6992 -17.0117 C 6.25977 -17.0117 1.74805 -12.4902 1.74805 -7.05078 C 1.74805 -1.60156 6.26953 2.91016 11.709 2.91016 Z M 11.709 1.25 C 7.09961 1.25 3.41797 -2.44141 3.41797 -7.05078 C 3.41797 -11.6504 7.08984 -15.3516 11.6992 -15.3516 C 16.3086 -15.3516 20 -11.6504 20.0098 -7.05078 C 20.0195 -2.44141 16.3184 1.25 11.709 1.25 Z M 11.6895 -2.41211 C 12.207 -2.41211 12.5195 -2.77344 12.5195 -3.33984 L 12.5195 -6.23047 L 15.5762 -6.23047 C 16.123 -6.23047 16.5039 -6.51367 16.5039 -7.03125 C 16.5039 -7.55859 16.1426 -7.86133 15.5762 -7.86133 L 12.5195 -7.86133 L 12.5195 -10.9277 C 12.5195 -11.5039 12.207 -11.8555 11.6895 -11.8555 C 11.1719 -11.8555 10.8789 -11.4844 10.8789 -10.9277 L 10.8789 -7.86133 L 7.83203 -7.86133 C 7.26562 -7.86133 6.89453 -7.55859 6.89453 -7.03125 C 6.89453 -6.51367 7.28516 -6.23047 7.83203 -6.23047 L 10.8789 -6.23047 L 10.8789 -3.33984 C 10.8789 -2.79297 11.1719 -2.41211 11.6895 -2.41211 Z"/>
  </g>
  <g id="" transform="matrix(1 0 0 1 304.924 1933)">
   <path d="M 14.9707 5.67383 C 21.9336 5.67383 27.6953 -0.078125 27.6953 -7.04102 C 27.6953 -14.0039 21.9238 -19.7559 14.9609 -19.7559 C 8.00781 -19.7559 2.25586 -14.0039 2.25586 -7.04102 C 2.25586 -0.078125 8.01758 5.67383 14.9707 5.67383 Z M 14.9707 3.85742 C 8.93555 3.85742 4.08203 -1.00586 4.08203 -7.04102 C 4.08203 -13.0762 8.92578 -17.9395 14.9609 -17.9395 C 21.0059 -17.9395 25.8594 -13.0762 25.8691 -7.04102 C 25.8789 -1.00586 21.0156 3.85742 14.9707 3.85742 Z M 14.9512 -1.06445 C 15.5176 -1.06445 15.8691 -1.45508 15.8691 -2.06055 L 15.8691 -6.13281 L 20.1074 -6.13281 C 20.6934 -6.13281 21.1133 -6.46484 21.1133 -7.02148 C 21.1133 -7.59766 20.7227 -7.93945 20.1074 -7.93945 L 15.8691 -7.93945 L 15.8691 -12.1875 C 15.8691 -12.8027 15.5176 -13.1934 14.9512 -13.1934 C 14.3848 -13.1934 14.0625 -12.7832 14.0625 -12.1875 L 14.0625 -7.93945 L 9.83398 -7.93945 C 9.21875 -7.93945 8.80859 -7.59766 8.80859 -7.02148 C 8.80859 -6.46484 9.23828 -6.13281 9.83398 -6.13281 L 14.0625 -6.13281 L 14.0625 -2.06055 C 14.0625 -1.47461 14.3848 -1.06445 14.9512 -1.06445 Z"/>
  </g>
  <text style="stroke:none;fill:black;font-family:-apple-system,&quot;SF Pro Display&quot;,&quot;SF Pro Text&quot;,Helvetica,sans-serif;font-weight:bold;" transform="matrix(1 0 0 1 263 1953)">Design Variations</text>
  <text style="stroke:none;fill:black;font-family:-apple-system,&quot;SF Pro Display&quot;,&quot;SF Pro Text&quot;,Helvetica,sans-serif;" transform="matrix(1 0 0 1 263 1971)">Symbols are supported in up to nine weights and three scales.</text>
  <text style="stroke:none;fill:black;font-family:-apple-system,&quot;SF Pro Display&quot;,&quot;SF Pro Text&quot;,Helvetica,sans-serif;" transform="matrix(1 0 0 1 263 1989)">For optimal layout with text and other symbols, vertically align</text>
  <text style="stroke:none;fill:black;font-family:-apple-system,&quot;SF Pro Display&quot;,&quot;SF Pro Text&quot;,Helvetica,sans-serif;" transform="matrix(1 0 0 1 263 2007)">symbols with the adjacent text.</text>
  <rect height="14" id="" style="fill:#00AEEF;stroke:none;opacity:0.4;" width="3" x="776" y="1919"/>
  <g id="" transform="matrix(1 0 0 1 779 1933)">
   <path d="M 10.5273 0 L 12.373 0 L 7.17773 -14.0918 L 5.43945 -14.0918 L 0.244141 0 L 2.08984 0 L 3.50586 -4.0332 L 9.11133 -4.0332 Z M 6.2793 -11.9531 L 6.33789 -11.9531 L 8.59375 -5.52734 L 4.02344 -5.52734 Z"/>
  </g>
  <rect height="14" id="" style="fill:#00AEEF;stroke:none;opacity:0.4;" width="3" x="791.617" y="1919"/>
  <text style="stroke:none;fill:black;font-family:-apple-system,&quot;SF Pro Display&quot;,&quot;SF Pro Text&quot;,Helvetica,sans-serif;font-weight:bold;" transform="matrix(1 0 0 1 776 1953)">Margins</text>
  <text style="stroke:none;fill:black;font-family:-apple-system,&quot;SF Pro Display&quot;,&quot;SF Pro Text&quot;,Helvetica,sans-serif;" transform="matrix(1 0 0 1 776 1971)">Leading and trailing margins on the left and right side of each symbol</text>
  <text style="stroke:none;fill:black;font-family:-apple-system,&quot;SF Pro Display&quot;,&quot;SF Pro Text&quot;,Helvetica,sans-serif;" transform="matrix(1 0 0 1 776 1989)">can be adjusted by modifying the width of the blue rectangles.</text>
  <text style="stroke:none;fill:black;font-family:-apple-system,&quot;SF Pro Display&quot;,&quot;SF Pro Text&quot;,Helvetica,sans-serif;" transform="matrix(1 0 0 1 776 2007)">Modifications are automatically applied proportionally to all</text>
  <text style="stroke:none;fill:black;font-family:-apple-system,&quot;SF Pro Display&quot;,&quot;SF Pro Text&quot;,Helvetica,sans-serif;" transform="matrix(1 0 0 1 776 2025)">scales and weights.</text>
  <g id="" transform="matrix(1 0 0 1 1289 1933)">
   <path d="M 2.83203 3.11523 L 4.375 4.6582 C 5.22461 5.48828 6.19141 5.41992 7.06055 4.46289 L 17.2754 -6.66016 C 17.7051 -6.36719 18.0957 -6.37695 18.5645 -6.47461 L 19.6094 -6.68945 L 20.3027 -5.99609 L 20.2539 -5.47852 C 20.1855 -4.95117 20.3516 -4.53125 20.8496 -4.0332 L 21.6602 -3.22266 C 22.168 -2.71484 22.8223 -2.68555 23.3008 -3.16406 L 26.5527 -6.41602 C 27.0312 -6.89453 27.0117 -7.54883 26.5039 -8.05664 L 25.6836 -8.87695 C 25.1855 -9.375 24.7754 -9.55078 24.2383 -9.47266 L 23.7109 -9.41406 L 23.0566 -10.0781 L 23.3398 -11.2207 C 23.4863 -11.7871 23.3398 -12.2559 22.7148 -12.8613 L 20.3027 -15.2539 C 16.7578 -18.7793 12.2266 -18.6719 9.11133 -15.5371 C 8.69141 -15.1074 8.64258 -14.5215 8.91602 -14.0918 C 9.15039 -13.7207 9.62891 -13.4961 10.2734 -13.6621 C 11.7871 -14.043 13.3008 -13.9258 14.7852 -12.9199 L 14.1602 -11.3379 C 13.9258 -10.752 13.9453 -10.2734 14.1797 -9.83398 L 3.01758 0.439453 C 2.08008 1.30859 1.97266 2.25586 2.83203 3.11523 Z M 10.6738 -15.1465 C 13.3398 -17.1387 16.6504 -16.8262 19.0527 -14.4141 L 21.6797 -11.8066 C 21.9141 -11.5723 21.9434 -11.3867 21.8848 -11.0938 L 21.5039 -9.53125 L 23.0762 -7.95898 L 24.043 -8.04688 C 24.3262 -8.07617 24.4141 -8.05664 24.6387 -7.83203 L 25.2637 -7.20703 L 22.5098 -4.46289 L 21.8848 -5.07812 C 21.6602 -5.30273 21.6406 -5.40039 21.6699 -5.68359 L 21.7578 -6.64062 L 20.1953 -8.20312 L 18.5742 -7.89062 C 18.291 -7.83203 18.1445 -7.83203 17.9102 -8.07617 L 15.7324 -10.2539 C 15.5078 -10.4883 15.4785 -10.625 15.6055 -10.9473 L 16.5527 -13.2227 C 14.9512 -14.7559 12.8418 -15.6055 10.8008 -14.9512 C 10.7129 -14.9219 10.6445 -14.9414 10.6152 -14.9805 C 10.5859 -15.0293 10.5859 -15.0781 10.6738 -15.1465 Z M 4.10156 2.41211 C 3.61328 1.91406 3.78906 1.61133 4.12109 1.30859 L 15.0781 -8.80859 L 16.3086 -7.57812 L 6.15234 3.34961 C 5.84961 3.68164 5.46875 3.7793 5.06836 3.37891 Z"/>
  </g>
  <text style="stroke:none;fill:black;font-family:-apple-system,&quot;SF Pro Display&quot;,&quot;SF Pro Text&quot;,Helvetica,sans-serif;font-weight:bold;" transform="matrix(1 0 0 1 1289 1953)">Exporting</text>
  <text style="stroke:none;fill:black;font-family:-apple-system,&quot;SF Pro Display&quot;,&quot;SF Pro Text&quot;,Helvetica,sans-serif;" transform="matrix(1 0 0 1 1289 1971)">Symbols should be outlined when exporting to ensure the</text>
  <text style="stroke:none;fill:black;font-family:-apple-system,&quot;SF Pro Display&quot;,&quot;SF Pro Text&quot;,Helvetica,sans-serif;" transform="matrix(1 0 0 1 1289 1989)">design is preserved when submitting to Xcode.</text>
  <text id="template-version" style="stroke:none;fill:black;font-family:-apple-system,&quot;SF Pro Display&quot;,&quot;SF Pro Text&quot;,Helvetica,sans-serif;text-anchor:end;" transform="matrix(1 0 0 1 3036 1933)">Template v.1.0</text>
  <text style="stroke:none;fill:black;font-family:-apple-system,&quot;SF Pro Display&quot;,&quot;SF Pro Text&quot;,Helvetica,sans-serif;text-anchor:end;" transform="matrix(1 0 0 1 3036 1951)">Generated from star.fill</text>
  <text style="stroke:none;fill:black;font-family:-apple-system,&quot;SF Pro Display&quot;,&quot;SF Pro Text&quot;,Helvetica,sans-serif;text-anchor:end;" transform="matrix(1 0 0 1 3036 1969)">Typeset at 100 points</text>
  <text style="stroke:none;fill:black;font-family:-apple-system,&quot;SF Pro Display&quot;,&quot;SF Pro Text&quot;,Helvetica,sans-serif;" transform="matrix(1 0 0 1 263 726)">Small</text>
  <text style="stroke:none;fill:black;font-family:-apple-system,&quot;SF Pro Display&quot;,&quot;SF Pro Text&quot;,Helvetica,sans-serif;" transform="matrix(1 0 0 1 263 1156)">Medium</text>
  <text style="stroke:none;fill:black;font-family:-apple-system,&quot;SF Pro Display&quot;,&quot;SF Pro Text&quot;,Helvetica,sans-serif;" transform="matrix(1 0 0 1 263 1586)">Large</text>
 </g>
 <g id="Guides">
  <g id="H-reference" style="fill:#27AAE1;stroke:none;" transform="matrix(1 0 0 1 339 696)">
   <path d="M 54.9316 0 L 57.666 0 L 30.5664 -70.459 L 28.0762 -70.459 L 0.976562 0 L 3.66211 0 L 12.9395 -24.4629 L 45.7031 -24.4629 Z M 29.1992 -67.0898 L 29.4434 -67.0898 L 44.8242 -26.709 L 13.8184 -26.709 Z"/>
  </g>
  <line id="Baseline-S" style="fill:none;stroke:#27AAE1;opacity:1;stroke-width:0.577;" x1="263" x2="3036" y1="696" y2="696"/>
  <line id="Capline-S" style="fill:none;stroke:#27AAE1;opacity:1;stroke-width:0.577;" x1="263" x2="3036" y1="625.541" y2="625.541"/>
  <g id="H-reference" style="fill:#27AAE1;stroke:none;" transform="matrix(1 0 0 1 339 1126)">
   <path d="M 54.9316 0 L 57.666 0 L 30.5664 -70.459 L 28.0762 -70.459 L 0.976562 0 L 3.66211 0 L 12.9395 -24.4629 L 45.7031 -24.4629 Z M 29.1992 -67.0898 L 29.4434 -67.0898 L 44.8242 -26.709 L 13.8184 -26.709 Z"/>
  </g>
  <line id="Baseline-M" style="fill:none;stroke:#27AAE1;opacity:1;stroke-width:0.577;" x1="263" x2="3036" y1="1126" y2="1126"/>
  <line id="Capline-M" style="fill:none;stroke:#27AAE1;opacity:1;stroke-width:0.577;" x1="263" x2="3036" y1="1055.54" y2="1055.54"/>
  <g id="H-reference" style="fill:#27AAE1;stroke:none;" transform="matrix(1 0 0 1 339 1556)">
   <path d="M 54.9316 0 L 57.666 0 L 30.5664 -70.459 L 28.0762 -70.459 L 0.976562 0 L 3.66211 0 L 12.9395 -24.4629 L 45.7031 -24.4629 Z M 29.1992 -67.0898 L 29.4434 -67.0898 L 44.8242 -26.709 L 13.8184 -26.709 Z"/>
  </g>
  <line id="Baseline-L" style="fill:none;stroke:#27AAE1;opacity:1;stroke-width:0.577;" x1="263" x2="3036" y1="1556" y2="1556"/>
  <line id="Capline-L" style="fill:none;stroke:#27AAE1;opacity:1;stroke-width:0.577;" x1="263" x2="3036" y1="1485.54" y2="1485.54"/>
  <rect height="119.336" id="left-margin" style="fill:#00AEEF;stroke:none;opacity:0.4;" width="9.95624" x="1385.66" y="1030.79"/>
  <rect height="119.336" id="right-margin" style="fill:#00AEEF;stroke:none;opacity:0.4;" width="9.97495" x="1504.05" y="1030.79"/>
 </g>
 <g id="Symbols">
  <g id="Black-L" transform="matrix(1 0 0 1 2846.24 1556)">
   <path d="M 41.4062 33.3008 C 45.7031 36.5723 50.9277 35.6445 56.4941 31.543 L 87.1582 8.98438 L 117.822 31.543 C 123.438 35.6445 128.662 36.5723 132.959 33.3008 C 137.158 30.127 137.988 24.8535 135.84 18.5059 L 123.633 -17.4805 L 154.59 -39.6484 C 160.107 -43.6035 162.646 -48.291 160.889 -53.3691 C 159.18 -58.4473 154.443 -60.8398 147.656 -60.7422 L 109.766 -60.4492 L 98.2422 -96.7285 C 96.1426 -103.271 92.4805 -106.982 87.1582 -106.982 C 81.8848 -106.982 78.2227 -103.271 76.123 -96.7285 L 64.5996 -60.4492 L 26.6113 -60.7422 C 19.9219 -60.8398 15.1855 -58.4473 13.4766 -53.4668 C 11.6699 -48.291 14.2578 -43.6035 19.7754 -39.6484 L 50.7324 -17.4805 L 38.5254 18.5059 C 36.377 24.8535 37.207 30.127 41.4062 33.3008 Z"/>
  </g>
  <g id="Heavy-L" transform="matrix(1 0 0 1 2550.75 1556)">
   <path d="M 40.918 32.373 C 44.7754 35.2539 49.4141 34.4238 54.4922 30.7129 L 85.9375 7.56836 L 117.383 30.7129 C 122.461 34.4238 127.148 35.2539 130.957 32.373 C 134.717 29.541 135.498 24.8047 133.496 18.9941 L 121.045 -17.9199 L 152.783 -40.6738 C 157.812 -44.2383 160.059 -48.4863 158.545 -53.0273 C 156.982 -57.5195 152.783 -59.668 146.582 -59.5703 L 107.715 -59.2773 L 95.8984 -96.4844 C 93.9453 -102.441 90.6738 -105.762 85.9375 -105.762 C 81.25 -105.762 77.9297 -102.441 76.0254 -96.4844 L 64.209 -59.2773 L 25.293 -59.5703 C 19.1406 -59.668 14.8926 -57.5195 13.3789 -53.0273 C 11.8164 -48.4863 14.0625 -44.2383 19.1406 -40.6738 L 50.8789 -17.9199 L 38.4277 18.9941 C 36.4258 24.8047 37.207 29.541 40.918 32.373 Z"/>
  </g>
  <g id="Bold-L" transform="matrix(1 0 0 1 2255.41 1556)">
   <path d="M 40.3809 31.2988 C 43.7012 33.7891 47.7539 33.0566 52.2461 29.7363 L 84.5703 6.00586 L 116.895 29.7363 C 121.436 33.0566 125.488 33.7891 128.76 31.2988 C 131.982 28.8574 132.666 24.8047 130.908 19.5801 L 118.164 -18.4082 L 150.732 -41.7969 C 155.273 -45.0195 157.178 -48.6816 155.859 -52.5879 C 154.541 -56.4453 150.928 -58.3008 145.361 -58.252 L 105.371 -57.959 L 93.2129 -96.1914 C 91.5039 -101.514 88.6719 -104.395 84.5703 -104.395 C 80.5176 -104.395 77.6367 -101.514 75.9277 -96.1914 L 63.7695 -57.959 L 23.7793 -58.252 C 18.2617 -58.3008 14.5996 -56.4453 13.2812 -52.5879 C 11.9629 -48.6816 13.916 -45.0195 18.4082 -41.7969 L 51.0254 -18.4082 L 38.2324 19.5801 C 36.4746 24.8047 37.1582 28.8574 40.3809 31.2988 Z"/>
  </g>
  <g id="Semibold-L" transform="matrix(1 0 0 1 1959.65 1556)">
   <path d="M 39.9902 30.5176 C 42.9688 32.7637 46.582 32.0801 50.6836 29.0527 L 83.6426 4.88281 L 116.553 29.0527 C 120.703 32.0801 124.316 32.7637 127.246 30.5176 C 130.127 28.3691 130.762 24.7559 129.102 19.9219 L 116.162 -18.75 L 149.365 -42.5781 C 153.467 -45.5078 155.176 -48.7793 154.053 -52.2949 C 152.881 -55.7129 149.609 -57.4219 144.482 -57.3242 L 103.809 -57.0801 L 91.4062 -95.9961 C 89.7949 -100.879 87.2559 -103.467 83.6426 -103.467 C 79.9805 -103.467 77.4414 -100.879 75.8789 -95.9961 L 63.4766 -57.0801 L 22.7539 -57.3242 C 17.627 -57.4219 14.4043 -55.7129 13.2324 -52.2949 C 12.0605 -48.7793 13.7695 -45.5078 17.9199 -42.5781 L 51.123 -18.75 L 38.1348 19.9219 C 36.4746 24.7559 37.1094 28.3691 39.9902 30.5176 Z"/>
  </g>
  <g id="Medium-L" transform="matrix(1 0 0 1 1663.65 1556)">
   <path d="M 39.7461 29.9805 C 42.3828 31.9824 45.6543 31.3965 49.5117 28.5645 L 82.9102 4.05273 L 116.26 28.5645 C 120.166 31.3965 123.438 31.9824 126.074 29.9805 C 128.711 28.0273 129.297 24.7559 127.734 20.2148 L 114.648 -18.9941 L 148.291 -43.1641 C 152.148 -45.8984 153.711 -48.877 152.637 -52.0508 C 151.611 -55.127 148.633 -56.6895 143.848 -56.6406 L 102.588 -56.3965 L 89.9902 -95.8008 C 88.5254 -100.391 86.1816 -102.734 82.9102 -102.734 C 79.6387 -102.734 77.2949 -100.391 75.8301 -95.8008 L 63.2324 -56.3965 L 21.9238 -56.6406 C 17.1875 -56.6895 14.209 -55.127 13.1836 -52.0508 C 12.1094 -48.877 13.6719 -45.8984 17.5293 -43.1641 L 51.1719 -18.9941 L 38.0371 20.2148 C 36.5234 24.7559 37.1094 28.0273 39.7461 29.9805 Z"/>
  </g>
  <g id="Regular-L" transform="matrix(1 0 0 1 1367.86 1556)">
   <path d="M 39.3555 29.248 C 41.6504 30.957 44.5312 30.4199 47.998 27.8809 L 81.9824 2.97852 L 115.918 27.8809 C 119.434 30.4199 122.266 30.957 124.609 29.248 C 126.855 27.5391 127.393 24.707 125.977 20.6055 L 112.646 -19.3359 L 146.875 -43.9453 C 150.391 -46.4355 151.709 -49.0234 150.83 -51.7578 C 149.951 -54.3945 147.363 -55.8105 143.018 -55.7617 L 100.977 -55.5176 L 88.1836 -95.6055 C 86.8164 -99.7559 84.8145 -101.807 81.9824 -101.807 C 79.1016 -101.807 77.0996 -99.7559 75.7812 -95.6055 L 62.9395 -55.5176 L 20.8984 -55.7617 C 16.5527 -55.8105 14.0137 -54.3945 13.1348 -51.7578 C 12.207 -49.0234 13.5742 -46.4355 17.041 -43.9453 L 51.2695 -19.3359 L 37.9395 20.6055 C 36.5723 24.707 37.1094 27.5391 39.3555 29.248 Z"/>
  </g>
  <g id="Light-L" transform="matrix(1 0 0 1 1072.27 1556)">
   <path d="M 38.9648 28.3203 C 40.8203 29.7363 43.1152 29.3945 46.0449 27.2461 L 80.8594 1.75781 L 115.625 27.2461 C 118.604 29.3945 120.898 29.7363 122.754 28.3203 C 124.561 26.9531 125.098 24.707 123.926 21.1914 L 110.4 -19.6777 L 145.41 -44.9219 C 148.34 -47.0215 149.316 -49.1699 148.633 -51.3672 C 147.9 -53.5156 145.898 -54.6875 142.188 -54.6875 L 99.1211 -54.4922 L 85.9863 -95.5566 C 84.8145 -99.0234 83.1543 -100.635 80.8594 -100.635 C 78.5645 -100.635 76.8555 -99.0234 75.7324 -95.5566 L 62.5488 -54.4922 L 19.4824 -54.6875 C 15.8203 -54.6875 13.7695 -53.5156 13.0859 -51.3672 C 12.3535 -49.1699 13.3789 -47.0215 16.3086 -44.9219 L 51.3184 -19.6777 L 37.793 21.1914 C 36.6211 24.707 37.1094 26.9531 38.9648 28.3203 Z"/>
  </g>
  <g id="Thin-L" transform="matrix(1 0 0 1 777.052 1556)">
   <path d="M 38.4277 27.1484 C 39.6973 28.0762 41.2598 27.9785 43.457 26.416 L 79.3457 0.146484 L 115.283 26.416 C 117.48 27.9785 119.043 28.0762 120.312 27.1484 C 121.582 26.2207 122.07 24.707 121.191 22.0215 L 107.373 -20.166 L 143.408 -46.2402 C 145.605 -47.8516 146.143 -49.3652 145.703 -50.8301 C 145.215 -52.2949 143.896 -53.2715 141.113 -53.2715 L 96.6797 -53.1738 L 83.0566 -95.459 C 82.1777 -98.0957 80.9082 -99.0723 79.3457 -99.0723 C 77.7832 -99.0723 76.5625 -98.0957 75.6836 -95.459 L 62.0605 -53.1738 L 17.627 -53.2715 C 14.7949 -53.2715 13.5254 -52.2949 13.0371 -50.8301 C 12.5488 -49.3652 13.0859 -47.8516 15.2832 -46.2402 L 51.3672 -20.166 L 37.5488 22.0215 C 36.6699 24.707 37.1582 26.2207 38.4277 27.1484 Z"/>
  </g>
  <g id="Ultralight-L" transform="matrix(1 0 0 1 481.122 1556)">
   <path d="M 38.1348 26.5137 C 39.1113 27.1973 40.332 27.2949 42.1387 25.9766 L 78.6133 -0.683594 L 115.039 25.9766 C 116.895 27.2949 118.066 27.1973 119.043 26.5137 C 120.02 25.8301 120.508 24.707 119.775 22.4121 L 105.811 -20.4102 L 142.432 -46.9238 C 144.238 -48.2422 144.531 -49.4629 144.189 -50.5859 C 143.848 -51.709 142.92 -52.5391 140.527 -52.5391 L 95.4102 -52.4902 L 81.543 -95.4102 C 80.8105 -97.6074 79.7852 -98.2422 78.6133 -98.2422 C 77.3926 -98.2422 76.416 -97.6074 75.6836 -95.4102 L 61.8164 -52.4902 L 16.6504 -52.5391 C 14.3066 -52.5391 13.3301 -51.709 12.9883 -50.5859 C 12.6953 -49.4629 12.9395 -48.2422 14.7949 -46.9238 L 51.416 -20.4102 L 37.4023 22.4121 C 36.6699 24.707 37.1582 25.8301 38.1348 26.5137 Z"/>
  </g>
  <g id="Black-M" transform="matrix(1 0 0 1 2864.85 1126)">
   <path d="M 32.5195 18.7012 C 36.1816 21.5332 40.7227 20.8008 45.3613 17.334 L 68.5547 0.292969 L 91.6992 17.334 C 96.3867 20.8008 100.928 21.5332 104.639 18.7012 C 108.301 15.9668 109.033 11.377 107.227 6.10352 L 98.0469 -21.0938 L 121.387 -37.793 C 126.025 -41.1133 128.174 -45.2148 126.66 -49.6094 C 125.146 -54.0039 121.094 -56.1035 115.43 -56.0547 L 86.8164 -55.8105 L 78.125 -83.2031 C 76.3672 -88.6719 73.1445 -91.8945 68.5547 -91.8945 C 63.9648 -91.8945 60.791 -88.6719 59.0332 -83.2031 L 50.293 -55.8105 L 21.6309 -56.0547 C 16.0645 -56.1035 11.9629 -54.0039 10.4492 -49.707 C 8.88672 -45.2148 11.084 -41.1133 15.7227 -37.793 L 39.1113 -21.0938 L 29.9316 6.10352 C 28.0762 11.377 28.8574 15.9668 32.5195 18.7012 Z"/>
  </g>
  <g id="Heavy-M" transform="matrix(1 0 0 1 2569.16 1126)">
   <path d="M 32.0801 17.9199 C 35.4004 20.4102 39.4531 19.7266 43.7012 16.5527 L 67.5293 -0.927734 L 91.3086 16.5527 C 95.6055 19.7266 99.6582 20.4102 102.979 17.9199 C 106.25 15.4297 106.934 11.3281 105.225 6.49414 L 95.8008 -21.4844 L 119.824 -38.6719 C 124.072 -41.6992 126.025 -45.3613 124.658 -49.3164 C 123.34 -53.2227 119.678 -55.0781 114.453 -55.0293 L 85.0586 -54.7852 L 76.123 -82.959 C 74.5117 -87.9395 71.6309 -90.8203 67.5293 -90.8203 C 63.4277 -90.8203 60.5469 -87.9395 58.9355 -82.959 L 50 -54.7852 L 20.5566 -55.0293 C 15.4297 -55.0781 11.7676 -53.2227 10.4004 -49.3652 C 9.0332 -45.3613 10.9863 -41.6992 15.2344 -38.6719 L 39.2578 -21.4844 L 29.834 6.49414 C 28.125 11.3281 28.8086 15.4297 32.0801 17.9199 Z"/>
  </g>
  <g id="Bold-M" transform="matrix(1 0 0 1 2273.6 1126)">
   <path d="M 31.6406 16.9922 C 34.4727 19.1895 38.0371 18.5059 41.8457 15.7227 L 66.3574 -2.29492 L 90.8691 15.7227 C 94.7266 18.5059 98.2422 19.1895 101.123 16.9922 C 103.955 14.8438 104.541 11.2793 103.027 6.88477 L 93.3105 -21.875 L 118.066 -39.5996 C 121.875 -42.334 123.584 -45.5078 122.412 -48.9258 C 121.289 -52.3438 118.066 -53.9551 113.379 -53.9062 L 83.1055 -53.6621 L 73.877 -82.666 C 72.4121 -87.1582 69.9219 -89.6973 66.3574 -89.6973 C 62.8418 -89.6973 60.3516 -87.1582 58.8867 -82.666 L 49.6582 -53.6621 L 19.3359 -53.9062 C 14.6484 -53.9551 11.4746 -52.3438 10.3516 -48.9746 C 9.13086 -45.5078 10.8398 -42.334 14.6973 -39.5996 L 39.4043 -21.875 L 29.7363 6.88477 C 28.2227 11.2793 28.8086 14.8438 31.6406 16.9922 Z"/>
  </g>
  <g id="Semibold-M" transform="matrix(1 0 0 1 1977.69 1126)">
   <path d="M 31.2988 16.3574 C 33.8867 18.3105 37.0117 17.7246 40.5762 15.0879 L 65.5762 -3.27148 L 90.5762 15.0879 C 94.1406 17.7246 97.2656 18.3105 99.8535 16.3574 C 102.393 14.4531 102.881 11.2793 101.514 7.17773 L 91.6016 -22.168 L 116.846 -40.2832 C 120.361 -42.7734 121.875 -45.6543 120.85 -48.6816 C 119.824 -51.709 116.992 -53.1738 112.646 -53.125 L 81.7383 -52.8809 L 72.3145 -82.4219 C 70.9961 -86.6211 68.75 -88.8672 65.5762 -88.8672 C 62.4023 -88.8672 60.2051 -86.6211 58.8379 -82.4219 L 49.4141 -52.8809 L 18.5059 -53.125 C 14.1602 -53.1738 11.3281 -51.709 10.3027 -48.7305 C 9.22852 -45.6543 10.791 -42.7734 14.3066 -40.2832 L 39.5508 -22.168 L 29.6387 7.17773 C 28.2715 11.2793 28.7598 14.4531 31.2988 16.3574 Z"/>
  </g>
  <g id="Medium-M" transform="matrix(1 0 0 1 1681.59 1126)">
   <path d="M 31.0547 15.8691 C 33.3984 17.627 36.2793 17.0898 39.5996 14.6484 L 64.9902 -4.00391 L 90.332 14.6484 C 93.6523 17.0898 96.5332 17.627 98.877 15.8691 C 101.172 14.1602 101.66 11.2793 100.342 7.42188 L 90.332 -22.4121 L 115.918 -40.7715 C 119.238 -43.1152 120.605 -45.752 119.678 -48.4863 C 118.75 -51.2207 116.162 -52.5879 112.061 -52.4902 L 80.7129 -52.2949 L 71.1426 -82.2754 C 69.873 -86.1816 67.8711 -88.2812 64.9902 -88.2812 C 62.0605 -88.2812 60.0586 -86.1816 58.7891 -82.2754 L 49.2676 -52.2949 L 17.8711 -52.4902 C 13.7695 -52.5879 11.1816 -51.2207 10.2539 -48.4863 C 9.32617 -45.752 10.7422 -43.1152 14.0137 -40.7715 L 39.5996 -22.4121 L 29.5898 7.42188 C 28.2715 11.2793 28.7598 14.1602 31.0547 15.8691 Z"/>
  </g>
  <g id="Regular-M" transform="matrix(1 0 0 1 1385.66 1126)">
   <path d="M 30.7617 15.2344 C 32.7637 16.7969 35.3027 16.2598 38.3301 14.0625 L 64.1602 -4.93164 L 90.0391 14.0625 C 93.0664 16.2598 95.5566 16.7969 97.6074 15.2344 C 99.6094 13.7207 100.049 11.2305 98.8281 7.71484 L 88.623 -22.7051 L 114.697 -41.4062 C 117.725 -43.5547 118.945 -45.8496 118.164 -48.2422 C 117.383 -50.6348 115.088 -51.8066 111.328 -51.7578 L 79.3457 -51.5137 L 69.6289 -82.0801 C 68.457 -85.6445 66.6992 -87.5 64.1602 -87.5 C 61.6699 -87.5 59.9121 -85.6445 58.7402 -82.0801 L 49.0234 -51.5137 L 17.041 -51.7578 C 13.2812 -51.8066 10.9863 -50.6348 10.2051 -48.2422 C 9.375 -45.8496 10.6445 -43.5547 13.6719 -41.4062 L 39.7461 -22.7051 L 29.541 7.71484 C 28.3203 11.2305 28.7598 13.7207 30.7617 15.2344 Z"/>
  </g>
  <g id="Light-M" transform="matrix(1 0 0 1 1089.95 1126)">
   <path d="M 30.3711 14.4531 C 32.0312 15.6738 34.0332 15.332 36.5723 13.4766 L 63.1836 -6.00586 L 89.7949 13.4766 C 92.2852 15.332 94.3359 15.6738 95.9473 14.4531 C 97.6074 13.2324 97.998 11.2305 96.9727 8.25195 L 86.5723 -23.0469 L 113.379 -42.2852 C 115.918 -44.0918 116.797 -45.9961 116.162 -47.9004 C 115.527 -49.8047 113.721 -50.8301 110.596 -50.7812 L 77.6855 -50.6348 L 67.627 -82.0312 C 66.6504 -85.0098 65.1855 -86.4258 63.1836 -86.4258 C 61.1328 -86.4258 59.7168 -85.0098 58.7402 -82.0312 L 48.6816 -50.6348 L 15.7715 -50.7812 C 12.5977 -50.8301 10.791 -49.8047 10.1562 -47.9004 C 9.52148 -45.9961 10.4492 -44.0918 12.9883 -42.2852 L 39.7461 -23.0469 L 29.3945 8.25195 C 28.3691 11.2305 28.7598 13.2324 30.3711 14.4531 Z"/>
  </g>
  <g id="Thin-M" transform="matrix(1 0 0 1 794.581 1126)">
   <path d="M 29.9316 13.3789 C 31.0059 14.1602 32.373 14.0625 34.2773 12.6953 L 61.8652 -7.4707 L 89.4043 12.6953 C 91.3086 14.0625 92.6758 14.1602 93.7988 13.3789 C 94.873 12.5488 95.2637 11.2305 94.5312 8.98438 L 83.8867 -23.4863 L 111.621 -43.5059 C 113.477 -44.8242 113.965 -46.1426 113.574 -47.4609 C 113.135 -48.7305 111.963 -49.5117 109.619 -49.5117 L 75.4883 -49.4141 L 64.9902 -81.9336 C 64.2578 -84.1309 63.2324 -85.0098 61.8652 -85.0098 C 60.498 -85.0098 59.4238 -84.1309 58.6914 -81.9336 L 48.2422 -49.4141 L 14.0625 -49.5117 C 11.7188 -49.5117 10.5469 -48.7305 10.1562 -47.4609 C 9.7168 -46.1426 10.2051 -44.8242 12.1094 -43.5059 L 39.8438 -23.4863 L 29.1504 8.98438 C 28.418 11.2305 28.8086 12.5488 29.9316 13.3789 Z"/>
  </g>
  <g id="Ultralight-M" transform="matrix(1 0 0 1 498.554 1126)">
   <path d="M 29.6875 12.793 C 30.5176 13.4277 31.543 13.4277 33.0566 12.3047 L 61.1816 -8.20312 L 89.2578 12.3047 C 90.7715 13.4277 91.7969 13.4277 92.6758 12.793 C 93.5059 12.207 93.8965 11.2305 93.2617 9.32617 L 82.4707 -23.6816 L 110.693 -44.0918 C 112.207 -45.2148 112.5 -46.2402 112.207 -47.2168 C 111.914 -48.1934 111.084 -48.877 109.131 -48.877 L 74.3652 -48.7793 L 63.6719 -81.8848 C 63.0371 -83.6914 62.207 -84.3262 61.1816 -84.3262 C 60.1562 -84.3262 59.2773 -83.6914 58.6426 -81.8848 L 47.998 -48.7793 L 13.2324 -48.877 C 11.2793 -48.877 10.4004 -48.1934 10.1074 -47.2168 C 9.81445 -46.2402 10.1074 -45.2148 11.6211 -44.0918 L 39.8438 -23.6816 L 29.0527 9.32617 C 28.418 11.2305 28.8086 12.207 29.6875 12.793 Z"/>
  </g>
  <g id="Black-S" transform="matrix(1 0 0 1 2879.74 696)">
   <path d="M 25.4395 6.98242 C 28.3203 9.17969 31.8359 8.59375 35.4492 5.9082 L 53.6621 -7.4707 L 71.8262 5.9082 C 75.4883 8.59375 79.0039 9.17969 81.8848 6.98242 C 84.7168 4.83398 85.3027 1.26953 83.8867 -2.83203 L 76.6602 -24.1699 L 95.0195 -37.3047 C 98.6328 -39.8926 100.293 -43.0664 99.1211 -46.4844 C 97.9492 -49.9023 94.7754 -51.5137 90.3809 -51.4648 L 67.9199 -51.2695 L 61.084 -72.8027 C 59.7168 -77.0508 57.2266 -79.541 53.6621 -79.541 C 50.0977 -79.541 47.6074 -77.0508 46.2402 -72.8027 L 39.4043 -51.2695 L 16.8945 -51.4648 C 12.5488 -51.5137 9.375 -49.9023 8.20312 -46.5332 C 6.98242 -43.0664 8.69141 -39.8926 12.3047 -37.3047 L 30.6641 -24.1699 L 23.4375 -2.83203 C 22.0215 1.26953 22.6074 4.83398 25.4395 6.98242 Z"/>
  </g>
  <g id="Heavy-S" transform="matrix(1 0 0 1 2583.71 696)">
   <path d="M 25.1465 6.44531 C 27.7832 8.44727 31.0059 7.86133 34.375 5.37109 L 52.9785 -8.30078 L 71.5332 5.37109 C 74.9512 7.86133 78.1738 8.44727 80.8105 6.44531 C 83.3984 4.49219 83.8867 1.26953 82.5684 -2.58789 L 75.1953 -24.4141 L 93.9453 -37.8418 C 97.3145 -40.2832 98.877 -43.1641 97.8027 -46.2891 C 96.7285 -49.3652 93.8477 -50.8301 89.7461 -50.7812 L 66.748 -50.5859 L 59.7656 -72.6074 C 58.4961 -76.5625 56.25 -78.8574 52.9785 -78.8574 C 49.7559 -78.8574 47.4609 -76.5625 46.1914 -72.6074 L 39.209 -50.5859 L 16.2109 -50.7812 C 12.1094 -50.8301 9.22852 -49.3652 8.1543 -46.2891 C 7.08008 -43.1641 8.64258 -40.2832 12.0117 -37.8418 L 30.7617 -24.4141 L 23.3887 -2.58789 C 22.0703 1.26953 22.6074 4.49219 25.1465 6.44531 Z"/>
  </g>
  <g id="Bold-S" transform="matrix(1 0 0 1 2287.76 696)">
   <path d="M 24.8535 5.85938 C 27.1973 7.61719 30.0781 7.08008 33.1543 4.78516 L 52.2461 -9.22852 L 71.2402 4.78516 C 74.3652 7.08008 77.2461 7.61719 79.5898 5.85938 C 81.8848 4.10156 82.3242 1.2207 81.1035 -2.34375 L 73.5352 -24.707 L 92.7734 -38.4766 C 95.8984 -40.6738 97.2656 -43.2617 96.3379 -46.0449 C 95.4102 -48.7793 92.8223 -50.0977 88.9648 -50.0488 L 65.4785 -49.8535 L 58.3008 -72.3633 C 57.1289 -76.0254 55.127 -78.125 52.2461 -78.125 C 49.3164 -78.125 47.3145 -76.0254 46.1426 -72.3633 L 39.0137 -49.8535 L 15.4297 -50.0488 C 11.6699 -50.0977 9.0332 -48.7793 8.10547 -46.0449 C 7.12891 -43.2617 8.54492 -40.6738 11.6699 -38.4766 L 30.9082 -24.707 L 23.3398 -2.34375 C 22.1191 1.2207 22.5586 4.10156 24.8535 5.85938 Z"/>
  </g>
  <g id="Semibold-S" transform="matrix(1 0 0 1 1991.56 696)">
   <path d="M 24.6582 5.41992 C 26.8066 7.08008 29.3945 6.54297 32.3242 4.39453 L 51.709 -9.86328 L 71.0449 4.39453 C 73.9746 6.54297 76.6113 7.08008 78.7598 5.41992 C 80.8594 3.85742 81.25 1.2207 80.127 -2.19727 L 72.4121 -24.9023 L 91.9434 -38.916 C 94.873 -40.9668 96.1914 -43.3594 95.3125 -45.8984 C 94.4824 -48.3887 92.0898 -49.5605 88.4766 -49.5117 L 64.5508 -49.3652 L 57.2754 -72.2168 C 56.1523 -75.6836 54.3457 -77.5879 51.709 -77.5879 C 49.0723 -77.5879 47.2168 -75.6836 46.0938 -72.2168 L 38.8672 -49.3652 L 14.8926 -49.5117 C 11.3281 -49.5605 8.93555 -48.3887 8.05664 -45.8984 C 7.22656 -43.3594 8.49609 -40.9668 11.4258 -38.916 L 30.957 -24.9023 L 23.291 -2.19727 C 22.1191 1.2207 22.5586 3.85742 24.6582 5.41992 Z"/>
  </g>
  <g id="Medium-S" transform="matrix(1 0 0 1 1695.26 696)">
   <path d="M 24.4629 5.12695 C 26.4648 6.64062 28.9062 6.10352 31.7383 4.05273 L 51.3184 -10.3516 L 70.8984 4.05273 C 73.6816 6.10352 76.123 6.64062 78.125 5.12695 C 80.0781 3.66211 80.4688 1.17188 79.3457 -2.05078 L 71.582 -25.0488 L 91.3574 -39.209 C 94.1406 -41.2109 95.3613 -43.4082 94.5801 -45.752 C 93.75 -48.0957 91.5527 -49.1699 88.0859 -49.1211 L 63.8672 -48.9746 L 56.543 -72.1191 C 55.4688 -75.3906 53.7598 -77.1973 51.3184 -77.1973 C 48.8281 -77.1973 47.168 -75.3906 46.0938 -72.1191 L 38.7207 -48.9746 L 14.502 -49.1211 C 11.084 -49.1699 8.83789 -48.0957 8.05664 -45.752 C 7.27539 -43.4082 8.49609 -41.2109 11.2793 -39.209 L 31.0547 -25.0488 L 23.291 -2.05078 C 22.168 1.17188 22.5586 3.66211 24.4629 5.12695 Z"/>
  </g>
  <g id="Regular-S" transform="matrix(1 0 0 1 1399.06 696)">
   <path d="M 24.2676 4.6875 C 26.0742 6.05469 28.2715 5.56641 30.9082 3.66211 L 50.7812 -10.9375 L 70.7031 3.66211 C 73.291 5.56641 75.4883 6.05469 77.2949 4.6875 C 79.0527 3.36914 79.3945 1.17188 78.3203 -1.85547 L 70.459 -25.2441 L 90.5273 -39.6484 C 93.1641 -41.5039 94.2871 -43.457 93.5547 -45.6055 C 92.8711 -47.6562 90.8203 -48.6816 87.5977 -48.6328 L 62.9883 -48.4375 L 55.5176 -71.9727 C 54.541 -75.0488 53.0273 -76.709 50.7812 -76.709 C 48.584 -76.709 47.0703 -75.0488 46.0449 -71.9727 L 38.5742 -48.4375 L 13.9648 -48.6328 C 10.7422 -48.6816 8.74023 -47.6562 8.00781 -45.6055 C 7.32422 -43.457 8.44727 -41.5039 11.0352 -39.6484 L 31.1035 -25.2441 L 23.2422 -1.85547 C 22.168 1.17188 22.5098 3.36914 24.2676 4.6875 Z"/>
  </g>
  <g id="Light-S" transform="matrix(1 0 0 1 1103.26 696)">
   <path d="M 23.9258 4.00391 C 25.3906 5.07812 27.1484 4.73633 29.3457 3.17383 L 49.9023 -11.9141 L 70.459 3.17383 C 72.6074 4.73633 74.3652 5.07812 75.8301 4.00391 C 77.2461 2.92969 77.5391 1.17188 76.709 -1.36719 L 68.6035 -25.5371 L 89.3555 -40.4297 C 91.5039 -41.9922 92.334 -43.6035 91.7969 -45.3125 C 91.2109 -46.9727 89.6484 -47.8027 86.9141 -47.8027 L 61.5234 -47.6562 L 53.7598 -71.9238 C 52.9297 -74.4629 51.6602 -75.7324 49.9023 -75.7324 C 48.0957 -75.7324 46.875 -74.4629 45.9961 -71.9238 L 38.2812 -47.6562 L 12.8418 -47.8027 C 10.1562 -47.8027 8.54492 -46.9727 7.95898 -45.3125 C 7.42188 -43.6035 8.25195 -41.9922 10.4492 -40.4297 L 31.1523 -25.5371 L 23.0957 -1.36719 C 22.2168 1.17188 22.5586 2.92969 23.9258 4.00391 Z"/>
  </g>
  <g id="Thin-S" transform="matrix(1 0 0 1 807.741 696)">
   <path d="M 23.4863 3.02734 C 24.4629 3.75977 25.6836 3.61328 27.2461 2.49023 L 48.6816 -13.1836 L 70.1172 2.49023 C 71.6797 3.61328 72.9004 3.75977 73.877 3.02734 C 74.8535 2.34375 75.1465 1.17188 74.5117 -0.732422 L 66.2109 -25.9277 L 87.7441 -41.4551 C 89.3555 -42.627 89.7949 -43.75 89.4531 -44.873 C 89.0625 -45.9961 88.0371 -46.6797 86.0352 -46.6797 L 59.5215 -46.582 L 51.416 -71.8262 C 50.7812 -73.7305 49.9023 -74.5117 48.6816 -74.5117 C 47.5098 -74.5117 46.582 -73.7305 45.9473 -71.8262 L 37.8418 -46.582 L 11.3281 -46.6797 C 9.32617 -46.6797 8.30078 -45.9961 7.91016 -44.873 C 7.56836 -43.75 8.05664 -42.627 9.61914 -41.4551 L 31.1523 -25.9277 L 22.8516 -0.732422 C 22.2168 1.17188 22.5586 2.34375 23.4863 3.02734 Z"/>
  </g>
  <g id="Ultralight-S" transform="matrix(1 0 0 1 511.64 696)">
   <path d="M 23.291 2.53906 C 24.0234 3.07617 24.9023 3.07617 26.2207 2.14844 L 48.0957 -13.8672 L 69.9707 2.14844 C 71.2402 3.07617 72.1191 3.07617 72.8516 2.53906 C 73.6328 2.00195 73.9258 1.17188 73.3887 -0.439453 L 64.9902 -26.123 L 86.9629 -41.9922 C 88.2324 -42.9199 88.5254 -43.8477 88.2324 -44.6777 C 87.9883 -45.5078 87.2559 -46.0938 85.5957 -46.0938 L 58.4961 -46.0449 L 50.1953 -71.7773 C 49.707 -73.3398 48.9746 -73.877 48.0957 -73.877 C 47.168 -73.877 46.4355 -73.3398 45.9473 -71.7773 L 37.6465 -46.0449 L 10.5469 -46.0938 C 8.93555 -46.0938 8.1543 -45.5078 7.91016 -44.6777 C 7.61719 -43.8477 7.91016 -42.9199 9.22852 -41.9922 L 31.2012 -26.123 L 22.7539 -0.439453 C 22.2656 1.17188 22.5586 2.00195 23.291 2.53906 Z"/>
  </g>
 </g>
</svg>
