<?xml version="1.0" encoding="UTF-8"?>
<!--Generator: Apple Native CoreSVG 123-->
<!DOCTYPE svg
PUBLIC "-//W3C//DTD SVG 1.1//EN"
       "http://www.w3.org/Graphics/SVG/1.1/DTD/svg11.dtd">
<svg version="1.1" xmlns="http://www.w3.org/2000/svg" xmlns:xlink="http://www.w3.org/1999/xlink" width="3300" height="2200">
 <!--glyph: "uni100174.medium", point size: 100.000000, font version: "Version 15.0d7e11", template writer version: "5"-->
 <g id="Notes">
  <rect height="2200" id="artboard" style="fill:white;opacity:1" width="3300" x="0" y="0"/>
  <line id="" style="fill:none;stroke:black;opacity:1;stroke-width:0.5;" x1="263" x2="3036" y1="292" y2="292"/>
  <text style="stroke:none;fill:black;font-family:-apple-system,&quot;SF Pro Display&quot;,&quot;SF Pro Text&quot;,Helvetica,sans-serif;font-weight:bold;" transform="matrix(1 0 0 1 263 322)">Weight/Scale Variations</text>
  <text style="stroke:none;fill:black;font-family:-apple-system,&quot;SF Pro Display&quot;,&quot;SF Pro Text&quot;,Helvetica,sans-serif;text-anchor:middle;" transform="matrix(1 0 0 1 559.711 322)">Ultralight</text>
  <text style="stroke:none;fill:black;font-family:-apple-system,&quot;SF Pro Display&quot;,&quot;SF Pro Text&quot;,Helvetica,sans-serif;text-anchor:middle;" transform="matrix(1 0 0 1 856.422 322)">Thin</text>
  <text style="stroke:none;fill:black;font-family:-apple-system,&quot;SF Pro Display&quot;,&quot;SF Pro Text&quot;,Helvetica,sans-serif;text-anchor:middle;" transform="matrix(1 0 0 1 1153.13 322)">Light</text>
  <text style="stroke:none;fill:black;font-family:-apple-system,&quot;SF Pro Display&quot;,&quot;SF Pro Text&quot;,Helvetica,sans-serif;text-anchor:middle;" transform="matrix(1 0 0 1 1449.84 322)">Regular</text>
  <text style="stroke:none;fill:black;font-family:-apple-system,&quot;SF Pro Display&quot;,&quot;SF Pro Text&quot;,Helvetica,sans-serif;text-anchor:middle;" transform="matrix(1 0 0 1 1746.56 322)">Medium</text>
  <text style="stroke:none;fill:black;font-family:-apple-system,&quot;SF Pro Display&quot;,&quot;SF Pro Text&quot;,Helvetica,sans-serif;text-anchor:middle;" transform="matrix(1 0 0 1 2043.27 322)">Semibold</text>
  <text style="stroke:none;fill:black;font-family:-apple-system,&quot;SF Pro Display&quot;,&quot;SF Pro Text&quot;,Helvetica,sans-serif;text-anchor:middle;" transform="matrix(1 0 0 1 2339.98 322)">Bold</text>
  <text style="stroke:none;fill:black;font-family:-apple-system,&quot;SF Pro Display&quot;,&quot;SF Pro Text&quot;,Helvetica,sans-serif;text-anchor:middle;" transform="matrix(1 0 0 1 2636.69 322)">Heavy</text>
  <text style="stroke:none;fill:black;font-family:-apple-system,&quot;SF Pro Display&quot;,&quot;SF Pro Text&quot;,Helvetica,sans-serif;text-anchor:middle;" transform="matrix(1 0 0 1 2933.4 322)">Black</text>
  <line id="" style="fill:none;stroke:black;opacity:1;stroke-width:0.5;" x1="263" x2="3036" y1="1903" y2="1903"/>
  <g id="" transform="matrix(1 0 0 1 263 1933)">
   <path d="M 9.24805 0.830078 C 13.5547 0.830078 17.1387 -2.74414 17.1387 -7.05078 C 17.1387 -11.3574 13.5449 -14.9316 9.23828 -14.9316 C 4.94141 -14.9316 1.36719 -11.3574 1.36719 -7.05078 C 1.36719 -2.74414 4.95117 0.830078 9.24805 0.830078 Z M 9.24805 -0.654297 C 5.70312 -0.654297 2.87109 -3.49609 2.87109 -7.05078 C 2.87109 -10.6055 5.69336 -13.4473 9.23828 -13.4473 C 12.793 -13.4473 15.6348 -10.6055 15.6445 -7.05078 C 15.6543 -3.49609 12.8027 -0.654297 9.24805 -0.654297 Z M 9.22852 -3.42773 C 9.69727 -3.42773 9.9707 -3.74023 9.9707 -4.25781 L 9.9707 -6.31836 L 12.1973 -6.31836 C 12.6953 -6.31836 13.0371 -6.57227 13.0371 -7.04102 C 13.0371 -7.51953 12.7148 -7.7832 12.1973 -7.7832 L 9.9707 -7.7832 L 9.9707 -10.0098 C 9.9707 -10.5273 9.69727 -10.8496 9.22852 -10.8496 C 8.75977 -10.8496 8.50586 -10.5078 8.50586 -10.0098 L 8.50586 -7.7832 L 6.29883 -7.7832 C 5.78125 -7.7832 5.44922 -7.51953 5.44922 -7.04102 C 5.44922 -6.57227 5.80078 -6.31836 6.29883 -6.31836 L 8.50586 -6.31836 L 8.50586 -4.25781 C 8.50586 -3.75977 8.75977 -3.42773 9.22852 -3.42773 Z"/>
  </g>
  <g id="" transform="matrix(1 0 0 1 281.506 1933)">
   <path d="M 11.709 2.91016 C 17.1582 2.91016 21.6699 -1.60156 21.6699 -7.05078 C 21.6699 -12.4902 17.1484 -17.0117 11.6992 -17.0117 C 6.25977 -17.0117 1.74805 -12.4902 1.74805 -7.05078 C 1.74805 -1.60156 6.26953 2.91016 11.709 2.91016 Z M 11.709 1.25 C 7.09961 1.25 3.41797 -2.44141 3.41797 -7.05078 C 3.41797 -11.6504 7.08984 -15.3516 11.6992 -15.3516 C 16.3086 -15.3516 20 -11.6504 20.0098 -7.05078 C 20.0195 -2.44141 16.3184 1.25 11.709 1.25 Z M 11.6895 -2.41211 C 12.207 -2.41211 12.5195 -2.77344 12.5195 -3.33984 L 12.5195 -6.23047 L 15.5762 -6.23047 C 16.123 -6.23047 16.5039 -6.51367 16.5039 -7.03125 C 16.5039 -7.55859 16.1426 -7.86133 15.5762 -7.86133 L 12.5195 -7.86133 L 12.5195 -10.9277 C 12.5195 -11.5039 12.207 -11.8555 11.6895 -11.8555 C 11.1719 -11.8555 10.8789 -11.4844 10.8789 -10.9277 L 10.8789 -7.86133 L 7.83203 -7.86133 C 7.26562 -7.86133 6.89453 -7.55859 6.89453 -7.03125 C 6.89453 -6.51367 7.28516 -6.23047 7.83203 -6.23047 L 10.8789 -6.23047 L 10.8789 -3.33984 C 10.8789 -2.79297 11.1719 -2.41211 11.6895 -2.41211 Z"/>
  </g>
  <g id="" transform="matrix(1 0 0 1 304.924 1933)">
   <path d="M 14.9707 5.67383 C 21.9336 5.67383 27.6953 -0.078125 27.6953 -7.04102 C 27.6953 -14.0039 21.9238 -19.7559 14.9609 -19.7559 C 8.00781 -19.7559 2.25586 -14.0039 2.25586 -7.04102 C 2.25586 -0.078125 8.01758 5.67383 14.9707 5.67383 Z M 14.9707 3.85742 C 8.93555 3.85742 4.08203 -1.00586 4.08203 -7.04102 C 4.08203 -13.0762 8.92578 -17.9395 14.9609 -17.9395 C 21.0059 -17.9395 25.8594 -13.0762 25.8691 -7.04102 C 25.8789 -1.00586 21.0156 3.85742 14.9707 3.85742 Z M 14.9512 -1.06445 C 15.5176 -1.06445 15.8691 -1.45508 15.8691 -2.06055 L 15.8691 -6.13281 L 20.1074 -6.13281 C 20.6934 -6.13281 21.1133 -6.46484 21.1133 -7.02148 C 21.1133 -7.59766 20.7227 -7.93945 20.1074 -7.93945 L 15.8691 -7.93945 L 15.8691 -12.1875 C 15.8691 -12.8027 15.5176 -13.1934 14.9512 -13.1934 C 14.3848 -13.1934 14.0625 -12.7832 14.0625 -12.1875 L 14.0625 -7.93945 L 9.83398 -7.93945 C 9.21875 -7.93945 8.80859 -7.59766 8.80859 -7.02148 C 8.80859 -6.46484 9.23828 -6.13281 9.83398 -6.13281 L 14.0625 -6.13281 L 14.0625 -2.06055 C 14.0625 -1.47461 14.3848 -1.06445 14.9512 -1.06445 Z"/>
  </g>
  <text style="stroke:none;fill:black;font-family:-apple-system,&quot;SF Pro Display&quot;,&quot;SF Pro Text&quot;,Helvetica,sans-serif;font-weight:bold;" transform="matrix(1 0 0 1 263 1953)">Design Variations</text>
  <text style="stroke:none;fill:black;font-family:-apple-system,&quot;SF Pro Display&quot;,&quot;SF Pro Text&quot;,Helvetica,sans-serif;" transform="matrix(1 0 0 1 263 1971)">Symbols are supported in up to nine weights and three scales.</text>
  <text style="stroke:none;fill:black;font-family:-apple-system,&quot;SF Pro Display&quot;,&quot;SF Pro Text&quot;,Helvetica,sans-serif;" transform="matrix(1 0 0 1 263 1989)">For optimal layout with text and other symbols, vertically align</text>
  <text style="stroke:none;fill:black;font-family:-apple-system,&quot;SF Pro Display&quot;,&quot;SF Pro Text&quot;,Helvetica,sans-serif;" transform="matrix(1 0 0 1 263 2007)">symbols with the adjacent text.</text>
  <rect height="14" id="" style="fill:#00AEEF;stroke:none;opacity:0.4;" width="3" x="776" y="1919"/>
  <g id="" transform="matrix(1 0 0 1 779 1933)">
   <path d="M 10.5273 0 L 12.373 0 L 7.17773 -14.0918 L 5.43945 -14.0918 L 0.244141 0 L 2.08984 0 L 3.50586 -4.0332 L 9.11133 -4.0332 Z M 6.2793 -11.9531 L 6.33789 -11.9531 L 8.59375 -5.52734 L 4.02344 -5.52734 Z"/>
  </g>
  <rect height="14" id="" style="fill:#00AEEF;stroke:none;opacity:0.4;" width="3" x="791.617" y="1919"/>
  <text style="stroke:none;fill:black;font-family:-apple-system,&quot;SF Pro Display&quot;,&quot;SF Pro Text&quot;,Helvetica,sans-serif;font-weight:bold;" transform="matrix(1 0 0 1 776 1953)">Margins</text>
  <text style="stroke:none;fill:black;font-family:-apple-system,&quot;SF Pro Display&quot;,&quot;SF Pro Text&quot;,Helvetica,sans-serif;" transform="matrix(1 0 0 1 776 1971)">Leading and trailing margins on the left and right side of each symbol</text>
  <text style="stroke:none;fill:black;font-family:-apple-system,&quot;SF Pro Display&quot;,&quot;SF Pro Text&quot;,Helvetica,sans-serif;" transform="matrix(1 0 0 1 776 1989)">can be adjusted by modifying the width of the blue rectangles.</text>
  <text style="stroke:none;fill:black;font-family:-apple-system,&quot;SF Pro Display&quot;,&quot;SF Pro Text&quot;,Helvetica,sans-serif;" transform="matrix(1 0 0 1 776 2007)">Modifications are automatically applied proportionally to all</text>
  <text style="stroke:none;fill:black;font-family:-apple-system,&quot;SF Pro Display&quot;,&quot;SF Pro Text&quot;,Helvetica,sans-serif;" transform="matrix(1 0 0 1 776 2025)">scales and weights.</text>
  <g id="" transform="matrix(1 0 0 1 1289 1933)">
   <path d="M 2.83203 3.11523 L 4.375 4.6582 C 5.22461 5.48828 6.19141 5.41992 7.06055 4.46289 L 17.2754 -6.66016 C 17.7051 -6.36719 18.0957 -6.37695 18.5645 -6.47461 L 19.6094 -6.68945 L 20.3027 -5.99609 L 20.2539 -5.47852 C 20.1855 -4.95117 20.3516 -4.53125 20.8496 -4.0332 L 21.6602 -3.22266 C 22.168 -2.71484 22.8223 -2.68555 23.3008 -3.16406 L 26.5527 -6.41602 C 27.0312 -6.89453 27.0117 -7.54883 26.5039 -8.05664 L 25.6836 -8.87695 C 25.1855 -9.375 24.7754 -9.55078 24.2383 -9.47266 L 23.7109 -9.41406 L 23.0566 -10.0781 L 23.3398 -11.2207 C 23.4863 -11.7871 23.3398 -12.2559 22.7148 -12.8613 L 20.3027 -15.2539 C 16.7578 -18.7793 12.2266 -18.6719 9.11133 -15.5371 C 8.69141 -15.1074 8.64258 -14.5215 8.91602 -14.0918 C 9.15039 -13.7207 9.62891 -13.4961 10.2734 -13.6621 C 11.7871 -14.043 13.3008 -13.9258 14.7852 -12.9199 L 14.1602 -11.3379 C 13.9258 -10.752 13.9453 -10.2734 14.1797 -9.83398 L 3.01758 0.439453 C 2.08008 1.30859 1.97266 2.25586 2.83203 3.11523 Z M 10.6738 -15.1465 C 13.3398 -17.1387 16.6504 -16.8262 19.0527 -14.4141 L 21.6797 -11.8066 C 21.9141 -11.5723 21.9434 -11.3867 21.8848 -11.0938 L 21.5039 -9.53125 L 23.0762 -7.95898 L 24.043 -8.04688 C 24.3262 -8.07617 24.4141 -8.05664 24.6387 -7.83203 L 25.2637 -7.20703 L 22.5098 -4.46289 L 21.8848 -5.07812 C 21.6602 -5.30273 21.6406 -5.40039 21.6699 -5.68359 L 21.7578 -6.64062 L 20.1953 -8.20312 L 18.5742 -7.89062 C 18.291 -7.83203 18.1445 -7.83203 17.9102 -8.07617 L 15.7324 -10.2539 C 15.5078 -10.4883 15.4785 -10.625 15.6055 -10.9473 L 16.5527 -13.2227 C 14.9512 -14.7559 12.8418 -15.6055 10.8008 -14.9512 C 10.7129 -14.9219 10.6445 -14.9414 10.6152 -14.9805 C 10.5859 -15.0293 10.5859 -15.0781 10.6738 -15.1465 Z M 4.10156 2.41211 C 3.61328 1.91406 3.78906 1.61133 4.12109 1.30859 L 15.0781 -8.80859 L 16.3086 -7.57812 L 6.15234 3.34961 C 5.84961 3.68164 5.46875 3.7793 5.06836 3.37891 Z"/>
  </g>
  <text style="stroke:none;fill:black;font-family:-apple-system,&quot;SF Pro Display&quot;,&quot;SF Pro Text&quot;,Helvetica,sans-serif;font-weight:bold;" transform="matrix(1 0 0 1 1289 1953)">Exporting</text>
  <text style="stroke:none;fill:black;font-family:-apple-system,&quot;SF Pro Display&quot;,&quot;SF Pro Text&quot;,Helvetica,sans-serif;" transform="matrix(1 0 0 1 1289 1971)">Symbols should be outlined when exporting to ensure the</text>
  <text style="stroke:none;fill:black;font-family:-apple-system,&quot;SF Pro Display&quot;,&quot;SF Pro Text&quot;,Helvetica,sans-serif;" transform="matrix(1 0 0 1 1289 1989)">design is preserved when submitting to Xcode.</text>
  <text id="template-version" style="stroke:none;fill:black;font-family:-apple-system,&quot;SF Pro Display&quot;,&quot;SF Pro Text&quot;,Helvetica,sans-serif;text-anchor:end;" transform="matrix(1 0 0 1 3036 1933)">Template v.1.0</text>
  <text style="stroke:none;fill:black;font-family:-apple-system,&quot;SF Pro Display&quot;,&quot;SF Pro Text&quot;,Helvetica,sans-serif;text-anchor:end;" transform="matrix(1 0 0 1 3036 1951)">Generated from info.circle</text>
  <text style="stroke:none;fill:black;font-family:-apple-system,&quot;SF Pro Display&quot;,&quot;SF Pro Text&quot;,Helvetica,sans-serif;text-anchor:end;" transform="matrix(1 0 0 1 3036 1969)">Typeset at 100 points</text>
  <text style="stroke:none;fill:black;font-family:-apple-system,&quot;SF Pro Display&quot;,&quot;SF Pro Text&quot;,Helvetica,sans-serif;" transform="matrix(1 0 0 1 263 726)">Small</text>
  <text style="stroke:none;fill:black;font-family:-apple-system,&quot;SF Pro Display&quot;,&quot;SF Pro Text&quot;,Helvetica,sans-serif;" transform="matrix(1 0 0 1 263 1156)">Medium</text>
  <text style="stroke:none;fill:black;font-family:-apple-system,&quot;SF Pro Display&quot;,&quot;SF Pro Text&quot;,Helvetica,sans-serif;" transform="matrix(1 0 0 1 263 1586)">Large</text>
 </g>
 <g id="Guides">
  <g id="H-reference" style="fill:#27AAE1;stroke:none;" transform="matrix(1 0 0 1 339 696)">
   <path d="M 54.9316 0 L 57.666 0 L 30.5664 -70.459 L 28.0762 -70.459 L 0.976562 0 L 3.66211 0 L 12.9395 -24.4629 L 45.7031 -24.4629 Z M 29.1992 -67.0898 L 29.4434 -67.0898 L 44.8242 -26.709 L 13.8184 -26.709 Z"/>
  </g>
  <line id="Baseline-S" style="fill:none;stroke:#27AAE1;opacity:1;stroke-width:0.577;" x1="263" x2="3036" y1="696" y2="696"/>
  <line id="Capline-S" style="fill:none;stroke:#27AAE1;opacity:1;stroke-width:0.577;" x1="263" x2="3036" y1="625.541" y2="625.541"/>
  <g id="H-reference" style="fill:#27AAE1;stroke:none;" transform="matrix(1 0 0 1 339 1126)">
   <path d="M 54.9316 0 L 57.666 0 L 30.5664 -70.459 L 28.0762 -70.459 L 0.976562 0 L 3.66211 0 L 12.9395 -24.4629 L 45.7031 -24.4629 Z M 29.1992 -67.0898 L 29.4434 -67.0898 L 44.8242 -26.709 L 13.8184 -26.709 Z"/>
  </g>
  <line id="Baseline-M" style="fill:none;stroke:#27AAE1;opacity:1;stroke-width:0.577;" x1="263" x2="3036" y1="1126" y2="1126"/>
  <line id="Capline-M" style="fill:none;stroke:#27AAE1;opacity:1;stroke-width:0.577;" x1="263" x2="3036" y1="1055.54" y2="1055.54"/>
  <g id="H-reference" style="fill:#27AAE1;stroke:none;" transform="matrix(1 0 0 1 339 1556)">
   <path d="M 54.9316 0 L 57.666 0 L 30.5664 -70.459 L 28.0762 -70.459 L 0.976562 0 L 3.66211 0 L 12.9395 -24.4629 L 45.7031 -24.4629 Z M 29.1992 -67.0898 L 29.4434 -67.0898 L 44.8242 -26.709 L 13.8184 -26.709 Z"/>
  </g>
  <line id="Baseline-L" style="fill:none;stroke:#27AAE1;opacity:1;stroke-width:0.577;" x1="263" x2="3036" y1="1556" y2="1556"/>
  <line id="Capline-L" style="fill:none;stroke:#27AAE1;opacity:1;stroke-width:0.577;" x1="263" x2="3036" y1="1485.54" y2="1485.54"/>
  <rect height="119.336" id="left-margin" style="fill:#00AEEF;stroke:none;opacity:0.4;" width="8.74023" x="1391.3" y="1030.79"/>
  <rect height="119.336" id="right-margin" style="fill:#00AEEF;stroke:none;opacity:0.4;" width="8.74023" x="1499.65" y="1030.79"/>
 </g>
 <g id="Symbols">
  <g id="Black-L" transform="matrix(1 0 0 1 2854.05 1556)">
   <path d="M 79.3457 32.8613 C 116.748 32.8613 147.412 2.19727 147.412 -35.2051 C 147.412 -72.6074 116.748 -103.271 79.2969 -103.271 C 41.8945 -103.271 11.2793 -72.6074 11.2793 -35.2051 C 11.2793 2.19727 41.9434 32.8613 79.3457 32.8613 Z M 79.3457 12.4023 C 52.9785 12.4023 31.7383 -8.83789 31.7383 -35.2051 C 31.7383 -61.5723 52.9297 -82.8125 79.2969 -82.8125 C 105.664 -82.8125 126.953 -61.5723 126.953 -35.2051 C 127.002 -8.83789 105.713 12.4023 79.3457 12.4023 Z M 79.4922 -52.9785 C 85.0586 -52.9785 89.5996 -57.6172 89.5996 -63.0371 C 89.5996 -68.7988 85.0586 -73.291 79.4922 -73.291 C 73.9746 -73.291 69.3848 -68.7988 69.3848 -63.0371 C 69.3848 -57.6172 73.9746 -52.9785 79.4922 -52.9785 Z M 67.9688 -2.19727 L 93.1641 -2.19727 C 96.9238 -2.19727 99.8535 -4.83398 99.8535 -8.69141 C 99.8535 -12.3047 96.9238 -15.1367 93.1641 -15.1367 L 88.9648 -15.1367 L 88.9648 -37.1582 C 88.9648 -42.2852 86.4258 -45.6055 81.5918 -45.6055 L 69.2383 -45.6055 C 65.5273 -45.6055 62.5488 -42.7734 62.5488 -39.1602 C 62.5488 -35.3027 65.5273 -32.666 69.2383 -32.666 L 74.2676 -32.666 L 74.2676 -15.1367 L 67.9688 -15.1367 C 64.209 -15.1367 61.2793 -12.3047 61.2793 -8.69141 C 61.2793 -4.83398 64.209 -2.19727 67.9688 -2.19727 Z"/>
  </g>
  <g id="Heavy-L" transform="matrix(1 0 0 1 2558.39 1556)">
   <path d="M 78.2715 31.7871 C 115.088 31.7871 145.312 1.61133 145.312 -35.2051 C 145.312 -72.0215 115.039 -102.197 78.2715 -102.197 C 41.4551 -102.197 11.2793 -72.0215 11.2793 -35.2051 C 11.2793 1.61133 41.5039 31.7871 78.2715 31.7871 Z M 78.2715 14.0137 C 51.0254 14.0137 29.0527 -7.95898 29.0527 -35.2051 C 29.0527 -62.5 50.9766 -84.4727 78.2715 -84.4727 C 105.518 -84.4727 127.49 -62.5 127.539 -35.2051 C 127.539 -7.95898 105.566 14.0137 78.2715 14.0137 Z M 78.3203 -54.248 C 83.5449 -54.248 87.793 -58.5938 87.793 -63.7207 C 87.793 -69.0918 83.5449 -73.291 78.3203 -73.291 C 73.1445 -73.291 68.7988 -69.0918 68.7988 -63.7207 C 68.7988 -58.5938 73.1445 -54.248 78.3203 -54.248 Z M 66.9434 -1.85547 L 92.2852 -1.85547 C 95.6543 -1.85547 98.3398 -4.24805 98.3398 -7.71484 C 98.3398 -10.9863 95.6543 -13.5254 92.2852 -13.5254 L 87.0605 -13.5254 L 87.0605 -38.4277 C 87.0605 -43.0176 84.7656 -45.9961 80.4199 -45.9961 L 68.1641 -45.9961 C 64.7461 -45.9961 62.1094 -43.457 62.1094 -40.1855 C 62.1094 -36.7188 64.7461 -34.3262 68.1641 -34.3262 L 73.7793 -34.3262 L 73.7793 -13.5254 L 66.9434 -13.5254 C 63.5742 -13.5254 60.8887 -10.9863 60.8887 -7.71484 C 60.8887 -4.24805 63.5742 -1.85547 66.9434 -1.85547 Z"/>
  </g>
  <g id="Bold-L" transform="matrix(1 0 0 1 2262.88 1556)">
   <path d="M 77.0996 30.6152 C 113.232 30.6152 142.92 0.878906 142.92 -35.2051 C 142.92 -71.3379 113.184 -101.025 77.0508 -101.025 C 40.9668 -101.025 11.2793 -71.3379 11.2793 -35.2051 C 11.2793 0.878906 41.0156 30.6152 77.0996 30.6152 Z M 77.0996 15.8691 C 48.8281 15.8691 26.0742 -6.93359 26.0742 -35.2051 C 26.0742 -63.4766 48.7793 -86.2793 77.0508 -86.2793 C 105.371 -86.2793 128.125 -63.4766 128.174 -35.2051 C 128.174 -6.93359 105.371 15.8691 77.0996 15.8691 Z M 76.9531 -55.7129 C 81.8359 -55.7129 85.6934 -59.7168 85.6934 -64.4531 C 85.6934 -69.4336 81.8359 -73.291 76.9531 -73.291 C 72.168 -73.291 68.2129 -69.4336 68.2129 -64.4531 C 68.2129 -59.7168 72.168 -55.7129 76.9531 -55.7129 Z M 65.8203 -1.46484 L 91.3086 -1.46484 C 94.2871 -1.46484 96.6309 -3.61328 96.6309 -6.64062 C 96.6309 -9.52148 94.2871 -11.7676 91.3086 -11.7676 L 84.9121 -11.7676 L 84.9121 -39.8438 C 84.9121 -43.8477 82.9102 -46.4844 79.1016 -46.4844 L 66.8945 -46.4844 C 63.916 -46.4844 61.6211 -44.1895 61.6211 -41.3574 C 61.6211 -38.3301 63.916 -36.1816 66.8945 -36.1816 L 73.291 -36.1816 L 73.291 -11.7676 L 65.8203 -11.7676 C 62.8418 -11.7676 60.498 -9.52148 60.498 -6.64062 C 60.498 -3.61328 62.8418 -1.46484 65.8203 -1.46484 Z"/>
  </g>
  <g id="Semibold-L" transform="matrix(1 0 0 1 1966.97 1556)">
   <path d="M 76.2695 29.7852 C 111.914 29.7852 141.309 0.439453 141.309 -35.2051 C 141.309 -70.8496 111.865 -100.244 76.2695 -100.244 C 40.625 -100.244 11.2793 -70.8496 11.2793 -35.2051 C 11.2793 0.439453 40.6738 29.7852 76.2695 29.7852 Z M 76.2695 17.0898 C 47.3145 17.0898 24.0234 -6.25 24.0234 -35.2051 C 24.0234 -64.209 47.2656 -87.5 76.2695 -87.5 C 105.225 -87.5 128.564 -64.209 128.613 -35.2051 C 128.662 -6.25 105.273 17.0898 76.2695 17.0898 Z M 76.0254 -56.7383 C 80.6152 -56.7383 84.2773 -60.4492 84.2773 -64.9902 C 84.2773 -69.6289 80.6152 -73.291 76.0254 -73.291 C 71.4844 -73.291 67.7734 -69.6289 67.7734 -64.9902 C 67.7734 -60.4492 71.4844 -56.7383 76.0254 -56.7383 Z M 65.0391 -1.2207 L 90.625 -1.2207 C 93.3105 -1.2207 95.459 -3.17383 95.459 -5.9082 C 95.459 -8.49609 93.3105 -10.5469 90.625 -10.5469 L 83.3984 -10.5469 L 83.3984 -40.8203 C 83.3984 -44.4336 81.5918 -46.7773 78.2227 -46.7773 L 66.0645 -46.7773 C 63.3789 -46.7773 61.2305 -44.7266 61.2305 -42.1387 C 61.2305 -39.4043 63.3789 -37.4512 66.0645 -37.4512 L 72.9004 -37.4512 L 72.9004 -10.5469 L 65.0391 -10.5469 C 62.3047 -10.5469 60.2051 -8.49609 60.2051 -5.9082 C 60.2051 -3.17383 62.3047 -1.2207 65.0391 -1.2207 Z"/>
  </g>
  <g id="Medium-L" transform="matrix(1 0 0 1 1670.87 1556)">
   <path d="M 75.6836 29.1992 C 110.938 29.1992 140.088 0.0488281 140.088 -35.2051 C 140.088 -70.459 110.889 -99.6094 75.6348 -99.6094 C 40.3809 -99.6094 11.2793 -70.459 11.2793 -35.2051 C 11.2793 0.0488281 40.3809 29.1992 75.6836 29.1992 Z M 75.6836 18.0664 C 46.1426 18.0664 22.4609 -5.71289 22.4609 -35.2051 C 22.4609 -64.6973 46.1426 -88.4766 75.6348 -88.4766 C 105.127 -88.4766 128.906 -64.6973 128.906 -35.2051 C 128.955 -5.71289 105.176 18.0664 75.6836 18.0664 Z M 75.3418 -57.5195 C 79.7363 -57.5195 83.2031 -61.0352 83.2031 -65.3809 C 83.2031 -69.8242 79.7363 -73.291 75.3418 -73.291 C 70.9961 -73.291 67.4805 -69.8242 67.4805 -65.3809 C 67.4805 -61.0352 70.9961 -57.5195 75.3418 -57.5195 Z M 64.4531 -0.976562 L 90.0879 -0.976562 C 92.627 -0.976562 94.5312 -2.83203 94.5312 -5.32227 C 94.5312 -7.71484 92.627 -9.61914 90.0879 -9.61914 L 82.2754 -9.61914 L 82.2754 -41.6016 C 82.2754 -44.873 80.6152 -47.0215 77.5391 -47.0215 L 65.4297 -47.0215 C 62.9395 -47.0215 60.9863 -45.166 60.9863 -42.7734 C 60.9863 -40.2344 62.9395 -38.4277 65.4297 -38.4277 L 72.6562 -38.4277 L 72.6562 -9.61914 L 64.4531 -9.61914 C 61.9629 -9.61914 60.0098 -7.71484 60.0098 -5.32227 C 60.0098 -2.83203 61.9629 -0.976562 64.4531 -0.976562 Z"/>
  </g>
  <g id="Regular-L" transform="matrix(1 0 0 1 1374.97 1556)">
   <path d="M 74.8535 28.3691 C 109.668 28.3691 138.477 -0.390625 138.477 -35.2051 C 138.477 -70.0195 109.619 -98.7793 74.8047 -98.7793 C 40.0391 -98.7793 11.2793 -70.0195 11.2793 -35.2051 C 11.2793 -0.390625 40.0879 28.3691 74.8535 28.3691 Z M 74.8535 19.2871 C 44.6777 19.2871 20.4102 -5.0293 20.4102 -35.2051 C 20.4102 -65.3809 44.6289 -89.6973 74.8047 -89.6973 C 105.029 -89.6973 129.297 -65.3809 129.346 -35.2051 C 129.395 -5.0293 105.078 19.2871 74.8535 19.2871 Z M 74.4141 -58.4961 C 78.5645 -58.4961 81.7871 -61.7676 81.7871 -65.8691 C 81.7871 -70.0195 78.5645 -73.291 74.4141 -73.291 C 70.3125 -73.291 67.041 -70.0195 67.041 -65.8691 C 67.041 -61.7676 70.3125 -58.4961 74.4141 -58.4961 Z M 63.6719 -0.732422 L 89.4531 -0.732422 C 91.6504 -0.732422 93.4082 -2.39258 93.4082 -4.58984 C 93.4082 -6.73828 91.6504 -8.39844 89.4531 -8.39844 L 80.8105 -8.39844 L 80.8105 -42.5781 C 80.8105 -45.4102 79.3457 -47.3633 76.6113 -47.3633 L 64.5996 -47.3633 C 62.3535 -47.3633 60.6445 -45.6543 60.6445 -43.5547 C 60.6445 -41.3574 62.3535 -39.6973 64.5996 -39.6973 L 72.2656 -39.6973 L 72.2656 -8.39844 L 63.6719 -8.39844 C 61.4258 -8.39844 59.7168 -6.73828 59.7168 -4.58984 C 59.7168 -2.39258 61.4258 -0.732422 63.6719 -0.732422 Z"/>
  </g>
  <g id="Light-L" transform="matrix(1 0 0 1 1079.18 1556)">
   <path d="M 73.9258 27.4902 C 108.301 27.4902 136.621 -0.830078 136.621 -35.1562 C 136.621 -69.5312 108.252 -97.8516 73.9258 -97.8516 C 39.5508 -97.8516 11.2793 -69.5312 11.2793 -35.1562 C 11.2793 -0.830078 39.5996 27.4902 73.9258 27.4902 Z M 73.9258 20.6055 C 43.1152 20.6055 18.2129 -4.3457 18.2129 -35.1562 C 18.2129 -66.0156 43.0664 -90.918 73.9258 -90.918 C 104.736 -90.918 129.688 -66.0156 129.736 -35.1562 C 129.736 -4.3457 104.785 20.6055 73.9258 20.6055 Z M 73.6816 -59.668 C 77.1484 -59.668 79.9316 -62.4023 79.9316 -65.8691 C 79.9316 -69.3359 77.1484 -72.168 73.6816 -72.168 C 70.2148 -72.168 67.3828 -69.3359 67.3828 -65.8691 C 67.3828 -62.4023 70.2148 -59.668 73.6816 -59.668 Z M 62.5488 -0.976562 L 88.4277 -0.976562 C 90.1855 -0.976562 91.5039 -2.29492 91.5039 -4.00391 C 91.5039 -5.66406 90.1855 -7.03125 88.4277 -7.03125 L 78.7598 -7.03125 L 78.7598 -43.9941 C 78.7598 -46.0938 77.5879 -47.6074 75.4883 -47.6074 L 63.2324 -47.6074 C 61.4258 -47.6074 60.1074 -46.2402 60.1074 -44.6289 C 60.1074 -42.8711 61.4258 -41.5527 63.2324 -41.5527 L 72.2168 -41.5527 L 72.2168 -7.03125 L 62.5488 -7.03125 C 60.7422 -7.03125 59.4238 -5.66406 59.4238 -4.00391 C 59.4238 -2.29492 60.7422 -0.976562 62.5488 -0.976562 Z"/>
  </g>
  <g id="Thin-L" transform="matrix(1 0 0 1 783.693 1556)">
   <path d="M 72.7051 26.3184 C 106.494 26.3184 134.18 -1.36719 134.18 -35.1074 C 134.18 -68.8965 106.494 -96.582 72.7051 -96.582 C 38.9648 -96.582 11.2793 -68.8965 11.2793 -35.1074 C 11.2793 -1.36719 38.9648 26.3184 72.7051 26.3184 Z M 72.7051 22.3145 C 41.0156 22.3145 15.2832 -3.41797 15.2832 -35.1074 C 15.2832 -66.8457 41.0156 -92.5781 72.7051 -92.5781 C 104.395 -92.5781 130.176 -66.8457 130.176 -35.1074 C 130.176 -3.41797 104.443 22.3145 72.7051 22.3145 Z M 72.6562 -61.1816 C 75.293 -61.1816 77.4902 -63.1836 77.4902 -65.8203 C 77.4902 -68.457 75.293 -70.6543 72.6562 -70.6543 C 70.0195 -70.6543 67.8711 -68.457 67.8711 -65.8203 C 67.8711 -63.1836 70.0195 -61.1816 72.6562 -61.1816 Z M 61.0352 -1.26953 L 87.0605 -1.26953 C 88.2812 -1.26953 89.0625 -2.14844 89.0625 -3.22266 C 89.0625 -4.29688 88.2812 -5.17578 87.0605 -5.17578 L 76.0254 -5.17578 L 76.0254 -45.8496 C 76.0254 -47.0215 75.2441 -47.9492 74.0234 -47.9492 L 61.4746 -47.9492 C 60.2539 -47.9492 59.4727 -47.0215 59.4727 -45.9961 C 59.4727 -44.9219 60.2539 -44.043 61.4746 -44.043 L 72.1191 -44.043 L 72.1191 -5.17578 L 61.0352 -5.17578 C 59.8633 -5.17578 59.082 -4.29688 59.082 -3.22266 C 59.082 -2.14844 59.8633 -1.26953 61.0352 -1.26953 Z"/>
  </g>
  <g id="Ultralight-L" transform="matrix(1 0 0 1 487.616 1556)">
   <path d="M 72.1191 25.7324 C 105.566 25.7324 132.91 -1.61133 132.91 -35.1074 C 132.91 -68.5547 105.566 -95.8984 72.1191 -95.8984 C 38.623 -95.8984 11.2793 -68.5547 11.2793 -35.1074 C 11.2793 -1.61133 38.623 25.7324 72.1191 25.7324 Z M 72.1191 23.2422 C 39.9414 23.2422 13.7695 -2.97852 13.7695 -35.1074 C 13.7695 -67.2363 39.9414 -93.4082 72.1191 -93.4082 C 104.248 -93.4082 130.42 -67.2363 130.42 -35.1074 C 130.42 -2.97852 104.248 23.2422 72.1191 23.2422 Z M 72.168 -61.9629 C 74.3652 -61.9629 76.2207 -63.623 76.2207 -65.8203 C 76.2207 -68.0176 74.3652 -69.873 72.168 -69.873 C 69.9219 -69.873 68.0664 -68.0176 68.0664 -65.8203 C 68.0664 -63.623 69.9219 -61.9629 72.168 -61.9629 Z M 60.3027 -1.41602 L 86.377 -1.41602 C 87.3047 -1.41602 87.793 -2.09961 87.793 -2.83203 C 87.793 -3.56445 87.3047 -4.24805 86.377 -4.24805 L 74.6094 -4.24805 L 74.6094 -46.8262 C 74.6094 -47.4609 74.0723 -48.1445 73.2422 -48.1445 L 60.5469 -48.1445 C 59.6191 -48.1445 59.1309 -47.4609 59.1309 -46.7285 C 59.1309 -45.9961 59.6191 -45.3125 60.5469 -45.3125 L 72.0703 -45.3125 L 72.0703 -4.24805 L 60.3027 -4.24805 C 59.375 -4.24805 58.8867 -3.56445 58.8867 -2.83203 C 58.8867 -2.09961 59.375 -1.41602 60.3027 -1.41602 Z"/>
  </g>
  <g id="Black-M" transform="matrix(1 0 0 1 2870.97 1126)">
   <path d="M 62.4023 18.457 C 91.9922 18.457 116.113 -5.61523 116.113 -35.2051 C 116.113 -64.7949 91.9922 -88.8672 62.4023 -88.8672 C 32.8125 -88.8672 8.74023 -64.7949 8.74023 -35.2051 C 8.74023 -5.61523 32.8125 18.457 62.4023 18.457 Z M 62.4023 0.195312 C 42.8711 0.195312 27.002 -15.625 27.002 -35.2051 C 27.002 -54.7363 42.8711 -70.6055 62.4023 -70.6055 C 81.9824 -70.6055 97.8027 -54.7363 97.8027 -35.2051 C 97.8027 -15.625 81.9824 0.195312 62.4023 0.195312 Z M 62.793 -47.8027 C 67.2363 -47.8027 70.9473 -51.5625 70.9473 -55.8594 C 70.9473 -60.498 67.2363 -64.1113 62.793 -64.1113 C 58.4473 -64.1113 54.6875 -60.498 54.6875 -55.8594 C 54.6875 -51.5625 58.4473 -47.8027 62.793 -47.8027 Z M 53.418 -10.2051 L 72.8516 -10.2051 C 75.9766 -10.2051 78.4668 -12.4023 78.4668 -15.625 C 78.4668 -18.6523 75.9766 -21.0449 72.8516 -21.0449 L 70.459 -21.0449 L 70.459 -35.7422 C 70.459 -40.0879 68.3105 -42.8223 64.209 -42.8223 L 54.4434 -42.8223 C 51.2695 -42.8223 48.8281 -40.4297 48.8281 -37.4512 C 48.8281 -34.1797 51.2695 -31.9824 54.4434 -31.9824 L 58.1543 -31.9824 L 58.1543 -21.0449 L 53.418 -21.0449 C 50.293 -21.0449 47.8516 -18.6523 47.8516 -15.625 C 47.8516 -12.4023 50.293 -10.2051 53.418 -10.2051 Z"/>
  </g>
  <g id="Heavy-M" transform="matrix(1 0 0 1 2575.19 1126)">
   <path d="M 61.5234 17.5781 C 90.5273 17.5781 114.258 -6.15234 114.258 -35.2051 C 114.258 -64.2578 90.5273 -87.9883 61.4746 -87.9883 C 32.4707 -87.9883 8.74023 -64.2578 8.74023 -35.2051 C 8.74023 -6.15234 32.4707 17.5781 61.5234 17.5781 Z M 61.5234 1.66016 C 41.1133 1.66016 24.6582 -14.8438 24.6582 -35.2051 C 24.6582 -55.5664 41.1133 -72.0703 61.4746 -72.0703 C 81.8848 -72.0703 98.3398 -55.5664 98.3398 -35.2051 C 98.3398 -14.8438 81.8848 1.66016 61.5234 1.66016 Z M 61.7188 -48.9258 C 65.918 -48.9258 69.4336 -52.4902 69.4336 -56.5918 C 69.4336 -60.9863 65.918 -64.4043 61.7188 -64.4043 C 57.5195 -64.4043 54.0039 -60.9863 54.0039 -56.5918 C 54.0039 -52.4902 57.5195 -48.9258 61.7188 -48.9258 Z M 52.6367 -9.76562 L 72.168 -9.76562 C 75 -9.76562 77.2461 -11.7676 77.2461 -14.7461 C 77.2461 -17.4805 75 -19.6777 72.168 -19.6777 L 68.8965 -19.6777 L 68.8965 -36.7676 C 68.8965 -40.7227 66.9434 -43.2129 63.2324 -43.2129 L 53.5645 -43.2129 C 50.7324 -43.2129 48.4863 -41.0645 48.4863 -38.2812 C 48.4863 -35.3516 50.7324 -33.3008 53.5645 -33.3008 L 57.666 -33.3008 L 57.666 -19.6777 L 52.6367 -19.6777 C 49.7559 -19.6777 47.5098 -17.4805 47.5098 -14.7461 C 47.5098 -11.7676 49.7559 -9.76562 52.6367 -9.76562 Z"/>
  </g>
  <g id="Bold-M" transform="matrix(1 0 0 1 2279.5 1126)">
   <path d="M 60.498 16.5039 C 88.8672 16.5039 112.207 -6.78711 112.207 -35.2051 C 112.207 -63.623 88.8672 -86.9629 60.4492 -86.9629 C 32.0312 -86.9629 8.74023 -63.623 8.74023 -35.2051 C 8.74023 -6.78711 32.0801 16.5039 60.498 16.5039 Z M 60.498 3.22266 C 39.1602 3.22266 22.0703 -13.916 22.0703 -35.2051 C 22.0703 -56.4941 39.1602 -73.6816 60.4492 -73.6816 C 81.7383 -73.6816 98.9258 -56.4941 98.9258 -35.2051 C 98.9746 -13.916 81.7871 3.22266 60.498 3.22266 Z M 60.4492 -50.1953 C 64.4531 -50.1953 67.6758 -53.5156 67.6758 -57.4219 C 67.6758 -61.5234 64.4531 -64.7461 60.4492 -64.7461 C 56.4941 -64.7461 53.2227 -61.5234 53.2227 -57.4219 C 53.2227 -53.5156 56.4941 -50.1953 60.4492 -50.1953 Z M 51.709 -9.27734 L 71.3867 -9.27734 C 73.9258 -9.27734 75.9277 -11.084 75.9277 -13.7207 C 75.9277 -16.2109 73.9258 -18.1152 71.3867 -18.1152 L 67.1387 -18.1152 L 67.1387 -37.9395 C 67.1387 -41.4062 65.3809 -43.6523 62.1094 -43.6523 L 52.6367 -43.6523 C 50.0488 -43.6523 48.0469 -41.6992 48.0469 -39.2578 C 48.0469 -36.6211 50.0488 -34.8145 52.6367 -34.8145 L 57.0801 -34.8145 L 57.0801 -18.1152 L 51.709 -18.1152 C 49.1699 -18.1152 47.1191 -16.2109 47.1191 -13.7207 C 47.1191 -11.084 49.1699 -9.27734 51.709 -9.27734 Z"/>
  </g>
  <g id="Semibold-M" transform="matrix(1 0 0 1 1983.5 1126)">
   <path d="M 59.7656 15.8203 C 87.7441 15.8203 110.791 -7.22656 110.791 -35.2051 C 110.791 -63.1836 87.6953 -86.2793 59.7656 -86.2793 C 31.7871 -86.2793 8.74023 -63.1836 8.74023 -35.2051 C 8.74023 -7.22656 31.7871 15.8203 59.7656 15.8203 Z M 59.7656 4.3457 C 37.8418 4.3457 20.2637 -13.2812 20.2637 -35.2051 C 20.2637 -57.1289 37.793 -74.8047 59.7656 -74.8047 C 81.6895 -74.8047 99.3164 -57.1289 99.3652 -35.2051 C 99.3652 -13.2812 81.6895 4.3457 59.7656 4.3457 Z M 59.6191 -51.0742 C 63.4766 -51.0742 66.5039 -54.248 66.5039 -58.0078 C 66.5039 -61.9141 63.4766 -64.9902 59.6191 -64.9902 C 55.8105 -64.9902 52.6855 -61.9141 52.6855 -58.0078 C 52.6855 -54.248 55.8105 -51.0742 59.6191 -51.0742 Z M 51.0742 -8.93555 L 70.8496 -8.93555 C 73.1934 -8.93555 75.0488 -10.6445 75.0488 -13.0371 C 75.0488 -15.2832 73.1934 -17.0898 70.8496 -17.0898 L 65.918 -17.0898 L 65.918 -38.7207 C 65.918 -41.8945 64.3555 -43.9453 61.377 -43.9453 L 51.9531 -43.9453 C 49.6094 -43.9453 47.7539 -42.1875 47.7539 -39.9414 C 47.7539 -37.5 49.6094 -35.8398 51.9531 -35.8398 L 56.7383 -35.8398 L 56.7383 -17.0898 L 51.0742 -17.0898 C 48.7305 -17.0898 46.875 -15.2832 46.875 -13.0371 C 46.875 -10.6445 48.7305 -8.93555 51.0742 -8.93555 Z"/>
  </g>
  <g id="Medium-M" transform="matrix(1 0 0 1 1687.3 1126)">
   <path d="M 59.2285 15.2832 C 86.9141 15.2832 109.766 -7.56836 109.766 -35.2051 C 109.766 -62.8906 86.8652 -85.7422 59.1797 -85.7422 C 31.543 -85.7422 8.74023 -62.8906 8.74023 -35.2051 C 8.74023 -7.56836 31.5918 15.2832 59.2285 15.2832 Z M 59.2285 5.17578 C 36.8164 5.17578 18.8965 -12.8418 18.8965 -35.2051 C 18.8965 -57.6172 36.8164 -75.6348 59.1797 -75.6348 C 81.5918 -75.6348 99.6094 -57.6172 99.6582 -35.2051 C 99.707 -12.8418 81.6406 5.17578 59.2285 5.17578 Z M 58.9355 -51.7578 C 62.6953 -51.7578 65.625 -54.7852 65.625 -58.4473 C 65.625 -62.207 62.6953 -65.1855 58.9355 -65.1855 C 55.2734 -65.1855 52.2949 -62.207 52.2949 -58.4473 C 52.2949 -54.7852 55.2734 -51.7578 58.9355 -51.7578 Z M 50.5859 -8.69141 L 70.4102 -8.69141 C 72.6074 -8.69141 74.3164 -10.3027 74.3164 -12.5 C 74.3164 -14.5996 72.6074 -16.2598 70.4102 -16.2598 L 64.9902 -16.2598 L 64.9902 -39.3066 C 64.9902 -42.2363 63.5254 -44.1895 60.791 -44.1895 L 51.4648 -44.1895 C 49.2676 -44.1895 47.5586 -42.5293 47.5586 -40.4297 C 47.5586 -38.1836 49.2676 -36.6211 51.4648 -36.6211 L 56.4453 -36.6211 L 56.4453 -16.2598 L 50.5859 -16.2598 C 48.4375 -16.2598 46.6797 -14.5996 46.6797 -12.5 C 46.6797 -10.3027 48.4375 -8.69141 50.5859 -8.69141 Z"/>
  </g>
  <g id="Regular-M" transform="matrix(1 0 0 1 1391.3 1126)">
   <path d="M 58.5449 14.5508 C 85.791 14.5508 108.35 -8.00781 108.35 -35.2539 C 108.35 -62.4512 85.7422 -85.0586 58.4961 -85.0586 C 31.2988 -85.0586 8.74023 -62.4512 8.74023 -35.2539 C 8.74023 -8.00781 31.3477 14.5508 58.5449 14.5508 Z M 58.5449 6.25 C 35.498 6.25 17.0898 -12.207 17.0898 -35.2539 C 17.0898 -58.252 35.4492 -76.7578 58.4961 -76.7578 C 81.543 -76.7578 100 -58.252 100.049 -35.2539 C 100.098 -12.207 81.5918 6.25 58.5449 6.25 Z M 58.1055 -52.6367 C 61.6699 -52.6367 64.4531 -55.4688 64.4531 -58.9844 C 64.4531 -62.5488 61.6699 -65.3809 58.1055 -65.3809 C 54.5898 -65.3809 51.7578 -62.5488 51.7578 -58.9844 C 51.7578 -55.4688 54.5898 -52.6367 58.1055 -52.6367 Z M 50 -8.39844 L 69.873 -8.39844 C 71.875 -8.39844 73.4375 -9.81445 73.4375 -11.8164 C 73.4375 -13.7207 71.875 -15.2344 69.873 -15.2344 L 63.8184 -15.2344 L 63.8184 -40.0879 C 63.8184 -42.7246 62.5 -44.4824 60.0098 -44.4824 L 50.8301 -44.4824 C 48.8281 -44.4824 47.2656 -42.9688 47.2656 -41.0645 C 47.2656 -39.0625 48.8281 -37.6465 50.8301 -37.6465 L 56.0547 -37.6465 L 56.0547 -15.2344 L 50 -15.2344 C 47.998 -15.2344 46.4355 -13.7207 46.4355 -11.8164 C 46.4355 -9.81445 47.998 -8.39844 50 -8.39844 Z"/>
  </g>
  <g id="Light-M" transform="matrix(1 0 0 1 1095.42 1126)">
   <path d="M 57.7148 13.7695 C 84.5215 13.7695 106.689 -8.39844 106.689 -35.2051 C 106.689 -62.0117 84.5215 -84.1797 57.666 -84.1797 C 30.8594 -84.1797 8.74023 -62.0117 8.74023 -35.2051 C 8.74023 -8.39844 30.9082 13.7695 57.7148 13.7695 Z M 57.7148 7.4707 C 34.082 7.4707 15.0879 -11.5723 15.0879 -35.2051 C 15.0879 -58.8379 34.082 -77.832 57.666 -77.832 C 81.2988 -77.832 100.342 -58.8379 100.391 -35.2051 C 100.391 -11.5723 81.3477 7.4707 57.7148 7.4707 Z M 57.4219 -53.6621 C 60.4492 -53.6621 62.793 -56.0059 62.793 -58.9844 C 62.793 -61.9629 60.4492 -64.3555 57.4219 -64.3555 C 54.4434 -64.3555 52.0508 -61.9629 52.0508 -58.9844 C 52.0508 -56.0059 54.4434 -53.6621 57.4219 -53.6621 Z M 48.9746 -8.59375 L 68.9941 -8.59375 C 70.5566 -8.59375 71.7773 -9.76562 71.7773 -11.2793 C 71.7773 -12.793 70.5566 -14.0137 68.9941 -14.0137 L 61.9629 -14.0137 L 61.9629 -41.3574 C 61.9629 -43.3594 60.9375 -44.7266 58.9844 -44.7266 L 49.6094 -44.7266 C 48.0469 -44.7266 46.8262 -43.5059 46.8262 -42.041 C 46.8262 -40.4785 48.0469 -39.3066 49.6094 -39.3066 L 56.0059 -39.3066 L 56.0059 -14.0137 L 48.9746 -14.0137 C 47.4121 -14.0137 46.1914 -12.793 46.1914 -11.2793 C 46.1914 -9.76562 47.4121 -8.59375 48.9746 -8.59375 Z"/>
  </g>
  <g id="Thin-M" transform="matrix(1 0 0 1 799.806 1126)">
   <path d="M 56.6406 12.7441 C 82.9102 12.7441 104.492 -8.83789 104.492 -35.1562 C 104.492 -61.4746 82.9102 -83.0566 56.5918 -83.0566 C 30.3223 -83.0566 8.74023 -61.4746 8.74023 -35.1562 C 8.74023 -8.83789 30.3223 12.7441 56.6406 12.7441 Z M 56.6406 8.98438 C 32.2266 8.98438 12.4512 -10.791 12.4512 -35.1562 C 12.4512 -59.5215 32.2266 -79.2969 56.5918 -79.2969 C 81.0059 -79.2969 100.781 -59.5215 100.781 -35.1562 C 100.781 -10.791 81.0059 8.98438 56.6406 8.98438 Z M 56.543 -54.9805 C 58.7402 -54.9805 60.5957 -56.7383 60.5957 -58.9355 C 60.5957 -61.1816 58.7402 -62.9883 56.543 -62.9883 C 54.2969 -62.9883 52.4902 -61.1816 52.4902 -58.9355 C 52.4902 -56.7383 54.2969 -54.9805 56.543 -54.9805 Z M 47.6562 -8.83789 L 67.7734 -8.83789 C 68.8477 -8.83789 69.5312 -9.61914 69.5312 -10.5957 C 69.5312 -11.5234 68.8477 -12.3535 67.7734 -12.3535 L 59.5215 -12.3535 L 59.5215 -43.0664 C 59.5215 -44.1895 58.8379 -45.0195 57.666 -45.0195 L 47.998 -45.0195 C 46.9727 -45.0195 46.2402 -44.2383 46.2402 -43.2617 C 46.2402 -42.334 46.9727 -41.5039 47.998 -41.5039 L 55.9082 -41.5039 L 55.9082 -12.3535 L 47.6562 -12.3535 C 46.582 -12.3535 45.8496 -11.5234 45.8496 -10.5957 C 45.8496 -9.61914 46.582 -8.83789 47.6562 -8.83789 Z"/>
  </g>
  <g id="Ultralight-M" transform="matrix(1 0 0 1 503.656 1126)">
   <path d="M 56.0547 12.207 C 82.0801 12.207 103.369 -9.08203 103.369 -35.1562 C 103.369 -61.1816 82.0801 -82.4707 56.0547 -82.4707 C 30.0293 -82.4707 8.74023 -61.1816 8.74023 -35.1562 C 8.74023 -9.08203 30.0293 12.207 56.0547 12.207 Z M 56.0547 9.81445 C 31.2988 9.81445 11.1328 -10.3516 11.1328 -35.1562 C 11.1328 -59.9121 31.2988 -80.0781 56.0547 -80.0781 C 80.8594 -80.0781 100.977 -59.9121 100.977 -35.1562 C 100.977 -10.3516 80.8594 9.81445 56.0547 9.81445 Z M 56.0547 -55.7129 C 57.9102 -55.7129 59.4238 -57.0801 59.4238 -58.9355 C 59.4238 -60.791 57.9102 -62.3047 56.0547 -62.3047 C 54.248 -62.3047 52.6855 -60.791 52.6855 -58.9355 C 52.6855 -57.0801 54.248 -55.7129 56.0547 -55.7129 Z M 46.9727 -8.98438 L 67.1387 -8.98438 C 67.9199 -8.98438 68.4082 -9.57031 68.4082 -10.2539 C 68.4082 -10.8887 67.9199 -11.5234 67.1387 -11.5234 L 58.252 -11.5234 L 58.252 -43.9453 C 58.252 -44.5801 57.7637 -45.166 56.9824 -45.166 L 47.168 -45.166 C 46.3867 -45.166 45.9473 -44.5801 45.9473 -43.8965 C 45.9473 -43.2617 46.3867 -42.627 47.168 -42.627 L 55.8594 -42.627 L 55.8594 -11.5234 L 46.9727 -11.5234 C 46.1426 -11.5234 45.7031 -10.8887 45.7031 -10.2539 C 45.7031 -9.57031 46.1426 -8.98438 46.9727 -8.98438 Z"/>
  </g>
  <g id="Black-S" transform="matrix(1 0 0 1 2884.57 696)">
   <path d="M 48.8281 6.78711 C 71.9727 6.78711 90.8203 -12.0605 90.8203 -35.2051 C 90.8203 -58.3496 71.9727 -77.1973 48.8281 -77.1973 C 25.6836 -77.1973 6.83594 -58.3496 6.83594 -35.2051 C 6.83594 -12.0605 25.6836 6.78711 48.8281 6.78711 Z M 48.8281 -7.37305 C 33.4473 -7.37305 20.9961 -19.8242 20.9961 -35.2051 C 20.9961 -50.5859 33.4473 -63.0371 48.8281 -63.0371 C 64.209 -63.0371 76.6602 -50.5859 76.6602 -35.2051 C 76.6602 -19.8242 64.209 -7.37305 48.8281 -7.37305 Z M 49.1211 -45.166 C 52.5879 -45.166 55.4688 -48.0957 55.4688 -51.4648 C 55.4688 -55.0781 52.5879 -57.9102 49.1211 -57.9102 C 45.7031 -57.9102 42.7734 -55.0781 42.7734 -51.4648 C 42.7734 -48.0957 45.7031 -45.166 49.1211 -45.166 Z M 41.7969 -15.5762 L 57.0312 -15.5762 C 59.4727 -15.5762 61.377 -17.2852 61.377 -19.8242 C 61.377 -22.168 59.4727 -24.0234 57.0312 -24.0234 L 55.0781 -24.0234 L 55.0781 -35.6934 C 55.0781 -39.0625 53.418 -41.2109 50.2441 -41.2109 L 42.5781 -41.2109 C 40.1367 -41.2109 38.2324 -39.3555 38.2324 -37.0117 C 38.2324 -34.4727 40.1367 -32.7637 42.5781 -32.7637 L 45.5078 -32.7637 L 45.5078 -24.0234 L 41.7969 -24.0234 C 39.3555 -24.0234 37.4512 -22.168 37.4512 -19.8242 C 37.4512 -17.2852 39.3555 -15.5762 41.7969 -15.5762 Z"/>
  </g>
  <g id="Heavy-S" transform="matrix(1 0 0 1 2588.47 696)">
   <path d="M 48.2422 6.15234 C 70.9961 6.15234 89.5996 -12.4512 89.5996 -35.2051 C 89.5996 -57.959 70.9961 -76.6113 48.1934 -76.6113 C 25.4395 -76.6113 6.83594 -57.959 6.83594 -35.2051 C 6.83594 -12.4512 25.4395 6.15234 48.2422 6.15234 Z M 48.2422 -6.39648 C 32.2754 -6.39648 19.4336 -19.2871 19.4336 -35.2051 C 19.4336 -51.1719 32.2754 -64.0137 48.1934 -64.0137 C 64.1602 -64.0137 77.002 -51.1719 77.0508 -35.2051 C 77.0508 -19.2871 64.1602 -6.39648 48.2422 -6.39648 Z M 48.3398 -45.8984 C 51.709 -45.8984 54.4922 -48.7305 54.4922 -52.0508 C 54.4922 -55.5176 51.709 -58.252 48.3398 -58.252 C 45.0195 -58.252 42.1875 -55.5176 42.1875 -52.0508 C 42.1875 -48.7305 45.0195 -45.8984 48.3398 -45.8984 Z M 41.3086 -15.2344 L 56.5918 -15.2344 C 58.8867 -15.2344 60.6445 -16.8457 60.6445 -19.1895 C 60.6445 -21.3867 58.8867 -23.0957 56.5918 -23.0957 L 54.1016 -23.0957 L 54.1016 -36.3281 C 54.1016 -39.4531 52.5391 -41.5039 49.6094 -41.5039 L 42.041 -41.5039 C 39.7949 -41.5039 37.9883 -39.7461 37.9883 -37.5488 C 37.9883 -35.2051 39.7949 -33.5938 42.041 -33.5938 L 45.1172 -33.5938 L 45.1172 -23.0957 L 41.3086 -23.0957 C 39.0137 -23.0957 37.207 -21.3867 37.207 -19.1895 C 37.207 -16.8457 39.0137 -15.2344 41.3086 -15.2344 Z"/>
  </g>
  <g id="Bold-S" transform="matrix(1 0 0 1 2292.44 696)">
   <path d="M 47.5586 5.46875 C 69.873 5.46875 88.2324 -12.8906 88.2324 -35.2051 C 88.2324 -57.5684 69.873 -75.9277 47.5098 -75.9277 C 25.1953 -75.9277 6.83594 -57.5684 6.83594 -35.2051 C 6.83594 -12.8906 25.1953 5.46875 47.5586 5.46875 Z M 47.5586 -5.32227 C 30.957 -5.32227 17.6758 -18.6523 17.6758 -35.2051 C 17.6758 -51.8066 30.957 -65.1367 47.5098 -65.1367 C 64.1113 -65.1367 77.4414 -51.8066 77.4414 -35.2051 C 77.4414 -18.6523 64.1113 -5.32227 47.5586 -5.32227 Z M 47.4609 -46.7773 C 50.7812 -46.7773 53.3691 -49.4629 53.3691 -52.6367 C 53.3691 -56.0059 50.7812 -58.6426 47.4609 -58.6426 C 44.2383 -58.6426 41.6016 -56.0059 41.6016 -52.6367 C 41.6016 -49.4629 44.2383 -46.7773 47.4609 -46.7773 Z M 40.7227 -14.8438 L 56.1035 -14.8438 C 58.2031 -14.8438 59.8633 -16.3086 59.8633 -18.5059 C 59.8633 -20.5078 58.2031 -22.1191 56.1035 -22.1191 L 52.9785 -22.1191 L 52.9785 -37.0605 C 52.9785 -39.9414 51.5625 -41.7969 48.877 -41.7969 L 41.5039 -41.7969 C 39.4043 -41.7969 37.7441 -40.1855 37.7441 -38.1836 C 37.7441 -36.0352 39.4043 -34.5215 41.5039 -34.5215 L 44.7266 -34.5215 L 44.7266 -22.1191 L 40.7227 -22.1191 C 38.623 -22.1191 36.9629 -20.5078 36.9629 -18.5059 C 36.9629 -16.3086 38.623 -14.8438 40.7227 -14.8438 Z"/>
  </g>
  <g id="Semibold-S" transform="matrix(1 0 0 1 1996.2 696)">
   <path d="M 47.0703 4.98047 C 69.0918 4.98047 87.3047 -13.1836 87.3047 -35.2539 C 87.3047 -57.2754 69.0918 -75.4883 47.0215 -75.4883 C 25 -75.4883 6.83594 -57.2754 6.83594 -35.2539 C 6.83594 -13.1836 25.0488 4.98047 47.0703 4.98047 Z M 47.0703 -4.58984 C 30.0781 -4.58984 16.4551 -18.2129 16.4551 -35.2539 C 16.4551 -52.2461 30.0293 -65.8691 47.0215 -65.8691 C 64.0625 -65.8691 77.6855 -52.2461 77.7344 -35.2539 C 77.7344 -18.2129 64.0625 -4.58984 47.0703 -4.58984 Z M 46.875 -47.3633 C 50.0977 -47.3633 52.6367 -49.9512 52.6367 -53.0762 C 52.6367 -56.3477 50.0977 -58.8867 46.875 -58.8867 C 43.75 -58.8867 41.1621 -56.3477 41.1621 -53.0762 C 41.1621 -49.9512 43.75 -47.3633 46.875 -47.3633 Z M 40.332 -14.5508 L 55.7617 -14.5508 C 57.7148 -14.5508 59.3262 -15.9668 59.3262 -18.0176 C 59.3262 -19.9219 57.7148 -21.3867 55.7617 -21.3867 L 52.1973 -21.3867 L 52.1973 -37.5488 C 52.1973 -40.2832 50.8789 -41.9922 48.3887 -41.9922 L 41.0645 -41.9922 C 39.1113 -41.9922 37.5488 -40.5273 37.5488 -38.623 C 37.5488 -36.5723 39.1113 -35.1562 41.0645 -35.1562 L 44.4336 -35.1562 L 44.4336 -21.3867 L 40.332 -21.3867 C 38.3789 -21.3867 36.8164 -19.9219 36.8164 -18.0176 C 36.8164 -15.9668 38.3789 -14.5508 40.332 -14.5508 Z"/>
  </g>
  <g id="Medium-S" transform="matrix(1 0 0 1 1699.83 696)">
   <path d="M 46.7285 4.63867 C 68.5547 4.63867 86.6211 -13.4277 86.6211 -35.2539 C 86.6211 -57.0312 68.5059 -75.1465 46.6797 -75.1465 C 24.8535 -75.1465 6.83594 -57.0312 6.83594 -35.2539 C 6.83594 -13.4277 24.9023 4.63867 46.7285 4.63867 Z M 46.7285 -4.00391 C 29.3945 -4.00391 15.5273 -17.9199 15.5273 -35.2539 C 15.5273 -52.5879 29.3457 -66.4551 46.6797 -66.4551 C 64.0137 -66.4551 77.8809 -52.5879 77.9297 -35.2539 C 77.9785 -17.9199 64.0625 -4.00391 46.7285 -4.00391 Z M 46.4355 -47.8027 C 49.6094 -47.8027 52.0508 -50.3418 52.0508 -53.418 C 52.0508 -56.5918 49.6094 -59.082 46.4355 -59.082 C 43.3105 -59.082 40.8203 -56.5918 40.8203 -53.418 C 40.8203 -50.3418 43.3105 -47.8027 46.4355 -47.8027 Z M 40.0391 -14.3555 L 55.5176 -14.3555 C 57.373 -14.3555 58.8867 -15.7227 58.8867 -17.627 C 58.8867 -19.4336 57.373 -20.8496 55.5176 -20.8496 L 51.6602 -20.8496 L 51.6602 -37.9395 C 51.6602 -40.4785 50.3906 -42.1387 47.998 -42.1387 L 40.7715 -42.1387 C 38.916 -42.1387 37.4023 -40.7227 37.4023 -38.916 C 37.4023 -37.0117 38.916 -35.6445 40.7715 -35.6445 L 44.2383 -35.6445 L 44.2383 -20.8496 L 40.0391 -20.8496 C 38.1348 -20.8496 36.6699 -19.4336 36.6699 -17.627 C 36.6699 -15.7227 38.1348 -14.3555 40.0391 -14.3555 Z"/>
  </g>
  <g id="Regular-S" transform="matrix(1 0 0 1 1403.58 696)">
   <path d="M 46.2402 4.15039 C 67.7734 4.15039 85.6934 -13.7207 85.6934 -35.2539 C 85.6934 -56.7871 67.7246 -74.6582 46.1914 -74.6582 C 24.707 -74.6582 6.83594 -56.7871 6.83594 -35.2539 C 6.83594 -13.7207 24.7559 4.15039 46.2402 4.15039 Z M 46.2402 -3.27148 C 28.5156 -3.27148 14.3555 -17.4805 14.3555 -35.2539 C 14.3555 -53.0273 28.4668 -67.2363 46.1914 -67.2363 C 63.9648 -67.2363 78.1738 -53.0273 78.2227 -35.2539 C 78.2715 -17.4805 64.0137 -3.27148 46.2402 -3.27148 Z M 45.8496 -48.3398 C 48.9258 -48.3398 51.3184 -50.8301 51.3184 -53.8574 C 51.3184 -56.9336 48.9258 -59.375 45.8496 -59.375 C 42.8223 -59.375 40.3809 -56.9336 40.3809 -53.8574 C 40.3809 -50.8301 42.8223 -48.3398 45.8496 -48.3398 Z M 39.6484 -14.1113 L 55.1758 -14.1113 C 56.9336 -14.1113 58.3496 -15.3809 58.3496 -17.1387 C 58.3496 -18.8477 56.9336 -20.166 55.1758 -20.166 L 50.8789 -20.166 L 50.8789 -38.4277 C 50.8789 -40.8203 49.707 -42.3828 47.5098 -42.3828 L 40.3809 -42.3828 C 38.623 -42.3828 37.2559 -41.0645 37.2559 -39.3555 C 37.2559 -37.5488 38.623 -36.2793 40.3809 -36.2793 L 43.9453 -36.2793 L 43.9453 -20.166 L 39.6484 -20.166 C 37.8906 -20.166 36.4746 -18.8477 36.4746 -17.1387 C 36.4746 -15.3809 37.8906 -14.1113 39.6484 -14.1113 Z"/>
  </g>
  <g id="Light-S" transform="matrix(1 0 0 1 1107.6 696)">
   <path d="M 45.5078 3.4668 C 66.6992 3.4668 84.2285 -14.0625 84.2285 -35.2051 C 84.2285 -56.3965 66.6504 -73.9258 45.5078 -73.9258 C 24.3164 -73.9258 6.83594 -56.3965 6.83594 -35.2051 C 6.83594 -14.0625 24.3652 3.4668 45.5078 3.4668 Z M 45.5078 -2.24609 C 27.2461 -2.24609 12.5977 -16.9434 12.5977 -35.2051 C 12.5977 -53.5156 27.1973 -68.2129 45.5078 -68.2129 C 63.7695 -68.2129 78.4668 -53.5156 78.5156 -35.2051 C 78.5156 -16.9434 63.8184 -2.24609 45.5078 -2.24609 Z M 45.2637 -49.2676 C 47.8027 -49.2676 49.8047 -51.3184 49.8047 -53.8574 C 49.8047 -56.3965 47.8027 -58.4473 45.2637 -58.4473 C 42.7246 -58.4473 40.6738 -56.3965 40.6738 -53.8574 C 40.6738 -51.3184 42.7246 -49.2676 45.2637 -49.2676 Z M 38.7207 -14.2578 L 54.3945 -14.2578 C 55.7617 -14.2578 56.8359 -15.2832 56.8359 -16.6992 C 56.8359 -18.0176 55.7617 -19.0918 54.3945 -19.0918 L 49.2188 -19.0918 L 49.2188 -39.5508 C 49.2188 -41.3574 48.291 -42.5781 46.582 -42.5781 L 39.3066 -42.5781 C 37.9395 -42.5781 36.8164 -41.5039 36.8164 -40.1855 C 36.8164 -38.8184 37.9395 -37.793 39.3066 -37.793 L 43.8965 -37.793 L 43.8965 -19.0918 L 38.7207 -19.0918 C 37.3535 -19.0918 36.2793 -18.0176 36.2793 -16.6992 C 36.2793 -15.2832 37.3535 -14.2578 38.7207 -14.2578 Z"/>
  </g>
  <g id="Thin-S" transform="matrix(1 0 0 1 811.867 696)">
   <path d="M 44.5801 2.53906 C 65.2832 2.53906 82.2754 -14.4531 82.2754 -35.2051 C 82.2754 -55.9082 65.2344 -72.9004 44.5312 -72.9004 C 23.8281 -72.9004 6.83594 -55.9082 6.83594 -35.2051 C 6.83594 -14.4531 23.877 2.53906 44.5801 2.53906 Z M 44.5801 -0.878906 C 25.5859 -0.878906 10.2539 -16.2109 10.2539 -35.2051 C 10.2539 -54.1504 25.5859 -69.4824 44.5312 -69.4824 C 63.5254 -69.4824 78.8574 -54.1504 78.8574 -35.2051 C 78.8574 -16.2109 63.5254 -0.878906 44.5801 -0.878906 Z M 44.4336 -50.4395 C 46.3379 -50.4395 47.8516 -51.9531 47.8516 -53.8086 C 47.8516 -55.7129 46.3379 -57.2754 44.4336 -57.2754 C 42.5781 -57.2754 41.0156 -55.7129 41.0156 -53.8086 C 41.0156 -51.9531 42.5781 -50.4395 44.4336 -50.4395 Z M 37.5488 -14.502 L 53.3203 -14.502 C 54.248 -14.502 54.8828 -15.1855 54.8828 -16.0645 C 54.8828 -16.8945 54.248 -17.627 53.3203 -17.627 L 47.0703 -17.627 L 47.0703 -41.0645 C 47.0703 -42.0898 46.4844 -42.8223 45.4102 -42.8223 L 37.8906 -42.8223 C 36.9629 -42.8223 36.3281 -42.1387 36.3281 -41.3086 C 36.3281 -40.4297 36.9629 -39.7461 37.8906 -39.7461 L 43.7988 -39.7461 L 43.7988 -17.627 L 37.5488 -17.627 C 36.6211 -17.627 35.9863 -16.8945 35.9863 -16.0645 C 35.9863 -15.1855 36.6211 -14.502 37.5488 -14.502 Z"/>
  </g>
  <g id="Ultralight-S" transform="matrix(1 0 0 1 515.644 696)">
   <path d="M 44.043 2.05078 C 64.502 2.05078 81.2988 -14.6973 81.2988 -35.1562 C 81.2988 -55.6152 64.502 -72.3633 44.043 -72.3633 C 23.584 -72.3633 6.83594 -55.6152 6.83594 -35.1562 C 6.83594 -14.6973 23.584 2.05078 44.043 2.05078 Z M 44.043 -0.146484 C 24.7559 -0.146484 9.08203 -15.8691 9.08203 -35.1562 C 9.08203 -54.4434 24.7559 -70.166 44.043 -70.166 C 63.3789 -70.166 79.0527 -54.4434 79.0527 -35.1562 C 79.0527 -15.8691 63.3789 -0.146484 44.043 -0.146484 Z M 44.043 -51.0742 C 45.6055 -51.0742 46.875 -52.2461 46.875 -53.8086 C 46.875 -55.3711 45.6055 -56.6406 44.043 -56.6406 C 42.4805 -56.6406 41.2109 -55.3711 41.2109 -53.8086 C 41.2109 -52.2461 42.4805 -51.0742 44.043 -51.0742 Z M 36.9629 -14.5996 L 52.7832 -14.5996 C 53.4668 -14.5996 53.9062 -15.1367 53.9062 -15.7227 C 53.9062 -16.3574 53.4668 -16.8945 52.7832 -16.8945 L 45.9473 -16.8945 L 45.9473 -41.7969 C 45.9473 -42.4316 45.5078 -42.9688 44.8242 -42.9688 L 37.1582 -42.9688 C 36.4746 -42.9688 36.0352 -42.4805 36.0352 -41.8457 C 36.0352 -41.2598 36.4746 -40.7227 37.1582 -40.7227 L 43.75 -40.7227 L 43.75 -16.8945 L 36.9629 -16.8945 C 36.2793 -16.8945 35.8398 -16.3574 35.8398 -15.7227 C 35.8398 -15.1367 36.2793 -14.5996 36.9629 -14.5996 Z"/>
  </g>
 </g>
</svg>
