<?xml version="1.0" encoding="UTF-8"?>
<!--Generator: Apple Native CoreSVG 123-->
<!DOCTYPE svg
PUBLIC "-//W3C//DTD SVG 1.1//EN"
       "http://www.w3.org/Graphics/SVG/1.1/DTD/svg11.dtd">
<svg version="1.1" xmlns="http://www.w3.org/2000/svg" xmlns:xlink="http://www.w3.org/1999/xlink" width="3300" height="2200">
 <!--glyph: "uni1002CB.medium", point size: 100.000000, font version: "Version 15.0d7e11", template writer version: "5"-->
 <g id="Notes">
  <rect height="2200" id="artboard" style="fill:white;opacity:1" width="3300" x="0" y="0"/>
  <line id="" style="fill:none;stroke:black;opacity:1;stroke-width:0.5;" x1="263" x2="3036" y1="292" y2="292"/>
  <text style="stroke:none;fill:black;font-family:-apple-system,&quot;SF Pro Display&quot;,&quot;SF Pro Text&quot;,Helvetica,sans-serif;font-weight:bold;" transform="matrix(1 0 0 1 263 322)">Weight/Scale Variations</text>
  <text style="stroke:none;fill:black;font-family:-apple-system,&quot;SF Pro Display&quot;,&quot;SF Pro Text&quot;,Helvetica,sans-serif;text-anchor:middle;" transform="matrix(1 0 0 1 559.711 322)">Ultralight</text>
  <text style="stroke:none;fill:black;font-family:-apple-system,&quot;SF Pro Display&quot;,&quot;SF Pro Text&quot;,Helvetica,sans-serif;text-anchor:middle;" transform="matrix(1 0 0 1 856.422 322)">Thin</text>
  <text style="stroke:none;fill:black;font-family:-apple-system,&quot;SF Pro Display&quot;,&quot;SF Pro Text&quot;,Helvetica,sans-serif;text-anchor:middle;" transform="matrix(1 0 0 1 1153.13 322)">Light</text>
  <text style="stroke:none;fill:black;font-family:-apple-system,&quot;SF Pro Display&quot;,&quot;SF Pro Text&quot;,Helvetica,sans-serif;text-anchor:middle;" transform="matrix(1 0 0 1 1449.84 322)">Regular</text>
  <text style="stroke:none;fill:black;font-family:-apple-system,&quot;SF Pro Display&quot;,&quot;SF Pro Text&quot;,Helvetica,sans-serif;text-anchor:middle;" transform="matrix(1 0 0 1 1746.56 322)">Medium</text>
  <text style="stroke:none;fill:black;font-family:-apple-system,&quot;SF Pro Display&quot;,&quot;SF Pro Text&quot;,Helvetica,sans-serif;text-anchor:middle;" transform="matrix(1 0 0 1 2043.27 322)">Semibold</text>
  <text style="stroke:none;fill:black;font-family:-apple-system,&quot;SF Pro Display&quot;,&quot;SF Pro Text&quot;,Helvetica,sans-serif;text-anchor:middle;" transform="matrix(1 0 0 1 2339.98 322)">Bold</text>
  <text style="stroke:none;fill:black;font-family:-apple-system,&quot;SF Pro Display&quot;,&quot;SF Pro Text&quot;,Helvetica,sans-serif;text-anchor:middle;" transform="matrix(1 0 0 1 2636.69 322)">Heavy</text>
  <text style="stroke:none;fill:black;font-family:-apple-system,&quot;SF Pro Display&quot;,&quot;SF Pro Text&quot;,Helvetica,sans-serif;text-anchor:middle;" transform="matrix(1 0 0 1 2933.4 322)">Black</text>
  <line id="" style="fill:none;stroke:black;opacity:1;stroke-width:0.5;" x1="263" x2="3036" y1="1903" y2="1903"/>
  <g id="" transform="matrix(1 0 0 1 263 1933)">
   <path d="M 9.24805 0.830078 C 13.5547 0.830078 17.1387 -2.74414 17.1387 -7.05078 C 17.1387 -11.3574 13.5449 -14.9316 9.23828 -14.9316 C 4.94141 -14.9316 1.36719 -11.3574 1.36719 -7.05078 C 1.36719 -2.74414 4.95117 0.830078 9.24805 0.830078 Z M 9.24805 -0.654297 C 5.70312 -0.654297 2.87109 -3.49609 2.87109 -7.05078 C 2.87109 -10.6055 5.69336 -13.4473 9.23828 -13.4473 C 12.793 -13.4473 15.6348 -10.6055 15.6445 -7.05078 C 15.6543 -3.49609 12.8027 -0.654297 9.24805 -0.654297 Z M 9.22852 -3.42773 C 9.69727 -3.42773 9.9707 -3.74023 9.9707 -4.25781 L 9.9707 -6.31836 L 12.1973 -6.31836 C 12.6953 -6.31836 13.0371 -6.57227 13.0371 -7.04102 C 13.0371 -7.51953 12.7148 -7.7832 12.1973 -7.7832 L 9.9707 -7.7832 L 9.9707 -10.0098 C 9.9707 -10.5273 9.69727 -10.8496 9.22852 -10.8496 C 8.75977 -10.8496 8.50586 -10.5078 8.50586 -10.0098 L 8.50586 -7.7832 L 6.29883 -7.7832 C 5.78125 -7.7832 5.44922 -7.51953 5.44922 -7.04102 C 5.44922 -6.57227 5.80078 -6.31836 6.29883 -6.31836 L 8.50586 -6.31836 L 8.50586 -4.25781 C 8.50586 -3.75977 8.75977 -3.42773 9.22852 -3.42773 Z"/>
  </g>
  <g id="" transform="matrix(1 0 0 1 281.506 1933)">
   <path d="M 11.709 2.91016 C 17.1582 2.91016 21.6699 -1.60156 21.6699 -7.05078 C 21.6699 -12.4902 17.1484 -17.0117 11.6992 -17.0117 C 6.25977 -17.0117 1.74805 -12.4902 1.74805 -7.05078 C 1.74805 -1.60156 6.26953 2.91016 11.709 2.91016 Z M 11.709 1.25 C 7.09961 1.25 3.41797 -2.44141 3.41797 -7.05078 C 3.41797 -11.6504 7.08984 -15.3516 11.6992 -15.3516 C 16.3086 -15.3516 20 -11.6504 20.0098 -7.05078 C 20.0195 -2.44141 16.3184 1.25 11.709 1.25 Z M 11.6895 -2.41211 C 12.207 -2.41211 12.5195 -2.77344 12.5195 -3.33984 L 12.5195 -6.23047 L 15.5762 -6.23047 C 16.123 -6.23047 16.5039 -6.51367 16.5039 -7.03125 C 16.5039 -7.55859 16.1426 -7.86133 15.5762 -7.86133 L 12.5195 -7.86133 L 12.5195 -10.9277 C 12.5195 -11.5039 12.207 -11.8555 11.6895 -11.8555 C 11.1719 -11.8555 10.8789 -11.4844 10.8789 -10.9277 L 10.8789 -7.86133 L 7.83203 -7.86133 C 7.26562 -7.86133 6.89453 -7.55859 6.89453 -7.03125 C 6.89453 -6.51367 7.28516 -6.23047 7.83203 -6.23047 L 10.8789 -6.23047 L 10.8789 -3.33984 C 10.8789 -2.79297 11.1719 -2.41211 11.6895 -2.41211 Z"/>
  </g>
  <g id="" transform="matrix(1 0 0 1 304.924 1933)">
   <path d="M 14.9707 5.67383 C 21.9336 5.67383 27.6953 -0.078125 27.6953 -7.04102 C 27.6953 -14.0039 21.9238 -19.7559 14.9609 -19.7559 C 8.00781 -19.7559 2.25586 -14.0039 2.25586 -7.04102 C 2.25586 -0.078125 8.01758 5.67383 14.9707 5.67383 Z M 14.9707 3.85742 C 8.93555 3.85742 4.08203 -1.00586 4.08203 -7.04102 C 4.08203 -13.0762 8.92578 -17.9395 14.9609 -17.9395 C 21.0059 -17.9395 25.8594 -13.0762 25.8691 -7.04102 C 25.8789 -1.00586 21.0156 3.85742 14.9707 3.85742 Z M 14.9512 -1.06445 C 15.5176 -1.06445 15.8691 -1.45508 15.8691 -2.06055 L 15.8691 -6.13281 L 20.1074 -6.13281 C 20.6934 -6.13281 21.1133 -6.46484 21.1133 -7.02148 C 21.1133 -7.59766 20.7227 -7.93945 20.1074 -7.93945 L 15.8691 -7.93945 L 15.8691 -12.1875 C 15.8691 -12.8027 15.5176 -13.1934 14.9512 -13.1934 C 14.3848 -13.1934 14.0625 -12.7832 14.0625 -12.1875 L 14.0625 -7.93945 L 9.83398 -7.93945 C 9.21875 -7.93945 8.80859 -7.59766 8.80859 -7.02148 C 8.80859 -6.46484 9.23828 -6.13281 9.83398 -6.13281 L 14.0625 -6.13281 L 14.0625 -2.06055 C 14.0625 -1.47461 14.3848 -1.06445 14.9512 -1.06445 Z"/>
  </g>
  <text style="stroke:none;fill:black;font-family:-apple-system,&quot;SF Pro Display&quot;,&quot;SF Pro Text&quot;,Helvetica,sans-serif;font-weight:bold;" transform="matrix(1 0 0 1 263 1953)">Design Variations</text>
  <text style="stroke:none;fill:black;font-family:-apple-system,&quot;SF Pro Display&quot;,&quot;SF Pro Text&quot;,Helvetica,sans-serif;" transform="matrix(1 0 0 1 263 1971)">Symbols are supported in up to nine weights and three scales.</text>
  <text style="stroke:none;fill:black;font-family:-apple-system,&quot;SF Pro Display&quot;,&quot;SF Pro Text&quot;,Helvetica,sans-serif;" transform="matrix(1 0 0 1 263 1989)">For optimal layout with text and other symbols, vertically align</text>
  <text style="stroke:none;fill:black;font-family:-apple-system,&quot;SF Pro Display&quot;,&quot;SF Pro Text&quot;,Helvetica,sans-serif;" transform="matrix(1 0 0 1 263 2007)">symbols with the adjacent text.</text>
  <rect height="14" id="" style="fill:#00AEEF;stroke:none;opacity:0.4;" width="3" x="776" y="1919"/>
  <g id="" transform="matrix(1 0 0 1 779 1933)">
   <path d="M 10.5273 0 L 12.373 0 L 7.17773 -14.0918 L 5.43945 -14.0918 L 0.244141 0 L 2.08984 0 L 3.50586 -4.0332 L 9.11133 -4.0332 Z M 6.2793 -11.9531 L 6.33789 -11.9531 L 8.59375 -5.52734 L 4.02344 -5.52734 Z"/>
  </g>
  <rect height="14" id="" style="fill:#00AEEF;stroke:none;opacity:0.4;" width="3" x="791.617" y="1919"/>
  <text style="stroke:none;fill:black;font-family:-apple-system,&quot;SF Pro Display&quot;,&quot;SF Pro Text&quot;,Helvetica,sans-serif;font-weight:bold;" transform="matrix(1 0 0 1 776 1953)">Margins</text>
  <text style="stroke:none;fill:black;font-family:-apple-system,&quot;SF Pro Display&quot;,&quot;SF Pro Text&quot;,Helvetica,sans-serif;" transform="matrix(1 0 0 1 776 1971)">Leading and trailing margins on the left and right side of each symbol</text>
  <text style="stroke:none;fill:black;font-family:-apple-system,&quot;SF Pro Display&quot;,&quot;SF Pro Text&quot;,Helvetica,sans-serif;" transform="matrix(1 0 0 1 776 1989)">can be adjusted by modifying the width of the blue rectangles.</text>
  <text style="stroke:none;fill:black;font-family:-apple-system,&quot;SF Pro Display&quot;,&quot;SF Pro Text&quot;,Helvetica,sans-serif;" transform="matrix(1 0 0 1 776 2007)">Modifications are automatically applied proportionally to all</text>
  <text style="stroke:none;fill:black;font-family:-apple-system,&quot;SF Pro Display&quot;,&quot;SF Pro Text&quot;,Helvetica,sans-serif;" transform="matrix(1 0 0 1 776 2025)">scales and weights.</text>
  <g id="" transform="matrix(1 0 0 1 1289 1933)">
   <path d="M 2.83203 3.11523 L 4.375 4.6582 C 5.22461 5.48828 6.19141 5.41992 7.06055 4.46289 L 17.2754 -6.66016 C 17.7051 -6.36719 18.0957 -6.37695 18.5645 -6.47461 L 19.6094 -6.68945 L 20.3027 -5.99609 L 20.2539 -5.47852 C 20.1855 -4.95117 20.3516 -4.53125 20.8496 -4.0332 L 21.6602 -3.22266 C 22.168 -2.71484 22.8223 -2.68555 23.3008 -3.16406 L 26.5527 -6.41602 C 27.0312 -6.89453 27.0117 -7.54883 26.5039 -8.05664 L 25.6836 -8.87695 C 25.1855 -9.375 24.7754 -9.55078 24.2383 -9.47266 L 23.7109 -9.41406 L 23.0566 -10.0781 L 23.3398 -11.2207 C 23.4863 -11.7871 23.3398 -12.2559 22.7148 -12.8613 L 20.3027 -15.2539 C 16.7578 -18.7793 12.2266 -18.6719 9.11133 -15.5371 C 8.69141 -15.1074 8.64258 -14.5215 8.91602 -14.0918 C 9.15039 -13.7207 9.62891 -13.4961 10.2734 -13.6621 C 11.7871 -14.043 13.3008 -13.9258 14.7852 -12.9199 L 14.1602 -11.3379 C 13.9258 -10.752 13.9453 -10.2734 14.1797 -9.83398 L 3.01758 0.439453 C 2.08008 1.30859 1.97266 2.25586 2.83203 3.11523 Z M 10.6738 -15.1465 C 13.3398 -17.1387 16.6504 -16.8262 19.0527 -14.4141 L 21.6797 -11.8066 C 21.9141 -11.5723 21.9434 -11.3867 21.8848 -11.0938 L 21.5039 -9.53125 L 23.0762 -7.95898 L 24.043 -8.04688 C 24.3262 -8.07617 24.4141 -8.05664 24.6387 -7.83203 L 25.2637 -7.20703 L 22.5098 -4.46289 L 21.8848 -5.07812 C 21.6602 -5.30273 21.6406 -5.40039 21.6699 -5.68359 L 21.7578 -6.64062 L 20.1953 -8.20312 L 18.5742 -7.89062 C 18.291 -7.83203 18.1445 -7.83203 17.9102 -8.07617 L 15.7324 -10.2539 C 15.5078 -10.4883 15.4785 -10.625 15.6055 -10.9473 L 16.5527 -13.2227 C 14.9512 -14.7559 12.8418 -15.6055 10.8008 -14.9512 C 10.7129 -14.9219 10.6445 -14.9414 10.6152 -14.9805 C 10.5859 -15.0293 10.5859 -15.0781 10.6738 -15.1465 Z M 4.10156 2.41211 C 3.61328 1.91406 3.78906 1.61133 4.12109 1.30859 L 15.0781 -8.80859 L 16.3086 -7.57812 L 6.15234 3.34961 C 5.84961 3.68164 5.46875 3.7793 5.06836 3.37891 Z"/>
  </g>
  <text style="stroke:none;fill:black;font-family:-apple-system,&quot;SF Pro Display&quot;,&quot;SF Pro Text&quot;,Helvetica,sans-serif;font-weight:bold;" transform="matrix(1 0 0 1 1289 1953)">Exporting</text>
  <text style="stroke:none;fill:black;font-family:-apple-system,&quot;SF Pro Display&quot;,&quot;SF Pro Text&quot;,Helvetica,sans-serif;" transform="matrix(1 0 0 1 1289 1971)">Symbols should be outlined when exporting to ensure the</text>
  <text style="stroke:none;fill:black;font-family:-apple-system,&quot;SF Pro Display&quot;,&quot;SF Pro Text&quot;,Helvetica,sans-serif;" transform="matrix(1 0 0 1 1289 1989)">design is preserved when submitting to Xcode.</text>
  <text id="template-version" style="stroke:none;fill:black;font-family:-apple-system,&quot;SF Pro Display&quot;,&quot;SF Pro Text&quot;,Helvetica,sans-serif;text-anchor:end;" transform="matrix(1 0 0 1 3036 1933)">Template v.1.0</text>
  <text style="stroke:none;fill:black;font-family:-apple-system,&quot;SF Pro Display&quot;,&quot;SF Pro Text&quot;,Helvetica,sans-serif;text-anchor:end;" transform="matrix(1 0 0 1 3036 1951)">Generated from flag.circle</text>
  <text style="stroke:none;fill:black;font-family:-apple-system,&quot;SF Pro Display&quot;,&quot;SF Pro Text&quot;,Helvetica,sans-serif;text-anchor:end;" transform="matrix(1 0 0 1 3036 1969)">Typeset at 100 points</text>
  <text style="stroke:none;fill:black;font-family:-apple-system,&quot;SF Pro Display&quot;,&quot;SF Pro Text&quot;,Helvetica,sans-serif;" transform="matrix(1 0 0 1 263 726)">Small</text>
  <text style="stroke:none;fill:black;font-family:-apple-system,&quot;SF Pro Display&quot;,&quot;SF Pro Text&quot;,Helvetica,sans-serif;" transform="matrix(1 0 0 1 263 1156)">Medium</text>
  <text style="stroke:none;fill:black;font-family:-apple-system,&quot;SF Pro Display&quot;,&quot;SF Pro Text&quot;,Helvetica,sans-serif;" transform="matrix(1 0 0 1 263 1586)">Large</text>
 </g>
 <g id="Guides">
  <g id="H-reference" style="fill:#27AAE1;stroke:none;" transform="matrix(1 0 0 1 339 696)">
   <path d="M 54.9316 0 L 57.666 0 L 30.5664 -70.459 L 28.0762 -70.459 L 0.976562 0 L 3.66211 0 L 12.9395 -24.4629 L 45.7031 -24.4629 Z M 29.1992 -67.0898 L 29.4434 -67.0898 L 44.8242 -26.709 L 13.8184 -26.709 Z"/>
  </g>
  <line id="Baseline-S" style="fill:none;stroke:#27AAE1;opacity:1;stroke-width:0.577;" x1="263" x2="3036" y1="696" y2="696"/>
  <line id="Capline-S" style="fill:none;stroke:#27AAE1;opacity:1;stroke-width:0.577;" x1="263" x2="3036" y1="625.541" y2="625.541"/>
  <g id="H-reference" style="fill:#27AAE1;stroke:none;" transform="matrix(1 0 0 1 339 1126)">
   <path d="M 54.9316 0 L 57.666 0 L 30.5664 -70.459 L 28.0762 -70.459 L 0.976562 0 L 3.66211 0 L 12.9395 -24.4629 L 45.7031 -24.4629 Z M 29.1992 -67.0898 L 29.4434 -67.0898 L 44.8242 -26.709 L 13.8184 -26.709 Z"/>
  </g>
  <line id="Baseline-M" style="fill:none;stroke:#27AAE1;opacity:1;stroke-width:0.577;" x1="263" x2="3036" y1="1126" y2="1126"/>
  <line id="Capline-M" style="fill:none;stroke:#27AAE1;opacity:1;stroke-width:0.577;" x1="263" x2="3036" y1="1055.54" y2="1055.54"/>
  <g id="H-reference" style="fill:#27AAE1;stroke:none;" transform="matrix(1 0 0 1 339 1556)">
   <path d="M 54.9316 0 L 57.666 0 L 30.5664 -70.459 L 28.0762 -70.459 L 0.976562 0 L 3.66211 0 L 12.9395 -24.4629 L 45.7031 -24.4629 Z M 29.1992 -67.0898 L 29.4434 -67.0898 L 44.8242 -26.709 L 13.8184 -26.709 Z"/>
  </g>
  <line id="Baseline-L" style="fill:none;stroke:#27AAE1;opacity:1;stroke-width:0.577;" x1="263" x2="3036" y1="1556" y2="1556"/>
  <line id="Capline-L" style="fill:none;stroke:#27AAE1;opacity:1;stroke-width:0.577;" x1="263" x2="3036" y1="1485.54" y2="1485.54"/>
  <rect height="119.336" id="left-margin" style="fill:#00AEEF;stroke:none;opacity:0.4;" width="8.74023" x="1391.3" y="1030.79"/>
  <rect height="119.336" id="right-margin" style="fill:#00AEEF;stroke:none;opacity:0.4;" width="8.74023" x="1499.65" y="1030.79"/>
 </g>
 <g id="Symbols">
  <g id="Black-L" transform="matrix(1 0 0 1 2854.05 1556)">
   <path d="M 79.3457 32.8613 C 116.748 32.8613 147.412 2.19727 147.412 -35.2051 C 147.412 -72.6074 116.748 -103.271 79.2969 -103.271 C 41.8945 -103.271 11.2793 -72.6074 11.2793 -35.2051 C 11.2793 2.19727 41.9434 32.8613 79.3457 32.8613 Z M 79.3457 12.4023 C 52.9785 12.4023 31.7383 -8.83789 31.7383 -35.2051 C 31.7383 -61.5723 52.9297 -82.8125 79.2969 -82.8125 C 105.664 -82.8125 126.953 -61.5723 126.953 -35.2051 C 127.002 -8.83789 105.713 12.4023 79.3457 12.4023 Z M 58.7402 -3.80859 C 61.3281 -3.80859 63.4277 -5.9082 63.4277 -8.49609 L 63.4277 -22.9004 C 64.209 -23.0957 65.5762 -23.3398 67.2363 -23.3398 C 76.709 -23.3398 84.4238 -18.2129 94.2871 -18.2129 C 98.291 -18.2129 101.367 -18.8965 103.809 -20.1172 C 106.152 -21.2891 107.324 -23.4375 107.324 -26.5625 L 107.324 -52.6855 C 107.324 -55.8105 105.176 -58.0078 102.197 -58.0078 C 99.9023 -58.0078 97.7051 -57.2266 94.1895 -57.2266 C 84.9609 -57.2266 76.7578 -62.3535 67.1387 -62.3535 C 63.2324 -62.3535 60.4492 -61.7188 57.7148 -60.4004 C 55.2246 -59.2773 54.1016 -57.5684 54.1016 -54.8828 L 54.1016 -8.49609 C 54.1016 -5.9082 56.25 -3.80859 58.7402 -3.80859 Z"/>
  </g>
  <g id="Heavy-L" transform="matrix(1 0 0 1 2558.39 1556)">
   <path d="M 78.2715 31.7871 C 115.088 31.7871 145.312 1.61133 145.312 -35.2051 C 145.312 -72.0215 115.039 -102.197 78.2715 -102.197 C 41.4551 -102.197 11.2793 -72.0215 11.2793 -35.2051 C 11.2793 1.61133 41.5039 31.7871 78.2715 31.7871 Z M 78.2715 14.0137 C 51.0254 14.0137 29.0527 -7.95898 29.0527 -35.2051 C 29.0527 -62.5 50.9766 -84.4727 78.2715 -84.4727 C 105.518 -84.4727 127.49 -62.5 127.539 -35.2051 C 127.539 -7.95898 105.566 14.0137 78.2715 14.0137 Z M 56.7871 -3.27148 C 59.1309 -3.27148 60.9375 -5.12695 60.9375 -7.4707 L 60.9375 -22.9492 C 61.8652 -23.1934 63.5254 -23.584 65.7227 -23.584 C 75.6348 -23.584 83.1543 -18.3594 93.3594 -18.3594 C 97.4609 -18.3594 100.342 -18.9941 102.734 -20.2148 C 105.127 -21.3867 106.299 -23.3887 106.299 -26.416 L 106.299 -53.7109 C 106.299 -56.4941 104.346 -58.4473 101.562 -58.4473 C 99.4629 -58.4473 97.1191 -57.5684 93.2129 -57.5684 C 83.5938 -57.5684 75.6348 -62.8418 65.5762 -62.8418 C 61.4746 -62.8418 58.8867 -62.1582 56.25 -60.9375 C 53.7598 -59.8145 52.5879 -58.1055 52.5879 -55.4199 L 52.5879 -7.4707 C 52.5879 -5.17578 54.4922 -3.27148 56.7871 -3.27148 Z"/>
  </g>
  <g id="Bold-L" transform="matrix(1 0 0 1 2262.88 1556)">
   <path d="M 77.0996 30.6152 C 113.232 30.6152 142.92 0.878906 142.92 -35.2051 C 142.92 -71.3379 113.184 -101.025 77.0508 -101.025 C 40.9668 -101.025 11.2793 -71.3379 11.2793 -35.2051 C 11.2793 0.878906 41.0156 30.6152 77.0996 30.6152 Z M 77.0996 15.8691 C 48.8281 15.8691 26.0742 -6.93359 26.0742 -35.2051 C 26.0742 -63.4766 48.7793 -86.2793 77.0508 -86.2793 C 105.371 -86.2793 128.125 -63.4766 128.174 -35.2051 C 128.174 -6.93359 105.371 15.8691 77.0996 15.8691 Z M 54.541 -2.68555 C 56.6406 -2.68555 58.2031 -4.29688 58.2031 -6.29883 L 58.2031 -22.998 C 59.2285 -23.3887 61.1816 -23.9258 64.0137 -23.9258 C 74.4141 -23.9258 81.7871 -18.5547 92.2852 -18.5547 C 96.5332 -18.5547 99.1699 -19.1406 101.562 -20.2637 C 104.004 -21.4844 105.176 -23.3398 105.176 -26.2207 L 105.176 -54.834 C 105.176 -57.2754 103.369 -58.9844 100.879 -58.9844 C 98.9258 -58.9844 96.4355 -57.9102 92.041 -57.9102 C 82.0312 -57.9102 74.3652 -63.3301 63.8184 -63.3301 C 59.5215 -63.3301 57.0801 -62.6953 54.5898 -61.5723 C 52.0996 -60.4492 50.9277 -58.6914 50.9277 -56.1035 L 50.9277 -6.29883 C 50.9277 -4.3457 52.5879 -2.68555 54.541 -2.68555 Z"/>
  </g>
  <g id="Semibold-L" transform="matrix(1 0 0 1 1966.97 1556)">
   <path d="M 76.2695 29.7852 C 111.914 29.7852 141.309 0.439453 141.309 -35.2051 C 141.309 -70.8496 111.865 -100.244 76.2695 -100.244 C 40.625 -100.244 11.2793 -70.8496 11.2793 -35.2051 C 11.2793 0.439453 40.6738 29.7852 76.2695 29.7852 Z M 76.2695 17.0898 C 47.3145 17.0898 24.0234 -6.25 24.0234 -35.2051 C 24.0234 -64.209 47.2656 -87.5 76.2695 -87.5 C 105.225 -87.5 128.564 -64.209 128.613 -35.2051 C 128.662 -6.25 105.273 17.0898 76.2695 17.0898 Z M 53.0273 -2.24609 C 54.9316 -2.24609 56.2988 -3.71094 56.2988 -5.51758 L 56.2988 -23.0469 C 57.4219 -23.4863 59.5703 -24.1211 62.8906 -24.1211 C 73.584 -24.1211 80.8105 -18.6523 91.5039 -18.6523 C 95.8984 -18.6523 98.3398 -19.1895 100.732 -20.3613 C 103.223 -21.5332 104.395 -23.3398 104.395 -26.0742 L 104.395 -55.6152 C 104.395 -57.8125 102.734 -59.3262 100.391 -59.3262 C 98.584 -59.3262 95.9473 -58.1543 91.2598 -58.1543 C 80.957 -58.1543 73.4863 -63.6719 62.6465 -63.6719 C 58.1543 -63.6719 55.8594 -63.0371 53.4668 -61.9629 C 50.9766 -60.8398 49.7559 -59.082 49.7559 -56.543 L 49.7559 -5.51758 C 49.7559 -3.75977 51.2695 -2.24609 53.0273 -2.24609 Z"/>
  </g>
  <g id="Medium-L" transform="matrix(1 0 0 1 1670.87 1556)">
   <path d="M 75.6836 29.1992 C 110.938 29.1992 140.088 0.0488281 140.088 -35.2051 C 140.088 -70.459 110.889 -99.6094 75.6348 -99.6094 C 40.3809 -99.6094 11.2793 -70.459 11.2793 -35.2051 C 11.2793 0.0488281 40.3809 29.1992 75.6836 29.1992 Z M 75.6836 18.0664 C 46.1426 18.0664 22.4609 -5.71289 22.4609 -35.2051 C 22.4609 -64.6973 46.1426 -88.4766 75.6348 -88.4766 C 105.127 -88.4766 128.906 -64.6973 128.906 -35.2051 C 128.955 -5.71289 105.176 18.0664 75.6836 18.0664 Z M 51.9043 -1.95312 C 53.6133 -1.95312 54.8828 -3.27148 54.8828 -4.93164 L 54.8828 -23.0957 C 56.0059 -23.5352 58.3496 -24.2676 62.0117 -24.2676 C 72.9492 -24.2676 80.0781 -18.75 90.9668 -18.75 C 95.459 -18.75 97.7539 -19.2383 100.098 -20.4102 C 102.637 -21.582 103.76 -23.291 103.76 -25.9766 L 103.76 -56.25 C 103.76 -58.252 102.246 -59.6191 100.049 -59.6191 C 98.3398 -59.6191 95.6055 -58.3496 90.6738 -58.3496 C 80.127 -58.3496 72.8516 -63.916 61.7188 -63.916 C 57.0801 -63.916 54.9316 -63.3301 52.5879 -62.2559 C 50.0977 -61.1816 48.877 -59.375 48.877 -56.8848 L 48.877 -4.93164 C 48.877 -3.32031 50.2441 -1.95312 51.9043 -1.95312 Z"/>
  </g>
  <g id="Regular-L" transform="matrix(1 0 0 1 1374.97 1556)">
   <path d="M 74.8535 28.3691 C 109.668 28.3691 138.477 -0.390625 138.477 -35.2051 C 138.477 -70.0195 109.619 -98.7793 74.8047 -98.7793 C 40.0391 -98.7793 11.2793 -70.0195 11.2793 -35.2051 C 11.2793 -0.390625 40.0879 28.3691 74.8535 28.3691 Z M 74.8535 19.2871 C 44.6777 19.2871 20.4102 -5.0293 20.4102 -35.2051 C 20.4102 -65.3809 44.6289 -89.6973 74.8047 -89.6973 C 105.029 -89.6973 129.297 -65.3809 129.346 -35.2051 C 129.395 -5.0293 105.078 19.2871 74.8535 19.2871 Z M 50.3906 -1.5625 C 51.9531 -1.5625 52.9785 -2.73438 52.9785 -4.15039 L 52.9785 -23.1445 C 54.248 -23.6328 56.7871 -24.4629 60.8398 -24.4629 C 72.168 -24.4629 79.1504 -18.8477 90.2344 -18.8477 C 94.8242 -18.8477 96.9238 -19.3359 99.3164 -20.459 C 101.855 -21.6309 103.027 -23.291 103.027 -25.8301 L 103.027 -57.0312 C 103.027 -58.7891 101.611 -59.9609 99.5605 -59.9609 C 97.998 -59.9609 95.166 -58.5938 89.8926 -58.5938 C 79.0527 -58.5938 71.9727 -64.2578 60.5469 -64.2578 C 55.7617 -64.2578 53.7109 -63.6719 51.4648 -62.6953 C 48.9746 -61.6211 47.7539 -59.7656 47.7539 -57.3242 L 47.7539 -4.15039 C 47.7539 -2.7832 48.9746 -1.5625 50.3906 -1.5625 Z"/>
  </g>
  <g id="Light-L" transform="matrix(1 0 0 1 1079.18 1556)">
   <path d="M 73.9258 27.4902 C 108.301 27.4902 136.621 -0.830078 136.621 -35.1562 C 136.621 -69.5312 108.252 -97.8516 73.9258 -97.8516 C 39.5508 -97.8516 11.2793 -69.5312 11.2793 -35.1562 C 11.2793 -0.830078 39.5996 27.4902 73.9258 27.4902 Z M 73.9258 20.6055 C 43.1152 20.6055 18.2129 -4.3457 18.2129 -35.1562 C 18.2129 -66.0156 43.0664 -90.918 73.9258 -90.918 C 104.736 -90.918 129.688 -66.0156 129.736 -35.1562 C 129.736 -4.3457 104.785 20.6055 73.9258 20.6055 Z M 49.3652 -1.75781 C 50.7324 -1.75781 51.6113 -2.7832 51.6113 -3.90625 L 51.6113 -23.5352 C 52.9297 -24.0723 55.5664 -24.9023 59.9121 -24.9023 C 71.2891 -24.9023 78.2227 -19.1895 89.5508 -19.1895 C 93.8965 -19.1895 96.1914 -19.6777 98.584 -20.8008 C 100.928 -21.9727 102.002 -23.3887 102.002 -25.5371 L 102.002 -56.8848 C 102.002 -58.4961 100.879 -59.5215 99.1211 -59.5215 C 97.5586 -59.5215 94.5801 -58.1055 89.209 -58.1055 C 78.125 -58.1055 71.1426 -63.8672 59.5703 -63.8672 C 54.9316 -63.8672 52.7344 -63.2324 50.6348 -62.3047 C 48.291 -61.2793 47.1191 -59.668 47.1191 -57.5684 L 47.1191 -3.90625 C 47.1191 -2.7832 48.0469 -1.75781 49.3652 -1.75781 Z"/>
  </g>
  <g id="Thin-L" transform="matrix(1 0 0 1 783.693 1556)">
   <path d="M 72.7051 26.3184 C 106.494 26.3184 134.18 -1.36719 134.18 -35.1074 C 134.18 -68.8965 106.494 -96.582 72.7051 -96.582 C 38.9648 -96.582 11.2793 -68.8965 11.2793 -35.1074 C 11.2793 -1.36719 38.9648 26.3184 72.7051 26.3184 Z M 72.7051 22.3145 C 41.0156 22.3145 15.2832 -3.41797 15.2832 -35.1074 C 15.2832 -66.8457 41.0156 -92.5781 72.7051 -92.5781 C 104.395 -92.5781 130.176 -66.8457 130.176 -35.1074 C 130.176 -3.41797 104.443 22.3145 72.7051 22.3145 Z M 47.998 -2.05078 C 49.1211 -2.05078 49.707 -2.83203 49.707 -3.66211 L 49.707 -24.0234 C 51.2207 -24.6094 54.0039 -25.5371 58.6426 -25.5371 C 70.1172 -25.5371 77.002 -19.6777 88.623 -19.6777 C 92.6758 -19.6777 95.166 -20.1172 97.6074 -21.2891 C 99.7559 -22.3633 100.732 -23.4863 100.732 -25.1465 L 100.732 -56.6895 C 100.732 -58.1055 99.9023 -58.9844 98.4863 -58.9844 C 96.9238 -58.9844 93.8477 -57.4707 88.3301 -57.4707 C 76.9043 -57.4707 70.0195 -63.3301 58.3496 -63.3301 C 53.8574 -63.3301 51.5137 -62.6953 49.4629 -61.7676 C 47.3145 -60.8887 46.2402 -59.5215 46.2402 -57.8613 L 46.2402 -3.66211 C 46.2402 -2.83203 46.875 -2.05078 47.998 -2.05078 Z"/>
  </g>
  <g id="Ultralight-L" transform="matrix(1 0 0 1 487.616 1556)">
   <path d="M 72.1191 25.7324 C 105.566 25.7324 132.91 -1.61133 132.91 -35.1074 C 132.91 -68.5547 105.566 -95.8984 72.1191 -95.8984 C 38.623 -95.8984 11.2793 -68.5547 11.2793 -35.1074 C 11.2793 -1.61133 38.623 25.7324 72.1191 25.7324 Z M 72.1191 23.2422 C 39.9414 23.2422 13.7695 -2.97852 13.7695 -35.1074 C 13.7695 -67.2363 39.9414 -93.4082 72.1191 -93.4082 C 104.248 -93.4082 130.42 -67.2363 130.42 -35.1074 C 130.42 -2.97852 104.248 23.2422 72.1191 23.2422 Z M 47.3145 -2.19727 C 48.291 -2.19727 48.7793 -2.88086 48.7793 -3.51562 L 48.7793 -24.3164 C 50.3418 -24.8535 53.1738 -25.8301 58.0078 -25.8301 C 69.5312 -25.8301 76.3672 -19.9707 88.1836 -19.9707 C 92.041 -19.9707 94.6777 -20.3613 97.0703 -21.582 C 99.1211 -22.6074 100.049 -23.5352 100.049 -24.9512 L 100.049 -56.6406 C 100.049 -57.959 99.4141 -58.6914 98.1445 -58.6914 C 96.6309 -58.6914 93.457 -57.1289 87.8418 -57.1289 C 76.2695 -57.1289 69.4824 -63.0371 57.7148 -63.0371 C 53.3203 -63.0371 50.8789 -62.4023 48.877 -61.5234 C 46.8262 -60.6445 45.8008 -59.4238 45.8008 -58.0078 L 45.8008 -3.51562 C 45.8008 -2.88086 46.2891 -2.19727 47.3145 -2.19727 Z"/>
  </g>
  <g id="Black-M" transform="matrix(1 0 0 1 2870.97 1126)">
   <path d="M 62.4023 18.457 C 91.9922 18.457 116.113 -5.61523 116.113 -35.2051 C 116.113 -64.7949 91.9922 -88.8672 62.4023 -88.8672 C 32.8125 -88.8672 8.74023 -64.7949 8.74023 -35.2051 C 8.74023 -5.61523 32.8125 18.457 62.4023 18.457 Z M 62.4023 0.195312 C 42.8711 0.195312 27.002 -15.625 27.002 -35.2051 C 27.002 -54.7363 42.8711 -70.6055 62.4023 -70.6055 C 81.9824 -70.6055 97.8027 -54.7363 97.8027 -35.2051 C 97.8027 -15.625 81.9824 0.195312 62.4023 0.195312 Z M 47.6074 -11.7188 C 49.9023 -11.7188 51.709 -13.5254 51.709 -15.8203 L 51.709 -25.7812 C 52.2461 -25.8301 52.9785 -25.8789 53.6133 -25.8789 C 60.4492 -25.8789 66.6016 -22.0703 74.0234 -22.0703 C 76.8066 -22.0703 79.541 -22.6074 81.4941 -23.6328 C 83.1543 -24.4629 84.0332 -26.1719 84.0332 -28.6133 L 84.0332 -47.3145 C 84.0332 -50.0488 82.2754 -52.002 79.7852 -52.002 C 77.7832 -52.002 76.2207 -51.6113 74.0234 -51.6113 C 67.2363 -51.6113 60.5469 -55.4688 53.6133 -55.4688 C 50.9766 -55.4688 48.5352 -54.8828 46.2402 -53.8086 C 44.3848 -52.9297 43.6035 -51.7578 43.6035 -49.8047 L 43.6035 -15.8203 C 43.6035 -13.5254 45.4102 -11.7188 47.6074 -11.7188 Z"/>
  </g>
  <g id="Heavy-M" transform="matrix(1 0 0 1 2575.19 1126)">
   <path d="M 61.5234 17.5781 C 90.5273 17.5781 114.258 -6.15234 114.258 -35.2051 C 114.258 -64.2578 90.5273 -87.9883 61.4746 -87.9883 C 32.4707 -87.9883 8.74023 -64.2578 8.74023 -35.2051 C 8.74023 -6.15234 32.4707 17.5781 61.5234 17.5781 Z M 61.5234 1.66016 C 41.1133 1.66016 24.6582 -14.8438 24.6582 -35.2051 C 24.6582 -55.5664 41.1133 -72.0703 61.4746 -72.0703 C 81.8848 -72.0703 98.3398 -55.5664 98.3398 -35.2051 C 98.3398 -14.8438 81.8848 1.66016 61.5234 1.66016 Z M 45.752 -11.084 C 47.7539 -11.084 49.3652 -12.6953 49.3652 -14.6973 L 49.3652 -25.7812 C 50 -25.8789 51.0254 -26.0742 52.1973 -26.0742 C 59.4727 -26.0742 65.4785 -22.1191 73.1445 -22.1191 C 76.123 -22.1191 78.6133 -22.6562 80.5176 -23.584 C 82.2754 -24.5117 83.1543 -26.123 83.1543 -28.4668 L 83.1543 -48.4375 C 83.1543 -50.9277 81.543 -52.6367 79.248 -52.6367 C 77.3926 -52.6367 75.7324 -52.0508 73.0957 -52.0508 C 65.9668 -52.0508 59.5215 -56.0547 52.1484 -56.0547 C 49.2676 -56.0547 47.0215 -55.5176 44.873 -54.4922 C 42.9688 -53.6133 42.1387 -52.3926 42.1387 -50.3418 L 42.1387 -14.6973 C 42.1387 -12.6953 43.75 -11.084 45.752 -11.084 Z"/>
  </g>
  <g id="Bold-M" transform="matrix(1 0 0 1 2279.5 1126)">
   <path d="M 60.498 16.5039 C 88.8672 16.5039 112.207 -6.78711 112.207 -35.2051 C 112.207 -63.623 88.8672 -86.9629 60.4492 -86.9629 C 32.0312 -86.9629 8.74023 -63.623 8.74023 -35.2051 C 8.74023 -6.78711 32.0801 16.5039 60.498 16.5039 Z M 60.498 3.22266 C 39.1602 3.22266 22.0703 -13.916 22.0703 -35.2051 C 22.0703 -56.4941 39.1602 -73.6816 60.4492 -73.6816 C 81.7383 -73.6816 98.9258 -56.4941 98.9258 -35.2051 C 98.9746 -13.916 81.7871 3.22266 60.498 3.22266 Z M 43.6523 -10.3516 C 45.4102 -10.3516 46.7773 -11.7676 46.7773 -13.5254 L 46.7773 -25.7324 C 47.5098 -25.9277 48.8281 -26.2695 50.6348 -26.2695 C 58.3984 -26.2695 64.209 -22.168 72.168 -22.168 C 75.3906 -22.168 77.5391 -22.6562 79.4434 -23.584 C 81.2988 -24.5117 82.2266 -26.0254 82.2266 -28.3691 L 82.2266 -49.7559 C 82.2266 -51.8555 80.7129 -53.3203 78.6133 -53.3203 C 77.002 -53.3203 75.1465 -52.5879 72.0215 -52.5879 C 64.502 -52.5879 58.3984 -56.6895 50.5371 -56.6895 C 47.3145 -56.6895 45.3125 -56.2012 43.3105 -55.2734 C 41.4062 -54.3945 40.4785 -53.0273 40.4785 -50.9766 L 40.4785 -13.5254 C 40.4785 -11.7676 41.9434 -10.3516 43.6523 -10.3516 Z"/>
  </g>
  <g id="Semibold-M" transform="matrix(1 0 0 1 1983.5 1126)">
   <path d="M 59.7656 15.8203 C 87.7441 15.8203 110.791 -7.22656 110.791 -35.2051 C 110.791 -63.1836 87.6953 -86.2793 59.7656 -86.2793 C 31.7871 -86.2793 8.74023 -63.1836 8.74023 -35.2051 C 8.74023 -7.22656 31.7871 15.8203 59.7656 15.8203 Z M 59.7656 4.3457 C 37.8418 4.3457 20.2637 -13.2812 20.2637 -35.2051 C 20.2637 -57.1289 37.793 -74.8047 59.7656 -74.8047 C 81.6895 -74.8047 99.3164 -57.1289 99.3652 -35.2051 C 99.3652 -13.2812 81.6895 4.3457 59.7656 4.3457 Z M 42.1875 -9.86328 C 43.7988 -9.86328 44.9707 -11.1328 44.9707 -12.6953 L 44.9707 -25.6836 C 45.8008 -25.9766 47.3145 -26.416 49.5605 -26.416 C 57.666 -26.416 63.3789 -22.2168 71.4844 -22.2168 C 74.9023 -22.2168 76.8066 -22.7051 78.7109 -23.584 C 80.6152 -24.5117 81.543 -25.9766 81.543 -28.2715 L 81.543 -50.6348 C 81.543 -52.4902 80.127 -53.8086 78.1738 -53.8086 C 76.709 -53.8086 74.7559 -52.9785 71.3379 -52.9785 C 63.5254 -52.9785 57.6172 -57.1777 49.4141 -57.1777 C 45.9961 -57.1777 44.1895 -56.6895 42.2363 -55.8105 C 40.2832 -54.9316 39.3555 -53.5156 39.3555 -51.416 L 39.3555 -12.6953 C 39.3555 -11.1328 40.6738 -9.86328 42.1875 -9.86328 Z"/>
  </g>
  <g id="Medium-M" transform="matrix(1 0 0 1 1687.3 1126)">
   <path d="M 59.2285 15.2832 C 86.9141 15.2832 109.766 -7.56836 109.766 -35.2051 C 109.766 -62.8906 86.8652 -85.7422 59.1797 -85.7422 C 31.543 -85.7422 8.74023 -62.8906 8.74023 -35.2051 C 8.74023 -7.56836 31.5918 15.2832 59.2285 15.2832 Z M 59.2285 5.17578 C 36.8164 5.17578 18.8965 -12.8418 18.8965 -35.2051 C 18.8965 -57.6172 36.8164 -75.6348 59.1797 -75.6348 C 81.5918 -75.6348 99.6094 -57.6172 99.6582 -35.2051 C 99.707 -12.8418 81.6406 5.17578 59.2285 5.17578 Z M 41.0645 -9.47266 C 42.5293 -9.47266 43.6523 -10.6445 43.6523 -12.0605 L 43.6523 -25.6836 C 44.4824 -25.9766 46.1914 -26.5137 48.7793 -26.5137 C 57.1289 -26.5137 62.6953 -22.2656 70.9961 -22.2656 C 74.5117 -22.2656 76.2695 -22.7051 78.125 -23.584 C 80.127 -24.5117 81.0547 -25.9766 81.0547 -28.2227 L 81.0547 -51.3184 C 81.0547 -52.9785 79.6875 -54.1504 77.8809 -54.1504 C 76.5137 -54.1504 74.4629 -53.2227 70.752 -53.2227 C 62.793 -53.2227 57.0312 -57.5195 48.5352 -57.5195 C 44.9707 -57.5195 43.3105 -57.0312 41.4551 -56.2012 C 39.4531 -55.3223 38.4766 -53.8574 38.4766 -51.7578 L 38.4766 -12.0605 C 38.4766 -10.6934 39.6973 -9.47266 41.0645 -9.47266 Z"/>
  </g>
  <g id="Regular-M" transform="matrix(1 0 0 1 1391.3 1126)">
   <path d="M 58.5449 14.5508 C 85.791 14.5508 108.35 -8.00781 108.35 -35.2539 C 108.35 -62.4512 85.7422 -85.0586 58.4961 -85.0586 C 31.2988 -85.0586 8.74023 -62.4512 8.74023 -35.2539 C 8.74023 -8.00781 31.3477 14.5508 58.5449 14.5508 Z M 58.5449 6.25 C 35.498 6.25 17.0898 -12.207 17.0898 -35.2539 C 17.0898 -58.252 35.4492 -76.7578 58.4961 -76.7578 C 81.543 -76.7578 100 -58.252 100.049 -35.2539 C 100.098 -12.207 81.5918 6.25 58.5449 6.25 Z M 39.6484 -8.98438 C 40.918 -8.98438 41.8457 -10.0098 41.8457 -11.2305 L 41.8457 -25.6348 C 42.7734 -26.0254 44.6777 -26.6113 47.7051 -26.6113 C 56.3965 -26.6113 61.8652 -22.3145 70.3125 -22.3145 C 74.0234 -22.3145 75.5371 -22.7051 77.3926 -23.584 C 79.4434 -24.5117 80.3711 -25.9277 80.3711 -28.125 L 80.3711 -52.1973 C 80.3711 -53.6133 79.1504 -54.6387 77.4414 -54.6387 C 76.2207 -54.6387 74.0723 -53.6133 70.0684 -53.6133 C 61.7676 -53.6133 56.25 -57.959 47.4609 -57.959 C 43.6523 -57.959 42.1387 -57.5195 40.3809 -56.7383 C 38.3789 -55.8594 37.3535 -54.2969 37.3535 -52.1973 L 37.3535 -11.2305 C 37.3535 -10.0586 38.4277 -8.98438 39.6484 -8.98438 Z"/>
  </g>
  <g id="Light-M" transform="matrix(1 0 0 1 1095.42 1126)">
   <path d="M 57.7148 13.7695 C 84.5215 13.7695 106.689 -8.39844 106.689 -35.2051 C 106.689 -62.0117 84.5215 -84.1797 57.666 -84.1797 C 30.8594 -84.1797 8.74023 -62.0117 8.74023 -35.2051 C 8.74023 -8.39844 30.9082 13.7695 57.7148 13.7695 Z M 57.7148 7.4707 C 34.082 7.4707 15.0879 -11.5723 15.0879 -35.2051 C 15.0879 -58.8379 34.082 -77.832 57.666 -77.832 C 81.2988 -77.832 100.342 -58.8379 100.391 -35.2051 C 100.391 -11.5723 81.3477 7.4707 57.7148 7.4707 Z M 38.7207 -9.17969 C 39.8438 -9.17969 40.625 -10.0586 40.625 -11.0352 L 40.625 -25.9766 C 41.6016 -26.3672 43.6035 -27.0508 46.8262 -27.0508 C 55.6152 -27.0508 61.0352 -22.6562 69.6777 -22.6562 C 73.1934 -22.6562 74.9023 -23.0469 76.709 -23.877 C 78.6133 -24.8047 79.4922 -25.9766 79.4922 -27.8809 L 79.4922 -52.0508 C 79.4922 -53.3691 78.5156 -54.248 77.002 -54.248 C 75.7812 -54.248 73.5352 -53.1738 69.4336 -53.1738 C 60.9375 -53.1738 55.5176 -57.6172 46.582 -57.6172 C 42.9199 -57.6172 41.3086 -57.1289 39.5996 -56.3965 C 37.7441 -55.5664 36.8164 -54.1992 36.8164 -52.4414 L 36.8164 -11.0352 C 36.8164 -10.0586 37.6465 -9.17969 38.7207 -9.17969 Z"/>
  </g>
  <g id="Thin-M" transform="matrix(1 0 0 1 799.806 1126)">
   <path d="M 56.6406 12.7441 C 82.9102 12.7441 104.492 -8.83789 104.492 -35.1562 C 104.492 -61.4746 82.9102 -83.0566 56.5918 -83.0566 C 30.3223 -83.0566 8.74023 -61.4746 8.74023 -35.1562 C 8.74023 -8.83789 30.3223 12.7441 56.6406 12.7441 Z M 56.6406 8.98438 C 32.2266 8.98438 12.4512 -10.791 12.4512 -35.1562 C 12.4512 -59.5215 32.2266 -79.2969 56.5918 -79.2969 C 81.0059 -79.2969 100.781 -59.5215 100.781 -35.1562 C 100.781 -10.791 81.0059 8.98438 56.6406 8.98438 Z M 37.5 -9.47266 C 38.3789 -9.47266 38.9648 -10.1074 38.9648 -10.8398 L 38.9648 -26.4648 C 40.0391 -26.8555 42.1875 -27.5879 45.7031 -27.5879 C 54.5898 -27.5879 59.9121 -23.0957 68.8965 -23.0957 C 72.0703 -23.0957 73.9746 -23.4375 75.8301 -24.3164 C 77.5391 -25.1953 78.3203 -26.123 78.3203 -27.4902 L 78.3203 -51.9043 C 78.3203 -53.0762 77.6367 -53.7598 76.4648 -53.7598 C 75.2441 -53.7598 72.9004 -52.5879 68.6523 -52.5879 C 59.8633 -52.5879 54.4922 -57.1289 45.459 -57.1289 C 41.9922 -57.1289 40.1855 -56.6406 38.5742 -55.9082 C 36.8652 -55.1758 36.0352 -54.1016 36.0352 -52.6855 L 36.0352 -10.8398 C 36.0352 -10.1074 36.5723 -9.47266 37.5 -9.47266 Z"/>
  </g>
  <g id="Ultralight-M" transform="matrix(1 0 0 1 503.656 1126)">
   <path d="M 56.0547 12.207 C 82.0801 12.207 103.369 -9.08203 103.369 -35.1562 C 103.369 -61.1816 82.0801 -82.4707 56.0547 -82.4707 C 30.0293 -82.4707 8.74023 -61.1816 8.74023 -35.1562 C 8.74023 -9.08203 30.0293 12.207 56.0547 12.207 Z M 56.0547 9.81445 C 31.2988 9.81445 11.1328 -10.3516 11.1328 -35.1562 C 11.1328 -59.9121 31.2988 -80.0781 56.0547 -80.0781 C 80.8594 -80.0781 100.977 -59.9121 100.977 -35.1562 C 100.977 -10.3516 80.8594 9.81445 56.0547 9.81445 Z M 36.8652 -9.57031 C 37.6465 -9.57031 38.0859 -10.1562 38.0859 -10.6934 L 38.0859 -26.6602 C 39.2578 -27.0996 41.4551 -27.8809 45.166 -27.8809 C 54.0527 -27.8809 59.375 -23.291 68.457 -23.291 C 71.5332 -23.291 73.5352 -23.6328 75.3906 -24.5605 C 77.002 -25.3906 77.7344 -26.1719 77.7344 -27.3438 L 77.7344 -51.8555 C 77.7344 -52.8809 77.1973 -53.5156 76.1719 -53.5156 C 74.9512 -53.5156 72.5098 -52.2949 68.2129 -52.2949 C 59.3262 -52.2949 54.0039 -56.8848 44.9219 -56.8848 C 41.5039 -56.8848 39.5996 -56.3477 38.0371 -55.6641 C 36.4258 -54.9805 35.6445 -54.0039 35.6445 -52.832 L 35.6445 -10.6934 C 35.6445 -10.1562 36.0352 -9.57031 36.8652 -9.57031 Z"/>
  </g>
  <g id="Black-S" transform="matrix(1 0 0 1 2884.57 696)">
   <path d="M 48.8281 6.78711 C 71.9727 6.78711 90.8203 -12.0605 90.8203 -35.2051 C 90.8203 -58.3496 71.9727 -77.1973 48.8281 -77.1973 C 25.6836 -77.1973 6.83594 -58.3496 6.83594 -35.2051 C 6.83594 -12.0605 25.6836 6.78711 48.8281 6.78711 Z M 48.8281 -7.37305 C 33.4473 -7.37305 20.9961 -19.8242 20.9961 -35.2051 C 20.9961 -50.5859 33.4473 -63.0371 48.8281 -63.0371 C 64.209 -63.0371 76.6602 -50.5859 76.6602 -35.2051 C 76.6602 -19.8242 64.209 -7.37305 48.8281 -7.37305 Z M 37.1582 -16.748 C 38.916 -16.748 40.332 -18.1641 40.332 -19.9219 L 40.332 -27.832 C 40.7715 -27.8809 41.3574 -27.9297 41.8945 -27.9297 C 47.2656 -27.9297 52.0996 -24.9023 57.9102 -24.9023 C 60.1074 -24.9023 62.2559 -25.3418 63.7695 -26.123 C 65.0879 -26.8066 65.7715 -28.125 65.7715 -30.0293 L 65.7715 -44.7754 C 65.7715 -46.9238 64.4043 -48.4375 62.4512 -48.4375 C 60.8887 -48.4375 59.668 -48.0957 57.9102 -48.0957 C 52.5879 -48.0957 47.3633 -51.123 41.8945 -51.123 C 39.7949 -51.123 37.8906 -50.6836 36.1328 -49.8535 C 34.668 -49.1699 34.0332 -48.2422 34.0332 -46.6797 L 34.0332 -19.9219 C 34.0332 -18.1641 35.4492 -16.748 37.1582 -16.748 Z"/>
  </g>
  <g id="Heavy-S" transform="matrix(1 0 0 1 2588.47 696)">
   <path d="M 48.2422 6.15234 C 70.9961 6.15234 89.5996 -12.4512 89.5996 -35.2051 C 89.5996 -57.959 70.9961 -76.6113 48.1934 -76.6113 C 25.4395 -76.6113 6.83594 -57.959 6.83594 -35.2051 C 6.83594 -12.4512 25.4395 6.15234 48.2422 6.15234 Z M 48.2422 -6.39648 C 32.2754 -6.39648 19.4336 -19.2871 19.4336 -35.2051 C 19.4336 -51.1719 32.2754 -64.0137 48.1934 -64.0137 C 64.1602 -64.0137 77.002 -51.1719 77.0508 -35.2051 C 77.0508 -19.2871 64.1602 -6.39648 48.2422 -6.39648 Z M 35.8398 -16.2598 C 37.4023 -16.2598 38.6719 -17.5293 38.6719 -19.1406 L 38.6719 -27.7832 C 39.209 -27.8809 39.9902 -28.0273 40.918 -28.0273 C 46.6309 -28.0273 51.3184 -24.9023 57.3242 -24.9023 C 59.7168 -24.9023 61.6211 -25.3418 63.0859 -26.0742 C 64.502 -26.8066 65.1855 -28.0762 65.1855 -29.9805 L 65.1855 -45.6543 C 65.1855 -47.6074 63.916 -48.9746 62.0605 -48.9746 C 60.6445 -48.9746 59.3262 -48.4863 57.2754 -48.4863 C 51.709 -48.4863 46.6797 -51.6113 40.8691 -51.6113 C 38.5742 -51.6113 36.8164 -51.2207 35.1562 -50.4395 C 33.6426 -49.707 32.959 -48.7305 32.959 -47.0703 L 32.959 -19.1406 C 32.959 -17.5293 34.2773 -16.2598 35.8398 -16.2598 Z"/>
  </g>
  <g id="Bold-S" transform="matrix(1 0 0 1 2292.44 696)">
   <path d="M 47.5586 5.46875 C 69.873 5.46875 88.2324 -12.8906 88.2324 -35.2051 C 88.2324 -57.5684 69.873 -75.9277 47.5098 -75.9277 C 25.1953 -75.9277 6.83594 -57.5684 6.83594 -35.2051 C 6.83594 -12.8906 25.1953 5.46875 47.5586 5.46875 Z M 47.5586 -5.32227 C 30.957 -5.32227 17.6758 -18.6523 17.6758 -35.2051 C 17.6758 -51.8066 30.957 -65.1367 47.5098 -65.1367 C 64.1113 -65.1367 77.4414 -51.8066 77.4414 -35.2051 C 77.4414 -18.6523 64.1113 -5.32227 47.5586 -5.32227 Z M 34.3262 -15.6738 C 35.7422 -15.6738 36.8652 -16.7969 36.8652 -18.2129 L 36.8652 -27.6855 C 37.4023 -27.8809 38.4277 -28.125 39.8438 -28.125 C 45.8984 -28.125 50.4883 -24.9512 56.6406 -24.9512 C 59.2285 -24.9512 60.8887 -25.293 62.3535 -26.0254 C 63.8672 -26.7578 64.5996 -28.0273 64.5996 -29.9316 L 64.5996 -46.6797 C 64.5996 -48.3398 63.3301 -49.5117 61.6699 -49.5117 C 60.4004 -49.5117 58.9844 -48.9746 56.543 -48.9746 C 50.6836 -48.9746 45.8984 -52.1484 39.7461 -52.1484 C 37.1582 -52.1484 35.6445 -51.7578 34.082 -51.0254 C 32.5195 -50.3418 31.7871 -49.2188 31.7871 -47.5586 L 31.7871 -18.2129 C 31.7871 -16.8457 32.959 -15.6738 34.3262 -15.6738 Z"/>
  </g>
  <g id="Semibold-S" transform="matrix(1 0 0 1 1996.2 696)">
   <path d="M 47.0703 4.98047 C 69.0918 4.98047 87.3047 -13.1836 87.3047 -35.2539 C 87.3047 -57.2754 69.0918 -75.4883 47.0215 -75.4883 C 25 -75.4883 6.83594 -57.2754 6.83594 -35.2539 C 6.83594 -13.1836 25.0488 4.98047 47.0703 4.98047 Z M 47.0703 -4.58984 C 30.0781 -4.58984 16.4551 -18.2129 16.4551 -35.2539 C 16.4551 -52.2461 30.0293 -65.8691 47.0215 -65.8691 C 64.0625 -65.8691 77.6855 -52.2461 77.7344 -35.2539 C 77.7344 -18.2129 64.0625 -4.58984 47.0703 -4.58984 Z M 33.3008 -15.2832 C 34.6191 -15.2832 35.5957 -16.3086 35.5957 -17.627 L 35.5957 -27.6367 C 36.1816 -27.832 37.4023 -28.1738 39.0625 -28.1738 C 45.4102 -28.1738 49.9023 -24.9512 56.2012 -24.9512 C 58.9355 -24.9512 60.4004 -25.293 61.8164 -25.9766 C 63.4277 -26.7578 64.1602 -27.9785 64.1602 -29.8828 L 64.1602 -47.3633 C 64.1602 -48.877 62.9883 -49.9512 61.377 -49.9512 C 60.2051 -49.9512 58.6914 -49.2676 56.0547 -49.2676 C 50 -49.2676 45.3613 -52.5391 38.9648 -52.5391 C 36.2305 -52.5391 34.8145 -52.1973 33.3008 -51.4648 C 31.7383 -50.7812 30.957 -49.6094 30.957 -47.8516 L 30.957 -17.627 C 30.957 -16.3574 32.0801 -15.2832 33.3008 -15.2832 Z"/>
  </g>
  <g id="Medium-S" transform="matrix(1 0 0 1 1699.83 696)">
   <path d="M 46.7285 4.63867 C 68.5547 4.63867 86.6211 -13.4277 86.6211 -35.2539 C 86.6211 -57.0312 68.5059 -75.1465 46.6797 -75.1465 C 24.8535 -75.1465 6.83594 -57.0312 6.83594 -35.2539 C 6.83594 -13.4277 24.9023 4.63867 46.7285 4.63867 Z M 46.7285 -4.00391 C 29.3945 -4.00391 15.5273 -17.9199 15.5273 -35.2539 C 15.5273 -52.5879 29.3457 -66.4551 46.6797 -66.4551 C 64.0137 -66.4551 77.8809 -52.5879 77.9297 -35.2539 C 77.9785 -17.9199 64.0625 -4.00391 46.7285 -4.00391 Z M 32.5195 -14.9902 C 33.7402 -14.9902 34.668 -15.918 34.668 -17.1387 L 34.668 -27.5879 C 35.2539 -27.832 36.5723 -28.2227 38.5254 -28.2227 C 45.0684 -28.2227 49.4141 -24.9512 55.8105 -24.9512 C 58.6914 -24.9512 60.0098 -25.293 61.4258 -25.9766 C 63.0859 -26.709 63.8184 -27.9297 63.8184 -29.834 L 63.8184 -47.9004 C 63.8184 -49.2676 62.6953 -50.2441 61.1328 -50.2441 C 60.0586 -50.2441 58.5449 -49.5117 55.6641 -49.5117 C 49.4629 -49.5117 44.9219 -52.832 38.3301 -52.832 C 35.498 -52.832 34.2285 -52.4902 32.7637 -51.8066 C 31.1523 -51.0742 30.3711 -49.8535 30.3711 -48.0957 L 30.3711 -17.1387 C 30.3711 -15.9668 31.3965 -14.9902 32.5195 -14.9902 Z"/>
  </g>
  <g id="Regular-S" transform="matrix(1 0 0 1 1403.58 696)">
   <path d="M 46.2402 4.15039 C 67.7734 4.15039 85.6934 -13.7207 85.6934 -35.2539 C 85.6934 -56.7871 67.7246 -74.6582 46.1914 -74.6582 C 24.707 -74.6582 6.83594 -56.7871 6.83594 -35.2539 C 6.83594 -13.7207 24.7559 4.15039 46.2402 4.15039 Z M 46.2402 -3.27148 C 28.5156 -3.27148 14.3555 -17.4805 14.3555 -35.2539 C 14.3555 -53.0273 28.4668 -67.2363 46.1914 -67.2363 C 63.9648 -67.2363 78.1738 -53.0273 78.2227 -35.2539 C 78.2715 -17.4805 64.0137 -3.27148 46.2402 -3.27148 Z M 31.4941 -14.5996 C 32.6172 -14.5996 33.3984 -15.4297 33.3984 -16.5039 L 33.3984 -27.5391 C 34.0332 -27.832 35.5469 -28.2715 37.7441 -28.2715 C 44.5801 -28.2715 48.8281 -24.9512 55.3711 -24.9512 C 58.3496 -24.9512 59.5215 -25.293 60.9375 -25.9277 C 62.5977 -26.709 63.3789 -27.8809 63.3789 -29.7852 L 63.3789 -48.584 C 63.3789 -49.7559 62.3047 -50.6348 60.8887 -50.6348 C 59.9121 -50.6348 58.252 -49.8535 55.1758 -49.8535 C 48.7793 -49.8535 44.4336 -53.2227 37.5488 -53.2227 C 34.5703 -53.2227 33.3984 -52.8809 32.0312 -52.2461 C 30.3711 -51.5137 29.541 -50.2441 29.541 -48.4375 L 29.541 -16.5039 C 29.541 -15.4785 30.4688 -14.5996 31.4941 -14.5996 Z"/>
  </g>
  <g id="Light-S" transform="matrix(1 0 0 1 1107.6 696)">
   <path d="M 45.5078 3.4668 C 66.6992 3.4668 84.2285 -14.0625 84.2285 -35.2051 C 84.2285 -56.3965 66.6504 -73.9258 45.5078 -73.9258 C 24.3164 -73.9258 6.83594 -56.3965 6.83594 -35.2051 C 6.83594 -14.0625 24.3652 3.4668 45.5078 3.4668 Z M 45.5078 -2.24609 C 27.2461 -2.24609 12.5977 -16.9434 12.5977 -35.2051 C 12.5977 -53.5156 27.1973 -68.2129 45.5078 -68.2129 C 63.7695 -68.2129 78.4668 -53.5156 78.5156 -35.2051 C 78.5156 -16.9434 63.8184 -2.24609 45.5078 -2.24609 Z M 30.6641 -14.7461 C 31.6406 -14.7461 32.2754 -15.4785 32.2754 -16.3574 L 32.2754 -27.832 C 33.0078 -28.1738 34.5703 -28.6621 37.0117 -28.6621 C 43.8477 -28.6621 48.0957 -25.2441 54.834 -25.2441 C 57.6172 -25.2441 58.9355 -25.5371 60.3516 -26.2207 C 61.9141 -26.9531 62.5977 -27.9785 62.5977 -29.541 L 62.5977 -48.4863 C 62.5977 -49.5605 61.7188 -50.293 60.498 -50.293 C 59.5215 -50.293 57.8125 -49.4629 54.6387 -49.4629 C 48.0469 -49.4629 43.75 -52.8809 36.8164 -52.8809 C 33.8867 -52.8809 32.666 -52.5391 31.2988 -51.9531 C 29.7852 -51.2695 29.0527 -50.1465 29.0527 -48.6328 L 29.0527 -16.3574 C 29.0527 -15.5273 29.7852 -14.7461 30.6641 -14.7461 Z"/>
  </g>
  <g id="Thin-S" transform="matrix(1 0 0 1 811.867 696)">
   <path d="M 44.5801 2.53906 C 65.2832 2.53906 82.2754 -14.4531 82.2754 -35.2051 C 82.2754 -55.9082 65.2344 -72.9004 44.5312 -72.9004 C 23.8281 -72.9004 6.83594 -55.9082 6.83594 -35.2051 C 6.83594 -14.4531 23.877 2.53906 44.5801 2.53906 Z M 44.5801 -0.878906 C 25.5859 -0.878906 10.2539 -16.2109 10.2539 -35.2051 C 10.2539 -54.1504 25.5859 -69.4824 44.5312 -69.4824 C 63.5254 -69.4824 78.8574 -54.1504 78.8574 -35.2051 C 78.8574 -16.2109 63.5254 -0.878906 44.5801 -0.878906 Z M 29.5898 -14.9902 C 30.3711 -14.9902 30.8105 -15.5273 30.8105 -16.1621 L 30.8105 -28.2715 C 31.6895 -28.5645 33.3008 -29.1504 36.0352 -29.1504 C 42.9688 -29.1504 47.168 -25.6348 54.1016 -25.6348 C 56.6895 -25.6348 58.1055 -25.8789 59.5703 -26.6113 C 60.9375 -27.2949 61.5723 -28.0762 61.5723 -29.248 L 61.5723 -48.3398 C 61.5723 -49.2676 60.9863 -49.8535 60.0098 -49.8535 C 59.0332 -49.8535 57.2266 -48.9746 53.9062 -48.9746 C 47.1191 -48.9746 42.8711 -52.4902 35.8398 -52.4902 C 33.0566 -52.4902 31.6895 -52.0996 30.4199 -51.5137 C 29.0527 -50.9277 28.3691 -50.0488 28.3691 -48.877 L 28.3691 -16.1621 C 28.3691 -15.5273 28.8574 -14.9902 29.5898 -14.9902 Z"/>
  </g>
  <g id="Ultralight-S" transform="matrix(1 0 0 1 515.644 696)">
   <path d="M 44.043 2.05078 C 64.502 2.05078 81.2988 -14.6973 81.2988 -35.1562 C 81.2988 -55.6152 64.502 -72.3633 44.043 -72.3633 C 23.584 -72.3633 6.83594 -55.6152 6.83594 -35.1562 C 6.83594 -14.6973 23.584 2.05078 44.043 2.05078 Z M 44.043 -0.146484 C 24.7559 -0.146484 9.08203 -15.8691 9.08203 -35.1562 C 9.08203 -54.4434 24.7559 -70.166 44.043 -70.166 C 63.3789 -70.166 79.0527 -54.4434 79.0527 -35.1562 C 79.0527 -15.8691 63.3789 -0.146484 44.043 -0.146484 Z M 29.0527 -15.0879 C 29.6875 -15.0879 30.0781 -15.5762 30.0781 -16.0645 L 30.0781 -28.4668 C 30.957 -28.8086 32.666 -29.3945 35.498 -29.3945 C 42.4805 -29.3945 46.6309 -25.8301 53.7598 -25.8301 C 56.1523 -25.8301 57.7148 -26.0742 59.1797 -26.8066 C 60.4492 -27.4414 61.0352 -28.125 61.0352 -29.1016 L 61.0352 -48.2422 C 61.0352 -49.1211 60.5957 -49.6094 59.7168 -49.6094 C 58.7891 -49.6094 56.8848 -48.6816 53.5645 -48.6816 C 46.582 -48.6816 42.4316 -52.2461 35.3027 -52.2461 C 32.6172 -52.2461 31.1523 -51.8555 29.9316 -51.3184 C 28.6621 -50.7812 28.0273 -49.9512 28.0273 -48.9746 L 28.0273 -16.0645 C 28.0273 -15.5762 28.3691 -15.0879 29.0527 -15.0879 Z"/>
  </g>
 </g>
</svg>
