<?xml version="1.0" encoding="UTF-8"?>
<!--Generator: Apple Native CoreSVG 123-->
<!DOCTYPE svg
PUBLIC "-//W3C//DTD SVG 1.1//EN"
       "http://www.w3.org/Graphics/SVG/1.1/DTD/svg11.dtd">
<svg version="1.1" xmlns="http://www.w3.org/2000/svg" xmlns:xlink="http://www.w3.org/1999/xlink" width="3300" height="2200">
 <!--glyph: "uni10022C.medium", point size: 100.000000, font version: "Version 15.0d7e11", template writer version: "5"-->
 <g id="Notes">
  <rect height="2200" id="artboard" style="fill:white;opacity:1" width="3300" x="0" y="0"/>
  <line id="" style="fill:none;stroke:black;opacity:1;stroke-width:0.5;" x1="263" x2="3036" y1="292" y2="292"/>
  <text style="stroke:none;fill:black;font-family:-apple-system,&quot;SF Pro Display&quot;,&quot;SF Pro Text&quot;,Helvetica,sans-serif;font-weight:bold;" transform="matrix(1 0 0 1 263 322)">Weight/Scale Variations</text>
  <text style="stroke:none;fill:black;font-family:-apple-system,&quot;SF Pro Display&quot;,&quot;SF Pro Text&quot;,Helvetica,sans-serif;text-anchor:middle;" transform="matrix(1 0 0 1 559.711 322)">Ultralight</text>
  <text style="stroke:none;fill:black;font-family:-apple-system,&quot;SF Pro Display&quot;,&quot;SF Pro Text&quot;,Helvetica,sans-serif;text-anchor:middle;" transform="matrix(1 0 0 1 856.422 322)">Thin</text>
  <text style="stroke:none;fill:black;font-family:-apple-system,&quot;SF Pro Display&quot;,&quot;SF Pro Text&quot;,Helvetica,sans-serif;text-anchor:middle;" transform="matrix(1 0 0 1 1153.13 322)">Light</text>
  <text style="stroke:none;fill:black;font-family:-apple-system,&quot;SF Pro Display&quot;,&quot;SF Pro Text&quot;,Helvetica,sans-serif;text-anchor:middle;" transform="matrix(1 0 0 1 1449.84 322)">Regular</text>
  <text style="stroke:none;fill:black;font-family:-apple-system,&quot;SF Pro Display&quot;,&quot;SF Pro Text&quot;,Helvetica,sans-serif;text-anchor:middle;" transform="matrix(1 0 0 1 1746.56 322)">Medium</text>
  <text style="stroke:none;fill:black;font-family:-apple-system,&quot;SF Pro Display&quot;,&quot;SF Pro Text&quot;,Helvetica,sans-serif;text-anchor:middle;" transform="matrix(1 0 0 1 2043.27 322)">Semibold</text>
  <text style="stroke:none;fill:black;font-family:-apple-system,&quot;SF Pro Display&quot;,&quot;SF Pro Text&quot;,Helvetica,sans-serif;text-anchor:middle;" transform="matrix(1 0 0 1 2339.98 322)">Bold</text>
  <text style="stroke:none;fill:black;font-family:-apple-system,&quot;SF Pro Display&quot;,&quot;SF Pro Text&quot;,Helvetica,sans-serif;text-anchor:middle;" transform="matrix(1 0 0 1 2636.69 322)">Heavy</text>
  <text style="stroke:none;fill:black;font-family:-apple-system,&quot;SF Pro Display&quot;,&quot;SF Pro Text&quot;,Helvetica,sans-serif;text-anchor:middle;" transform="matrix(1 0 0 1 2933.4 322)">Black</text>
  <line id="" style="fill:none;stroke:black;opacity:1;stroke-width:0.5;" x1="263" x2="3036" y1="1903" y2="1903"/>
  <g id="" transform="matrix(1 0 0 1 263 1933)">
   <path d="M 9.24805 0.830078 C 13.5547 0.830078 17.1387 -2.74414 17.1387 -7.05078 C 17.1387 -11.3574 13.5449 -14.9316 9.23828 -14.9316 C 4.94141 -14.9316 1.36719 -11.3574 1.36719 -7.05078 C 1.36719 -2.74414 4.95117 0.830078 9.24805 0.830078 Z M 9.24805 -0.654297 C 5.70312 -0.654297 2.87109 -3.49609 2.87109 -7.05078 C 2.87109 -10.6055 5.69336 -13.4473 9.23828 -13.4473 C 12.793 -13.4473 15.6348 -10.6055 15.6445 -7.05078 C 15.6543 -3.49609 12.8027 -0.654297 9.24805 -0.654297 Z M 9.22852 -3.42773 C 9.69727 -3.42773 9.9707 -3.74023 9.9707 -4.25781 L 9.9707 -6.31836 L 12.1973 -6.31836 C 12.6953 -6.31836 13.0371 -6.57227 13.0371 -7.04102 C 13.0371 -7.51953 12.7148 -7.7832 12.1973 -7.7832 L 9.9707 -7.7832 L 9.9707 -10.0098 C 9.9707 -10.5273 9.69727 -10.8496 9.22852 -10.8496 C 8.75977 -10.8496 8.50586 -10.5078 8.50586 -10.0098 L 8.50586 -7.7832 L 6.29883 -7.7832 C 5.78125 -7.7832 5.44922 -7.51953 5.44922 -7.04102 C 5.44922 -6.57227 5.80078 -6.31836 6.29883 -6.31836 L 8.50586 -6.31836 L 8.50586 -4.25781 C 8.50586 -3.75977 8.75977 -3.42773 9.22852 -3.42773 Z"/>
  </g>
  <g id="" transform="matrix(1 0 0 1 281.506 1933)">
   <path d="M 11.709 2.91016 C 17.1582 2.91016 21.6699 -1.60156 21.6699 -7.05078 C 21.6699 -12.4902 17.1484 -17.0117 11.6992 -17.0117 C 6.25977 -17.0117 1.74805 -12.4902 1.74805 -7.05078 C 1.74805 -1.60156 6.26953 2.91016 11.709 2.91016 Z M 11.709 1.25 C 7.09961 1.25 3.41797 -2.44141 3.41797 -7.05078 C 3.41797 -11.6504 7.08984 -15.3516 11.6992 -15.3516 C 16.3086 -15.3516 20 -11.6504 20.0098 -7.05078 C 20.0195 -2.44141 16.3184 1.25 11.709 1.25 Z M 11.6895 -2.41211 C 12.207 -2.41211 12.5195 -2.77344 12.5195 -3.33984 L 12.5195 -6.23047 L 15.5762 -6.23047 C 16.123 -6.23047 16.5039 -6.51367 16.5039 -7.03125 C 16.5039 -7.55859 16.1426 -7.86133 15.5762 -7.86133 L 12.5195 -7.86133 L 12.5195 -10.9277 C 12.5195 -11.5039 12.207 -11.8555 11.6895 -11.8555 C 11.1719 -11.8555 10.8789 -11.4844 10.8789 -10.9277 L 10.8789 -7.86133 L 7.83203 -7.86133 C 7.26562 -7.86133 6.89453 -7.55859 6.89453 -7.03125 C 6.89453 -6.51367 7.28516 -6.23047 7.83203 -6.23047 L 10.8789 -6.23047 L 10.8789 -3.33984 C 10.8789 -2.79297 11.1719 -2.41211 11.6895 -2.41211 Z"/>
  </g>
  <g id="" transform="matrix(1 0 0 1 304.924 1933)">
   <path d="M 14.9707 5.67383 C 21.9336 5.67383 27.6953 -0.078125 27.6953 -7.04102 C 27.6953 -14.0039 21.9238 -19.7559 14.9609 -19.7559 C 8.00781 -19.7559 2.25586 -14.0039 2.25586 -7.04102 C 2.25586 -0.078125 8.01758 5.67383 14.9707 5.67383 Z M 14.9707 3.85742 C 8.93555 3.85742 4.08203 -1.00586 4.08203 -7.04102 C 4.08203 -13.0762 8.92578 -17.9395 14.9609 -17.9395 C 21.0059 -17.9395 25.8594 -13.0762 25.8691 -7.04102 C 25.8789 -1.00586 21.0156 3.85742 14.9707 3.85742 Z M 14.9512 -1.06445 C 15.5176 -1.06445 15.8691 -1.45508 15.8691 -2.06055 L 15.8691 -6.13281 L 20.1074 -6.13281 C 20.6934 -6.13281 21.1133 -6.46484 21.1133 -7.02148 C 21.1133 -7.59766 20.7227 -7.93945 20.1074 -7.93945 L 15.8691 -7.93945 L 15.8691 -12.1875 C 15.8691 -12.8027 15.5176 -13.1934 14.9512 -13.1934 C 14.3848 -13.1934 14.0625 -12.7832 14.0625 -12.1875 L 14.0625 -7.93945 L 9.83398 -7.93945 C 9.21875 -7.93945 8.80859 -7.59766 8.80859 -7.02148 C 8.80859 -6.46484 9.23828 -6.13281 9.83398 -6.13281 L 14.0625 -6.13281 L 14.0625 -2.06055 C 14.0625 -1.47461 14.3848 -1.06445 14.9512 -1.06445 Z"/>
  </g>
  <text style="stroke:none;fill:black;font-family:-apple-system,&quot;SF Pro Display&quot;,&quot;SF Pro Text&quot;,Helvetica,sans-serif;font-weight:bold;" transform="matrix(1 0 0 1 263 1953)">Design Variations</text>
  <text style="stroke:none;fill:black;font-family:-apple-system,&quot;SF Pro Display&quot;,&quot;SF Pro Text&quot;,Helvetica,sans-serif;" transform="matrix(1 0 0 1 263 1971)">Symbols are supported in up to nine weights and three scales.</text>
  <text style="stroke:none;fill:black;font-family:-apple-system,&quot;SF Pro Display&quot;,&quot;SF Pro Text&quot;,Helvetica,sans-serif;" transform="matrix(1 0 0 1 263 1989)">For optimal layout with text and other symbols, vertically align</text>
  <text style="stroke:none;fill:black;font-family:-apple-system,&quot;SF Pro Display&quot;,&quot;SF Pro Text&quot;,Helvetica,sans-serif;" transform="matrix(1 0 0 1 263 2007)">symbols with the adjacent text.</text>
  <rect height="14" id="" style="fill:#00AEEF;stroke:none;opacity:0.4;" width="3" x="776" y="1919"/>
  <g id="" transform="matrix(1 0 0 1 779 1933)">
   <path d="M 10.5273 0 L 12.373 0 L 7.17773 -14.0918 L 5.43945 -14.0918 L 0.244141 0 L 2.08984 0 L 3.50586 -4.0332 L 9.11133 -4.0332 Z M 6.2793 -11.9531 L 6.33789 -11.9531 L 8.59375 -5.52734 L 4.02344 -5.52734 Z"/>
  </g>
  <rect height="14" id="" style="fill:#00AEEF;stroke:none;opacity:0.4;" width="3" x="791.617" y="1919"/>
  <text style="stroke:none;fill:black;font-family:-apple-system,&quot;SF Pro Display&quot;,&quot;SF Pro Text&quot;,Helvetica,sans-serif;font-weight:bold;" transform="matrix(1 0 0 1 776 1953)">Margins</text>
  <text style="stroke:none;fill:black;font-family:-apple-system,&quot;SF Pro Display&quot;,&quot;SF Pro Text&quot;,Helvetica,sans-serif;" transform="matrix(1 0 0 1 776 1971)">Leading and trailing margins on the left and right side of each symbol</text>
  <text style="stroke:none;fill:black;font-family:-apple-system,&quot;SF Pro Display&quot;,&quot;SF Pro Text&quot;,Helvetica,sans-serif;" transform="matrix(1 0 0 1 776 1989)">can be adjusted by modifying the width of the blue rectangles.</text>
  <text style="stroke:none;fill:black;font-family:-apple-system,&quot;SF Pro Display&quot;,&quot;SF Pro Text&quot;,Helvetica,sans-serif;" transform="matrix(1 0 0 1 776 2007)">Modifications are automatically applied proportionally to all</text>
  <text style="stroke:none;fill:black;font-family:-apple-system,&quot;SF Pro Display&quot;,&quot;SF Pro Text&quot;,Helvetica,sans-serif;" transform="matrix(1 0 0 1 776 2025)">scales and weights.</text>
  <g id="" transform="matrix(1 0 0 1 1289 1933)">
   <path d="M 2.83203 3.11523 L 4.375 4.6582 C 5.22461 5.48828 6.19141 5.41992 7.06055 4.46289 L 17.2754 -6.66016 C 17.7051 -6.36719 18.0957 -6.37695 18.5645 -6.47461 L 19.6094 -6.68945 L 20.3027 -5.99609 L 20.2539 -5.47852 C 20.1855 -4.95117 20.3516 -4.53125 20.8496 -4.0332 L 21.6602 -3.22266 C 22.168 -2.71484 22.8223 -2.68555 23.3008 -3.16406 L 26.5527 -6.41602 C 27.0312 -6.89453 27.0117 -7.54883 26.5039 -8.05664 L 25.6836 -8.87695 C 25.1855 -9.375 24.7754 -9.55078 24.2383 -9.47266 L 23.7109 -9.41406 L 23.0566 -10.0781 L 23.3398 -11.2207 C 23.4863 -11.7871 23.3398 -12.2559 22.7148 -12.8613 L 20.3027 -15.2539 C 16.7578 -18.7793 12.2266 -18.6719 9.11133 -15.5371 C 8.69141 -15.1074 8.64258 -14.5215 8.91602 -14.0918 C 9.15039 -13.7207 9.62891 -13.4961 10.2734 -13.6621 C 11.7871 -14.043 13.3008 -13.9258 14.7852 -12.9199 L 14.1602 -11.3379 C 13.9258 -10.752 13.9453 -10.2734 14.1797 -9.83398 L 3.01758 0.439453 C 2.08008 1.30859 1.97266 2.25586 2.83203 3.11523 Z M 10.6738 -15.1465 C 13.3398 -17.1387 16.6504 -16.8262 19.0527 -14.4141 L 21.6797 -11.8066 C 21.9141 -11.5723 21.9434 -11.3867 21.8848 -11.0938 L 21.5039 -9.53125 L 23.0762 -7.95898 L 24.043 -8.04688 C 24.3262 -8.07617 24.4141 -8.05664 24.6387 -7.83203 L 25.2637 -7.20703 L 22.5098 -4.46289 L 21.8848 -5.07812 C 21.6602 -5.30273 21.6406 -5.40039 21.6699 -5.68359 L 21.7578 -6.64062 L 20.1953 -8.20312 L 18.5742 -7.89062 C 18.291 -7.83203 18.1445 -7.83203 17.9102 -8.07617 L 15.7324 -10.2539 C 15.5078 -10.4883 15.4785 -10.625 15.6055 -10.9473 L 16.5527 -13.2227 C 14.9512 -14.7559 12.8418 -15.6055 10.8008 -14.9512 C 10.7129 -14.9219 10.6445 -14.9414 10.6152 -14.9805 C 10.5859 -15.0293 10.5859 -15.0781 10.6738 -15.1465 Z M 4.10156 2.41211 C 3.61328 1.91406 3.78906 1.61133 4.12109 1.30859 L 15.0781 -8.80859 L 16.3086 -7.57812 L 6.15234 3.34961 C 5.84961 3.68164 5.46875 3.7793 5.06836 3.37891 Z"/>
  </g>
  <text style="stroke:none;fill:black;font-family:-apple-system,&quot;SF Pro Display&quot;,&quot;SF Pro Text&quot;,Helvetica,sans-serif;font-weight:bold;" transform="matrix(1 0 0 1 1289 1953)">Exporting</text>
  <text style="stroke:none;fill:black;font-family:-apple-system,&quot;SF Pro Display&quot;,&quot;SF Pro Text&quot;,Helvetica,sans-serif;" transform="matrix(1 0 0 1 1289 1971)">Symbols should be outlined when exporting to ensure the</text>
  <text style="stroke:none;fill:black;font-family:-apple-system,&quot;SF Pro Display&quot;,&quot;SF Pro Text&quot;,Helvetica,sans-serif;" transform="matrix(1 0 0 1 1289 1989)">design is preserved when submitting to Xcode.</text>
  <text id="template-version" style="stroke:none;fill:black;font-family:-apple-system,&quot;SF Pro Display&quot;,&quot;SF Pro Text&quot;,Helvetica,sans-serif;text-anchor:end;" transform="matrix(1 0 0 1 3036 1933)">Template v.1.0</text>
  <text style="stroke:none;fill:black;font-family:-apple-system,&quot;SF Pro Display&quot;,&quot;SF Pro Text&quot;,Helvetica,sans-serif;text-anchor:end;" transform="matrix(1 0 0 1 3036 1951)">Generated from tray.full.fill</text>
  <text style="stroke:none;fill:black;font-family:-apple-system,&quot;SF Pro Display&quot;,&quot;SF Pro Text&quot;,Helvetica,sans-serif;text-anchor:end;" transform="matrix(1 0 0 1 3036 1969)">Typeset at 100 points</text>
  <text style="stroke:none;fill:black;font-family:-apple-system,&quot;SF Pro Display&quot;,&quot;SF Pro Text&quot;,Helvetica,sans-serif;" transform="matrix(1 0 0 1 263 726)">Small</text>
  <text style="stroke:none;fill:black;font-family:-apple-system,&quot;SF Pro Display&quot;,&quot;SF Pro Text&quot;,Helvetica,sans-serif;" transform="matrix(1 0 0 1 263 1156)">Medium</text>
  <text style="stroke:none;fill:black;font-family:-apple-system,&quot;SF Pro Display&quot;,&quot;SF Pro Text&quot;,Helvetica,sans-serif;" transform="matrix(1 0 0 1 263 1586)">Large</text>
 </g>
 <g id="Guides">
  <g id="H-reference" style="fill:#27AAE1;stroke:none;" transform="matrix(1 0 0 1 339 696)">
   <path d="M 54.9316 0 L 57.666 0 L 30.5664 -70.459 L 28.0762 -70.459 L 0.976562 0 L 3.66211 0 L 12.9395 -24.4629 L 45.7031 -24.4629 Z M 29.1992 -67.0898 L 29.4434 -67.0898 L 44.8242 -26.709 L 13.8184 -26.709 Z"/>
  </g>
  <line id="Baseline-S" style="fill:none;stroke:#27AAE1;opacity:1;stroke-width:0.577;" x1="263" x2="3036" y1="696" y2="696"/>
  <line id="Capline-S" style="fill:none;stroke:#27AAE1;opacity:1;stroke-width:0.577;" x1="263" x2="3036" y1="625.541" y2="625.541"/>
  <g id="H-reference" style="fill:#27AAE1;stroke:none;" transform="matrix(1 0 0 1 339 1126)">
   <path d="M 54.9316 0 L 57.666 0 L 30.5664 -70.459 L 28.0762 -70.459 L 0.976562 0 L 3.66211 0 L 12.9395 -24.4629 L 45.7031 -24.4629 Z M 29.1992 -67.0898 L 29.4434 -67.0898 L 44.8242 -26.709 L 13.8184 -26.709 Z"/>
  </g>
  <line id="Baseline-M" style="fill:none;stroke:#27AAE1;opacity:1;stroke-width:0.577;" x1="263" x2="3036" y1="1126" y2="1126"/>
  <line id="Capline-M" style="fill:none;stroke:#27AAE1;opacity:1;stroke-width:0.577;" x1="263" x2="3036" y1="1055.54" y2="1055.54"/>
  <g id="H-reference" style="fill:#27AAE1;stroke:none;" transform="matrix(1 0 0 1 339 1556)">
   <path d="M 54.9316 0 L 57.666 0 L 30.5664 -70.459 L 28.0762 -70.459 L 0.976562 0 L 3.66211 0 L 12.9395 -24.4629 L 45.7031 -24.4629 Z M 29.1992 -67.0898 L 29.4434 -67.0898 L 44.8242 -26.709 L 13.8184 -26.709 Z"/>
  </g>
  <line id="Baseline-L" style="fill:none;stroke:#27AAE1;opacity:1;stroke-width:0.577;" x1="263" x2="3036" y1="1556" y2="1556"/>
  <line id="Capline-L" style="fill:none;stroke:#27AAE1;opacity:1;stroke-width:0.577;" x1="263" x2="3036" y1="1485.54" y2="1485.54"/>
  <rect height="119.336" id="left-margin" style="fill:#00AEEF;stroke:none;opacity:0.4;" width="12.4512" x="1379.82" y="1030.79"/>
  <rect height="119.336" id="right-margin" style="fill:#00AEEF;stroke:none;opacity:0.4;" width="12.4512" x="1507.41" y="1030.79"/>
 </g>
 <g id="Symbols">
  <g id="Black-L" transform="matrix(1 0 0 1 2841.51 1556)">
   <path d="M 39.9902 24.0723 L 143.799 24.0723 C 159.082 24.0723 167.725 15.4297 167.725 0.244141 L 167.725 -36.6211 C 167.725 -47.6074 166.406 -52.0996 161.426 -58.3008 L 144.434 -79.7852 C 135.449 -90.9668 131.348 -94.4336 119.043 -94.4336 L 64.6973 -94.4336 C 52.3926 -94.4336 48.291 -90.9668 39.3555 -79.7852 L 22.3633 -58.3008 C 17.3828 -52.0508 16.0645 -47.6074 16.0645 -36.6211 L 16.0645 0.244141 C 16.0645 15.4297 24.7559 24.0723 39.9902 24.0723 Z M 91.8945 -21.6797 C 82.1289 -21.6797 76.416 -27.6367 76.416 -35.791 L 76.416 -37.1094 C 76.416 -40.2344 74.5117 -43.4082 70.459 -43.4082 L 39.5508 -43.4082 C 36.5234 -43.4082 36.1328 -45.8496 37.6465 -47.8516 L 59.1309 -74.9023 C 61.084 -77.4414 63.3301 -78.7109 66.5039 -78.7109 L 117.285 -78.7109 C 120.459 -78.7109 122.656 -77.4414 124.609 -74.9023 L 146.094 -47.8516 C 147.607 -45.8496 147.217 -43.4082 144.189 -43.4082 L 113.281 -43.4082 C 109.277 -43.4082 107.324 -40.2344 107.324 -37.1094 L 107.324 -35.791 C 107.324 -27.6367 101.611 -21.6797 91.8945 -21.6797 Z M 117.773 -69.1406 L 65.9668 -69.1406 C 64.0625 -69.1406 62.5977 -67.627 62.5977 -65.7715 C 62.5977 -63.8672 64.0625 -62.3047 65.9668 -62.3047 L 117.773 -62.3047 C 119.727 -62.3047 121.143 -63.8672 121.143 -65.7715 C 121.143 -67.627 119.727 -69.1406 117.773 -69.1406 Z M 125.488 -56.0059 L 58.252 -56.0059 C 56.25 -56.0059 54.7363 -54.248 54.7363 -52.3438 C 54.7363 -50.3906 56.25 -48.7793 58.252 -48.7793 L 125.488 -48.7793 C 127.49 -48.7793 129.053 -50.3906 129.053 -52.3438 C 129.053 -54.248 127.49 -56.0059 125.488 -56.0059 Z"/>
  </g>
  <g id="Heavy-L" transform="matrix(1 0 0 1 2545.23 1556)">
   <path d="M 38.8184 22.5586 L 144.092 22.5586 C 158.74 22.5586 166.846 14.4531 166.846 -0.0488281 L 166.846 -36.377 C 166.846 -45.9961 165.674 -50 161.23 -55.5176 L 142.871 -79.1504 C 134.521 -89.7461 130.518 -92.9199 118.652 -92.9199 L 64.2578 -92.9199 C 52.3926 -92.9199 48.3887 -89.7461 40.0391 -79.1504 L 21.6309 -55.5176 C 17.2852 -49.9512 16.0645 -45.9961 16.0645 -36.377 L 16.0645 -0.0488281 C 16.0645 14.502 24.2188 22.5586 38.8184 22.5586 Z M 91.4551 -20.752 C 81.7383 -20.752 75.8301 -27.1973 75.8301 -35.4004 L 75.8301 -36.4746 C 75.8301 -39.502 74.0234 -42.4316 70.2148 -42.4316 L 36.7188 -42.4316 C 34.0332 -42.4316 33.5938 -44.6777 34.9609 -46.4844 L 57.1289 -74.9023 C 59.3262 -77.7832 61.9141 -79.1504 65.4297 -79.1504 L 117.432 -79.1504 C 120.996 -79.1504 123.535 -77.7832 125.732 -74.9023 L 147.9 -46.4844 C 149.268 -44.6777 148.877 -42.4316 146.143 -42.4316 L 112.646 -42.4316 C 108.887 -42.4316 107.031 -39.502 107.031 -36.4746 L 107.031 -35.4004 C 107.031 -27.1973 101.172 -20.752 91.4551 -20.752 Z M 117.578 -69.5312 L 65.332 -69.5312 C 63.4766 -69.5312 62.1094 -68.0664 62.1094 -66.3086 C 62.1094 -64.4531 63.4766 -62.9883 65.332 -62.9883 L 117.578 -62.9883 C 119.434 -62.9883 120.801 -64.4531 120.801 -66.3086 C 120.801 -68.0664 119.434 -69.5312 117.578 -69.5312 Z M 125.586 -56.0059 L 57.3242 -56.0059 C 55.4199 -56.0059 53.9551 -54.3457 53.9551 -52.4902 C 53.9551 -50.6836 55.4199 -49.1699 57.3242 -49.1699 L 125.586 -49.1699 C 127.49 -49.1699 128.955 -50.6836 128.955 -52.4902 C 128.955 -54.3457 127.49 -56.0059 125.586 -56.0059 Z"/>
  </g>
  <g id="Bold-L" transform="matrix(1 0 0 1 2249.01 1556)">
   <path d="M 37.5 20.8984 L 144.385 20.8984 C 158.35 20.8984 165.869 13.3789 165.869 -0.390625 L 165.869 -36.1328 C 165.869 -44.1895 164.795 -47.6074 161.084 -52.3926 L 141.113 -78.4668 C 133.447 -88.3789 129.541 -91.2598 118.164 -91.2598 L 63.7207 -91.2598 C 52.3438 -91.2598 48.4863 -88.3789 40.8203 -78.4668 L 20.8496 -52.3926 C 17.1387 -47.6074 16.0645 -44.1895 16.0645 -36.1328 L 16.0645 -0.390625 C 16.0645 13.4277 23.6328 20.8984 37.5 20.8984 Z M 90.9668 -19.7266 C 81.2988 -19.7266 75.1953 -26.709 75.1953 -34.9609 L 75.1953 -35.791 C 75.1953 -38.623 73.4863 -41.3574 69.9219 -41.3574 L 33.5938 -41.3574 C 31.2012 -41.3574 30.8105 -43.3105 31.9824 -44.9219 L 54.9316 -74.9512 C 57.373 -78.2227 60.3027 -79.5898 64.2578 -79.5898 L 117.627 -79.5898 C 121.631 -79.5898 124.512 -78.2227 127.002 -74.9512 L 149.902 -44.9219 C 151.123 -43.3105 150.684 -41.3574 148.291 -41.3574 L 111.963 -41.3574 C 108.398 -41.3574 106.689 -38.623 106.689 -35.791 L 106.689 -34.9609 C 106.689 -26.709 100.635 -19.7266 90.9668 -19.7266 Z M 117.383 -69.9219 L 64.5508 -69.9219 C 62.8418 -69.9219 61.5234 -68.5547 61.5234 -66.8457 C 61.5234 -65.1367 62.8418 -63.7695 64.5508 -63.7695 L 117.383 -63.7695 C 119.092 -63.7695 120.41 -65.1367 120.41 -66.8457 C 120.41 -68.5547 119.092 -69.9219 117.383 -69.9219 Z M 125.684 -56.0059 L 56.25 -56.0059 C 54.4434 -56.0059 53.0762 -54.4922 53.0762 -52.7344 C 53.0762 -50.9766 54.4434 -49.5605 56.25 -49.5605 L 125.684 -49.5605 C 127.49 -49.5605 128.857 -50.9766 128.857 -52.7344 C 128.857 -54.4922 127.49 -56.0059 125.684 -56.0059 Z"/>
  </g>
  <g id="Semibold-L" transform="matrix(1 0 0 1 1952.64 1556)">
   <path d="M 36.6211 19.7754 L 144.629 19.7754 C 158.057 19.7754 165.186 12.6465 165.186 -0.634766 L 165.186 -35.9375 C 165.186 -42.9688 164.209 -45.9961 160.938 -50.1953 L 139.893 -77.9785 C 132.666 -87.4512 128.906 -90.0879 117.822 -90.0879 L 63.3789 -90.0879 C 52.3438 -90.0879 48.5352 -87.4512 41.3574 -77.9785 L 20.2637 -50.1953 C 17.041 -45.9961 16.0645 -42.9688 16.0645 -35.9375 L 16.0645 -0.634766 C 16.0645 12.6953 23.1934 19.7754 36.6211 19.7754 Z M 90.625 -18.9941 C 80.957 -18.9941 74.7559 -26.416 74.7559 -34.668 L 74.7559 -35.3027 C 74.7559 -38.0371 73.1445 -40.5762 69.7754 -40.5762 L 31.4453 -40.5762 C 29.248 -40.5762 28.8574 -42.3828 29.9316 -43.8965 L 53.3691 -74.9512 C 56.0059 -78.5156 59.1797 -79.9316 63.4766 -79.9316 L 117.773 -79.9316 C 122.021 -79.9316 125.195 -78.5156 127.832 -74.9512 L 151.27 -43.8965 C 152.393 -42.3828 151.953 -40.5762 149.805 -40.5762 L 111.475 -40.5762 C 108.105 -40.5762 106.445 -38.0371 106.445 -35.3027 L 106.445 -34.668 C 106.445 -26.416 100.293 -18.9941 90.625 -18.9941 Z M 117.236 -70.166 L 64.0625 -70.166 C 62.3535 -70.166 61.1328 -68.8965 61.1328 -67.2363 C 61.1328 -65.5762 62.3535 -64.3066 64.0625 -64.3066 L 117.236 -64.3066 C 118.896 -64.3066 120.166 -65.5762 120.166 -67.2363 C 120.166 -68.8965 118.896 -70.166 117.236 -70.166 Z M 125.732 -56.0059 L 55.5664 -56.0059 C 53.8086 -56.0059 52.4902 -54.541 52.4902 -52.8809 C 52.4902 -51.2207 53.8086 -49.8535 55.5664 -49.8535 L 125.732 -49.8535 C 127.441 -49.8535 128.76 -51.2207 128.76 -52.8809 C 128.76 -54.541 127.441 -56.0059 125.732 -56.0059 Z"/>
  </g>
  <g id="Medium-L" transform="matrix(1 0 0 1 1656.2 1556)">
   <path d="M 35.9375 18.8965 L 144.775 18.8965 C 157.861 18.8965 164.648 12.1094 164.648 -0.830078 L 164.648 -35.791 C 164.648 -42.041 163.77 -44.7754 160.889 -48.584 L 138.965 -77.6367 C 132.129 -86.7188 128.418 -89.209 117.578 -89.209 L 63.1348 -89.209 C 52.2949 -89.209 48.584 -86.7188 41.748 -77.6367 L 19.873 -48.584 C 16.9922 -44.7266 16.0645 -42.041 16.0645 -35.791 L 16.0645 -0.830078 C 16.0645 12.1582 22.9004 18.8965 35.9375 18.8965 Z M 90.3809 -18.457 C 80.7129 -18.457 74.4629 -26.123 74.4629 -34.4238 L 74.4629 -34.9121 C 74.4629 -37.5488 72.8516 -40.0391 69.6289 -40.0391 L 29.7852 -40.0391 C 27.7832 -40.0391 27.3926 -41.6992 28.3691 -43.0664 L 52.2461 -75 C 54.9805 -78.7109 58.3496 -80.1758 62.8418 -80.1758 L 117.871 -80.1758 C 122.363 -80.1758 125.732 -78.7109 128.516 -75 L 152.344 -43.0664 C 153.32 -41.6992 152.93 -40.0391 150.928 -40.0391 L 111.133 -40.0391 C 107.861 -40.0391 106.299 -37.5488 106.299 -34.9121 L 106.299 -34.4238 C 106.299 -26.123 100 -18.457 90.3809 -18.457 Z M 117.139 -70.4102 L 63.6719 -70.4102 C 62.0117 -70.4102 60.791 -69.1406 60.791 -67.5781 C 60.791 -65.918 62.0117 -64.6973 63.6719 -64.6973 L 117.139 -64.6973 C 118.701 -64.6973 119.922 -65.918 119.922 -67.5781 C 119.922 -69.1406 118.701 -70.4102 117.139 -70.4102 Z M 125.781 -56.0547 L 54.9805 -56.0547 C 53.3203 -56.0547 52.0508 -54.6387 52.0508 -52.9785 C 52.0508 -51.3672 53.3203 -50.0488 54.9805 -50.0488 L 125.781 -50.0488 C 127.441 -50.0488 128.711 -51.3672 128.711 -52.9785 C 128.711 -54.6387 127.441 -56.0547 125.781 -56.0547 Z"/>
  </g>
  <g id="Regular-L" transform="matrix(1 0 0 1 1359.81 1556)">
   <path d="M 35.0586 17.7734 L 144.971 17.7734 C 157.617 17.7734 164.014 11.377 164.014 -1.07422 L 164.014 -35.6445 C 164.014 -40.7715 163.184 -43.1641 160.742 -46.4355 L 137.793 -77.1484 C 131.396 -85.791 127.783 -88.0859 117.285 -88.0859 L 62.793 -88.0859 C 52.2949 -88.0859 48.6816 -85.791 42.2852 -77.1484 L 19.2871 -46.4355 C 16.8945 -43.1641 16.0645 -40.7715 16.0645 -35.6445 L 16.0645 -1.07422 C 16.0645 11.4258 22.4609 17.7734 35.0586 17.7734 Z M 90.0391 -17.7734 C 80.4199 -17.7734 74.0234 -25.8301 74.0234 -34.1309 L 74.0234 -34.4238 C 74.0234 -36.9629 72.5098 -39.2578 69.4336 -39.2578 L 27.6367 -39.2578 C 25.8301 -39.2578 25.4395 -40.7715 26.3184 -42.041 L 50.7324 -75 C 53.6621 -79.0039 57.2754 -80.4688 62.0605 -80.4688 L 118.018 -80.4688 C 122.803 -80.4688 126.416 -79.0039 129.346 -75 L 153.711 -42.041 C 154.59 -40.7715 154.199 -39.2578 152.393 -39.2578 L 110.645 -39.2578 C 107.568 -39.2578 106.055 -36.9629 106.055 -34.4238 L 106.055 -34.1309 C 106.055 -25.8301 99.6582 -17.7734 90.0391 -17.7734 Z M 116.992 -70.6543 L 63.1348 -70.6543 C 61.5723 -70.6543 60.4004 -69.4824 60.4004 -67.9688 C 60.4004 -66.4062 61.5723 -65.1855 63.1348 -65.1855 L 116.992 -65.1855 C 118.506 -65.1855 119.678 -66.4062 119.678 -67.9688 C 119.678 -69.4824 118.506 -70.6543 116.992 -70.6543 Z M 125.83 -56.0547 L 54.2969 -56.0547 C 52.6855 -56.0547 51.4648 -54.6875 51.4648 -53.125 C 51.4648 -51.5625 52.6855 -50.3418 54.2969 -50.3418 L 125.83 -50.3418 C 127.441 -50.3418 128.662 -51.5625 128.662 -53.125 C 128.662 -54.6875 127.441 -56.0547 125.83 -56.0547 Z"/>
  </g>
  <g id="Light-L" transform="matrix(1 0 0 1 1063.56 1556)">
   <path d="M 34.0332 16.5527 L 145.117 16.5527 C 157.031 16.5527 163.086 10.4004 163.086 -1.26953 L 163.086 -35.5469 C 163.086 -39.9414 162.402 -41.9434 160.303 -44.7754 L 135.742 -77.1973 C 130.029 -84.8633 126.562 -86.8652 117.041 -86.8652 L 62.1582 -86.8652 C 52.6367 -86.8652 49.1699 -84.8633 43.4082 -77.1973 L 18.8477 -44.7754 C 16.748 -41.9434 16.0645 -39.9414 16.0645 -35.5469 L 16.0645 -1.26953 C 16.0645 10.498 22.168 16.5527 34.0332 16.5527 Z M 89.5996 -17.5781 C 79.834 -17.5781 72.9004 -25.4883 72.9004 -34.6191 L 72.9004 -35.0098 C 72.9004 -37.1582 71.6309 -38.9648 69.0918 -38.9648 L 25.1465 -38.9648 C 23.7305 -38.9648 23.3887 -40.1855 24.1211 -41.2109 L 49.9512 -75.4883 C 52.9297 -79.4434 56.3965 -80.957 61.4258 -80.957 L 117.725 -80.957 C 122.803 -80.957 126.27 -79.4434 129.248 -75.4883 L 155.078 -41.2109 C 155.811 -40.1855 155.469 -38.9648 154.053 -38.9648 L 110.059 -38.9648 C 107.52 -38.9648 106.299 -37.1582 106.299 -35.0098 L 106.299 -34.6191 C 106.299 -25.4883 99.3652 -17.5781 89.5996 -17.5781 Z M 117.188 -70.4102 L 62.1094 -70.4102 C 60.791 -70.4102 59.7656 -69.4336 59.7656 -68.0664 C 59.7656 -66.6992 60.791 -65.7227 62.1094 -65.7227 L 117.188 -65.7227 C 118.457 -65.7227 119.434 -66.6992 119.434 -68.0664 C 119.434 -69.4336 118.457 -70.4102 117.188 -70.4102 Z M 126.709 -55.2734 L 52.5391 -55.2734 C 51.1719 -55.2734 50.1465 -54.1992 50.1465 -52.8809 C 50.1465 -51.5137 51.1719 -50.4883 52.5391 -50.4883 L 126.709 -50.4883 C 128.027 -50.4883 129.053 -51.5137 129.053 -52.8809 C 129.053 -54.1992 128.027 -55.2734 126.709 -55.2734 Z"/>
  </g>
  <g id="Thin-L" transform="matrix(1 0 0 1 767.433 1556)">
   <path d="M 32.666 14.9902 L 145.312 14.9902 C 156.201 14.9902 161.914 9.13086 161.914 -1.5625 L 161.914 -35.4492 C 161.914 -38.8672 161.426 -40.332 159.766 -42.5293 L 133.057 -77.2461 C 128.174 -83.5938 124.951 -85.2539 116.699 -85.2539 L 61.3281 -85.2539 C 53.0273 -85.2539 49.8047 -83.5938 44.9219 -77.2461 L 18.2129 -42.5293 C 16.6016 -40.332 16.0645 -38.8672 16.0645 -35.4492 L 16.0645 -1.5625 C 16.0645 9.27734 21.7773 14.9902 32.666 14.9902 Z M 89.0137 -17.334 C 79.0039 -17.334 71.3867 -25.0977 71.3867 -35.2539 L 71.3867 -35.7422 C 71.3867 -37.4512 70.5078 -38.5742 68.7012 -38.5742 L 21.8262 -38.5742 C 20.8984 -38.5742 20.6543 -39.4043 21.1914 -40.1367 L 48.9258 -76.123 C 51.9531 -79.9805 55.2246 -81.5918 60.5957 -81.5918 L 117.383 -81.5918 C 122.803 -81.5918 126.074 -79.9805 129.102 -76.123 L 156.885 -40.1367 C 157.422 -39.4043 157.178 -38.5742 156.201 -38.5742 L 109.326 -38.5742 C 107.52 -38.5742 106.592 -37.4512 106.592 -35.7422 L 106.592 -35.2539 C 106.592 -25.0977 98.9746 -17.334 89.0137 -17.334 Z M 117.432 -70.0195 L 60.7422 -70.0195 C 59.7168 -70.0195 58.9355 -69.3359 58.9355 -68.2129 C 58.9355 -67.1387 59.7168 -66.4551 60.7422 -66.4551 L 117.432 -66.4551 C 118.359 -66.4551 119.141 -67.1387 119.141 -68.2129 C 119.141 -69.3359 118.359 -70.0195 117.432 -70.0195 Z M 127.881 -54.2969 L 50.293 -54.2969 C 49.2188 -54.2969 48.4375 -53.5156 48.4375 -52.4902 C 48.4375 -51.4648 49.2188 -50.7324 50.293 -50.7324 L 127.881 -50.7324 C 128.857 -50.7324 129.639 -51.4648 129.639 -52.4902 C 129.639 -53.5156 128.857 -54.2969 127.881 -54.2969 Z"/>
  </g>
  <g id="Ultralight-L" transform="matrix(1 0 0 1 471.015 1556)">
   <path d="M 31.9824 14.209 L 145.41 14.209 C 155.811 14.209 161.328 8.49609 161.328 -1.70898 L 161.328 -35.4004 C 161.328 -38.2812 160.889 -39.5508 159.473 -41.4062 L 131.689 -77.2461 C 127.246 -82.959 124.17 -84.4238 116.504 -84.4238 L 60.8887 -84.4238 C 53.2227 -84.4238 50.1465 -82.959 45.7031 -77.2461 L 17.9199 -41.4062 C 16.5039 -39.5508 16.0645 -38.2812 16.0645 -35.4004 L 16.0645 -1.70898 C 16.0645 8.64258 21.582 14.209 31.9824 14.209 Z M 88.7207 -17.1875 C 78.6133 -17.1875 70.6055 -24.8535 70.6055 -35.5957 L 70.6055 -36.084 C 70.6055 -37.5977 69.9219 -38.3789 68.457 -38.3789 L 20.166 -38.3789 C 19.4824 -38.3789 19.2383 -39.0137 19.6777 -39.5996 L 48.3887 -76.4648 C 51.4648 -80.2734 54.6387 -81.9336 60.1562 -81.9336 L 117.236 -81.9336 C 122.803 -81.9336 125.928 -80.2734 129.004 -76.4648 L 157.812 -39.5996 C 158.252 -39.0137 158.008 -38.3789 157.324 -38.3789 L 108.936 -38.3789 C 107.52 -38.3789 106.787 -37.5977 106.787 -36.084 L 106.787 -35.5957 C 106.787 -24.8535 98.8281 -17.1875 88.7207 -17.1875 Z M 117.529 -69.8242 L 60.0586 -69.8242 C 59.1309 -69.8242 58.4961 -69.2871 58.4961 -68.2617 C 58.4961 -67.3828 59.1309 -66.7969 60.0586 -66.7969 L 117.529 -66.7969 C 118.359 -66.7969 118.994 -67.3828 118.994 -68.2617 C 118.994 -69.2871 118.359 -69.8242 117.529 -69.8242 Z M 128.467 -53.7598 L 49.1211 -53.7598 C 48.2422 -53.7598 47.5586 -53.2227 47.5586 -52.2949 C 47.5586 -51.416 48.2422 -50.8301 49.1211 -50.8301 L 128.467 -50.8301 C 129.248 -50.8301 129.932 -51.416 129.932 -52.2949 C 129.932 -53.2227 129.248 -53.7598 128.467 -53.7598 Z"/>
  </g>
  <g id="Black-M" transform="matrix(1 0 0 1 2861.84 1126)">
   <path d="M 31.9824 12.1094 L 111.133 12.1094 C 123.389 12.1094 130.664 4.83398 130.664 -7.42188 L 130.664 -36.5723 C 130.664 -46.582 129.59 -50.5371 125.049 -56.0059 L 112.939 -70.6055 C 105.566 -79.541 102.295 -82.4707 92.6758 -82.4707 L 50.4395 -82.4707 C 40.8203 -82.4707 37.5977 -79.541 30.1758 -70.6055 L 18.0664 -56.0059 C 13.5742 -50.4395 12.4512 -46.582 12.4512 -36.5723 L 12.4512 -7.42188 C 12.4512 4.83398 19.7266 12.1094 31.9824 12.1094 Z M 71.582 -25.8789 C 63.8672 -25.8789 59.375 -29.7363 59.375 -36.4258 L 59.375 -37.8418 C 59.375 -40.2832 57.9102 -42.7246 54.7852 -42.7246 L 33.1055 -42.7246 C 30.5664 -42.7246 30.2734 -44.7754 31.5918 -46.3867 L 48.0957 -66.2109 C 49.3164 -67.627 50.5371 -68.6523 52.6367 -68.6523 L 90.5273 -68.6523 C 92.5781 -68.6523 93.7988 -67.627 95.0195 -66.2109 L 111.523 -46.3867 C 112.842 -44.7754 112.549 -42.7246 110.01 -42.7246 L 88.3301 -42.7246 C 85.2051 -42.7246 83.7402 -40.2832 83.7402 -37.8418 L 83.7402 -36.4258 C 83.7402 -29.7363 79.248 -25.8789 71.582 -25.8789 Z M 91.6504 -60.8887 L 51.5137 -60.8887 C 50 -60.8887 48.877 -59.7168 48.877 -58.252 C 48.877 -56.7871 50 -55.5664 51.5137 -55.5664 L 91.6504 -55.5664 C 93.1152 -55.5664 94.2383 -56.7871 94.2383 -58.252 C 94.2383 -59.7168 93.1152 -60.8887 91.6504 -60.8887 Z M 97.6074 -50.9277 L 45.5078 -50.9277 C 43.9453 -50.9277 42.7734 -49.5605 42.7734 -48.0469 C 42.7734 -46.582 43.9453 -45.3125 45.5078 -45.3125 L 97.6074 -45.3125 C 99.1699 -45.3125 100.342 -46.582 100.342 -48.0469 C 100.342 -49.5605 99.1699 -50.9277 97.6074 -50.9277 Z"/>
  </g>
  <g id="Heavy-M" transform="matrix(1 0 0 1 2565.5 1126)">
   <path d="M 31.0059 10.791 L 111.426 10.791 C 123.193 10.791 129.932 4.00391 129.932 -7.71484 L 129.932 -36.377 C 129.932 -45.0195 128.955 -48.5352 125 -53.3691 L 111.768 -69.9219 C 104.834 -78.4668 101.709 -81.1523 92.2852 -81.1523 L 50.0977 -81.1523 C 40.7227 -81.1523 37.5488 -78.4668 30.6641 -69.9219 L 17.3828 -53.3691 C 13.4766 -48.4863 12.4512 -45.0195 12.4512 -36.377 L 12.4512 -7.71484 C 12.4512 4.00391 19.2383 10.791 31.0059 10.791 Z M 71.1914 -24.9023 C 63.623 -24.9023 59.082 -29.3457 59.082 -35.8887 L 59.082 -37.0117 C 59.082 -39.3555 57.6172 -41.748 54.5898 -41.748 L 30.6641 -41.748 C 28.3691 -41.748 28.0762 -43.6035 29.248 -45.1172 L 46.1426 -66.1133 C 47.6074 -67.9688 49.2188 -68.9453 51.6113 -68.9453 L 90.7715 -68.9453 C 93.2129 -68.9453 94.8242 -67.9688 96.2891 -66.1133 L 113.135 -45.1172 C 114.307 -43.6035 114.014 -41.748 111.719 -41.748 L 87.793 -41.748 C 84.7656 -41.748 83.3496 -39.3555 83.3496 -37.0117 L 83.3496 -35.8887 C 83.3496 -29.3457 78.8086 -24.9023 71.1914 -24.9023 Z M 91.3574 -61.3281 L 51.0254 -61.3281 C 49.5605 -61.3281 48.4863 -60.2051 48.4863 -58.7891 C 48.4863 -57.3242 49.5605 -56.2012 51.0254 -56.2012 L 91.3574 -56.2012 C 92.8223 -56.2012 93.9453 -57.3242 93.9453 -58.7891 C 93.9453 -60.2051 92.8223 -61.3281 91.3574 -61.3281 Z M 97.4609 -51.123 L 44.9219 -51.123 C 43.4082 -51.123 42.2363 -49.8047 42.2363 -48.3398 C 42.2363 -46.875 43.4082 -45.7031 44.9219 -45.7031 L 97.4609 -45.7031 C 98.9746 -45.7031 100.146 -46.875 100.146 -48.3398 C 100.146 -49.8047 98.9746 -51.123 97.4609 -51.123 Z"/>
  </g>
  <g id="Bold-M" transform="matrix(1 0 0 1 2269.18 1126)">
   <path d="M 29.8828 9.27734 L 111.719 9.27734 C 122.949 9.27734 129.15 3.125 129.15 -8.00781 L 129.15 -36.084 C 129.15 -43.2617 128.271 -46.2891 124.951 -50.4395 L 110.449 -69.1406 C 104.102 -77.2461 100.977 -79.6875 91.8457 -79.6875 L 49.707 -79.6875 C 40.5762 -79.6875 37.5 -77.2461 31.1523 -69.1406 L 16.6504 -50.4395 C 13.3789 -46.2402 12.4512 -43.2617 12.4512 -36.084 L 12.4512 -8.00781 C 12.4512 3.125 18.6523 9.27734 29.8828 9.27734 Z M 70.8008 -23.8281 C 63.2812 -23.8281 58.6914 -28.9062 58.6914 -35.3027 L 58.6914 -36.084 C 58.6914 -38.3789 57.2754 -40.625 54.3945 -40.625 L 27.9785 -40.625 C 25.9277 -40.625 25.5859 -42.334 26.6113 -43.7012 L 43.8965 -65.9668 C 45.6543 -68.2617 47.7051 -69.3359 50.5371 -69.3359 L 91.0645 -69.3359 C 93.8965 -69.3359 95.8984 -68.2617 97.6562 -65.9668 L 114.941 -43.7012 C 115.967 -42.334 115.674 -40.625 113.623 -40.625 L 87.207 -40.625 C 84.2773 -40.625 82.9102 -38.3789 82.9102 -36.084 L 82.9102 -35.3027 C 82.9102 -28.9062 78.3203 -23.8281 70.8008 -23.8281 Z M 91.1133 -61.8652 L 50.4883 -61.8652 C 49.0723 -61.8652 48.0469 -60.7422 48.0469 -59.375 C 48.0469 -57.959 49.0723 -56.8848 50.4883 -56.8848 L 91.1133 -56.8848 C 92.4805 -56.8848 93.5547 -57.959 93.5547 -59.375 C 93.5547 -60.7422 92.4805 -61.8652 91.1133 -61.8652 Z M 97.3145 -51.3672 L 44.2871 -51.3672 C 42.8223 -51.3672 41.6992 -50.0977 41.6992 -48.6816 C 41.6992 -47.2656 42.8223 -46.0938 44.2871 -46.0938 L 97.3145 -46.0938 C 98.7793 -46.0938 99.9023 -47.2656 99.9023 -48.6816 C 99.9023 -50.0977 98.7793 -51.3672 97.3145 -51.3672 Z"/>
  </g>
  <g id="Semibold-M" transform="matrix(1 0 0 1 1972.76 1126)">
   <path d="M 29.1016 8.30078 L 111.914 8.30078 C 122.803 8.30078 128.564 2.49023 128.564 -8.25195 L 128.564 -35.8887 C 128.564 -42.0898 127.734 -44.7266 124.902 -48.3887 L 109.521 -68.6035 C 103.564 -76.416 100.537 -78.6621 91.5527 -78.6621 L 49.4629 -78.6621 C 40.5273 -78.6621 37.5 -76.416 31.4941 -68.6035 L 16.1133 -48.3887 C 13.2812 -44.7266 12.4512 -42.0898 12.4512 -35.8887 L 12.4512 -8.25195 C 12.4512 2.53906 18.2617 8.30078 29.1016 8.30078 Z M 70.5078 -23.0957 C 63.0371 -23.0957 58.4473 -28.6133 58.4473 -34.8633 L 58.4473 -35.4492 C 58.4473 -37.6953 57.0801 -39.8438 54.248 -39.8438 L 26.123 -39.8438 C 24.2188 -39.8438 23.877 -41.4551 24.8047 -42.6758 L 42.3828 -65.918 C 44.3359 -68.5059 46.6797 -69.5801 49.7559 -69.5801 L 91.2598 -69.5801 C 94.3359 -69.5801 96.6797 -68.5059 98.6328 -65.918 L 116.162 -42.6758 C 117.139 -41.4551 116.797 -39.8438 114.893 -39.8438 L 86.8164 -39.8438 C 83.9355 -39.8438 82.5684 -37.6953 82.5684 -35.4492 L 82.5684 -34.8633 C 82.5684 -28.6133 77.9785 -23.0957 70.5078 -23.0957 Z M 90.918 -62.207 L 50.1465 -62.207 C 48.7793 -62.207 47.7051 -61.1328 47.7051 -59.8145 C 47.7051 -58.3984 48.7793 -57.3242 50.1465 -57.3242 L 90.918 -57.3242 C 92.2852 -57.3242 93.3105 -58.3984 93.3105 -59.8145 C 93.3105 -61.1328 92.2852 -62.207 90.918 -62.207 Z M 97.2168 -51.5137 L 43.8477 -51.5137 C 42.3828 -51.5137 41.3086 -50.293 41.3086 -48.877 C 41.3086 -47.5098 42.3828 -46.3867 43.8477 -46.3867 L 97.2168 -46.3867 C 98.6328 -46.3867 99.7559 -47.5098 99.7559 -48.877 C 99.7559 -50.293 98.6328 -51.5137 97.2168 -51.5137 Z"/>
  </g>
  <g id="Medium-M" transform="matrix(1 0 0 1 1676.24 1126)">
   <path d="M 28.5156 7.51953 L 112.061 7.51953 C 122.656 7.51953 128.174 2.05078 128.174 -8.39844 L 128.174 -35.7422 C 128.174 -41.2109 127.393 -43.5547 124.854 -46.875 L 108.838 -68.2129 C 103.125 -75.7812 100.146 -77.8809 91.3574 -77.8809 L 49.2676 -77.8809 C 40.4297 -77.8809 37.4512 -75.7812 31.7871 -68.2129 L 15.7227 -46.875 C 13.2324 -43.5547 12.4512 -41.2109 12.4512 -35.7422 L 12.4512 -8.39844 C 12.4512 2.05078 17.9688 7.51953 28.5156 7.51953 Z M 70.3125 -22.5098 C 62.8906 -22.5098 58.252 -28.418 58.252 -34.5215 L 58.252 -34.9121 C 58.252 -37.1582 56.8848 -39.3066 54.1016 -39.3066 L 24.707 -39.3066 C 22.9004 -39.3066 22.6074 -40.7715 23.4375 -41.9434 L 41.2598 -65.8691 C 43.3105 -68.7012 45.8984 -69.7754 49.2188 -69.7754 L 91.4062 -69.7754 C 94.6777 -69.7754 97.2656 -68.7012 99.3652 -65.8691 L 117.139 -41.9434 C 117.969 -40.7715 117.676 -39.3066 115.869 -39.3066 L 86.4746 -39.3066 C 83.6914 -39.3066 82.373 -37.1582 82.373 -34.9121 L 82.373 -34.5215 C 82.373 -28.418 77.7344 -22.5098 70.3125 -22.5098 Z M 90.7715 -62.5 L 49.9023 -62.5 C 48.5352 -62.5 47.5098 -61.4258 47.5098 -60.1074 C 47.5098 -58.7402 48.5352 -57.7148 49.9023 -57.7148 L 90.7715 -57.7148 C 92.0898 -57.7148 93.1152 -58.7402 93.1152 -60.1074 C 93.1152 -61.4258 92.0898 -62.5 90.7715 -62.5 Z M 97.1191 -51.6113 L 43.5059 -51.6113 C 42.0898 -51.6113 41.0156 -50.3906 41.0156 -49.0723 C 41.0156 -47.7051 42.0898 -46.582 43.5059 -46.582 L 97.1191 -46.582 C 98.5352 -46.582 99.6094 -47.7051 99.6094 -49.0723 C 99.6094 -50.3906 98.5352 -51.6113 97.1191 -51.6113 Z"/>
  </g>
  <g id="Regular-M" transform="matrix(1 0 0 1 1379.82 1126)">
   <path d="M 27.7832 6.49414 L 112.256 6.49414 C 122.51 6.49414 127.588 1.41602 127.588 -8.64258 L 127.588 -35.5957 C 127.588 -39.9902 126.904 -42.041 124.805 -44.873 L 107.959 -67.6758 C 102.637 -74.9512 99.707 -76.8555 91.0156 -76.8555 L 49.0234 -76.8555 C 40.332 -76.8555 37.4512 -74.9512 32.1289 -67.6758 L 15.2344 -44.873 C 13.1836 -42.041 12.4512 -39.9902 12.4512 -35.5957 L 12.4512 -8.64258 C 12.4512 1.46484 17.5781 6.49414 27.7832 6.49414 Z M 70.0195 -21.7773 C 62.6953 -21.7773 58.0078 -28.125 58.0078 -34.1309 L 58.0078 -34.2773 C 58.0078 -36.4746 56.6895 -38.5254 53.9551 -38.5254 L 22.8516 -38.5254 C 21.2402 -38.5254 20.8984 -39.8926 21.6797 -40.9668 L 39.7461 -65.7715 C 41.9922 -68.8965 44.873 -70.0195 48.4375 -70.0195 L 91.6016 -70.0195 C 95.166 -70.0195 98.0469 -68.8965 100.293 -65.7715 L 118.359 -40.9668 C 119.092 -39.8926 118.799 -38.5254 117.188 -38.5254 L 86.084 -38.5254 C 83.3496 -38.5254 82.0801 -36.4746 82.0801 -34.2773 L 82.0801 -34.1309 C 82.0801 -28.125 77.3926 -21.7773 70.0195 -21.7773 Z M 90.5762 -62.8418 L 49.5117 -62.8418 C 48.1934 -62.8418 47.168 -61.8164 47.168 -60.498 C 47.168 -59.1797 48.1934 -58.1543 49.5117 -58.1543 L 90.5762 -58.1543 C 91.8945 -58.1543 92.8711 -59.1797 92.8711 -60.498 C 92.8711 -61.8164 91.8945 -62.8418 90.5762 -62.8418 Z M 97.0215 -51.8066 L 43.0176 -51.8066 C 41.6504 -51.8066 40.625 -50.5859 40.625 -49.2676 C 40.625 -47.9492 41.6504 -46.8262 43.0176 -46.8262 L 97.0215 -46.8262 C 98.3887 -46.8262 99.4629 -47.9492 99.4629 -49.2676 C 99.4629 -50.5859 98.3887 -51.8066 97.0215 -51.8066 Z"/>
  </g>
  <g id="Light-M" transform="matrix(1 0 0 1 1083.5 1126)">
   <path d="M 26.8555 5.41992 L 112.402 5.41992 C 121.973 5.41992 126.807 0.585938 126.807 -8.83789 L 126.807 -35.498 C 126.807 -39.2578 126.221 -40.9668 124.463 -43.3594 L 106.104 -67.7246 C 101.367 -74.1211 98.6328 -75.7812 90.8203 -75.7812 L 48.4375 -75.7812 C 40.625 -75.7812 37.8906 -74.1211 33.1543 -67.7246 L 14.7949 -43.3594 C 13.0371 -40.9668 12.4512 -39.2578 12.4512 -35.498 L 12.4512 -8.83789 C 12.4512 0.634766 17.334 5.41992 26.8555 5.41992 Z M 69.6289 -21.6309 C 62.1094 -21.6309 56.9824 -27.832 56.9824 -34.5703 L 56.9824 -34.8145 C 56.9824 -36.6699 55.9082 -38.2812 53.7109 -38.2812 L 20.6055 -38.2812 C 19.3359 -38.2812 19.043 -39.3555 19.6777 -40.2344 L 39.0625 -66.2109 C 41.3574 -69.2871 44.0918 -70.459 47.9004 -70.459 L 91.3574 -70.459 C 95.166 -70.459 97.9004 -69.2871 100.195 -66.2109 L 119.58 -40.2344 C 120.215 -39.3555 119.922 -38.2812 118.652 -38.2812 L 85.5469 -38.2812 C 83.3496 -38.2812 82.2754 -36.6699 82.2754 -34.8145 L 82.2754 -34.5703 C 82.2754 -27.832 77.1484 -21.6309 69.6289 -21.6309 Z M 90.7227 -62.5977 L 48.584 -62.5977 C 47.4609 -62.5977 46.6309 -61.7676 46.6309 -60.6445 C 46.6309 -59.4727 47.4609 -58.6426 48.584 -58.6426 L 90.7227 -58.6426 C 91.8457 -58.6426 92.6758 -59.4727 92.6758 -60.6445 C 92.6758 -61.7676 91.8457 -62.5977 90.7227 -62.5977 Z M 97.8027 -51.123 L 41.5039 -51.123 C 40.332 -51.123 39.4531 -50.1465 39.4531 -49.0234 C 39.4531 -47.9004 40.332 -47.0215 41.5039 -47.0215 L 97.8027 -47.0215 C 98.9746 -47.0215 99.8535 -47.9004 99.8535 -49.0234 C 99.8535 -50.1465 98.9746 -51.123 97.8027 -51.123 Z"/>
  </g>
  <g id="Thin-M" transform="matrix(1 0 0 1 787.33 1126)">
   <path d="M 25.6348 4.05273 L 112.598 4.05273 C 121.24 4.05273 125.732 -0.585938 125.732 -9.08203 L 125.732 -35.4492 C 125.732 -38.2812 125.293 -39.5508 123.926 -41.3574 L 103.711 -67.7734 C 99.707 -72.998 97.2168 -74.3164 90.4785 -74.3164 L 47.7051 -74.3164 C 41.0156 -74.3164 38.4766 -72.998 34.5215 -67.7734 L 14.2578 -41.3574 C 12.8906 -39.5508 12.4512 -38.2812 12.4512 -35.4492 L 12.4512 -9.08203 C 12.4512 -0.488281 16.9922 4.05273 25.6348 4.05273 Z M 69.0918 -21.3867 C 61.4258 -21.3867 55.6641 -27.4414 55.6641 -35.1074 L 55.6641 -35.4492 C 55.6641 -36.9141 54.8828 -37.9395 53.3203 -37.9395 L 17.627 -37.9395 C 16.7969 -37.9395 16.6016 -38.623 17.041 -39.2578 L 38.1348 -66.7969 C 40.4785 -69.8242 43.0664 -70.9961 47.1191 -70.9961 L 91.0645 -70.9961 C 95.166 -70.9961 97.7539 -69.8242 100.098 -66.7969 L 121.191 -39.2578 C 121.631 -38.623 121.436 -37.9395 120.605 -37.9395 L 84.8633 -37.9395 C 83.3008 -37.9395 82.5684 -36.9141 82.5684 -35.4492 L 82.5684 -35.1074 C 82.5684 -27.4414 76.8066 -21.3867 69.0918 -21.3867 Z M 90.918 -62.2559 L 47.3633 -62.2559 C 46.4844 -62.2559 45.8496 -61.6699 45.8496 -60.7422 C 45.8496 -59.8633 46.4844 -59.2773 47.3633 -59.2773 L 90.918 -59.2773 C 91.748 -59.2773 92.4316 -59.8633 92.4316 -60.7422 C 92.4316 -61.6699 91.748 -62.2559 90.918 -62.2559 Z M 98.8281 -50.1953 L 39.4531 -50.1953 C 38.5742 -50.1953 37.9395 -49.5605 37.9395 -48.6816 C 37.9395 -47.8027 38.5742 -47.2168 39.4531 -47.2168 L 98.8281 -47.2168 C 99.6582 -47.2168 100.342 -47.8027 100.342 -48.6816 C 100.342 -49.5605 99.6582 -50.1953 98.8281 -50.1953 Z"/>
  </g>
  <g id="Ultralight-M" transform="matrix(1 0 0 1 490.888 1126)">
   <path d="M 25 3.32031 L 112.695 3.32031 C 120.85 3.32031 125.195 -1.17188 125.195 -9.22852 L 125.195 -35.4004 C 125.195 -37.793 124.854 -38.8184 123.682 -40.332 L 102.49 -67.7734 C 98.877 -72.4121 96.4844 -73.584 90.332 -73.584 L 47.3145 -73.584 C 41.2109 -73.584 38.7695 -72.4121 35.2051 -67.7734 L 13.9648 -40.332 C 12.8418 -38.8184 12.4512 -37.793 12.4512 -35.4004 L 12.4512 -9.22852 C 12.4512 -1.02539 16.7969 3.32031 25 3.32031 Z M 68.8477 -21.2891 C 61.0352 -21.2891 54.9805 -27.2461 54.9805 -35.4004 L 54.9805 -35.791 C 54.9805 -37.0117 54.3457 -37.7441 53.125 -37.7441 L 16.1133 -37.7441 C 15.5273 -37.7441 15.332 -38.2812 15.7227 -38.7695 L 37.6465 -67.0898 C 40.0391 -70.0684 42.5293 -71.2891 46.7773 -71.2891 L 90.918 -71.2891 C 95.166 -71.2891 97.6562 -70.0684 100 -67.0898 L 122.021 -38.7695 C 122.412 -38.2812 122.217 -37.7441 121.582 -37.7441 L 84.5215 -37.7441 C 83.3008 -37.7441 82.7148 -37.0117 82.7148 -35.791 L 82.7148 -35.4004 C 82.7148 -27.2461 76.6113 -21.2891 68.8477 -21.2891 Z M 91.0645 -62.1094 L 46.7285 -62.1094 C 45.9961 -62.1094 45.459 -61.6211 45.459 -60.8398 C 45.459 -60.0586 45.9961 -59.5703 46.7285 -59.5703 L 91.0645 -59.5703 C 91.748 -59.5703 92.2852 -60.0586 92.2852 -60.8398 C 92.2852 -61.6211 91.748 -62.1094 91.0645 -62.1094 Z M 99.3652 -49.7559 L 38.4277 -49.7559 C 37.6953 -49.7559 37.1094 -49.2676 37.1094 -48.5352 C 37.1094 -47.8027 37.6953 -47.3145 38.4277 -47.3145 L 99.3652 -47.3145 C 100.049 -47.3145 100.586 -47.8027 100.586 -48.5352 C 100.586 -49.2676 100.049 -49.7559 99.3652 -49.7559 Z"/>
  </g>
  <g id="Black-S" transform="matrix(1 0 0 1 2877.35 696)">
   <path d="M 25 1.75781 L 87.1094 1.75781 C 96.6797 1.75781 102.344 -3.90625 102.344 -13.4766 L 102.344 -36.2793 C 102.344 -43.9941 101.514 -47.0703 97.998 -51.3184 L 88.4277 -62.8906 C 82.666 -69.873 80.127 -72.168 72.6074 -72.168 L 39.502 -72.168 C 31.9824 -72.168 29.4434 -69.873 23.6816 -62.8906 L 14.1113 -51.3184 C 10.6445 -47.0215 9.76562 -43.9941 9.76562 -36.2793 L 9.76562 -13.4766 C 9.76562 -3.90625 15.4297 1.75781 25 1.75781 Z M 56.0547 -27.832 C 50.0488 -27.832 46.5332 -30.9082 46.5332 -36.1328 L 46.5332 -37.207 C 46.5332 -39.1113 45.3613 -41.0156 42.9199 -41.0156 L 25.7812 -41.0156 C 23.8281 -41.0156 23.584 -42.627 24.6094 -43.8965 L 37.5488 -59.4727 C 38.5254 -60.6445 39.502 -61.4258 41.1621 -61.4258 L 70.9473 -61.4258 C 72.6074 -61.4258 73.584 -60.6445 74.5605 -59.4727 L 87.5 -43.8965 C 88.5254 -42.627 88.2812 -41.0156 86.3281 -41.0156 L 69.1895 -41.0156 C 66.748 -41.0156 65.5762 -39.1113 65.5762 -37.207 L 65.5762 -36.1328 C 65.5762 -30.9082 62.0605 -27.832 56.0547 -27.832 Z M 71.7773 -55.3711 L 40.332 -55.3711 C 39.1602 -55.3711 38.2812 -54.4434 38.2812 -53.3203 C 38.2812 -52.1484 39.1602 -51.2207 40.332 -51.2207 L 71.7773 -51.2207 C 72.9492 -51.2207 73.8281 -52.1484 73.8281 -53.3203 C 73.8281 -54.4434 72.9492 -55.3711 71.7773 -55.3711 Z M 76.4648 -47.5586 L 35.6445 -47.5586 C 34.4238 -47.5586 33.4961 -46.4844 33.4961 -45.3125 C 33.4961 -44.1406 34.4238 -43.1641 35.6445 -43.1641 L 76.4648 -43.1641 C 77.6855 -43.1641 78.6133 -44.1406 78.6133 -45.3125 C 78.6133 -46.4844 77.6855 -47.5586 76.4648 -47.5586 Z"/>
  </g>
  <g id="Heavy-S" transform="matrix(1 0 0 1 2580.88 696)">
   <path d="M 24.3652 0.878906 L 87.3047 0.878906 C 96.582 0.878906 101.855 -4.44336 101.855 -13.6719 L 101.855 -36.084 C 101.855 -42.8711 101.074 -45.6543 97.998 -49.4629 L 87.7441 -62.3535 C 82.2754 -69.1406 79.7852 -71.2891 72.3145 -71.2891 L 39.3066 -71.2891 C 31.8848 -71.2891 29.3457 -69.1406 23.9258 -62.3535 L 13.623 -49.4629 C 10.5957 -45.6055 9.76562 -42.8711 9.76562 -36.084 L 9.76562 -13.6719 C 9.76562 -4.44336 15.0879 0.878906 24.3652 0.878906 Z M 55.8105 -27.0996 C 49.9023 -27.0996 46.3867 -30.6641 46.3867 -35.6445 L 46.3867 -36.5234 C 46.3867 -38.4277 45.2148 -40.2832 42.8223 -40.2832 L 24.1699 -40.2832 C 22.3633 -40.2832 22.1191 -41.7969 23.0469 -43.0176 L 36.1328 -59.3262 C 37.2559 -60.8398 38.5742 -61.6211 40.4785 -61.6211 L 71.1914 -61.6211 C 73.0469 -61.6211 74.3652 -60.8398 75.5371 -59.3262 L 88.5742 -43.0176 C 89.5508 -41.7969 89.2578 -40.2832 87.4512 -40.2832 L 68.8477 -40.2832 C 66.4062 -40.2832 65.2344 -38.4277 65.2344 -36.5234 L 65.2344 -35.6445 C 65.2344 -30.6641 61.7676 -27.0996 55.8105 -27.0996 Z M 71.582 -55.7617 L 40.0879 -55.7617 C 38.916 -55.7617 38.0371 -54.834 38.0371 -53.7109 C 38.0371 -52.5391 38.916 -51.6113 40.0879 -51.6113 L 71.582 -51.6113 C 72.7051 -51.6113 73.584 -52.5391 73.584 -53.7109 C 73.584 -54.834 72.7051 -55.7617 71.582 -55.7617 Z M 76.2695 -47.8027 L 35.3516 -47.8027 C 34.1797 -47.8027 33.252 -46.7285 33.252 -45.5566 C 33.252 -44.3848 34.1797 -43.4082 35.3516 -43.4082 L 76.2695 -43.4082 C 77.4902 -43.4082 78.418 -44.3848 78.418 -45.5566 C 78.418 -46.7285 77.4902 -47.8027 76.2695 -47.8027 Z"/>
  </g>
  <g id="Bold-S" transform="matrix(1 0 0 1 2284.41 696)">
   <path d="M 23.6328 -0.146484 L 87.5 -0.146484 C 96.4844 -0.146484 101.367 -4.98047 101.367 -13.8672 L 101.367 -35.8887 C 101.367 -41.6504 100.635 -44.0918 97.998 -47.4121 L 86.9629 -61.7676 C 81.8359 -68.3105 79.3945 -70.2637 72.0215 -70.2637 L 39.1113 -70.2637 C 31.7383 -70.2637 29.2969 -68.3105 24.1699 -61.7676 L 13.1348 -47.4121 C 10.498 -44.043 9.76562 -41.6504 9.76562 -35.8887 L 9.76562 -13.8672 C 9.76562 -4.98047 14.6973 -0.146484 23.6328 -0.146484 Z M 55.5664 -26.3184 C 49.707 -26.3184 46.2402 -30.3711 46.2402 -35.1562 L 46.2402 -35.7422 C 46.2402 -37.5977 45.0684 -39.502 42.6758 -39.502 L 22.3633 -39.502 C 20.7031 -39.502 20.459 -40.8691 21.2891 -41.9922 L 34.5215 -59.2285 C 35.8887 -61.0352 37.5488 -61.8652 39.6973 -61.8652 L 71.4355 -61.8652 C 73.584 -61.8652 75.2441 -61.0352 76.6113 -59.2285 L 89.7949 -41.9922 C 90.6738 -40.8691 90.3809 -39.502 88.7207 -39.502 L 68.457 -39.502 C 66.0156 -39.502 64.8926 -37.5977 64.8926 -35.7422 L 64.8926 -35.1562 C 64.8926 -30.3711 61.4258 -26.3184 55.5664 -26.3184 Z M 71.3379 -56.2012 L 39.7949 -56.2012 C 38.623 -56.2012 37.793 -55.2734 37.793 -54.1504 C 37.793 -52.9785 38.623 -52.0996 39.7949 -52.0996 L 71.3379 -52.0996 C 72.4609 -52.0996 73.3398 -52.9785 73.3398 -54.1504 C 73.3398 -55.2734 72.4609 -56.2012 71.3379 -56.2012 Z M 76.0742 -48.0469 L 35.0586 -48.0469 C 33.8379 -48.0469 32.959 -46.9727 32.959 -45.8496 C 32.959 -44.6777 33.8379 -43.7012 35.0586 -43.7012 L 76.0742 -43.7012 C 77.2461 -43.7012 78.1738 -44.6777 78.1738 -45.8496 C 78.1738 -46.9727 77.2461 -48.0469 76.0742 -48.0469 Z"/>
  </g>
  <g id="Semibold-S" transform="matrix(1 0 0 1 1987.9 696)">
   <path d="M 23.0957 -0.830078 L 87.6465 -0.830078 C 96.3867 -0.830078 100.977 -5.41992 100.977 -14.0137 L 100.977 -35.791 C 100.977 -40.8203 100.293 -43.0176 97.998 -45.9961 L 86.4258 -61.377 C 81.543 -67.7734 79.1016 -69.5801 71.8262 -69.5801 L 38.9648 -69.5801 C 31.6406 -69.5801 29.248 -67.7734 24.3652 -61.377 L 12.793 -45.9961 C 10.4492 -42.9688 9.76562 -40.8203 9.76562 -35.791 L 9.76562 -14.0137 C 9.76562 -5.37109 14.4043 -0.830078 23.0957 -0.830078 Z M 55.3711 -25.7324 C 49.6094 -25.7324 46.1426 -30.127 46.1426 -34.7656 L 46.1426 -35.2051 C 46.1426 -37.0605 44.9707 -38.916 42.5781 -38.916 L 21.1426 -38.916 C 19.5801 -38.916 19.2871 -40.2344 20.0684 -41.3086 L 33.3984 -59.1309 C 34.9121 -61.1816 36.8164 -62.0117 39.1602 -62.0117 L 71.582 -62.0117 C 73.9258 -62.0117 75.8301 -61.1816 77.3438 -59.1309 L 90.6738 -41.3086 C 91.4551 -40.2344 91.1621 -38.916 89.5996 -38.916 L 68.1641 -38.916 C 65.7715 -38.916 64.6484 -37.0605 64.6484 -35.2051 L 64.6484 -34.7656 C 64.6484 -30.127 61.1816 -25.7324 55.3711 -25.7324 Z M 71.1426 -56.4941 L 39.5996 -56.4941 C 38.4277 -56.4941 37.5977 -55.5664 37.5977 -54.4434 C 37.5977 -53.3203 38.4277 -52.3926 39.5996 -52.3926 L 71.1426 -52.3926 C 72.3145 -52.3926 73.1934 -53.3203 73.1934 -54.4434 C 73.1934 -55.5664 72.3145 -56.4941 71.1426 -56.4941 Z M 75.9277 -48.2422 L 34.8633 -48.2422 C 33.6426 -48.2422 32.7637 -47.168 32.7637 -45.9961 C 32.7637 -44.873 33.6426 -43.8965 34.8633 -43.8965 L 75.9277 -43.8965 C 77.0996 -43.8965 78.0273 -44.873 78.0273 -45.9961 C 78.0273 -47.168 77.0996 -48.2422 75.9277 -48.2422 Z"/>
  </g>
  <g id="Medium-S" transform="matrix(1 0 0 1 1691.31 696)">
   <path d="M 22.7051 -1.31836 L 87.7441 -1.31836 C 96.3379 -1.31836 100.732 -5.71289 100.732 -14.1602 L 100.732 -35.6934 C 100.732 -40.1855 100.049 -42.1875 97.998 -44.9219 L 85.9863 -61.0352 C 81.2988 -67.334 78.9062 -69.043 71.6797 -69.043 L 38.8184 -69.043 C 31.5918 -69.043 29.1992 -67.334 24.5117 -61.0352 L 12.5 -44.9219 C 10.4492 -42.1387 9.76562 -40.1855 9.76562 -35.6934 L 9.76562 -14.1602 C 9.76562 -5.71289 14.209 -1.31836 22.7051 -1.31836 Z M 55.2246 -25.3418 C 49.5117 -25.3418 46.0449 -29.9805 46.0449 -34.5215 L 46.0449 -34.7656 C 46.0449 -36.6699 44.9219 -38.4766 42.5293 -38.4766 L 20.2148 -38.4766 C 18.7012 -38.4766 18.4082 -39.7461 19.1406 -40.7715 L 32.5684 -59.0332 C 34.1797 -61.2793 36.2793 -62.1094 38.7695 -62.1094 L 71.7285 -62.1094 C 74.2188 -62.1094 76.2695 -61.2793 77.9297 -59.0332 L 91.3086 -40.7715 C 92.041 -39.7461 91.748 -38.4766 90.2344 -38.4766 L 67.9688 -38.4766 C 65.5762 -38.4766 64.4531 -36.6699 64.4531 -34.7656 L 64.4531 -34.5215 C 64.4531 -29.9805 60.9863 -25.3418 55.2246 -25.3418 Z M 71.0449 -56.6895 L 39.4531 -56.6895 C 38.3301 -56.6895 37.4512 -55.8105 37.4512 -54.6875 C 37.4512 -53.5645 38.3301 -52.6367 39.4531 -52.6367 L 71.0449 -52.6367 C 72.168 -52.6367 73.0469 -53.5645 73.0469 -54.6875 C 73.0469 -55.8105 72.168 -56.6895 71.0449 -56.6895 Z M 75.7812 -48.3398 L 34.668 -48.3398 C 33.4961 -48.3398 32.5684 -47.3145 32.5684 -46.1426 C 32.5684 -45.0195 33.4961 -44.043 34.668 -44.043 L 75.7812 -44.043 C 77.002 -44.043 77.8809 -45.0195 77.8809 -46.1426 C 77.8809 -47.3145 77.002 -48.3398 75.7812 -48.3398 Z"/>
  </g>
  <g id="Regular-S" transform="matrix(1 0 0 1 1394.79 696)">
   <path d="M 22.2168 -2.00195 L 87.8906 -2.00195 C 96.2402 -2.00195 100.342 -6.10352 100.342 -14.3066 L 100.342 -35.5469 C 100.342 -39.3555 99.7559 -41.1133 97.998 -43.5059 L 85.4492 -60.6445 C 81.0059 -66.748 78.6621 -68.4082 71.4355 -68.4082 L 38.6719 -68.4082 C 31.4941 -68.4082 29.1016 -66.748 24.6582 -60.6445 L 12.1582 -43.5059 C 10.4004 -41.1133 9.76562 -39.3555 9.76562 -35.5469 L 9.76562 -14.3066 C 9.76562 -6.10352 13.916 -2.00195 22.2168 -2.00195 Z M 55.0781 -24.7559 C 49.3652 -24.7559 45.9473 -29.7852 45.9473 -34.1309 L 45.9473 -34.2773 C 45.9473 -36.1328 44.8242 -37.9395 42.4316 -37.9395 L 18.9941 -37.9395 C 17.5781 -37.9395 17.2852 -39.1113 17.9688 -40.0879 L 31.4941 -58.9355 C 33.252 -61.4258 35.5469 -62.2559 38.2324 -62.2559 L 71.875 -62.2559 C 74.5605 -62.2559 76.9043 -61.4258 78.6621 -58.9355 L 92.1387 -40.0879 C 92.7734 -39.1113 92.5293 -37.9395 91.1133 -37.9395 L 67.6758 -37.9395 C 65.332 -37.9395 64.209 -36.1328 64.209 -34.2773 L 64.209 -34.1309 C 64.209 -29.7852 60.7422 -24.7559 55.0781 -24.7559 Z M 70.8984 -56.9824 L 39.2578 -56.9824 C 38.1348 -56.9824 37.2559 -56.1035 37.2559 -54.9805 C 37.2559 -53.8574 38.1348 -52.9785 39.2578 -52.9785 L 70.8984 -52.9785 C 72.0215 -52.9785 72.8516 -53.8574 72.8516 -54.9805 C 72.8516 -56.1035 72.0215 -56.9824 70.8984 -56.9824 Z M 75.6348 -48.5352 L 34.4727 -48.5352 C 33.3008 -48.5352 32.373 -47.5098 32.373 -46.3379 C 32.373 -45.2148 33.3008 -44.2383 34.4727 -44.2383 L 75.6348 -44.2383 C 76.8555 -44.2383 77.7344 -45.2148 77.7344 -46.3379 C 77.7344 -47.5098 76.8555 -48.5352 75.6348 -48.5352 Z"/>
  </g>
  <g id="Light-S" transform="matrix(1 0 0 1 1098.42 696)">
   <path d="M 21.3867 -2.97852 L 88.0371 -2.97852 C 95.752 -2.97852 99.6582 -6.83594 99.6582 -14.4531 L 99.6582 -35.498 C 99.6582 -38.6719 99.1699 -40.1367 97.6562 -42.1875 L 83.8379 -60.6934 C 79.9316 -66.0156 77.6855 -67.4316 71.2402 -67.4316 L 38.1836 -67.4316 C 31.7383 -67.4316 29.541 -66.0156 25.5859 -60.6934 L 11.7676 -42.1875 C 10.3027 -40.1367 9.76562 -38.6719 9.76562 -35.498 L 9.76562 -14.4531 C 9.76562 -6.83594 13.6719 -2.97852 21.3867 -2.97852 Z M 54.7363 -24.6094 C 48.877 -24.6094 45.0195 -29.541 45.0195 -34.5215 L 45.0195 -34.7168 C 45.0195 -36.2793 44.0918 -37.6953 42.1875 -37.6953 L 16.9922 -37.6953 C 15.8691 -37.6953 15.625 -38.6719 16.2109 -39.4043 L 30.8594 -59.3262 C 32.666 -61.7676 34.8633 -62.6465 37.7441 -62.6465 L 71.6797 -62.6465 C 74.5605 -62.6465 76.7578 -61.7676 78.5645 -59.3262 L 93.2129 -39.4043 C 93.75 -38.6719 93.5059 -37.6953 92.3828 -37.6953 L 67.2363 -37.6953 C 65.332 -37.6953 64.4043 -36.2793 64.4043 -34.7168 L 64.4043 -34.5215 C 64.4043 -29.541 60.5469 -24.6094 54.7363 -24.6094 Z M 71.0449 -56.7871 L 38.4277 -56.7871 C 37.4512 -56.7871 36.7676 -56.0547 36.7676 -55.0781 C 36.7676 -54.1016 37.4512 -53.3691 38.4277 -53.3691 L 71.0449 -53.3691 C 71.9727 -53.3691 72.7051 -54.1016 72.7051 -55.0781 C 72.7051 -56.0547 71.9727 -56.7871 71.0449 -56.7871 Z M 76.3672 -47.9492 L 33.1055 -47.9492 C 32.1289 -47.9492 31.3477 -47.0703 31.3477 -46.1426 C 31.3477 -45.166 32.1289 -44.3848 33.1055 -44.3848 L 76.3672 -44.3848 C 77.3438 -44.3848 78.0762 -45.166 78.0762 -46.1426 C 78.0762 -47.0703 77.3438 -47.9492 76.3672 -47.9492 Z"/>
  </g>
  <g id="Thin-S" transform="matrix(1 0 0 1 802.174 696)">
   <path d="M 20.3125 -4.19922 L 88.1836 -4.19922 C 95.1172 -4.19922 98.7305 -7.86133 98.7305 -14.6973 L 98.7305 -35.4004 C 98.7305 -37.793 98.3398 -38.8672 97.2168 -40.4297 L 81.7383 -60.6934 C 78.4668 -65.0391 76.416 -66.1621 70.9961 -66.1621 L 37.5488 -66.1621 C 32.0801 -66.1621 30.0293 -65.0391 26.7578 -60.6934 L 11.2793 -40.4297 C 10.1562 -38.8672 9.76562 -37.793 9.76562 -35.4004 L 9.76562 -14.6973 C 9.76562 -7.76367 13.3789 -4.19922 20.3125 -4.19922 Z M 54.248 -24.4629 C 48.2422 -24.4629 43.8477 -29.1992 43.8477 -35.0098 L 43.8477 -35.2539 C 43.8477 -36.4746 43.2129 -37.4023 41.8457 -37.4023 L 14.4043 -37.4023 C 13.6719 -37.4023 13.4766 -38.0371 13.8672 -38.5742 L 30.0781 -59.8145 C 31.8848 -62.207 33.9355 -63.1348 37.1094 -63.1348 L 71.4355 -63.1348 C 74.5605 -63.1348 76.6113 -62.207 78.4668 -59.8145 L 94.6289 -38.5742 C 95.0195 -38.0371 94.873 -37.4023 94.1406 -37.4023 L 66.6504 -37.4023 C 65.2832 -37.4023 64.6484 -36.4746 64.6484 -35.2539 L 64.6484 -35.0098 C 64.6484 -29.1992 60.2539 -24.4629 54.248 -24.4629 Z M 71.1914 -56.4941 L 37.3535 -56.4941 C 36.6211 -56.4941 36.084 -55.957 36.084 -55.1758 C 36.084 -54.4434 36.6211 -53.9551 37.3535 -53.9551 L 71.1914 -53.9551 C 71.9238 -53.9551 72.4609 -54.4434 72.4609 -55.1758 C 72.4609 -55.957 71.9238 -56.4941 71.1914 -56.4941 Z M 77.2461 -47.1191 L 31.2988 -47.1191 C 30.5664 -47.1191 30.0293 -46.582 30.0293 -45.8496 C 30.0293 -45.1172 30.5664 -44.5801 31.2988 -44.5801 L 77.2461 -44.5801 C 77.9785 -44.5801 78.5156 -45.1172 78.5156 -45.8496 C 78.5156 -46.582 77.9785 -47.1191 77.2461 -47.1191 Z"/>
  </g>
  <g id="Ultralight-S" transform="matrix(1 0 0 1 505.707 696)">
   <path d="M 19.7754 -4.83398 L 88.2812 -4.83398 C 94.8242 -4.83398 98.2422 -8.39844 98.2422 -14.7949 L 98.2422 -35.3516 C 98.2422 -37.3535 97.9492 -38.2324 96.9727 -39.502 L 80.6152 -60.7422 C 77.7344 -64.502 75.7812 -65.4785 70.8496 -65.4785 L 37.207 -65.4785 C 32.2266 -65.4785 30.3223 -64.502 27.3926 -60.7422 L 11.0352 -39.502 C 10.0586 -38.2324 9.76562 -37.3535 9.76562 -35.3516 L 9.76562 -14.7949 C 9.76562 -8.30078 13.2324 -4.83398 19.7754 -4.83398 Z M 54.0039 -24.3164 C 47.9492 -24.3164 43.2617 -29.0527 43.2617 -35.3027 L 43.2617 -35.5957 C 43.2617 -36.5723 42.7246 -37.2559 41.6992 -37.2559 L 13.0371 -37.2559 C 12.5 -37.2559 12.3535 -37.6953 12.6953 -38.1348 L 29.6387 -60.1074 C 31.4941 -62.4512 33.4473 -63.4277 36.7676 -63.4277 L 71.2891 -63.4277 C 74.5605 -63.4277 76.5137 -62.4512 78.3691 -60.1074 L 95.4102 -38.1348 C 95.7031 -37.6953 95.5566 -37.2559 95.0195 -37.2559 L 66.3086 -37.2559 C 65.2832 -37.2559 64.7461 -36.5723 64.7461 -35.5957 L 64.7461 -35.3027 C 64.7461 -29.0527 60.1074 -24.3164 54.0039 -24.3164 Z M 71.3379 -56.3477 L 36.8164 -56.3477 C 36.1816 -56.3477 35.7422 -55.9082 35.7422 -55.2734 C 35.7422 -54.6387 36.1816 -54.248 36.8164 -54.248 L 71.3379 -54.248 C 71.875 -54.248 72.3633 -54.6387 72.3633 -55.2734 C 72.3633 -55.9082 71.875 -56.3477 71.3379 -56.3477 Z M 77.7344 -46.7285 L 30.3711 -46.7285 C 29.7852 -46.7285 29.2969 -46.2891 29.2969 -45.7031 C 29.2969 -45.0684 29.7852 -44.6777 30.3711 -44.6777 L 77.7344 -44.6777 C 78.2715 -44.6777 78.7598 -45.0684 78.7598 -45.7031 C 78.7598 -46.2891 78.2715 -46.7285 77.7344 -46.7285 Z"/>
  </g>
 </g>
</svg>
