<?xml version="1.0" encoding="UTF-8"?>
<!--Generator: Apple Native CoreSVG 123-->
<!DOCTYPE svg
PUBLIC "-//W3C//DTD SVG 1.1//EN"
       "http://www.w3.org/Graphics/SVG/1.1/DTD/svg11.dtd">
<svg version="1.1" xmlns="http://www.w3.org/2000/svg" xmlns:xlink="http://www.w3.org/1999/xlink" width="3300" height="2200">
 <!--glyph: "uni100681.medium", point size: 100.000000, font version: "Version 15.0d7e11", template writer version: "5"-->
 <g id="Notes">
  <rect height="2200" id="artboard" style="fill:white;opacity:1" width="3300" x="0" y="0"/>
  <line id="" style="fill:none;stroke:black;opacity:1;stroke-width:0.5;" x1="263" x2="3036" y1="292" y2="292"/>
  <text style="stroke:none;fill:black;font-family:-apple-system,&quot;SF Pro Display&quot;,&quot;SF Pro Text&quot;,Helvetica,sans-serif;font-weight:bold;" transform="matrix(1 0 0 1 263 322)">Weight/Scale Variations</text>
  <text style="stroke:none;fill:black;font-family:-apple-system,&quot;SF Pro Display&quot;,&quot;SF Pro Text&quot;,Helvetica,sans-serif;text-anchor:middle;" transform="matrix(1 0 0 1 559.711 322)">Ultralight</text>
  <text style="stroke:none;fill:black;font-family:-apple-system,&quot;SF Pro Display&quot;,&quot;SF Pro Text&quot;,Helvetica,sans-serif;text-anchor:middle;" transform="matrix(1 0 0 1 856.422 322)">Thin</text>
  <text style="stroke:none;fill:black;font-family:-apple-system,&quot;SF Pro Display&quot;,&quot;SF Pro Text&quot;,Helvetica,sans-serif;text-anchor:middle;" transform="matrix(1 0 0 1 1153.13 322)">Light</text>
  <text style="stroke:none;fill:black;font-family:-apple-system,&quot;SF Pro Display&quot;,&quot;SF Pro Text&quot;,Helvetica,sans-serif;text-anchor:middle;" transform="matrix(1 0 0 1 1449.84 322)">Regular</text>
  <text style="stroke:none;fill:black;font-family:-apple-system,&quot;SF Pro Display&quot;,&quot;SF Pro Text&quot;,Helvetica,sans-serif;text-anchor:middle;" transform="matrix(1 0 0 1 1746.56 322)">Medium</text>
  <text style="stroke:none;fill:black;font-family:-apple-system,&quot;SF Pro Display&quot;,&quot;SF Pro Text&quot;,Helvetica,sans-serif;text-anchor:middle;" transform="matrix(1 0 0 1 2043.27 322)">Semibold</text>
  <text style="stroke:none;fill:black;font-family:-apple-system,&quot;SF Pro Display&quot;,&quot;SF Pro Text&quot;,Helvetica,sans-serif;text-anchor:middle;" transform="matrix(1 0 0 1 2339.98 322)">Bold</text>
  <text style="stroke:none;fill:black;font-family:-apple-system,&quot;SF Pro Display&quot;,&quot;SF Pro Text&quot;,Helvetica,sans-serif;text-anchor:middle;" transform="matrix(1 0 0 1 2636.69 322)">Heavy</text>
  <text style="stroke:none;fill:black;font-family:-apple-system,&quot;SF Pro Display&quot;,&quot;SF Pro Text&quot;,Helvetica,sans-serif;text-anchor:middle;" transform="matrix(1 0 0 1 2933.4 322)">Black</text>
  <line id="" style="fill:none;stroke:black;opacity:1;stroke-width:0.5;" x1="263" x2="3036" y1="1903" y2="1903"/>
  <g id="" transform="matrix(1 0 0 1 263 1933)">
   <path d="M 9.24805 0.830078 C 13.5547 0.830078 17.1387 -2.74414 17.1387 -7.05078 C 17.1387 -11.3574 13.5449 -14.9316 9.23828 -14.9316 C 4.94141 -14.9316 1.36719 -11.3574 1.36719 -7.05078 C 1.36719 -2.74414 4.95117 0.830078 9.24805 0.830078 Z M 9.24805 -0.654297 C 5.70312 -0.654297 2.87109 -3.49609 2.87109 -7.05078 C 2.87109 -10.6055 5.69336 -13.4473 9.23828 -13.4473 C 12.793 -13.4473 15.6348 -10.6055 15.6445 -7.05078 C 15.6543 -3.49609 12.8027 -0.654297 9.24805 -0.654297 Z M 9.22852 -3.42773 C 9.69727 -3.42773 9.9707 -3.74023 9.9707 -4.25781 L 9.9707 -6.31836 L 12.1973 -6.31836 C 12.6953 -6.31836 13.0371 -6.57227 13.0371 -7.04102 C 13.0371 -7.51953 12.7148 -7.7832 12.1973 -7.7832 L 9.9707 -7.7832 L 9.9707 -10.0098 C 9.9707 -10.5273 9.69727 -10.8496 9.22852 -10.8496 C 8.75977 -10.8496 8.50586 -10.5078 8.50586 -10.0098 L 8.50586 -7.7832 L 6.29883 -7.7832 C 5.78125 -7.7832 5.44922 -7.51953 5.44922 -7.04102 C 5.44922 -6.57227 5.80078 -6.31836 6.29883 -6.31836 L 8.50586 -6.31836 L 8.50586 -4.25781 C 8.50586 -3.75977 8.75977 -3.42773 9.22852 -3.42773 Z"/>
  </g>
  <g id="" transform="matrix(1 0 0 1 281.506 1933)">
   <path d="M 11.709 2.91016 C 17.1582 2.91016 21.6699 -1.60156 21.6699 -7.05078 C 21.6699 -12.4902 17.1484 -17.0117 11.6992 -17.0117 C 6.25977 -17.0117 1.74805 -12.4902 1.74805 -7.05078 C 1.74805 -1.60156 6.26953 2.91016 11.709 2.91016 Z M 11.709 1.25 C 7.09961 1.25 3.41797 -2.44141 3.41797 -7.05078 C 3.41797 -11.6504 7.08984 -15.3516 11.6992 -15.3516 C 16.3086 -15.3516 20 -11.6504 20.0098 -7.05078 C 20.0195 -2.44141 16.3184 1.25 11.709 1.25 Z M 11.6895 -2.41211 C 12.207 -2.41211 12.5195 -2.77344 12.5195 -3.33984 L 12.5195 -6.23047 L 15.5762 -6.23047 C 16.123 -6.23047 16.5039 -6.51367 16.5039 -7.03125 C 16.5039 -7.55859 16.1426 -7.86133 15.5762 -7.86133 L 12.5195 -7.86133 L 12.5195 -10.9277 C 12.5195 -11.5039 12.207 -11.8555 11.6895 -11.8555 C 11.1719 -11.8555 10.8789 -11.4844 10.8789 -10.9277 L 10.8789 -7.86133 L 7.83203 -7.86133 C 7.26562 -7.86133 6.89453 -7.55859 6.89453 -7.03125 C 6.89453 -6.51367 7.28516 -6.23047 7.83203 -6.23047 L 10.8789 -6.23047 L 10.8789 -3.33984 C 10.8789 -2.79297 11.1719 -2.41211 11.6895 -2.41211 Z"/>
  </g>
  <g id="" transform="matrix(1 0 0 1 304.924 1933)">
   <path d="M 14.9707 5.67383 C 21.9336 5.67383 27.6953 -0.078125 27.6953 -7.04102 C 27.6953 -14.0039 21.9238 -19.7559 14.9609 -19.7559 C 8.00781 -19.7559 2.25586 -14.0039 2.25586 -7.04102 C 2.25586 -0.078125 8.01758 5.67383 14.9707 5.67383 Z M 14.9707 3.85742 C 8.93555 3.85742 4.08203 -1.00586 4.08203 -7.04102 C 4.08203 -13.0762 8.92578 -17.9395 14.9609 -17.9395 C 21.0059 -17.9395 25.8594 -13.0762 25.8691 -7.04102 C 25.8789 -1.00586 21.0156 3.85742 14.9707 3.85742 Z M 14.9512 -1.06445 C 15.5176 -1.06445 15.8691 -1.45508 15.8691 -2.06055 L 15.8691 -6.13281 L 20.1074 -6.13281 C 20.6934 -6.13281 21.1133 -6.46484 21.1133 -7.02148 C 21.1133 -7.59766 20.7227 -7.93945 20.1074 -7.93945 L 15.8691 -7.93945 L 15.8691 -12.1875 C 15.8691 -12.8027 15.5176 -13.1934 14.9512 -13.1934 C 14.3848 -13.1934 14.0625 -12.7832 14.0625 -12.1875 L 14.0625 -7.93945 L 9.83398 -7.93945 C 9.21875 -7.93945 8.80859 -7.59766 8.80859 -7.02148 C 8.80859 -6.46484 9.23828 -6.13281 9.83398 -6.13281 L 14.0625 -6.13281 L 14.0625 -2.06055 C 14.0625 -1.47461 14.3848 -1.06445 14.9512 -1.06445 Z"/>
  </g>
  <text style="stroke:none;fill:black;font-family:-apple-system,&quot;SF Pro Display&quot;,&quot;SF Pro Text&quot;,Helvetica,sans-serif;font-weight:bold;" transform="matrix(1 0 0 1 263 1953)">Design Variations</text>
  <text style="stroke:none;fill:black;font-family:-apple-system,&quot;SF Pro Display&quot;,&quot;SF Pro Text&quot;,Helvetica,sans-serif;" transform="matrix(1 0 0 1 263 1971)">Symbols are supported in up to nine weights and three scales.</text>
  <text style="stroke:none;fill:black;font-family:-apple-system,&quot;SF Pro Display&quot;,&quot;SF Pro Text&quot;,Helvetica,sans-serif;" transform="matrix(1 0 0 1 263 1989)">For optimal layout with text and other symbols, vertically align</text>
  <text style="stroke:none;fill:black;font-family:-apple-system,&quot;SF Pro Display&quot;,&quot;SF Pro Text&quot;,Helvetica,sans-serif;" transform="matrix(1 0 0 1 263 2007)">symbols with the adjacent text.</text>
  <rect height="14" id="" style="fill:#00AEEF;stroke:none;opacity:0.4;" width="3" x="776" y="1919"/>
  <g id="" transform="matrix(1 0 0 1 779 1933)">
   <path d="M 10.5273 0 L 12.373 0 L 7.17773 -14.0918 L 5.43945 -14.0918 L 0.244141 0 L 2.08984 0 L 3.50586 -4.0332 L 9.11133 -4.0332 Z M 6.2793 -11.9531 L 6.33789 -11.9531 L 8.59375 -5.52734 L 4.02344 -5.52734 Z"/>
  </g>
  <rect height="14" id="" style="fill:#00AEEF;stroke:none;opacity:0.4;" width="3" x="791.617" y="1919"/>
  <text style="stroke:none;fill:black;font-family:-apple-system,&quot;SF Pro Display&quot;,&quot;SF Pro Text&quot;,Helvetica,sans-serif;font-weight:bold;" transform="matrix(1 0 0 1 776 1953)">Margins</text>
  <text style="stroke:none;fill:black;font-family:-apple-system,&quot;SF Pro Display&quot;,&quot;SF Pro Text&quot;,Helvetica,sans-serif;" transform="matrix(1 0 0 1 776 1971)">Leading and trailing margins on the left and right side of each symbol</text>
  <text style="stroke:none;fill:black;font-family:-apple-system,&quot;SF Pro Display&quot;,&quot;SF Pro Text&quot;,Helvetica,sans-serif;" transform="matrix(1 0 0 1 776 1989)">can be adjusted by modifying the width of the blue rectangles.</text>
  <text style="stroke:none;fill:black;font-family:-apple-system,&quot;SF Pro Display&quot;,&quot;SF Pro Text&quot;,Helvetica,sans-serif;" transform="matrix(1 0 0 1 776 2007)">Modifications are automatically applied proportionally to all</text>
  <text style="stroke:none;fill:black;font-family:-apple-system,&quot;SF Pro Display&quot;,&quot;SF Pro Text&quot;,Helvetica,sans-serif;" transform="matrix(1 0 0 1 776 2025)">scales and weights.</text>
  <g id="" transform="matrix(1 0 0 1 1289 1933)">
   <path d="M 2.83203 3.11523 L 4.375 4.6582 C 5.22461 5.48828 6.19141 5.41992 7.06055 4.46289 L 17.2754 -6.66016 C 17.7051 -6.36719 18.0957 -6.37695 18.5645 -6.47461 L 19.6094 -6.68945 L 20.3027 -5.99609 L 20.2539 -5.47852 C 20.1855 -4.95117 20.3516 -4.53125 20.8496 -4.0332 L 21.6602 -3.22266 C 22.168 -2.71484 22.8223 -2.68555 23.3008 -3.16406 L 26.5527 -6.41602 C 27.0312 -6.89453 27.0117 -7.54883 26.5039 -8.05664 L 25.6836 -8.87695 C 25.1855 -9.375 24.7754 -9.55078 24.2383 -9.47266 L 23.7109 -9.41406 L 23.0566 -10.0781 L 23.3398 -11.2207 C 23.4863 -11.7871 23.3398 -12.2559 22.7148 -12.8613 L 20.3027 -15.2539 C 16.7578 -18.7793 12.2266 -18.6719 9.11133 -15.5371 C 8.69141 -15.1074 8.64258 -14.5215 8.91602 -14.0918 C 9.15039 -13.7207 9.62891 -13.4961 10.2734 -13.6621 C 11.7871 -14.043 13.3008 -13.9258 14.7852 -12.9199 L 14.1602 -11.3379 C 13.9258 -10.752 13.9453 -10.2734 14.1797 -9.83398 L 3.01758 0.439453 C 2.08008 1.30859 1.97266 2.25586 2.83203 3.11523 Z M 10.6738 -15.1465 C 13.3398 -17.1387 16.6504 -16.8262 19.0527 -14.4141 L 21.6797 -11.8066 C 21.9141 -11.5723 21.9434 -11.3867 21.8848 -11.0938 L 21.5039 -9.53125 L 23.0762 -7.95898 L 24.043 -8.04688 C 24.3262 -8.07617 24.4141 -8.05664 24.6387 -7.83203 L 25.2637 -7.20703 L 22.5098 -4.46289 L 21.8848 -5.07812 C 21.6602 -5.30273 21.6406 -5.40039 21.6699 -5.68359 L 21.7578 -6.64062 L 20.1953 -8.20312 L 18.5742 -7.89062 C 18.291 -7.83203 18.1445 -7.83203 17.9102 -8.07617 L 15.7324 -10.2539 C 15.5078 -10.4883 15.4785 -10.625 15.6055 -10.9473 L 16.5527 -13.2227 C 14.9512 -14.7559 12.8418 -15.6055 10.8008 -14.9512 C 10.7129 -14.9219 10.6445 -14.9414 10.6152 -14.9805 C 10.5859 -15.0293 10.5859 -15.0781 10.6738 -15.1465 Z M 4.10156 2.41211 C 3.61328 1.91406 3.78906 1.61133 4.12109 1.30859 L 15.0781 -8.80859 L 16.3086 -7.57812 L 6.15234 3.34961 C 5.84961 3.68164 5.46875 3.7793 5.06836 3.37891 Z"/>
  </g>
  <text style="stroke:none;fill:black;font-family:-apple-system,&quot;SF Pro Display&quot;,&quot;SF Pro Text&quot;,Helvetica,sans-serif;font-weight:bold;" transform="matrix(1 0 0 1 1289 1953)">Exporting</text>
  <text style="stroke:none;fill:black;font-family:-apple-system,&quot;SF Pro Display&quot;,&quot;SF Pro Text&quot;,Helvetica,sans-serif;" transform="matrix(1 0 0 1 1289 1971)">Symbols should be outlined when exporting to ensure the</text>
  <text style="stroke:none;fill:black;font-family:-apple-system,&quot;SF Pro Display&quot;,&quot;SF Pro Text&quot;,Helvetica,sans-serif;" transform="matrix(1 0 0 1 1289 1989)">design is preserved when submitting to Xcode.</text>
  <text id="template-version" style="stroke:none;fill:black;font-family:-apple-system,&quot;SF Pro Display&quot;,&quot;SF Pro Text&quot;,Helvetica,sans-serif;text-anchor:end;" transform="matrix(1 0 0 1 3036 1933)">Template v.1.0</text>
  <text style="stroke:none;fill:black;font-family:-apple-system,&quot;SF Pro Display&quot;,&quot;SF Pro Text&quot;,Helvetica,sans-serif;text-anchor:end;" transform="matrix(1 0 0 1 3036 1951)">Generated from arrow.clockwise.circle</text>
  <text style="stroke:none;fill:black;font-family:-apple-system,&quot;SF Pro Display&quot;,&quot;SF Pro Text&quot;,Helvetica,sans-serif;text-anchor:end;" transform="matrix(1 0 0 1 3036 1969)">Typeset at 100 points</text>
  <text style="stroke:none;fill:black;font-family:-apple-system,&quot;SF Pro Display&quot;,&quot;SF Pro Text&quot;,Helvetica,sans-serif;" transform="matrix(1 0 0 1 263 726)">Small</text>
  <text style="stroke:none;fill:black;font-family:-apple-system,&quot;SF Pro Display&quot;,&quot;SF Pro Text&quot;,Helvetica,sans-serif;" transform="matrix(1 0 0 1 263 1156)">Medium</text>
  <text style="stroke:none;fill:black;font-family:-apple-system,&quot;SF Pro Display&quot;,&quot;SF Pro Text&quot;,Helvetica,sans-serif;" transform="matrix(1 0 0 1 263 1586)">Large</text>
 </g>
 <g id="Guides">
  <g id="H-reference" style="fill:#27AAE1;stroke:none;" transform="matrix(1 0 0 1 339 696)">
   <path d="M 54.9316 0 L 57.666 0 L 30.5664 -70.459 L 28.0762 -70.459 L 0.976562 0 L 3.66211 0 L 12.9395 -24.4629 L 45.7031 -24.4629 Z M 29.1992 -67.0898 L 29.4434 -67.0898 L 44.8242 -26.709 L 13.8184 -26.709 Z"/>
  </g>
  <line id="Baseline-S" style="fill:none;stroke:#27AAE1;opacity:1;stroke-width:0.577;" x1="263" x2="3036" y1="696" y2="696"/>
  <line id="Capline-S" style="fill:none;stroke:#27AAE1;opacity:1;stroke-width:0.577;" x1="263" x2="3036" y1="625.541" y2="625.541"/>
  <g id="H-reference" style="fill:#27AAE1;stroke:none;" transform="matrix(1 0 0 1 339 1126)">
   <path d="M 54.9316 0 L 57.666 0 L 30.5664 -70.459 L 28.0762 -70.459 L 0.976562 0 L 3.66211 0 L 12.9395 -24.4629 L 45.7031 -24.4629 Z M 29.1992 -67.0898 L 29.4434 -67.0898 L 44.8242 -26.709 L 13.8184 -26.709 Z"/>
  </g>
  <line id="Baseline-M" style="fill:none;stroke:#27AAE1;opacity:1;stroke-width:0.577;" x1="263" x2="3036" y1="1126" y2="1126"/>
  <line id="Capline-M" style="fill:none;stroke:#27AAE1;opacity:1;stroke-width:0.577;" x1="263" x2="3036" y1="1055.54" y2="1055.54"/>
  <g id="H-reference" style="fill:#27AAE1;stroke:none;" transform="matrix(1 0 0 1 339 1556)">
   <path d="M 54.9316 0 L 57.666 0 L 30.5664 -70.459 L 28.0762 -70.459 L 0.976562 0 L 3.66211 0 L 12.9395 -24.4629 L 45.7031 -24.4629 Z M 29.1992 -67.0898 L 29.4434 -67.0898 L 44.8242 -26.709 L 13.8184 -26.709 Z"/>
  </g>
  <line id="Baseline-L" style="fill:none;stroke:#27AAE1;opacity:1;stroke-width:0.577;" x1="263" x2="3036" y1="1556" y2="1556"/>
  <line id="Capline-L" style="fill:none;stroke:#27AAE1;opacity:1;stroke-width:0.577;" x1="263" x2="3036" y1="1485.54" y2="1485.54"/>
  <rect height="119.336" id="left-margin" style="fill:#00AEEF;stroke:none;opacity:0.4;" width="8.74023" x="1391.3" y="1030.79"/>
  <rect height="119.336" id="right-margin" style="fill:#00AEEF;stroke:none;opacity:0.4;" width="8.74023" x="1499.65" y="1030.79"/>
 </g>
 <g id="Symbols">
  <g id="Black-L" transform="matrix(1 0 0 1 2854.05 1556)">
   <path d="M 79.3457 32.8613 C 116.748 32.8613 147.412 2.19727 147.412 -35.2051 C 147.412 -72.6074 116.748 -103.271 79.2969 -103.271 C 41.8945 -103.271 11.2793 -72.6074 11.2793 -35.2051 C 11.2793 2.19727 41.9434 32.8613 79.3457 32.8613 Z M 79.3457 12.4023 C 52.9785 12.4023 31.7383 -8.83789 31.7383 -35.2051 C 31.7383 -61.5723 52.9297 -82.8125 79.2969 -82.8125 C 105.664 -82.8125 126.953 -61.5723 126.953 -35.2051 C 127.002 -8.83789 105.713 12.4023 79.3457 12.4023 Z M 51.8066 -32.4707 C 51.8066 -17.2363 64.209 -4.83398 79.2969 -4.83398 C 94.4336 -4.83398 106.836 -17.2363 106.836 -32.4219 C 106.836 -35.8398 104.004 -38.623 100.586 -38.623 C 97.0703 -38.623 94.2871 -35.8398 94.2871 -32.4219 C 94.2871 -24.0723 87.5977 -17.4316 79.2969 -17.4316 C 70.9961 -17.4316 64.3555 -24.1211 64.3555 -32.4219 C 64.3555 -38.9648 68.3594 -44.8242 73.8281 -45.8984 C 74.1699 -45.9961 74.6094 -46.1914 75.0488 -46.3867 L 73.6328 -44.8242 C 73.1934 -44.1406 72.9004 -43.0664 72.9004 -41.9922 C 72.9004 -38.3301 75.4395 -36.3281 78.7109 -36.3281 C 80.2734 -36.3281 81.8848 -37.0117 82.8613 -38.0371 L 93.457 -48.6816 C 95.752 -50.9277 95.6543 -54.7852 93.5547 -56.9336 L 82.959 -67.627 C 81.8848 -68.75 80.3711 -69.6777 78.5645 -69.6777 C 74.8535 -69.6777 72.8027 -67.041 72.8027 -64.4043 C 72.8027 -62.5977 73.584 -61.6211 74.2676 -60.6934 L 75.293 -59.5215 C 75 -59.4727 74.6094 -59.4238 74.2676 -59.375 C 61.9141 -57.666 51.8066 -46.1426 51.8066 -32.4707 Z"/>
  </g>
  <g id="Heavy-L" transform="matrix(1 0 0 1 2558.39 1556)">
   <path d="M 78.2715 31.7871 C 115.088 31.7871 145.312 1.61133 145.312 -35.2051 C 145.312 -72.0215 115.039 -102.197 78.2715 -102.197 C 41.4551 -102.197 11.2793 -72.0215 11.2793 -35.2051 C 11.2793 1.61133 41.5039 31.7871 78.2715 31.7871 Z M 78.2715 14.0137 C 51.0254 14.0137 29.0527 -7.95898 29.0527 -35.2051 C 29.0527 -62.5 50.9766 -84.4727 78.2715 -84.4727 C 105.518 -84.4727 127.49 -62.5 127.539 -35.2051 C 127.539 -7.95898 105.566 14.0137 78.2715 14.0137 Z M 50.6836 -32.4707 C 50.6836 -17.1387 63.0859 -4.73633 78.2715 -4.73633 C 93.457 -4.73633 105.811 -17.1387 105.811 -32.373 C 105.811 -35.4492 103.271 -37.9883 100.146 -37.9883 C 97.0215 -37.9883 94.4336 -35.4492 94.4336 -32.373 C 94.4336 -23.3398 87.2559 -16.1133 78.2715 -16.1133 C 69.2383 -16.1133 62.0605 -23.3887 62.0605 -32.373 C 62.0605 -39.9902 67.2363 -46.582 74.0723 -47.4121 C 74.6094 -47.5098 75.2441 -47.6074 75.8301 -47.7051 L 72.998 -44.8242 C 72.5098 -44.0918 72.2168 -43.1152 72.2168 -41.9922 C 72.2168 -38.7695 74.5117 -36.8652 77.4902 -36.8652 C 78.9062 -36.8652 80.3223 -37.5 81.2012 -38.4277 L 92.2852 -49.5117 C 94.3359 -51.5625 94.2871 -55.127 92.334 -57.0801 L 81.3477 -68.2129 C 80.3223 -69.2383 78.9551 -70.0684 77.3438 -70.0684 C 74.0723 -70.0684 72.1191 -67.6758 72.1191 -65.1855 C 72.1191 -63.5742 72.8027 -62.6465 73.4863 -61.7676 L 75.5859 -59.5215 C 75.1953 -59.4727 74.6582 -59.4727 74.1699 -59.4238 C 61.377 -58.1543 50.6836 -46.4844 50.6836 -32.4707 Z"/>
  </g>
  <g id="Bold-L" transform="matrix(1 0 0 1 2262.88 1556)">
   <path d="M 77.0996 30.6152 C 113.232 30.6152 142.92 0.878906 142.92 -35.2051 C 142.92 -71.3379 113.184 -101.025 77.0508 -101.025 C 40.9668 -101.025 11.2793 -71.3379 11.2793 -35.2051 C 11.2793 0.878906 41.0156 30.6152 77.0996 30.6152 Z M 77.0996 15.8691 C 48.8281 15.8691 26.0742 -6.93359 26.0742 -35.2051 C 26.0742 -63.4766 48.7793 -86.2793 77.0508 -86.2793 C 105.371 -86.2793 128.125 -63.4766 128.174 -35.2051 C 128.174 -6.93359 105.371 15.8691 77.0996 15.8691 Z M 49.4629 -32.4219 C 49.4629 -16.9922 61.8164 -4.58984 77.0508 -4.58984 C 92.334 -4.58984 104.688 -16.9922 104.688 -32.2754 C 104.688 -35.0098 102.393 -37.2559 99.707 -37.2559 C 96.9238 -37.2559 94.6289 -35.0098 94.6289 -32.2754 C 94.6289 -22.5098 86.8164 -14.6484 77.0508 -14.6484 C 67.2852 -14.6484 59.4727 -22.5098 59.4727 -32.2754 C 59.4727 -41.1621 65.9668 -48.584 74.3164 -49.1211 C 75.1465 -49.1699 76.0254 -49.2188 76.709 -49.2188 L 72.3145 -44.7754 C 71.7285 -44.0918 71.4355 -43.1152 71.4355 -42.041 C 71.4355 -39.2578 73.4375 -37.4512 76.0742 -37.4512 C 77.2949 -37.4512 78.5645 -38.0371 79.3457 -38.8672 L 90.918 -50.4883 C 92.7734 -52.2949 92.6758 -55.4688 90.9668 -57.2266 L 79.4922 -68.8965 C 78.6133 -69.7754 77.3926 -70.5078 75.9766 -70.5078 C 73.1445 -70.5078 71.3379 -68.4082 71.3379 -66.1133 C 71.3379 -64.6973 71.9238 -63.7695 72.5586 -62.9395 L 75.9766 -59.4727 C 75.4395 -59.5215 74.707 -59.5215 74.0723 -59.5215 C 60.7422 -58.6426 49.4629 -46.875 49.4629 -32.4219 Z"/>
  </g>
  <g id="Semibold-L" transform="matrix(1 0 0 1 1966.97 1556)">
   <path d="M 76.2695 29.7852 C 111.914 29.7852 141.309 0.439453 141.309 -35.2051 C 141.309 -70.8496 111.865 -100.244 76.2695 -100.244 C 40.625 -100.244 11.2793 -70.8496 11.2793 -35.2051 C 11.2793 0.439453 40.6738 29.7852 76.2695 29.7852 Z M 76.2695 17.0898 C 47.3145 17.0898 24.0234 -6.25 24.0234 -35.2051 C 24.0234 -64.209 47.2656 -87.5 76.2695 -87.5 C 105.225 -87.5 128.564 -64.209 128.613 -35.2051 C 128.662 -6.25 105.273 17.0898 76.2695 17.0898 Z M 48.584 -32.373 C 48.584 -16.8945 60.9375 -4.49219 76.2695 -4.49219 C 91.5527 -4.49219 103.906 -16.8945 103.906 -32.2266 C 103.906 -34.7168 101.807 -36.7676 99.3652 -36.7676 C 96.8262 -36.7676 94.7754 -34.7168 94.7754 -32.2266 C 94.7754 -21.9238 86.5723 -13.623 76.2695 -13.623 C 65.918 -13.623 57.7148 -21.9238 57.7148 -32.2266 C 57.7148 -41.9922 65.0879 -49.9512 74.5117 -50.293 C 75.4883 -50.293 76.5137 -50.293 77.3438 -50.2441 L 71.875 -44.7754 C 71.1914 -44.043 70.8984 -43.1152 70.8984 -42.041 C 70.8984 -39.5996 72.7051 -37.8906 75.0977 -37.8906 C 76.2207 -37.8906 77.3926 -38.3789 78.0762 -39.1113 L 89.9902 -51.123 C 91.6504 -52.7832 91.6016 -55.7129 90.0391 -57.373 L 78.2227 -69.3359 C 77.3926 -70.166 76.3184 -70.8008 75.0488 -70.8008 C 72.5098 -70.8008 70.8496 -68.8965 70.8496 -66.6992 C 70.8496 -65.4785 71.3379 -64.5508 71.9727 -63.7695 L 76.2207 -59.4727 C 75.5859 -59.5215 74.7559 -59.5703 74.0234 -59.5703 C 60.3027 -59.0332 48.584 -47.168 48.584 -32.373 Z"/>
  </g>
  <g id="Medium-L" transform="matrix(1 0 0 1 1670.87 1556)">
   <path d="M 75.6836 29.1992 C 110.938 29.1992 140.088 0.0488281 140.088 -35.2051 C 140.088 -70.459 110.889 -99.6094 75.6348 -99.6094 C 40.3809 -99.6094 11.2793 -70.459 11.2793 -35.2051 C 11.2793 0.0488281 40.3809 29.1992 75.6836 29.1992 Z M 75.6836 18.0664 C 46.1426 18.0664 22.4609 -5.71289 22.4609 -35.2051 C 22.4609 -64.6973 46.1426 -88.4766 75.6348 -88.4766 C 105.127 -88.4766 128.906 -64.6973 128.906 -35.2051 C 128.955 -5.71289 105.176 18.0664 75.6836 18.0664 Z M 47.9492 -32.3242 C 47.9492 -16.8457 60.3027 -4.44336 75.6348 -4.44336 C 91.0156 -4.44336 103.32 -16.8457 103.32 -32.2266 C 103.32 -34.4727 101.367 -36.377 99.1211 -36.377 C 96.7773 -36.377 94.873 -34.4727 94.873 -32.2266 C 94.873 -21.4844 86.3281 -12.8906 75.6348 -12.8906 C 64.8926 -12.8906 56.3477 -21.4355 56.3477 -32.2266 C 56.3477 -42.5781 64.4043 -50.9766 74.6582 -51.1719 C 75.7812 -51.1719 76.9043 -51.123 77.7832 -50.9766 L 71.4844 -44.7266 C 70.8008 -43.9941 70.459 -43.1152 70.459 -42.041 C 70.459 -39.8438 72.168 -38.1836 74.3652 -38.1836 C 75.3906 -38.1836 76.4648 -38.6719 77.0996 -39.3555 L 89.3066 -51.6113 C 90.8203 -53.125 90.7715 -55.9082 89.3066 -57.4219 L 77.2461 -69.7266 C 76.5137 -70.5078 75.4883 -71.0449 74.3164 -71.0449 C 72.0215 -71.0449 70.4102 -69.2871 70.4102 -67.1875 C 70.4102 -66.0645 70.8496 -65.1367 71.4844 -64.4043 L 76.416 -59.4727 C 75.6836 -59.5215 74.8047 -59.6191 73.9746 -59.6191 C 60.0098 -59.2773 47.9492 -47.3633 47.9492 -32.3242 Z"/>
  </g>
  <g id="Regular-L" transform="matrix(1 0 0 1 1374.97 1556)">
   <path d="M 74.8535 28.3691 C 109.668 28.3691 138.477 -0.390625 138.477 -35.2051 C 138.477 -70.0195 109.619 -98.7793 74.8047 -98.7793 C 40.0391 -98.7793 11.2793 -70.0195 11.2793 -35.2051 C 11.2793 -0.390625 40.0879 28.3691 74.8535 28.3691 Z M 74.8535 19.2871 C 44.6777 19.2871 20.4102 -5.0293 20.4102 -35.2051 C 20.4102 -65.3809 44.6289 -89.6973 74.8047 -89.6973 C 105.029 -89.6973 129.297 -65.3809 129.346 -35.2051 C 129.395 -5.0293 105.078 19.2871 74.8535 19.2871 Z M 47.0703 -32.3242 C 47.0703 -16.748 59.4238 -4.3457 74.8047 -4.3457 C 90.2344 -4.3457 102.539 -16.748 102.539 -32.1777 C 102.539 -34.1797 100.781 -35.8887 98.7793 -35.8887 C 96.7285 -35.8887 95.0195 -34.1797 95.0195 -32.1777 C 95.0195 -20.8984 86.0352 -11.8652 74.8047 -11.8652 C 63.5742 -11.8652 54.5898 -20.8496 54.5898 -32.1777 C 54.5898 -43.4082 63.5742 -52.2949 74.8047 -52.2949 C 76.123 -52.2949 77.3926 -52.2461 78.418 -52.002 L 71.0449 -44.7266 C 70.3125 -43.9941 69.9219 -43.1152 69.9219 -42.0898 C 69.9219 -40.1367 71.4355 -38.623 73.4375 -38.623 C 74.3164 -38.623 75.2441 -39.0625 75.8301 -39.6484 L 88.3789 -52.2949 C 89.7461 -53.6133 89.6973 -56.1523 88.3789 -57.5684 L 76.0254 -70.166 C 75.3418 -70.8496 74.4141 -71.3379 73.3887 -71.3379 C 71.4355 -71.3379 69.9219 -69.7754 69.9219 -67.7734 C 69.9219 -66.8457 70.2637 -65.918 70.8984 -65.2344 L 76.6602 -59.4238 C 75.8301 -59.5215 74.8535 -59.668 73.877 -59.668 C 59.5703 -59.668 47.0703 -47.6562 47.0703 -32.3242 Z"/>
  </g>
  <g id="Light-L" transform="matrix(1 0 0 1 1079.18 1556)">
   <path d="M 73.9258 27.4902 C 108.301 27.4902 136.621 -0.830078 136.621 -35.1562 C 136.621 -69.5312 108.252 -97.8516 73.9258 -97.8516 C 39.5508 -97.8516 11.2793 -69.5312 11.2793 -35.1562 C 11.2793 -0.830078 39.5996 27.4902 73.9258 27.4902 Z M 73.9258 20.6055 C 43.1152 20.6055 18.2129 -4.3457 18.2129 -35.1562 C 18.2129 -66.0156 43.0664 -90.918 73.9258 -90.918 C 104.736 -90.918 129.688 -66.0156 129.736 -35.1562 C 129.736 -4.3457 104.785 20.6055 73.9258 20.6055 Z M 46.6309 -32.2754 C 46.6309 -16.9434 58.7402 -4.83398 73.9258 -4.83398 C 89.1113 -4.83398 101.123 -16.9434 101.123 -32.1777 C 101.123 -33.7891 99.7559 -35.1562 98.1934 -35.1562 C 96.4844 -35.1562 95.166 -33.7891 95.166 -32.1777 C 95.166 -20.2637 85.7422 -10.791 73.9258 -10.791 C 62.0117 -10.791 52.6367 -20.2148 52.6367 -32.1777 C 52.6367 -44.043 62.0117 -53.3691 73.9258 -53.3691 C 75.9277 -53.3691 77.7832 -53.2227 79.248 -52.8809 L 70.2148 -43.8965 C 69.5312 -43.2129 69.2383 -42.4805 69.2383 -41.5527 C 69.2383 -40.0391 70.459 -38.7695 72.0703 -38.7695 C 72.8027 -38.7695 73.5352 -39.1602 74.0234 -39.5996 L 86.9629 -52.832 C 88.0859 -54.0039 88.1348 -56.0547 86.9629 -57.3242 L 74.2188 -70.3613 C 73.6328 -70.9961 72.8516 -71.4355 72.0215 -71.4355 C 70.4102 -71.4355 69.1895 -70.166 69.1895 -68.5547 C 69.1895 -67.7734 69.3848 -67.041 69.9707 -66.4062 L 77.4902 -58.8867 C 76.2695 -59.0332 74.8047 -59.2285 73.3398 -59.2285 C 58.8379 -59.2285 46.6309 -47.4121 46.6309 -32.2754 Z"/>
  </g>
  <g id="Thin-L" transform="matrix(1 0 0 1 783.693 1556)">
   <path d="M 72.7051 26.3184 C 106.494 26.3184 134.18 -1.36719 134.18 -35.1074 C 134.18 -68.8965 106.494 -96.582 72.7051 -96.582 C 38.9648 -96.582 11.2793 -68.8965 11.2793 -35.1074 C 11.2793 -1.36719 38.9648 26.3184 72.7051 26.3184 Z M 72.7051 22.3145 C 41.0156 22.3145 15.2832 -3.41797 15.2832 -35.1074 C 15.2832 -66.8457 41.0156 -92.5781 72.7051 -92.5781 C 104.395 -92.5781 130.176 -66.8457 130.176 -35.1074 C 130.176 -3.41797 104.443 22.3145 72.7051 22.3145 Z M 46.0938 -32.2266 C 46.0938 -17.2363 57.8613 -5.51758 72.7051 -5.51758 C 87.6465 -5.51758 99.2676 -17.2363 99.2676 -32.2266 C 99.2676 -33.252 98.3398 -34.1797 97.3633 -34.1797 C 96.1914 -34.1797 95.3613 -33.252 95.3613 -32.2266 C 95.3613 -19.4824 85.3516 -9.42383 72.7051 -9.42383 C 60.0098 -9.42383 50 -19.3848 50 -32.2266 C 50 -44.873 60.0098 -54.7852 72.7051 -54.7852 C 75.6348 -54.7852 78.2227 -54.541 80.3711 -54.0039 L 69.1406 -42.8223 C 68.5059 -42.1387 68.3105 -41.6016 68.3105 -40.918 C 68.3105 -39.8926 69.1406 -39.0137 70.3125 -39.0137 C 70.752 -39.0137 71.2891 -39.2578 71.582 -39.5508 L 85.1074 -53.5645 C 85.9375 -54.4434 86.0352 -55.957 85.1074 -56.9824 L 71.875 -70.6055 C 71.3867 -71.1914 70.8496 -71.5332 70.2148 -71.5332 C 69.043 -71.5332 68.2129 -70.7031 68.2129 -69.5312 C 68.2129 -69.043 68.2617 -68.5059 68.7988 -67.9688 L 78.6133 -58.1543 C 76.8555 -58.3496 74.7559 -58.6426 72.6074 -58.6426 C 57.8613 -58.6426 46.0938 -47.1191 46.0938 -32.2266 Z"/>
  </g>
  <g id="Ultralight-L" transform="matrix(1 0 0 1 487.616 1556)">
   <path d="M 72.1191 25.7324 C 105.566 25.7324 132.91 -1.61133 132.91 -35.1074 C 132.91 -68.5547 105.566 -95.8984 72.1191 -95.8984 C 38.623 -95.8984 11.2793 -68.5547 11.2793 -35.1074 C 11.2793 -1.61133 38.623 25.7324 72.1191 25.7324 Z M 72.1191 23.2422 C 39.9414 23.2422 13.7695 -2.97852 13.7695 -35.1074 C 13.7695 -67.2363 39.9414 -93.4082 72.1191 -93.4082 C 104.248 -93.4082 130.42 -67.2363 130.42 -35.1074 C 130.42 -2.97852 104.248 23.2422 72.1191 23.2422 Z M 45.8008 -32.1777 C 45.8008 -17.4316 57.373 -5.85938 72.1191 -5.85938 C 86.9141 -5.85938 98.3398 -17.4316 98.3398 -32.2266 C 98.3398 -32.959 97.6074 -33.6426 96.9727 -33.6426 C 96.0449 -33.6426 95.459 -32.959 95.459 -32.2266 C 95.459 -19.043 85.1562 -8.69141 72.1191 -8.69141 C 58.9355 -8.69141 48.6816 -18.9941 48.6816 -32.2266 C 48.6816 -45.2637 58.9355 -55.4688 72.1191 -55.4688 C 75.4395 -55.4688 78.4668 -55.2246 80.957 -54.5898 L 68.6035 -42.2363 C 67.9688 -41.6016 67.8223 -41.1621 67.8223 -40.5762 C 67.8223 -39.7949 68.457 -39.1113 69.3848 -39.1113 C 69.7266 -39.1113 70.166 -39.3066 70.3613 -39.502 L 84.1797 -53.9551 C 84.8145 -54.6875 85.0098 -55.9082 84.1797 -56.8359 L 70.7031 -70.7031 C 70.2148 -71.2402 69.8242 -71.582 69.2871 -71.582 C 68.3594 -71.582 67.7246 -70.9473 67.7246 -70.0195 C 67.7246 -69.6777 67.6758 -69.2383 68.1641 -68.7988 L 79.1992 -57.7637 C 77.0996 -58.0078 74.707 -58.3496 72.2168 -58.3496 C 57.373 -58.3496 45.8008 -46.9238 45.8008 -32.1777 Z"/>
  </g>
  <g id="Black-M" transform="matrix(1 0 0 1 2870.97 1126)">
   <path d="M 62.4023 18.457 C 91.9922 18.457 116.113 -5.61523 116.113 -35.2051 C 116.113 -64.7949 91.9922 -88.8672 62.4023 -88.8672 C 32.8125 -88.8672 8.74023 -64.7949 8.74023 -35.2051 C 8.74023 -5.61523 32.8125 18.457 62.4023 18.457 Z M 62.4023 0.195312 C 42.8711 0.195312 27.002 -15.625 27.002 -35.2051 C 27.002 -54.7363 42.8711 -70.6055 62.4023 -70.6055 C 81.9824 -70.6055 97.8027 -54.7363 97.8027 -35.2051 C 97.8027 -15.625 81.9824 0.195312 62.4023 0.195312 Z M 41.4551 -33.1543 C 41.4551 -21.582 50.9277 -12.1094 62.4023 -12.1094 C 73.9258 -12.1094 83.3984 -21.582 83.3984 -33.1543 C 83.3984 -36.0352 81.0547 -38.3301 78.1738 -38.3301 C 75.2441 -38.3301 72.9004 -36.0352 72.9004 -33.1543 C 72.9004 -27.2949 68.2129 -22.6562 62.4023 -22.6562 C 56.543 -22.6562 51.9043 -27.3438 51.9043 -33.1543 C 51.9043 -37.0605 53.6621 -40.8691 56.3965 -41.9922 C 56.7383 -42.1387 57.1289 -42.334 57.5684 -42.5781 L 57.4707 -42.2852 C 57.2266 -41.7969 57.0801 -40.9668 57.0801 -40.1367 C 57.0801 -37.0117 59.2285 -35.4492 61.9629 -35.4492 C 63.2812 -35.4492 64.6973 -36.0352 65.4785 -36.9141 L 73.3398 -44.7754 C 75.2441 -46.7285 75.1953 -49.9512 73.3887 -51.7578 L 65.5762 -59.6191 C 64.5996 -60.5957 63.3789 -61.4746 61.7676 -61.4746 C 58.5938 -61.4746 56.9824 -59.1797 56.9824 -57.1289 C 56.9824 -55.5664 57.666 -54.8828 58.1543 -54.1504 L 58.3496 -53.8086 C 58.1055 -53.7598 57.7148 -53.6621 57.4219 -53.6133 C 48.3398 -51.7578 41.4551 -43.0664 41.4551 -33.1543 Z"/>
  </g>
  <g id="Heavy-M" transform="matrix(1 0 0 1 2575.19 1126)">
   <path d="M 61.5234 17.5781 C 90.5273 17.5781 114.258 -6.15234 114.258 -35.2051 C 114.258 -64.2578 90.5273 -87.9883 61.4746 -87.9883 C 32.4707 -87.9883 8.74023 -64.2578 8.74023 -35.2051 C 8.74023 -6.15234 32.4707 17.5781 61.5234 17.5781 Z M 61.5234 1.66016 C 41.1133 1.66016 24.6582 -14.8438 24.6582 -35.2051 C 24.6582 -55.5664 41.1133 -72.0703 61.4746 -72.0703 C 81.8848 -72.0703 98.3398 -55.5664 98.3398 -35.2051 C 98.3398 -14.8438 81.8848 1.66016 61.5234 1.66016 Z M 40.332 -33.1055 C 40.332 -21.3867 49.8535 -11.8652 61.4746 -11.8652 C 73.1445 -11.8652 82.666 -21.3867 82.666 -33.0566 C 82.666 -35.6934 80.5176 -37.8418 77.8809 -37.8418 C 75.1953 -37.8418 73.0469 -35.6934 73.0469 -33.0566 C 73.0469 -26.6113 67.9199 -21.4844 61.4746 -21.4844 C 55.0293 -21.4844 49.9023 -26.6602 49.9023 -33.0566 C 49.9023 -38.0371 52.832 -42.4805 56.8848 -43.3594 C 57.2754 -43.457 57.7637 -43.6035 58.2031 -43.7988 L 56.9824 -42.4805 C 56.6895 -41.9434 56.4941 -41.1621 56.4941 -40.332 C 56.4941 -37.5 58.4473 -35.9863 60.9863 -35.9863 C 62.1582 -35.9863 63.4277 -36.5234 64.1602 -37.3047 L 72.3633 -45.5566 C 74.1211 -47.3145 74.0723 -50.293 72.4121 -51.9531 L 64.209 -60.2539 C 63.3789 -61.084 62.207 -61.8652 60.8398 -61.8652 C 57.959 -61.8652 56.3965 -59.8145 56.3965 -57.8125 C 56.3965 -56.4453 57.0312 -55.7129 57.5195 -55.0293 L 58.4961 -53.9062 C 58.2031 -53.9062 57.8125 -53.8574 57.4219 -53.8086 C 47.9492 -52.3926 40.332 -43.5059 40.332 -33.1055 Z"/>
  </g>
  <g id="Bold-M" transform="matrix(1 0 0 1 2279.5 1126)">
   <path d="M 60.498 16.5039 C 88.8672 16.5039 112.207 -6.78711 112.207 -35.2051 C 112.207 -63.623 88.8672 -86.9629 60.4492 -86.9629 C 32.0312 -86.9629 8.74023 -63.623 8.74023 -35.2051 C 8.74023 -6.78711 32.0801 16.5039 60.498 16.5039 Z M 60.498 3.22266 C 39.1602 3.22266 22.0703 -13.916 22.0703 -35.2051 C 22.0703 -56.4941 39.1602 -73.6816 60.4492 -73.6816 C 81.7383 -73.6816 98.9258 -56.4941 98.9258 -35.2051 C 98.9746 -13.916 81.7871 3.22266 60.498 3.22266 Z M 39.0625 -33.0566 C 39.0625 -21.1914 48.6816 -11.5723 60.4492 -11.5723 C 72.2656 -11.5723 81.8359 -21.1914 81.8359 -33.0078 C 81.8359 -35.3516 79.8828 -37.2559 77.5391 -37.2559 C 75.1465 -37.2559 73.2422 -35.3516 73.2422 -33.0078 C 73.2422 -25.8789 67.5293 -20.166 60.4492 -20.166 C 53.3203 -20.166 47.6562 -25.8789 47.6562 -33.0078 C 47.6562 -39.1113 51.9043 -44.3359 57.4707 -44.9219 C 57.9102 -45.0195 58.4473 -45.0684 58.9355 -45.166 L 56.4941 -42.6758 C 56.0547 -42.1387 55.8594 -41.3574 55.8594 -40.4785 C 55.8594 -38.0371 57.5684 -36.6211 59.8145 -36.6211 C 60.8887 -36.6211 61.9629 -37.0605 62.6465 -37.793 L 71.2891 -46.4355 C 72.8516 -47.998 72.8027 -50.6836 71.3379 -52.1973 L 62.7441 -60.9375 C 61.9629 -61.6699 60.9375 -62.3047 59.7168 -62.3047 C 57.2754 -62.3047 55.7617 -60.498 55.7617 -58.5938 C 55.7617 -57.373 56.2988 -56.6406 56.7871 -55.957 L 58.6426 -54.0527 C 58.3008 -54.0527 57.8613 -54.0527 57.4707 -54.0039 C 47.4609 -53.0762 39.0625 -44.043 39.0625 -33.0566 Z"/>
  </g>
  <g id="Semibold-M" transform="matrix(1 0 0 1 1983.5 1126)">
   <path d="M 59.7656 15.8203 C 87.7441 15.8203 110.791 -7.22656 110.791 -35.2051 C 110.791 -63.1836 87.6953 -86.2793 59.7656 -86.2793 C 31.7871 -86.2793 8.74023 -63.1836 8.74023 -35.2051 C 8.74023 -7.22656 31.7871 15.8203 59.7656 15.8203 Z M 59.7656 4.3457 C 37.8418 4.3457 20.2637 -13.2812 20.2637 -35.2051 C 20.2637 -57.1289 37.793 -74.8047 59.7656 -74.8047 C 81.6895 -74.8047 99.3164 -57.1289 99.3652 -35.2051 C 99.3652 -13.2812 81.6895 4.3457 59.7656 4.3457 Z M 38.2324 -33.0566 C 38.2324 -21.0449 47.8516 -11.377 59.7656 -11.377 C 71.6309 -11.377 81.25 -21.0449 81.25 -32.959 C 81.25 -35.1074 79.4434 -36.8652 77.2949 -36.8652 C 75.1465 -36.8652 73.3398 -35.1074 73.3398 -32.959 C 73.3398 -25.3418 67.2852 -19.2871 59.7656 -19.2871 C 52.1484 -19.2871 46.1426 -25.3906 46.1426 -32.959 C 46.1426 -39.8926 51.2695 -45.6543 57.8125 -45.9961 C 58.3496 -46.0449 58.9355 -46.0938 59.4238 -46.0938 L 56.1035 -42.8223 C 55.6641 -42.2363 55.3711 -41.4551 55.3711 -40.625 C 55.3711 -38.4277 56.9824 -37.0117 59.0332 -37.0117 C 60.0098 -37.0117 60.9863 -37.4512 61.6211 -38.0859 L 70.5566 -47.0703 C 72.0215 -48.4863 71.9238 -50.9766 70.6055 -52.3926 L 61.7188 -61.377 C 61.0352 -62.0605 60.0586 -62.6465 58.9844 -62.6465 C 56.7871 -62.6465 55.3223 -60.9375 55.3223 -59.1309 C 55.3223 -58.0566 55.8105 -57.2754 56.2988 -56.6406 L 58.7402 -54.1504 C 58.3984 -54.1504 57.9102 -54.1504 57.5195 -54.1504 C 47.168 -53.5645 38.2324 -44.3848 38.2324 -33.0566 Z"/>
  </g>
  <g id="Medium-M" transform="matrix(1 0 0 1 1687.3 1126)">
   <path d="M 59.2285 15.2832 C 86.9141 15.2832 109.766 -7.56836 109.766 -35.2051 C 109.766 -62.8906 86.8652 -85.7422 59.1797 -85.7422 C 31.543 -85.7422 8.74023 -62.8906 8.74023 -35.2051 C 8.74023 -7.56836 31.5918 15.2832 59.2285 15.2832 Z M 59.2285 5.17578 C 36.8164 5.17578 18.8965 -12.8418 18.8965 -35.2051 C 18.8965 -57.6172 36.8164 -75.6348 59.1797 -75.6348 C 81.5918 -75.6348 99.6094 -57.6172 99.6582 -35.2051 C 99.707 -12.8418 81.6406 5.17578 59.2285 5.17578 Z M 37.5977 -33.0078 C 37.5977 -20.8984 47.2656 -11.2305 59.1797 -11.2305 C 71.1914 -11.2305 80.8105 -20.8984 80.8105 -32.9102 C 80.8105 -34.9121 79.1504 -36.5723 77.1484 -36.5723 C 75.0977 -36.5723 73.4375 -34.9121 73.4375 -32.9102 C 73.4375 -24.9512 67.0898 -18.6035 59.1797 -18.6035 C 51.2695 -18.6035 44.9707 -24.9512 44.9707 -32.9102 C 44.9707 -40.4785 50.7812 -46.6309 58.1055 -46.8262 C 58.6914 -46.8262 59.3262 -46.8262 59.7656 -46.8262 L 55.8594 -42.9199 C 55.3223 -42.334 55.0293 -41.5527 55.0293 -40.6738 C 55.0293 -38.7207 56.543 -37.3535 58.4473 -37.3535 C 59.3262 -37.3535 60.2539 -37.7441 60.8398 -38.3301 L 70.0195 -47.5098 C 71.3379 -48.8281 71.2891 -51.1719 70.0195 -52.4902 L 60.9375 -61.7188 C 60.3027 -62.4023 59.4238 -62.8418 58.3984 -62.8418 C 56.3965 -62.8418 55.0293 -61.3281 55.0293 -59.5215 C 55.0293 -58.5449 55.4199 -57.7637 55.9082 -57.1777 L 58.7891 -54.1992 C 58.4473 -54.248 57.959 -54.248 57.5195 -54.248 C 46.9238 -53.9062 37.5977 -44.6289 37.5977 -33.0078 Z"/>
  </g>
  <g id="Regular-M" transform="matrix(1 0 0 1 1391.3 1126)">
   <path d="M 58.5449 14.5508 C 85.791 14.5508 108.35 -8.00781 108.35 -35.2539 C 108.35 -62.4512 85.7422 -85.0586 58.4961 -85.0586 C 31.2988 -85.0586 8.74023 -62.4512 8.74023 -35.2539 C 8.74023 -8.00781 31.3477 14.5508 58.5449 14.5508 Z M 58.5449 6.25 C 35.498 6.25 17.0898 -12.207 17.0898 -35.2539 C 17.0898 -58.252 35.4492 -76.7578 58.4961 -76.7578 C 81.543 -76.7578 100 -58.252 100.049 -35.2539 C 100.098 -12.207 81.5918 6.25 58.5449 6.25 Z M 36.7188 -33.0078 C 36.7188 -20.8008 46.4355 -10.9863 58.4961 -10.9863 C 70.5566 -10.9863 80.2734 -20.8008 80.2734 -32.8613 C 80.2734 -34.668 78.7109 -36.1328 76.9043 -36.1328 C 75.0977 -36.1328 73.5352 -34.668 73.5352 -32.8613 C 73.5352 -24.4629 66.8457 -17.7246 58.4961 -17.7246 C 50.1465 -17.7246 43.457 -24.4629 43.457 -32.8613 C 43.457 -41.2109 50.1465 -47.8516 58.4961 -47.8516 C 59.1309 -47.8516 59.8145 -47.8516 60.3027 -47.7539 L 55.5176 -43.0664 C 54.9316 -42.4805 54.5898 -41.6992 54.5898 -40.8203 C 54.5898 -39.1113 55.957 -37.7441 57.666 -37.7441 C 58.4961 -37.7441 59.2773 -38.1348 59.8145 -38.6719 L 69.2871 -48.1445 C 70.5078 -49.2676 70.4102 -51.4648 69.2871 -52.6367 L 59.9121 -62.207 C 59.3262 -62.793 58.5449 -63.1836 57.666 -63.1836 C 55.9082 -63.1836 54.5898 -61.7676 54.5898 -60.0586 C 54.5898 -59.1797 54.9316 -58.3984 55.4199 -57.8125 L 58.8867 -54.2969 C 58.5449 -54.3457 58.0078 -54.3945 57.5684 -54.3945 C 46.582 -54.3945 36.7188 -44.9707 36.7188 -33.0078 Z"/>
  </g>
  <g id="Light-M" transform="matrix(1 0 0 1 1095.42 1126)">
   <path d="M 57.7148 13.7695 C 84.5215 13.7695 106.689 -8.39844 106.689 -35.2051 C 106.689 -62.0117 84.5215 -84.1797 57.666 -84.1797 C 30.8594 -84.1797 8.74023 -62.0117 8.74023 -35.2051 C 8.74023 -8.39844 30.9082 13.7695 57.7148 13.7695 Z M 57.7148 7.4707 C 34.082 7.4707 15.0879 -11.5723 15.0879 -35.2051 C 15.0879 -58.8379 34.082 -77.832 57.666 -77.832 C 81.2988 -77.832 100.342 -58.8379 100.391 -35.2051 C 100.391 -11.5723 81.3477 7.4707 57.7148 7.4707 Z M 36.3281 -32.959 C 36.3281 -20.9961 45.8496 -11.4746 57.666 -11.4746 C 69.5801 -11.4746 79.0039 -20.9961 79.0039 -32.8613 C 79.0039 -34.2773 77.7832 -35.498 76.3672 -35.498 C 74.9023 -35.498 73.6816 -34.2773 73.6816 -32.8613 C 73.6816 -23.9258 66.6016 -16.7969 57.666 -16.7969 C 48.7305 -16.7969 41.6504 -23.877 41.6504 -32.8613 C 41.6504 -41.748 48.7305 -48.8281 57.666 -48.8281 C 58.9355 -48.8281 60.1074 -48.7305 61.0352 -48.5352 L 54.7852 -42.334 C 54.1992 -41.748 53.9551 -41.1133 53.9551 -40.3809 C 53.9551 -39.0137 55.0293 -37.8906 56.4453 -37.8906 C 57.0801 -37.8906 57.7637 -38.2324 58.1543 -38.623 L 68.0176 -48.6328 C 68.9941 -49.6094 68.9941 -51.416 68.0176 -52.4414 L 58.3496 -62.3535 C 57.8125 -62.8906 57.1777 -63.2324 56.4453 -63.2324 C 55.0293 -63.2324 53.9551 -62.1094 53.9551 -60.6934 C 53.9551 -60.0586 54.1504 -59.375 54.6387 -58.8867 L 59.668 -53.8086 C 58.9355 -53.9062 57.959 -54.0039 57.0801 -54.0039 C 45.9473 -54.0039 36.3281 -44.7754 36.3281 -32.959 Z"/>
  </g>
  <g id="Thin-M" transform="matrix(1 0 0 1 799.806 1126)">
   <path d="M 56.6406 12.7441 C 82.9102 12.7441 104.492 -8.83789 104.492 -35.1562 C 104.492 -61.4746 82.9102 -83.0566 56.5918 -83.0566 C 30.3223 -83.0566 8.74023 -61.4746 8.74023 -35.1562 C 8.74023 -8.83789 30.3223 12.7441 56.6406 12.7441 Z M 56.6406 8.98438 C 32.2266 8.98438 12.4512 -10.791 12.4512 -35.1562 C 12.4512 -59.5215 32.2266 -79.2969 56.5918 -79.2969 C 81.0059 -79.2969 100.781 -59.5215 100.781 -35.1562 C 100.781 -10.791 81.0059 8.98438 56.6406 8.98438 Z M 35.8398 -32.9102 C 35.8398 -21.2402 45.0195 -12.0605 56.5918 -12.0605 C 68.2617 -12.0605 77.3438 -21.2402 77.3438 -32.8613 C 77.3438 -33.7891 76.5137 -34.6191 75.6348 -34.6191 C 74.6094 -34.6191 73.8281 -33.7891 73.8281 -32.8613 C 73.8281 -23.1934 66.2598 -15.5273 56.5918 -15.5273 C 46.9238 -15.5273 39.3066 -23.1445 39.3066 -32.8613 C 39.3066 -42.5293 46.9238 -50.0488 56.5918 -50.0488 C 58.6426 -50.0488 60.5469 -49.9023 62.0605 -49.5605 L 53.8086 -41.3574 C 53.3203 -40.8203 53.125 -40.3809 53.125 -39.7949 C 53.125 -38.8672 53.8574 -38.0859 54.8828 -38.0859 C 55.2734 -38.0859 55.7617 -38.3301 56.0059 -38.5742 L 66.3574 -49.2676 C 67.041 -50 67.1387 -51.3184 66.3574 -52.1484 L 56.2012 -62.5977 C 55.8105 -63.0371 55.3223 -63.3301 54.834 -63.3301 C 53.8086 -63.3301 53.0762 -62.5977 53.0762 -61.5723 C 53.0762 -61.1816 53.1738 -60.6934 53.5645 -60.2539 L 60.6934 -53.125 C 59.4238 -53.3203 57.959 -53.5156 56.3965 -53.5156 C 45.0684 -53.5156 35.8398 -44.4824 35.8398 -32.9102 Z"/>
  </g>
  <g id="Ultralight-M" transform="matrix(1 0 0 1 503.656 1126)">
   <path d="M 56.0547 12.207 C 82.0801 12.207 103.369 -9.08203 103.369 -35.1562 C 103.369 -61.1816 82.0801 -82.4707 56.0547 -82.4707 C 30.0293 -82.4707 8.74023 -61.1816 8.74023 -35.1562 C 8.74023 -9.08203 30.0293 12.207 56.0547 12.207 Z M 56.0547 9.81445 C 31.2988 9.81445 11.1328 -10.3516 11.1328 -35.1562 C 11.1328 -59.9121 31.2988 -80.0781 56.0547 -80.0781 C 80.8594 -80.0781 100.977 -59.9121 100.977 -35.1562 C 100.977 -10.3516 80.8594 9.81445 56.0547 9.81445 Z M 35.5957 -32.9102 C 35.5957 -21.3867 44.6289 -12.3535 56.0547 -12.3535 C 67.5781 -12.3535 76.4648 -21.3867 76.4648 -32.9102 C 76.4648 -33.5449 75.8789 -34.1797 75.293 -34.1797 C 74.4629 -34.1797 73.9258 -33.5449 73.9258 -32.9102 C 73.9258 -22.8516 66.0645 -14.8926 56.0547 -14.8926 C 45.9961 -14.8926 38.1348 -22.7539 38.1348 -32.9102 C 38.1348 -42.8711 45.9961 -50.6836 56.0547 -50.6836 C 58.5449 -50.6836 60.7422 -50.5371 62.5488 -50.0977 L 53.3203 -40.8203 C 52.832 -40.332 52.6855 -39.9414 52.6855 -39.4531 C 52.6855 -38.8184 53.2715 -38.1836 54.0527 -38.1836 C 54.3457 -38.1836 54.7363 -38.3789 54.8828 -38.5742 L 65.5273 -49.6094 C 66.0645 -50.2441 66.2109 -51.2695 65.5273 -52.002 L 55.127 -62.6953 C 54.7852 -63.1348 54.3945 -63.3789 54.0039 -63.3789 C 53.1738 -63.3789 52.6367 -62.8418 52.6367 -62.0117 C 52.6367 -61.7188 52.6367 -61.377 53.0273 -60.9863 L 61.1816 -52.832 C 59.668 -52.9785 57.9102 -53.2715 56.1035 -53.2715 C 44.5801 -53.2715 35.5957 -44.3359 35.5957 -32.9102 Z"/>
  </g>
  <g id="Black-S" transform="matrix(1 0 0 1 2884.57 696)">
   <path d="M 48.8281 6.78711 C 71.9727 6.78711 90.8203 -12.0605 90.8203 -35.2051 C 90.8203 -58.3496 71.9727 -77.1973 48.8281 -77.1973 C 25.6836 -77.1973 6.83594 -58.3496 6.83594 -35.2051 C 6.83594 -12.0605 25.6836 6.78711 48.8281 6.78711 Z M 48.8281 -7.37305 C 33.4473 -7.37305 20.9961 -19.8242 20.9961 -35.2051 C 20.9961 -50.5859 33.4473 -63.0371 48.8281 -63.0371 C 64.209 -63.0371 76.6602 -50.5859 76.6602 -35.2051 C 76.6602 -19.8242 64.209 -7.37305 48.8281 -7.37305 Z M 32.373 -33.5938 C 32.373 -24.5117 39.7949 -17.0898 48.8281 -17.0898 C 57.8613 -17.0898 65.2832 -24.5117 65.2832 -33.5938 C 65.2832 -35.8398 63.4766 -37.6465 61.2305 -37.6465 C 58.9355 -37.6465 57.1289 -35.8398 57.1289 -33.5938 C 57.1289 -28.9551 53.418 -25.293 48.8281 -25.293 C 44.1895 -25.293 40.5273 -29.0039 40.5273 -33.5938 C 40.5273 -36.7188 41.9922 -39.7461 44.2383 -40.625 C 44.4824 -40.7227 44.7754 -40.8691 45.1172 -41.0645 L 44.9707 -40.7715 C 44.7754 -40.3809 44.6777 -39.7461 44.6777 -39.1113 C 44.6777 -36.6699 46.3379 -35.4492 48.4863 -35.4492 C 49.5117 -35.4492 50.5859 -35.8887 51.2207 -36.5723 L 57.373 -42.7734 C 58.8867 -44.2871 58.8379 -46.7773 57.4219 -48.1934 L 51.2695 -54.3945 C 50.5371 -55.127 49.5605 -55.8105 48.3398 -55.8105 C 45.8496 -55.8105 44.5801 -54.0527 44.5801 -52.4414 C 44.5801 -51.2207 45.1172 -50.6836 45.5078 -50.0977 L 45.7031 -49.8047 C 45.5078 -49.7559 45.2148 -49.707 44.9707 -49.6582 C 37.8418 -48.2422 32.373 -41.4062 32.373 -33.5938 Z"/>
  </g>
  <g id="Heavy-S" transform="matrix(1 0 0 1 2588.47 696)">
   <path d="M 48.2422 6.15234 C 70.9961 6.15234 89.5996 -12.4512 89.5996 -35.2051 C 89.5996 -57.959 70.9961 -76.6113 48.1934 -76.6113 C 25.4395 -76.6113 6.83594 -57.959 6.83594 -35.2051 C 6.83594 -12.4512 25.4395 6.15234 48.2422 6.15234 Z M 48.2422 -6.39648 C 32.2754 -6.39648 19.4336 -19.2871 19.4336 -35.2051 C 19.4336 -51.1719 32.2754 -64.0137 48.1934 -64.0137 C 64.1602 -64.0137 77.002 -51.1719 77.0508 -35.2051 C 77.0508 -19.2871 64.1602 -6.39648 48.2422 -6.39648 Z M 31.543 -33.5938 C 31.543 -24.3652 39.0625 -16.8457 48.1934 -16.8457 C 57.373 -16.8457 64.8438 -24.3652 64.8438 -33.5449 C 64.8438 -35.6445 63.1348 -37.3047 61.084 -37.3047 C 58.9355 -37.3047 57.2266 -35.6445 57.2266 -33.5449 C 57.2266 -28.5156 53.2227 -24.5117 48.1934 -24.5117 C 43.1641 -24.5117 39.209 -28.5645 39.209 -33.5449 C 39.209 -37.4023 41.5039 -40.918 44.7266 -41.6016 C 44.9219 -41.6504 45.2148 -41.748 45.5078 -41.8945 L 44.6777 -41.0156 C 44.4336 -40.5762 44.2871 -39.9414 44.2871 -39.2578 C 44.2871 -37.0605 45.8496 -35.8398 47.8516 -35.8398 C 48.7793 -35.8398 49.8047 -36.2793 50.3906 -36.9141 L 56.7871 -43.3105 C 58.2031 -44.7266 58.1055 -47.0703 56.8359 -48.3887 L 50.4395 -54.834 C 49.7559 -55.5176 48.8281 -56.1035 47.7539 -56.1035 C 45.459 -56.1035 44.2383 -54.4922 44.2383 -52.8809 C 44.2383 -51.7578 44.7266 -51.2207 45.1172 -50.6348 L 45.7031 -49.9512 C 45.5566 -49.9023 45.2637 -49.8535 45.0684 -49.8535 C 37.5977 -48.7793 31.543 -41.7969 31.543 -33.5938 Z"/>
  </g>
  <g id="Bold-S" transform="matrix(1 0 0 1 2292.44 696)">
   <path d="M 47.5586 5.46875 C 69.873 5.46875 88.2324 -12.8906 88.2324 -35.2051 C 88.2324 -57.5684 69.873 -75.9277 47.5098 -75.9277 C 25.1953 -75.9277 6.83594 -57.5684 6.83594 -35.2051 C 6.83594 -12.8906 25.1953 5.46875 47.5586 5.46875 Z M 47.5586 -5.32227 C 30.957 -5.32227 17.6758 -18.6523 17.6758 -35.2051 C 17.6758 -51.8066 30.957 -65.1367 47.5098 -65.1367 C 64.1113 -65.1367 77.4414 -51.8066 77.4414 -35.2051 C 77.4414 -18.6523 64.1113 -5.32227 47.5586 -5.32227 Z M 30.6641 -33.5449 C 30.6641 -24.1699 38.2324 -16.5527 47.5098 -16.5527 C 56.7871 -16.5527 64.4043 -24.1699 64.4043 -33.4961 C 64.4043 -35.4004 62.793 -36.9629 60.8887 -36.9629 C 58.9355 -36.9629 57.3242 -35.4004 57.3242 -33.4961 C 57.3242 -28.0273 52.9785 -23.6328 47.5098 -23.6328 C 42.041 -23.6328 37.6953 -28.0273 37.6953 -33.4961 C 37.6953 -38.1836 40.9668 -42.2363 45.2148 -42.6758 C 45.459 -42.7246 45.752 -42.7734 45.9961 -42.8711 L 44.3848 -41.2598 C 44.043 -40.8203 43.8965 -40.1855 43.8965 -39.4531 C 43.8965 -37.5 45.3125 -36.2793 47.1191 -36.2793 C 47.998 -36.2793 48.877 -36.6699 49.4141 -37.2559 L 56.1523 -43.9453 C 57.4219 -45.2148 57.3242 -47.3633 56.1523 -48.584 L 49.4629 -55.3223 C 48.877 -55.957 48.0469 -56.4453 47.0703 -56.4453 C 45.0684 -56.4453 43.7988 -54.9805 43.7988 -53.418 C 43.7988 -52.3926 44.2383 -51.8066 44.6777 -51.2695 L 45.752 -50.0977 C 45.6055 -50.0977 45.3125 -50.0488 45.166 -50.0488 C 37.3047 -49.3164 30.6641 -42.1875 30.6641 -33.5449 Z"/>
  </g>
  <g id="Semibold-S" transform="matrix(1 0 0 1 1996.2 696)">
   <path d="M 47.0703 4.98047 C 69.0918 4.98047 87.3047 -13.1836 87.3047 -35.2539 C 87.3047 -57.2754 69.0918 -75.4883 47.0215 -75.4883 C 25 -75.4883 6.83594 -57.2754 6.83594 -35.2539 C 6.83594 -13.1836 25.0488 4.98047 47.0703 4.98047 Z M 47.0703 -4.58984 C 30.0781 -4.58984 16.4551 -18.2129 16.4551 -35.2539 C 16.4551 -52.2461 30.0293 -65.8691 47.0215 -65.8691 C 64.0625 -65.8691 77.6855 -52.2461 77.7344 -35.2539 C 77.7344 -18.2129 64.0625 -4.58984 47.0703 -4.58984 Z M 30.0293 -33.5449 C 30.0293 -24.0234 37.6465 -16.3574 47.0215 -16.3574 C 56.4453 -16.3574 64.0625 -24.0234 64.0625 -33.4473 C 64.0625 -35.2539 62.5488 -36.7188 60.7422 -36.7188 C 58.9355 -36.7188 57.4219 -35.2539 57.4219 -33.4473 C 57.4219 -27.6855 52.7832 -23.0469 47.0215 -23.0469 C 41.2598 -23.0469 36.6699 -27.6855 36.6699 -33.4473 C 36.6699 -38.7207 40.5762 -43.1152 45.6055 -43.4082 C 45.8008 -43.4082 46.0938 -43.457 46.2891 -43.5059 L 44.1895 -41.4062 C 43.7988 -40.9668 43.5547 -40.332 43.5547 -39.5996 C 43.5547 -37.793 44.9219 -36.6211 46.6309 -36.6211 C 47.4121 -36.6211 48.2422 -36.9629 48.7793 -37.5 L 55.6641 -44.3359 C 56.8848 -45.5078 56.7871 -47.6074 55.7129 -48.7305 L 48.8281 -55.6641 C 48.291 -56.25 47.4609 -56.6895 46.582 -56.6895 C 44.7754 -56.6895 43.5547 -55.2734 43.5547 -53.7598 C 43.5547 -52.832 43.9453 -52.1973 44.3359 -51.6602 L 45.752 -50.1953 C 45.6055 -50.1953 45.3613 -50.1953 45.2148 -50.1953 C 37.1582 -49.7559 30.0293 -42.4805 30.0293 -33.5449 Z"/>
  </g>
  <g id="Medium-S" transform="matrix(1 0 0 1 1699.83 696)">
   <path d="M 46.7285 4.63867 C 68.5547 4.63867 86.6211 -13.4277 86.6211 -35.2539 C 86.6211 -57.0312 68.5059 -75.1465 46.6797 -75.1465 C 24.8535 -75.1465 6.83594 -57.0312 6.83594 -35.2539 C 6.83594 -13.4277 24.9023 4.63867 46.7285 4.63867 Z M 46.7285 -4.00391 C 29.3945 -4.00391 15.5273 -17.9199 15.5273 -35.2539 C 15.5273 -52.5879 29.3457 -66.4551 46.6797 -66.4551 C 64.0137 -66.4551 77.8809 -52.5879 77.9297 -35.2539 C 77.9785 -17.9199 64.0625 -4.00391 46.7285 -4.00391 Z M 29.541 -33.4961 C 29.541 -23.9258 37.2559 -16.2109 46.6797 -16.2109 C 56.1523 -16.2109 63.8184 -23.9258 63.8184 -33.3984 C 63.8184 -35.1074 62.3535 -36.5234 60.6445 -36.5234 C 58.8867 -36.5234 57.4707 -35.1074 57.4707 -33.3984 C 57.4707 -27.3926 52.6855 -22.5586 46.6797 -22.5586 C 40.6738 -22.5586 35.8887 -27.3926 35.8887 -33.3984 C 35.8887 -39.1113 40.2832 -43.7988 45.8496 -43.9453 C 46.0449 -43.9453 46.3379 -43.9941 46.5332 -43.9941 L 44.043 -41.5527 C 43.6035 -41.1133 43.3594 -40.4297 43.3594 -39.6973 C 43.3594 -38.0371 44.6289 -36.8164 46.2402 -36.8164 C 47.0215 -36.8164 47.8027 -37.1582 48.291 -37.6953 L 55.3223 -44.6777 C 56.4453 -45.752 56.3965 -47.7539 55.3223 -48.8281 L 48.3398 -55.957 C 47.8027 -56.4453 47.0703 -56.8359 46.2402 -56.8359 C 44.5312 -56.8359 43.3594 -55.5176 43.3594 -54.0039 C 43.3594 -53.1738 43.7012 -52.4902 44.1406 -52.002 L 45.752 -50.293 C 45.6543 -50.293 45.4102 -50.293 45.2637 -50.293 C 37.0117 -50.0488 29.541 -42.6758 29.541 -33.4961 Z"/>
  </g>
  <g id="Regular-S" transform="matrix(1 0 0 1 1403.58 696)">
   <path d="M 46.2402 4.15039 C 67.7734 4.15039 85.6934 -13.7207 85.6934 -35.2539 C 85.6934 -56.7871 67.7246 -74.6582 46.1914 -74.6582 C 24.707 -74.6582 6.83594 -56.7871 6.83594 -35.2539 C 6.83594 -13.7207 24.7559 4.15039 46.2402 4.15039 Z M 46.2402 -3.27148 C 28.5156 -3.27148 14.3555 -17.4805 14.3555 -35.2539 C 14.3555 -53.0273 28.4668 -67.2363 46.1914 -67.2363 C 63.9648 -67.2363 78.1738 -53.0273 78.2227 -35.2539 C 78.2715 -17.4805 64.0137 -3.27148 46.2402 -3.27148 Z M 28.9551 -33.4961 C 28.9551 -23.8281 36.6699 -16.0156 46.1914 -16.0156 C 55.7617 -16.0156 63.4766 -23.8281 63.4766 -33.3496 C 63.4766 -34.9609 62.1094 -36.2793 60.498 -36.2793 C 58.8867 -36.2793 57.5195 -34.9609 57.5195 -33.3496 C 57.5195 -27.0508 52.4902 -21.9727 46.1914 -21.9727 C 39.9414 -21.9727 34.8633 -27.0508 34.8633 -33.3496 C 34.8633 -39.6484 39.9414 -44.6777 46.1914 -44.6777 C 46.3867 -44.6777 46.6797 -44.6777 46.8262 -44.6289 L 43.8477 -41.748 C 43.3594 -41.2598 43.0664 -40.5762 43.0664 -39.8438 C 43.0664 -38.3301 44.2383 -37.1094 45.752 -37.1094 C 46.4844 -37.1094 47.168 -37.4512 47.6562 -37.9395 L 54.8828 -45.1172 C 55.9082 -46.0938 55.8594 -47.998 54.8828 -48.9746 L 47.7051 -56.2988 C 47.2168 -56.7383 46.5332 -57.0801 45.752 -57.0801 C 44.2383 -57.0801 43.0664 -55.8594 43.0664 -54.3457 C 43.0664 -53.6133 43.4082 -52.8809 43.7988 -52.3926 L 45.752 -50.3906 C 45.6543 -50.4395 45.459 -50.4395 45.3125 -50.4395 C 36.8164 -50.4395 28.9551 -42.9688 28.9551 -33.4961 Z"/>
  </g>
  <g id="Light-S" transform="matrix(1 0 0 1 1107.6 696)">
   <path d="M 45.5078 3.4668 C 66.6992 3.4668 84.2285 -14.0625 84.2285 -35.2051 C 84.2285 -56.3965 66.6504 -73.9258 45.5078 -73.9258 C 24.3164 -73.9258 6.83594 -56.3965 6.83594 -35.2051 C 6.83594 -14.0625 24.3652 3.4668 45.5078 3.4668 Z M 45.5078 -2.24609 C 27.2461 -2.24609 12.5977 -16.9434 12.5977 -35.2051 C 12.5977 -53.5156 27.1973 -68.2129 45.5078 -68.2129 C 63.7695 -68.2129 78.4668 -53.5156 78.5156 -35.2051 C 78.5156 -16.9434 63.8184 -2.24609 45.5078 -2.24609 Z M 28.6133 -33.4473 C 28.6133 -23.9746 36.1328 -16.4551 45.5078 -16.4551 C 54.8828 -16.4551 62.3535 -23.9746 62.3535 -33.3496 C 62.3535 -34.6191 61.2793 -35.6934 60.0098 -35.6934 C 58.7402 -35.6934 57.666 -34.6191 57.666 -33.3496 C 57.666 -26.5625 52.2461 -21.1426 45.5078 -21.1426 C 38.7207 -21.1426 33.3008 -26.5625 33.3008 -33.3496 C 33.3008 -40.1367 38.7207 -45.5078 45.5078 -45.5078 C 46.2402 -45.5078 46.9727 -45.459 47.5098 -45.3613 L 43.1641 -41.0645 C 42.7246 -40.625 42.5293 -40.0879 42.5293 -39.4043 C 42.5293 -38.2324 43.457 -37.2559 44.6777 -37.2559 C 45.2637 -37.2559 45.8496 -37.5488 46.1914 -37.8906 L 53.7598 -45.5566 C 54.6387 -46.3867 54.5898 -47.9492 53.7598 -48.7793 L 46.2891 -56.4453 C 45.8984 -56.8359 45.3125 -57.1289 44.6777 -57.1289 C 43.457 -57.1289 42.4805 -56.1523 42.4805 -54.9316 C 42.4805 -54.3457 42.7246 -53.7598 43.1152 -53.3691 L 46.4355 -49.9512 C 45.9961 -50 45.4102 -50.0977 44.873 -50.0977 C 36.2305 -50.0977 28.6133 -42.7734 28.6133 -33.4473 Z"/>
  </g>
  <g id="Thin-S" transform="matrix(1 0 0 1 811.867 696)">
   <path d="M 44.5801 2.53906 C 65.2832 2.53906 82.2754 -14.4531 82.2754 -35.2051 C 82.2754 -55.9082 65.2344 -72.9004 44.5312 -72.9004 C 23.8281 -72.9004 6.83594 -55.9082 6.83594 -35.2051 C 6.83594 -14.4531 23.877 2.53906 44.5801 2.53906 Z M 44.5801 -0.878906 C 25.5859 -0.878906 10.2539 -16.2109 10.2539 -35.2051 C 10.2539 -54.1504 25.5859 -69.4824 44.5312 -69.4824 C 63.5254 -69.4824 78.8574 -54.1504 78.8574 -35.2051 C 78.8574 -16.2109 63.5254 -0.878906 44.5801 -0.878906 Z M 28.1738 -33.4473 C 28.1738 -24.2188 35.4004 -16.9434 44.5312 -16.9434 C 53.7109 -16.9434 60.8887 -24.2188 60.8887 -33.3984 C 60.8887 -34.2285 60.1562 -34.9121 59.375 -34.9121 C 58.4961 -34.9121 57.8125 -34.2285 57.8125 -33.3984 C 57.8125 -25.9277 51.9531 -20.0195 44.5312 -20.0195 C 37.1094 -20.0195 31.25 -25.9277 31.25 -33.3984 C 31.25 -40.7715 37.1094 -46.6309 44.5312 -46.6309 C 45.9961 -46.6309 47.3145 -46.4844 48.3887 -46.2402 L 42.334 -40.1855 C 41.9434 -39.7949 41.7969 -39.4043 41.7969 -38.916 C 41.7969 -38.1348 42.4316 -37.4512 43.2617 -37.4512 C 43.6523 -37.4512 44.043 -37.6465 44.2871 -37.8906 L 52.2949 -46.0938 C 52.8809 -46.7285 52.9297 -47.8516 52.2949 -48.5352 L 44.4336 -56.5918 C 44.0918 -56.9824 43.7012 -57.2266 43.2617 -57.2266 C 42.3828 -57.2266 41.748 -56.5918 41.748 -55.7129 C 41.748 -55.3223 41.8457 -54.9316 42.1387 -54.5898 L 47.3145 -49.4141 C 46.4355 -49.5117 45.4102 -49.6582 44.3359 -49.6582 C 35.4492 -49.6582 28.1738 -42.5293 28.1738 -33.4473 Z"/>
  </g>
  <g id="Ultralight-S" transform="matrix(1 0 0 1 515.644 696)">
   <path d="M 44.043 2.05078 C 64.502 2.05078 81.2988 -14.6973 81.2988 -35.1562 C 81.2988 -55.6152 64.502 -72.3633 44.043 -72.3633 C 23.584 -72.3633 6.83594 -55.6152 6.83594 -35.1562 C 6.83594 -14.6973 23.584 2.05078 44.043 2.05078 Z M 44.043 -0.146484 C 24.7559 -0.146484 9.08203 -15.8691 9.08203 -35.1562 C 9.08203 -54.4434 24.7559 -70.166 44.043 -70.166 C 63.3789 -70.166 79.0527 -54.4434 79.0527 -35.1562 C 79.0527 -15.8691 63.3789 -0.146484 44.043 -0.146484 Z M 27.9297 -33.3984 C 27.9297 -24.3164 35.0586 -17.2363 44.043 -17.2363 C 53.125 -17.2363 60.1562 -24.3164 60.1562 -33.3984 C 60.1562 -33.9844 59.6191 -34.5215 59.082 -34.5215 C 58.3984 -34.5215 57.9102 -33.9844 57.9102 -33.3984 C 57.9102 -25.6348 51.8066 -19.4824 44.043 -19.4824 C 36.2793 -19.4824 30.1758 -25.5859 30.1758 -33.3984 C 30.1758 -41.1133 36.2793 -47.168 44.043 -47.168 C 45.8984 -47.168 47.5098 -47.0215 48.877 -46.7285 L 41.8945 -39.7461 C 41.5039 -39.3555 41.4062 -39.0625 41.4062 -38.623 C 41.4062 -38.0371 41.8945 -37.5488 42.5293 -37.5488 C 42.8223 -37.5488 43.1152 -37.6953 43.3105 -37.8418 L 51.5625 -46.4355 C 52.002 -46.9238 52.0996 -47.8027 51.5625 -48.4375 L 43.457 -56.7383 C 43.1641 -57.0801 42.8711 -57.2754 42.4805 -57.2754 C 41.8457 -57.2754 41.3574 -56.7871 41.3574 -56.1035 C 41.3574 -55.8594 41.3574 -55.5176 41.6504 -55.2246 L 47.8027 -49.0723 C 46.6797 -49.2188 45.3613 -49.4141 43.9941 -49.4141 C 35.0586 -49.4141 27.9297 -42.4316 27.9297 -33.3984 Z"/>
  </g>
 </g>
</svg>
