<?xml version="1.0" encoding="UTF-8"?>
<!--Generator: Apple Native CoreSVG 123-->
<!DOCTYPE svg
PUBLIC "-//W3C//DTD SVG 1.1//EN"
       "http://www.w3.org/Graphics/SVG/1.1/DTD/svg11.dtd">
<svg version="1.1" xmlns="http://www.w3.org/2000/svg" xmlns:xlink="http://www.w3.org/1999/xlink" width="3300" height="2200">
 <!--glyph: "uni10014E.medium", point size: 100.000000, font version: "Version 15.0d7e11", template writer version: "5"-->
 <g id="Notes">
  <rect height="2200" id="artboard" style="fill:white;opacity:1" width="3300" x="0" y="0"/>
  <line id="" style="fill:none;stroke:black;opacity:1;stroke-width:0.5;" x1="263" x2="3036" y1="292" y2="292"/>
  <text style="stroke:none;fill:black;font-family:-apple-system,&quot;SF Pro Display&quot;,&quot;SF Pro Text&quot;,Helvetica,sans-serif;font-weight:bold;" transform="matrix(1 0 0 1 263 322)">Weight/Scale Variations</text>
  <text style="stroke:none;fill:black;font-family:-apple-system,&quot;SF Pro Display&quot;,&quot;SF Pro Text&quot;,Helvetica,sans-serif;text-anchor:middle;" transform="matrix(1 0 0 1 559.711 322)">Ultralight</text>
  <text style="stroke:none;fill:black;font-family:-apple-system,&quot;SF Pro Display&quot;,&quot;SF Pro Text&quot;,Helvetica,sans-serif;text-anchor:middle;" transform="matrix(1 0 0 1 856.422 322)">Thin</text>
  <text style="stroke:none;fill:black;font-family:-apple-system,&quot;SF Pro Display&quot;,&quot;SF Pro Text&quot;,Helvetica,sans-serif;text-anchor:middle;" transform="matrix(1 0 0 1 1153.13 322)">Light</text>
  <text style="stroke:none;fill:black;font-family:-apple-system,&quot;SF Pro Display&quot;,&quot;SF Pro Text&quot;,Helvetica,sans-serif;text-anchor:middle;" transform="matrix(1 0 0 1 1449.84 322)">Regular</text>
  <text style="stroke:none;fill:black;font-family:-apple-system,&quot;SF Pro Display&quot;,&quot;SF Pro Text&quot;,Helvetica,sans-serif;text-anchor:middle;" transform="matrix(1 0 0 1 1746.56 322)">Medium</text>
  <text style="stroke:none;fill:black;font-family:-apple-system,&quot;SF Pro Display&quot;,&quot;SF Pro Text&quot;,Helvetica,sans-serif;text-anchor:middle;" transform="matrix(1 0 0 1 2043.27 322)">Semibold</text>
  <text style="stroke:none;fill:black;font-family:-apple-system,&quot;SF Pro Display&quot;,&quot;SF Pro Text&quot;,Helvetica,sans-serif;text-anchor:middle;" transform="matrix(1 0 0 1 2339.98 322)">Bold</text>
  <text style="stroke:none;fill:black;font-family:-apple-system,&quot;SF Pro Display&quot;,&quot;SF Pro Text&quot;,Helvetica,sans-serif;text-anchor:middle;" transform="matrix(1 0 0 1 2636.69 322)">Heavy</text>
  <text style="stroke:none;fill:black;font-family:-apple-system,&quot;SF Pro Display&quot;,&quot;SF Pro Text&quot;,Helvetica,sans-serif;text-anchor:middle;" transform="matrix(1 0 0 1 2933.4 322)">Black</text>
  <line id="" style="fill:none;stroke:black;opacity:1;stroke-width:0.5;" x1="263" x2="3036" y1="1903" y2="1903"/>
  <g id="" transform="matrix(1 0 0 1 263 1933)">
   <path d="M 9.24805 0.830078 C 13.5547 0.830078 17.1387 -2.74414 17.1387 -7.05078 C 17.1387 -11.3574 13.5449 -14.9316 9.23828 -14.9316 C 4.94141 -14.9316 1.36719 -11.3574 1.36719 -7.05078 C 1.36719 -2.74414 4.95117 0.830078 9.24805 0.830078 Z M 9.24805 -0.654297 C 5.70312 -0.654297 2.87109 -3.49609 2.87109 -7.05078 C 2.87109 -10.6055 5.69336 -13.4473 9.23828 -13.4473 C 12.793 -13.4473 15.6348 -10.6055 15.6445 -7.05078 C 15.6543 -3.49609 12.8027 -0.654297 9.24805 -0.654297 Z M 9.22852 -3.42773 C 9.69727 -3.42773 9.9707 -3.74023 9.9707 -4.25781 L 9.9707 -6.31836 L 12.1973 -6.31836 C 12.6953 -6.31836 13.0371 -6.57227 13.0371 -7.04102 C 13.0371 -7.51953 12.7148 -7.7832 12.1973 -7.7832 L 9.9707 -7.7832 L 9.9707 -10.0098 C 9.9707 -10.5273 9.69727 -10.8496 9.22852 -10.8496 C 8.75977 -10.8496 8.50586 -10.5078 8.50586 -10.0098 L 8.50586 -7.7832 L 6.29883 -7.7832 C 5.78125 -7.7832 5.44922 -7.51953 5.44922 -7.04102 C 5.44922 -6.57227 5.80078 -6.31836 6.29883 -6.31836 L 8.50586 -6.31836 L 8.50586 -4.25781 C 8.50586 -3.75977 8.75977 -3.42773 9.22852 -3.42773 Z"/>
  </g>
  <g id="" transform="matrix(1 0 0 1 281.506 1933)">
   <path d="M 11.709 2.91016 C 17.1582 2.91016 21.6699 -1.60156 21.6699 -7.05078 C 21.6699 -12.4902 17.1484 -17.0117 11.6992 -17.0117 C 6.25977 -17.0117 1.74805 -12.4902 1.74805 -7.05078 C 1.74805 -1.60156 6.26953 2.91016 11.709 2.91016 Z M 11.709 1.25 C 7.09961 1.25 3.41797 -2.44141 3.41797 -7.05078 C 3.41797 -11.6504 7.08984 -15.3516 11.6992 -15.3516 C 16.3086 -15.3516 20 -11.6504 20.0098 -7.05078 C 20.0195 -2.44141 16.3184 1.25 11.709 1.25 Z M 11.6895 -2.41211 C 12.207 -2.41211 12.5195 -2.77344 12.5195 -3.33984 L 12.5195 -6.23047 L 15.5762 -6.23047 C 16.123 -6.23047 16.5039 -6.51367 16.5039 -7.03125 C 16.5039 -7.55859 16.1426 -7.86133 15.5762 -7.86133 L 12.5195 -7.86133 L 12.5195 -10.9277 C 12.5195 -11.5039 12.207 -11.8555 11.6895 -11.8555 C 11.1719 -11.8555 10.8789 -11.4844 10.8789 -10.9277 L 10.8789 -7.86133 L 7.83203 -7.86133 C 7.26562 -7.86133 6.89453 -7.55859 6.89453 -7.03125 C 6.89453 -6.51367 7.28516 -6.23047 7.83203 -6.23047 L 10.8789 -6.23047 L 10.8789 -3.33984 C 10.8789 -2.79297 11.1719 -2.41211 11.6895 -2.41211 Z"/>
  </g>
  <g id="" transform="matrix(1 0 0 1 304.924 1933)">
   <path d="M 14.9707 5.67383 C 21.9336 5.67383 27.6953 -0.078125 27.6953 -7.04102 C 27.6953 -14.0039 21.9238 -19.7559 14.9609 -19.7559 C 8.00781 -19.7559 2.25586 -14.0039 2.25586 -7.04102 C 2.25586 -0.078125 8.01758 5.67383 14.9707 5.67383 Z M 14.9707 3.85742 C 8.93555 3.85742 4.08203 -1.00586 4.08203 -7.04102 C 4.08203 -13.0762 8.92578 -17.9395 14.9609 -17.9395 C 21.0059 -17.9395 25.8594 -13.0762 25.8691 -7.04102 C 25.8789 -1.00586 21.0156 3.85742 14.9707 3.85742 Z M 14.9512 -1.06445 C 15.5176 -1.06445 15.8691 -1.45508 15.8691 -2.06055 L 15.8691 -6.13281 L 20.1074 -6.13281 C 20.6934 -6.13281 21.1133 -6.46484 21.1133 -7.02148 C 21.1133 -7.59766 20.7227 -7.93945 20.1074 -7.93945 L 15.8691 -7.93945 L 15.8691 -12.1875 C 15.8691 -12.8027 15.5176 -13.1934 14.9512 -13.1934 C 14.3848 -13.1934 14.0625 -12.7832 14.0625 -12.1875 L 14.0625 -7.93945 L 9.83398 -7.93945 C 9.21875 -7.93945 8.80859 -7.59766 8.80859 -7.02148 C 8.80859 -6.46484 9.23828 -6.13281 9.83398 -6.13281 L 14.0625 -6.13281 L 14.0625 -2.06055 C 14.0625 -1.47461 14.3848 -1.06445 14.9512 -1.06445 Z"/>
  </g>
  <text style="stroke:none;fill:black;font-family:-apple-system,&quot;SF Pro Display&quot;,&quot;SF Pro Text&quot;,Helvetica,sans-serif;font-weight:bold;" transform="matrix(1 0 0 1 263 1953)">Design Variations</text>
  <text style="stroke:none;fill:black;font-family:-apple-system,&quot;SF Pro Display&quot;,&quot;SF Pro Text&quot;,Helvetica,sans-serif;" transform="matrix(1 0 0 1 263 1971)">Symbols are supported in up to nine weights and three scales.</text>
  <text style="stroke:none;fill:black;font-family:-apple-system,&quot;SF Pro Display&quot;,&quot;SF Pro Text&quot;,Helvetica,sans-serif;" transform="matrix(1 0 0 1 263 1989)">For optimal layout with text and other symbols, vertically align</text>
  <text style="stroke:none;fill:black;font-family:-apple-system,&quot;SF Pro Display&quot;,&quot;SF Pro Text&quot;,Helvetica,sans-serif;" transform="matrix(1 0 0 1 263 2007)">symbols with the adjacent text.</text>
  <rect height="14" id="" style="fill:#00AEEF;stroke:none;opacity:0.4;" width="3" x="776" y="1919"/>
  <g id="" transform="matrix(1 0 0 1 779 1933)">
   <path d="M 10.5273 0 L 12.373 0 L 7.17773 -14.0918 L 5.43945 -14.0918 L 0.244141 0 L 2.08984 0 L 3.50586 -4.0332 L 9.11133 -4.0332 Z M 6.2793 -11.9531 L 6.33789 -11.9531 L 8.59375 -5.52734 L 4.02344 -5.52734 Z"/>
  </g>
  <rect height="14" id="" style="fill:#00AEEF;stroke:none;opacity:0.4;" width="3" x="791.617" y="1919"/>
  <text style="stroke:none;fill:black;font-family:-apple-system,&quot;SF Pro Display&quot;,&quot;SF Pro Text&quot;,Helvetica,sans-serif;font-weight:bold;" transform="matrix(1 0 0 1 776 1953)">Margins</text>
  <text style="stroke:none;fill:black;font-family:-apple-system,&quot;SF Pro Display&quot;,&quot;SF Pro Text&quot;,Helvetica,sans-serif;" transform="matrix(1 0 0 1 776 1971)">Leading and trailing margins on the left and right side of each symbol</text>
  <text style="stroke:none;fill:black;font-family:-apple-system,&quot;SF Pro Display&quot;,&quot;SF Pro Text&quot;,Helvetica,sans-serif;" transform="matrix(1 0 0 1 776 1989)">can be adjusted by modifying the width of the blue rectangles.</text>
  <text style="stroke:none;fill:black;font-family:-apple-system,&quot;SF Pro Display&quot;,&quot;SF Pro Text&quot;,Helvetica,sans-serif;" transform="matrix(1 0 0 1 776 2007)">Modifications are automatically applied proportionally to all</text>
  <text style="stroke:none;fill:black;font-family:-apple-system,&quot;SF Pro Display&quot;,&quot;SF Pro Text&quot;,Helvetica,sans-serif;" transform="matrix(1 0 0 1 776 2025)">scales and weights.</text>
  <g id="" transform="matrix(1 0 0 1 1289 1933)">
   <path d="M 2.83203 3.11523 L 4.375 4.6582 C 5.22461 5.48828 6.19141 5.41992 7.06055 4.46289 L 17.2754 -6.66016 C 17.7051 -6.36719 18.0957 -6.37695 18.5645 -6.47461 L 19.6094 -6.68945 L 20.3027 -5.99609 L 20.2539 -5.47852 C 20.1855 -4.95117 20.3516 -4.53125 20.8496 -4.0332 L 21.6602 -3.22266 C 22.168 -2.71484 22.8223 -2.68555 23.3008 -3.16406 L 26.5527 -6.41602 C 27.0312 -6.89453 27.0117 -7.54883 26.5039 -8.05664 L 25.6836 -8.87695 C 25.1855 -9.375 24.7754 -9.55078 24.2383 -9.47266 L 23.7109 -9.41406 L 23.0566 -10.0781 L 23.3398 -11.2207 C 23.4863 -11.7871 23.3398 -12.2559 22.7148 -12.8613 L 20.3027 -15.2539 C 16.7578 -18.7793 12.2266 -18.6719 9.11133 -15.5371 C 8.69141 -15.1074 8.64258 -14.5215 8.91602 -14.0918 C 9.15039 -13.7207 9.62891 -13.4961 10.2734 -13.6621 C 11.7871 -14.043 13.3008 -13.9258 14.7852 -12.9199 L 14.1602 -11.3379 C 13.9258 -10.752 13.9453 -10.2734 14.1797 -9.83398 L 3.01758 0.439453 C 2.08008 1.30859 1.97266 2.25586 2.83203 3.11523 Z M 10.6738 -15.1465 C 13.3398 -17.1387 16.6504 -16.8262 19.0527 -14.4141 L 21.6797 -11.8066 C 21.9141 -11.5723 21.9434 -11.3867 21.8848 -11.0938 L 21.5039 -9.53125 L 23.0762 -7.95898 L 24.043 -8.04688 C 24.3262 -8.07617 24.4141 -8.05664 24.6387 -7.83203 L 25.2637 -7.20703 L 22.5098 -4.46289 L 21.8848 -5.07812 C 21.6602 -5.30273 21.6406 -5.40039 21.6699 -5.68359 L 21.7578 -6.64062 L 20.1953 -8.20312 L 18.5742 -7.89062 C 18.291 -7.83203 18.1445 -7.83203 17.9102 -8.07617 L 15.7324 -10.2539 C 15.5078 -10.4883 15.4785 -10.625 15.6055 -10.9473 L 16.5527 -13.2227 C 14.9512 -14.7559 12.8418 -15.6055 10.8008 -14.9512 C 10.7129 -14.9219 10.6445 -14.9414 10.6152 -14.9805 C 10.5859 -15.0293 10.5859 -15.0781 10.6738 -15.1465 Z M 4.10156 2.41211 C 3.61328 1.91406 3.78906 1.61133 4.12109 1.30859 L 15.0781 -8.80859 L 16.3086 -7.57812 L 6.15234 3.34961 C 5.84961 3.68164 5.46875 3.7793 5.06836 3.37891 Z"/>
  </g>
  <text style="stroke:none;fill:black;font-family:-apple-system,&quot;SF Pro Display&quot;,&quot;SF Pro Text&quot;,Helvetica,sans-serif;font-weight:bold;" transform="matrix(1 0 0 1 1289 1953)">Exporting</text>
  <text style="stroke:none;fill:black;font-family:-apple-system,&quot;SF Pro Display&quot;,&quot;SF Pro Text&quot;,Helvetica,sans-serif;" transform="matrix(1 0 0 1 1289 1971)">Symbols should be outlined when exporting to ensure the</text>
  <text style="stroke:none;fill:black;font-family:-apple-system,&quot;SF Pro Display&quot;,&quot;SF Pro Text&quot;,Helvetica,sans-serif;" transform="matrix(1 0 0 1 1289 1989)">design is preserved when submitting to Xcode.</text>
  <text id="template-version" style="stroke:none;fill:black;font-family:-apple-system,&quot;SF Pro Display&quot;,&quot;SF Pro Text&quot;,Helvetica,sans-serif;text-anchor:end;" transform="matrix(1 0 0 1 3036 1933)">Template v.1.0</text>
  <text style="stroke:none;fill:black;font-family:-apple-system,&quot;SF Pro Display&quot;,&quot;SF Pro Text&quot;,Helvetica,sans-serif;text-anchor:end;" transform="matrix(1 0 0 1 3036 1951)">Generated from exclamationmark</text>
  <text style="stroke:none;fill:black;font-family:-apple-system,&quot;SF Pro Display&quot;,&quot;SF Pro Text&quot;,Helvetica,sans-serif;text-anchor:end;" transform="matrix(1 0 0 1 3036 1969)">Typeset at 100 points</text>
  <text style="stroke:none;fill:black;font-family:-apple-system,&quot;SF Pro Display&quot;,&quot;SF Pro Text&quot;,Helvetica,sans-serif;" transform="matrix(1 0 0 1 263 726)">Small</text>
  <text style="stroke:none;fill:black;font-family:-apple-system,&quot;SF Pro Display&quot;,&quot;SF Pro Text&quot;,Helvetica,sans-serif;" transform="matrix(1 0 0 1 263 1156)">Medium</text>
  <text style="stroke:none;fill:black;font-family:-apple-system,&quot;SF Pro Display&quot;,&quot;SF Pro Text&quot;,Helvetica,sans-serif;" transform="matrix(1 0 0 1 263 1586)">Large</text>
 </g>
 <g id="Guides">
  <g id="H-reference" style="fill:#27AAE1;stroke:none;" transform="matrix(1 0 0 1 339 696)">
   <path d="M 54.9316 0 L 57.666 0 L 30.5664 -70.459 L 28.0762 -70.459 L 0.976562 0 L 3.66211 0 L 12.9395 -24.4629 L 45.7031 -24.4629 Z M 29.1992 -67.0898 L 29.4434 -67.0898 L 44.8242 -26.709 L 13.8184 -26.709 Z"/>
  </g>
  <line id="Baseline-S" style="fill:none;stroke:#27AAE1;opacity:1;stroke-width:0.577;" x1="263" x2="3036" y1="696" y2="696"/>
  <line id="Capline-S" style="fill:none;stroke:#27AAE1;opacity:1;stroke-width:0.577;" x1="263" x2="3036" y1="625.541" y2="625.541"/>
  <g id="H-reference" style="fill:#27AAE1;stroke:none;" transform="matrix(1 0 0 1 339 1126)">
   <path d="M 54.9316 0 L 57.666 0 L 30.5664 -70.459 L 28.0762 -70.459 L 0.976562 0 L 3.66211 0 L 12.9395 -24.4629 L 45.7031 -24.4629 Z M 29.1992 -67.0898 L 29.4434 -67.0898 L 44.8242 -26.709 L 13.8184 -26.709 Z"/>
  </g>
  <line id="Baseline-M" style="fill:none;stroke:#27AAE1;opacity:1;stroke-width:0.577;" x1="263" x2="3036" y1="1126" y2="1126"/>
  <line id="Capline-M" style="fill:none;stroke:#27AAE1;opacity:1;stroke-width:0.577;" x1="263" x2="3036" y1="1055.54" y2="1055.54"/>
  <g id="H-reference" style="fill:#27AAE1;stroke:none;" transform="matrix(1 0 0 1 339 1556)">
   <path d="M 54.9316 0 L 57.666 0 L 30.5664 -70.459 L 28.0762 -70.459 L 0.976562 0 L 3.66211 0 L 12.9395 -24.4629 L 45.7031 -24.4629 Z M 29.1992 -67.0898 L 29.4434 -67.0898 L 44.8242 -26.709 L 13.8184 -26.709 Z"/>
  </g>
  <line id="Baseline-L" style="fill:none;stroke:#27AAE1;opacity:1;stroke-width:0.577;" x1="263" x2="3036" y1="1556" y2="1556"/>
  <line id="Capline-L" style="fill:none;stroke:#27AAE1;opacity:1;stroke-width:0.577;" x1="263" x2="3036" y1="1485.54" y2="1485.54"/>
  <rect height="119.336" id="left-margin" style="fill:#00AEEF;stroke:none;opacity:0.4;" width="12.4512" x="1430.46" y="1030.79"/>
  <rect height="119.336" id="right-margin" style="fill:#00AEEF;stroke:none;opacity:0.4;" width="12.4512" x="1456.78" y="1030.79"/>
 </g>
 <g id="Symbols">
  <g id="Black-L" transform="matrix(1 0 0 1 2902.08 1556)">
   <path d="M 31.3477 -12.7441 C 39.2578 -12.7441 43.457 -17.4316 43.75 -25.5859 L 45.166 -77.6855 C 45.2148 -78.9551 45.2637 -80.2734 45.2637 -81.25 C 45.2637 -89.9902 40.0391 -95.1172 31.3965 -95.1172 C 22.7539 -95.1172 17.4316 -89.9902 17.4316 -81.25 C 17.4316 -80.2734 17.4805 -78.9551 17.5293 -77.6855 L 18.9941 -25.5859 C 19.2383 -17.4316 23.3887 -12.7441 31.3477 -12.7441 Z M 31.3477 25.8789 C 39.6973 25.8789 46.582 19.4824 46.582 11.377 C 46.582 3.32031 39.6973 -3.07617 31.3477 -3.07617 C 22.9004 -3.07617 16.0645 3.32031 16.0645 11.377 C 16.0645 19.4824 22.9004 25.8789 31.3477 25.8789 Z"/>
  </g>
  <g id="Heavy-L" transform="matrix(1 0 0 1 2607.12 1556)">
   <path d="M 29.6387 -11.9629 C 36.3281 -11.9629 39.9902 -16.0156 40.1855 -22.9004 L 41.4062 -80.4688 C 41.4551 -81.4453 41.5039 -82.4707 41.5039 -83.2031 C 41.5039 -90.625 36.9141 -94.9707 29.6387 -94.9707 C 22.3633 -94.9707 17.6758 -90.625 17.6758 -83.2031 C 17.6758 -82.4707 17.7246 -81.4453 17.7734 -80.4688 L 19.043 -22.9004 C 19.2383 -16.0156 22.8516 -11.9629 29.6387 -11.9629 Z M 29.5898 25.6348 C 37.0117 25.6348 43.0664 19.873 43.0664 12.6953 C 43.0664 5.46875 37.0117 -0.244141 29.5898 -0.244141 C 22.1191 -0.244141 16.0645 5.46875 16.0645 12.6953 C 16.0645 19.873 22.1191 25.6348 29.5898 25.6348 Z"/>
  </g>
  <g id="Bold-L" transform="matrix(1 0 0 1 2312.37 1556)">
   <path d="M 27.6855 -11.1328 C 33.0566 -11.1328 36.1328 -14.4043 36.2793 -19.9219 L 37.207 -83.5938 C 37.2559 -84.2285 37.2559 -84.8633 37.2559 -85.3516 C 37.2559 -91.3086 33.4473 -94.873 27.6855 -94.873 C 21.875 -94.873 18.0176 -91.3086 18.0176 -85.3516 C 18.0176 -84.8633 18.0176 -84.2285 18.0664 -83.5938 L 19.0918 -19.9219 C 19.2383 -14.4043 22.2656 -11.1328 27.6855 -11.1328 Z M 27.6367 25.3418 C 33.9844 25.3418 39.1602 20.3613 39.1602 14.1113 C 39.1602 7.91016 33.9844 2.97852 27.6367 2.97852 C 21.2402 2.97852 16.0645 7.91016 16.0645 14.1113 C 16.0645 20.3613 21.2402 25.3418 27.6367 25.3418 Z"/>
  </g>
  <g id="Semibold-L" transform="matrix(1 0 0 1 2017 1556)">
   <path d="M 26.3184 -10.5469 C 30.7617 -10.5469 33.4473 -13.2812 33.5449 -17.8711 L 34.3262 -85.7422 C 34.3262 -86.1328 34.3262 -86.5723 34.3262 -86.8652 C 34.3262 -91.748 31.0547 -94.7754 26.3184 -94.7754 C 21.582 -94.7754 18.2129 -91.748 18.2129 -86.8652 C 18.2129 -86.5723 18.2617 -86.1328 18.2617 -85.7422 L 19.0918 -17.8711 C 19.2383 -13.2812 21.8262 -10.5469 26.3184 -10.5469 Z M 26.2695 25.0977 C 31.9336 25.0977 36.4746 20.6543 36.4746 15.1367 C 36.4746 9.57031 31.9336 5.17578 26.2695 5.17578 C 20.6543 5.17578 16.0645 9.57031 16.0645 15.1367 C 16.0645 20.6543 20.6543 25.0977 26.2695 25.0977 Z"/>
  </g>
  <g id="Medium-L" transform="matrix(1 0 0 1 1721.29 1556)">
   <path d="M 25.293 -10.1074 C 29.0527 -10.1074 31.3965 -12.4512 31.4941 -16.3574 L 32.1289 -87.3535 C 32.1289 -87.5977 32.1289 -87.8418 32.1289 -87.9883 C 32.1289 -92.1387 29.1992 -94.6777 25.293 -94.6777 C 21.3379 -94.6777 18.4082 -92.1387 18.4082 -87.9883 C 18.4082 -87.8418 18.4082 -87.5977 18.4082 -87.3535 L 19.1406 -16.3574 C 19.1895 -12.4512 21.5332 -10.1074 25.293 -10.1074 Z M 25.2441 24.9512 C 30.3223 24.9512 34.4727 20.8984 34.4727 15.8691 C 34.4727 10.8398 30.3223 6.83594 25.2441 6.83594 C 20.2148 6.83594 16.0645 10.8398 16.0645 15.8691 C 16.0645 20.8984 20.2148 24.9512 25.2441 24.9512 Z"/>
  </g>
  <g id="Regular-L" transform="matrix(1 0 0 1 1425.92 1556)">
   <path d="M 23.9746 -9.52148 C 26.8066 -9.52148 28.7598 -11.377 28.8086 -14.3066 L 29.248 -89.502 C 29.248 -92.5781 26.8066 -94.6289 23.9258 -94.6289 C 21.0449 -94.6289 18.6035 -92.5781 18.6035 -89.502 L 19.1406 -14.3066 C 19.1895 -11.377 21.1426 -9.52148 23.9746 -9.52148 Z M 23.9258 24.7559 C 28.2715 24.7559 31.7871 21.1914 31.7871 16.8945 C 31.7871 12.5 28.2715 9.0332 23.9258 9.0332 C 19.6289 9.0332 16.0645 12.5 16.0645 16.8945 C 16.0645 21.1914 19.6289 24.7559 23.9258 24.7559 Z"/>
  </g>
  <g id="Light-L" transform="matrix(1 0 0 1 1130.7 1556)">
   <path d="M 22.4609 -9.32617 C 24.6094 -9.32617 26.123 -10.7422 26.123 -13.0371 L 26.416 -90.6738 C 26.416 -93.0664 24.6582 -94.5312 22.4121 -94.5312 C 20.166 -94.5312 18.457 -93.0664 18.457 -90.6738 L 18.75 -13.0371 C 18.7988 -10.7422 20.2637 -9.32617 22.4609 -9.32617 Z M 22.4121 24.2188 C 25.9277 24.2188 28.8086 21.3379 28.8086 17.8711 C 28.8086 14.3555 25.9277 11.4746 22.4121 11.4746 C 18.9453 11.4746 16.0645 14.3555 16.0645 17.8711 C 16.0645 21.3379 18.9453 24.2188 22.4121 24.2188 Z"/>
  </g>
  <g id="Thin-L" transform="matrix(1 0 0 1 835.963 1556)">
   <path d="M 20.459 -9.13086 C 21.7285 -9.13086 22.6074 -9.96094 22.6074 -11.3281 L 22.7051 -92.2852 C 22.7051 -93.6523 21.8262 -94.4824 20.459 -94.4824 C 19.0918 -94.4824 18.2129 -93.6523 18.2129 -92.2852 L 18.2617 -11.3281 C 18.3105 -9.96094 19.0918 -9.13086 20.459 -9.13086 Z M 20.459 23.5352 C 22.8516 23.5352 24.8535 21.5332 24.8535 19.1406 C 24.8535 16.748 22.8516 14.7461 20.459 14.7461 C 18.0664 14.7461 16.0645 16.748 16.0645 19.1406 C 16.0645 21.5332 18.0664 23.5352 20.459 23.5352 Z"/>
  </g>
  <g id="Ultralight-L" transform="matrix(1 0 0 1 540.278 1556)">
   <path d="M 19.4336 -8.98438 C 20.2637 -8.98438 20.8496 -9.57031 20.8008 -10.498 L 20.752 -93.0664 C 20.752 -93.9453 20.3613 -94.4336 19.4336 -94.4336 C 18.5059 -94.4336 18.1152 -93.9453 18.1152 -93.0664 L 18.0176 -10.498 C 18.0176 -9.57031 18.5059 -8.98438 19.4336 -8.98438 Z M 19.4336 23.1934 C 21.2402 23.1934 22.8027 21.6309 22.8027 19.8242 C 22.8027 18.0176 21.2402 16.4551 19.4336 16.4551 C 17.627 16.4551 16.0645 18.0176 16.0645 19.8242 C 16.0645 21.6309 17.627 23.1934 19.4336 23.1934 Z"/>
  </g>
  <g id="Black-M" transform="matrix(1 0 0 1 2907.57 1126)">
   <path d="M 25.8301 -18.75 C 33.252 -18.75 36.9629 -23.0469 37.207 -30.6152 L 38.5254 -65.0391 C 38.623 -66.4062 38.6719 -67.8711 38.6719 -68.9453 C 38.6719 -77.0996 34.082 -81.7871 25.9277 -81.7871 C 17.7734 -81.7871 13.0371 -77.0996 13.0371 -68.9453 C 13.0371 -67.8711 13.0859 -66.4062 13.1836 -65.0391 L 14.502 -30.6152 C 14.7461 -23.0469 18.4082 -18.75 25.8301 -18.75 Z M 25.8301 12.2559 C 33.1543 12.2559 39.209 6.68945 39.209 -0.341797 C 39.209 -7.32422 33.1543 -12.8418 25.8301 -12.8418 C 18.4082 -12.8418 12.4512 -7.32422 12.4512 -0.341797 C 12.4512 6.68945 18.4082 12.2559 25.8301 12.2559 Z"/>
  </g>
  <g id="Heavy-M" transform="matrix(1 0 0 1 2612.37 1126)">
   <path d="M 24.3164 -17.9688 C 30.6152 -17.9688 33.8379 -21.6309 34.082 -28.0762 L 35.1562 -67.7734 C 35.2051 -68.7988 35.2539 -69.9219 35.2539 -70.752 C 35.2539 -77.6367 31.25 -81.6406 24.3652 -81.6406 C 17.5293 -81.6406 13.3789 -77.6367 13.3789 -70.752 C 13.3789 -69.9219 13.4277 -68.7988 13.4766 -67.7734 L 14.5996 -28.0762 C 14.8438 -21.6309 18.0176 -17.9688 24.3164 -17.9688 Z M 24.3164 12.0605 C 30.8105 12.0605 36.1816 7.12891 36.1816 0.830078 C 36.1816 -5.41992 30.8105 -10.3516 24.3164 -10.3516 C 17.7734 -10.3516 12.4512 -5.41992 12.4512 0.830078 C 12.4512 7.12891 17.7734 12.0605 24.3164 12.0605 Z"/>
  </g>
  <g id="Bold-M" transform="matrix(1 0 0 1 2317.37 1126)">
   <path d="M 22.6562 -17.0898 C 27.6367 -17.0898 30.3711 -20.0684 30.5176 -25.1953 L 31.3965 -70.8008 C 31.4453 -71.4844 31.4941 -72.2168 31.4941 -72.7539 C 31.4941 -78.2715 28.0273 -81.543 22.6562 -81.543 C 17.2852 -81.543 13.7695 -78.2715 13.7695 -72.7539 C 13.7695 -72.2168 13.8184 -71.4844 13.8184 -70.8008 L 14.7461 -25.1953 C 14.9414 -20.0684 17.627 -17.0898 22.6562 -17.0898 Z M 22.6074 11.8652 C 28.2227 11.8652 32.7637 7.56836 32.7637 2.14844 C 32.7637 -3.27148 28.2227 -7.61719 22.6074 -7.61719 C 16.9922 -7.61719 12.4512 -3.27148 12.4512 2.14844 C 12.4512 7.56836 16.9922 11.8652 22.6074 11.8652 Z"/>
  </g>
  <g id="Semibold-M" transform="matrix(1 0 0 1 2021.83 1126)">
   <path d="M 21.4844 -16.4551 C 25.5859 -16.4551 27.9785 -18.9453 28.0762 -23.1934 L 28.8086 -72.9004 C 28.8574 -73.3398 28.8574 -73.8281 28.8574 -74.1699 C 28.8574 -78.6621 25.8789 -81.4453 21.4844 -81.4453 C 17.0898 -81.4453 14.0625 -78.6621 14.0625 -74.1699 C 14.0625 -73.8281 14.0625 -73.3398 14.0625 -72.9004 L 14.8926 -23.1934 C 14.9902 -18.9453 17.334 -16.4551 21.4844 -16.4551 Z M 21.4355 11.7676 C 26.416 11.7676 30.4199 7.86133 30.4199 3.02734 C 30.4199 -1.80664 26.416 -5.66406 21.4355 -5.66406 C 16.5039 -5.66406 12.4512 -1.80664 12.4512 3.02734 C 12.4512 7.86133 16.5039 11.7676 21.4355 11.7676 Z"/>
  </g>
  <g id="Medium-M" transform="matrix(1 0 0 1 1726 1126)">
   <path d="M 20.6055 -15.9668 C 24.0234 -15.9668 26.1719 -18.1641 26.2695 -21.7285 L 26.8555 -74.5117 C 26.8555 -74.7559 26.8555 -75 26.8555 -75.1953 C 26.8555 -79.0039 24.2188 -81.3477 20.5566 -81.3477 C 16.9434 -81.3477 14.2578 -79.0039 14.2578 -75.1953 C 14.2578 -75 14.2578 -74.7559 14.2578 -74.5117 L 14.9414 -21.7285 C 15.0391 -18.1641 17.1387 -15.9668 20.6055 -15.9668 Z M 20.5566 11.6699 C 25.0488 11.6699 28.6621 8.10547 28.6621 3.71094 C 28.6621 -0.732422 25.0488 -4.24805 20.5566 -4.24805 C 16.1133 -4.24805 12.4512 -0.732422 12.4512 3.71094 C 12.4512 8.10547 16.1133 11.6699 20.5566 11.6699 Z"/>
  </g>
  <g id="Regular-M" transform="matrix(1 0 0 1 1430.46 1126)">
   <path d="M 19.4336 -15.3809 C 22.0215 -15.3809 23.7793 -17.0898 23.8281 -19.7266 L 24.2676 -76.6113 C 24.2676 -79.3945 22.0215 -81.2988 19.3848 -81.2988 C 16.748 -81.2988 14.502 -79.3945 14.502 -76.6113 L 15.0391 -19.7266 C 15.0879 -17.0898 16.8457 -15.3809 19.4336 -15.3809 Z M 19.3848 11.5234 C 23.2422 11.5234 26.3184 8.39844 26.3184 4.58984 C 26.3184 0.732422 23.2422 -2.34375 19.3848 -2.34375 C 15.5762 -2.34375 12.4512 0.732422 12.4512 4.58984 C 12.4512 8.39844 15.5762 11.5234 19.3848 11.5234 Z"/>
  </g>
  <g id="Light-M" transform="matrix(1 0 0 1 1135.09 1126)">
   <path d="M 18.0664 -15.2344 C 20.0684 -15.2344 21.4355 -16.5527 21.4355 -18.6035 L 21.7285 -77.6855 C 21.7285 -79.834 20.0684 -81.25 18.0664 -81.25 C 16.0156 -81.25 14.3555 -79.834 14.3555 -77.6855 L 14.6973 -18.6035 C 14.7461 -16.5527 16.0645 -15.2344 18.0664 -15.2344 Z M 18.0664 11.084 C 21.1426 11.084 23.6328 8.54492 23.6328 5.46875 C 23.6328 2.39258 21.1426 -0.146484 18.0664 -0.146484 C 14.9902 -0.146484 12.4512 2.39258 12.4512 5.46875 C 12.4512 8.54492 14.9902 11.084 18.0664 11.084 Z"/>
  </g>
  <g id="Thin-M" transform="matrix(1 0 0 1 840.138 1126)">
   <path d="M 16.3086 -15.0391 C 17.4805 -15.0391 18.3105 -15.8203 18.3105 -17.0898 L 18.4082 -79.1016 C 18.4082 -80.3711 17.5293 -81.1523 16.2598 -81.1523 C 15.0391 -81.1523 14.1602 -80.3711 14.1602 -79.1016 L 14.2578 -17.0898 C 14.3066 -15.8203 15.0391 -15.0391 16.3086 -15.0391 Z M 16.2598 10.4492 C 18.3594 10.4492 20.1172 8.74023 20.1172 6.64062 C 20.1172 4.54102 18.3594 2.83203 16.2598 2.83203 C 14.209 2.83203 12.4512 4.54102 12.4512 6.64062 C 12.4512 8.74023 14.209 10.4492 16.2598 10.4492 Z"/>
  </g>
  <g id="Ultralight-M" transform="matrix(1 0 0 1 544.33 1126)">
   <path d="M 15.3809 -14.9414 C 16.1621 -14.9414 16.6992 -15.4785 16.6992 -16.3086 L 16.6504 -79.834 C 16.6504 -80.6641 16.2109 -81.1523 15.3809 -81.1523 C 14.5508 -81.1523 14.0625 -80.6641 14.0625 -79.834 L 14.0625 -16.3086 C 14.0625 -15.4785 14.5508 -14.9414 15.3809 -14.9414 Z M 15.3809 10.1562 C 16.9434 10.1562 18.3105 8.78906 18.3105 7.22656 C 18.3105 5.66406 16.9434 4.29688 15.3809 4.29688 C 13.7695 4.29688 12.4512 5.66406 12.4512 7.22656 C 12.4512 8.78906 13.7695 10.1562 15.3809 10.1562 Z"/>
  </g>
  <g id="Black-S" transform="matrix(1 0 0 1 2913.26 696)">
   <path d="M 20.166 -22.2656 C 25.8789 -22.2656 28.7598 -25.5859 28.9551 -31.4453 L 29.9805 -58.7891 C 30.0293 -59.8145 30.0781 -60.9375 30.0781 -61.7676 C 30.0781 -68.0664 26.5137 -71.6797 20.2148 -71.6797 C 13.916 -71.6797 10.2539 -68.0664 10.2539 -61.7676 C 10.2539 -60.9375 10.3027 -59.8145 10.3516 -58.7891 L 11.377 -31.4453 C 11.5723 -25.5859 14.4043 -22.2656 20.166 -22.2656 Z M 20.166 1.95312 C 25.8301 1.95312 30.5176 -2.34375 30.5176 -7.8125 C 30.5176 -13.2324 25.8301 -17.5293 20.166 -17.5293 C 14.4043 -17.5293 9.76562 -13.2324 9.76562 -7.8125 C 9.76562 -2.34375 14.4043 1.95312 20.166 1.95312 Z"/>
  </g>
  <g id="Heavy-S" transform="matrix(1 0 0 1 2617.55 696)">
   <path d="M 19.1406 -21.6797 C 24.0723 -21.6797 26.6602 -24.5605 26.8066 -29.5898 L 27.6855 -60.7422 C 27.7344 -61.5234 27.7832 -62.4023 27.7832 -63.0371 C 27.7832 -68.457 24.5605 -71.582 19.1895 -71.582 C 13.8184 -71.582 10.5469 -68.457 10.5469 -63.0371 C 10.5469 -62.4023 10.5957 -61.5234 10.5957 -60.7422 L 11.5234 -29.5898 C 11.6699 -24.5605 14.209 -21.6797 19.1406 -21.6797 Z M 19.1406 1.85547 C 24.2676 1.85547 28.5156 -2.05078 28.5156 -7.03125 C 28.5156 -11.9629 24.2676 -15.8691 19.1406 -15.8691 C 13.9648 -15.8691 9.76562 -11.9629 9.76562 -7.03125 C 9.76562 -2.05078 13.9648 1.85547 19.1406 1.85547 Z"/>
  </g>
  <g id="Bold-S" transform="matrix(1 0 0 1 2321.98 696)">
   <path d="M 18.0176 -20.9961 C 22.0215 -20.9961 24.2676 -23.4375 24.4141 -27.5391 L 25.0977 -62.9395 C 25.1465 -63.4766 25.1465 -64.0137 25.1465 -64.4531 C 25.1465 -68.8477 22.3633 -71.4844 18.0176 -71.4844 C 13.7207 -71.4844 10.8398 -68.8477 10.8398 -64.4531 C 10.8398 -64.0137 10.8887 -63.4766 10.8887 -62.9395 L 11.6699 -27.5391 C 11.7676 -23.4375 14.0137 -20.9961 18.0176 -20.9961 Z M 18.0176 1.80664 C 22.5586 1.80664 26.2207 -1.70898 26.2207 -6.15234 C 26.2207 -10.5469 22.5586 -14.0137 18.0176 -14.0137 C 13.4766 -14.0137 9.76562 -10.5469 9.76562 -6.15234 C 9.76562 -1.70898 13.4766 1.80664 18.0176 1.80664 Z"/>
  </g>
  <g id="Semibold-S" transform="matrix(1 0 0 1 2026.05 696)">
   <path d="M 17.2363 -20.5566 C 20.6543 -20.5566 22.6562 -22.6562 22.7539 -26.123 L 23.3398 -64.4531 C 23.3887 -64.7949 23.3887 -65.1367 23.3887 -65.4297 C 23.3887 -69.1406 20.8496 -71.4355 17.2363 -71.4355 C 13.623 -71.4355 11.084 -69.1406 11.084 -65.4297 C 11.084 -65.1367 11.084 -64.7949 11.084 -64.4531 L 11.7676 -26.123 C 11.8652 -22.6562 13.8672 -20.5566 17.2363 -20.5566 Z M 17.2363 1.75781 C 21.3379 1.75781 24.6582 -1.51367 24.6582 -5.51758 C 24.6582 -9.57031 21.3379 -12.7441 17.2363 -12.7441 C 13.0859 -12.7441 9.76562 -9.57031 9.76562 -5.51758 C 9.76562 -1.51367 13.0859 1.75781 17.2363 1.75781 Z"/>
  </g>
  <g id="Medium-S" transform="matrix(1 0 0 1 1729.93 696)">
   <path d="M 16.6504 -20.2148 C 19.5801 -20.2148 21.4355 -22.0215 21.4844 -25.0488 L 22.0215 -65.625 C 22.0215 -65.8203 22.0215 -66.0156 22.0215 -66.1621 C 22.0215 -69.3359 19.6777 -71.3867 16.6504 -71.3867 C 13.5742 -71.3867 11.2305 -69.3359 11.2305 -66.1621 C 11.2305 -66.0156 11.2305 -65.8203 11.2305 -65.625 L 11.8652 -25.0488 C 11.9141 -22.0215 13.7207 -20.2148 16.6504 -20.2148 Z M 16.6504 1.70898 C 20.459 1.70898 23.4863 -1.31836 23.4863 -5.07812 C 23.4863 -8.83789 20.459 -11.8164 16.6504 -11.8164 C 12.8418 -11.8164 9.76562 -8.83789 9.76562 -5.07812 C 9.76562 -1.31836 12.8418 1.70898 16.6504 1.70898 Z"/>
  </g>
  <g id="Regular-S" transform="matrix(1 0 0 1 1434 696)">
   <path d="M 15.918 -19.7754 C 18.2129 -19.7754 19.7754 -21.2402 19.8242 -23.6328 L 20.2637 -67.0898 C 20.2637 -69.6289 18.2129 -71.3379 15.8691 -71.3379 C 13.5254 -71.3379 11.4746 -69.6289 11.4746 -67.0898 L 11.9629 -23.6328 C 12.0117 -21.2402 13.623 -19.7754 15.918 -19.7754 Z M 15.8691 1.66016 C 19.2383 1.66016 21.9238 -1.12305 21.9238 -4.44336 C 21.9238 -7.86133 19.2383 -10.5469 15.8691 -10.5469 C 12.5 -10.5469 9.76562 -7.86133 9.76562 -4.44336 C 9.76562 -1.12305 12.5 1.66016 15.8691 1.66016 Z"/>
  </g>
  <g id="Light-S" transform="matrix(1 0 0 1 1138.46 696)">
   <path d="M 14.6973 -19.6289 C 16.4551 -19.6289 17.7246 -20.8008 17.7246 -22.6562 L 18.0176 -68.0664 C 18.0176 -70.0195 16.5039 -71.2891 14.6484 -71.2891 C 12.8418 -71.2891 11.3281 -70.0195 11.3281 -68.0664 L 11.6699 -22.6562 C 11.7188 -20.8008 12.8906 -19.6289 14.6973 -19.6289 Z M 14.6484 1.2207 C 17.3828 1.2207 19.5801 -0.976562 19.5801 -3.66211 C 19.5801 -6.39648 17.3828 -8.59375 14.6484 -8.59375 C 11.9629 -8.59375 9.76562 -6.39648 9.76562 -3.66211 C 9.76562 -0.976562 11.9629 1.2207 14.6484 1.2207 Z"/>
  </g>
  <g id="Thin-S" transform="matrix(1 0 0 1 843.312 696)">
   <path d="M 13.1348 -19.4336 C 14.209 -19.4336 14.9414 -20.166 14.9414 -21.2891 L 15.0391 -69.3359 C 15.0391 -70.5078 14.209 -71.2402 13.0859 -71.2402 C 11.9629 -71.2402 11.1328 -70.5078 11.1328 -69.3359 L 11.2793 -21.2891 C 11.2793 -20.166 12.0117 -19.4336 13.1348 -19.4336 Z M 13.0859 0.683594 C 14.9414 0.683594 16.4551 -0.830078 16.4551 -2.63672 C 16.4551 -4.49219 14.9414 -6.00586 13.0859 -6.00586 C 11.2793 -6.00586 9.76562 -4.49219 9.76562 -2.63672 C 9.76562 -0.830078 11.2793 0.683594 13.0859 0.683594 Z"/>
  </g>
  <g id="Ultralight-S" transform="matrix(1 0 0 1 547.406 696)">
   <path d="M 12.3047 -19.3359 C 13.0371 -19.3359 13.5254 -19.8242 13.5254 -20.6055 L 13.5254 -69.9707 C 13.5254 -70.752 13.0371 -71.1914 12.3047 -71.1914 C 11.5234 -71.1914 11.0352 -70.752 11.0352 -69.9707 L 11.084 -20.6055 C 11.084 -19.8242 11.5234 -19.3359 12.3047 -19.3359 Z M 12.3047 0.390625 C 13.6719 0.390625 14.8438 -0.732422 14.8438 -2.09961 C 14.8438 -3.51562 13.6719 -4.63867 12.3047 -4.63867 C 10.9375 -4.63867 9.76562 -3.51562 9.76562 -2.09961 C 9.76562 -0.732422 10.9375 0.390625 12.3047 0.390625 Z"/>
  </g>
 </g>
</svg>
