<?xml version="1.0" encoding="UTF-8"?>
<!--Generator: Apple Native CoreSVG 123-->
<!DOCTYPE svg
PUBLIC "-//W3C//DTD SVG 1.1//EN"
       "http://www.w3.org/Graphics/SVG/1.1/DTD/svg11.dtd">
<svg version="1.1" xmlns="http://www.w3.org/2000/svg" xmlns:xlink="http://www.w3.org/1999/xlink" width="3300" height="2200">
 <!--glyph: "uni1000F0.medium", point size: 100.000000, font version: "Version 15.0d7e11", template writer version: "5"-->
 <g id="Notes">
  <rect height="2200" id="artboard" style="fill:white;opacity:1" width="3300" x="0" y="0"/>
  <line id="" style="fill:none;stroke:black;opacity:1;stroke-width:0.5;" x1="263" x2="3036" y1="292" y2="292"/>
  <text style="stroke:none;fill:black;font-family:-apple-system,&quot;SF Pro Display&quot;,&quot;SF Pro Text&quot;,Helvetica,sans-serif;font-weight:bold;" transform="matrix(1 0 0 1 263 322)">Weight/Scale Variations</text>
  <text style="stroke:none;fill:black;font-family:-apple-system,&quot;SF Pro Display&quot;,&quot;SF Pro Text&quot;,Helvetica,sans-serif;text-anchor:middle;" transform="matrix(1 0 0 1 559.711 322)">Ultralight</text>
  <text style="stroke:none;fill:black;font-family:-apple-system,&quot;SF Pro Display&quot;,&quot;SF Pro Text&quot;,Helvetica,sans-serif;text-anchor:middle;" transform="matrix(1 0 0 1 856.422 322)">Thin</text>
  <text style="stroke:none;fill:black;font-family:-apple-system,&quot;SF Pro Display&quot;,&quot;SF Pro Text&quot;,Helvetica,sans-serif;text-anchor:middle;" transform="matrix(1 0 0 1 1153.13 322)">Light</text>
  <text style="stroke:none;fill:black;font-family:-apple-system,&quot;SF Pro Display&quot;,&quot;SF Pro Text&quot;,Helvetica,sans-serif;text-anchor:middle;" transform="matrix(1 0 0 1 1449.84 322)">Regular</text>
  <text style="stroke:none;fill:black;font-family:-apple-system,&quot;SF Pro Display&quot;,&quot;SF Pro Text&quot;,Helvetica,sans-serif;text-anchor:middle;" transform="matrix(1 0 0 1 1746.56 322)">Medium</text>
  <text style="stroke:none;fill:black;font-family:-apple-system,&quot;SF Pro Display&quot;,&quot;SF Pro Text&quot;,Helvetica,sans-serif;text-anchor:middle;" transform="matrix(1 0 0 1 2043.27 322)">Semibold</text>
  <text style="stroke:none;fill:black;font-family:-apple-system,&quot;SF Pro Display&quot;,&quot;SF Pro Text&quot;,Helvetica,sans-serif;text-anchor:middle;" transform="matrix(1 0 0 1 2339.98 322)">Bold</text>
  <text style="stroke:none;fill:black;font-family:-apple-system,&quot;SF Pro Display&quot;,&quot;SF Pro Text&quot;,Helvetica,sans-serif;text-anchor:middle;" transform="matrix(1 0 0 1 2636.69 322)">Heavy</text>
  <text style="stroke:none;fill:black;font-family:-apple-system,&quot;SF Pro Display&quot;,&quot;SF Pro Text&quot;,Helvetica,sans-serif;text-anchor:middle;" transform="matrix(1 0 0 1 2933.4 322)">Black</text>
  <line id="" style="fill:none;stroke:black;opacity:1;stroke-width:0.5;" x1="263" x2="3036" y1="1903" y2="1903"/>
  <g id="" transform="matrix(1 0 0 1 263 1933)">
   <path d="M 9.24805 0.830078 C 13.5547 0.830078 17.1387 -2.74414 17.1387 -7.05078 C 17.1387 -11.3574 13.5449 -14.9316 9.23828 -14.9316 C 4.94141 -14.9316 1.36719 -11.3574 1.36719 -7.05078 C 1.36719 -2.74414 4.95117 0.830078 9.24805 0.830078 Z M 9.24805 -0.654297 C 5.70312 -0.654297 2.87109 -3.49609 2.87109 -7.05078 C 2.87109 -10.6055 5.69336 -13.4473 9.23828 -13.4473 C 12.793 -13.4473 15.6348 -10.6055 15.6445 -7.05078 C 15.6543 -3.49609 12.8027 -0.654297 9.24805 -0.654297 Z M 9.22852 -3.42773 C 9.69727 -3.42773 9.9707 -3.74023 9.9707 -4.25781 L 9.9707 -6.31836 L 12.1973 -6.31836 C 12.6953 -6.31836 13.0371 -6.57227 13.0371 -7.04102 C 13.0371 -7.51953 12.7148 -7.7832 12.1973 -7.7832 L 9.9707 -7.7832 L 9.9707 -10.0098 C 9.9707 -10.5273 9.69727 -10.8496 9.22852 -10.8496 C 8.75977 -10.8496 8.50586 -10.5078 8.50586 -10.0098 L 8.50586 -7.7832 L 6.29883 -7.7832 C 5.78125 -7.7832 5.44922 -7.51953 5.44922 -7.04102 C 5.44922 -6.57227 5.80078 -6.31836 6.29883 -6.31836 L 8.50586 -6.31836 L 8.50586 -4.25781 C 8.50586 -3.75977 8.75977 -3.42773 9.22852 -3.42773 Z"/>
  </g>
  <g id="" transform="matrix(1 0 0 1 281.506 1933)">
   <path d="M 11.709 2.91016 C 17.1582 2.91016 21.6699 -1.60156 21.6699 -7.05078 C 21.6699 -12.4902 17.1484 -17.0117 11.6992 -17.0117 C 6.25977 -17.0117 1.74805 -12.4902 1.74805 -7.05078 C 1.74805 -1.60156 6.26953 2.91016 11.709 2.91016 Z M 11.709 1.25 C 7.09961 1.25 3.41797 -2.44141 3.41797 -7.05078 C 3.41797 -11.6504 7.08984 -15.3516 11.6992 -15.3516 C 16.3086 -15.3516 20 -11.6504 20.0098 -7.05078 C 20.0195 -2.44141 16.3184 1.25 11.709 1.25 Z M 11.6895 -2.41211 C 12.207 -2.41211 12.5195 -2.77344 12.5195 -3.33984 L 12.5195 -6.23047 L 15.5762 -6.23047 C 16.123 -6.23047 16.5039 -6.51367 16.5039 -7.03125 C 16.5039 -7.55859 16.1426 -7.86133 15.5762 -7.86133 L 12.5195 -7.86133 L 12.5195 -10.9277 C 12.5195 -11.5039 12.207 -11.8555 11.6895 -11.8555 C 11.1719 -11.8555 10.8789 -11.4844 10.8789 -10.9277 L 10.8789 -7.86133 L 7.83203 -7.86133 C 7.26562 -7.86133 6.89453 -7.55859 6.89453 -7.03125 C 6.89453 -6.51367 7.28516 -6.23047 7.83203 -6.23047 L 10.8789 -6.23047 L 10.8789 -3.33984 C 10.8789 -2.79297 11.1719 -2.41211 11.6895 -2.41211 Z"/>
  </g>
  <g id="" transform="matrix(1 0 0 1 304.924 1933)">
   <path d="M 14.9707 5.67383 C 21.9336 5.67383 27.6953 -0.078125 27.6953 -7.04102 C 27.6953 -14.0039 21.9238 -19.7559 14.9609 -19.7559 C 8.00781 -19.7559 2.25586 -14.0039 2.25586 -7.04102 C 2.25586 -0.078125 8.01758 5.67383 14.9707 5.67383 Z M 14.9707 3.85742 C 8.93555 3.85742 4.08203 -1.00586 4.08203 -7.04102 C 4.08203 -13.0762 8.92578 -17.9395 14.9609 -17.9395 C 21.0059 -17.9395 25.8594 -13.0762 25.8691 -7.04102 C 25.8789 -1.00586 21.0156 3.85742 14.9707 3.85742 Z M 14.9512 -1.06445 C 15.5176 -1.06445 15.8691 -1.45508 15.8691 -2.06055 L 15.8691 -6.13281 L 20.1074 -6.13281 C 20.6934 -6.13281 21.1133 -6.46484 21.1133 -7.02148 C 21.1133 -7.59766 20.7227 -7.93945 20.1074 -7.93945 L 15.8691 -7.93945 L 15.8691 -12.1875 C 15.8691 -12.8027 15.5176 -13.1934 14.9512 -13.1934 C 14.3848 -13.1934 14.0625 -12.7832 14.0625 -12.1875 L 14.0625 -7.93945 L 9.83398 -7.93945 C 9.21875 -7.93945 8.80859 -7.59766 8.80859 -7.02148 C 8.80859 -6.46484 9.23828 -6.13281 9.83398 -6.13281 L 14.0625 -6.13281 L 14.0625 -2.06055 C 14.0625 -1.47461 14.3848 -1.06445 14.9512 -1.06445 Z"/>
  </g>
  <text style="stroke:none;fill:black;font-family:-apple-system,&quot;SF Pro Display&quot;,&quot;SF Pro Text&quot;,Helvetica,sans-serif;font-weight:bold;" transform="matrix(1 0 0 1 263 1953)">Design Variations</text>
  <text style="stroke:none;fill:black;font-family:-apple-system,&quot;SF Pro Display&quot;,&quot;SF Pro Text&quot;,Helvetica,sans-serif;" transform="matrix(1 0 0 1 263 1971)">Symbols are supported in up to nine weights and three scales.</text>
  <text style="stroke:none;fill:black;font-family:-apple-system,&quot;SF Pro Display&quot;,&quot;SF Pro Text&quot;,Helvetica,sans-serif;" transform="matrix(1 0 0 1 263 1989)">For optimal layout with text and other symbols, vertically align</text>
  <text style="stroke:none;fill:black;font-family:-apple-system,&quot;SF Pro Display&quot;,&quot;SF Pro Text&quot;,Helvetica,sans-serif;" transform="matrix(1 0 0 1 263 2007)">symbols with the adjacent text.</text>
  <rect height="14" id="" style="fill:#00AEEF;stroke:none;opacity:0.4;" width="3" x="776" y="1919"/>
  <g id="" transform="matrix(1 0 0 1 779 1933)">
   <path d="M 10.5273 0 L 12.373 0 L 7.17773 -14.0918 L 5.43945 -14.0918 L 0.244141 0 L 2.08984 0 L 3.50586 -4.0332 L 9.11133 -4.0332 Z M 6.2793 -11.9531 L 6.33789 -11.9531 L 8.59375 -5.52734 L 4.02344 -5.52734 Z"/>
  </g>
  <rect height="14" id="" style="fill:#00AEEF;stroke:none;opacity:0.4;" width="3" x="791.617" y="1919"/>
  <text style="stroke:none;fill:black;font-family:-apple-system,&quot;SF Pro Display&quot;,&quot;SF Pro Text&quot;,Helvetica,sans-serif;font-weight:bold;" transform="matrix(1 0 0 1 776 1953)">Margins</text>
  <text style="stroke:none;fill:black;font-family:-apple-system,&quot;SF Pro Display&quot;,&quot;SF Pro Text&quot;,Helvetica,sans-serif;" transform="matrix(1 0 0 1 776 1971)">Leading and trailing margins on the left and right side of each symbol</text>
  <text style="stroke:none;fill:black;font-family:-apple-system,&quot;SF Pro Display&quot;,&quot;SF Pro Text&quot;,Helvetica,sans-serif;" transform="matrix(1 0 0 1 776 1989)">can be adjusted by modifying the width of the blue rectangles.</text>
  <text style="stroke:none;fill:black;font-family:-apple-system,&quot;SF Pro Display&quot;,&quot;SF Pro Text&quot;,Helvetica,sans-serif;" transform="matrix(1 0 0 1 776 2007)">Modifications are automatically applied proportionally to all</text>
  <text style="stroke:none;fill:black;font-family:-apple-system,&quot;SF Pro Display&quot;,&quot;SF Pro Text&quot;,Helvetica,sans-serif;" transform="matrix(1 0 0 1 776 2025)">scales and weights.</text>
  <g id="" transform="matrix(1 0 0 1 1289 1933)">
   <path d="M 2.83203 3.11523 L 4.375 4.6582 C 5.22461 5.48828 6.19141 5.41992 7.06055 4.46289 L 17.2754 -6.66016 C 17.7051 -6.36719 18.0957 -6.37695 18.5645 -6.47461 L 19.6094 -6.68945 L 20.3027 -5.99609 L 20.2539 -5.47852 C 20.1855 -4.95117 20.3516 -4.53125 20.8496 -4.0332 L 21.6602 -3.22266 C 22.168 -2.71484 22.8223 -2.68555 23.3008 -3.16406 L 26.5527 -6.41602 C 27.0312 -6.89453 27.0117 -7.54883 26.5039 -8.05664 L 25.6836 -8.87695 C 25.1855 -9.375 24.7754 -9.55078 24.2383 -9.47266 L 23.7109 -9.41406 L 23.0566 -10.0781 L 23.3398 -11.2207 C 23.4863 -11.7871 23.3398 -12.2559 22.7148 -12.8613 L 20.3027 -15.2539 C 16.7578 -18.7793 12.2266 -18.6719 9.11133 -15.5371 C 8.69141 -15.1074 8.64258 -14.5215 8.91602 -14.0918 C 9.15039 -13.7207 9.62891 -13.4961 10.2734 -13.6621 C 11.7871 -14.043 13.3008 -13.9258 14.7852 -12.9199 L 14.1602 -11.3379 C 13.9258 -10.752 13.9453 -10.2734 14.1797 -9.83398 L 3.01758 0.439453 C 2.08008 1.30859 1.97266 2.25586 2.83203 3.11523 Z M 10.6738 -15.1465 C 13.3398 -17.1387 16.6504 -16.8262 19.0527 -14.4141 L 21.6797 -11.8066 C 21.9141 -11.5723 21.9434 -11.3867 21.8848 -11.0938 L 21.5039 -9.53125 L 23.0762 -7.95898 L 24.043 -8.04688 C 24.3262 -8.07617 24.4141 -8.05664 24.6387 -7.83203 L 25.2637 -7.20703 L 22.5098 -4.46289 L 21.8848 -5.07812 C 21.6602 -5.30273 21.6406 -5.40039 21.6699 -5.68359 L 21.7578 -6.64062 L 20.1953 -8.20312 L 18.5742 -7.89062 C 18.291 -7.83203 18.1445 -7.83203 17.9102 -8.07617 L 15.7324 -10.2539 C 15.5078 -10.4883 15.4785 -10.625 15.6055 -10.9473 L 16.5527 -13.2227 C 14.9512 -14.7559 12.8418 -15.6055 10.8008 -14.9512 C 10.7129 -14.9219 10.6445 -14.9414 10.6152 -14.9805 C 10.5859 -15.0293 10.5859 -15.0781 10.6738 -15.1465 Z M 4.10156 2.41211 C 3.61328 1.91406 3.78906 1.61133 4.12109 1.30859 L 15.0781 -8.80859 L 16.3086 -7.57812 L 6.15234 3.34961 C 5.84961 3.68164 5.46875 3.7793 5.06836 3.37891 Z"/>
  </g>
  <text style="stroke:none;fill:black;font-family:-apple-system,&quot;SF Pro Display&quot;,&quot;SF Pro Text&quot;,Helvetica,sans-serif;font-weight:bold;" transform="matrix(1 0 0 1 1289 1953)">Exporting</text>
  <text style="stroke:none;fill:black;font-family:-apple-system,&quot;SF Pro Display&quot;,&quot;SF Pro Text&quot;,Helvetica,sans-serif;" transform="matrix(1 0 0 1 1289 1971)">Symbols should be outlined when exporting to ensure the</text>
  <text style="stroke:none;fill:black;font-family:-apple-system,&quot;SF Pro Display&quot;,&quot;SF Pro Text&quot;,Helvetica,sans-serif;" transform="matrix(1 0 0 1 1289 1989)">design is preserved when submitting to Xcode.</text>
  <text id="template-version" style="stroke:none;fill:black;font-family:-apple-system,&quot;SF Pro Display&quot;,&quot;SF Pro Text&quot;,Helvetica,sans-serif;text-anchor:end;" transform="matrix(1 0 0 1 3036 1933)">Template v.1.0</text>
  <text style="stroke:none;fill:black;font-family:-apple-system,&quot;SF Pro Display&quot;,&quot;SF Pro Text&quot;,Helvetica,sans-serif;text-anchor:end;" transform="matrix(1 0 0 1 3036 1951)">Generated from xmark.square</text>
  <text style="stroke:none;fill:black;font-family:-apple-system,&quot;SF Pro Display&quot;,&quot;SF Pro Text&quot;,Helvetica,sans-serif;text-anchor:end;" transform="matrix(1 0 0 1 3036 1969)">Typeset at 100 points</text>
  <text style="stroke:none;fill:black;font-family:-apple-system,&quot;SF Pro Display&quot;,&quot;SF Pro Text&quot;,Helvetica,sans-serif;" transform="matrix(1 0 0 1 263 726)">Small</text>
  <text style="stroke:none;fill:black;font-family:-apple-system,&quot;SF Pro Display&quot;,&quot;SF Pro Text&quot;,Helvetica,sans-serif;" transform="matrix(1 0 0 1 263 1156)">Medium</text>
  <text style="stroke:none;fill:black;font-family:-apple-system,&quot;SF Pro Display&quot;,&quot;SF Pro Text&quot;,Helvetica,sans-serif;" transform="matrix(1 0 0 1 263 1586)">Large</text>
 </g>
 <g id="Guides">
  <g id="H-reference" style="fill:#27AAE1;stroke:none;" transform="matrix(1 0 0 1 339 696)">
   <path d="M 54.9316 0 L 57.666 0 L 30.5664 -70.459 L 28.0762 -70.459 L 0.976562 0 L 3.66211 0 L 12.9395 -24.4629 L 45.7031 -24.4629 Z M 29.1992 -67.0898 L 29.4434 -67.0898 L 44.8242 -26.709 L 13.8184 -26.709 Z"/>
  </g>
  <line id="Baseline-S" style="fill:none;stroke:#27AAE1;opacity:1;stroke-width:0.577;" x1="263" x2="3036" y1="696" y2="696"/>
  <line id="Capline-S" style="fill:none;stroke:#27AAE1;opacity:1;stroke-width:0.577;" x1="263" x2="3036" y1="625.541" y2="625.541"/>
  <g id="H-reference" style="fill:#27AAE1;stroke:none;" transform="matrix(1 0 0 1 339 1126)">
   <path d="M 54.9316 0 L 57.666 0 L 30.5664 -70.459 L 28.0762 -70.459 L 0.976562 0 L 3.66211 0 L 12.9395 -24.4629 L 45.7031 -24.4629 Z M 29.1992 -67.0898 L 29.4434 -67.0898 L 44.8242 -26.709 L 13.8184 -26.709 Z"/>
  </g>
  <line id="Baseline-M" style="fill:none;stroke:#27AAE1;opacity:1;stroke-width:0.577;" x1="263" x2="3036" y1="1126" y2="1126"/>
  <line id="Capline-M" style="fill:none;stroke:#27AAE1;opacity:1;stroke-width:0.577;" x1="263" x2="3036" y1="1055.54" y2="1055.54"/>
  <g id="H-reference" style="fill:#27AAE1;stroke:none;" transform="matrix(1 0 0 1 339 1556)">
   <path d="M 54.9316 0 L 57.666 0 L 30.5664 -70.459 L 28.0762 -70.459 L 0.976562 0 L 3.66211 0 L 12.9395 -24.4629 L 45.7031 -24.4629 Z M 29.1992 -67.0898 L 29.4434 -67.0898 L 44.8242 -26.709 L 13.8184 -26.709 Z"/>
  </g>
  <line id="Baseline-L" style="fill:none;stroke:#27AAE1;opacity:1;stroke-width:0.577;" x1="263" x2="3036" y1="1556" y2="1556"/>
  <line id="Capline-L" style="fill:none;stroke:#27AAE1;opacity:1;stroke-width:0.577;" x1="263" x2="3036" y1="1485.54" y2="1485.54"/>
  <rect height="119.336" id="left-margin" style="fill:#00AEEF;stroke:none;opacity:0.4;" width="12.4512" x="1392.45" y="1030.79"/>
  <rect height="119.336" id="right-margin" style="fill:#00AEEF;stroke:none;opacity:0.4;" width="12.4512" x="1494.79" y="1030.79"/>
 </g>
 <g id="Symbols">
  <g id="Black-L" transform="matrix(1 0 0 1 2855.62 1556)">
   <path d="M 39.9902 26.5137 L 115.576 26.5137 C 130.811 26.5137 139.502 17.8711 139.502 2.68555 L 139.502 -73.0957 C 139.502 -88.2812 130.811 -96.875 115.576 -96.875 L 39.9902 -96.875 C 24.7559 -96.875 16.0645 -88.2812 16.0645 -73.0957 L 16.0645 2.68555 C 16.0645 17.8711 24.7559 26.5137 39.9902 26.5137 Z M 42.6758 6.29883 C 38.4766 6.29883 36.3281 4.39453 36.3281 -0.146484 L 36.3281 -70.2148 C 36.3281 -74.7559 38.4766 -76.6602 42.6758 -76.6602 L 112.842 -76.6602 C 117.09 -76.6602 119.238 -74.7559 119.238 -70.2148 L 119.238 -0.146484 C 119.238 4.39453 117.09 6.29883 112.842 6.29883 Z M 59.1309 -8.69141 C 61.5723 -8.69141 63.5254 -9.42383 65.0879 -11.0352 L 77.7832 -23.6816 L 90.5273 -11.0352 C 92.0898 -9.47266 94.043 -8.69141 96.4844 -8.69141 C 100.977 -8.69141 104.443 -12.1582 104.443 -16.748 C 104.443 -18.7988 103.564 -20.752 102.051 -22.2656 L 89.2578 -35.1074 L 102.051 -48.0469 C 103.613 -49.6094 104.492 -51.5137 104.492 -53.5156 C 104.492 -58.1055 101.025 -61.5723 96.4844 -61.5723 C 94.0918 -61.5723 92.2363 -60.8398 90.625 -59.2285 L 77.7832 -46.5332 L 65.0391 -59.2285 C 63.4766 -60.791 61.5723 -61.5234 59.1309 -61.5234 C 54.6387 -61.5234 51.1719 -58.1055 51.1719 -53.5156 C 51.1719 -51.5137 52.0508 -49.5117 53.5645 -47.998 L 66.4062 -35.1074 L 53.5645 -22.2656 C 52.0508 -20.752 51.1719 -18.75 51.1719 -16.748 C 51.1719 -12.1582 54.6387 -8.69141 59.1309 -8.69141 Z"/>
  </g>
  <g id="Heavy-L" transform="matrix(1 0 0 1 2559.93 1556)">
   <path d="M 38.8184 25.4883 L 114.697 25.4883 C 129.346 25.4883 137.451 17.4316 137.451 2.88086 L 137.451 -73.2422 C 137.451 -87.793 129.346 -95.8496 114.697 -95.8496 L 38.8184 -95.8496 C 24.2188 -95.8496 16.0645 -87.793 16.0645 -73.2422 L 16.0645 2.88086 C 16.0645 17.4316 24.2188 25.4883 38.8184 25.4883 Z M 40.918 8.00781 C 36.084 8.00781 33.5938 5.71289 33.5938 0.585938 L 33.5938 -70.9473 C 33.5938 -76.0742 36.084 -78.3691 40.918 -78.3691 L 112.549 -78.3691 C 117.383 -78.3691 119.922 -76.0742 119.922 -70.9473 L 119.922 0.585938 C 119.922 5.71289 117.383 8.00781 112.549 8.00781 Z M 57.373 -8.74023 C 59.5215 -8.74023 61.2793 -9.42383 62.6465 -10.8887 L 76.7578 -24.9512 L 90.918 -10.8887 C 92.334 -9.47266 94.043 -8.74023 96.1914 -8.74023 C 100.244 -8.74023 103.32 -11.8652 103.32 -15.9668 C 103.32 -17.8223 102.539 -19.5312 101.172 -20.8984 L 86.9629 -35.1562 L 101.221 -49.4141 C 102.588 -50.8301 103.369 -52.5391 103.369 -54.3457 C 103.369 -58.4473 100.244 -61.5234 96.2402 -61.5234 C 94.0918 -61.5234 92.4805 -60.8887 91.0156 -59.4238 L 76.7578 -45.2637 L 62.5977 -59.375 C 61.2305 -60.8398 59.5215 -61.4746 57.373 -61.4746 C 53.3691 -61.4746 50.2441 -58.3984 50.2441 -54.3457 C 50.2441 -52.4902 51.0254 -50.7812 52.3926 -49.4141 L 66.6504 -35.1562 L 52.3926 -20.8984 C 51.0254 -19.5312 50.2441 -17.7734 50.2441 -15.9668 C 50.2441 -11.8652 53.3691 -8.74023 57.373 -8.74023 Z"/>
  </g>
  <g id="Bold-L" transform="matrix(1 0 0 1 2264.37 1556)">
   <path d="M 37.5 24.3652 L 113.721 24.3652 C 127.637 24.3652 135.156 16.8945 135.156 3.07617 L 135.156 -73.3887 C 135.156 -87.207 127.637 -94.7266 113.721 -94.7266 L 37.5 -94.7266 C 23.6328 -94.7266 16.0645 -87.2559 16.0645 -73.3887 L 16.0645 3.07617 C 16.0645 16.8945 23.6328 24.3652 37.5 24.3652 Z M 38.9648 9.91211 C 33.4473 9.91211 30.5176 7.17773 30.5176 1.41602 L 30.5176 -71.7285 C 30.5176 -77.5391 33.4473 -80.2734 38.9648 -80.2734 L 112.256 -80.2734 C 117.725 -80.2734 120.703 -77.5391 120.703 -71.7285 L 120.703 1.41602 C 120.703 7.17773 117.725 9.91211 112.256 9.91211 Z M 55.4199 -8.83789 C 57.2266 -8.83789 58.7402 -9.47266 59.9609 -10.6934 L 75.6348 -26.3672 L 91.3086 -10.6934 C 92.5293 -9.47266 94.043 -8.83789 95.8984 -8.83789 C 99.3652 -8.83789 102.051 -11.5723 102.051 -15.0391 C 102.051 -16.6992 101.416 -18.1641 100.195 -19.3848 L 84.4238 -35.1562 L 100.244 -51.0254 C 101.465 -52.2461 102.1 -53.6621 102.1 -55.2734 C 102.1 -58.7891 99.4141 -61.4746 95.8984 -61.4746 C 94.1406 -61.4746 92.7246 -60.8887 91.4551 -59.6191 L 75.6348 -43.8965 L 59.9121 -59.5703 C 58.6914 -60.8398 57.2266 -61.4258 55.4199 -61.4258 C 51.9531 -61.4258 49.2188 -58.7402 49.2188 -55.2734 C 49.2188 -53.6621 49.9023 -52.1484 51.123 -50.9766 L 66.8945 -35.1562 L 51.123 -19.3359 C 49.9023 -18.1641 49.2188 -16.6504 49.2188 -15.0391 C 49.2188 -11.5723 51.9531 -8.83789 55.4199 -8.83789 Z"/>
  </g>
  <g id="Semibold-L" transform="matrix(1 0 0 1 1968.44 1556)">
   <path d="M 36.6211 23.584 L 113.037 23.584 C 126.514 23.584 133.594 16.5039 133.594 3.17383 L 133.594 -73.5352 C 133.594 -86.8164 126.514 -93.9453 113.037 -93.9453 L 36.6211 -93.9453 C 23.1934 -93.9453 16.0645 -86.8652 16.0645 -73.5352 L 16.0645 3.17383 C 16.0645 16.5527 23.1934 23.584 36.6211 23.584 Z M 37.5977 11.2793 C 31.6406 11.2793 28.418 8.20312 28.418 1.95312 L 28.418 -72.3145 C 28.418 -78.5156 31.6406 -81.5918 37.5977 -81.5918 L 112.061 -81.5918 C 117.969 -81.5918 121.24 -78.5156 121.24 -72.3145 L 121.24 1.95312 C 121.24 8.20312 117.969 11.2793 112.061 11.2793 Z M 54.0527 -8.88672 C 55.6641 -8.88672 57.0312 -9.47266 58.1055 -10.5957 L 74.8047 -27.3438 L 91.6016 -10.5957 C 92.7246 -9.52148 94.043 -8.88672 95.6543 -8.88672 C 98.7793 -8.88672 101.172 -11.377 101.172 -14.4531 C 101.172 -15.9668 100.586 -17.2363 99.5117 -18.3594 L 82.7148 -35.1562 L 99.5605 -52.0996 C 100.684 -53.2227 101.221 -54.4922 101.221 -55.957 C 101.221 -59.0332 98.7793 -61.4258 95.7031 -61.4258 C 94.1406 -61.4258 92.9199 -60.9375 91.748 -59.7656 L 74.8047 -42.9199 L 58.0078 -59.7168 C 56.9336 -60.8398 55.6641 -61.3281 54.0527 -61.3281 C 50.9766 -61.3281 48.5352 -58.9844 48.5352 -55.9082 C 48.5352 -54.4434 49.1211 -53.0762 50.1953 -52.0508 L 67.041 -35.1562 L 50.1953 -18.3105 C 49.1211 -17.2363 48.5352 -15.918 48.5352 -14.4531 C 48.5352 -11.377 50.9766 -8.88672 54.0527 -8.88672 Z"/>
  </g>
  <g id="Medium-L" transform="matrix(1 0 0 1 1672.31 1556)">
   <path d="M 35.9375 22.998 L 112.5 22.998 C 125.635 22.998 132.422 16.2109 132.422 3.27148 L 132.422 -73.6328 C 132.422 -86.5234 125.635 -93.3105 112.5 -93.3105 L 35.9375 -93.3105 C 22.9004 -93.3105 16.0645 -86.5723 16.0645 -73.6328 L 16.0645 3.27148 C 16.0645 16.2598 22.9004 22.998 35.9375 22.998 Z M 36.5723 12.2559 C 30.2246 12.2559 26.8066 8.98438 26.8066 2.39258 L 26.8066 -72.7051 C 26.8066 -79.2969 30.2246 -82.6172 36.5723 -82.6172 L 111.865 -82.6172 C 118.115 -82.6172 121.68 -79.2969 121.68 -72.7051 L 121.68 2.39258 C 121.68 8.98438 118.115 12.2559 111.865 12.2559 Z M 53.0273 -8.93555 C 54.4922 -8.93555 55.7129 -9.47266 56.6895 -10.498 L 74.2188 -28.0762 L 91.8457 -10.498 C 92.8223 -9.52148 94.043 -8.93555 95.5078 -8.93555 C 98.291 -8.93555 100.537 -11.1816 100.537 -13.9648 C 100.537 -15.3809 100 -16.5527 98.9746 -17.5293 L 81.3477 -35.1562 L 99.0234 -52.9297 C 100.098 -53.9551 100.586 -55.0781 100.586 -56.3965 C 100.586 -59.2285 98.3398 -61.4258 95.5566 -61.4258 C 94.1406 -61.4258 93.0664 -60.9375 91.9922 -59.8633 L 74.2188 -42.2363 L 56.5918 -59.8145 C 55.6152 -60.8398 54.4922 -61.3281 53.0273 -61.3281 C 50.1953 -61.3281 47.998 -59.1797 47.998 -56.3965 C 47.998 -55.0293 48.5352 -53.8086 49.5117 -52.8809 L 67.1875 -35.1562 L 49.5117 -17.4805 C 48.5352 -16.5527 47.998 -15.332 47.998 -13.9648 C 47.998 -11.1816 50.1953 -8.93555 53.0273 -8.93555 Z"/>
  </g>
  <g id="Regular-L" transform="matrix(1 0 0 1 1376.38 1556)">
   <path d="M 35.0586 22.2168 L 111.816 22.2168 C 124.463 22.2168 130.859 15.8691 130.859 3.41797 L 130.859 -73.7305 C 130.859 -86.1816 124.463 -92.5293 111.816 -92.5293 L 35.0586 -92.5293 C 22.4609 -92.5293 16.0645 -86.2305 16.0645 -73.7305 L 16.0645 3.41797 C 16.0645 15.918 22.4609 22.2168 35.0586 22.2168 Z M 35.2539 13.5742 C 28.418 13.5742 24.707 9.96094 24.707 2.97852 L 24.707 -73.291 C 24.707 -80.2734 28.418 -83.8867 35.2539 -83.8867 L 111.67 -83.8867 C 118.359 -83.8867 122.217 -80.2734 122.217 -73.291 L 122.217 2.97852 C 122.217 9.96094 118.359 13.5742 111.67 13.5742 Z M 51.6602 -9.0332 C 52.9297 -9.0332 53.9551 -9.47266 54.834 -10.4004 L 73.4375 -29.0527 L 92.1387 -10.4004 C 92.9688 -9.52148 94.043 -9.0332 95.3125 -9.0332 C 97.7051 -9.0332 99.6582 -10.9863 99.6582 -13.3789 C 99.6582 -14.6484 99.2188 -15.625 98.3398 -16.5039 L 79.6387 -35.2051 L 98.3887 -53.9551 C 99.3164 -54.8828 99.707 -55.8594 99.707 -57.0312 C 99.707 -59.4727 97.7539 -61.377 95.3613 -61.377 C 94.1895 -61.377 93.2129 -60.9375 92.2852 -60.0098 L 73.4375 -41.2598 L 54.7363 -59.9609 C 53.8574 -60.8398 52.9297 -61.2793 51.6602 -61.2793 C 49.2676 -61.2793 47.3145 -59.4238 47.3145 -56.9824 C 47.3145 -55.8105 47.7539 -54.7363 48.6328 -53.9062 L 67.334 -35.2051 L 48.6328 -16.4551 C 47.7539 -15.625 47.3145 -14.5996 47.3145 -13.3789 C 47.3145 -10.9863 49.2676 -9.0332 51.6602 -9.0332 Z"/>
  </g>
  <g id="Light-L" transform="matrix(1 0 0 1 1080.5 1556)">
   <path d="M 34.0332 21.4355 L 111.23 21.4355 C 123.096 21.4355 129.199 15.2344 129.199 3.56445 L 129.199 -73.8281 C 129.199 -85.5469 123.096 -91.6992 111.23 -91.6992 L 34.0332 -91.6992 C 22.168 -91.6992 16.0645 -85.6445 16.0645 -73.8281 L 16.0645 3.56445 C 16.0645 15.3809 22.168 21.4355 34.0332 21.4355 Z M 34.1797 14.7949 C 26.709 14.7949 22.7051 10.8398 22.7051 3.22266 L 22.7051 -73.4863 C 22.7051 -81.1523 26.709 -85.0586 34.1797 -85.0586 L 111.035 -85.0586 C 118.359 -85.0586 122.559 -81.1523 122.559 -73.4863 L 122.559 3.22266 C 122.559 10.8398 118.359 14.7949 111.035 14.7949 Z M 50.4395 -9.57031 C 51.416 -9.57031 52.1973 -9.91211 52.9785 -10.6934 L 72.6074 -30.3711 L 92.334 -10.6934 C 93.0664 -9.96094 93.8477 -9.57031 94.873 -9.57031 C 96.7773 -9.57031 98.291 -11.084 98.291 -12.9395 C 98.291 -13.916 97.9492 -14.6973 97.2168 -15.4297 L 77.4414 -35.2051 L 97.2656 -55.0293 C 97.998 -55.7617 98.3398 -56.4941 98.3398 -57.4707 C 98.3398 -59.3262 96.8262 -60.791 94.873 -60.791 C 93.9453 -60.791 93.2129 -60.498 92.4316 -59.668 L 72.6074 -39.9414 L 52.8809 -59.668 C 52.1484 -60.4492 51.416 -60.7422 50.4395 -60.7422 C 48.4863 -60.7422 46.9727 -59.3262 46.9727 -57.4707 C 46.9727 -56.4941 47.3145 -55.6641 48.0469 -54.9805 L 67.8223 -35.2051 L 48.0469 -15.3809 C 47.3145 -14.6973 46.9727 -13.916 46.9727 -12.9395 C 46.9727 -11.084 48.4863 -9.57031 50.4395 -9.57031 Z"/>
  </g>
  <g id="Thin-L" transform="matrix(1 0 0 1 784.889 1556)">
   <path d="M 32.666 20.3613 L 110.352 20.3613 C 121.24 20.3613 127.002 14.4531 127.002 3.75977 L 127.002 -73.9746 C 127.002 -84.7168 121.24 -90.5762 110.352 -90.5762 L 32.666 -90.5762 C 21.7773 -90.5762 16.0645 -84.8633 16.0645 -73.9746 L 16.0645 3.75977 C 16.0645 14.6484 21.7773 20.3613 32.666 20.3613 Z M 32.8125 16.4062 C 24.4141 16.4062 19.9707 12.0117 19.9707 3.56445 L 19.9707 -73.7793 C 19.9707 -82.2754 24.4141 -86.6699 32.8125 -86.6699 L 110.205 -86.6699 C 118.359 -86.6699 123.047 -82.2754 123.047 -73.7793 L 123.047 3.56445 C 123.047 12.0117 118.359 16.4062 110.205 16.4062 Z M 48.7305 -10.3027 C 49.4629 -10.3027 49.9023 -10.498 50.4883 -11.1328 L 71.5332 -32.1289 L 92.5781 -11.1328 C 93.1641 -10.498 93.6523 -10.3027 94.2871 -10.3027 C 95.5078 -10.3027 96.4844 -11.1816 96.4844 -12.3535 C 96.4844 -12.9883 96.2891 -13.4766 95.752 -14.0137 L 74.5605 -35.2051 L 95.752 -56.3965 C 96.2891 -56.9336 96.4844 -57.373 96.4844 -58.0566 C 96.4844 -59.1797 95.5566 -60.0586 94.2871 -60.0586 C 93.6523 -60.0586 93.2129 -59.8633 92.5781 -59.2773 L 71.5332 -38.2324 L 50.4883 -59.2773 C 49.9023 -59.8633 49.4629 -60.0586 48.7305 -60.0586 C 47.5098 -60.0586 46.582 -59.1797 46.582 -58.0566 C 46.582 -57.373 46.7773 -56.8848 47.3145 -56.3965 L 68.5059 -35.2051 L 47.3145 -14.0137 C 46.7773 -13.4766 46.582 -12.9883 46.582 -12.3535 C 46.582 -11.1816 47.5098 -10.3027 48.7305 -10.3027 Z"/>
  </g>
  <g id="Ultralight-L" transform="matrix(1 0 0 1 488.739 1556)">
   <path d="M 31.9824 19.7754 L 109.961 19.7754 C 120.312 19.7754 125.879 14.0625 125.879 3.85742 L 125.879 -74.0723 C 125.879 -84.2773 120.312 -89.9902 109.961 -89.9902 L 31.9824 -89.9902 C 21.582 -89.9902 16.0645 -84.4727 16.0645 -74.0723 L 16.0645 3.85742 C 16.0645 14.2578 21.582 19.7754 31.9824 19.7754 Z M 32.1289 17.2363 C 23.1934 17.2363 18.6035 12.6465 18.6035 3.75977 L 18.6035 -73.9258 C 18.6035 -82.8125 23.1934 -87.4512 32.1289 -87.4512 L 109.766 -87.4512 C 118.359 -87.4512 123.291 -82.8125 123.291 -73.9258 L 123.291 3.75977 C 123.291 12.6465 118.359 17.2363 109.766 17.2363 Z M 47.9004 -10.6934 C 48.4863 -10.6934 48.6816 -10.791 49.2188 -11.3281 L 70.9473 -33.0566 L 92.6758 -11.3281 C 93.2129 -10.791 93.5547 -10.6934 93.9941 -10.6934 C 94.873 -10.6934 95.5566 -11.2305 95.5566 -12.0605 C 95.5566 -12.5 95.4102 -12.8418 95.0195 -13.2812 L 73.0957 -35.2051 L 94.9707 -57.0801 C 95.4102 -57.5195 95.5566 -57.8613 95.5566 -58.3496 C 95.5566 -59.1309 94.873 -59.7168 93.9941 -59.7168 C 93.5059 -59.7168 93.1641 -59.5703 92.6758 -59.0332 L 70.9473 -37.3535 L 49.2188 -59.082 C 48.7305 -59.5703 48.4863 -59.7168 47.9004 -59.7168 C 47.0215 -59.7168 46.3379 -59.1309 46.3379 -58.3496 C 46.3379 -57.8613 46.4844 -57.5195 46.9238 -57.0801 L 68.7988 -35.2051 L 46.9238 -13.2812 C 46.4844 -12.8418 46.3379 -12.5488 46.3379 -12.0605 C 46.3379 -11.2305 47.0215 -10.6934 47.9004 -10.6934 Z"/>
  </g>
  <g id="Black-M" transform="matrix(1 0 0 1 2872.19 1126)">
   <path d="M 31.9824 13.5742 L 90.4297 13.5742 C 102.686 13.5742 109.961 6.29883 109.961 -5.95703 L 109.961 -64.4043 C 109.961 -76.6602 102.686 -83.9355 90.4297 -83.9355 L 31.9824 -83.9355 C 19.7266 -83.9355 12.4512 -76.6602 12.4512 -64.4043 L 12.4512 -5.95703 C 12.4512 6.29883 19.7266 13.5742 31.9824 13.5742 Z M 34.9121 -4.73633 C 32.0801 -4.73633 30.7617 -5.81055 30.7617 -8.88672 L 30.7617 -61.4746 C 30.7617 -64.5508 32.0801 -65.6738 34.9121 -65.6738 L 87.5 -65.6738 C 90.332 -65.6738 91.6504 -64.5508 91.6504 -61.4746 L 91.6504 -8.88672 C 91.6504 -5.81055 90.332 -4.73633 87.5 -4.73633 Z M 47.5586 -14.8438 C 49.707 -14.8438 51.3184 -15.4785 52.7344 -16.8457 L 61.1816 -25.293 L 69.7754 -16.8457 C 71.1426 -15.4785 72.7539 -14.8438 74.9023 -14.8438 C 78.8086 -14.8438 81.7383 -17.7734 81.7383 -21.7285 C 81.7383 -23.4375 81.0059 -25.1465 79.6875 -26.4648 L 71.0449 -35.1562 L 79.6875 -43.7988 C 81.0059 -45.1172 81.7383 -46.8262 81.7383 -48.5352 C 81.7383 -52.4902 78.8086 -55.4199 74.9023 -55.4199 C 72.7539 -55.4199 71.1426 -54.7852 69.7754 -53.418 L 61.1816 -44.9219 L 52.7344 -53.418 C 51.3184 -54.834 49.707 -55.4199 47.5586 -55.4199 C 43.6523 -55.4199 40.7227 -52.4902 40.7227 -48.5352 C 40.7227 -46.8262 41.4551 -45.1172 42.7734 -43.7988 L 51.4648 -35.1562 L 42.7734 -26.4648 C 41.4551 -25.1465 40.7227 -23.4375 40.7227 -21.7285 C 40.7227 -17.7734 43.6523 -14.8438 47.5586 -14.8438 Z"/>
  </g>
  <g id="Heavy-M" transform="matrix(1 0 0 1 2576.39 1126)">
   <path d="M 31.0059 12.6465 L 89.6484 12.6465 C 101.416 12.6465 108.154 5.9082 108.154 -5.81055 L 108.154 -64.5508 C 108.154 -76.2695 101.416 -83.0566 89.6484 -83.0566 L 31.0059 -83.0566 C 19.2383 -83.0566 12.4512 -76.3184 12.4512 -64.5508 L 12.4512 -5.81055 C 12.4512 5.9082 19.2383 12.6465 31.0059 12.6465 Z M 33.252 -3.17383 C 29.9316 -3.17383 28.2715 -4.63867 28.2715 -8.1543 L 28.2715 -62.207 C 28.2715 -65.7715 29.9316 -67.2363 33.252 -67.2363 L 87.3535 -67.2363 C 90.6738 -67.2363 92.334 -65.7715 92.334 -62.207 L 92.334 -8.1543 C 92.334 -4.63867 90.6738 -3.17383 87.3535 -3.17383 Z M 45.9473 -14.7949 C 47.8516 -14.7949 49.3164 -15.332 50.5371 -16.6016 L 60.3027 -26.3184 L 70.1172 -16.6016 C 71.3379 -15.3809 72.8027 -14.7949 74.707 -14.7949 C 78.2227 -14.7949 80.8594 -17.4316 80.8594 -20.9961 C 80.8594 -22.5586 80.2246 -24.0723 79.0039 -25.2441 L 69.1406 -35.1562 L 79.0039 -45.0684 C 80.2246 -46.2891 80.9082 -47.7539 80.9082 -49.3164 C 80.9082 -52.8809 78.2227 -55.5176 74.707 -55.5176 C 72.8516 -55.5176 71.3867 -54.9316 70.166 -53.7109 L 60.3027 -43.9453 L 50.5371 -53.7109 C 49.3164 -54.9316 47.8516 -55.5176 45.9473 -55.5176 C 42.4805 -55.5176 39.7949 -52.832 39.7949 -49.3164 C 39.7949 -47.7539 40.4785 -46.2402 41.6504 -45.0684 L 51.5625 -35.1562 L 41.6504 -25.2441 C 40.4785 -24.0723 39.7949 -22.5586 39.7949 -20.9961 C 39.7949 -17.4316 42.4805 -14.7949 45.9473 -14.7949 Z"/>
  </g>
  <g id="Bold-M" transform="matrix(1 0 0 1 2280.68 1126)">
   <path d="M 29.8828 11.6699 L 88.7207 11.6699 C 99.9512 11.6699 106.152 5.46875 106.152 -5.66406 L 106.152 -64.6973 C 106.152 -75.8789 99.9512 -82.0312 88.7207 -82.0312 L 29.8828 -82.0312 C 18.6523 -82.0312 12.4512 -75.8789 12.4512 -64.6973 L 12.4512 -5.66406 C 12.4512 5.51758 18.6523 11.6699 29.8828 11.6699 Z M 31.3965 -1.41602 C 27.5391 -1.41602 25.5371 -3.27148 25.5371 -7.32422 L 25.5371 -63.0371 C 25.5371 -67.1387 27.5391 -68.9453 31.3965 -68.9453 L 87.207 -68.9453 C 91.0156 -68.9453 93.0664 -67.1387 93.0664 -63.0371 L 93.0664 -7.32422 C 93.0664 -3.27148 91.0156 -1.41602 87.207 -1.41602 Z M 44.1406 -14.6973 C 45.752 -14.6973 47.0703 -15.2344 48.1445 -16.3086 L 59.3262 -27.4902 L 70.5078 -16.3086 C 71.582 -15.2832 72.8516 -14.6973 74.5117 -14.6973 C 77.5391 -14.6973 79.8828 -17.0898 79.8828 -20.166 C 79.8828 -21.5332 79.2969 -22.8516 78.2715 -23.877 L 66.9922 -35.1562 L 78.2715 -46.4844 C 79.3457 -47.5586 79.9316 -48.8281 79.9316 -50.1953 C 79.9316 -53.2715 77.5391 -55.6152 74.5117 -55.6152 C 72.9492 -55.6152 71.6797 -55.127 70.6055 -54.0039 L 59.3262 -42.7734 L 48.0957 -54.0039 C 47.0215 -55.0781 45.752 -55.5664 44.1406 -55.5664 C 41.1133 -55.5664 38.7695 -53.2715 38.7695 -50.1953 C 38.7695 -48.8281 39.3555 -47.5098 40.3809 -46.4844 L 51.6602 -35.1562 L 40.3809 -23.877 C 39.3555 -22.8516 38.7695 -21.5332 38.7695 -20.166 C 38.7695 -17.0898 41.1133 -14.6973 44.1406 -14.6973 Z"/>
  </g>
  <g id="Semibold-M" transform="matrix(1 0 0 1 1984.65 1126)">
   <path d="M 29.1016 10.9863 L 88.0859 10.9863 C 98.9746 10.9863 104.785 5.17578 104.785 -5.56641 L 104.785 -64.8438 C 104.785 -75.5859 98.9746 -81.3477 88.0859 -81.3477 L 29.1016 -81.3477 C 18.2617 -81.3477 12.4512 -75.5859 12.4512 -64.8438 L 12.4512 -5.56641 C 12.4512 5.22461 18.2617 10.9863 29.1016 10.9863 Z M 30.127 -0.195312 C 25.8789 -0.195312 23.6328 -2.34375 23.6328 -6.78711 L 23.6328 -63.623 C 23.6328 -68.0664 25.8789 -70.166 30.127 -70.166 L 87.1094 -70.166 C 91.2598 -70.166 93.6035 -68.0664 93.6035 -63.623 L 93.6035 -6.78711 C 93.6035 -2.34375 91.2598 -0.195312 87.1094 -0.195312 Z M 42.9199 -14.6973 C 44.3359 -14.6973 45.5078 -15.1367 46.4844 -16.1133 L 58.5938 -28.2715 L 70.8008 -16.1133 C 71.7285 -15.1855 72.9004 -14.6973 74.3652 -14.6973 C 77.0508 -14.6973 79.1992 -16.8457 79.1992 -19.5801 C 79.1992 -20.8496 78.6621 -22.0215 77.7344 -22.9492 L 65.5273 -35.1562 L 77.7832 -47.4609 C 78.7598 -48.4375 79.248 -49.5605 79.248 -50.8301 C 79.248 -53.5645 77.0996 -55.6641 74.3652 -55.6641 C 72.998 -55.6641 71.9238 -55.2246 70.8984 -54.248 L 58.5938 -42.041 L 46.3867 -54.1992 C 45.459 -55.1758 44.3359 -55.6152 42.9199 -55.6152 C 40.1855 -55.6152 38.0859 -53.5156 38.0859 -50.7812 C 38.0859 -49.5117 38.5742 -48.3398 39.5508 -47.4121 L 51.7578 -35.1562 L 39.5508 -22.9004 C 38.5742 -22.0215 38.0859 -20.8496 38.0859 -19.5801 C 38.0859 -16.8457 40.1855 -14.6973 42.9199 -14.6973 Z"/>
  </g>
  <g id="Medium-M" transform="matrix(1 0 0 1 1688.47 1126)">
   <path d="M 28.5156 10.4492 L 87.6465 10.4492 C 98.2422 10.4492 103.711 4.98047 103.711 -5.46875 L 103.711 -64.8926 C 103.711 -75.3418 98.2422 -80.8105 87.6465 -80.8105 L 28.5156 -80.8105 C 17.9688 -80.8105 12.4512 -75.3906 12.4512 -64.8926 L 12.4512 -5.46875 C 12.4512 4.98047 17.9688 10.4492 28.5156 10.4492 Z M 29.1504 0.732422 C 24.6582 0.732422 22.168 -1.61133 22.168 -6.34766 L 22.168 -64.0137 C 22.168 -68.75 24.6582 -71.0938 29.1504 -71.0938 L 87.0117 -71.0938 C 91.4551 -71.0938 93.9941 -68.75 93.9941 -64.0137 L 93.9941 -6.34766 C 93.9941 -1.61133 91.4551 0.732422 87.0117 0.732422 Z M 41.9922 -14.6484 C 43.2617 -14.6484 44.3359 -15.0879 45.2148 -15.9668 L 58.1055 -28.9062 L 70.9961 -15.9668 C 71.875 -15.1367 72.9492 -14.6484 74.2188 -14.6484 C 76.709 -14.6484 78.7109 -16.6504 78.7109 -19.1406 C 78.7109 -20.3613 78.2227 -21.3867 77.3438 -22.2656 L 64.4043 -35.2051 L 77.3926 -48.1934 C 78.2715 -49.1211 78.7109 -50.0977 78.7109 -51.2695 C 78.7109 -53.7598 76.7578 -55.7129 74.2676 -55.7129 C 73.0469 -55.7129 72.0703 -55.3223 71.1426 -54.3945 L 58.1055 -41.4062 L 45.1172 -54.3457 C 44.2871 -55.2246 43.2617 -55.6641 41.9922 -55.6641 C 39.502 -55.6641 37.5488 -53.7598 37.5488 -51.2695 C 37.5488 -50.0488 38.0371 -48.9746 38.8672 -48.1445 L 51.8066 -35.2051 L 38.8672 -22.2168 C 38.0371 -21.3867 37.5488 -20.3125 37.5488 -19.1406 C 37.5488 -16.6504 39.502 -14.6484 41.9922 -14.6484 Z"/>
  </g>
  <g id="Regular-M" transform="matrix(1 0 0 1 1392.45 1126)">
   <path d="M 27.7832 9.76562 L 87.0117 9.76562 C 97.2656 9.76562 102.344 4.6875 102.344 -5.37109 L 102.344 -64.9902 C 102.344 -75.0488 97.2656 -80.127 87.0117 -80.127 L 27.7832 -80.127 C 17.5781 -80.127 12.4512 -75.0977 12.4512 -64.9902 L 12.4512 -5.37109 C 12.4512 4.73633 17.5781 9.76562 27.7832 9.76562 Z M 27.8809 1.9043 C 22.998 1.9043 20.3125 -0.683594 20.3125 -5.76172 L 20.3125 -64.5996 C 20.3125 -69.6777 22.998 -72.2656 27.8809 -72.2656 L 86.9141 -72.2656 C 91.748 -72.2656 94.4824 -69.6777 94.4824 -64.5996 L 94.4824 -5.76172 C 94.4824 -0.683594 91.748 1.9043 86.9141 1.9043 Z M 40.7715 -14.5996 C 41.8457 -14.5996 42.8223 -15.0391 43.5547 -15.8203 L 57.4219 -29.6875 L 71.2891 -15.8203 C 72.0215 -15.0879 72.9492 -14.5996 74.0723 -14.5996 C 76.2695 -14.5996 78.0273 -16.3574 78.0273 -18.5547 C 78.0273 -19.6777 77.5879 -20.5566 76.8066 -21.3379 L 62.9395 -35.2051 L 76.8555 -49.1699 C 77.6855 -50 78.0762 -50.8301 78.0762 -51.9043 C 78.0762 -54.0527 76.3184 -55.8105 74.1211 -55.8105 C 73.0957 -55.8105 72.2656 -55.4199 71.4355 -54.5898 L 57.4219 -40.6738 L 43.457 -54.541 C 42.7246 -55.3223 41.8457 -55.7129 40.7715 -55.7129 C 38.5742 -55.7129 36.8164 -54.0039 36.8164 -51.8555 C 36.8164 -50.7812 37.2559 -49.8535 38.0371 -49.1211 L 51.9043 -35.2051 L 38.0371 -21.2891 C 37.2559 -20.5566 36.8164 -19.6289 36.8164 -18.5547 C 36.8164 -16.3574 38.5742 -14.5996 40.7715 -14.5996 Z"/>
  </g>
  <g id="Light-M" transform="matrix(1 0 0 1 1096.47 1126)">
   <path d="M 26.8555 9.0332 L 86.4746 9.0332 C 95.9961 9.0332 100.879 4.15039 100.879 -5.22461 L 100.879 -65.0879 C 100.879 -74.5117 95.9961 -79.3945 86.4746 -79.3945 L 26.8555 -79.3945 C 17.334 -79.3945 12.4512 -74.5605 12.4512 -65.0879 L 12.4512 -5.22461 C 12.4512 4.19922 17.334 9.0332 26.8555 9.0332 Z M 26.9531 2.97852 C 21.4844 2.97852 18.5059 0.0976562 18.5059 -5.56641 L 18.5059 -64.7949 C 18.5059 -70.4102 21.4844 -73.3398 26.9531 -73.3398 L 86.3281 -73.3398 C 91.748 -73.3398 94.8242 -70.4102 94.8242 -64.7949 L 94.8242 -5.56641 C 94.8242 0.0976562 91.748 2.97852 86.3281 2.97852 Z M 39.6484 -15.0879 C 40.5273 -15.0879 41.2598 -15.4297 41.8945 -16.0645 L 56.6406 -30.8594 L 71.4844 -16.0645 C 72.0703 -15.4297 72.8027 -15.0879 73.7305 -15.0879 C 75.4395 -15.0879 76.8066 -16.4551 76.8066 -18.1641 C 76.8066 -19.043 76.4648 -19.7266 75.8301 -20.3613 L 60.9863 -35.2051 L 75.8789 -50.0977 C 76.5137 -50.7812 76.8066 -51.416 76.8066 -52.2949 C 76.8066 -53.9551 75.4395 -55.3223 73.7305 -55.3223 C 72.9004 -55.3223 72.2656 -55.0293 71.582 -54.2969 L 56.6406 -39.502 L 41.7969 -54.2969 C 41.2109 -54.9316 40.5273 -55.2246 39.6484 -55.2246 C 37.9395 -55.2246 36.5723 -53.9551 36.5723 -52.2461 C 36.5723 -51.416 36.8652 -50.6836 37.5 -50.0488 L 52.3438 -35.2051 L 37.5 -20.3125 C 36.8652 -19.7266 36.5723 -18.9941 36.5723 -18.1641 C 36.5723 -16.4551 37.9395 -15.0879 39.6484 -15.0879 Z"/>
  </g>
  <g id="Thin-M" transform="matrix(1 0 0 1 800.758 1126)">
   <path d="M 25.6348 8.05664 L 85.7422 8.05664 C 94.3848 8.05664 98.877 3.4668 98.877 -5.0293 L 98.877 -65.2344 C 98.877 -73.7305 94.3848 -78.3691 85.7422 -78.3691 L 25.6348 -78.3691 C 16.9922 -78.3691 12.4512 -73.877 12.4512 -65.2344 L 12.4512 -5.0293 C 12.4512 3.56445 16.9922 8.05664 25.6348 8.05664 Z M 25.7324 4.44336 C 19.3848 4.44336 16.0645 1.12305 16.0645 -5.22461 L 16.0645 -65.0391 C 16.0645 -71.4355 19.3848 -74.7559 25.7324 -74.7559 L 85.5957 -74.7559 C 91.748 -74.7559 95.2637 -71.4355 95.2637 -65.0391 L 95.2637 -5.22461 C 95.2637 1.12305 91.748 4.44336 85.5957 4.44336 Z M 38.1348 -15.7715 C 38.7695 -15.7715 39.1602 -15.918 39.6484 -16.4551 L 55.6641 -32.4707 L 71.6797 -16.4551 C 72.168 -15.9668 72.6074 -15.7715 73.1934 -15.7715 C 74.3164 -15.7715 75.1465 -16.5527 75.1465 -17.627 C 75.1465 -18.2129 75 -18.6523 74.5117 -19.0918 L 58.3984 -35.2051 L 74.5117 -51.3184 C 75 -51.8066 75.1953 -52.1973 75.1953 -52.7832 C 75.1953 -53.8086 74.3164 -54.6387 73.1934 -54.6387 C 72.6562 -54.6387 72.2168 -54.4434 71.7285 -53.9551 L 55.6641 -37.9395 L 39.6484 -53.9551 C 39.1602 -54.4434 38.7695 -54.6387 38.1348 -54.6387 C 37.0605 -54.6387 36.1816 -53.8086 36.1816 -52.7832 C 36.1816 -52.1973 36.377 -51.7578 36.8164 -51.3184 L 52.9297 -35.2051 L 36.8164 -19.0918 C 36.377 -18.6523 36.1816 -18.2129 36.1816 -17.627 C 36.1816 -16.5527 37.0605 -15.7715 38.1348 -15.7715 Z"/>
  </g>
  <g id="Ultralight-M" transform="matrix(1 0 0 1 504.535 1126)">
   <path d="M 25 7.56836 L 85.3516 7.56836 C 93.5059 7.56836 97.9004 3.125 97.9004 -4.98047 L 97.9004 -65.2832 C 97.9004 -73.3887 93.5059 -77.832 85.3516 -77.832 L 25 -77.832 C 16.7969 -77.832 12.4512 -73.4863 12.4512 -65.2832 L 12.4512 -4.98047 C 12.4512 3.22266 16.7969 7.56836 25 7.56836 Z M 25.0977 5.17578 C 18.3594 5.17578 14.8438 1.66016 14.8438 -5.07812 L 14.8438 -65.1855 C 14.8438 -71.9727 18.3594 -75.4395 25.0977 -75.4395 L 85.2051 -75.4395 C 91.748 -75.4395 95.5078 -71.9727 95.5078 -65.1855 L 95.5078 -5.07812 C 95.5078 1.66016 91.748 5.17578 85.2051 5.17578 Z M 37.4023 -16.1133 C 37.8906 -16.1133 38.0859 -16.2109 38.5254 -16.6504 L 55.1758 -33.252 L 71.7773 -16.6504 C 72.2168 -16.2109 72.5098 -16.1133 72.9492 -16.1133 C 73.7305 -16.1133 74.3164 -16.6504 74.3164 -17.334 C 74.3164 -17.7734 74.2188 -18.0664 73.8281 -18.457 L 57.0801 -35.2051 L 73.8281 -51.9531 C 74.2188 -52.2949 74.3164 -52.6367 74.3164 -53.0273 C 74.3164 -53.7598 73.7305 -54.2969 72.9492 -54.2969 C 72.5098 -54.2969 72.2168 -54.1992 71.7773 -53.7598 L 55.1758 -37.1094 L 38.5254 -53.7598 C 38.0859 -54.1992 37.8906 -54.2969 37.4023 -54.2969 C 36.5723 -54.2969 35.9863 -53.7598 35.9863 -53.0273 C 35.9863 -52.6367 36.1328 -52.3438 36.4746 -51.9531 L 53.2227 -35.2051 L 36.4746 -18.457 C 36.1328 -18.0664 35.9863 -17.7734 35.9863 -17.334 C 35.9863 -16.6504 36.5723 -16.1133 37.4023 -16.1133 Z"/>
  </g>
  <g id="Black-S" transform="matrix(1 0 0 1 2885.5 696)">
   <path d="M 25 2.92969 L 70.8008 2.92969 C 80.3711 2.92969 86.0352 -2.73438 86.0352 -12.3047 L 86.0352 -58.1055 C 86.0352 -67.6758 80.3711 -73.3398 70.8008 -73.3398 L 25 -73.3398 C 15.4297 -73.3398 9.76562 -67.6758 9.76562 -58.1055 L 9.76562 -12.3047 C 9.76562 -2.73438 15.4297 2.92969 25 2.92969 Z M 27.2461 -11.2305 C 25 -11.2305 23.9258 -12.1094 23.9258 -14.5508 L 23.9258 -55.8594 C 23.9258 -58.3008 25 -59.1797 27.2461 -59.1797 L 68.5547 -59.1797 C 70.8008 -59.1797 71.875 -58.3008 71.875 -55.8594 L 71.875 -14.5508 C 71.875 -12.1094 70.8008 -11.2305 68.5547 -11.2305 Z M 37.1582 -19.2383 C 38.8184 -19.2383 40.0879 -19.7266 41.1621 -20.8008 L 47.9004 -27.4902 L 54.6875 -20.8008 C 55.7617 -19.7266 57.0312 -19.2383 58.6914 -19.2383 C 61.7188 -19.2383 64.0137 -21.5332 64.0137 -24.6094 C 64.0137 -25.9277 63.4277 -27.2461 62.4023 -28.2715 L 55.5664 -35.1562 L 62.4023 -42.041 C 63.4277 -43.0664 64.0137 -44.3848 64.0137 -45.7031 C 64.0137 -48.7793 61.7188 -51.0742 58.6914 -51.0742 C 57.0312 -51.0742 55.7617 -50.5859 54.6875 -49.5117 L 47.9004 -42.7734 L 41.1621 -49.5117 C 40.0879 -50.5859 38.8184 -51.0742 37.1582 -51.0742 C 34.1309 -51.0742 31.8359 -48.7793 31.8359 -45.7031 C 31.8359 -44.3848 32.4219 -43.0664 33.4473 -42.041 L 40.332 -35.1562 L 33.4473 -28.2715 C 32.4219 -27.2461 31.8359 -25.9277 31.8359 -24.6094 C 31.8359 -21.5332 34.1309 -19.2383 37.1582 -19.2383 Z"/>
  </g>
  <g id="Heavy-S" transform="matrix(1 0 0 1 2589.4 696)">
   <path d="M 24.3652 2.34375 L 70.2637 2.34375 C 79.541 2.34375 84.8145 -2.97852 84.8145 -12.207 L 84.8145 -58.2031 C 84.8145 -67.4316 79.541 -72.7539 70.2637 -72.7539 L 24.3652 -72.7539 C 15.0879 -72.7539 9.76562 -67.4316 9.76562 -58.2031 L 9.76562 -12.207 C 9.76562 -2.97852 15.0879 2.34375 24.3652 2.34375 Z M 26.0742 -10.1562 C 23.5352 -10.1562 22.2656 -11.2793 22.2656 -14.0137 L 22.2656 -56.3965 C 22.2656 -59.1309 23.5352 -60.2539 26.0742 -60.2539 L 68.5059 -60.2539 C 71.0449 -60.2539 72.3633 -59.1309 72.3633 -56.3965 L 72.3633 -14.0137 C 72.3633 -11.2793 71.0449 -10.1562 68.5059 -10.1562 Z M 36.0352 -19.1406 C 37.5488 -19.1406 38.7207 -19.5801 39.6973 -20.5566 L 47.3145 -28.1738 L 54.9316 -20.5566 C 55.9082 -19.6289 57.0801 -19.1406 58.5938 -19.1406 C 61.377 -19.1406 63.4766 -21.2891 63.4766 -24.0723 C 63.4766 -25.293 62.9395 -26.5137 62.0117 -27.4414 L 54.2969 -35.1562 L 62.0117 -42.9199 C 62.9395 -43.8477 63.4766 -45.0195 63.4766 -46.2891 C 63.4766 -49.0723 61.377 -51.1719 58.5938 -51.1719 C 57.1289 -51.1719 55.957 -50.7324 54.9805 -49.7559 L 47.3145 -42.1387 L 39.6973 -49.7559 C 38.7207 -50.7324 37.5488 -51.1719 36.0352 -51.1719 C 33.3008 -51.1719 31.1523 -49.0723 31.1523 -46.2402 C 31.1523 -45.0195 31.6895 -43.7988 32.666 -42.8711 L 40.3809 -35.1562 L 32.666 -27.4414 C 31.6895 -26.5137 31.1523 -25.293 31.1523 -24.0723 C 31.1523 -21.2891 33.3008 -19.1406 36.0352 -19.1406 Z"/>
  </g>
  <g id="Bold-S" transform="matrix(1 0 0 1 2293.35 696)">
   <path d="M 23.6328 1.66016 L 69.6289 1.66016 C 78.6133 1.66016 83.4961 -3.22266 83.4961 -12.1094 L 83.4961 -58.3008 C 83.4961 -67.1875 78.6133 -72.0703 69.6289 -72.0703 L 23.6328 -72.0703 C 14.6973 -72.0703 9.76562 -67.1875 9.76562 -58.3008 L 9.76562 -12.1094 C 9.76562 -3.22266 14.6973 1.66016 23.6328 1.66016 Z M 24.8047 -8.93555 C 21.9238 -8.93555 20.3613 -10.3516 20.3613 -13.4277 L 20.3613 -56.9824 C 20.3613 -60.0586 21.9238 -61.4746 24.8047 -61.4746 L 68.457 -61.4746 C 71.3379 -61.4746 72.9004 -60.0586 72.9004 -56.9824 L 72.9004 -13.4277 C 72.9004 -10.3516 71.3379 -8.93555 68.457 -8.93555 Z M 34.8145 -19.043 C 36.1328 -19.043 37.207 -19.4824 38.0371 -20.3125 L 46.6309 -28.9062 L 55.2246 -20.3125 C 56.1035 -19.4824 57.1289 -19.043 58.4473 -19.043 C 60.9375 -19.043 62.8906 -20.9961 62.8906 -23.4863 C 62.8906 -24.6582 62.4023 -25.6836 61.5234 -26.5137 L 52.9297 -35.2051 L 61.5723 -43.8477 C 62.4512 -44.7266 62.8906 -45.752 62.8906 -46.9238 C 62.8906 -49.4141 60.9863 -51.3184 58.4961 -51.3184 C 57.2266 -51.3184 56.2012 -50.9277 55.3223 -50.0488 L 46.6309 -41.4062 L 37.9883 -50 C 37.1582 -50.8789 36.1328 -51.2695 34.8145 -51.2695 C 32.3242 -51.2695 30.4199 -49.3652 30.4199 -46.875 C 30.4199 -45.752 30.9082 -44.6777 31.7383 -43.8477 L 40.3809 -35.2051 L 31.7383 -26.5137 C 30.9082 -25.6836 30.4199 -24.6094 30.4199 -23.4863 C 30.4199 -20.9961 32.3242 -19.043 34.8145 -19.043 Z"/>
  </g>
  <g id="Semibold-S" transform="matrix(1 0 0 1 1997.1 696)">
   <path d="M 23.0957 1.17188 L 69.1895 1.17188 C 77.9297 1.17188 82.5684 -3.36914 82.5684 -12.0117 L 82.5684 -58.3984 C 82.5684 -67.041 77.9297 -71.582 69.1895 -71.582 L 23.0957 -71.582 C 14.4043 -71.582 9.76562 -67.041 9.76562 -58.3984 L 9.76562 -12.0117 C 9.76562 -3.36914 14.4043 1.17188 23.0957 1.17188 Z M 23.877 -8.10547 C 20.752 -8.10547 19.0918 -9.7168 19.0918 -12.9883 L 19.0918 -57.4219 C 19.0918 -60.6934 20.752 -62.3047 23.877 -62.3047 L 68.4082 -62.3047 C 71.5332 -62.3047 73.2422 -60.6934 73.2422 -57.4219 L 73.2422 -12.9883 C 73.2422 -9.7168 71.5332 -8.10547 68.4082 -8.10547 Z M 33.9844 -18.9453 C 35.1562 -18.9453 36.1816 -19.3848 36.9141 -20.166 L 46.1426 -29.3945 L 55.4199 -20.166 C 56.2012 -19.3848 57.1777 -18.9453 58.3984 -18.9453 C 60.6445 -18.9453 62.4512 -20.752 62.4512 -23.0469 C 62.4512 -24.1699 62.0117 -25.1465 61.2305 -25.9277 L 51.9531 -35.2051 L 61.2793 -44.5312 C 62.0605 -45.3613 62.5 -46.2891 62.5 -47.3633 C 62.5 -49.6582 60.6934 -51.416 58.3984 -51.416 C 57.2754 -51.416 56.3477 -51.0254 55.5176 -50.1953 L 46.1426 -40.918 L 36.8652 -50.1953 C 36.084 -50.9766 35.1562 -51.3672 33.9844 -51.3672 C 31.6895 -51.3672 29.9316 -49.6094 29.9316 -47.3145 C 29.9316 -46.2402 30.3711 -45.2637 31.1523 -44.4824 L 40.4297 -35.2051 L 31.1523 -25.8789 C 30.3711 -25.1465 29.9316 -24.1211 29.9316 -23.0469 C 29.9316 -20.752 31.6895 -18.9453 33.9844 -18.9453 Z"/>
  </g>
  <g id="Medium-S" transform="matrix(1 0 0 1 1700.75 696)">
   <path d="M 22.7051 0.830078 L 68.8965 0.830078 C 77.4414 0.830078 81.8359 -3.51562 81.8359 -11.9629 L 81.8359 -58.4473 C 81.8359 -66.8945 77.4414 -71.2402 68.8965 -71.2402 L 22.7051 -71.2402 C 14.209 -71.2402 9.76562 -66.8945 9.76562 -58.4473 L 9.76562 -11.9629 C 9.76562 -3.51562 14.209 0.830078 22.7051 0.830078 Z M 23.1934 -7.4707 C 19.9219 -7.4707 18.0664 -9.22852 18.0664 -12.6953 L 18.0664 -57.7148 C 18.0664 -61.1816 19.9219 -62.9395 23.1934 -62.9395 L 68.4082 -62.9395 C 71.6797 -62.9395 73.5352 -61.1816 73.5352 -57.7148 L 73.5352 -12.6953 C 73.5352 -9.22852 71.6797 -7.4707 68.4082 -7.4707 Z M 33.3496 -18.8965 C 34.4238 -18.8965 35.3516 -19.2871 36.084 -20.0195 L 45.8008 -29.7852 L 55.5664 -20.0195 C 56.2988 -19.3359 57.2266 -18.8965 58.3008 -18.8965 C 60.4492 -18.8965 62.1582 -20.6055 62.1582 -22.7539 C 62.1582 -23.8281 61.7188 -24.707 60.9863 -25.4395 L 51.2207 -35.2051 L 61.0352 -45.0195 C 61.8164 -45.8008 62.1582 -46.6797 62.1582 -47.6562 C 62.1582 -49.8047 60.498 -51.5137 58.3496 -51.5137 C 57.3242 -51.5137 56.4941 -51.123 55.7129 -50.3418 L 45.8008 -40.5273 L 35.9863 -50.3418 C 35.3027 -51.0742 34.4238 -51.416 33.3496 -51.416 C 31.2012 -51.416 29.541 -49.7559 29.541 -47.6562 C 29.541 -46.6309 29.9316 -45.7031 30.6641 -45.0195 L 40.4297 -35.2051 L 30.6641 -25.3906 C 29.9316 -24.707 29.541 -23.7793 29.541 -22.7539 C 29.541 -20.6055 31.2012 -18.8965 33.3496 -18.8965 Z"/>
  </g>
  <g id="Regular-S" transform="matrix(1 0 0 1 1404.51 696)">
   <path d="M 22.2168 0.390625 L 68.457 0.390625 C 76.8066 0.390625 80.9082 -3.71094 80.9082 -11.9141 L 80.9082 -58.4961 C 80.9082 -66.6992 76.8066 -70.8008 68.457 -70.8008 L 22.2168 -70.8008 C 13.916 -70.8008 9.76562 -66.6992 9.76562 -58.4961 L 9.76562 -11.9141 C 9.76562 -3.71094 13.916 0.390625 22.2168 0.390625 Z M 22.3145 -6.68945 C 18.7988 -6.68945 16.7969 -8.54492 16.7969 -12.2559 L 16.7969 -58.1543 C 16.7969 -61.8164 18.7988 -63.7207 22.3145 -63.7207 L 68.3594 -63.7207 C 71.875 -63.7207 73.877 -61.8164 73.877 -58.1543 L 73.877 -12.2559 C 73.877 -8.54492 71.875 -6.68945 68.3594 -6.68945 Z M 32.4707 -18.8477 C 33.4473 -18.8477 34.3262 -19.1895 34.9609 -19.873 L 45.3613 -30.3223 L 55.8105 -19.873 C 56.3965 -19.2383 57.2754 -18.8477 58.252 -18.8477 C 60.1562 -18.8477 61.7188 -20.4102 61.7188 -22.3633 C 61.7188 -23.3398 61.3281 -24.1211 60.6934 -24.8047 L 50.293 -35.2051 L 60.7422 -45.7031 C 61.4258 -46.3867 61.7676 -47.168 61.7676 -48.0957 C 61.7676 -50.0488 60.2051 -51.5625 58.3008 -51.5625 C 57.373 -51.5625 56.6406 -51.2695 55.9082 -50.5371 L 45.3613 -40.0391 L 34.8633 -50.4883 C 34.2285 -51.1719 33.4473 -51.5137 32.4707 -51.5137 C 30.5664 -51.5137 29.0039 -50 29.0039 -48.0469 C 29.0039 -47.1191 29.3945 -46.2891 30.0293 -45.6543 L 40.4297 -35.2051 L 30.0293 -24.7559 C 29.3945 -24.1211 29.0039 -23.291 29.0039 -22.3633 C 29.0039 -20.4102 30.5664 -18.8477 32.4707 -18.8477 Z"/>
  </g>
  <g id="Light-S" transform="matrix(1 0 0 1 1108.46 696)">
   <path d="M 21.3867 -0.292969 L 67.9688 -0.292969 C 75.7324 -0.292969 79.5898 -4.15039 79.5898 -11.7676 L 79.5898 -58.5938 C 79.5898 -66.2109 75.7324 -70.1172 67.9688 -70.1172 L 21.3867 -70.1172 C 13.6719 -70.1172 9.76562 -66.2598 9.76562 -58.5938 L 9.76562 -11.7676 C 9.76562 -4.15039 13.6719 -0.292969 21.3867 -0.292969 Z M 21.4844 -5.71289 C 17.4316 -5.71289 15.1855 -7.86133 15.1855 -12.0605 L 15.1855 -58.3008 C 15.1855 -62.5 17.4316 -64.6973 21.4844 -64.6973 L 67.8711 -64.6973 C 71.875 -64.6973 74.1699 -62.5 74.1699 -58.3008 L 74.1699 -12.0605 C 74.1699 -7.86133 71.875 -5.71289 67.8711 -5.71289 Z M 31.4941 -19.2871 C 32.2754 -19.2871 32.9102 -19.5312 33.4473 -20.1172 L 44.6777 -31.3477 L 55.957 -20.1172 C 56.4453 -19.5801 57.1289 -19.2871 57.9102 -19.2871 C 59.4238 -19.2871 60.6445 -20.5078 60.6445 -22.0215 C 60.6445 -22.8027 60.3516 -23.3887 59.8145 -23.9746 L 48.5352 -35.2051 L 59.8145 -46.5332 C 60.4004 -47.1191 60.6934 -47.7051 60.6934 -48.4375 C 60.6934 -49.9512 59.4727 -51.123 57.959 -51.123 C 57.2266 -51.123 56.6406 -50.8789 56.0059 -50.293 L 44.6777 -39.0137 L 33.3984 -50.2441 C 32.8613 -50.8301 32.2754 -51.0742 31.4941 -51.0742 C 29.9805 -51.0742 28.7598 -49.9023 28.7598 -48.3887 C 28.7598 -47.6562 29.0527 -47.0215 29.5898 -46.4844 L 40.8691 -35.2051 L 29.5898 -23.9258 C 29.0527 -23.3887 28.7598 -22.7539 28.7598 -22.0215 C 28.7598 -20.5078 29.9805 -19.2871 31.4941 -19.2871 Z"/>
  </g>
  <g id="Thin-S" transform="matrix(1 0 0 1 812.599 696)">
   <path d="M 20.3125 -1.12305 L 67.334 -1.12305 C 74.2676 -1.12305 77.8809 -4.78516 77.8809 -11.6211 L 77.8809 -58.6914 C 77.8809 -65.5762 74.2676 -69.2383 67.334 -69.2383 L 20.3125 -69.2383 C 13.3789 -69.2383 9.76562 -65.625 9.76562 -58.6914 L 9.76562 -11.6211 C 9.76562 -4.6875 13.3789 -1.12305 20.3125 -1.12305 Z M 20.4102 -4.44336 C 15.625 -4.44336 13.0859 -6.93359 13.0859 -11.8164 L 13.0859 -58.5449 C 13.0859 -63.3789 15.625 -65.918 20.4102 -65.918 L 67.2363 -65.918 C 71.875 -65.918 74.5605 -63.3789 74.5605 -58.5449 L 74.5605 -11.8164 C 74.5605 -6.93359 71.875 -4.44336 67.2363 -4.44336 Z M 30.1758 -19.8242 C 30.7129 -19.8242 31.1035 -20.0195 31.4941 -20.459 L 43.7988 -32.7637 L 56.1035 -20.459 C 56.543 -20.0195 56.9336 -19.8242 57.4707 -19.8242 C 58.4473 -19.8242 59.2285 -20.6055 59.2285 -21.5332 C 59.2285 -22.0703 59.0332 -22.4609 58.6426 -22.8516 L 46.2891 -35.2051 L 58.6426 -47.6074 C 59.082 -47.998 59.2285 -48.3887 59.2285 -48.877 C 59.2285 -49.8535 58.4473 -50.5859 57.4707 -50.5859 C 56.9824 -50.5859 56.5918 -50.3906 56.1523 -49.9512 L 43.7988 -37.6465 L 31.4941 -49.9512 C 31.0547 -50.3906 30.7129 -50.5371 30.1758 -50.5371 C 29.1992 -50.5371 28.418 -49.8047 28.418 -48.877 C 28.418 -48.3887 28.6133 -47.9492 29.0039 -47.6074 L 41.3574 -35.2051 L 29.0039 -22.8027 C 28.6133 -22.4609 28.418 -22.0215 28.418 -21.5332 C 28.418 -20.6055 29.1992 -19.8242 30.1758 -19.8242 Z"/>
  </g>
  <g id="Ultralight-S" transform="matrix(1 0 0 1 516.352 696)">
   <path d="M 19.7754 -1.5625 L 66.9922 -1.5625 C 73.5352 -1.5625 76.9531 -5.12695 76.9531 -11.5234 L 76.9531 -58.7891 C 76.9531 -65.2344 73.5352 -68.75 66.9922 -68.75 L 19.7754 -68.75 C 13.2324 -68.75 9.76562 -65.2832 9.76562 -58.7891 L 9.76562 -11.5234 C 9.76562 -5.0293 13.2324 -1.5625 19.7754 -1.5625 Z M 19.873 -3.75977 C 14.6484 -3.75977 11.9629 -6.44531 11.9629 -11.6699 L 11.9629 -58.6426 C 11.9629 -63.8672 14.6484 -66.5527 19.873 -66.5527 L 66.8945 -66.5527 C 71.875 -66.5527 74.7559 -63.8672 74.7559 -58.6426 L 74.7559 -11.6699 C 74.7559 -6.44531 71.875 -3.75977 66.8945 -3.75977 Z M 29.4922 -20.166 C 29.9316 -20.166 30.127 -20.2637 30.5176 -20.6055 L 43.3594 -33.4961 L 56.25 -20.6055 C 56.5918 -20.2637 56.8359 -20.166 57.2266 -20.166 C 57.9102 -20.166 58.4473 -20.6543 58.4473 -21.2891 C 58.4473 -21.6797 58.3496 -21.9238 58.0566 -22.2656 L 45.1172 -35.2051 L 58.0566 -48.1445 C 58.3496 -48.4863 58.4961 -48.7305 58.4961 -49.1211 C 58.4961 -49.7559 57.9102 -50.2441 57.2266 -50.2441 C 56.8848 -50.2441 56.5918 -50.1465 56.25 -49.8047 L 43.3594 -36.9141 L 30.5176 -49.8047 C 30.127 -50.1465 29.9316 -50.2441 29.4922 -50.2441 C 28.8086 -50.2441 28.2715 -49.7559 28.2715 -49.1211 C 28.2715 -48.7305 28.3691 -48.4863 28.6621 -48.1445 L 41.6504 -35.2051 L 28.6621 -22.2656 C 28.3691 -21.9238 28.2715 -21.6797 28.2715 -21.2891 C 28.2715 -20.6543 28.8086 -20.166 29.4922 -20.166 Z"/>
  </g>
 </g>
</svg>
