<?xml version="1.0" encoding="UTF-8"?>
<!--Generator: Apple Native CoreSVG 123-->
<!DOCTYPE svg
PUBLIC "-//W3C//DTD SVG 1.1//EN"
       "http://www.w3.org/Graphics/SVG/1.1/DTD/svg11.dtd">
<svg version="1.1" xmlns="http://www.w3.org/2000/svg" xmlns:xlink="http://www.w3.org/1999/xlink" width="3300" height="2200">
 <!--glyph: "uni1002F3.medium", point size: 100.000000, font version: "Version 15.0d7e11", template writer version: "5"-->
 <g id="Notes">
  <rect height="2200" id="artboard" style="fill:white;opacity:1" width="3300" x="0" y="0"/>
  <line id="" style="fill:none;stroke:black;opacity:1;stroke-width:0.5;" x1="263" x2="3036" y1="292" y2="292"/>
  <text style="stroke:none;fill:black;font-family:-apple-system,&quot;SF Pro Display&quot;,&quot;SF Pro Text&quot;,Helvetica,sans-serif;font-weight:bold;" transform="matrix(1 0 0 1 263 322)">Weight/Scale Variations</text>
  <text style="stroke:none;fill:black;font-family:-apple-system,&quot;SF Pro Display&quot;,&quot;SF Pro Text&quot;,Helvetica,sans-serif;text-anchor:middle;" transform="matrix(1 0 0 1 559.711 322)">Ultralight</text>
  <text style="stroke:none;fill:black;font-family:-apple-system,&quot;SF Pro Display&quot;,&quot;SF Pro Text&quot;,Helvetica,sans-serif;text-anchor:middle;" transform="matrix(1 0 0 1 856.422 322)">Thin</text>
  <text style="stroke:none;fill:black;font-family:-apple-system,&quot;SF Pro Display&quot;,&quot;SF Pro Text&quot;,Helvetica,sans-serif;text-anchor:middle;" transform="matrix(1 0 0 1 1153.13 322)">Light</text>
  <text style="stroke:none;fill:black;font-family:-apple-system,&quot;SF Pro Display&quot;,&quot;SF Pro Text&quot;,Helvetica,sans-serif;text-anchor:middle;" transform="matrix(1 0 0 1 1449.84 322)">Regular</text>
  <text style="stroke:none;fill:black;font-family:-apple-system,&quot;SF Pro Display&quot;,&quot;SF Pro Text&quot;,Helvetica,sans-serif;text-anchor:middle;" transform="matrix(1 0 0 1 1746.56 322)">Medium</text>
  <text style="stroke:none;fill:black;font-family:-apple-system,&quot;SF Pro Display&quot;,&quot;SF Pro Text&quot;,Helvetica,sans-serif;text-anchor:middle;" transform="matrix(1 0 0 1 2043.27 322)">Semibold</text>
  <text style="stroke:none;fill:black;font-family:-apple-system,&quot;SF Pro Display&quot;,&quot;SF Pro Text&quot;,Helvetica,sans-serif;text-anchor:middle;" transform="matrix(1 0 0 1 2339.98 322)">Bold</text>
  <text style="stroke:none;fill:black;font-family:-apple-system,&quot;SF Pro Display&quot;,&quot;SF Pro Text&quot;,Helvetica,sans-serif;text-anchor:middle;" transform="matrix(1 0 0 1 2636.69 322)">Heavy</text>
  <text style="stroke:none;fill:black;font-family:-apple-system,&quot;SF Pro Display&quot;,&quot;SF Pro Text&quot;,Helvetica,sans-serif;text-anchor:middle;" transform="matrix(1 0 0 1 2933.4 322)">Black</text>
  <line id="" style="fill:none;stroke:black;opacity:1;stroke-width:0.5;" x1="263" x2="3036" y1="1903" y2="1903"/>
  <g id="" transform="matrix(1 0 0 1 263 1933)">
   <path d="M 9.24805 0.830078 C 13.5547 0.830078 17.1387 -2.74414 17.1387 -7.05078 C 17.1387 -11.3574 13.5449 -14.9316 9.23828 -14.9316 C 4.94141 -14.9316 1.36719 -11.3574 1.36719 -7.05078 C 1.36719 -2.74414 4.95117 0.830078 9.24805 0.830078 Z M 9.24805 -0.654297 C 5.70312 -0.654297 2.87109 -3.49609 2.87109 -7.05078 C 2.87109 -10.6055 5.69336 -13.4473 9.23828 -13.4473 C 12.793 -13.4473 15.6348 -10.6055 15.6445 -7.05078 C 15.6543 -3.49609 12.8027 -0.654297 9.24805 -0.654297 Z M 9.22852 -3.42773 C 9.69727 -3.42773 9.9707 -3.74023 9.9707 -4.25781 L 9.9707 -6.31836 L 12.1973 -6.31836 C 12.6953 -6.31836 13.0371 -6.57227 13.0371 -7.04102 C 13.0371 -7.51953 12.7148 -7.7832 12.1973 -7.7832 L 9.9707 -7.7832 L 9.9707 -10.0098 C 9.9707 -10.5273 9.69727 -10.8496 9.22852 -10.8496 C 8.75977 -10.8496 8.50586 -10.5078 8.50586 -10.0098 L 8.50586 -7.7832 L 6.29883 -7.7832 C 5.78125 -7.7832 5.44922 -7.51953 5.44922 -7.04102 C 5.44922 -6.57227 5.80078 -6.31836 6.29883 -6.31836 L 8.50586 -6.31836 L 8.50586 -4.25781 C 8.50586 -3.75977 8.75977 -3.42773 9.22852 -3.42773 Z"/>
  </g>
  <g id="" transform="matrix(1 0 0 1 281.506 1933)">
   <path d="M 11.709 2.91016 C 17.1582 2.91016 21.6699 -1.60156 21.6699 -7.05078 C 21.6699 -12.4902 17.1484 -17.0117 11.6992 -17.0117 C 6.25977 -17.0117 1.74805 -12.4902 1.74805 -7.05078 C 1.74805 -1.60156 6.26953 2.91016 11.709 2.91016 Z M 11.709 1.25 C 7.09961 1.25 3.41797 -2.44141 3.41797 -7.05078 C 3.41797 -11.6504 7.08984 -15.3516 11.6992 -15.3516 C 16.3086 -15.3516 20 -11.6504 20.0098 -7.05078 C 20.0195 -2.44141 16.3184 1.25 11.709 1.25 Z M 11.6895 -2.41211 C 12.207 -2.41211 12.5195 -2.77344 12.5195 -3.33984 L 12.5195 -6.23047 L 15.5762 -6.23047 C 16.123 -6.23047 16.5039 -6.51367 16.5039 -7.03125 C 16.5039 -7.55859 16.1426 -7.86133 15.5762 -7.86133 L 12.5195 -7.86133 L 12.5195 -10.9277 C 12.5195 -11.5039 12.207 -11.8555 11.6895 -11.8555 C 11.1719 -11.8555 10.8789 -11.4844 10.8789 -10.9277 L 10.8789 -7.86133 L 7.83203 -7.86133 C 7.26562 -7.86133 6.89453 -7.55859 6.89453 -7.03125 C 6.89453 -6.51367 7.28516 -6.23047 7.83203 -6.23047 L 10.8789 -6.23047 L 10.8789 -3.33984 C 10.8789 -2.79297 11.1719 -2.41211 11.6895 -2.41211 Z"/>
  </g>
  <g id="" transform="matrix(1 0 0 1 304.924 1933)">
   <path d="M 14.9707 5.67383 C 21.9336 5.67383 27.6953 -0.078125 27.6953 -7.04102 C 27.6953 -14.0039 21.9238 -19.7559 14.9609 -19.7559 C 8.00781 -19.7559 2.25586 -14.0039 2.25586 -7.04102 C 2.25586 -0.078125 8.01758 5.67383 14.9707 5.67383 Z M 14.9707 3.85742 C 8.93555 3.85742 4.08203 -1.00586 4.08203 -7.04102 C 4.08203 -13.0762 8.92578 -17.9395 14.9609 -17.9395 C 21.0059 -17.9395 25.8594 -13.0762 25.8691 -7.04102 C 25.8789 -1.00586 21.0156 3.85742 14.9707 3.85742 Z M 14.9512 -1.06445 C 15.5176 -1.06445 15.8691 -1.45508 15.8691 -2.06055 L 15.8691 -6.13281 L 20.1074 -6.13281 C 20.6934 -6.13281 21.1133 -6.46484 21.1133 -7.02148 C 21.1133 -7.59766 20.7227 -7.93945 20.1074 -7.93945 L 15.8691 -7.93945 L 15.8691 -12.1875 C 15.8691 -12.8027 15.5176 -13.1934 14.9512 -13.1934 C 14.3848 -13.1934 14.0625 -12.7832 14.0625 -12.1875 L 14.0625 -7.93945 L 9.83398 -7.93945 C 9.21875 -7.93945 8.80859 -7.59766 8.80859 -7.02148 C 8.80859 -6.46484 9.23828 -6.13281 9.83398 -6.13281 L 14.0625 -6.13281 L 14.0625 -2.06055 C 14.0625 -1.47461 14.3848 -1.06445 14.9512 -1.06445 Z"/>
  </g>
  <text style="stroke:none;fill:black;font-family:-apple-system,&quot;SF Pro Display&quot;,&quot;SF Pro Text&quot;,Helvetica,sans-serif;font-weight:bold;" transform="matrix(1 0 0 1 263 1953)">Design Variations</text>
  <text style="stroke:none;fill:black;font-family:-apple-system,&quot;SF Pro Display&quot;,&quot;SF Pro Text&quot;,Helvetica,sans-serif;" transform="matrix(1 0 0 1 263 1971)">Symbols are supported in up to nine weights and three scales.</text>
  <text style="stroke:none;fill:black;font-family:-apple-system,&quot;SF Pro Display&quot;,&quot;SF Pro Text&quot;,Helvetica,sans-serif;" transform="matrix(1 0 0 1 263 1989)">For optimal layout with text and other symbols, vertically align</text>
  <text style="stroke:none;fill:black;font-family:-apple-system,&quot;SF Pro Display&quot;,&quot;SF Pro Text&quot;,Helvetica,sans-serif;" transform="matrix(1 0 0 1 263 2007)">symbols with the adjacent text.</text>
  <rect height="14" id="" style="fill:#00AEEF;stroke:none;opacity:0.4;" width="3" x="776" y="1919"/>
  <g id="" transform="matrix(1 0 0 1 779 1933)">
   <path d="M 10.5273 0 L 12.373 0 L 7.17773 -14.0918 L 5.43945 -14.0918 L 0.244141 0 L 2.08984 0 L 3.50586 -4.0332 L 9.11133 -4.0332 Z M 6.2793 -11.9531 L 6.33789 -11.9531 L 8.59375 -5.52734 L 4.02344 -5.52734 Z"/>
  </g>
  <rect height="14" id="" style="fill:#00AEEF;stroke:none;opacity:0.4;" width="3" x="791.617" y="1919"/>
  <text style="stroke:none;fill:black;font-family:-apple-system,&quot;SF Pro Display&quot;,&quot;SF Pro Text&quot;,Helvetica,sans-serif;font-weight:bold;" transform="matrix(1 0 0 1 776 1953)">Margins</text>
  <text style="stroke:none;fill:black;font-family:-apple-system,&quot;SF Pro Display&quot;,&quot;SF Pro Text&quot;,Helvetica,sans-serif;" transform="matrix(1 0 0 1 776 1971)">Leading and trailing margins on the left and right side of each symbol</text>
  <text style="stroke:none;fill:black;font-family:-apple-system,&quot;SF Pro Display&quot;,&quot;SF Pro Text&quot;,Helvetica,sans-serif;" transform="matrix(1 0 0 1 776 1989)">can be adjusted by modifying the width of the blue rectangles.</text>
  <text style="stroke:none;fill:black;font-family:-apple-system,&quot;SF Pro Display&quot;,&quot;SF Pro Text&quot;,Helvetica,sans-serif;" transform="matrix(1 0 0 1 776 2007)">Modifications are automatically applied proportionally to all</text>
  <text style="stroke:none;fill:black;font-family:-apple-system,&quot;SF Pro Display&quot;,&quot;SF Pro Text&quot;,Helvetica,sans-serif;" transform="matrix(1 0 0 1 776 2025)">scales and weights.</text>
  <g id="" transform="matrix(1 0 0 1 1289 1933)">
   <path d="M 2.83203 3.11523 L 4.375 4.6582 C 5.22461 5.48828 6.19141 5.41992 7.06055 4.46289 L 17.2754 -6.66016 C 17.7051 -6.36719 18.0957 -6.37695 18.5645 -6.47461 L 19.6094 -6.68945 L 20.3027 -5.99609 L 20.2539 -5.47852 C 20.1855 -4.95117 20.3516 -4.53125 20.8496 -4.0332 L 21.6602 -3.22266 C 22.168 -2.71484 22.8223 -2.68555 23.3008 -3.16406 L 26.5527 -6.41602 C 27.0312 -6.89453 27.0117 -7.54883 26.5039 -8.05664 L 25.6836 -8.87695 C 25.1855 -9.375 24.7754 -9.55078 24.2383 -9.47266 L 23.7109 -9.41406 L 23.0566 -10.0781 L 23.3398 -11.2207 C 23.4863 -11.7871 23.3398 -12.2559 22.7148 -12.8613 L 20.3027 -15.2539 C 16.7578 -18.7793 12.2266 -18.6719 9.11133 -15.5371 C 8.69141 -15.1074 8.64258 -14.5215 8.91602 -14.0918 C 9.15039 -13.7207 9.62891 -13.4961 10.2734 -13.6621 C 11.7871 -14.043 13.3008 -13.9258 14.7852 -12.9199 L 14.1602 -11.3379 C 13.9258 -10.752 13.9453 -10.2734 14.1797 -9.83398 L 3.01758 0.439453 C 2.08008 1.30859 1.97266 2.25586 2.83203 3.11523 Z M 10.6738 -15.1465 C 13.3398 -17.1387 16.6504 -16.8262 19.0527 -14.4141 L 21.6797 -11.8066 C 21.9141 -11.5723 21.9434 -11.3867 21.8848 -11.0938 L 21.5039 -9.53125 L 23.0762 -7.95898 L 24.043 -8.04688 C 24.3262 -8.07617 24.4141 -8.05664 24.6387 -7.83203 L 25.2637 -7.20703 L 22.5098 -4.46289 L 21.8848 -5.07812 C 21.6602 -5.30273 21.6406 -5.40039 21.6699 -5.68359 L 21.7578 -6.64062 L 20.1953 -8.20312 L 18.5742 -7.89062 C 18.291 -7.83203 18.1445 -7.83203 17.9102 -8.07617 L 15.7324 -10.2539 C 15.5078 -10.4883 15.4785 -10.625 15.6055 -10.9473 L 16.5527 -13.2227 C 14.9512 -14.7559 12.8418 -15.6055 10.8008 -14.9512 C 10.7129 -14.9219 10.6445 -14.9414 10.6152 -14.9805 C 10.5859 -15.0293 10.5859 -15.0781 10.6738 -15.1465 Z M 4.10156 2.41211 C 3.61328 1.91406 3.78906 1.61133 4.12109 1.30859 L 15.0781 -8.80859 L 16.3086 -7.57812 L 6.15234 3.34961 C 5.84961 3.68164 5.46875 3.7793 5.06836 3.37891 Z"/>
  </g>
  <text style="stroke:none;fill:black;font-family:-apple-system,&quot;SF Pro Display&quot;,&quot;SF Pro Text&quot;,Helvetica,sans-serif;font-weight:bold;" transform="matrix(1 0 0 1 1289 1953)">Exporting</text>
  <text style="stroke:none;fill:black;font-family:-apple-system,&quot;SF Pro Display&quot;,&quot;SF Pro Text&quot;,Helvetica,sans-serif;" transform="matrix(1 0 0 1 1289 1971)">Symbols should be outlined when exporting to ensure the</text>
  <text style="stroke:none;fill:black;font-family:-apple-system,&quot;SF Pro Display&quot;,&quot;SF Pro Text&quot;,Helvetica,sans-serif;" transform="matrix(1 0 0 1 1289 1989)">design is preserved when submitting to Xcode.</text>
  <text id="template-version" style="stroke:none;fill:black;font-family:-apple-system,&quot;SF Pro Display&quot;,&quot;SF Pro Text&quot;,Helvetica,sans-serif;text-anchor:end;" transform="matrix(1 0 0 1 3036 1933)">Template v.1.0</text>
  <text style="stroke:none;fill:black;font-family:-apple-system,&quot;SF Pro Display&quot;,&quot;SF Pro Text&quot;,Helvetica,sans-serif;text-anchor:end;" transform="matrix(1 0 0 1 3036 1951)">Generated from list.bullet.indent</text>
  <text style="stroke:none;fill:black;font-family:-apple-system,&quot;SF Pro Display&quot;,&quot;SF Pro Text&quot;,Helvetica,sans-serif;text-anchor:end;" transform="matrix(1 0 0 1 3036 1969)">Typeset at 100 points</text>
  <text style="stroke:none;fill:black;font-family:-apple-system,&quot;SF Pro Display&quot;,&quot;SF Pro Text&quot;,Helvetica,sans-serif;" transform="matrix(1 0 0 1 263 726)">Small</text>
  <text style="stroke:none;fill:black;font-family:-apple-system,&quot;SF Pro Display&quot;,&quot;SF Pro Text&quot;,Helvetica,sans-serif;" transform="matrix(1 0 0 1 263 1156)">Medium</text>
  <text style="stroke:none;fill:black;font-family:-apple-system,&quot;SF Pro Display&quot;,&quot;SF Pro Text&quot;,Helvetica,sans-serif;" transform="matrix(1 0 0 1 263 1586)">Large</text>
 </g>
 <g id="Guides">
  <g id="H-reference" style="fill:#27AAE1;stroke:none;" transform="matrix(1 0 0 1 339 696)">
   <path d="M 54.9316 0 L 57.666 0 L 30.5664 -70.459 L 28.0762 -70.459 L 0.976562 0 L 3.66211 0 L 12.9395 -24.4629 L 45.7031 -24.4629 Z M 29.1992 -67.0898 L 29.4434 -67.0898 L 44.8242 -26.709 L 13.8184 -26.709 Z"/>
  </g>
  <line id="Baseline-S" style="fill:none;stroke:#27AAE1;opacity:1;stroke-width:0.577;" x1="263" x2="3036" y1="696" y2="696"/>
  <line id="Capline-S" style="fill:none;stroke:#27AAE1;opacity:1;stroke-width:0.577;" x1="263" x2="3036" y1="625.541" y2="625.541"/>
  <g id="H-reference" style="fill:#27AAE1;stroke:none;" transform="matrix(1 0 0 1 339 1126)">
   <path d="M 54.9316 0 L 57.666 0 L 30.5664 -70.459 L 28.0762 -70.459 L 0.976562 0 L 3.66211 0 L 12.9395 -24.4629 L 45.7031 -24.4629 Z M 29.1992 -67.0898 L 29.4434 -67.0898 L 44.8242 -26.709 L 13.8184 -26.709 Z"/>
  </g>
  <line id="Baseline-M" style="fill:none;stroke:#27AAE1;opacity:1;stroke-width:0.577;" x1="263" x2="3036" y1="1126" y2="1126"/>
  <line id="Capline-M" style="fill:none;stroke:#27AAE1;opacity:1;stroke-width:0.577;" x1="263" x2="3036" y1="1055.54" y2="1055.54"/>
  <g id="H-reference" style="fill:#27AAE1;stroke:none;" transform="matrix(1 0 0 1 339 1556)">
   <path d="M 54.9316 0 L 57.666 0 L 30.5664 -70.459 L 28.0762 -70.459 L 0.976562 0 L 3.66211 0 L 12.9395 -24.4629 L 45.7031 -24.4629 Z M 29.1992 -67.0898 L 29.4434 -67.0898 L 44.8242 -26.709 L 13.8184 -26.709 Z"/>
  </g>
  <line id="Baseline-L" style="fill:none;stroke:#27AAE1;opacity:1;stroke-width:0.577;" x1="263" x2="3036" y1="1556" y2="1556"/>
  <line id="Capline-L" style="fill:none;stroke:#27AAE1;opacity:1;stroke-width:0.577;" x1="263" x2="3036" y1="1485.54" y2="1485.54"/>
  <rect height="119.336" id="left-margin" style="fill:#00AEEF;stroke:none;opacity:0.4;" width="12.4512" x="1376.02" y="1030.79"/>
  <rect height="119.336" id="right-margin" style="fill:#00AEEF;stroke:none;opacity:0.4;" width="12.4512" x="1511.22" y="1030.79"/>
 </g>
 <g id="Symbols">
  <g id="Black-L" transform="matrix(1 0 0 1 2829.91 1556)">
   <path d="M 28.125 -63.8672 C 34.7656 -63.8672 40.2344 -69.3359 40.2344 -75.9766 C 40.2344 -82.6172 34.7656 -88.0371 28.125 -88.0371 C 21.5332 -88.0371 16.0645 -82.6172 16.0645 -75.9766 C 16.0645 -69.3359 21.5332 -63.8672 28.125 -63.8672 Z M 63.2812 -66.6992 L 147.168 -66.6992 C 152.295 -66.6992 156.396 -70.8008 156.396 -75.9766 C 156.396 -81.1035 152.344 -85.2051 147.168 -85.2051 L 63.2812 -85.2051 C 58.1543 -85.2051 54.0527 -81.1523 54.0527 -75.9766 C 54.0527 -70.8496 58.1055 -66.6992 63.2812 -66.6992 Z M 45.4102 -23.0957 C 52.002 -23.0957 57.4707 -28.5645 57.4707 -35.2051 C 57.4707 -41.7969 52.002 -47.2656 45.4102 -47.2656 C 38.7695 -47.2656 33.3008 -41.7969 33.3008 -35.2051 C 33.3008 -28.5645 38.7695 -23.0957 45.4102 -23.0957 Z M 80.5176 -25.9277 L 164.404 -25.9277 C 169.58 -25.9277 173.682 -29.9805 173.682 -35.2051 C 173.682 -40.332 169.629 -44.4336 164.404 -44.4336 L 80.5176 -44.4336 C 75.3906 -44.4336 71.2891 -40.3809 71.2891 -35.2051 C 71.2891 -30.0781 75.3418 -25.9277 80.5176 -25.9277 Z M 62.6465 17.6758 C 69.2871 17.6758 74.707 12.207 74.707 5.56641 C 74.707 -1.02539 69.2871 -6.49414 62.6465 -6.49414 C 56.0059 -6.49414 50.5859 -1.02539 50.5859 5.56641 C 50.5859 12.207 56.0059 17.6758 62.6465 17.6758 Z M 97.8027 14.8438 L 181.689 14.8438 C 186.816 14.8438 190.918 10.791 190.918 5.56641 C 190.918 0.439453 186.865 -3.66211 181.689 -3.66211 L 97.8027 -3.66211 C 92.6758 -3.66211 88.5254 0.390625 88.5254 5.56641 C 88.5254 10.6934 92.5781 14.8438 97.8027 14.8438 Z"/>
  </g>
  <g id="Heavy-L" transform="matrix(1 0 0 1 2535.37 1556)">
   <path d="M 27.0996 -64.209 C 33.1543 -64.209 38.1348 -69.1895 38.1348 -75.2441 C 38.1348 -81.3477 33.1543 -86.3281 27.0996 -86.3281 C 21.0449 -86.3281 16.0645 -81.3477 16.0645 -75.2441 C 16.0645 -69.1895 21.0449 -64.209 27.0996 -64.209 Z M 60.3516 -67.1875 L 144.824 -67.1875 C 149.365 -67.1875 152.93 -70.7031 152.93 -75.2441 C 152.93 -79.7852 149.365 -83.3496 144.824 -83.3496 L 60.3516 -83.3496 C 55.8594 -83.3496 52.2949 -79.834 52.2949 -75.2441 C 52.2949 -70.752 55.8105 -67.1875 60.3516 -67.1875 Z M 43.9453 -24.1699 C 50 -24.1699 54.9805 -29.1016 54.9805 -35.2051 C 54.9805 -41.2598 50 -46.2402 43.9453 -46.2402 C 37.8906 -46.2402 32.9102 -41.2598 32.9102 -35.2051 C 32.9102 -29.1016 37.8906 -24.1699 43.9453 -24.1699 Z M 77.1973 -27.0996 L 161.67 -27.0996 C 166.162 -27.0996 169.775 -30.6641 169.775 -35.2051 C 169.775 -39.6973 166.211 -43.2617 161.67 -43.2617 L 77.1973 -43.2617 C 72.7051 -43.2617 69.0918 -39.7461 69.0918 -35.2051 C 69.0918 -30.7129 72.6562 -27.0996 77.1973 -27.0996 Z M 60.7422 15.918 C 66.8457 15.918 71.7773 10.9375 71.7773 4.88281 C 71.7773 -1.17188 66.8457 -6.15234 60.7422 -6.15234 C 54.6875 -6.15234 49.707 -1.17188 49.707 4.88281 C 49.707 10.9375 54.6875 15.918 60.7422 15.918 Z M 93.9941 12.9883 L 178.516 12.9883 C 183.008 12.9883 186.572 9.42383 186.572 4.88281 C 186.572 0.390625 183.057 -3.17383 178.516 -3.17383 L 93.9941 -3.17383 C 89.502 -3.17383 85.9375 0.341797 85.9375 4.88281 C 85.9375 9.375 89.4531 12.9883 93.9941 12.9883 Z"/>
  </g>
  <g id="Bold-L" transform="matrix(1 0 0 1 2241.08 1556)">
   <path d="M 25.9277 -64.5996 C 31.3477 -64.5996 35.791 -69.043 35.791 -74.5117 C 35.791 -79.9316 31.3477 -84.375 25.9277 -84.375 C 20.5078 -84.375 16.0645 -79.9316 16.0645 -74.5117 C 16.0645 -69.043 20.5078 -64.5996 25.9277 -64.5996 Z M 57.0801 -67.7246 L 142.236 -67.7246 C 146.045 -67.7246 149.023 -70.6543 149.023 -74.5117 C 149.023 -78.2715 146.045 -81.25 142.236 -81.25 L 57.0801 -81.25 C 53.2715 -81.25 50.293 -78.3203 50.293 -74.5117 C 50.293 -70.7031 53.2715 -67.7246 57.0801 -67.7246 Z M 42.2852 -25.3418 C 47.7051 -25.3418 52.1484 -29.7363 52.1484 -35.2051 C 52.1484 -40.625 47.7051 -45.0684 42.2852 -45.0684 C 36.8652 -45.0684 32.4219 -40.625 32.4219 -35.2051 C 32.4219 -29.7363 36.8652 -25.3418 42.2852 -25.3418 Z M 73.4375 -28.418 L 158.594 -28.418 C 162.402 -28.418 165.381 -31.3477 165.381 -35.2051 C 165.381 -38.9648 162.402 -41.9922 158.594 -41.9922 L 73.4375 -41.9922 C 69.6289 -41.9922 66.6504 -39.0137 66.6504 -35.2051 C 66.6504 -31.3965 69.6289 -28.418 73.4375 -28.418 Z M 58.6426 13.9648 C 64.1113 13.9648 68.5059 9.52148 68.5059 4.10156 C 68.5059 -1.31836 64.1113 -5.76172 58.6426 -5.76172 C 53.2227 -5.76172 48.7793 -1.31836 48.7793 4.10156 C 48.7793 9.52148 53.2227 13.9648 58.6426 13.9648 Z M 89.7949 10.8887 L 174.951 10.8887 C 178.76 10.8887 181.738 7.91016 181.738 4.10156 C 181.738 0.341797 178.76 -2.68555 174.951 -2.68555 L 89.7949 -2.68555 C 85.9863 -2.68555 83.0078 0.292969 83.0078 4.10156 C 83.0078 7.91016 85.9863 10.8887 89.7949 10.8887 Z"/>
  </g>
  <g id="Semibold-L" transform="matrix(1 0 0 1 1946.03 1556)">
   <path d="M 25.1465 -64.8926 C 30.127 -64.8926 34.1797 -68.9453 34.1797 -73.9258 C 34.1797 -78.9551 30.127 -83.0078 25.1465 -83.0078 C 20.1172 -83.0078 16.0645 -78.9551 16.0645 -73.9258 C 16.0645 -68.9453 20.1172 -64.8926 25.1465 -64.8926 Z M 54.834 -68.0664 L 140.43 -68.0664 C 143.75 -68.0664 146.338 -70.6543 146.338 -73.9258 C 146.338 -77.2461 143.75 -79.834 140.43 -79.834 L 54.834 -79.834 C 51.5137 -79.834 48.9258 -77.2461 48.9258 -73.9258 C 48.9258 -70.6543 51.5137 -68.0664 54.834 -68.0664 Z M 41.1621 -26.123 C 46.1426 -26.123 50.2441 -30.1758 50.2441 -35.2051 C 50.2441 -40.1855 46.1426 -44.2383 41.1621 -44.2383 C 36.1816 -44.2383 32.0801 -40.1855 32.0801 -35.2051 C 32.0801 -30.1758 36.1816 -26.123 41.1621 -26.123 Z M 70.8496 -29.2969 L 156.494 -29.2969 C 159.766 -29.2969 162.354 -31.8848 162.354 -35.2051 C 162.354 -38.4766 159.814 -41.0645 156.494 -41.0645 L 70.8496 -41.0645 C 67.5781 -41.0645 64.9902 -38.5254 64.9902 -35.2051 C 64.9902 -31.8848 67.5293 -29.2969 70.8496 -29.2969 Z M 57.1777 12.6465 C 62.207 12.6465 66.2598 8.59375 66.2598 3.56445 C 66.2598 -1.41602 62.207 -5.51758 57.1777 -5.51758 C 52.1973 -5.51758 48.1445 -1.41602 48.1445 3.56445 C 48.1445 8.59375 52.1973 12.6465 57.1777 12.6465 Z M 86.9141 9.47266 L 172.51 9.47266 C 175.83 9.47266 178.418 6.88477 178.418 3.56445 C 178.418 0.292969 175.83 -2.29492 172.51 -2.29492 L 86.9141 -2.29492 C 83.5938 -2.29492 81.0059 0.244141 81.0059 3.56445 C 81.0059 6.88477 83.5938 9.47266 86.9141 9.47266 Z"/>
  </g>
  <g id="Medium-L" transform="matrix(1 0 0 1 1650.58 1556)">
   <path d="M 24.5117 -65.0879 C 29.1992 -65.0879 32.959 -68.8477 32.959 -73.5352 C 32.959 -78.2227 29.1992 -81.9824 24.5117 -81.9824 C 19.873 -81.9824 16.0645 -78.2227 16.0645 -73.5352 C 16.0645 -68.8477 19.873 -65.0879 24.5117 -65.0879 Z M 53.125 -68.3105 L 139.062 -68.3105 C 141.992 -68.3105 144.287 -70.6055 144.287 -73.5352 C 144.287 -76.4648 142.041 -78.7598 139.062 -78.7598 L 53.125 -78.7598 C 50.1953 -78.7598 47.9004 -76.4648 47.9004 -73.5352 C 47.9004 -70.6055 50.1953 -68.3105 53.125 -68.3105 Z M 40.332 -26.709 C 44.9707 -26.709 48.7793 -30.5176 48.7793 -35.2051 C 48.7793 -39.8438 44.9707 -43.6523 40.332 -43.6523 C 35.6445 -43.6523 31.8359 -39.8438 31.8359 -35.2051 C 31.8359 -30.5176 35.6445 -26.709 40.332 -26.709 Z M 68.8965 -29.9805 L 154.883 -29.9805 C 157.812 -29.9805 160.059 -32.2266 160.059 -35.2051 C 160.059 -38.1348 157.812 -40.3809 154.883 -40.3809 L 68.8965 -40.3809 C 65.9668 -40.3809 63.6719 -38.1348 63.6719 -35.2051 C 63.6719 -32.2754 65.9668 -29.9805 68.8965 -29.9805 Z M 56.1035 11.6211 C 60.7422 11.6211 64.5508 7.8125 64.5508 3.17383 C 64.5508 -1.51367 60.7422 -5.27344 56.1035 -5.27344 C 51.416 -5.27344 47.6562 -1.51367 47.6562 3.17383 C 47.6562 7.8125 51.416 11.6211 56.1035 11.6211 Z M 84.668 8.39844 L 170.654 8.39844 C 173.584 8.39844 175.879 6.10352 175.879 3.17383 C 175.879 0.244141 173.584 -2.05078 170.654 -2.05078 L 84.668 -2.05078 C 81.7383 -2.05078 79.4922 0.244141 79.4922 3.17383 C 79.4922 6.10352 81.7383 8.39844 84.668 8.39844 Z"/>
  </g>
  <g id="Regular-L" transform="matrix(1 0 0 1 1355.53 1556)">
   <path d="M 23.7305 -65.332 C 27.9785 -65.332 31.3965 -68.75 31.3965 -72.998 C 31.3965 -77.2461 27.9785 -80.6641 23.7305 -80.6641 C 19.4824 -80.6641 16.0645 -77.2461 16.0645 -72.998 C 16.0645 -68.75 19.4824 -65.332 23.7305 -65.332 Z M 50.8789 -68.7012 L 137.305 -68.7012 C 139.746 -68.7012 141.65 -70.5566 141.65 -72.998 C 141.65 -75.4395 139.746 -77.3438 137.305 -77.3438 L 50.8789 -77.3438 C 48.4375 -77.3438 46.582 -75.4395 46.582 -72.998 C 46.582 -70.5566 48.4375 -68.7012 50.8789 -68.7012 Z M 39.209 -27.5391 C 43.457 -27.5391 46.875 -30.957 46.875 -35.2051 C 46.875 -39.4531 43.457 -42.8711 39.209 -42.8711 C 34.9609 -42.8711 31.543 -39.4531 31.543 -35.2051 C 31.543 -30.957 34.9609 -27.5391 39.209 -27.5391 Z M 66.3574 -30.8594 L 152.783 -30.8594 C 155.225 -30.8594 157.08 -32.7637 157.08 -35.2051 C 157.08 -37.6465 155.225 -39.502 152.783 -39.502 L 66.3574 -39.502 C 63.916 -39.502 62.0117 -37.6465 62.0117 -35.2051 C 62.0117 -32.7637 63.916 -30.8594 66.3574 -30.8594 Z M 54.6387 10.3027 C 58.8867 10.3027 62.3047 6.88477 62.3047 2.63672 C 62.3047 -1.61133 58.8867 -5.0293 54.6387 -5.0293 C 50.3906 -5.0293 46.9727 -1.61133 46.9727 2.63672 C 46.9727 6.88477 50.3906 10.3027 54.6387 10.3027 Z M 81.8359 6.93359 L 168.213 6.93359 C 170.703 6.93359 172.559 5.07812 172.559 2.63672 C 172.559 0.195312 170.703 -1.70898 168.213 -1.70898 L 81.8359 -1.70898 C 79.3457 -1.70898 77.4902 0.195312 77.4902 2.63672 C 77.4902 5.07812 79.3457 6.93359 81.8359 6.93359 Z"/>
  </g>
  <g id="Light-L" transform="matrix(1 0 0 1 1060.12 1556)">
   <path d="M 23.3398 -65.332 C 27.3926 -65.332 30.6641 -68.6035 30.6641 -72.6562 C 30.6641 -76.6602 27.3926 -79.9316 23.3398 -79.9316 C 19.3359 -79.9316 16.0645 -76.6602 16.0645 -72.6562 C 16.0645 -68.6035 19.3359 -65.332 23.3398 -65.332 Z M 49.6094 -69.3359 L 136.475 -69.3359 C 138.379 -69.3359 139.795 -70.752 139.795 -72.6562 C 139.795 -74.5117 138.379 -75.9277 136.475 -75.9277 L 49.6094 -75.9277 C 47.7051 -75.9277 46.2891 -74.5117 46.2891 -72.6562 C 46.2891 -70.752 47.7051 -69.3359 49.6094 -69.3359 Z M 38.4277 -27.8809 C 42.4805 -27.8809 45.752 -31.1523 45.752 -35.2051 C 45.752 -39.209 42.4805 -42.4805 38.4277 -42.4805 C 34.4238 -42.4805 31.1523 -39.209 31.1523 -35.2051 C 31.1523 -31.1523 34.4238 -27.8809 38.4277 -27.8809 Z M 64.6973 -31.8848 L 151.562 -31.8848 C 153.467 -31.8848 154.883 -33.3008 154.883 -35.2051 C 154.883 -37.0605 153.467 -38.4766 151.562 -38.4766 L 64.6973 -38.4766 C 62.793 -38.4766 61.377 -37.0605 61.377 -35.2051 C 61.377 -33.3008 62.793 -31.8848 64.6973 -31.8848 Z M 53.5645 9.57031 C 57.5684 9.57031 60.8398 6.29883 60.8398 2.24609 C 60.8398 -1.75781 57.5684 -5.0293 53.5645 -5.0293 C 49.5117 -5.0293 46.2402 -1.75781 46.2402 2.24609 C 46.2402 6.29883 49.5117 9.57031 53.5645 9.57031 Z M 79.7852 5.56641 L 166.65 5.56641 C 168.555 5.56641 169.971 4.15039 169.971 2.24609 C 169.971 0.390625 168.555 -1.02539 166.65 -1.02539 L 79.7852 -1.02539 C 77.8809 -1.02539 76.4648 0.390625 76.4648 2.24609 C 76.4648 4.15039 77.8809 5.56641 79.7852 5.56641 Z"/>
  </g>
  <g id="Thin-L" transform="matrix(1 0 0 1 765.114 1556)">
   <path d="M 22.8516 -65.332 C 26.6602 -65.332 29.6875 -68.3594 29.6875 -72.168 C 29.6875 -75.9277 26.6602 -78.9551 22.8516 -78.9551 C 19.0918 -78.9551 16.0645 -75.9277 16.0645 -72.168 C 16.0645 -68.3594 19.0918 -65.332 22.8516 -65.332 Z M 47.9004 -70.166 L 135.4 -70.166 C 136.523 -70.166 137.354 -70.9961 137.354 -72.168 C 137.354 -73.291 136.523 -74.1211 135.4 -74.1211 L 47.9004 -74.1211 C 46.7285 -74.1211 45.8984 -73.291 45.8984 -72.168 C 45.8984 -70.9961 46.7285 -70.166 47.9004 -70.166 Z M 37.4512 -28.3691 C 41.2598 -28.3691 44.2871 -31.3965 44.2871 -35.2051 C 44.2871 -38.9648 41.2598 -41.9922 37.4512 -41.9922 C 33.6914 -41.9922 30.6641 -38.9648 30.6641 -35.2051 C 30.6641 -31.3965 33.6914 -28.3691 37.4512 -28.3691 Z M 62.5 -33.2031 L 150 -33.2031 C 151.123 -33.2031 151.953 -34.0332 151.953 -35.2051 C 151.953 -36.3281 151.123 -37.1582 150 -37.1582 L 62.5 -37.1582 C 61.3281 -37.1582 60.498 -36.3281 60.498 -35.2051 C 60.498 -34.0332 61.3281 -33.2031 62.5 -33.2031 Z M 52.0996 8.59375 C 55.8594 8.59375 58.8867 5.56641 58.8867 1.75781 C 58.8867 -2.00195 55.8594 -5.0293 52.0996 -5.0293 C 48.291 -5.0293 45.2637 -2.00195 45.2637 1.75781 C 45.2637 5.56641 48.291 8.59375 52.0996 8.59375 Z M 77.0996 3.75977 L 164.6 3.75977 C 165.723 3.75977 166.553 2.92969 166.553 1.75781 C 166.553 0.634766 165.723 -0.195312 164.6 -0.195312 L 77.0996 -0.195312 C 75.9277 -0.195312 75.1465 0.634766 75.1465 1.75781 C 75.1465 2.92969 75.9277 3.75977 77.0996 3.75977 Z"/>
  </g>
  <g id="Ultralight-L" transform="matrix(1 0 0 1 469.281 1556)">
   <path d="M 22.6074 -65.332 C 26.2695 -65.332 29.1504 -68.2617 29.1504 -71.9238 C 29.1504 -75.5371 26.2695 -78.4668 22.6074 -78.4668 C 18.9941 -78.4668 16.0645 -75.5371 16.0645 -71.9238 C 16.0645 -68.2617 18.9941 -65.332 22.6074 -65.332 Z M 47.0215 -70.6055 L 134.814 -70.6055 C 135.596 -70.6055 136.084 -71.0938 136.084 -71.9238 C 136.084 -72.7051 135.596 -73.1934 134.814 -73.1934 L 47.0215 -73.1934 C 46.2402 -73.1934 45.752 -72.7051 45.752 -71.9238 C 45.752 -71.0938 46.2402 -70.6055 47.0215 -70.6055 Z M 36.9629 -28.6133 C 40.625 -28.6133 43.5059 -31.543 43.5059 -35.2051 C 43.5059 -38.8184 40.625 -41.748 36.9629 -41.748 C 33.3496 -41.748 30.4199 -38.8184 30.4199 -35.2051 C 30.4199 -31.543 33.3496 -28.6133 36.9629 -28.6133 Z M 61.377 -33.9355 L 149.17 -33.9355 C 149.951 -33.9355 150.439 -34.4238 150.439 -35.2051 C 150.439 -35.9863 149.951 -36.4746 149.17 -36.4746 L 61.377 -36.4746 C 60.5957 -36.4746 60.1074 -35.9863 60.1074 -35.2051 C 60.1074 -34.4238 60.5957 -33.9355 61.377 -33.9355 Z M 51.3184 8.05664 C 54.9805 8.05664 57.8613 5.17578 57.8613 1.51367 C 57.8613 -2.09961 54.9805 -5.0293 51.3184 -5.0293 C 47.7051 -5.0293 44.7754 -2.09961 44.7754 1.51367 C 44.7754 5.17578 47.7051 8.05664 51.3184 8.05664 Z M 75.7324 2.7832 L 163.525 2.7832 C 164.307 2.7832 164.795 2.29492 164.795 1.51367 C 164.795 0.732422 164.307 0.244141 163.525 0.244141 L 75.7324 0.244141 C 74.9512 0.244141 74.4629 0.732422 74.4629 1.51367 C 74.4629 2.29492 74.9512 2.7832 75.7324 2.7832 Z"/>
  </g>
  <g id="Black-M" transform="matrix(1 0 0 1 2850.95 1126)">
   <path d="M 22.998 -56.9824 C 28.8086 -56.9824 33.5938 -61.7676 33.5938 -67.5293 C 33.5938 -73.3398 28.8086 -78.125 22.998 -78.125 C 17.2363 -78.125 12.4512 -73.3398 12.4512 -67.5293 C 12.4512 -61.7676 17.2363 -56.9824 22.998 -56.9824 Z M 52.2949 -59.375 L 116.748 -59.375 C 121.289 -59.375 124.951 -62.9395 124.951 -67.5293 C 124.951 -72.0703 121.338 -75.7324 116.748 -75.7324 L 52.2949 -75.7324 C 47.7539 -75.7324 44.0918 -72.1191 44.0918 -67.5293 C 44.0918 -62.9883 47.7051 -59.375 52.2949 -59.375 Z M 36.7676 -24.6094 C 42.5293 -24.6094 47.3145 -29.3945 47.3145 -35.2051 C 47.3145 -40.9668 42.5293 -45.752 36.7676 -45.752 C 30.957 -45.752 26.1719 -40.9668 26.1719 -35.2051 C 26.1719 -29.3945 30.957 -24.6094 36.7676 -24.6094 Z M 66.0156 -27.002 L 130.518 -27.002 C 135.01 -27.002 138.672 -30.6152 138.672 -35.2051 C 138.672 -39.7461 135.107 -43.4082 130.518 -43.4082 L 66.0156 -43.4082 C 61.5234 -43.4082 57.8613 -39.7949 57.8613 -35.2051 C 57.8613 -30.6641 61.4258 -27.002 66.0156 -27.002 Z M 50.4883 7.71484 C 56.2988 7.71484 61.084 2.92969 61.084 -2.83203 C 61.084 -8.64258 56.2988 -13.4277 50.4883 -13.4277 C 44.7266 -13.4277 39.9414 -8.64258 39.9414 -2.83203 C 39.9414 2.92969 44.7266 7.71484 50.4883 7.71484 Z M 79.7852 5.32227 L 144.238 5.32227 C 148.779 5.32227 152.441 1.75781 152.441 -2.83203 C 152.441 -7.37305 148.828 -11.0352 144.238 -11.0352 L 79.7852 -11.0352 C 75.2441 -11.0352 71.582 -7.4707 71.582 -2.83203 C 71.582 1.66016 75.1953 5.32227 79.7852 5.32227 Z"/>
  </g>
  <g id="Heavy-M" transform="matrix(1 0 0 1 2556.29 1126)">
   <path d="M 21.9727 -57.373 C 27.1973 -57.373 31.4941 -61.6699 31.4941 -66.8945 C 31.4941 -72.1191 27.1973 -76.416 21.9727 -76.416 C 16.748 -76.416 12.4512 -72.1191 12.4512 -66.8945 C 12.4512 -61.6699 16.748 -57.373 21.9727 -57.373 Z M 49.4141 -59.7168 L 114.404 -59.7168 C 118.408 -59.7168 121.631 -62.8418 121.631 -66.8945 C 121.631 -70.8496 118.457 -74.0723 114.404 -74.0723 L 49.4141 -74.0723 C 45.459 -74.0723 42.2363 -70.8984 42.2363 -66.8945 C 42.2363 -62.8906 45.4102 -59.7168 49.4141 -59.7168 Z M 35.3516 -25.6836 C 40.5762 -25.6836 44.873 -29.9805 44.873 -35.2051 C 44.873 -40.4297 40.5762 -44.7266 35.3516 -44.7266 C 30.127 -44.7266 25.8301 -40.4297 25.8301 -35.2051 C 25.8301 -29.9805 30.127 -25.6836 35.3516 -25.6836 Z M 62.793 -28.0273 L 127.783 -28.0273 C 131.787 -28.0273 134.961 -31.1523 134.961 -35.2051 C 134.961 -39.1602 131.836 -42.3828 127.783 -42.3828 L 62.793 -42.3828 C 58.8379 -42.3828 55.6152 -39.209 55.6152 -35.2051 C 55.6152 -31.2012 58.7891 -28.0273 62.793 -28.0273 Z M 48.7305 6.00586 C 53.9551 6.00586 58.252 1.70898 58.252 -3.51562 C 58.252 -8.74023 53.9551 -13.0371 48.7305 -13.0371 C 43.5059 -13.0371 39.209 -8.74023 39.209 -3.51562 C 39.209 1.70898 43.5059 6.00586 48.7305 6.00586 Z M 76.1719 3.66211 L 141.162 3.66211 C 145.166 3.66211 148.34 0.537109 148.34 -3.51562 C 148.34 -7.51953 145.215 -10.6934 141.162 -10.6934 L 76.1719 -10.6934 C 72.2168 -10.6934 68.9941 -7.56836 68.9941 -3.51562 C 68.9941 0.488281 72.168 3.66211 76.1719 3.66211 Z"/>
  </g>
  <g id="Bold-M" transform="matrix(1 0 0 1 2261.85 1126)">
   <path d="M 20.8008 -57.7637 C 25.3906 -57.7637 29.1504 -61.5234 29.1504 -66.1133 C 29.1504 -70.7031 25.3906 -74.5117 20.8008 -74.5117 C 16.2109 -74.5117 12.4512 -70.7031 12.4512 -66.1133 C 12.4512 -61.5234 16.2109 -57.7637 20.8008 -57.7637 Z M 46.2402 -60.0586 L 111.816 -60.0586 C 115.186 -60.0586 117.871 -62.7441 117.871 -66.1133 C 117.871 -69.4824 115.234 -72.168 111.816 -72.168 L 46.2402 -72.168 C 42.8711 -72.168 40.1855 -69.5312 40.1855 -66.1133 C 40.1855 -62.7441 42.8223 -60.0586 46.2402 -60.0586 Z M 33.7891 -26.8555 C 38.3789 -26.8555 42.1387 -30.6152 42.1387 -35.2051 C 42.1387 -39.7949 38.3789 -43.5547 33.7891 -43.5547 C 29.1992 -43.5547 25.4395 -39.7949 25.4395 -35.2051 C 25.4395 -30.6152 29.1992 -26.8555 33.7891 -26.8555 Z M 59.1797 -29.1504 L 124.805 -29.1504 C 128.174 -29.1504 130.859 -31.7871 130.859 -35.2051 C 130.859 -38.5742 128.174 -41.2598 124.805 -41.2598 L 59.1797 -41.2598 C 55.8105 -41.2598 53.125 -38.623 53.125 -35.2051 C 53.125 -31.8359 55.8105 -29.1504 59.1797 -29.1504 Z M 46.7285 4.10156 C 51.3184 4.10156 55.127 0.341797 55.127 -4.24805 C 55.127 -8.83789 51.3184 -12.6465 46.7285 -12.6465 C 42.1387 -12.6465 38.3789 -8.83789 38.3789 -4.24805 C 38.3789 0.341797 42.1387 4.10156 46.7285 4.10156 Z M 72.168 1.80664 L 137.744 1.80664 C 141.113 1.80664 143.799 -0.878906 143.799 -4.24805 C 143.799 -7.61719 141.162 -10.3027 137.744 -10.3027 L 72.168 -10.3027 C 68.7988 -10.3027 66.1133 -7.66602 66.1133 -4.24805 C 66.1133 -0.878906 68.75 1.80664 72.168 1.80664 Z"/>
  </g>
  <g id="Semibold-M" transform="matrix(1 0 0 1 1966.7 1126)">
   <path d="M 20.0195 -58.0566 C 24.1699 -58.0566 27.5391 -61.4746 27.5391 -65.625 C 27.5391 -69.7754 24.1699 -73.1934 20.0195 -73.1934 C 15.8203 -73.1934 12.4512 -69.7754 12.4512 -65.625 C 12.4512 -61.4746 15.8203 -58.0566 20.0195 -58.0566 Z M 44.043 -60.3516 L 110.01 -60.3516 C 112.988 -60.3516 115.332 -62.6465 115.332 -65.625 C 115.332 -68.5547 112.988 -70.8984 110.01 -70.8984 L 44.043 -70.8984 C 41.0645 -70.8984 38.7207 -68.6035 38.7207 -65.625 C 38.7207 -62.6465 41.0645 -60.3516 44.043 -60.3516 Z M 32.7148 -27.6367 C 36.8652 -27.6367 40.2344 -31.0547 40.2344 -35.2051 C 40.2344 -39.3555 36.8652 -42.7734 32.7148 -42.7734 C 28.5156 -42.7734 25.1465 -39.3555 25.1465 -35.2051 C 25.1465 -31.0547 28.5156 -27.6367 32.7148 -27.6367 Z M 56.7383 -29.9316 L 122.705 -29.9316 C 125.684 -29.9316 127.979 -32.2266 127.979 -35.2051 C 127.979 -38.1348 125.684 -40.4785 122.705 -40.4785 L 56.7383 -40.4785 C 53.7598 -40.4785 51.416 -38.1836 51.416 -35.2051 C 51.416 -32.2266 53.7598 -29.9316 56.7383 -29.9316 Z M 45.3613 2.7832 C 49.5605 2.7832 52.9297 -0.634766 52.9297 -4.78516 C 52.9297 -8.93555 49.5605 -12.3535 45.3613 -12.3535 C 41.2109 -12.3535 37.8418 -8.93555 37.8418 -4.78516 C 37.8418 -0.634766 41.2109 2.7832 45.3613 2.7832 Z M 69.3848 0.488281 L 135.4 0.488281 C 138.33 0.488281 140.674 -1.80664 140.674 -4.78516 C 140.674 -7.71484 138.379 -10.0586 135.4 -10.0586 L 69.3848 -10.0586 C 66.4551 -10.0586 64.1113 -7.76367 64.1113 -4.78516 C 64.1113 -1.80664 66.4062 0.488281 69.3848 0.488281 Z"/>
  </g>
  <g id="Medium-M" transform="matrix(1 0 0 1 1671.19 1126)">
   <path d="M 19.3848 -58.3008 C 23.2422 -58.3008 26.3184 -61.377 26.3184 -65.2344 C 26.3184 -69.043 23.2422 -72.168 19.3848 -72.168 C 15.5762 -72.168 12.4512 -69.043 12.4512 -65.2344 C 12.4512 -61.377 15.5762 -58.3008 19.3848 -58.3008 Z M 42.334 -60.5469 L 108.643 -60.5469 C 111.279 -60.5469 113.379 -62.5977 113.379 -65.2344 C 113.379 -67.8711 111.328 -69.9219 108.643 -69.9219 L 42.334 -69.9219 C 39.7461 -69.9219 37.6465 -67.8711 37.6465 -65.2344 C 37.6465 -62.5977 39.6973 -60.5469 42.334 -60.5469 Z M 31.8848 -28.2715 C 35.6934 -28.2715 38.8184 -31.3477 38.8184 -35.2051 C 38.8184 -39.0137 35.6934 -42.1387 31.8848 -42.1387 C 28.0273 -42.1387 24.9023 -39.0137 24.9023 -35.2051 C 24.9023 -31.3477 28.0273 -28.2715 31.8848 -28.2715 Z M 54.834 -30.5176 L 121.143 -30.5176 C 123.779 -30.5176 125.83 -32.5684 125.83 -35.2051 C 125.83 -37.8418 123.779 -39.8926 121.143 -39.8926 L 54.834 -39.8926 C 52.1973 -39.8926 50.1465 -37.8418 50.1465 -35.2051 C 50.1465 -32.5684 52.1973 -30.5176 54.834 -30.5176 Z M 44.3359 1.75781 C 48.1934 1.75781 51.2695 -1.31836 51.2695 -5.17578 C 51.2695 -8.98438 48.1934 -12.1094 44.3359 -12.1094 C 40.5273 -12.1094 37.4023 -8.98438 37.4023 -5.17578 C 37.4023 -1.31836 40.5273 1.75781 44.3359 1.75781 Z M 67.2852 -0.488281 L 133.594 -0.488281 C 136.23 -0.488281 138.281 -2.53906 138.281 -5.17578 C 138.281 -7.8125 136.23 -9.86328 133.594 -9.86328 L 67.2852 -9.86328 C 64.6484 -9.86328 62.5977 -7.8125 62.5977 -5.17578 C 62.5977 -2.53906 64.6484 -0.488281 67.2852 -0.488281 Z"/>
  </g>
  <g id="Regular-M" transform="matrix(1 0 0 1 1376.02 1126)">
   <path d="M 18.6035 -58.5938 C 22.0215 -58.5938 24.7559 -61.3281 24.7559 -64.6973 C 24.7559 -68.1152 22.0215 -70.8496 18.6035 -70.8496 C 15.1855 -70.8496 12.4512 -68.1152 12.4512 -64.6973 C 12.4512 -61.3281 15.1855 -58.5938 18.6035 -58.5938 Z M 40.1855 -60.791 L 106.885 -60.791 C 109.082 -60.791 110.84 -62.5 110.84 -64.6973 C 110.84 -66.9434 109.082 -68.6523 106.885 -68.6523 L 40.1855 -68.6523 C 37.9395 -68.6523 36.2305 -66.9434 36.2305 -64.6973 C 36.2305 -62.5 37.9395 -60.791 40.1855 -60.791 Z M 30.8105 -29.0527 C 34.1797 -29.0527 36.9629 -31.7871 36.9629 -35.2051 C 36.9629 -38.623 34.1797 -41.3574 30.8105 -41.3574 C 27.3926 -41.3574 24.6582 -38.623 24.6582 -35.2051 C 24.6582 -31.7871 27.3926 -29.0527 30.8105 -29.0527 Z M 52.3438 -31.25 L 119.092 -31.25 C 121.289 -31.25 122.998 -33.0078 122.998 -35.2051 C 122.998 -37.4023 121.289 -39.1113 119.092 -39.1113 L 52.3438 -39.1113 C 50.1465 -39.1113 48.4375 -37.4023 48.4375 -35.2051 C 48.4375 -33.0078 50.1465 -31.25 52.3438 -31.25 Z M 42.9688 0.488281 C 46.3867 0.488281 49.1211 -2.29492 49.1211 -5.66406 C 49.1211 -9.08203 46.3867 -11.8164 42.9688 -11.8164 C 39.5996 -11.8164 36.8164 -9.08203 36.8164 -5.66406 C 36.8164 -2.29492 39.5996 0.488281 42.9688 0.488281 Z M 64.5508 -1.75781 L 131.299 -1.75781 C 133.496 -1.75781 135.205 -3.4668 135.205 -5.66406 C 135.205 -7.91016 133.496 -9.61914 131.299 -9.61914 L 64.5508 -9.61914 C 62.3535 -9.61914 60.6445 -7.91016 60.6445 -5.66406 C 60.6445 -3.4668 62.3535 -1.75781 64.5508 -1.75781 Z"/>
  </g>
  <g id="Light-M" transform="matrix(1 0 0 1 1080.45 1126)">
   <path d="M 18.2617 -58.5938 C 21.4844 -58.5938 24.0723 -61.1816 24.0723 -64.4043 C 24.0723 -67.627 21.4844 -70.2148 18.2617 -70.2148 C 15.0391 -70.2148 12.4512 -67.627 12.4512 -64.4043 C 12.4512 -61.1816 15.0391 -58.5938 18.2617 -58.5938 Z M 39.0137 -61.377 L 106.152 -61.377 C 107.861 -61.377 109.18 -62.6953 109.18 -64.4043 C 109.18 -66.1133 107.861 -67.3828 106.152 -67.3828 L 39.0137 -67.3828 C 37.3047 -67.3828 35.9863 -66.1133 35.9863 -64.4043 C 35.9863 -62.6953 37.3047 -61.377 39.0137 -61.377 Z M 30.127 -29.3945 C 33.3496 -29.3945 35.9375 -31.9824 35.9375 -35.2051 C 35.9375 -38.4277 33.3496 -41.0156 30.127 -41.0156 C 26.9043 -41.0156 24.3164 -38.4277 24.3164 -35.2051 C 24.3164 -31.9824 26.9043 -29.3945 30.127 -29.3945 Z M 50.8789 -32.1777 L 118.018 -32.1777 C 119.727 -32.1777 121.045 -33.4961 121.045 -35.2051 C 121.045 -36.9141 119.727 -38.2324 118.018 -38.2324 L 50.8789 -38.2324 C 49.1699 -38.2324 47.8516 -36.9141 47.8516 -35.2051 C 47.8516 -33.4961 49.1699 -32.1777 50.8789 -32.1777 Z M 41.9922 -0.195312 C 45.2148 -0.195312 47.8027 -2.7832 47.8027 -6.00586 C 47.8027 -9.22852 45.2148 -11.8164 41.9922 -11.8164 C 38.7695 -11.8164 36.1816 -9.22852 36.1816 -6.00586 C 36.1816 -2.7832 38.7695 -0.195312 41.9922 -0.195312 Z M 62.7441 -2.97852 L 129.883 -2.97852 C 131.592 -2.97852 132.91 -4.29688 132.91 -6.00586 C 132.91 -7.71484 131.592 -9.0332 129.883 -9.0332 L 62.7441 -9.0332 C 61.0352 -9.0332 59.7168 -7.71484 59.7168 -6.00586 C 59.7168 -4.29688 61.0352 -2.97852 62.7441 -2.97852 Z"/>
  </g>
  <g id="Thin-M" transform="matrix(1 0 0 1 785.28 1126)">
   <path d="M 17.8223 -58.5938 C 20.8008 -58.5938 23.1934 -60.9863 23.1934 -63.9648 C 23.1934 -66.9434 20.8008 -69.3359 17.8223 -69.3359 C 14.8438 -69.3359 12.4512 -66.9434 12.4512 -63.9648 C 12.4512 -60.9863 14.8438 -58.5938 17.8223 -58.5938 Z M 37.5 -62.1582 L 105.176 -62.1582 C 106.201 -62.1582 106.982 -62.8906 106.982 -63.9648 C 106.982 -64.9902 106.201 -65.7715 105.176 -65.7715 L 37.5 -65.7715 C 36.4258 -65.7715 35.6445 -64.9902 35.6445 -63.9648 C 35.6445 -62.8906 36.4258 -62.1582 37.5 -62.1582 Z M 29.248 -29.834 C 32.2266 -29.834 34.6191 -32.2266 34.6191 -35.2051 C 34.6191 -38.1836 32.2266 -40.5762 29.248 -40.5762 C 26.2695 -40.5762 23.877 -38.1836 23.877 -35.2051 C 23.877 -32.2266 26.2695 -29.834 29.248 -29.834 Z M 48.9258 -33.3984 L 116.602 -33.3984 C 117.627 -33.3984 118.408 -34.1309 118.408 -35.2051 C 118.408 -36.2793 117.627 -37.0117 116.602 -37.0117 L 48.9258 -37.0117 C 47.8516 -37.0117 47.0703 -36.2793 47.0703 -35.2051 C 47.0703 -34.1309 47.8516 -33.3984 48.9258 -33.3984 Z M 40.6738 -1.07422 C 43.6523 -1.07422 46.0449 -3.4668 46.0449 -6.44531 C 46.0449 -9.42383 43.6523 -11.8164 40.6738 -11.8164 C 37.6953 -11.8164 35.3027 -9.42383 35.3027 -6.44531 C 35.3027 -3.4668 37.6953 -1.07422 40.6738 -1.07422 Z M 60.3516 -4.63867 L 128.027 -4.63867 C 129.053 -4.63867 129.834 -5.37109 129.834 -6.44531 C 129.834 -7.51953 129.053 -8.25195 128.027 -8.25195 L 60.3516 -8.25195 C 59.2773 -8.25195 58.4961 -7.51953 58.4961 -6.44531 C 58.4961 -5.37109 59.2773 -4.63867 60.3516 -4.63867 Z"/>
  </g>
  <g id="Ultralight-M" transform="matrix(1 0 0 1 489.374 1126)">
   <path d="M 17.627 -58.5938 C 20.459 -58.5938 22.7539 -60.8887 22.7539 -63.7207 C 22.7539 -66.6016 20.459 -68.8965 17.627 -68.8965 C 14.7461 -68.8965 12.4512 -66.6016 12.4512 -63.7207 C 12.4512 -60.8887 14.7461 -58.5938 17.627 -58.5938 Z M 36.6699 -62.5488 L 104.639 -62.5488 C 105.371 -62.5488 105.859 -62.9883 105.859 -63.7207 C 105.859 -64.4531 105.371 -64.9414 104.639 -64.9414 L 36.6699 -64.9414 C 35.9863 -64.9414 35.498 -64.4531 35.498 -63.7207 C 35.498 -62.9883 35.9863 -62.5488 36.6699 -62.5488 Z M 28.8086 -30.0293 C 31.6406 -30.0293 33.9844 -32.3242 33.9844 -35.2051 C 33.9844 -38.0371 31.6406 -40.332 28.8086 -40.332 C 25.9277 -40.332 23.6328 -38.0371 23.6328 -35.2051 C 23.6328 -32.3242 25.9277 -30.0293 28.8086 -30.0293 Z M 47.9004 -33.9844 L 115.869 -33.9844 C 116.553 -33.9844 117.041 -34.4727 117.041 -35.2051 C 117.041 -35.9375 116.553 -36.377 115.869 -36.377 L 47.9004 -36.377 C 47.168 -36.377 46.6797 -35.9375 46.6797 -35.2051 C 46.6797 -34.4727 47.168 -33.9844 47.9004 -33.9844 Z M 39.9902 -1.51367 C 42.8711 -1.51367 45.166 -3.80859 45.166 -6.68945 C 45.166 -9.52148 42.8711 -11.8164 39.9902 -11.8164 C 37.1582 -11.8164 34.8633 -9.52148 34.8633 -6.68945 C 34.8633 -3.80859 37.1582 -1.51367 39.9902 -1.51367 Z M 59.082 -5.46875 L 127.051 -5.46875 C 127.783 -5.46875 128.223 -5.95703 128.223 -6.68945 C 128.223 -7.37305 127.783 -7.86133 127.051 -7.86133 L 59.082 -7.86133 C 58.3496 -7.86133 57.9102 -7.37305 57.9102 -6.68945 C 57.9102 -5.95703 58.3496 -5.46875 59.082 -5.46875 Z"/>
  </g>
  <g id="Black-S" transform="matrix(1 0 0 1 2868.95 696)">
   <path d="M 17.9688 -52.2949 C 22.4609 -52.2949 26.1719 -56.0059 26.1719 -60.498 C 26.1719 -64.9902 22.4609 -68.7012 17.9688 -68.7012 C 13.4766 -68.7012 9.76562 -64.9902 9.76562 -60.498 C 9.76562 -56.0059 13.4766 -52.2949 17.9688 -52.2949 Z M 40.7715 -54.1504 L 91.3086 -54.1504 C 94.8242 -54.1504 97.6562 -56.9336 97.6562 -60.498 C 97.6562 -64.0137 94.873 -66.8457 91.3086 -66.8457 L 40.7715 -66.8457 C 37.2559 -66.8457 34.4238 -64.0625 34.4238 -60.498 C 34.4238 -56.9824 37.207 -54.1504 40.7715 -54.1504 Z M 28.7109 -27.002 C 33.2031 -27.002 36.9141 -30.7129 36.9141 -35.2051 C 36.9141 -39.6973 33.2031 -43.4082 28.7109 -43.4082 C 24.2188 -43.4082 20.5078 -39.6973 20.5078 -35.2051 C 20.5078 -30.7129 24.2188 -27.002 28.7109 -27.002 Z M 51.5137 -28.8574 L 102.051 -28.8574 C 105.566 -28.8574 108.398 -31.6406 108.398 -35.2051 C 108.398 -38.7207 105.615 -41.5527 102.051 -41.5527 L 51.5137 -41.5527 C 47.998 -41.5527 45.166 -38.7695 45.166 -35.2051 C 45.166 -31.6895 47.9492 -28.8574 51.5137 -28.8574 Z M 39.4531 -1.70898 C 43.9453 -1.70898 47.6562 -5.41992 47.6562 -9.91211 C 47.6562 -14.4043 43.9453 -18.1152 39.4531 -18.1152 C 34.9609 -18.1152 31.25 -14.4043 31.25 -9.91211 C 31.25 -5.41992 34.9609 -1.70898 39.4531 -1.70898 Z M 62.2559 -3.56445 L 112.793 -3.56445 C 116.309 -3.56445 119.141 -6.34766 119.141 -9.91211 C 119.141 -13.4277 116.357 -16.2598 112.793 -16.2598 L 62.2559 -16.2598 C 58.7402 -16.2598 55.9082 -13.4766 55.9082 -9.91211 C 55.9082 -6.39648 58.6914 -3.56445 62.2559 -3.56445 Z"/>
  </g>
  <g id="Heavy-S" transform="matrix(1 0 0 1 2573.65 696)">
   <path d="M 17.1875 -52.5879 C 21.2891 -52.5879 24.6582 -55.957 24.6582 -60.0098 C 24.6582 -64.1113 21.2891 -67.4805 17.1875 -67.4805 C 13.1348 -67.4805 9.76562 -64.1113 9.76562 -60.0098 C 9.76562 -55.957 13.1348 -52.5879 17.1875 -52.5879 Z M 38.7207 -54.3457 L 89.5996 -54.3457 C 92.7734 -54.3457 95.3125 -56.8359 95.3125 -60.0098 C 95.3125 -63.1836 92.8223 -65.7227 89.5996 -65.7227 L 38.7207 -65.7227 C 35.5469 -65.7227 33.0078 -63.2324 33.0078 -60.0098 C 33.0078 -56.8848 35.5469 -54.3457 38.7207 -54.3457 Z M 27.6855 -27.7832 C 31.7871 -27.7832 35.1562 -31.1035 35.1562 -35.2051 C 35.1562 -39.3066 31.7871 -42.627 27.6855 -42.627 C 23.6328 -42.627 20.2637 -39.3066 20.2637 -35.2051 C 20.2637 -31.1035 23.6328 -27.7832 27.6855 -27.7832 Z M 49.2188 -29.541 L 100.098 -29.541 C 103.271 -29.541 105.811 -32.0312 105.811 -35.2051 C 105.811 -38.3789 103.32 -40.8691 100.098 -40.8691 L 49.2188 -40.8691 C 46.0449 -40.8691 43.5547 -38.3789 43.5547 -35.2051 C 43.5547 -32.0312 46.0449 -29.541 49.2188 -29.541 Z M 38.1836 -2.92969 C 42.2852 -2.92969 45.6543 -6.29883 45.6543 -10.4004 C 45.6543 -14.4531 42.2852 -17.8223 38.1836 -17.8223 C 34.1309 -17.8223 30.7617 -14.4531 30.7617 -10.4004 C 30.7617 -6.29883 34.1309 -2.92969 38.1836 -2.92969 Z M 59.7168 -4.6875 L 110.596 -4.6875 C 113.77 -4.6875 116.309 -7.17773 116.309 -10.4004 C 116.309 -13.5254 113.818 -16.0645 110.596 -16.0645 L 59.7168 -16.0645 C 56.543 -16.0645 54.0527 -13.5742 54.0527 -10.4004 C 54.0527 -7.22656 56.543 -4.6875 59.7168 -4.6875 Z"/>
  </g>
  <g id="Bold-S" transform="matrix(1 0 0 1 2278.55 696)">
   <path d="M 16.3574 -52.9297 C 19.9707 -52.9297 22.9492 -55.8594 22.9492 -59.4727 C 22.9492 -63.1348 19.9707 -66.0645 16.3574 -66.0645 C 12.7441 -66.0645 9.76562 -63.1348 9.76562 -59.4727 C 9.76562 -55.8594 12.7441 -52.9297 16.3574 -52.9297 Z M 36.4258 -54.541 L 87.6953 -54.541 C 90.4785 -54.541 92.627 -56.7383 92.627 -59.4727 C 92.627 -62.2559 90.4785 -64.4531 87.6953 -64.4531 L 36.4258 -64.4531 C 33.6426 -64.4531 31.4941 -62.2559 31.4941 -59.4727 C 31.4941 -56.7383 33.6426 -54.541 36.4258 -54.541 Z M 26.5625 -28.6133 C 30.2246 -28.6133 33.1543 -31.5918 33.1543 -35.2051 C 33.1543 -38.8184 30.2246 -41.7969 26.5625 -41.7969 C 22.9492 -41.7969 19.9707 -38.8184 19.9707 -35.2051 C 19.9707 -31.5918 22.9492 -28.6133 26.5625 -28.6133 Z M 46.6309 -30.2734 L 97.9492 -30.2734 C 100.684 -30.2734 102.881 -32.4219 102.881 -35.2051 C 102.881 -37.9395 100.732 -40.1367 97.9492 -40.1367 L 46.6309 -40.1367 C 43.8965 -40.1367 41.6992 -37.9883 41.6992 -35.2051 C 41.6992 -32.4707 43.8477 -30.2734 46.6309 -30.2734 Z M 36.8164 -4.3457 C 40.4297 -4.3457 43.4082 -7.27539 43.4082 -10.9375 C 43.4082 -14.5508 40.4297 -17.5293 36.8164 -17.5293 C 33.2031 -17.5293 30.2246 -14.5508 30.2246 -10.9375 C 30.2246 -7.27539 33.2031 -4.3457 36.8164 -4.3457 Z M 56.8848 -5.95703 L 108.154 -5.95703 C 110.889 -5.95703 113.086 -8.1543 113.086 -10.9375 C 113.086 -13.6719 110.938 -15.8691 108.154 -15.8691 L 56.8848 -15.8691 C 54.1016 -15.8691 51.9531 -13.6719 51.9531 -10.9375 C 51.9531 -8.1543 54.1016 -5.95703 56.8848 -5.95703 Z"/>
  </g>
  <g id="Semibold-S" transform="matrix(1 0 0 1 1982.94 696)">
   <path d="M 15.7715 -53.125 C 19.0918 -53.125 21.7773 -55.8105 21.7773 -59.1309 C 21.7773 -62.4512 19.0918 -65.1367 15.7715 -65.1367 C 12.4512 -65.1367 9.76562 -62.4512 9.76562 -59.1309 C 9.76562 -55.8105 12.4512 -53.125 15.7715 -53.125 Z M 34.8145 -54.6875 L 86.377 -54.6875 C 88.8672 -54.6875 90.8203 -56.6406 90.8203 -59.1309 C 90.8203 -61.5723 88.8672 -63.5742 86.377 -63.5742 L 34.8145 -63.5742 C 32.373 -63.5742 30.4199 -61.6211 30.4199 -59.1309 C 30.4199 -56.6895 32.3242 -54.6875 34.8145 -54.6875 Z M 25.8301 -29.1992 C 29.1016 -29.1992 31.8359 -31.8848 31.8359 -35.2051 C 31.8359 -38.5254 29.1016 -41.2109 25.8301 -41.2109 C 22.5098 -41.2109 19.8242 -38.5254 19.8242 -35.2051 C 19.8242 -31.8848 22.5098 -29.1992 25.8301 -29.1992 Z M 44.873 -30.7617 L 96.4355 -30.7617 C 98.9258 -30.7617 100.879 -32.7148 100.879 -35.2051 C 100.879 -37.6465 98.9258 -39.6484 96.4355 -39.6484 L 44.873 -39.6484 C 42.3828 -39.6484 40.4297 -37.6953 40.4297 -35.2051 C 40.4297 -32.7637 42.3828 -30.7617 44.873 -30.7617 Z M 35.8398 -5.27344 C 39.1602 -5.27344 41.8457 -7.95898 41.8457 -11.2793 C 41.8457 -14.5996 39.1602 -17.2852 35.8398 -17.2852 C 32.5684 -17.2852 29.834 -14.5996 29.834 -11.2793 C 29.834 -7.95898 32.5684 -5.27344 35.8398 -5.27344 Z M 54.8828 -6.83594 L 106.494 -6.83594 C 108.936 -6.83594 110.889 -8.78906 110.889 -11.2793 C 110.889 -13.7207 108.984 -15.7227 106.494 -15.7227 L 54.8828 -15.7227 C 52.4414 -15.7227 50.4883 -13.7695 50.4883 -11.2793 C 50.4883 -8.83789 52.4414 -6.83594 54.8828 -6.83594 Z"/>
  </g>
  <g id="Medium-S" transform="matrix(1 0 0 1 1687.06 696)">
   <path d="M 15.332 -53.3203 C 18.4082 -53.3203 20.8984 -55.8105 20.8984 -58.8379 C 20.8984 -61.9141 18.4082 -64.4043 15.332 -64.4043 C 12.2559 -64.4043 9.76562 -61.9141 9.76562 -58.8379 C 9.76562 -55.8105 12.2559 -53.3203 15.332 -53.3203 Z M 33.5938 -54.834 L 85.4004 -54.834 C 87.6465 -54.834 89.4531 -56.5918 89.4531 -58.8379 C 89.4531 -61.084 87.6465 -62.8906 85.4004 -62.8906 L 33.5938 -62.8906 C 31.3477 -62.8906 29.5898 -61.1328 29.5898 -58.8379 C 29.5898 -56.5918 31.3477 -54.834 33.5938 -54.834 Z M 25.2441 -29.6387 C 28.2715 -29.6387 30.7617 -32.1289 30.7617 -35.2051 C 30.7617 -38.2812 28.2715 -40.7715 25.2441 -40.7715 C 22.168 -40.7715 19.6777 -38.2812 19.6777 -35.2051 C 19.6777 -32.1289 22.168 -29.6387 25.2441 -29.6387 Z M 43.5059 -31.1523 L 95.3125 -31.1523 C 97.5586 -31.1523 99.3164 -32.959 99.3164 -35.2051 C 99.3164 -37.4512 97.5586 -39.2578 95.3125 -39.2578 L 43.5059 -39.2578 C 41.2598 -39.2578 39.502 -37.4512 39.502 -35.2051 C 39.502 -32.959 41.2598 -31.1523 43.5059 -31.1523 Z M 35.1074 -6.00586 C 38.1836 -6.00586 40.6738 -8.49609 40.6738 -11.5723 C 40.6738 -14.5996 38.1836 -17.1387 35.1074 -17.1387 C 32.0312 -17.1387 29.541 -14.5996 29.541 -11.5723 C 29.541 -8.49609 32.0312 -6.00586 35.1074 -6.00586 Z M 53.418 -7.51953 L 105.225 -7.51953 C 107.471 -7.51953 109.229 -9.27734 109.229 -11.5723 C 109.229 -13.8184 107.471 -15.5762 105.225 -15.5762 L 53.418 -15.5762 C 51.1719 -15.5762 49.3652 -13.8184 49.3652 -11.5723 C 49.3652 -9.32617 51.1719 -7.51953 53.418 -7.51953 Z"/>
  </g>
  <g id="Regular-S" transform="matrix(1 0 0 1 1391.42 696)">
   <path d="M 14.7461 -53.5156 C 17.4805 -53.5156 19.7266 -55.7617 19.7266 -58.4961 C 19.7266 -61.2305 17.4805 -63.4766 14.7461 -63.4766 C 12.0117 -63.4766 9.76562 -61.2305 9.76562 -58.4961 C 9.76562 -55.7617 12.0117 -53.5156 14.7461 -53.5156 Z M 32.0312 -54.9805 L 84.1309 -54.9805 C 86.084 -54.9805 87.6465 -56.543 87.6465 -58.4961 C 87.6465 -60.4492 86.084 -62.0117 84.1309 -62.0117 L 32.0312 -62.0117 C 30.0781 -62.0117 28.5156 -60.4492 28.5156 -58.4961 C 28.5156 -56.543 30.0781 -54.9805 32.0312 -54.9805 Z M 24.4629 -30.2246 C 27.1973 -30.2246 29.4434 -32.4707 29.4434 -35.2051 C 29.4434 -37.9395 27.1973 -40.1855 24.4629 -40.1855 C 21.6797 -40.1855 19.4824 -37.9395 19.4824 -35.2051 C 19.4824 -32.4707 21.6797 -30.2246 24.4629 -30.2246 Z M 41.748 -31.6895 L 93.8477 -31.6895 C 95.8008 -31.6895 97.3633 -33.252 97.3633 -35.2051 C 97.3633 -37.1582 95.8008 -38.7207 93.8477 -38.7207 L 41.748 -38.7207 C 39.7949 -38.7207 38.2324 -37.1582 38.2324 -35.2051 C 38.2324 -33.252 39.7949 -31.6895 41.748 -31.6895 Z M 34.1797 -6.93359 C 36.9141 -6.93359 39.1602 -9.17969 39.1602 -11.9141 C 39.1602 -14.6484 36.9141 -16.8945 34.1797 -16.8945 C 31.3965 -16.8945 29.1992 -14.6484 29.1992 -11.9141 C 29.1992 -9.17969 31.3965 -6.93359 34.1797 -6.93359 Z M 51.4648 -8.39844 L 103.564 -8.39844 C 105.518 -8.39844 107.08 -9.96094 107.08 -11.9141 C 107.08 -13.8672 105.518 -15.4297 103.564 -15.4297 L 51.4648 -15.4297 C 49.5117 -15.4297 47.9492 -13.8672 47.9492 -11.9141 C 47.9492 -9.96094 49.5117 -8.39844 51.4648 -8.39844 Z"/>
  </g>
  <g id="Light-S" transform="matrix(1 0 0 1 1095.74 696)">
   <path d="M 14.4531 -53.5156 C 17.041 -53.5156 19.1406 -55.6152 19.1406 -58.2031 C 19.1406 -60.791 17.041 -62.8906 14.4531 -62.8906 C 11.8652 -62.8906 9.76562 -60.791 9.76562 -58.2031 C 9.76562 -55.6152 11.8652 -53.5156 14.4531 -53.5156 Z M 31.0059 -55.4688 L 83.4473 -55.4688 C 85.0098 -55.4688 86.1816 -56.6895 86.1816 -58.2031 C 86.1816 -59.7168 85.0098 -60.9375 83.4473 -60.9375 L 31.0059 -60.9375 C 29.4922 -60.9375 28.3203 -59.7168 28.3203 -58.2031 C 28.3203 -56.6895 29.4922 -55.4688 31.0059 -55.4688 Z M 23.877 -30.5176 C 26.4648 -30.5176 28.5645 -32.6172 28.5645 -35.2051 C 28.5645 -37.793 26.4648 -39.8926 23.877 -39.8926 C 21.2891 -39.8926 19.1895 -37.793 19.1895 -35.2051 C 19.1895 -32.6172 21.2891 -30.5176 23.877 -30.5176 Z M 40.4297 -32.4707 L 92.8711 -32.4707 C 94.3848 -32.4707 95.6055 -33.6914 95.6055 -35.2051 C 95.6055 -36.7188 94.3848 -37.9395 92.8711 -37.9395 L 40.4297 -37.9395 C 38.916 -37.9395 37.7441 -36.7188 37.7441 -35.2051 C 37.7441 -33.6914 38.916 -32.4707 40.4297 -32.4707 Z M 33.3008 -7.51953 C 35.8887 -7.51953 37.9883 -9.61914 37.9883 -12.207 C 37.9883 -14.7949 35.8887 -16.8945 33.3008 -16.8945 C 30.7129 -16.8945 28.6133 -14.7949 28.6133 -12.207 C 28.6133 -9.61914 30.7129 -7.51953 33.3008 -7.51953 Z M 49.8535 -9.47266 L 102.295 -9.47266 C 103.809 -9.47266 105.029 -10.6934 105.029 -12.207 C 105.029 -13.7207 103.809 -14.9414 102.295 -14.9414 L 49.8535 -14.9414 C 48.3398 -14.9414 47.168 -13.7207 47.168 -12.207 C 47.168 -10.6934 48.3398 -9.47266 49.8535 -9.47266 Z"/>
  </g>
  <g id="Thin-S" transform="matrix(1 0 0 1 800.392 696)">
   <path d="M 14.0625 -53.5156 C 16.4551 -53.5156 18.3594 -55.4199 18.3594 -57.8125 C 18.3594 -60.2051 16.4551 -62.1094 14.0625 -62.1094 C 11.6699 -62.1094 9.76562 -60.2051 9.76562 -57.8125 C 9.76562 -55.4199 11.6699 -53.5156 14.0625 -53.5156 Z M 29.6875 -56.1523 L 82.5684 -56.1523 C 83.5449 -56.1523 84.2285 -56.8359 84.2285 -57.8125 C 84.2285 -58.7891 83.5449 -59.4727 82.5684 -59.4727 L 29.6875 -59.4727 C 28.7109 -59.4727 28.0273 -58.7891 28.0273 -57.8125 C 28.0273 -56.8359 28.7109 -56.1523 29.6875 -56.1523 Z M 23.0957 -30.9082 C 25.4883 -30.9082 27.3926 -32.8125 27.3926 -35.2051 C 27.3926 -37.5977 25.4883 -39.502 23.0957 -39.502 C 20.7031 -39.502 18.7988 -37.5977 18.7988 -35.2051 C 18.7988 -32.8125 20.7031 -30.9082 23.0957 -30.9082 Z M 38.7207 -33.5449 L 91.6016 -33.5449 C 92.5781 -33.5449 93.2617 -34.2285 93.2617 -35.2051 C 93.2617 -36.1816 92.5781 -36.8652 91.6016 -36.8652 L 38.7207 -36.8652 C 37.7441 -36.8652 37.0605 -36.1816 37.0605 -35.2051 C 37.0605 -34.2285 37.7441 -33.5449 38.7207 -33.5449 Z M 32.1289 -8.30078 C 34.5215 -8.30078 36.4258 -10.2051 36.4258 -12.5977 C 36.4258 -14.9902 34.5215 -16.8945 32.1289 -16.8945 C 29.7363 -16.8945 27.832 -14.9902 27.832 -12.5977 C 27.832 -10.2051 29.7363 -8.30078 32.1289 -8.30078 Z M 47.7539 -10.9375 L 100.635 -10.9375 C 101.611 -10.9375 102.295 -11.6211 102.295 -12.5977 C 102.295 -13.5742 101.611 -14.2578 100.635 -14.2578 L 47.7539 -14.2578 C 46.7773 -14.2578 46.0938 -13.5742 46.0938 -12.5977 C 46.0938 -11.6211 46.7773 -10.9375 47.7539 -10.9375 Z"/>
  </g>
  <g id="Ultralight-S" transform="matrix(1 0 0 1 504.364 696)">
   <path d="M 13.8672 -53.5156 C 16.1133 -53.5156 17.9688 -55.3223 17.9688 -57.6172 C 17.9688 -59.8633 16.1133 -61.7188 13.8672 -61.7188 C 11.5723 -61.7188 9.76562 -59.8633 9.76562 -57.6172 C 9.76562 -55.3223 11.5723 -53.5156 13.8672 -53.5156 Z M 28.9551 -56.4941 L 82.1289 -56.4941 C 82.8125 -56.4941 83.252 -56.9824 83.252 -57.6172 C 83.252 -58.252 82.8125 -58.7402 82.1289 -58.7402 L 28.9551 -58.7402 C 28.3203 -58.7402 27.8809 -58.252 27.8809 -57.6172 C 27.8809 -56.9824 28.3203 -56.4941 28.9551 -56.4941 Z M 22.7051 -31.1035 C 24.9512 -31.1035 26.8066 -32.9102 26.8066 -35.2051 C 26.8066 -37.5 24.9512 -39.3066 22.7051 -39.3066 C 20.4102 -39.3066 18.6035 -37.5 18.6035 -35.2051 C 18.6035 -32.9102 20.4102 -31.1035 22.7051 -31.1035 Z M 37.793 -34.082 L 90.9668 -34.082 C 91.6016 -34.082 92.0898 -34.5703 92.0898 -35.2051 C 92.0898 -35.8398 91.6016 -36.3281 90.9668 -36.3281 L 37.793 -36.3281 C 37.1582 -36.3281 36.7188 -35.8398 36.7188 -35.2051 C 36.7188 -34.5703 37.1582 -34.082 37.793 -34.082 Z M 31.543 -8.69141 C 33.7891 -8.69141 35.6445 -10.5469 35.6445 -12.793 C 35.6445 -15.0879 33.7891 -16.8945 31.543 -16.8945 C 29.248 -16.8945 27.4414 -15.0879 27.4414 -12.793 C 27.4414 -10.5469 29.248 -8.69141 31.543 -8.69141 Z M 46.6309 -11.6699 L 99.8047 -11.6699 C 100.439 -11.6699 100.928 -12.1582 100.928 -12.793 C 100.928 -13.4277 100.439 -13.916 99.8047 -13.916 L 46.6309 -13.916 C 45.9961 -13.916 45.5566 -13.4277 45.5566 -12.793 C 45.5566 -12.1582 45.9961 -11.6699 46.6309 -11.6699 Z"/>
  </g>
 </g>
</svg>
