<?xml version="1.0" encoding="UTF-8"?>
<!--Generator: Apple Native CoreSVG 123-->
<!DOCTYPE svg
PUBLIC "-//W3C//DTD SVG 1.1//EN"
       "http://www.w3.org/Graphics/SVG/1.1/DTD/svg11.dtd">
<svg version="1.1" xmlns="http://www.w3.org/2000/svg" xmlns:xlink="http://www.w3.org/1999/xlink" width="3300" height="2200">
 <!--glyph: "uni100062.medium", point size: 100.000000, font version: "Version 15.0d7e11", template writer version: "5"-->
 <g id="Notes">
  <rect height="2200" id="artboard" style="fill:white;opacity:1" width="3300" x="0" y="0"/>
  <line id="" style="fill:none;stroke:black;opacity:1;stroke-width:0.5;" x1="263" x2="3036" y1="292" y2="292"/>
  <text style="stroke:none;fill:black;font-family:-apple-system,&quot;SF Pro Display&quot;,&quot;SF Pro Text&quot;,Helvetica,sans-serif;font-weight:bold;" transform="matrix(1 0 0 1 263 322)">Weight/Scale Variations</text>
  <text style="stroke:none;fill:black;font-family:-apple-system,&quot;SF Pro Display&quot;,&quot;SF Pro Text&quot;,Helvetica,sans-serif;text-anchor:middle;" transform="matrix(1 0 0 1 559.711 322)">Ultralight</text>
  <text style="stroke:none;fill:black;font-family:-apple-system,&quot;SF Pro Display&quot;,&quot;SF Pro Text&quot;,Helvetica,sans-serif;text-anchor:middle;" transform="matrix(1 0 0 1 856.422 322)">Thin</text>
  <text style="stroke:none;fill:black;font-family:-apple-system,&quot;SF Pro Display&quot;,&quot;SF Pro Text&quot;,Helvetica,sans-serif;text-anchor:middle;" transform="matrix(1 0 0 1 1153.13 322)">Light</text>
  <text style="stroke:none;fill:black;font-family:-apple-system,&quot;SF Pro Display&quot;,&quot;SF Pro Text&quot;,Helvetica,sans-serif;text-anchor:middle;" transform="matrix(1 0 0 1 1449.84 322)">Regular</text>
  <text style="stroke:none;fill:black;font-family:-apple-system,&quot;SF Pro Display&quot;,&quot;SF Pro Text&quot;,Helvetica,sans-serif;text-anchor:middle;" transform="matrix(1 0 0 1 1746.56 322)">Medium</text>
  <text style="stroke:none;fill:black;font-family:-apple-system,&quot;SF Pro Display&quot;,&quot;SF Pro Text&quot;,Helvetica,sans-serif;text-anchor:middle;" transform="matrix(1 0 0 1 2043.27 322)">Semibold</text>
  <text style="stroke:none;fill:black;font-family:-apple-system,&quot;SF Pro Display&quot;,&quot;SF Pro Text&quot;,Helvetica,sans-serif;text-anchor:middle;" transform="matrix(1 0 0 1 2339.98 322)">Bold</text>
  <text style="stroke:none;fill:black;font-family:-apple-system,&quot;SF Pro Display&quot;,&quot;SF Pro Text&quot;,Helvetica,sans-serif;text-anchor:middle;" transform="matrix(1 0 0 1 2636.69 322)">Heavy</text>
  <text style="stroke:none;fill:black;font-family:-apple-system,&quot;SF Pro Display&quot;,&quot;SF Pro Text&quot;,Helvetica,sans-serif;text-anchor:middle;" transform="matrix(1 0 0 1 2933.4 322)">Black</text>
  <line id="" style="fill:none;stroke:black;opacity:1;stroke-width:0.5;" x1="263" x2="3036" y1="1903" y2="1903"/>
  <g id="" transform="matrix(1 0 0 1 263 1933)">
   <path d="M 9.24805 0.830078 C 13.5547 0.830078 17.1387 -2.74414 17.1387 -7.05078 C 17.1387 -11.3574 13.5449 -14.9316 9.23828 -14.9316 C 4.94141 -14.9316 1.36719 -11.3574 1.36719 -7.05078 C 1.36719 -2.74414 4.95117 0.830078 9.24805 0.830078 Z M 9.24805 -0.654297 C 5.70312 -0.654297 2.87109 -3.49609 2.87109 -7.05078 C 2.87109 -10.6055 5.69336 -13.4473 9.23828 -13.4473 C 12.793 -13.4473 15.6348 -10.6055 15.6445 -7.05078 C 15.6543 -3.49609 12.8027 -0.654297 9.24805 -0.654297 Z M 9.22852 -3.42773 C 9.69727 -3.42773 9.9707 -3.74023 9.9707 -4.25781 L 9.9707 -6.31836 L 12.1973 -6.31836 C 12.6953 -6.31836 13.0371 -6.57227 13.0371 -7.04102 C 13.0371 -7.51953 12.7148 -7.7832 12.1973 -7.7832 L 9.9707 -7.7832 L 9.9707 -10.0098 C 9.9707 -10.5273 9.69727 -10.8496 9.22852 -10.8496 C 8.75977 -10.8496 8.50586 -10.5078 8.50586 -10.0098 L 8.50586 -7.7832 L 6.29883 -7.7832 C 5.78125 -7.7832 5.44922 -7.51953 5.44922 -7.04102 C 5.44922 -6.57227 5.80078 -6.31836 6.29883 -6.31836 L 8.50586 -6.31836 L 8.50586 -4.25781 C 8.50586 -3.75977 8.75977 -3.42773 9.22852 -3.42773 Z"/>
  </g>
  <g id="" transform="matrix(1 0 0 1 281.506 1933)">
   <path d="M 11.709 2.91016 C 17.1582 2.91016 21.6699 -1.60156 21.6699 -7.05078 C 21.6699 -12.4902 17.1484 -17.0117 11.6992 -17.0117 C 6.25977 -17.0117 1.74805 -12.4902 1.74805 -7.05078 C 1.74805 -1.60156 6.26953 2.91016 11.709 2.91016 Z M 11.709 1.25 C 7.09961 1.25 3.41797 -2.44141 3.41797 -7.05078 C 3.41797 -11.6504 7.08984 -15.3516 11.6992 -15.3516 C 16.3086 -15.3516 20 -11.6504 20.0098 -7.05078 C 20.0195 -2.44141 16.3184 1.25 11.709 1.25 Z M 11.6895 -2.41211 C 12.207 -2.41211 12.5195 -2.77344 12.5195 -3.33984 L 12.5195 -6.23047 L 15.5762 -6.23047 C 16.123 -6.23047 16.5039 -6.51367 16.5039 -7.03125 C 16.5039 -7.55859 16.1426 -7.86133 15.5762 -7.86133 L 12.5195 -7.86133 L 12.5195 -10.9277 C 12.5195 -11.5039 12.207 -11.8555 11.6895 -11.8555 C 11.1719 -11.8555 10.8789 -11.4844 10.8789 -10.9277 L 10.8789 -7.86133 L 7.83203 -7.86133 C 7.26562 -7.86133 6.89453 -7.55859 6.89453 -7.03125 C 6.89453 -6.51367 7.28516 -6.23047 7.83203 -6.23047 L 10.8789 -6.23047 L 10.8789 -3.33984 C 10.8789 -2.79297 11.1719 -2.41211 11.6895 -2.41211 Z"/>
  </g>
  <g id="" transform="matrix(1 0 0 1 304.924 1933)">
   <path d="M 14.9707 5.67383 C 21.9336 5.67383 27.6953 -0.078125 27.6953 -7.04102 C 27.6953 -14.0039 21.9238 -19.7559 14.9609 -19.7559 C 8.00781 -19.7559 2.25586 -14.0039 2.25586 -7.04102 C 2.25586 -0.078125 8.01758 5.67383 14.9707 5.67383 Z M 14.9707 3.85742 C 8.93555 3.85742 4.08203 -1.00586 4.08203 -7.04102 C 4.08203 -13.0762 8.92578 -17.9395 14.9609 -17.9395 C 21.0059 -17.9395 25.8594 -13.0762 25.8691 -7.04102 C 25.8789 -1.00586 21.0156 3.85742 14.9707 3.85742 Z M 14.9512 -1.06445 C 15.5176 -1.06445 15.8691 -1.45508 15.8691 -2.06055 L 15.8691 -6.13281 L 20.1074 -6.13281 C 20.6934 -6.13281 21.1133 -6.46484 21.1133 -7.02148 C 21.1133 -7.59766 20.7227 -7.93945 20.1074 -7.93945 L 15.8691 -7.93945 L 15.8691 -12.1875 C 15.8691 -12.8027 15.5176 -13.1934 14.9512 -13.1934 C 14.3848 -13.1934 14.0625 -12.7832 14.0625 -12.1875 L 14.0625 -7.93945 L 9.83398 -7.93945 C 9.21875 -7.93945 8.80859 -7.59766 8.80859 -7.02148 C 8.80859 -6.46484 9.23828 -6.13281 9.83398 -6.13281 L 14.0625 -6.13281 L 14.0625 -2.06055 C 14.0625 -1.47461 14.3848 -1.06445 14.9512 -1.06445 Z"/>
  </g>
  <text style="stroke:none;fill:black;font-family:-apple-system,&quot;SF Pro Display&quot;,&quot;SF Pro Text&quot;,Helvetica,sans-serif;font-weight:bold;" transform="matrix(1 0 0 1 263 1953)">Design Variations</text>
  <text style="stroke:none;fill:black;font-family:-apple-system,&quot;SF Pro Display&quot;,&quot;SF Pro Text&quot;,Helvetica,sans-serif;" transform="matrix(1 0 0 1 263 1971)">Symbols are supported in up to nine weights and three scales.</text>
  <text style="stroke:none;fill:black;font-family:-apple-system,&quot;SF Pro Display&quot;,&quot;SF Pro Text&quot;,Helvetica,sans-serif;" transform="matrix(1 0 0 1 263 1989)">For optimal layout with text and other symbols, vertically align</text>
  <text style="stroke:none;fill:black;font-family:-apple-system,&quot;SF Pro Display&quot;,&quot;SF Pro Text&quot;,Helvetica,sans-serif;" transform="matrix(1 0 0 1 263 2007)">symbols with the adjacent text.</text>
  <rect height="14" id="" style="fill:#00AEEF;stroke:none;opacity:0.4;" width="3" x="776" y="1919"/>
  <g id="" transform="matrix(1 0 0 1 779 1933)">
   <path d="M 10.5273 0 L 12.373 0 L 7.17773 -14.0918 L 5.43945 -14.0918 L 0.244141 0 L 2.08984 0 L 3.50586 -4.0332 L 9.11133 -4.0332 Z M 6.2793 -11.9531 L 6.33789 -11.9531 L 8.59375 -5.52734 L 4.02344 -5.52734 Z"/>
  </g>
  <rect height="14" id="" style="fill:#00AEEF;stroke:none;opacity:0.4;" width="3" x="791.617" y="1919"/>
  <text style="stroke:none;fill:black;font-family:-apple-system,&quot;SF Pro Display&quot;,&quot;SF Pro Text&quot;,Helvetica,sans-serif;font-weight:bold;" transform="matrix(1 0 0 1 776 1953)">Margins</text>
  <text style="stroke:none;fill:black;font-family:-apple-system,&quot;SF Pro Display&quot;,&quot;SF Pro Text&quot;,Helvetica,sans-serif;" transform="matrix(1 0 0 1 776 1971)">Leading and trailing margins on the left and right side of each symbol</text>
  <text style="stroke:none;fill:black;font-family:-apple-system,&quot;SF Pro Display&quot;,&quot;SF Pro Text&quot;,Helvetica,sans-serif;" transform="matrix(1 0 0 1 776 1989)">can be adjusted by modifying the width of the blue rectangles.</text>
  <text style="stroke:none;fill:black;font-family:-apple-system,&quot;SF Pro Display&quot;,&quot;SF Pro Text&quot;,Helvetica,sans-serif;" transform="matrix(1 0 0 1 776 2007)">Modifications are automatically applied proportionally to all</text>
  <text style="stroke:none;fill:black;font-family:-apple-system,&quot;SF Pro Display&quot;,&quot;SF Pro Text&quot;,Helvetica,sans-serif;" transform="matrix(1 0 0 1 776 2025)">scales and weights.</text>
  <g id="" transform="matrix(1 0 0 1 1289 1933)">
   <path d="M 2.83203 3.11523 L 4.375 4.6582 C 5.22461 5.48828 6.19141 5.41992 7.06055 4.46289 L 17.2754 -6.66016 C 17.7051 -6.36719 18.0957 -6.37695 18.5645 -6.47461 L 19.6094 -6.68945 L 20.3027 -5.99609 L 20.2539 -5.47852 C 20.1855 -4.95117 20.3516 -4.53125 20.8496 -4.0332 L 21.6602 -3.22266 C 22.168 -2.71484 22.8223 -2.68555 23.3008 -3.16406 L 26.5527 -6.41602 C 27.0312 -6.89453 27.0117 -7.54883 26.5039 -8.05664 L 25.6836 -8.87695 C 25.1855 -9.375 24.7754 -9.55078 24.2383 -9.47266 L 23.7109 -9.41406 L 23.0566 -10.0781 L 23.3398 -11.2207 C 23.4863 -11.7871 23.3398 -12.2559 22.7148 -12.8613 L 20.3027 -15.2539 C 16.7578 -18.7793 12.2266 -18.6719 9.11133 -15.5371 C 8.69141 -15.1074 8.64258 -14.5215 8.91602 -14.0918 C 9.15039 -13.7207 9.62891 -13.4961 10.2734 -13.6621 C 11.7871 -14.043 13.3008 -13.9258 14.7852 -12.9199 L 14.1602 -11.3379 C 13.9258 -10.752 13.9453 -10.2734 14.1797 -9.83398 L 3.01758 0.439453 C 2.08008 1.30859 1.97266 2.25586 2.83203 3.11523 Z M 10.6738 -15.1465 C 13.3398 -17.1387 16.6504 -16.8262 19.0527 -14.4141 L 21.6797 -11.8066 C 21.9141 -11.5723 21.9434 -11.3867 21.8848 -11.0938 L 21.5039 -9.53125 L 23.0762 -7.95898 L 24.043 -8.04688 C 24.3262 -8.07617 24.4141 -8.05664 24.6387 -7.83203 L 25.2637 -7.20703 L 22.5098 -4.46289 L 21.8848 -5.07812 C 21.6602 -5.30273 21.6406 -5.40039 21.6699 -5.68359 L 21.7578 -6.64062 L 20.1953 -8.20312 L 18.5742 -7.89062 C 18.291 -7.83203 18.1445 -7.83203 17.9102 -8.07617 L 15.7324 -10.2539 C 15.5078 -10.4883 15.4785 -10.625 15.6055 -10.9473 L 16.5527 -13.2227 C 14.9512 -14.7559 12.8418 -15.6055 10.8008 -14.9512 C 10.7129 -14.9219 10.6445 -14.9414 10.6152 -14.9805 C 10.5859 -15.0293 10.5859 -15.0781 10.6738 -15.1465 Z M 4.10156 2.41211 C 3.61328 1.91406 3.78906 1.61133 4.12109 1.30859 L 15.0781 -8.80859 L 16.3086 -7.57812 L 6.15234 3.34961 C 5.84961 3.68164 5.46875 3.7793 5.06836 3.37891 Z"/>
  </g>
  <text style="stroke:none;fill:black;font-family:-apple-system,&quot;SF Pro Display&quot;,&quot;SF Pro Text&quot;,Helvetica,sans-serif;font-weight:bold;" transform="matrix(1 0 0 1 1289 1953)">Exporting</text>
  <text style="stroke:none;fill:black;font-family:-apple-system,&quot;SF Pro Display&quot;,&quot;SF Pro Text&quot;,Helvetica,sans-serif;" transform="matrix(1 0 0 1 1289 1971)">Symbols should be outlined when exporting to ensure the</text>
  <text style="stroke:none;fill:black;font-family:-apple-system,&quot;SF Pro Display&quot;,&quot;SF Pro Text&quot;,Helvetica,sans-serif;" transform="matrix(1 0 0 1 1289 1989)">design is preserved when submitting to Xcode.</text>
  <text id="template-version" style="stroke:none;fill:black;font-family:-apple-system,&quot;SF Pro Display&quot;,&quot;SF Pro Text&quot;,Helvetica,sans-serif;text-anchor:end;" transform="matrix(1 0 0 1 3036 1933)">Template v.1.0</text>
  <text style="stroke:none;fill:black;font-family:-apple-system,&quot;SF Pro Display&quot;,&quot;SF Pro Text&quot;,Helvetica,sans-serif;text-anchor:end;" transform="matrix(1 0 0 1 3036 1951)">Generated from checkmark.circle</text>
  <text style="stroke:none;fill:black;font-family:-apple-system,&quot;SF Pro Display&quot;,&quot;SF Pro Text&quot;,Helvetica,sans-serif;text-anchor:end;" transform="matrix(1 0 0 1 3036 1969)">Typeset at 100 points</text>
  <text style="stroke:none;fill:black;font-family:-apple-system,&quot;SF Pro Display&quot;,&quot;SF Pro Text&quot;,Helvetica,sans-serif;" transform="matrix(1 0 0 1 263 726)">Small</text>
  <text style="stroke:none;fill:black;font-family:-apple-system,&quot;SF Pro Display&quot;,&quot;SF Pro Text&quot;,Helvetica,sans-serif;" transform="matrix(1 0 0 1 263 1156)">Medium</text>
  <text style="stroke:none;fill:black;font-family:-apple-system,&quot;SF Pro Display&quot;,&quot;SF Pro Text&quot;,Helvetica,sans-serif;" transform="matrix(1 0 0 1 263 1586)">Large</text>
 </g>
 <g id="Guides">
  <g id="H-reference" style="fill:#27AAE1;stroke:none;" transform="matrix(1 0 0 1 339 696)">
   <path d="M 54.9316 0 L 57.666 0 L 30.5664 -70.459 L 28.0762 -70.459 L 0.976562 0 L 3.66211 0 L 12.9395 -24.4629 L 45.7031 -24.4629 Z M 29.1992 -67.0898 L 29.4434 -67.0898 L 44.8242 -26.709 L 13.8184 -26.709 Z"/>
  </g>
  <line id="Baseline-S" style="fill:none;stroke:#27AAE1;opacity:1;stroke-width:0.577;" x1="263" x2="3036" y1="696" y2="696"/>
  <line id="Capline-S" style="fill:none;stroke:#27AAE1;opacity:1;stroke-width:0.577;" x1="263" x2="3036" y1="625.541" y2="625.541"/>
  <g id="H-reference" style="fill:#27AAE1;stroke:none;" transform="matrix(1 0 0 1 339 1126)">
   <path d="M 54.9316 0 L 57.666 0 L 30.5664 -70.459 L 28.0762 -70.459 L 0.976562 0 L 3.66211 0 L 12.9395 -24.4629 L 45.7031 -24.4629 Z M 29.1992 -67.0898 L 29.4434 -67.0898 L 44.8242 -26.709 L 13.8184 -26.709 Z"/>
  </g>
  <line id="Baseline-M" style="fill:none;stroke:#27AAE1;opacity:1;stroke-width:0.577;" x1="263" x2="3036" y1="1126" y2="1126"/>
  <line id="Capline-M" style="fill:none;stroke:#27AAE1;opacity:1;stroke-width:0.577;" x1="263" x2="3036" y1="1055.54" y2="1055.54"/>
  <g id="H-reference" style="fill:#27AAE1;stroke:none;" transform="matrix(1 0 0 1 339 1556)">
   <path d="M 54.9316 0 L 57.666 0 L 30.5664 -70.459 L 28.0762 -70.459 L 0.976562 0 L 3.66211 0 L 12.9395 -24.4629 L 45.7031 -24.4629 Z M 29.1992 -67.0898 L 29.4434 -67.0898 L 44.8242 -26.709 L 13.8184 -26.709 Z"/>
  </g>
  <line id="Baseline-L" style="fill:none;stroke:#27AAE1;opacity:1;stroke-width:0.577;" x1="263" x2="3036" y1="1556" y2="1556"/>
  <line id="Capline-L" style="fill:none;stroke:#27AAE1;opacity:1;stroke-width:0.577;" x1="263" x2="3036" y1="1485.54" y2="1485.54"/>
  <rect height="119.336" id="left-margin" style="fill:#00AEEF;stroke:none;opacity:0.4;" width="8.74023" x="1391.3" y="1030.79"/>
  <rect height="119.336" id="right-margin" style="fill:#00AEEF;stroke:none;opacity:0.4;" width="8.74023" x="1499.65" y="1030.79"/>
 </g>
 <g id="Symbols">
  <g id="Black-L" transform="matrix(1 0 0 1 2854.05 1556)">
   <path d="M 79.3457 32.8613 C 116.748 32.8613 147.412 2.19727 147.412 -35.2051 C 147.412 -72.6074 116.748 -103.271 79.2969 -103.271 C 41.8945 -103.271 11.2793 -72.6074 11.2793 -35.2051 C 11.2793 2.19727 41.9434 32.8613 79.3457 32.8613 Z M 79.3457 12.4023 C 52.9785 12.4023 31.7383 -8.83789 31.7383 -35.2051 C 31.7383 -61.5723 52.9297 -82.8125 79.2969 -82.8125 C 105.664 -82.8125 126.953 -61.5723 126.953 -35.2051 C 127.002 -8.83789 105.713 12.4023 79.3457 12.4023 Z M 71.4844 -2.39258 C 74.4629 -2.39258 77.1484 -3.95508 78.8574 -6.54297 L 108.35 -50.9277 C 109.473 -52.6855 110.156 -54.4922 110.156 -56.1035 C 110.156 -60.4492 106.348 -63.5254 102.148 -63.5254 C 99.3652 -63.5254 97.168 -62.0605 95.2637 -59.082 L 71.3867 -21.2891 L 58.9844 -35.9375 C 57.2754 -37.8906 55.4199 -38.9648 52.9785 -38.9648 C 48.6816 -38.9648 45.166 -35.5469 45.166 -31.25 C 45.166 -29.248 45.8008 -27.5391 47.4121 -25.6836 L 63.8672 -6.34766 C 66.0156 -3.85742 68.4082 -2.39258 71.4844 -2.39258 Z"/>
  </g>
  <g id="Heavy-L" transform="matrix(1 0 0 1 2558.39 1556)">
   <path d="M 78.2715 31.7871 C 115.088 31.7871 145.312 1.61133 145.312 -35.2051 C 145.312 -72.0215 115.039 -102.197 78.2715 -102.197 C 41.4551 -102.197 11.2793 -72.0215 11.2793 -35.2051 C 11.2793 1.61133 41.5039 31.7871 78.2715 31.7871 Z M 78.2715 14.0137 C 51.0254 14.0137 29.0527 -7.95898 29.0527 -35.2051 C 29.0527 -62.5 50.9766 -84.4727 78.2715 -84.4727 C 105.518 -84.4727 127.49 -62.5 127.539 -35.2051 C 127.539 -7.95898 105.566 14.0137 78.2715 14.0137 Z M 70.3613 -2.73438 C 73.0469 -2.73438 75.4883 -4.10156 77.0508 -6.44531 L 107.129 -52.2949 C 108.203 -53.8574 108.838 -55.5176 108.838 -57.0312 C 108.838 -60.9375 105.42 -63.6719 101.66 -63.6719 C 99.1699 -63.6719 97.168 -62.3535 95.5078 -59.7168 L 70.2637 -19.6777 L 57.0312 -35.5469 C 55.4688 -37.4023 53.7109 -38.3789 51.5137 -38.3789 C 47.7051 -38.3789 44.5312 -35.3027 44.5312 -31.4453 C 44.5312 -29.5898 45.1172 -28.0762 46.582 -26.3672 L 63.4766 -6.34766 C 65.4785 -4.00391 67.627 -2.73438 70.3613 -2.73438 Z"/>
  </g>
  <g id="Bold-L" transform="matrix(1 0 0 1 2262.88 1556)">
   <path d="M 77.0996 30.6152 C 113.232 30.6152 142.92 0.878906 142.92 -35.2051 C 142.92 -71.3379 113.184 -101.025 77.0508 -101.025 C 40.9668 -101.025 11.2793 -71.3379 11.2793 -35.2051 C 11.2793 0.878906 41.0156 30.6152 77.0996 30.6152 Z M 77.0996 15.8691 C 48.8281 15.8691 26.0742 -6.93359 26.0742 -35.2051 C 26.0742 -63.4766 48.7793 -86.2793 77.0508 -86.2793 C 105.371 -86.2793 128.125 -63.4766 128.174 -35.2051 C 128.174 -6.93359 105.371 15.8691 77.0996 15.8691 Z M 69.1406 -3.07617 C 71.5332 -3.07617 73.6328 -4.24805 75.0488 -6.39648 L 105.811 -53.7598 C 106.738 -55.1758 107.373 -56.6895 107.373 -58.1055 C 107.373 -61.4746 104.346 -63.8184 101.123 -63.8184 C 99.0234 -63.8184 97.2168 -62.6465 95.8008 -60.3516 L 68.9941 -17.8711 L 54.8828 -35.1074 C 53.418 -36.8652 51.8555 -37.6953 49.9023 -37.6953 C 46.582 -37.6953 43.8477 -35.0586 43.8477 -31.6406 C 43.8477 -30.0293 44.3848 -28.6133 45.6055 -27.1484 L 63.0371 -6.29883 C 64.8438 -4.19922 66.6992 -3.07617 69.1406 -3.07617 Z"/>
  </g>
  <g id="Semibold-L" transform="matrix(1 0 0 1 1966.97 1556)">
   <path d="M 76.2695 29.7852 C 111.914 29.7852 141.309 0.439453 141.309 -35.2051 C 141.309 -70.8496 111.865 -100.244 76.2695 -100.244 C 40.625 -100.244 11.2793 -70.8496 11.2793 -35.2051 C 11.2793 0.439453 40.6738 29.7852 76.2695 29.7852 Z M 76.2695 17.0898 C 47.3145 17.0898 24.0234 -6.25 24.0234 -35.2051 C 24.0234 -64.209 47.2656 -87.5 76.2695 -87.5 C 105.225 -87.5 128.564 -64.209 128.613 -35.2051 C 128.662 -6.25 105.273 17.0898 76.2695 17.0898 Z M 68.3105 -3.32031 C 70.459 -3.32031 72.3145 -4.39453 73.6328 -6.34766 L 104.932 -54.7852 C 105.762 -56.0547 106.348 -57.4707 106.348 -58.7891 C 106.348 -61.8652 103.662 -63.916 100.781 -63.916 C 98.9258 -63.916 97.2656 -62.8906 95.9961 -60.8398 L 68.1152 -16.6504 L 53.3691 -34.8145 C 52.002 -36.5234 50.5371 -37.2559 48.7305 -37.2559 C 45.8008 -37.2559 43.3594 -34.8633 43.3594 -31.7871 C 43.3594 -30.3223 43.8965 -29.0039 44.9707 -27.6855 L 62.7441 -6.29883 C 64.4043 -4.29688 66.1133 -3.32031 68.3105 -3.32031 Z"/>
  </g>
  <g id="Medium-L" transform="matrix(1 0 0 1 1670.87 1556)">
   <path d="M 75.6836 29.1992 C 110.938 29.1992 140.088 0.0488281 140.088 -35.2051 C 140.088 -70.459 110.889 -99.6094 75.6348 -99.6094 C 40.3809 -99.6094 11.2793 -70.459 11.2793 -35.2051 C 11.2793 0.0488281 40.3809 29.1992 75.6836 29.1992 Z M 75.6836 18.0664 C 46.1426 18.0664 22.4609 -5.71289 22.4609 -35.2051 C 22.4609 -64.6973 46.1426 -88.4766 75.6348 -88.4766 C 105.127 -88.4766 128.906 -64.6973 128.906 -35.2051 C 128.955 -5.71289 105.176 18.0664 75.6836 18.0664 Z M 67.6758 -3.51562 C 69.6289 -3.51562 71.3379 -4.44336 72.6074 -6.34766 L 104.199 -55.5664 C 104.98 -56.7383 105.615 -58.0566 105.615 -59.3262 C 105.615 -62.1582 103.125 -64.0137 100.488 -64.0137 C 98.8281 -64.0137 97.2656 -63.0371 96.1426 -61.1816 L 67.4316 -15.6738 L 52.2461 -34.5703 C 50.9766 -36.2305 49.5605 -36.9141 47.9004 -36.9141 C 45.2148 -36.9141 42.9688 -34.7168 42.9688 -31.9336 C 42.9688 -30.5664 43.5059 -29.2969 44.4336 -28.0762 L 62.5 -6.29883 C 64.1113 -4.39453 65.625 -3.51562 67.6758 -3.51562 Z"/>
  </g>
  <g id="Regular-L" transform="matrix(1 0 0 1 1374.97 1556)">
   <path d="M 74.8535 28.3691 C 109.668 28.3691 138.477 -0.390625 138.477 -35.2051 C 138.477 -70.0195 109.619 -98.7793 74.8047 -98.7793 C 40.0391 -98.7793 11.2793 -70.0195 11.2793 -35.2051 C 11.2793 -0.390625 40.0879 28.3691 74.8535 28.3691 Z M 74.8535 19.2871 C 44.6777 19.2871 20.4102 -5.0293 20.4102 -35.2051 C 20.4102 -65.3809 44.6289 -89.6973 74.8047 -89.6973 C 105.029 -89.6973 129.297 -65.3809 129.346 -35.2051 C 129.395 -5.0293 105.078 19.2871 74.8535 19.2871 Z M 66.7969 -3.75977 C 68.6035 -3.75977 70.0684 -4.58984 71.1914 -6.29883 L 103.32 -56.5918 C 104.004 -57.6172 104.59 -58.8379 104.59 -60.0586 C 104.59 -62.5488 102.393 -64.1113 100.146 -64.1113 C 98.6816 -64.1113 97.3145 -63.2812 96.3379 -61.6211 L 66.6016 -14.4531 L 50.7812 -34.2285 C 49.5605 -35.8398 48.291 -36.4258 46.7773 -36.4258 C 44.4336 -36.4258 42.4805 -34.5703 42.4805 -32.0801 C 42.4805 -30.8594 42.9688 -29.6387 43.7988 -28.6133 L 62.207 -6.25 C 63.6719 -4.49219 65.0391 -3.75977 66.7969 -3.75977 Z"/>
  </g>
  <g id="Light-L" transform="matrix(1 0 0 1 1079.18 1556)">
   <path d="M 73.9258 27.4902 C 108.301 27.4902 136.621 -0.830078 136.621 -35.1562 C 136.621 -69.5312 108.252 -97.8516 73.9258 -97.8516 C 39.5508 -97.8516 11.2793 -69.5312 11.2793 -35.1562 C 11.2793 -0.830078 39.5996 27.4902 73.9258 27.4902 Z M 73.9258 20.6055 C 43.1152 20.6055 18.2129 -4.3457 18.2129 -35.1562 C 18.2129 -66.0156 43.0664 -90.918 73.9258 -90.918 C 104.736 -90.918 129.688 -66.0156 129.736 -35.1562 C 129.736 -4.3457 104.785 20.6055 73.9258 20.6055 Z M 65.7715 -3.75977 C 67.0898 -3.75977 68.2617 -4.3457 69.1406 -5.71289 L 102.588 -57.7637 C 103.125 -58.5938 103.564 -59.5215 103.564 -60.4492 C 103.564 -62.4512 101.807 -63.6719 100.098 -63.6719 C 98.9258 -63.6719 97.8516 -62.9883 97.0703 -61.7188 L 65.5762 -12.3047 L 48.1445 -33.3008 C 47.2168 -34.5215 46.2402 -34.9609 45.0195 -34.9609 C 43.2617 -34.9609 41.6504 -33.5449 41.6504 -31.543 C 41.6504 -30.5664 42.041 -29.6387 42.6758 -28.8086 L 62.207 -5.66406 C 63.3301 -4.29688 64.4043 -3.75977 65.7715 -3.75977 Z"/>
  </g>
  <g id="Thin-L" transform="matrix(1 0 0 1 783.693 1556)">
   <path d="M 72.7051 26.3184 C 106.494 26.3184 134.18 -1.36719 134.18 -35.1074 C 134.18 -68.8965 106.494 -96.582 72.7051 -96.582 C 38.9648 -96.582 11.2793 -68.8965 11.2793 -35.1074 C 11.2793 -1.36719 38.9648 26.3184 72.7051 26.3184 Z M 72.7051 22.3145 C 41.0156 22.3145 15.2832 -3.41797 15.2832 -35.1074 C 15.2832 -66.8457 41.0156 -92.5781 72.7051 -92.5781 C 104.395 -92.5781 130.176 -66.8457 130.176 -35.1074 C 130.176 -3.41797 104.443 22.3145 72.7051 22.3145 Z M 64.3066 -3.75977 C 65.1367 -3.75977 65.8691 -4.05273 66.4551 -4.93164 L 101.66 -59.375 C 101.953 -59.8633 102.197 -60.4492 102.197 -60.9375 C 102.197 -62.2559 101.074 -63.0859 100 -63.0859 C 99.2676 -63.0859 98.5352 -62.6465 98.0469 -61.8652 L 64.209 -9.47266 L 44.6777 -32.0801 C 44.0918 -32.7637 43.5059 -33.0566 42.6758 -33.0566 C 41.6992 -33.0566 40.5273 -32.2266 40.5273 -30.8594 C 40.5273 -30.2246 40.8203 -29.5898 41.2598 -29.0039 L 62.207 -4.83398 C 62.9395 -4.00391 63.5254 -3.75977 64.3066 -3.75977 Z"/>
  </g>
  <g id="Ultralight-L" transform="matrix(1 0 0 1 487.616 1556)">
   <path d="M 72.1191 25.7324 C 105.566 25.7324 132.91 -1.61133 132.91 -35.1074 C 132.91 -68.5547 105.566 -95.8984 72.1191 -95.8984 C 38.623 -95.8984 11.2793 -68.5547 11.2793 -35.1074 C 11.2793 -1.61133 38.623 25.7324 72.1191 25.7324 Z M 72.1191 23.2422 C 39.9414 23.2422 13.7695 -2.97852 13.7695 -35.1074 C 13.7695 -67.2363 39.9414 -93.4082 72.1191 -93.4082 C 104.248 -93.4082 130.42 -67.2363 130.42 -35.1074 C 130.42 -2.97852 104.248 23.2422 72.1191 23.2422 Z M 63.623 -3.75977 C 64.1113 -3.75977 64.6484 -3.90625 65.0391 -4.54102 L 101.221 -60.2051 C 101.367 -60.498 101.514 -60.8887 101.514 -61.2305 C 101.514 -62.1582 100.684 -62.793 99.9512 -62.793 C 99.4141 -62.793 98.877 -62.4512 98.5352 -61.9141 L 63.5254 -8.00781 L 42.9199 -31.4453 C 42.5293 -31.8359 42.1387 -32.0801 41.5039 -32.0801 C 40.8691 -32.0801 39.9414 -31.543 39.9414 -30.5176 C 39.9414 -30.0293 40.1855 -29.541 40.5273 -29.1504 L 62.207 -4.44336 C 62.7441 -3.85742 63.0859 -3.75977 63.623 -3.75977 Z"/>
  </g>
  <g id="Black-M" transform="matrix(1 0 0 1 2870.97 1126)">
   <path d="M 62.4023 18.457 C 91.9922 18.457 116.113 -5.61523 116.113 -35.2051 C 116.113 -64.7949 91.9922 -88.8672 62.4023 -88.8672 C 32.8125 -88.8672 8.74023 -64.7949 8.74023 -35.2051 C 8.74023 -5.61523 32.8125 18.457 62.4023 18.457 Z M 62.4023 0.195312 C 42.8711 0.195312 27.002 -15.625 27.002 -35.2051 C 27.002 -54.7363 42.8711 -70.6055 62.4023 -70.6055 C 81.9824 -70.6055 97.8027 -54.7363 97.8027 -35.2051 C 97.8027 -15.625 81.9824 0.195312 62.4023 0.195312 Z M 56.2988 -9.375 C 58.7402 -9.375 61.084 -10.6934 62.4512 -12.7441 L 85.2051 -46.2402 C 86.1328 -47.7051 86.5723 -49.1211 86.5723 -50.3906 C 86.5723 -54.0039 83.3496 -56.7383 79.7852 -56.7383 C 77.3438 -56.7383 75.4883 -55.4688 73.877 -52.9785 L 56.2988 -25.4395 L 46.9238 -35.8398 C 45.6055 -37.2559 44.0918 -38.1348 42.0898 -38.1348 C 38.4766 -38.1348 35.4004 -35.2539 35.4004 -31.5918 C 35.4004 -29.9316 35.8887 -28.6133 37.3535 -26.9531 L 50.0488 -12.5488 C 51.709 -10.5957 53.7598 -9.375 56.2988 -9.375 Z"/>
  </g>
  <g id="Heavy-M" transform="matrix(1 0 0 1 2575.19 1126)">
   <path d="M 61.5234 17.5781 C 90.5273 17.5781 114.258 -6.15234 114.258 -35.2051 C 114.258 -64.2578 90.5273 -87.9883 61.4746 -87.9883 C 32.4707 -87.9883 8.74023 -64.2578 8.74023 -35.2051 C 8.74023 -6.15234 32.4707 17.5781 61.5234 17.5781 Z M 61.5234 1.66016 C 41.1133 1.66016 24.6582 -14.8438 24.6582 -35.2051 C 24.6582 -55.5664 41.1133 -72.0703 61.4746 -72.0703 C 81.8848 -72.0703 98.3398 -55.5664 98.3398 -35.2051 C 98.3398 -14.8438 81.8848 1.66016 61.5234 1.66016 Z M 55.3711 -9.7168 C 57.6172 -9.7168 59.7168 -10.8887 60.9863 -12.8418 L 84.082 -47.4121 C 84.9609 -48.7305 85.4004 -50.0977 85.4004 -51.2695 C 85.4004 -54.5898 82.4707 -56.9824 79.248 -56.9824 C 77.0996 -56.9824 75.4395 -55.8594 73.9746 -53.6133 L 55.3223 -24.2188 L 45.5078 -35.6445 C 44.2383 -37.0605 42.8223 -37.8418 40.9668 -37.8418 C 37.6953 -37.8418 34.9121 -35.2539 34.9121 -31.9336 C 34.9121 -30.4199 35.4004 -29.1504 36.6699 -27.6855 L 49.6094 -12.6953 C 51.2207 -10.8398 53.0273 -9.7168 55.3711 -9.7168 Z"/>
  </g>
  <g id="Bold-M" transform="matrix(1 0 0 1 2279.5 1126)">
   <path d="M 60.498 16.5039 C 88.8672 16.5039 112.207 -6.78711 112.207 -35.2051 C 112.207 -63.623 88.8672 -86.9629 60.4492 -86.9629 C 32.0312 -86.9629 8.74023 -63.623 8.74023 -35.2051 C 8.74023 -6.78711 32.0801 16.5039 60.498 16.5039 Z M 60.498 3.22266 C 39.1602 3.22266 22.0703 -13.916 22.0703 -35.2051 C 22.0703 -56.4941 39.1602 -73.6816 60.4492 -73.6816 C 81.7383 -73.6816 98.9258 -56.4941 98.9258 -35.2051 C 98.9746 -13.916 81.7871 3.22266 60.498 3.22266 Z M 54.3457 -10.1074 C 56.3965 -10.1074 58.2031 -11.1328 59.4238 -12.9395 L 82.8125 -48.6816 C 83.5938 -49.8535 84.082 -51.123 84.082 -52.2949 C 84.082 -55.2734 81.543 -57.2754 78.7109 -57.2754 C 76.8555 -57.2754 75.293 -56.2988 74.0723 -54.2969 L 54.248 -22.9004 L 43.8965 -35.4004 C 42.6758 -36.8652 41.3574 -37.5488 39.6973 -37.5488 C 36.7676 -37.5488 34.4238 -35.2539 34.4238 -32.3242 C 34.4238 -30.957 34.8633 -29.7852 35.9375 -28.5156 L 49.1211 -12.8418 C 50.6348 -11.084 52.2461 -10.1074 54.3457 -10.1074 Z"/>
  </g>
  <g id="Semibold-M" transform="matrix(1 0 0 1 1983.5 1126)">
   <path d="M 59.7656 15.8203 C 87.7441 15.8203 110.791 -7.22656 110.791 -35.2051 C 110.791 -63.1836 87.6953 -86.2793 59.7656 -86.2793 C 31.7871 -86.2793 8.74023 -63.1836 8.74023 -35.2051 C 8.74023 -7.22656 31.7871 15.8203 59.7656 15.8203 Z M 59.7656 4.3457 C 37.8418 4.3457 20.2637 -13.2812 20.2637 -35.2051 C 20.2637 -57.1289 37.793 -74.8047 59.7656 -74.8047 C 81.6895 -74.8047 99.3164 -57.1289 99.3652 -35.2051 C 99.3652 -13.2812 81.6895 4.3457 59.7656 4.3457 Z M 53.6133 -10.3516 C 55.5176 -10.3516 57.1777 -11.3281 58.3008 -13.0371 L 81.9824 -49.5605 C 82.666 -50.6836 83.2031 -51.8555 83.2031 -53.0273 C 83.2031 -55.7129 80.8594 -57.5195 78.3203 -57.5195 C 76.6602 -57.5195 75.2441 -56.5918 74.1211 -54.7852 L 53.5156 -21.9727 L 42.7734 -35.2539 C 41.6016 -36.7188 40.332 -37.3535 38.7695 -37.3535 C 36.1816 -37.3535 34.0332 -35.2539 34.0332 -32.6172 C 34.0332 -31.3477 34.5215 -30.1758 35.4492 -29.0527 L 48.7793 -12.9395 C 50.2441 -11.2305 51.709 -10.3516 53.6133 -10.3516 Z"/>
  </g>
  <g id="Medium-M" transform="matrix(1 0 0 1 1687.3 1126)">
   <path d="M 59.2285 15.2832 C 86.9141 15.2832 109.766 -7.56836 109.766 -35.2051 C 109.766 -62.8906 86.8652 -85.7422 59.1797 -85.7422 C 31.543 -85.7422 8.74023 -62.8906 8.74023 -35.2051 C 8.74023 -7.56836 31.5918 15.2832 59.2285 15.2832 Z M 59.2285 5.17578 C 36.8164 5.17578 18.8965 -12.8418 18.8965 -35.2051 C 18.8965 -57.6172 36.8164 -75.6348 59.1797 -75.6348 C 81.5918 -75.6348 99.6094 -57.6172 99.6582 -35.2051 C 99.707 -12.8418 81.6406 5.17578 59.2285 5.17578 Z M 53.0762 -10.5469 C 54.8828 -10.5469 56.3965 -11.4258 57.4707 -13.0859 L 81.2988 -50.2441 C 81.9824 -51.2695 82.5195 -52.4414 82.5195 -53.5645 C 82.5195 -56.0547 80.3223 -57.666 78.0273 -57.666 C 76.5137 -57.666 75.1953 -56.8359 74.1699 -55.1758 L 52.9297 -21.2891 L 41.9434 -35.1562 C 40.8203 -36.6211 39.5996 -37.207 38.1348 -37.207 C 35.6934 -37.207 33.7891 -35.2539 33.7891 -32.8125 C 33.7891 -31.6406 34.2285 -30.5176 35.0586 -29.4922 L 48.5352 -13.0371 C 49.9023 -11.377 51.3184 -10.5469 53.0762 -10.5469 Z"/>
  </g>
  <g id="Regular-M" transform="matrix(1 0 0 1 1391.3 1126)">
   <path d="M 58.5449 14.5508 C 85.791 14.5508 108.35 -8.00781 108.35 -35.2539 C 108.35 -62.4512 85.7422 -85.0586 58.4961 -85.0586 C 31.2988 -85.0586 8.74023 -62.4512 8.74023 -35.2539 C 8.74023 -8.00781 31.3477 14.5508 58.5449 14.5508 Z M 58.5449 6.25 C 35.498 6.25 17.0898 -12.207 17.0898 -35.2539 C 17.0898 -58.252 35.4492 -76.7578 58.4961 -76.7578 C 81.543 -76.7578 100 -58.252 100.049 -35.2539 C 100.098 -12.207 81.5918 6.25 58.5449 6.25 Z M 52.3926 -10.8398 C 54.0039 -10.8398 55.3223 -11.6211 56.3477 -13.1348 L 80.4688 -51.0742 C 81.1035 -52.0508 81.6406 -53.1738 81.6406 -54.248 C 81.6406 -56.4941 79.6875 -57.8613 77.6367 -57.8613 C 76.3672 -57.8613 75.0977 -57.1289 74.2188 -55.6641 L 52.1973 -20.3613 L 40.8691 -35.0098 C 39.7461 -36.4746 38.5742 -37.0117 37.2559 -37.0117 C 35.1074 -37.0117 33.3984 -35.2539 33.3984 -33.0566 C 33.3984 -31.9824 33.8379 -30.957 34.5703 -30.0293 L 48.1934 -13.1348 C 49.5117 -11.5234 50.7812 -10.8398 52.3926 -10.8398 Z"/>
  </g>
  <g id="Light-M" transform="matrix(1 0 0 1 1095.42 1126)">
   <path d="M 57.7148 13.7695 C 84.5215 13.7695 106.689 -8.39844 106.689 -35.2051 C 106.689 -62.0117 84.5215 -84.1797 57.666 -84.1797 C 30.8594 -84.1797 8.74023 -62.0117 8.74023 -35.2051 C 8.74023 -8.39844 30.9082 13.7695 57.7148 13.7695 Z M 57.7148 7.4707 C 34.082 7.4707 15.0879 -11.5723 15.0879 -35.2051 C 15.0879 -58.8379 34.082 -77.832 57.666 -77.832 C 81.2988 -77.832 100.342 -58.8379 100.391 -35.2051 C 100.391 -11.5723 81.3477 7.4707 57.7148 7.4707 Z M 51.416 -10.8398 C 52.6855 -10.8398 53.7109 -11.4258 54.4922 -12.5977 L 79.834 -52.1973 C 80.3223 -52.9297 80.7129 -53.7598 80.7129 -54.5898 C 80.7129 -56.3477 79.1504 -57.4707 77.5879 -57.4707 C 76.5625 -57.4707 75.5859 -56.8848 74.9023 -55.7129 L 51.2695 -18.4082 L 38.4766 -34.1797 C 37.6465 -35.2539 36.7676 -35.6934 35.6934 -35.6934 C 34.0332 -35.6934 32.666 -34.375 32.666 -32.6172 C 32.666 -31.7383 33.0078 -30.9082 33.5938 -30.1758 L 48.1934 -12.5977 C 49.2188 -11.3281 50.1953 -10.8398 51.416 -10.8398 Z"/>
  </g>
  <g id="Thin-M" transform="matrix(1 0 0 1 799.806 1126)">
   <path d="M 56.6406 12.7441 C 82.9102 12.7441 104.492 -8.83789 104.492 -35.1562 C 104.492 -61.4746 82.9102 -83.0566 56.5918 -83.0566 C 30.3223 -83.0566 8.74023 -61.4746 8.74023 -35.1562 C 8.74023 -8.83789 30.3223 12.7441 56.6406 12.7441 Z M 56.6406 8.98438 C 32.2266 8.98438 12.4512 -10.791 12.4512 -35.1562 C 12.4512 -59.5215 32.2266 -79.2969 56.5918 -79.2969 C 81.0059 -79.2969 100.781 -59.5215 100.781 -35.1562 C 100.781 -10.791 81.0059 8.98438 56.6406 8.98438 Z M 50.1465 -10.8398 C 50.8789 -10.8398 51.5625 -11.1328 52.0996 -11.9141 L 79.0039 -53.6133 C 79.2969 -54.0527 79.4922 -54.5898 79.4922 -55.0293 C 79.4922 -56.2012 78.4668 -56.9336 77.5391 -56.9336 C 76.8555 -56.9336 76.2207 -56.543 75.7812 -55.8594 L 50.0488 -15.8691 L 35.4004 -33.0566 C 34.8633 -33.6914 34.3262 -33.9355 33.5938 -33.9355 C 32.666 -33.9355 31.6406 -33.2031 31.6406 -31.9824 C 31.6406 -31.4453 31.8848 -30.8594 32.2754 -30.3711 L 48.1934 -11.8652 C 48.877 -11.084 49.4141 -10.8398 50.1465 -10.8398 Z"/>
  </g>
  <g id="Ultralight-M" transform="matrix(1 0 0 1 503.656 1126)">
   <path d="M 56.0547 12.207 C 82.0801 12.207 103.369 -9.08203 103.369 -35.1562 C 103.369 -61.1816 82.0801 -82.4707 56.0547 -82.4707 C 30.0293 -82.4707 8.74023 -61.1816 8.74023 -35.1562 C 8.74023 -9.08203 30.0293 12.207 56.0547 12.207 Z M 56.0547 9.81445 C 31.2988 9.81445 11.1328 -10.3516 11.1328 -35.1562 C 11.1328 -59.9121 31.2988 -80.0781 56.0547 -80.0781 C 80.8594 -80.0781 100.977 -59.9121 100.977 -35.1562 C 100.977 -10.3516 80.8594 9.81445 56.0547 9.81445 Z M 49.5117 -10.8398 C 50 -10.8398 50.4883 -10.9863 50.8301 -11.5723 L 78.5645 -54.3457 C 78.7598 -54.6387 78.8574 -54.9805 78.8574 -55.2734 C 78.8574 -56.1523 78.125 -56.6895 77.4902 -56.6895 C 77.002 -56.6895 76.5137 -56.3965 76.2207 -55.9082 L 49.4629 -14.5996 L 33.7891 -32.4707 C 33.4473 -32.9102 33.0566 -33.0566 32.5195 -33.0566 C 31.9336 -33.0566 31.1523 -32.6172 31.1523 -31.6895 C 31.1523 -31.25 31.2988 -30.8105 31.6406 -30.4688 L 48.1934 -11.4746 C 48.6816 -10.9375 49.0234 -10.8398 49.5117 -10.8398 Z"/>
  </g>
  <g id="Black-S" transform="matrix(1 0 0 1 2884.57 696)">
   <path d="M 48.8281 6.78711 C 71.9727 6.78711 90.8203 -12.0605 90.8203 -35.2051 C 90.8203 -58.3496 71.9727 -77.1973 48.8281 -77.1973 C 25.6836 -77.1973 6.83594 -58.3496 6.83594 -35.2051 C 6.83594 -12.0605 25.6836 6.78711 48.8281 6.78711 Z M 48.8281 -7.37305 C 33.4473 -7.37305 20.9961 -19.8242 20.9961 -35.2051 C 20.9961 -50.5859 33.4473 -63.0371 48.8281 -63.0371 C 64.209 -63.0371 76.6602 -50.5859 76.6602 -35.2051 C 76.6602 -19.8242 64.209 -7.37305 48.8281 -7.37305 Z M 44.043 -14.9902 C 45.9473 -14.9902 47.7539 -16.0156 48.8281 -17.627 L 66.6504 -43.9453 C 67.3828 -45.0684 67.7246 -46.1914 67.7246 -47.168 C 67.7246 -50 65.2344 -52.0996 62.4512 -52.0996 C 60.5469 -52.0996 59.1309 -51.123 57.8613 -49.1699 L 44.043 -27.4902 L 36.6699 -35.6934 C 35.6445 -36.8164 34.4727 -37.5 32.9102 -37.5 C 30.0781 -37.5 27.6855 -35.2539 27.6855 -32.4219 C 27.6855 -31.1035 28.0762 -30.0781 29.1992 -28.8086 L 39.1602 -17.4805 C 40.4785 -15.9668 42.041 -14.9902 44.043 -14.9902 Z"/>
  </g>
  <g id="Heavy-S" transform="matrix(1 0 0 1 2588.47 696)">
   <path d="M 48.2422 6.15234 C 70.9961 6.15234 89.5996 -12.4512 89.5996 -35.2051 C 89.5996 -57.959 70.9961 -76.6113 48.1934 -76.6113 C 25.4395 -76.6113 6.83594 -57.959 6.83594 -35.2051 C 6.83594 -12.4512 25.4395 6.15234 48.2422 6.15234 Z M 48.2422 -6.39648 C 32.2754 -6.39648 19.4336 -19.2871 19.4336 -35.2051 C 19.4336 -51.1719 32.2754 -64.0137 48.1934 -64.0137 C 64.1602 -64.0137 77.002 -51.1719 77.0508 -35.2051 C 77.0508 -19.2871 64.1602 -6.39648 48.2422 -6.39648 Z M 43.457 -15.2344 C 45.2637 -15.2344 46.875 -16.2109 47.9492 -17.7734 L 65.8691 -44.6777 C 66.5527 -45.752 66.9434 -46.8262 66.9434 -47.8027 C 66.9434 -50.4395 64.6484 -52.3438 62.0605 -52.3438 C 60.3516 -52.3438 59.0332 -51.4648 57.8613 -49.6582 L 43.4082 -26.8066 L 35.8398 -35.6445 C 34.8145 -36.8164 33.6914 -37.4512 32.2266 -37.4512 C 29.5898 -37.4512 27.3926 -35.3516 27.3926 -32.7148 C 27.3926 -31.4941 27.7832 -30.5176 28.8086 -29.3457 L 38.8184 -17.627 C 40.0879 -16.1621 41.5527 -15.2344 43.457 -15.2344 Z"/>
  </g>
  <g id="Bold-S" transform="matrix(1 0 0 1 2292.44 696)">
   <path d="M 47.5586 5.46875 C 69.873 5.46875 88.2324 -12.8906 88.2324 -35.2051 C 88.2324 -57.5684 69.873 -75.9277 47.5098 -75.9277 C 25.1953 -75.9277 6.83594 -57.5684 6.83594 -35.2051 C 6.83594 -12.8906 25.1953 5.46875 47.5586 5.46875 Z M 47.5586 -5.32227 C 30.957 -5.32227 17.6758 -18.6523 17.6758 -35.2051 C 17.6758 -51.8066 30.957 -65.1367 47.5098 -65.1367 C 64.1113 -65.1367 77.4414 -51.8066 77.4414 -35.2051 C 77.4414 -18.6523 64.1113 -5.32227 47.5586 -5.32227 Z M 42.7734 -15.5762 C 44.4336 -15.5762 45.9473 -16.4062 46.9238 -17.9199 L 64.9902 -45.5566 C 65.625 -46.5332 66.0645 -47.5586 66.0645 -48.584 C 66.0645 -50.9766 63.9648 -52.6367 61.6211 -52.6367 C 60.1074 -52.6367 58.8867 -51.8066 57.8613 -50.1953 L 42.6758 -25.9766 L 34.9121 -35.5957 C 33.8867 -36.8164 32.8125 -37.3535 31.4453 -37.3535 C 29.0527 -37.3535 27.0996 -35.498 27.0996 -33.1055 C 27.0996 -31.9824 27.4902 -30.957 28.3691 -29.9316 L 38.4766 -17.8223 C 39.6973 -16.3574 41.0645 -15.5762 42.7734 -15.5762 Z"/>
  </g>
  <g id="Semibold-S" transform="matrix(1 0 0 1 1996.2 696)">
   <path d="M 47.0703 4.98047 C 69.0918 4.98047 87.3047 -13.1836 87.3047 -35.2539 C 87.3047 -57.2754 69.0918 -75.4883 47.0215 -75.4883 C 25 -75.4883 6.83594 -57.2754 6.83594 -35.2539 C 6.83594 -13.1836 25.0488 4.98047 47.0703 4.98047 Z M 47.0703 -4.58984 C 30.0781 -4.58984 16.4551 -18.2129 16.4551 -35.2539 C 16.4551 -52.2461 30.0293 -65.8691 47.0215 -65.8691 C 64.0625 -65.8691 77.6855 -52.2461 77.7344 -35.2539 C 77.7344 -18.2129 64.0625 -4.58984 47.0703 -4.58984 Z M 42.334 -15.7715 C 43.8965 -15.7715 45.2637 -16.5527 46.2402 -18.0176 L 64.4043 -46.1426 C 64.9902 -47.0703 65.4785 -48.0957 65.4785 -49.0723 C 65.4785 -51.3184 63.4766 -52.832 61.3281 -52.832 C 59.9609 -52.832 58.7891 -52.0508 57.8125 -50.5371 L 42.1875 -25.4395 L 34.2773 -35.5469 C 33.252 -36.7676 32.1777 -37.3047 30.8594 -37.3047 C 28.6621 -37.3047 26.9043 -35.5469 26.9043 -33.3496 C 26.9043 -32.2754 27.2949 -31.2988 28.0762 -30.3711 L 38.1836 -17.9688 C 39.4043 -16.5039 40.6738 -15.7715 42.334 -15.7715 Z"/>
  </g>
  <g id="Medium-S" transform="matrix(1 0 0 1 1699.83 696)">
   <path d="M 46.7285 4.63867 C 68.5547 4.63867 86.6211 -13.4277 86.6211 -35.2539 C 86.6211 -57.0312 68.5059 -75.1465 46.6797 -75.1465 C 24.8535 -75.1465 6.83594 -57.0312 6.83594 -35.2539 C 6.83594 -13.4277 24.9023 4.63867 46.7285 4.63867 Z M 46.7285 -4.00391 C 29.3945 -4.00391 15.5273 -17.9199 15.5273 -35.2539 C 15.5273 -52.5879 29.3457 -66.4551 46.6797 -66.4551 C 64.0137 -66.4551 77.8809 -52.5879 77.9297 -35.2539 C 77.9785 -17.9199 64.0625 -4.00391 46.7285 -4.00391 Z M 41.9434 -15.918 C 43.5059 -15.918 44.7754 -16.6504 45.7031 -18.0664 L 63.916 -46.582 C 64.502 -47.4609 64.9902 -48.4863 64.9902 -49.4629 C 64.9902 -51.5625 63.1348 -52.9785 61.1328 -52.9785 C 59.8633 -52.9785 58.6914 -52.2461 57.8125 -50.8301 L 41.7969 -25.0488 L 33.7891 -35.498 C 32.7637 -36.7676 31.7383 -37.3047 30.4688 -37.3047 C 28.3691 -37.3047 26.7578 -35.6445 26.7578 -33.5449 C 26.7578 -32.5195 27.1484 -31.543 27.832 -30.6641 L 37.9883 -18.0664 C 39.209 -16.6016 40.4297 -15.918 41.9434 -15.918 Z"/>
  </g>
  <g id="Regular-S" transform="matrix(1 0 0 1 1403.58 696)">
   <path d="M 46.2402 4.15039 C 67.7734 4.15039 85.6934 -13.7207 85.6934 -35.2539 C 85.6934 -56.7871 67.7246 -74.6582 46.1914 -74.6582 C 24.707 -74.6582 6.83594 -56.7871 6.83594 -35.2539 C 6.83594 -13.7207 24.7559 4.15039 46.2402 4.15039 Z M 46.2402 -3.27148 C 28.5156 -3.27148 14.3555 -17.4805 14.3555 -35.2539 C 14.3555 -53.0273 28.4668 -67.2363 46.1914 -67.2363 C 63.9648 -67.2363 78.1738 -53.0273 78.2227 -35.2539 C 78.2715 -17.4805 64.0137 -3.27148 46.2402 -3.27148 Z M 41.5039 -16.1133 C 42.9688 -16.1133 44.1406 -16.7969 45.0195 -18.1641 L 63.3301 -47.1191 C 63.916 -47.998 64.4043 -48.9746 64.4043 -49.9512 C 64.4043 -51.9531 62.6465 -53.1738 60.8398 -53.1738 C 59.7168 -53.1738 58.5938 -52.4902 57.8125 -51.1719 L 41.3086 -24.5117 L 33.1543 -35.4492 C 32.1289 -36.7676 31.1035 -37.2559 29.9316 -37.2559 C 28.0273 -37.2559 26.5625 -35.6934 26.5625 -33.7891 C 26.5625 -32.8125 26.9043 -31.8848 27.5391 -31.0547 L 37.7441 -18.1641 C 38.916 -16.748 40.0391 -16.1133 41.5039 -16.1133 Z"/>
  </g>
  <g id="Light-S" transform="matrix(1 0 0 1 1107.6 696)">
   <path d="M 45.5078 3.4668 C 66.6992 3.4668 84.2285 -14.0625 84.2285 -35.2051 C 84.2285 -56.3965 66.6504 -73.9258 45.5078 -73.9258 C 24.3164 -73.9258 6.83594 -56.3965 6.83594 -35.2051 C 6.83594 -14.0625 24.3652 3.4668 45.5078 3.4668 Z M 45.5078 -2.24609 C 27.2461 -2.24609 12.5977 -16.9434 12.5977 -35.2051 C 12.5977 -53.5156 27.1973 -68.2129 45.5078 -68.2129 C 63.7695 -68.2129 78.4668 -53.5156 78.5156 -35.2051 C 78.5156 -16.9434 63.8184 -2.24609 45.5078 -2.24609 Z M 40.6738 -16.1133 C 41.748 -16.1133 42.6758 -16.6504 43.4082 -17.7246 L 62.793 -48.0957 C 63.1836 -48.7305 63.5742 -49.5117 63.5742 -50.2441 C 63.5742 -51.8555 62.207 -52.832 60.791 -52.832 C 59.9121 -52.832 59.0332 -52.2949 58.3984 -51.2695 L 40.5273 -22.8027 L 31.0547 -34.7168 C 30.2734 -35.7422 29.4922 -36.084 28.5156 -36.084 C 27.0508 -36.084 25.8789 -34.9121 25.8789 -33.3496 C 25.8789 -32.6172 26.1719 -31.8359 26.6602 -31.2012 L 37.7441 -17.6758 C 38.6719 -16.6016 39.5508 -16.1133 40.6738 -16.1133 Z"/>
  </g>
  <g id="Thin-S" transform="matrix(1 0 0 1 811.867 696)">
   <path d="M 44.5801 2.53906 C 65.2832 2.53906 82.2754 -14.4531 82.2754 -35.2051 C 82.2754 -55.9082 65.2344 -72.9004 44.5312 -72.9004 C 23.8281 -72.9004 6.83594 -55.9082 6.83594 -35.2051 C 6.83594 -14.4531 23.877 2.53906 44.5801 2.53906 Z M 44.5801 -0.878906 C 25.5859 -0.878906 10.2539 -16.2109 10.2539 -35.2051 C 10.2539 -54.1504 25.5859 -69.4824 44.5312 -69.4824 C 63.5254 -69.4824 78.8574 -54.1504 78.8574 -35.2051 C 78.8574 -16.2109 63.5254 -0.878906 44.5801 -0.878906 Z M 39.5508 -16.1133 C 40.1855 -16.1133 40.8203 -16.4062 41.2598 -17.0898 L 62.0605 -49.3652 C 62.3047 -49.7559 62.5 -50.2441 62.5 -50.6836 C 62.5 -51.709 61.6211 -52.3438 60.7422 -52.3438 C 60.1562 -52.3438 59.5703 -52.002 59.1797 -51.3672 L 39.4531 -20.5566 L 28.3203 -33.7402 C 27.832 -34.3262 27.3438 -34.5703 26.709 -34.5703 C 25.8301 -34.5703 25 -33.8867 25 -32.8125 C 25 -32.3242 25.1953 -31.8359 25.5371 -31.3965 L 37.7441 -17.041 C 38.3301 -16.3574 38.8672 -16.1133 39.5508 -16.1133 Z"/>
  </g>
  <g id="Ultralight-S" transform="matrix(1 0 0 1 515.644 696)">
   <path d="M 44.043 2.05078 C 64.502 2.05078 81.2988 -14.6973 81.2988 -35.1562 C 81.2988 -55.6152 64.502 -72.3633 44.043 -72.3633 C 23.584 -72.3633 6.83594 -55.6152 6.83594 -35.1562 C 6.83594 -14.6973 23.584 2.05078 44.043 2.05078 Z M 44.043 -0.146484 C 24.7559 -0.146484 9.08203 -15.8691 9.08203 -35.1562 C 9.08203 -54.4434 24.7559 -70.166 44.043 -70.166 C 63.3789 -70.166 79.0527 -54.4434 79.0527 -35.1562 C 79.0527 -15.8691 63.3789 -0.146484 44.043 -0.146484 Z M 38.9648 -16.1133 C 39.4043 -16.1133 39.8438 -16.3086 40.1367 -16.748 L 61.6699 -50 C 61.8164 -50.293 61.9629 -50.5859 61.9629 -50.8789 C 61.9629 -51.6113 61.2793 -52.0996 60.6934 -52.0996 C 60.2539 -52.0996 59.8633 -51.8555 59.5703 -51.416 L 38.916 -19.3848 L 26.9043 -33.2031 C 26.5625 -33.5938 26.2207 -33.7891 25.7324 -33.7891 C 25.1953 -33.7891 24.5117 -33.3496 24.5117 -32.5195 C 24.5117 -32.1777 24.6582 -31.7871 24.9512 -31.4941 L 37.7441 -16.748 C 38.1836 -16.2598 38.5254 -16.1133 38.9648 -16.1133 Z"/>
  </g>
 </g>
</svg>
