<?xml version="1.0" encoding="UTF-8"?>
<!--Generator: Apple Native CoreSVG 123-->
<!DOCTYPE svg
PUBLIC "-//W3C//DTD SVG 1.1//EN"
       "http://www.w3.org/Graphics/SVG/1.1/DTD/svg11.dtd">
<svg version="1.1" xmlns="http://www.w3.org/2000/svg" xmlns:xlink="http://www.w3.org/1999/xlink" width="3300" height="2200">
 <!--glyph: "uni100188.medium", point size: 100.000000, font version: "Version 15.0d7e11", template writer version: "5"-->
 <g id="Notes">
  <rect height="2200" id="artboard" style="fill:white;opacity:1" width="3300" x="0" y="0"/>
  <line id="" style="fill:none;stroke:black;opacity:1;stroke-width:0.5;" x1="263" x2="3036" y1="292" y2="292"/>
  <text style="stroke:none;fill:black;font-family:-apple-system,&quot;SF Pro Display&quot;,&quot;SF Pro Text&quot;,Helvetica,sans-serif;font-weight:bold;" transform="matrix(1 0 0 1 263 322)">Weight/Scale Variations</text>
  <text style="stroke:none;fill:black;font-family:-apple-system,&quot;SF Pro Display&quot;,&quot;SF Pro Text&quot;,Helvetica,sans-serif;text-anchor:middle;" transform="matrix(1 0 0 1 559.711 322)">Ultralight</text>
  <text style="stroke:none;fill:black;font-family:-apple-system,&quot;SF Pro Display&quot;,&quot;SF Pro Text&quot;,Helvetica,sans-serif;text-anchor:middle;" transform="matrix(1 0 0 1 856.422 322)">Thin</text>
  <text style="stroke:none;fill:black;font-family:-apple-system,&quot;SF Pro Display&quot;,&quot;SF Pro Text&quot;,Helvetica,sans-serif;text-anchor:middle;" transform="matrix(1 0 0 1 1153.13 322)">Light</text>
  <text style="stroke:none;fill:black;font-family:-apple-system,&quot;SF Pro Display&quot;,&quot;SF Pro Text&quot;,Helvetica,sans-serif;text-anchor:middle;" transform="matrix(1 0 0 1 1449.84 322)">Regular</text>
  <text style="stroke:none;fill:black;font-family:-apple-system,&quot;SF Pro Display&quot;,&quot;SF Pro Text&quot;,Helvetica,sans-serif;text-anchor:middle;" transform="matrix(1 0 0 1 1746.56 322)">Medium</text>
  <text style="stroke:none;fill:black;font-family:-apple-system,&quot;SF Pro Display&quot;,&quot;SF Pro Text&quot;,Helvetica,sans-serif;text-anchor:middle;" transform="matrix(1 0 0 1 2043.27 322)">Semibold</text>
  <text style="stroke:none;fill:black;font-family:-apple-system,&quot;SF Pro Display&quot;,&quot;SF Pro Text&quot;,Helvetica,sans-serif;text-anchor:middle;" transform="matrix(1 0 0 1 2339.98 322)">Bold</text>
  <text style="stroke:none;fill:black;font-family:-apple-system,&quot;SF Pro Display&quot;,&quot;SF Pro Text&quot;,Helvetica,sans-serif;text-anchor:middle;" transform="matrix(1 0 0 1 2636.69 322)">Heavy</text>
  <text style="stroke:none;fill:black;font-family:-apple-system,&quot;SF Pro Display&quot;,&quot;SF Pro Text&quot;,Helvetica,sans-serif;text-anchor:middle;" transform="matrix(1 0 0 1 2933.4 322)">Black</text>
  <line id="" style="fill:none;stroke:black;opacity:1;stroke-width:0.5;" x1="263" x2="3036" y1="1903" y2="1903"/>
  <g id="" transform="matrix(1 0 0 1 263 1933)">
   <path d="M 9.24805 0.830078 C 13.5547 0.830078 17.1387 -2.74414 17.1387 -7.05078 C 17.1387 -11.3574 13.5449 -14.9316 9.23828 -14.9316 C 4.94141 -14.9316 1.36719 -11.3574 1.36719 -7.05078 C 1.36719 -2.74414 4.95117 0.830078 9.24805 0.830078 Z M 9.24805 -0.654297 C 5.70312 -0.654297 2.87109 -3.49609 2.87109 -7.05078 C 2.87109 -10.6055 5.69336 -13.4473 9.23828 -13.4473 C 12.793 -13.4473 15.6348 -10.6055 15.6445 -7.05078 C 15.6543 -3.49609 12.8027 -0.654297 9.24805 -0.654297 Z M 9.22852 -3.42773 C 9.69727 -3.42773 9.9707 -3.74023 9.9707 -4.25781 L 9.9707 -6.31836 L 12.1973 -6.31836 C 12.6953 -6.31836 13.0371 -6.57227 13.0371 -7.04102 C 13.0371 -7.51953 12.7148 -7.7832 12.1973 -7.7832 L 9.9707 -7.7832 L 9.9707 -10.0098 C 9.9707 -10.5273 9.69727 -10.8496 9.22852 -10.8496 C 8.75977 -10.8496 8.50586 -10.5078 8.50586 -10.0098 L 8.50586 -7.7832 L 6.29883 -7.7832 C 5.78125 -7.7832 5.44922 -7.51953 5.44922 -7.04102 C 5.44922 -6.57227 5.80078 -6.31836 6.29883 -6.31836 L 8.50586 -6.31836 L 8.50586 -4.25781 C 8.50586 -3.75977 8.75977 -3.42773 9.22852 -3.42773 Z"/>
  </g>
  <g id="" transform="matrix(1 0 0 1 281.506 1933)">
   <path d="M 11.709 2.91016 C 17.1582 2.91016 21.6699 -1.60156 21.6699 -7.05078 C 21.6699 -12.4902 17.1484 -17.0117 11.6992 -17.0117 C 6.25977 -17.0117 1.74805 -12.4902 1.74805 -7.05078 C 1.74805 -1.60156 6.26953 2.91016 11.709 2.91016 Z M 11.709 1.25 C 7.09961 1.25 3.41797 -2.44141 3.41797 -7.05078 C 3.41797 -11.6504 7.08984 -15.3516 11.6992 -15.3516 C 16.3086 -15.3516 20 -11.6504 20.0098 -7.05078 C 20.0195 -2.44141 16.3184 1.25 11.709 1.25 Z M 11.6895 -2.41211 C 12.207 -2.41211 12.5195 -2.77344 12.5195 -3.33984 L 12.5195 -6.23047 L 15.5762 -6.23047 C 16.123 -6.23047 16.5039 -6.51367 16.5039 -7.03125 C 16.5039 -7.55859 16.1426 -7.86133 15.5762 -7.86133 L 12.5195 -7.86133 L 12.5195 -10.9277 C 12.5195 -11.5039 12.207 -11.8555 11.6895 -11.8555 C 11.1719 -11.8555 10.8789 -11.4844 10.8789 -10.9277 L 10.8789 -7.86133 L 7.83203 -7.86133 C 7.26562 -7.86133 6.89453 -7.55859 6.89453 -7.03125 C 6.89453 -6.51367 7.28516 -6.23047 7.83203 -6.23047 L 10.8789 -6.23047 L 10.8789 -3.33984 C 10.8789 -2.79297 11.1719 -2.41211 11.6895 -2.41211 Z"/>
  </g>
  <g id="" transform="matrix(1 0 0 1 304.924 1933)">
   <path d="M 14.9707 5.67383 C 21.9336 5.67383 27.6953 -0.078125 27.6953 -7.04102 C 27.6953 -14.0039 21.9238 -19.7559 14.9609 -19.7559 C 8.00781 -19.7559 2.25586 -14.0039 2.25586 -7.04102 C 2.25586 -0.078125 8.01758 5.67383 14.9707 5.67383 Z M 14.9707 3.85742 C 8.93555 3.85742 4.08203 -1.00586 4.08203 -7.04102 C 4.08203 -13.0762 8.92578 -17.9395 14.9609 -17.9395 C 21.0059 -17.9395 25.8594 -13.0762 25.8691 -7.04102 C 25.8789 -1.00586 21.0156 3.85742 14.9707 3.85742 Z M 14.9512 -1.06445 C 15.5176 -1.06445 15.8691 -1.45508 15.8691 -2.06055 L 15.8691 -6.13281 L 20.1074 -6.13281 C 20.6934 -6.13281 21.1133 -6.46484 21.1133 -7.02148 C 21.1133 -7.59766 20.7227 -7.93945 20.1074 -7.93945 L 15.8691 -7.93945 L 15.8691 -12.1875 C 15.8691 -12.8027 15.5176 -13.1934 14.9512 -13.1934 C 14.3848 -13.1934 14.0625 -12.7832 14.0625 -12.1875 L 14.0625 -7.93945 L 9.83398 -7.93945 C 9.21875 -7.93945 8.80859 -7.59766 8.80859 -7.02148 C 8.80859 -6.46484 9.23828 -6.13281 9.83398 -6.13281 L 14.0625 -6.13281 L 14.0625 -2.06055 C 14.0625 -1.47461 14.3848 -1.06445 14.9512 -1.06445 Z"/>
  </g>
  <text style="stroke:none;fill:black;font-family:-apple-system,&quot;SF Pro Display&quot;,&quot;SF Pro Text&quot;,Helvetica,sans-serif;font-weight:bold;" transform="matrix(1 0 0 1 263 1953)">Design Variations</text>
  <text style="stroke:none;fill:black;font-family:-apple-system,&quot;SF Pro Display&quot;,&quot;SF Pro Text&quot;,Helvetica,sans-serif;" transform="matrix(1 0 0 1 263 1971)">Symbols are supported in up to nine weights and three scales.</text>
  <text style="stroke:none;fill:black;font-family:-apple-system,&quot;SF Pro Display&quot;,&quot;SF Pro Text&quot;,Helvetica,sans-serif;" transform="matrix(1 0 0 1 263 1989)">For optimal layout with text and other symbols, vertically align</text>
  <text style="stroke:none;fill:black;font-family:-apple-system,&quot;SF Pro Display&quot;,&quot;SF Pro Text&quot;,Helvetica,sans-serif;" transform="matrix(1 0 0 1 263 2007)">symbols with the adjacent text.</text>
  <rect height="14" id="" style="fill:#00AEEF;stroke:none;opacity:0.4;" width="3" x="776" y="1919"/>
  <g id="" transform="matrix(1 0 0 1 779 1933)">
   <path d="M 10.5273 0 L 12.373 0 L 7.17773 -14.0918 L 5.43945 -14.0918 L 0.244141 0 L 2.08984 0 L 3.50586 -4.0332 L 9.11133 -4.0332 Z M 6.2793 -11.9531 L 6.33789 -11.9531 L 8.59375 -5.52734 L 4.02344 -5.52734 Z"/>
  </g>
  <rect height="14" id="" style="fill:#00AEEF;stroke:none;opacity:0.4;" width="3" x="791.617" y="1919"/>
  <text style="stroke:none;fill:black;font-family:-apple-system,&quot;SF Pro Display&quot;,&quot;SF Pro Text&quot;,Helvetica,sans-serif;font-weight:bold;" transform="matrix(1 0 0 1 776 1953)">Margins</text>
  <text style="stroke:none;fill:black;font-family:-apple-system,&quot;SF Pro Display&quot;,&quot;SF Pro Text&quot;,Helvetica,sans-serif;" transform="matrix(1 0 0 1 776 1971)">Leading and trailing margins on the left and right side of each symbol</text>
  <text style="stroke:none;fill:black;font-family:-apple-system,&quot;SF Pro Display&quot;,&quot;SF Pro Text&quot;,Helvetica,sans-serif;" transform="matrix(1 0 0 1 776 1989)">can be adjusted by modifying the width of the blue rectangles.</text>
  <text style="stroke:none;fill:black;font-family:-apple-system,&quot;SF Pro Display&quot;,&quot;SF Pro Text&quot;,Helvetica,sans-serif;" transform="matrix(1 0 0 1 776 2007)">Modifications are automatically applied proportionally to all</text>
  <text style="stroke:none;fill:black;font-family:-apple-system,&quot;SF Pro Display&quot;,&quot;SF Pro Text&quot;,Helvetica,sans-serif;" transform="matrix(1 0 0 1 776 2025)">scales and weights.</text>
  <g id="" transform="matrix(1 0 0 1 1289 1933)">
   <path d="M 2.83203 3.11523 L 4.375 4.6582 C 5.22461 5.48828 6.19141 5.41992 7.06055 4.46289 L 17.2754 -6.66016 C 17.7051 -6.36719 18.0957 -6.37695 18.5645 -6.47461 L 19.6094 -6.68945 L 20.3027 -5.99609 L 20.2539 -5.47852 C 20.1855 -4.95117 20.3516 -4.53125 20.8496 -4.0332 L 21.6602 -3.22266 C 22.168 -2.71484 22.8223 -2.68555 23.3008 -3.16406 L 26.5527 -6.41602 C 27.0312 -6.89453 27.0117 -7.54883 26.5039 -8.05664 L 25.6836 -8.87695 C 25.1855 -9.375 24.7754 -9.55078 24.2383 -9.47266 L 23.7109 -9.41406 L 23.0566 -10.0781 L 23.3398 -11.2207 C 23.4863 -11.7871 23.3398 -12.2559 22.7148 -12.8613 L 20.3027 -15.2539 C 16.7578 -18.7793 12.2266 -18.6719 9.11133 -15.5371 C 8.69141 -15.1074 8.64258 -14.5215 8.91602 -14.0918 C 9.15039 -13.7207 9.62891 -13.4961 10.2734 -13.6621 C 11.7871 -14.043 13.3008 -13.9258 14.7852 -12.9199 L 14.1602 -11.3379 C 13.9258 -10.752 13.9453 -10.2734 14.1797 -9.83398 L 3.01758 0.439453 C 2.08008 1.30859 1.97266 2.25586 2.83203 3.11523 Z M 10.6738 -15.1465 C 13.3398 -17.1387 16.6504 -16.8262 19.0527 -14.4141 L 21.6797 -11.8066 C 21.9141 -11.5723 21.9434 -11.3867 21.8848 -11.0938 L 21.5039 -9.53125 L 23.0762 -7.95898 L 24.043 -8.04688 C 24.3262 -8.07617 24.4141 -8.05664 24.6387 -7.83203 L 25.2637 -7.20703 L 22.5098 -4.46289 L 21.8848 -5.07812 C 21.6602 -5.30273 21.6406 -5.40039 21.6699 -5.68359 L 21.7578 -6.64062 L 20.1953 -8.20312 L 18.5742 -7.89062 C 18.291 -7.83203 18.1445 -7.83203 17.9102 -8.07617 L 15.7324 -10.2539 C 15.5078 -10.4883 15.4785 -10.625 15.6055 -10.9473 L 16.5527 -13.2227 C 14.9512 -14.7559 12.8418 -15.6055 10.8008 -14.9512 C 10.7129 -14.9219 10.6445 -14.9414 10.6152 -14.9805 C 10.5859 -15.0293 10.5859 -15.0781 10.6738 -15.1465 Z M 4.10156 2.41211 C 3.61328 1.91406 3.78906 1.61133 4.12109 1.30859 L 15.0781 -8.80859 L 16.3086 -7.57812 L 6.15234 3.34961 C 5.84961 3.68164 5.46875 3.7793 5.06836 3.37891 Z"/>
  </g>
  <text style="stroke:none;fill:black;font-family:-apple-system,&quot;SF Pro Display&quot;,&quot;SF Pro Text&quot;,Helvetica,sans-serif;font-weight:bold;" transform="matrix(1 0 0 1 1289 1953)">Exporting</text>
  <text style="stroke:none;fill:black;font-family:-apple-system,&quot;SF Pro Display&quot;,&quot;SF Pro Text&quot;,Helvetica,sans-serif;" transform="matrix(1 0 0 1 1289 1971)">Symbols should be outlined when exporting to ensure the</text>
  <text style="stroke:none;fill:black;font-family:-apple-system,&quot;SF Pro Display&quot;,&quot;SF Pro Text&quot;,Helvetica,sans-serif;" transform="matrix(1 0 0 1 1289 1989)">design is preserved when submitting to Xcode.</text>
  <text id="template-version" style="stroke:none;fill:black;font-family:-apple-system,&quot;SF Pro Display&quot;,&quot;SF Pro Text&quot;,Helvetica,sans-serif;text-anchor:end;" transform="matrix(1 0 0 1 3036 1933)">Template v.1.0</text>
  <text style="stroke:none;fill:black;font-family:-apple-system,&quot;SF Pro Display&quot;,&quot;SF Pro Text&quot;,Helvetica,sans-serif;text-anchor:end;" transform="matrix(1 0 0 1 3036 1951)">Generated from chevron.down</text>
  <text style="stroke:none;fill:black;font-family:-apple-system,&quot;SF Pro Display&quot;,&quot;SF Pro Text&quot;,Helvetica,sans-serif;text-anchor:end;" transform="matrix(1 0 0 1 3036 1969)">Typeset at 100 points</text>
  <text style="stroke:none;fill:black;font-family:-apple-system,&quot;SF Pro Display&quot;,&quot;SF Pro Text&quot;,Helvetica,sans-serif;" transform="matrix(1 0 0 1 263 726)">Small</text>
  <text style="stroke:none;fill:black;font-family:-apple-system,&quot;SF Pro Display&quot;,&quot;SF Pro Text&quot;,Helvetica,sans-serif;" transform="matrix(1 0 0 1 263 1156)">Medium</text>
  <text style="stroke:none;fill:black;font-family:-apple-system,&quot;SF Pro Display&quot;,&quot;SF Pro Text&quot;,Helvetica,sans-serif;" transform="matrix(1 0 0 1 263 1586)">Large</text>
 </g>
 <g id="Guides">
  <g id="H-reference" style="fill:#27AAE1;stroke:none;" transform="matrix(1 0 0 1 339 696)">
   <path d="M 54.9316 0 L 57.666 0 L 30.5664 -70.459 L 28.0762 -70.459 L 0.976562 0 L 3.66211 0 L 12.9395 -24.4629 L 45.7031 -24.4629 Z M 29.1992 -67.0898 L 29.4434 -67.0898 L 44.8242 -26.709 L 13.8184 -26.709 Z"/>
  </g>
  <line id="Baseline-S" style="fill:none;stroke:#27AAE1;opacity:1;stroke-width:0.577;" x1="263" x2="3036" y1="696" y2="696"/>
  <line id="Capline-S" style="fill:none;stroke:#27AAE1;opacity:1;stroke-width:0.577;" x1="263" x2="3036" y1="625.541" y2="625.541"/>
  <g id="H-reference" style="fill:#27AAE1;stroke:none;" transform="matrix(1 0 0 1 339 1126)">
   <path d="M 54.9316 0 L 57.666 0 L 30.5664 -70.459 L 28.0762 -70.459 L 0.976562 0 L 3.66211 0 L 12.9395 -24.4629 L 45.7031 -24.4629 Z M 29.1992 -67.0898 L 29.4434 -67.0898 L 44.8242 -26.709 L 13.8184 -26.709 Z"/>
  </g>
  <line id="Baseline-M" style="fill:none;stroke:#27AAE1;opacity:1;stroke-width:0.577;" x1="263" x2="3036" y1="1126" y2="1126"/>
  <line id="Capline-M" style="fill:none;stroke:#27AAE1;opacity:1;stroke-width:0.577;" x1="263" x2="3036" y1="1055.54" y2="1055.54"/>
  <g id="H-reference" style="fill:#27AAE1;stroke:none;" transform="matrix(1 0 0 1 339 1556)">
   <path d="M 54.9316 0 L 57.666 0 L 30.5664 -70.459 L 28.0762 -70.459 L 0.976562 0 L 3.66211 0 L 12.9395 -24.4629 L 45.7031 -24.4629 Z M 29.1992 -67.0898 L 29.4434 -67.0898 L 44.8242 -26.709 L 13.8184 -26.709 Z"/>
  </g>
  <line id="Baseline-L" style="fill:none;stroke:#27AAE1;opacity:1;stroke-width:0.577;" x1="263" x2="3036" y1="1556" y2="1556"/>
  <line id="Capline-L" style="fill:none;stroke:#27AAE1;opacity:1;stroke-width:0.577;" x1="263" x2="3036" y1="1485.54" y2="1485.54"/>
  <rect height="119.336" id="left-margin" style="fill:#00AEEF;stroke:none;opacity:0.4;" width="12.4512" x="1394.99" y="1030.79"/>
  <rect height="119.336" id="right-margin" style="fill:#00AEEF;stroke:none;opacity:0.4;" width="12.4512" x="1492.25" y="1030.79"/>
 </g>
 <g id="Symbols">
  <g id="Black-L" transform="matrix(1 0 0 1 2857.5 1556)">
   <path d="M 75.9277 2.83203 C 80.0781 2.7832 83.3008 1.31836 86.6699 -2.05078 L 132.129 -48.3398 C 134.619 -50.7812 135.742 -53.6621 135.742 -57.1289 C 135.742 -64.2578 129.932 -70.0684 122.998 -70.0684 C 119.482 -70.0684 116.211 -68.6523 113.525 -65.8691 L 76.0254 -27.0996 L 38.3301 -65.8691 C 35.6445 -68.5547 32.373 -70.0684 28.8086 -70.0684 C 21.8262 -70.0684 16.0645 -64.2578 16.0645 -57.1289 C 16.0645 -53.7109 17.2363 -50.8301 19.6289 -48.3398 L 65.1855 -2.05078 C 68.6035 1.36719 71.875 2.83203 75.9277 2.83203 Z"/>
  </g>
  <g id="Heavy-L" transform="matrix(1 0 0 1 2562.32 1556)">
   <path d="M 74.3652 1.51367 C 77.8809 1.46484 80.6641 0.195312 83.4473 -2.63672 L 129.59 -49.8535 C 131.689 -51.9531 132.666 -54.3945 132.666 -57.373 C 132.666 -63.4766 127.734 -68.4082 121.777 -68.4082 C 118.799 -68.4082 115.967 -67.1875 113.721 -64.8438 L 74.4629 -24.2188 L 35.0586 -64.8438 C 32.7637 -67.1387 29.9805 -68.4082 26.9531 -68.4082 C 20.9961 -68.4082 16.0645 -63.4766 16.0645 -57.373 C 16.0645 -54.4434 17.0898 -51.9531 19.1406 -49.8047 L 65.2832 -2.63672 C 68.1641 0.244141 70.9473 1.51367 74.3652 1.51367 Z"/>
  </g>
  <g id="Bold-L" transform="matrix(1 0 0 1 2267.32 1556)">
   <path d="M 72.6562 0 C 75.4395 -0.0488281 77.7344 -1.07422 79.8828 -3.27148 L 126.709 -51.5137 C 128.369 -53.2227 129.248 -55.2246 129.248 -57.666 C 129.248 -62.5488 125.293 -66.5527 120.41 -66.5527 C 118.018 -66.5527 115.723 -65.5762 113.965 -63.7207 L 72.7051 -20.9473 L 31.3477 -63.7207 C 29.5898 -65.5273 27.3438 -66.5527 24.8535 -66.5527 C 20.0195 -66.5527 16.0645 -62.5488 16.0645 -57.666 C 16.0645 -55.2246 16.9434 -53.2227 18.6035 -51.5137 L 65.4297 -3.27148 C 67.6758 -1.02539 69.9219 0 72.6562 0 Z"/>
  </g>
  <g id="Semibold-L" transform="matrix(1 0 0 1 1971.81 1556)">
   <path d="M 71.4355 -1.02539 C 73.7305 -1.07422 75.6836 -1.95312 77.4414 -3.75977 L 124.707 -52.6855 C 126.123 -54.1016 126.855 -55.7617 126.855 -57.8125 C 126.855 -61.9629 123.584 -65.2344 119.482 -65.2344 C 117.48 -65.2344 115.576 -64.4531 114.111 -62.9395 L 71.4844 -18.7012 L 28.8086 -62.9395 C 27.3438 -64.4043 25.4883 -65.2344 23.4375 -65.2344 C 19.3359 -65.2344 16.0645 -61.9629 16.0645 -57.8125 C 16.0645 -55.8105 16.8457 -54.1016 18.2129 -52.6367 L 65.5273 -3.71094 C 67.334 -1.9043 69.1895 -1.02539 71.4355 -1.02539 Z"/>
  </g>
  <g id="Medium-L" transform="matrix(1 0 0 1 1676 1556)">
   <path d="M 70.5566 -1.80664 C 72.4609 -1.85547 74.1699 -2.63672 75.5371 -4.10156 L 123.242 -53.5645 C 124.414 -54.7852 125.049 -56.2012 125.049 -57.959 C 125.049 -61.5234 122.314 -64.2578 118.75 -64.2578 C 117.09 -64.2578 115.43 -63.5742 114.209 -62.4023 L 70.6055 -17.041 L 26.9043 -62.4023 C 25.6836 -63.5742 24.0723 -64.2578 22.3633 -64.2578 C 18.8477 -64.2578 16.0645 -61.5234 16.0645 -57.959 C 16.0645 -56.2012 16.748 -54.7363 17.9199 -53.5156 L 65.5762 -4.05273 C 67.0898 -2.58789 68.6523 -1.80664 70.5566 -1.80664 Z"/>
  </g>
  <g id="Regular-L" transform="matrix(1 0 0 1 1380.46 1556)">
   <path d="M 69.3848 -2.83203 C 70.8008 -2.83203 72.1191 -3.4668 73.0957 -4.54102 L 121.24 -54.6875 C 122.168 -55.6152 122.705 -56.7871 122.705 -58.1543 C 122.705 -60.8887 120.605 -62.9883 117.822 -62.9883 C 116.553 -62.9883 115.283 -62.5 114.355 -61.6211 L 69.3848 -14.7949 L 24.3652 -61.6211 C 23.4863 -62.5 22.2656 -62.9883 20.9473 -62.9883 C 18.1641 -62.9883 16.0645 -60.8887 16.0645 -58.1543 C 16.0645 -56.7871 16.6504 -55.6152 17.5293 -54.6387 L 65.6738 -4.49219 C 66.748 -3.4668 67.9688 -2.83203 69.3848 -2.83203 Z"/>
  </g>
  <g id="Light-L" transform="matrix(1 0 0 1 1085.65 1556)">
   <path d="M 67.4316 -4.49219 C 68.6035 -4.49219 69.6777 -5.07812 70.459 -5.9082 L 117.773 -56.3965 C 118.457 -57.1289 118.896 -57.9102 118.896 -58.9844 C 118.896 -61.0352 117.285 -62.5977 115.234 -62.5977 C 114.258 -62.5977 113.281 -62.2559 112.598 -61.6211 L 67.4805 -13.4766 L 22.3145 -61.6211 C 21.6309 -62.2559 20.7031 -62.5977 19.7266 -62.5977 C 17.6758 -62.5977 16.0645 -61.0352 16.0645 -58.9844 C 16.0645 -57.9102 16.5527 -57.0801 17.2363 -56.3477 L 64.4531 -5.85938 C 65.332 -5.0293 66.3086 -4.49219 67.4316 -4.49219 Z"/>
  </g>
  <g id="Thin-L" transform="matrix(1 0 0 1 791.481 1556)">
   <path d="M 64.8926 -6.64062 C 65.7227 -6.64062 66.4062 -7.12891 66.9922 -7.76367 L 113.135 -58.6426 C 113.525 -59.1309 113.818 -59.4727 113.818 -60.0586 C 113.818 -61.1816 112.939 -62.1094 111.816 -62.1094 C 111.279 -62.1094 110.693 -61.9629 110.303 -61.5723 L 64.9902 -11.6699 L 19.5312 -61.5723 C 19.1895 -61.9629 18.6035 -62.1094 18.1152 -62.1094 C 16.9922 -62.1094 16.0645 -61.1816 16.0645 -60.0586 C 16.0645 -59.4727 16.4062 -59.0332 16.7969 -58.5449 L 62.8906 -7.66602 C 63.5254 -7.08008 64.1113 -6.64062 64.8926 -6.64062 Z"/>
  </g>
  <g id="Ultralight-L" transform="matrix(1 0 0 1 496.064 1556)">
   <path d="M 63.623 -7.71484 C 64.2578 -7.71484 64.6973 -8.20312 65.2344 -8.69141 L 110.791 -59.8145 C 111.035 -60.1074 111.23 -60.2539 111.23 -60.6445 C 111.23 -61.2793 110.693 -61.8652 110.01 -61.8652 C 109.717 -61.8652 109.326 -61.8164 109.082 -61.5723 L 63.6719 -10.6934 L 18.1152 -61.5723 C 17.9688 -61.8164 17.5781 -61.8652 17.2852 -61.8652 C 16.6016 -61.8652 16.0645 -61.2793 16.0645 -60.6445 C 16.0645 -60.2539 16.3574 -60.0586 16.6016 -59.7168 L 62.0605 -8.59375 C 62.5977 -8.10547 62.9883 -7.71484 63.623 -7.71484 Z"/>
  </g>
  <g id="Black-M" transform="matrix(1 0 0 1 2873.54 1126)">
   <path d="M 59.9121 -4.78516 C 63.8184 -4.83398 66.7969 -6.20117 70.0684 -9.47266 L 104.004 -44.2871 C 106.299 -46.5332 107.275 -49.1211 107.275 -52.3438 C 107.275 -58.8379 101.904 -64.3066 95.5566 -64.3066 C 92.334 -64.3066 89.3066 -62.9395 86.7676 -60.3027 L 60.0098 -32.1289 L 33.0566 -60.3027 C 30.5176 -62.8906 27.4902 -64.3066 24.2188 -64.3066 C 17.8223 -64.3066 12.4512 -58.8379 12.4512 -52.3438 C 12.4512 -49.1699 13.5254 -46.6309 15.7227 -44.2871 L 49.707 -9.47266 C 53.0273 -6.15234 56.0547 -4.78516 59.9121 -4.78516 Z"/>
  </g>
  <g id="Heavy-M" transform="matrix(1 0 0 1 2578 1126)">
   <path d="M 58.6914 -5.81055 C 62.0117 -5.85938 64.5508 -7.03125 67.2852 -9.7168 L 102.1 -45.459 C 104.053 -47.4121 104.932 -49.6094 104.932 -52.3926 C 104.932 -57.959 100.391 -62.5488 94.9219 -62.5488 C 92.1387 -62.5488 89.5508 -61.4258 87.4512 -59.2285 L 58.7891 -29.2969 L 29.9805 -59.2285 C 27.8809 -61.377 25.293 -62.5488 22.4609 -62.5488 C 16.9922 -62.5488 12.4512 -57.959 12.4512 -52.3926 C 12.4512 -49.6582 13.3789 -47.4609 15.2832 -45.459 L 50.1465 -9.7168 C 52.8809 -6.98242 55.4688 -5.81055 58.6914 -5.81055 Z"/>
  </g>
  <g id="Bold-M" transform="matrix(1 0 0 1 2282.6 1126)">
   <path d="M 57.373 -6.98242 C 59.9609 -7.03125 62.0605 -7.95898 64.1113 -10.0586 L 100 -46.8262 C 101.562 -48.3887 102.295 -50.1953 102.295 -52.4414 C 102.295 -56.9336 98.6328 -60.6445 94.1895 -60.6445 C 91.9922 -60.6445 89.8926 -59.7168 88.1836 -58.0078 L 57.4219 -26.123 L 26.5625 -58.0078 C 24.9023 -59.668 22.8027 -60.6445 20.5566 -60.6445 C 16.1133 -60.6445 12.4512 -56.9336 12.4512 -52.4414 C 12.4512 -50.2441 13.2324 -48.3887 14.7461 -46.7773 L 50.6348 -10.0586 C 52.7832 -7.95898 54.834 -6.98242 57.373 -6.98242 Z"/>
  </g>
  <g id="Semibold-M" transform="matrix(1 0 0 1 1986.8 1126)">
   <path d="M 56.4453 -7.8125 C 58.5449 -7.8125 60.3516 -8.64258 61.9629 -10.2539 L 98.5352 -47.7539 C 99.8047 -49.0234 100.488 -50.5859 100.488 -52.4414 C 100.488 -56.25 97.4609 -59.2773 93.7012 -59.2773 C 91.8457 -59.2773 90.0879 -58.5449 88.7207 -57.1777 L 56.4941 -23.9746 L 24.2188 -57.1777 C 22.8516 -58.4961 21.1426 -59.2773 19.2383 -59.2773 C 15.4785 -59.2773 12.4512 -56.25 12.4512 -52.4414 C 12.4512 -50.5859 13.1348 -49.0234 14.4043 -47.7051 L 50.9766 -10.2539 C 52.6855 -8.59375 54.3945 -7.8125 56.4453 -7.8125 Z"/>
  </g>
  <g id="Medium-M" transform="matrix(1 0 0 1 1690.79 1126)">
   <path d="M 55.7617 -8.39844 C 57.4707 -8.44727 59.0332 -9.08203 60.3027 -10.4492 L 97.4121 -48.4375 C 98.4863 -49.5117 99.0723 -50.8789 99.0723 -52.4902 C 99.0723 -55.7129 96.5332 -58.3008 93.3105 -58.3008 C 91.748 -58.3008 90.2344 -57.666 89.1113 -56.543 L 55.8105 -22.3145 L 22.4121 -56.543 C 21.2891 -57.6172 19.8242 -58.3008 18.2129 -58.3008 C 14.9902 -58.3008 12.4512 -55.7129 12.4512 -52.4902 C 12.4512 -50.8789 13.0371 -49.5117 14.1113 -48.4375 L 51.2695 -10.4492 C 52.5879 -9.08203 54.0527 -8.39844 55.7617 -8.39844 Z"/>
  </g>
  <g id="Regular-M" transform="matrix(1 0 0 1 1394.99 1126)">
   <path d="M 54.8828 -9.22852 C 56.1035 -9.22852 57.3242 -9.7168 58.1543 -10.6445 L 95.9473 -49.3652 C 96.7773 -50.1953 97.2656 -51.2695 97.2656 -52.4902 C 97.2656 -55.0293 95.3613 -56.9824 92.8223 -56.9824 C 91.6016 -56.9824 90.4785 -56.4941 89.6484 -55.7129 L 54.8828 -20.166 L 20.0684 -55.7129 C 19.2871 -56.4941 18.1641 -56.9824 16.8945 -56.9824 C 14.3555 -56.9824 12.4512 -55.0293 12.4512 -52.4902 C 12.4512 -51.2695 12.9395 -50.1953 13.7695 -49.3164 L 51.5625 -10.6445 C 52.4902 -9.7168 53.6133 -9.22852 54.8828 -9.22852 Z"/>
  </g>
  <g id="Light-M" transform="matrix(1 0 0 1 1099.98 1126)">
   <path d="M 53.125 -10.6934 C 54.1504 -10.6934 55.0781 -11.1328 55.8105 -11.9141 L 92.8223 -50.8789 C 93.457 -51.5137 93.8477 -52.2949 93.8477 -53.2715 C 93.8477 -55.1758 92.3828 -56.6406 90.4785 -56.6406 C 89.5996 -56.6406 88.6719 -56.2988 88.0371 -55.6641 L 53.1738 -18.9453 L 18.2129 -55.6641 C 17.627 -56.2988 16.748 -56.6406 15.8203 -56.6406 C 13.916 -56.6406 12.4512 -55.1758 12.4512 -53.2715 C 12.4512 -52.2949 12.8418 -51.5137 13.4766 -50.8301 L 50.4883 -11.8652 C 51.2695 -11.1328 52.0996 -10.6934 53.125 -10.6934 Z"/>
  </g>
  <g id="Thin-M" transform="matrix(1 0 0 1 805.543 1126)">
   <path d="M 50.8789 -12.5977 C 51.5625 -12.5977 52.1484 -12.9883 52.6855 -13.5254 L 88.6719 -52.8809 C 89.0625 -53.3203 89.3066 -53.6621 89.3066 -54.248 C 89.3066 -55.3223 88.4766 -56.1523 87.4023 -56.1523 C 86.8652 -56.1523 86.3281 -56.0059 85.9863 -55.6641 L 50.9277 -17.334 L 15.7227 -55.6641 C 15.4297 -56.0059 14.8926 -56.1523 14.3555 -56.1523 C 13.2812 -56.1523 12.4512 -55.3223 12.4512 -54.248 C 12.4512 -53.6621 12.7441 -53.2715 13.1348 -52.832 L 49.0723 -13.4766 C 49.6094 -12.9395 50.1465 -12.5977 50.8789 -12.5977 Z"/>
  </g>
  <g id="Ultralight-M" transform="matrix(1 0 0 1 509.98 1126)">
   <path d="M 49.707 -13.5742 C 50.2441 -13.5742 50.6348 -13.9648 51.0742 -14.4043 L 86.5723 -53.9062 C 86.8164 -54.1992 87.0117 -54.3945 87.0117 -54.7363 C 87.0117 -55.4199 86.4746 -55.957 85.791 -55.957 C 85.498 -55.957 85.1562 -55.8594 84.9121 -55.6641 L 49.7559 -16.5039 L 14.4531 -55.6641 C 14.3066 -55.8594 13.916 -55.957 13.623 -55.957 C 12.9883 -55.957 12.4512 -55.4199 12.4512 -54.7363 C 12.4512 -54.3945 12.6953 -54.1504 12.9395 -53.8574 L 48.3398 -14.3066 C 48.7793 -13.916 49.1211 -13.5742 49.707 -13.5742 Z"/>
  </g>
  <g id="Black-S" transform="matrix(1 0 0 1 2886.55 696)">
   <path d="M 46.875 -11.4258 C 49.9023 -11.4746 52.1973 -12.5488 54.7363 -15.0391 L 81.3965 -42.3828 C 83.1543 -44.1406 83.9355 -46.1426 83.9355 -48.6328 C 83.9355 -53.6621 79.7852 -57.8613 74.8535 -57.8613 C 72.3633 -57.8613 70.0195 -56.8359 68.0664 -54.7852 L 46.9238 -32.5684 L 25.6836 -54.7852 C 23.7305 -56.7871 21.3867 -57.8613 18.8477 -57.8613 C 13.916 -57.8613 9.76562 -53.6621 9.76562 -48.6328 C 9.76562 -46.1914 10.5957 -44.1895 12.3047 -42.3828 L 39.0137 -15.0391 C 41.5527 -12.5 43.8965 -11.4258 46.875 -11.4258 Z"/>
  </g>
  <g id="Heavy-S" transform="matrix(1 0 0 1 2590.55 696)">
   <path d="M 46.1426 -12.0605 C 48.7305 -12.1094 50.7324 -13.0371 52.832 -15.1367 L 80.2734 -43.1152 C 81.7871 -44.6289 82.5195 -46.4355 82.5195 -48.584 C 82.5195 -52.9785 78.9062 -56.5918 74.6094 -56.5918 C 72.4609 -56.5918 70.4102 -55.6641 68.75 -53.9551 L 46.1914 -30.5664 L 23.5352 -53.9551 C 21.875 -55.6641 19.873 -56.5918 17.6758 -56.5918 C 13.3301 -56.5918 9.76562 -52.9785 9.76562 -48.584 C 9.76562 -46.4355 10.498 -44.6777 11.9629 -43.1152 L 39.4531 -15.1367 C 41.6016 -12.9883 43.6035 -12.0605 46.1426 -12.0605 Z"/>
  </g>
  <g id="Bold-S" transform="matrix(1 0 0 1 2294.64 696)">
   <path d="M 45.3613 -12.793 C 47.4121 -12.793 49.0723 -13.5742 50.7324 -15.1855 L 79.0527 -43.9453 C 80.3223 -45.2148 80.9082 -46.7285 80.9082 -48.5352 C 80.9082 -52.1973 77.9785 -55.127 74.3652 -55.127 C 72.5586 -55.127 70.8984 -54.3945 69.5312 -53.0273 L 45.3613 -28.3203 L 21.1914 -53.0273 C 19.8242 -54.3945 18.1641 -55.127 16.3086 -55.127 C 12.6953 -55.127 9.76562 -52.1973 9.76562 -48.5352 C 9.76562 -46.7285 10.4004 -45.2637 11.6211 -43.9453 L 39.9902 -15.1855 C 41.6504 -13.5254 43.3105 -12.793 45.3613 -12.793 Z"/>
  </g>
  <g id="Semibold-S" transform="matrix(1 0 0 1 1998.47 696)">
   <path d="M 44.7754 -13.2812 C 46.4844 -13.2812 47.9492 -13.916 49.2676 -15.2832 L 78.2227 -44.5312 C 79.248 -45.6055 79.834 -46.9238 79.834 -48.4863 C 79.834 -51.6602 77.2949 -54.1504 74.1699 -54.1504 C 72.6562 -54.1504 71.1914 -53.5156 70.0684 -52.3926 L 44.8242 -26.709 L 19.5312 -52.3926 C 18.4082 -53.5156 16.9922 -54.1504 15.3809 -54.1504 C 12.2559 -54.1504 9.76562 -51.6602 9.76562 -48.4863 C 9.76562 -46.9238 10.3027 -45.6055 11.377 -44.5312 L 40.332 -15.2832 C 41.6992 -13.916 43.1152 -13.2812 44.7754 -13.2812 Z"/>
  </g>
  <g id="Medium-S" transform="matrix(1 0 0 1 1702.2 696)">
   <path d="M 44.3848 -13.6719 C 45.8008 -13.6719 47.1191 -14.209 48.1445 -15.332 L 77.5391 -44.9707 C 78.4668 -45.8984 78.9551 -47.0703 78.9551 -48.4375 C 78.9551 -51.2207 76.8066 -53.418 74.0234 -53.418 C 72.7051 -53.418 71.4355 -52.832 70.459 -51.9043 L 44.3848 -25.5371 L 18.2617 -51.9043 C 17.334 -52.832 16.0645 -53.418 14.6973 -53.418 C 11.9141 -53.418 9.76562 -51.2207 9.76562 -48.4375 C 9.76562 -47.0703 10.2539 -45.8984 11.1816 -44.9707 L 40.5762 -15.332 C 41.6992 -14.209 42.9688 -13.6719 44.3848 -13.6719 Z"/>
  </g>
  <g id="Regular-S" transform="matrix(1 0 0 1 1406.02 696)">
   <path d="M 43.8477 -14.1602 C 44.9219 -14.1602 45.9961 -14.5508 46.7285 -15.3809 L 76.709 -45.5566 C 77.4414 -46.2891 77.8809 -47.2656 77.8809 -48.3887 C 77.8809 -50.6836 76.1719 -52.4414 73.877 -52.4414 C 72.8027 -52.4414 71.7285 -51.9531 70.9961 -51.2695 L 43.8477 -23.9746 L 16.6504 -51.2695 C 15.918 -51.9531 14.9414 -52.4414 13.8184 -52.4414 C 11.5234 -52.4414 9.76562 -50.6836 9.76562 -48.3887 C 9.76562 -47.2656 10.2051 -46.2891 10.9375 -45.5566 L 40.9668 -15.3809 C 41.748 -14.5508 42.7246 -14.1602 43.8477 -14.1602 Z"/>
  </g>
  <g id="Light-S" transform="matrix(1 0 0 1 1110.82 696)">
   <path d="M 42.2852 -15.4297 C 43.1641 -15.4297 44.043 -15.8203 44.6289 -16.4551 L 73.9258 -46.875 C 74.5117 -47.5098 74.8535 -48.1934 74.8535 -49.0723 C 74.8535 -50.7812 73.5352 -52.1484 71.7773 -52.1484 C 70.9961 -52.1484 70.166 -51.8066 69.5801 -51.2695 L 42.334 -22.9492 L 14.9902 -51.2695 C 14.4531 -51.8066 13.6719 -52.1484 12.8418 -52.1484 C 11.084 -52.1484 9.76562 -50.7812 9.76562 -49.0723 C 9.76562 -48.1934 10.1074 -47.4609 10.6934 -46.875 L 39.9902 -16.4551 C 40.6738 -15.8203 41.4062 -15.4297 42.2852 -15.4297 Z"/>
  </g>
  <g id="Thin-S" transform="matrix(1 0 0 1 816.115 696)">
   <path d="M 40.2832 -17.1387 C 40.918 -17.1387 41.4551 -17.4805 41.8945 -17.9199 L 70.2637 -48.6816 C 70.6055 -49.0723 70.8496 -49.4141 70.8496 -49.9512 C 70.8496 -50.9277 70.0684 -51.709 69.043 -51.709 C 68.6035 -51.709 68.1152 -51.5625 67.7734 -51.2207 L 40.332 -21.5332 L 12.793 -51.2207 C 12.5 -51.5625 12.0117 -51.709 11.5723 -51.709 C 10.5469 -51.709 9.76562 -50.9277 9.76562 -49.9512 C 9.76562 -49.4141 10.0098 -49.0234 10.3516 -48.6328 L 38.7207 -17.8711 C 39.209 -17.4316 39.6973 -17.1387 40.2832 -17.1387 Z"/>
  </g>
  <g id="Ultralight-S" transform="matrix(1 0 0 1 520.429 696)">
   <path d="M 39.2578 -18.0176 C 39.7461 -18.0176 40.0879 -18.3105 40.4785 -18.6523 L 68.4082 -49.6094 C 68.6035 -49.8535 68.7988 -50.0488 68.7988 -50.3906 C 68.7988 -51.0254 68.2617 -51.5137 67.6758 -51.5137 C 67.3828 -51.5137 67.041 -51.4648 66.7969 -51.2207 L 39.3066 -20.8008 L 11.6699 -51.2207 C 11.5234 -51.4648 11.1816 -51.5137 10.8887 -51.5137 C 10.2539 -51.5137 9.76562 -51.0254 9.76562 -50.3906 C 9.76562 -50.0488 9.96094 -49.8047 10.2051 -49.5605 L 38.0859 -18.6523 C 38.4766 -18.2617 38.7695 -18.0176 39.2578 -18.0176 Z"/>
  </g>
 </g>
</svg>
