<?xml version="1.0" encoding="UTF-8"?>
<!--Generator: Apple Native CoreSVG 123-->
<!DOCTYPE svg
PUBLIC "-//W3C//DTD SVG 1.1//EN"
       "http://www.w3.org/Graphics/SVG/1.1/DTD/svg11.dtd">
<svg version="1.1" xmlns="http://www.w3.org/2000/svg" xmlns:xlink="http://www.w3.org/1999/xlink" width="3300" height="2200">
 <!--glyph: "uni1000F3.medium", point size: 100.000000, font version: "Version 15.0d7e11", template writer version: "5"-->
 <g id="Notes">
  <rect height="2200" id="artboard" style="fill:white;opacity:1" width="3300" x="0" y="0"/>
  <line id="" style="fill:none;stroke:black;opacity:1;stroke-width:0.5;" x1="263" x2="3036" y1="292" y2="292"/>
  <text style="stroke:none;fill:black;font-family:-apple-system,&quot;SF Pro Display&quot;,&quot;SF Pro Text&quot;,Helvetica,sans-serif;font-weight:bold;" transform="matrix(1 0 0 1 263 322)">Weight/Scale Variations</text>
  <text style="stroke:none;fill:black;font-family:-apple-system,&quot;SF Pro Display&quot;,&quot;SF Pro Text&quot;,Helvetica,sans-serif;text-anchor:middle;" transform="matrix(1 0 0 1 559.711 322)">Ultralight</text>
  <text style="stroke:none;fill:black;font-family:-apple-system,&quot;SF Pro Display&quot;,&quot;SF Pro Text&quot;,Helvetica,sans-serif;text-anchor:middle;" transform="matrix(1 0 0 1 856.422 322)">Thin</text>
  <text style="stroke:none;fill:black;font-family:-apple-system,&quot;SF Pro Display&quot;,&quot;SF Pro Text&quot;,Helvetica,sans-serif;text-anchor:middle;" transform="matrix(1 0 0 1 1153.13 322)">Light</text>
  <text style="stroke:none;fill:black;font-family:-apple-system,&quot;SF Pro Display&quot;,&quot;SF Pro Text&quot;,Helvetica,sans-serif;text-anchor:middle;" transform="matrix(1 0 0 1 1449.84 322)">Regular</text>
  <text style="stroke:none;fill:black;font-family:-apple-system,&quot;SF Pro Display&quot;,&quot;SF Pro Text&quot;,Helvetica,sans-serif;text-anchor:middle;" transform="matrix(1 0 0 1 1746.56 322)">Medium</text>
  <text style="stroke:none;fill:black;font-family:-apple-system,&quot;SF Pro Display&quot;,&quot;SF Pro Text&quot;,Helvetica,sans-serif;text-anchor:middle;" transform="matrix(1 0 0 1 2043.27 322)">Semibold</text>
  <text style="stroke:none;fill:black;font-family:-apple-system,&quot;SF Pro Display&quot;,&quot;SF Pro Text&quot;,Helvetica,sans-serif;text-anchor:middle;" transform="matrix(1 0 0 1 2339.98 322)">Bold</text>
  <text style="stroke:none;fill:black;font-family:-apple-system,&quot;SF Pro Display&quot;,&quot;SF Pro Text&quot;,Helvetica,sans-serif;text-anchor:middle;" transform="matrix(1 0 0 1 2636.69 322)">Heavy</text>
  <text style="stroke:none;fill:black;font-family:-apple-system,&quot;SF Pro Display&quot;,&quot;SF Pro Text&quot;,Helvetica,sans-serif;text-anchor:middle;" transform="matrix(1 0 0 1 2933.4 322)">Black</text>
  <line id="" style="fill:none;stroke:black;opacity:1;stroke-width:0.5;" x1="263" x2="3036" y1="1903" y2="1903"/>
  <g id="" transform="matrix(1 0 0 1 263 1933)">
   <path d="M 9.24805 0.830078 C 13.5547 0.830078 17.1387 -2.74414 17.1387 -7.05078 C 17.1387 -11.3574 13.5449 -14.9316 9.23828 -14.9316 C 4.94141 -14.9316 1.36719 -11.3574 1.36719 -7.05078 C 1.36719 -2.74414 4.95117 0.830078 9.24805 0.830078 Z M 9.24805 -0.654297 C 5.70312 -0.654297 2.87109 -3.49609 2.87109 -7.05078 C 2.87109 -10.6055 5.69336 -13.4473 9.23828 -13.4473 C 12.793 -13.4473 15.6348 -10.6055 15.6445 -7.05078 C 15.6543 -3.49609 12.8027 -0.654297 9.24805 -0.654297 Z M 9.22852 -3.42773 C 9.69727 -3.42773 9.9707 -3.74023 9.9707 -4.25781 L 9.9707 -6.31836 L 12.1973 -6.31836 C 12.6953 -6.31836 13.0371 -6.57227 13.0371 -7.04102 C 13.0371 -7.51953 12.7148 -7.7832 12.1973 -7.7832 L 9.9707 -7.7832 L 9.9707 -10.0098 C 9.9707 -10.5273 9.69727 -10.8496 9.22852 -10.8496 C 8.75977 -10.8496 8.50586 -10.5078 8.50586 -10.0098 L 8.50586 -7.7832 L 6.29883 -7.7832 C 5.78125 -7.7832 5.44922 -7.51953 5.44922 -7.04102 C 5.44922 -6.57227 5.80078 -6.31836 6.29883 -6.31836 L 8.50586 -6.31836 L 8.50586 -4.25781 C 8.50586 -3.75977 8.75977 -3.42773 9.22852 -3.42773 Z"/>
  </g>
  <g id="" transform="matrix(1 0 0 1 281.506 1933)">
   <path d="M 11.709 2.91016 C 17.1582 2.91016 21.6699 -1.60156 21.6699 -7.05078 C 21.6699 -12.4902 17.1484 -17.0117 11.6992 -17.0117 C 6.25977 -17.0117 1.74805 -12.4902 1.74805 -7.05078 C 1.74805 -1.60156 6.26953 2.91016 11.709 2.91016 Z M 11.709 1.25 C 7.09961 1.25 3.41797 -2.44141 3.41797 -7.05078 C 3.41797 -11.6504 7.08984 -15.3516 11.6992 -15.3516 C 16.3086 -15.3516 20 -11.6504 20.0098 -7.05078 C 20.0195 -2.44141 16.3184 1.25 11.709 1.25 Z M 11.6895 -2.41211 C 12.207 -2.41211 12.5195 -2.77344 12.5195 -3.33984 L 12.5195 -6.23047 L 15.5762 -6.23047 C 16.123 -6.23047 16.5039 -6.51367 16.5039 -7.03125 C 16.5039 -7.55859 16.1426 -7.86133 15.5762 -7.86133 L 12.5195 -7.86133 L 12.5195 -10.9277 C 12.5195 -11.5039 12.207 -11.8555 11.6895 -11.8555 C 11.1719 -11.8555 10.8789 -11.4844 10.8789 -10.9277 L 10.8789 -7.86133 L 7.83203 -7.86133 C 7.26562 -7.86133 6.89453 -7.55859 6.89453 -7.03125 C 6.89453 -6.51367 7.28516 -6.23047 7.83203 -6.23047 L 10.8789 -6.23047 L 10.8789 -3.33984 C 10.8789 -2.79297 11.1719 -2.41211 11.6895 -2.41211 Z"/>
  </g>
  <g id="" transform="matrix(1 0 0 1 304.924 1933)">
   <path d="M 14.9707 5.67383 C 21.9336 5.67383 27.6953 -0.078125 27.6953 -7.04102 C 27.6953 -14.0039 21.9238 -19.7559 14.9609 -19.7559 C 8.00781 -19.7559 2.25586 -14.0039 2.25586 -7.04102 C 2.25586 -0.078125 8.01758 5.67383 14.9707 5.67383 Z M 14.9707 3.85742 C 8.93555 3.85742 4.08203 -1.00586 4.08203 -7.04102 C 4.08203 -13.0762 8.92578 -17.9395 14.9609 -17.9395 C 21.0059 -17.9395 25.8594 -13.0762 25.8691 -7.04102 C 25.8789 -1.00586 21.0156 3.85742 14.9707 3.85742 Z M 14.9512 -1.06445 C 15.5176 -1.06445 15.8691 -1.45508 15.8691 -2.06055 L 15.8691 -6.13281 L 20.1074 -6.13281 C 20.6934 -6.13281 21.1133 -6.46484 21.1133 -7.02148 C 21.1133 -7.59766 20.7227 -7.93945 20.1074 -7.93945 L 15.8691 -7.93945 L 15.8691 -12.1875 C 15.8691 -12.8027 15.5176 -13.1934 14.9512 -13.1934 C 14.3848 -13.1934 14.0625 -12.7832 14.0625 -12.1875 L 14.0625 -7.93945 L 9.83398 -7.93945 C 9.21875 -7.93945 8.80859 -7.59766 8.80859 -7.02148 C 8.80859 -6.46484 9.23828 -6.13281 9.83398 -6.13281 L 14.0625 -6.13281 L 14.0625 -2.06055 C 14.0625 -1.47461 14.3848 -1.06445 14.9512 -1.06445 Z"/>
  </g>
  <text style="stroke:none;fill:black;font-family:-apple-system,&quot;SF Pro Display&quot;,&quot;SF Pro Text&quot;,Helvetica,sans-serif;font-weight:bold;" transform="matrix(1 0 0 1 263 1953)">Design Variations</text>
  <text style="stroke:none;fill:black;font-family:-apple-system,&quot;SF Pro Display&quot;,&quot;SF Pro Text&quot;,Helvetica,sans-serif;" transform="matrix(1 0 0 1 263 1971)">Symbols are supported in up to nine weights and three scales.</text>
  <text style="stroke:none;fill:black;font-family:-apple-system,&quot;SF Pro Display&quot;,&quot;SF Pro Text&quot;,Helvetica,sans-serif;" transform="matrix(1 0 0 1 263 1989)">For optimal layout with text and other symbols, vertically align</text>
  <text style="stroke:none;fill:black;font-family:-apple-system,&quot;SF Pro Display&quot;,&quot;SF Pro Text&quot;,Helvetica,sans-serif;" transform="matrix(1 0 0 1 263 2007)">symbols with the adjacent text.</text>
  <rect height="14" id="" style="fill:#00AEEF;stroke:none;opacity:0.4;" width="3" x="776" y="1919"/>
  <g id="" transform="matrix(1 0 0 1 779 1933)">
   <path d="M 10.5273 0 L 12.373 0 L 7.17773 -14.0918 L 5.43945 -14.0918 L 0.244141 0 L 2.08984 0 L 3.50586 -4.0332 L 9.11133 -4.0332 Z M 6.2793 -11.9531 L 6.33789 -11.9531 L 8.59375 -5.52734 L 4.02344 -5.52734 Z"/>
  </g>
  <rect height="14" id="" style="fill:#00AEEF;stroke:none;opacity:0.4;" width="3" x="791.617" y="1919"/>
  <text style="stroke:none;fill:black;font-family:-apple-system,&quot;SF Pro Display&quot;,&quot;SF Pro Text&quot;,Helvetica,sans-serif;font-weight:bold;" transform="matrix(1 0 0 1 776 1953)">Margins</text>
  <text style="stroke:none;fill:black;font-family:-apple-system,&quot;SF Pro Display&quot;,&quot;SF Pro Text&quot;,Helvetica,sans-serif;" transform="matrix(1 0 0 1 776 1971)">Leading and trailing margins on the left and right side of each symbol</text>
  <text style="stroke:none;fill:black;font-family:-apple-system,&quot;SF Pro Display&quot;,&quot;SF Pro Text&quot;,Helvetica,sans-serif;" transform="matrix(1 0 0 1 776 1989)">can be adjusted by modifying the width of the blue rectangles.</text>
  <text style="stroke:none;fill:black;font-family:-apple-system,&quot;SF Pro Display&quot;,&quot;SF Pro Text&quot;,Helvetica,sans-serif;" transform="matrix(1 0 0 1 776 2007)">Modifications are automatically applied proportionally to all</text>
  <text style="stroke:none;fill:black;font-family:-apple-system,&quot;SF Pro Display&quot;,&quot;SF Pro Text&quot;,Helvetica,sans-serif;" transform="matrix(1 0 0 1 776 2025)">scales and weights.</text>
  <g id="" transform="matrix(1 0 0 1 1289 1933)">
   <path d="M 2.83203 3.11523 L 4.375 4.6582 C 5.22461 5.48828 6.19141 5.41992 7.06055 4.46289 L 17.2754 -6.66016 C 17.7051 -6.36719 18.0957 -6.37695 18.5645 -6.47461 L 19.6094 -6.68945 L 20.3027 -5.99609 L 20.2539 -5.47852 C 20.1855 -4.95117 20.3516 -4.53125 20.8496 -4.0332 L 21.6602 -3.22266 C 22.168 -2.71484 22.8223 -2.68555 23.3008 -3.16406 L 26.5527 -6.41602 C 27.0312 -6.89453 27.0117 -7.54883 26.5039 -8.05664 L 25.6836 -8.87695 C 25.1855 -9.375 24.7754 -9.55078 24.2383 -9.47266 L 23.7109 -9.41406 L 23.0566 -10.0781 L 23.3398 -11.2207 C 23.4863 -11.7871 23.3398 -12.2559 22.7148 -12.8613 L 20.3027 -15.2539 C 16.7578 -18.7793 12.2266 -18.6719 9.11133 -15.5371 C 8.69141 -15.1074 8.64258 -14.5215 8.91602 -14.0918 C 9.15039 -13.7207 9.62891 -13.4961 10.2734 -13.6621 C 11.7871 -14.043 13.3008 -13.9258 14.7852 -12.9199 L 14.1602 -11.3379 C 13.9258 -10.752 13.9453 -10.2734 14.1797 -9.83398 L 3.01758 0.439453 C 2.08008 1.30859 1.97266 2.25586 2.83203 3.11523 Z M 10.6738 -15.1465 C 13.3398 -17.1387 16.6504 -16.8262 19.0527 -14.4141 L 21.6797 -11.8066 C 21.9141 -11.5723 21.9434 -11.3867 21.8848 -11.0938 L 21.5039 -9.53125 L 23.0762 -7.95898 L 24.043 -8.04688 C 24.3262 -8.07617 24.4141 -8.05664 24.6387 -7.83203 L 25.2637 -7.20703 L 22.5098 -4.46289 L 21.8848 -5.07812 C 21.6602 -5.30273 21.6406 -5.40039 21.6699 -5.68359 L 21.7578 -6.64062 L 20.1953 -8.20312 L 18.5742 -7.89062 C 18.291 -7.83203 18.1445 -7.83203 17.9102 -8.07617 L 15.7324 -10.2539 C 15.5078 -10.4883 15.4785 -10.625 15.6055 -10.9473 L 16.5527 -13.2227 C 14.9512 -14.7559 12.8418 -15.6055 10.8008 -14.9512 C 10.7129 -14.9219 10.6445 -14.9414 10.6152 -14.9805 C 10.5859 -15.0293 10.5859 -15.0781 10.6738 -15.1465 Z M 4.10156 2.41211 C 3.61328 1.91406 3.78906 1.61133 4.12109 1.30859 L 15.0781 -8.80859 L 16.3086 -7.57812 L 6.15234 3.34961 C 5.84961 3.68164 5.46875 3.7793 5.06836 3.37891 Z"/>
  </g>
  <text style="stroke:none;fill:black;font-family:-apple-system,&quot;SF Pro Display&quot;,&quot;SF Pro Text&quot;,Helvetica,sans-serif;font-weight:bold;" transform="matrix(1 0 0 1 1289 1953)">Exporting</text>
  <text style="stroke:none;fill:black;font-family:-apple-system,&quot;SF Pro Display&quot;,&quot;SF Pro Text&quot;,Helvetica,sans-serif;" transform="matrix(1 0 0 1 1289 1971)">Symbols should be outlined when exporting to ensure the</text>
  <text style="stroke:none;fill:black;font-family:-apple-system,&quot;SF Pro Display&quot;,&quot;SF Pro Text&quot;,Helvetica,sans-serif;" transform="matrix(1 0 0 1 1289 1989)">design is preserved when submitting to Xcode.</text>
  <text id="template-version" style="stroke:none;fill:black;font-family:-apple-system,&quot;SF Pro Display&quot;,&quot;SF Pro Text&quot;,Helvetica,sans-serif;text-anchor:end;" transform="matrix(1 0 0 1 3036 1933)">Template v.1.0</text>
  <text style="stroke:none;fill:black;font-family:-apple-system,&quot;SF Pro Display&quot;,&quot;SF Pro Text&quot;,Helvetica,sans-serif;text-anchor:end;" transform="matrix(1 0 0 1 3036 1951)">Generated from checkmark.square.fill</text>
  <text style="stroke:none;fill:black;font-family:-apple-system,&quot;SF Pro Display&quot;,&quot;SF Pro Text&quot;,Helvetica,sans-serif;text-anchor:end;" transform="matrix(1 0 0 1 3036 1969)">Typeset at 100 points</text>
  <text style="stroke:none;fill:black;font-family:-apple-system,&quot;SF Pro Display&quot;,&quot;SF Pro Text&quot;,Helvetica,sans-serif;" transform="matrix(1 0 0 1 263 726)">Small</text>
  <text style="stroke:none;fill:black;font-family:-apple-system,&quot;SF Pro Display&quot;,&quot;SF Pro Text&quot;,Helvetica,sans-serif;" transform="matrix(1 0 0 1 263 1156)">Medium</text>
  <text style="stroke:none;fill:black;font-family:-apple-system,&quot;SF Pro Display&quot;,&quot;SF Pro Text&quot;,Helvetica,sans-serif;" transform="matrix(1 0 0 1 263 1586)">Large</text>
 </g>
 <g id="Guides">
  <g id="H-reference" style="fill:#27AAE1;stroke:none;" transform="matrix(1 0 0 1 339 696)">
   <path d="M 54.9316 0 L 57.666 0 L 30.5664 -70.459 L 28.0762 -70.459 L 0.976562 0 L 3.66211 0 L 12.9395 -24.4629 L 45.7031 -24.4629 Z M 29.1992 -67.0898 L 29.4434 -67.0898 L 44.8242 -26.709 L 13.8184 -26.709 Z"/>
  </g>
  <line id="Baseline-S" style="fill:none;stroke:#27AAE1;opacity:1;stroke-width:0.577;" x1="263" x2="3036" y1="696" y2="696"/>
  <line id="Capline-S" style="fill:none;stroke:#27AAE1;opacity:1;stroke-width:0.577;" x1="263" x2="3036" y1="625.541" y2="625.541"/>
  <g id="H-reference" style="fill:#27AAE1;stroke:none;" transform="matrix(1 0 0 1 339 1126)">
   <path d="M 54.9316 0 L 57.666 0 L 30.5664 -70.459 L 28.0762 -70.459 L 0.976562 0 L 3.66211 0 L 12.9395 -24.4629 L 45.7031 -24.4629 Z M 29.1992 -67.0898 L 29.4434 -67.0898 L 44.8242 -26.709 L 13.8184 -26.709 Z"/>
  </g>
  <line id="Baseline-M" style="fill:none;stroke:#27AAE1;opacity:1;stroke-width:0.577;" x1="263" x2="3036" y1="1126" y2="1126"/>
  <line id="Capline-M" style="fill:none;stroke:#27AAE1;opacity:1;stroke-width:0.577;" x1="263" x2="3036" y1="1055.54" y2="1055.54"/>
  <g id="H-reference" style="fill:#27AAE1;stroke:none;" transform="matrix(1 0 0 1 339 1556)">
   <path d="M 54.9316 0 L 57.666 0 L 30.5664 -70.459 L 28.0762 -70.459 L 0.976562 0 L 3.66211 0 L 12.9395 -24.4629 L 45.7031 -24.4629 Z M 29.1992 -67.0898 L 29.4434 -67.0898 L 44.8242 -26.709 L 13.8184 -26.709 Z"/>
  </g>
  <line id="Baseline-L" style="fill:none;stroke:#27AAE1;opacity:1;stroke-width:0.577;" x1="263" x2="3036" y1="1556" y2="1556"/>
  <line id="Capline-L" style="fill:none;stroke:#27AAE1;opacity:1;stroke-width:0.577;" x1="263" x2="3036" y1="1485.54" y2="1485.54"/>
  <rect height="119.336" id="left-margin" style="fill:#00AEEF;stroke:none;opacity:0.4;" width="12.4512" x="1392.45" y="1030.79"/>
  <rect height="119.336" id="right-margin" style="fill:#00AEEF;stroke:none;opacity:0.4;" width="12.4512" x="1494.79" y="1030.79"/>
 </g>
 <g id="Symbols">
  <g id="Black-L" transform="matrix(1 0 0 1 2855.62 1556)">
   <path d="M 39.9902 26.5137 L 115.576 26.5137 C 130.811 26.5137 139.502 17.8711 139.502 2.68555 L 139.502 -73.0957 C 139.502 -88.2812 130.811 -96.875 115.576 -96.875 L 39.9902 -96.875 C 24.7559 -96.875 16.0645 -88.2812 16.0645 -73.0957 L 16.0645 2.68555 C 16.0645 17.8711 24.7559 26.5137 39.9902 26.5137 Z M 69.6777 -0.244141 C 66.4062 -0.244141 63.7695 -1.85547 61.7188 -4.19922 L 43.9453 -25.1465 C 42.1387 -27.1484 41.5039 -28.9551 41.5039 -31.1035 C 41.5039 -35.7422 45.3125 -39.4043 49.9023 -39.4043 C 52.4902 -39.4043 54.541 -38.2324 56.3477 -36.1816 L 69.6289 -20.5078 L 95.1172 -60.9375 C 97.1191 -64.0625 99.4629 -65.6738 102.49 -65.6738 C 106.982 -65.6738 111.035 -62.3047 111.035 -57.7148 C 111.035 -56.0059 110.352 -54.0527 109.18 -52.1484 L 77.5879 -4.63867 C 75.7812 -1.95312 72.8516 -0.244141 69.6777 -0.244141 Z"/>
  </g>
  <g id="Heavy-L" transform="matrix(1 0 0 1 2559.93 1556)">
   <path d="M 38.8184 25.4883 L 114.697 25.4883 C 129.346 25.4883 137.451 17.4316 137.451 2.88086 L 137.451 -73.2422 C 137.451 -87.793 129.346 -95.8496 114.697 -95.8496 L 38.8184 -95.8496 C 24.2188 -95.8496 16.0645 -87.793 16.0645 -73.2422 L 16.0645 2.88086 C 16.0645 17.4316 24.2188 25.4883 38.8184 25.4883 Z M 68.75 -0.976562 C 65.8203 -0.976562 63.4766 -2.34375 61.5234 -4.58984 L 43.5059 -25.9766 C 41.9434 -27.7832 41.3086 -29.4434 41.3086 -31.3965 C 41.3086 -35.5469 44.7266 -38.7695 48.7793 -38.7695 C 51.123 -38.7695 52.9785 -37.7441 54.6875 -35.791 L 68.6523 -19.043 L 95.2637 -61.3281 C 97.0703 -64.1113 99.2188 -65.5273 101.855 -65.5273 C 105.811 -65.5273 109.473 -62.5977 109.473 -58.4961 C 109.473 -56.8848 108.789 -55.0781 107.715 -53.3691 L 75.8789 -4.93164 C 74.1699 -2.44141 71.582 -0.976562 68.75 -0.976562 Z"/>
  </g>
  <g id="Bold-L" transform="matrix(1 0 0 1 2264.37 1556)">
   <path d="M 37.5 24.3652 L 113.721 24.3652 C 127.637 24.3652 135.156 16.8945 135.156 3.07617 L 135.156 -73.3887 C 135.156 -87.207 127.637 -94.7266 113.721 -94.7266 L 37.5 -94.7266 C 23.6328 -94.7266 16.0645 -87.2559 16.0645 -73.3887 L 16.0645 3.07617 C 16.0645 16.8945 23.6328 24.3652 37.5 24.3652 Z M 67.6758 -1.75781 C 65.1367 -1.75781 63.0859 -2.92969 61.3281 -5.0293 L 43.0176 -26.9531 C 41.6992 -28.4668 41.1133 -30.0293 41.1133 -31.6895 C 41.1133 -35.3027 44.043 -38.0859 47.5098 -38.0859 C 49.6094 -38.0859 51.2695 -37.207 52.832 -35.4004 L 67.5293 -17.4316 L 95.459 -61.7676 C 97.0215 -64.1602 98.877 -65.3809 101.123 -65.3809 C 104.541 -65.3809 107.715 -62.8906 107.715 -59.3262 C 107.715 -57.8613 107.08 -56.25 106.104 -54.7363 L 73.9258 -5.27344 C 72.4121 -3.02734 70.2148 -1.75781 67.6758 -1.75781 Z"/>
  </g>
  <g id="Semibold-L" transform="matrix(1 0 0 1 1968.44 1556)">
   <path d="M 36.6211 23.584 L 113.037 23.584 C 126.514 23.584 133.594 16.5039 133.594 3.17383 L 133.594 -73.5352 C 133.594 -86.8164 126.514 -93.9453 113.037 -93.9453 L 36.6211 -93.9453 C 23.1934 -93.9453 16.0645 -86.8652 16.0645 -73.5352 L 16.0645 3.17383 C 16.0645 16.5527 23.1934 23.584 36.6211 23.584 Z M 66.9922 -2.29492 C 64.6973 -2.29492 62.8906 -3.32031 61.1816 -5.32227 L 42.6758 -27.5879 C 41.5039 -28.9062 40.9668 -30.4199 40.9668 -31.8848 C 40.9668 -35.1562 43.6035 -37.5977 46.6797 -37.5977 C 48.5352 -37.5977 50.0977 -36.8652 51.5625 -35.0586 L 66.7969 -16.3086 L 95.6055 -62.0605 C 96.9727 -64.209 98.6816 -65.2832 100.635 -65.2832 C 103.662 -65.2832 106.543 -63.1348 106.543 -59.8633 C 106.543 -58.4961 105.859 -57.0312 105.029 -55.6641 L 72.5586 -5.51758 C 71.1914 -3.41797 69.2383 -2.29492 66.9922 -2.29492 Z"/>
  </g>
  <g id="Medium-L" transform="matrix(1 0 0 1 1672.31 1556)">
   <path d="M 35.9375 22.998 L 112.5 22.998 C 125.635 22.998 132.422 16.2109 132.422 3.27148 L 132.422 -73.6328 C 132.422 -86.5234 125.635 -93.3105 112.5 -93.3105 L 35.9375 -93.3105 C 22.9004 -93.3105 16.0645 -86.5723 16.0645 -73.6328 L 16.0645 3.27148 C 16.0645 16.2598 22.9004 22.998 35.9375 22.998 Z M 66.4062 -2.73438 C 64.3066 -2.73438 62.6953 -3.61328 61.084 -5.56641 L 42.3828 -28.0762 C 41.4062 -29.2969 40.8691 -30.6641 40.8691 -32.0801 C 40.8691 -35.0098 43.2129 -37.2559 45.9961 -37.2559 C 47.7539 -37.2559 49.2188 -36.5723 50.5859 -34.8633 L 66.2109 -15.4297 L 95.7031 -62.3047 C 96.9238 -64.209 98.5352 -65.1855 100.244 -65.1855 C 102.979 -65.1855 105.615 -63.2812 105.615 -60.3027 C 105.615 -59.0332 104.932 -57.6172 104.15 -56.3965 L 71.582 -5.66406 C 70.2637 -3.71094 68.5059 -2.73438 66.4062 -2.73438 Z"/>
  </g>
  <g id="Regular-L" transform="matrix(1 0 0 1 1376.38 1556)">
   <path d="M 35.0586 22.2168 L 111.816 22.2168 C 124.463 22.2168 130.859 15.8691 130.859 3.41797 L 130.859 -73.7305 C 130.859 -86.1816 124.463 -92.5293 111.816 -92.5293 L 35.0586 -92.5293 C 22.4609 -92.5293 16.0645 -86.2305 16.0645 -73.7305 L 16.0645 3.41797 C 16.0645 15.918 22.4609 22.2168 35.0586 22.2168 Z M 65.6738 -3.27148 C 63.8672 -3.27148 62.4512 -4.00391 60.9375 -5.85938 L 42.0898 -28.7109 C 41.2109 -29.7363 40.7227 -31.0547 40.7227 -32.2754 C 40.7227 -34.8633 42.7734 -36.7676 45.166 -36.7676 C 46.7285 -36.7676 48.0469 -36.1816 49.3164 -34.5703 L 65.4785 -14.3066 L 95.8496 -62.5977 C 96.875 -64.2578 98.3398 -65.0879 99.7559 -65.0879 C 102.1 -65.0879 104.395 -63.4766 104.395 -60.8887 C 104.395 -59.7168 103.76 -58.3984 103.076 -57.3242 L 70.2148 -5.9082 C 69.043 -4.10156 67.5293 -3.27148 65.6738 -3.27148 Z"/>
  </g>
  <g id="Light-L" transform="matrix(1 0 0 1 1080.5 1556)">
   <path d="M 34.0332 21.4355 L 111.23 21.4355 C 123.096 21.4355 129.199 15.2344 129.199 3.56445 L 129.199 -73.8281 C 129.199 -85.5469 123.096 -91.6992 111.23 -91.6992 L 34.0332 -91.6992 C 22.168 -91.6992 16.0645 -85.6445 16.0645 -73.8281 L 16.0645 3.56445 C 16.0645 15.3809 22.168 21.4355 34.0332 21.4355 Z M 66.0156 -3.66211 C 64.5996 -3.66211 63.5254 -4.19922 62.3535 -5.66406 L 42.5781 -29.1016 C 41.8945 -29.9316 41.5039 -30.957 41.5039 -31.9336 C 41.5039 -33.9844 43.1641 -35.4492 44.9707 -35.4492 C 46.1914 -35.4492 47.2168 -34.9609 48.1934 -33.7402 L 65.8203 -12.4512 L 97.7051 -62.5488 C 98.4863 -63.8672 99.6582 -64.5508 100.781 -64.5508 C 102.588 -64.5508 104.395 -63.2324 104.395 -61.1816 C 104.395 -60.3027 103.906 -59.3262 103.418 -58.4961 L 69.4824 -5.71289 C 68.5547 -4.29688 67.3828 -3.66211 66.0156 -3.66211 Z"/>
  </g>
  <g id="Thin-L" transform="matrix(1 0 0 1 784.889 1556)">
   <path d="M 32.666 20.3613 L 110.352 20.3613 C 121.24 20.3613 127.002 14.4531 127.002 3.75977 L 127.002 -73.9746 C 127.002 -84.7168 121.24 -90.5762 110.352 -90.5762 L 32.666 -90.5762 C 21.7773 -90.5762 16.0645 -84.8633 16.0645 -73.9746 L 16.0645 3.75977 C 16.0645 14.6484 21.7773 20.3613 32.666 20.3613 Z M 66.4062 -4.24805 C 65.5762 -4.24805 64.9902 -4.49219 64.209 -5.37109 L 43.2129 -29.5898 C 42.7734 -30.127 42.4805 -30.8105 42.4805 -31.4453 C 42.4805 -32.8613 43.6523 -33.6426 44.6777 -33.6426 C 45.5078 -33.6426 46.0938 -33.3496 46.6797 -32.666 L 66.3086 -10.0098 L 100.195 -62.5488 C 100.684 -63.3301 101.416 -63.7695 102.148 -63.7695 C 103.223 -63.7695 104.395 -62.9395 104.395 -61.6211 C 104.395 -61.1328 104.15 -60.5469 103.857 -60.0098 L 68.5059 -5.41992 C 67.9199 -4.54102 67.1875 -4.24805 66.4062 -4.24805 Z"/>
  </g>
  <g id="Ultralight-L" transform="matrix(1 0 0 1 488.739 1556)">
   <path d="M 31.9824 19.7754 L 109.961 19.7754 C 120.312 19.7754 125.879 14.0625 125.879 3.85742 L 125.879 -74.0723 C 125.879 -84.2773 120.312 -89.9902 109.961 -89.9902 L 31.9824 -89.9902 C 21.582 -89.9902 16.0645 -84.4727 16.0645 -74.0723 L 16.0645 3.85742 C 16.0645 14.2578 21.582 19.7754 31.9824 19.7754 Z M 66.6016 -4.54102 C 66.0645 -4.54102 65.7227 -4.63867 65.1855 -5.22461 L 43.5547 -29.834 C 43.2129 -30.2734 43.0176 -30.7129 43.0176 -31.2012 C 43.0176 -32.2754 43.9453 -32.7148 44.5312 -32.7148 C 45.166 -32.7148 45.5566 -32.5195 45.9473 -32.1289 L 66.5039 -8.78906 L 101.416 -62.5488 C 101.758 -63.0371 102.295 -63.3789 102.832 -63.3789 C 103.564 -63.3789 104.346 -62.793 104.346 -61.8164 C 104.346 -61.5234 104.248 -61.1328 104.053 -60.8398 L 68.0176 -5.27344 C 67.627 -4.6875 67.0898 -4.54102 66.6016 -4.54102 Z"/>
  </g>
  <g id="Black-M" transform="matrix(1 0 0 1 2872.19 1126)">
   <path d="M 31.9824 13.5742 L 90.4297 13.5742 C 102.686 13.5742 109.961 6.29883 109.961 -5.95703 L 109.961 -64.4043 C 109.961 -76.6602 102.686 -83.9355 90.4297 -83.9355 L 31.9824 -83.9355 C 19.7266 -83.9355 12.4512 -76.6602 12.4512 -64.4043 L 12.4512 -5.95703 C 12.4512 6.29883 19.7266 13.5742 31.9824 13.5742 Z M 55.4688 -7.42188 C 52.6855 -7.42188 50.4395 -8.78906 48.877 -10.5469 L 34.9121 -26.4648 C 33.3008 -28.2227 32.8125 -29.6387 32.8125 -31.4941 C 32.8125 -35.4492 36.1328 -38.5742 40.0391 -38.5742 C 42.2363 -38.5742 43.8477 -37.5488 45.3125 -36.084 L 55.4688 -24.8047 L 74.4629 -54.5898 C 76.2207 -57.3242 78.1738 -58.6914 80.8594 -58.6914 C 84.7168 -58.6914 88.1836 -55.7129 88.1836 -51.8555 C 88.1836 -50.4395 87.7441 -48.877 86.7188 -47.3145 L 62.1094 -11.0352 C 60.5957 -8.83789 58.0566 -7.42188 55.4688 -7.42188 Z"/>
  </g>
  <g id="Heavy-M" transform="matrix(1 0 0 1 2576.39 1126)">
   <path d="M 31.0059 12.6465 L 89.6484 12.6465 C 101.416 12.6465 108.154 5.9082 108.154 -5.81055 L 108.154 -64.5508 C 108.154 -76.2695 101.416 -83.0566 89.6484 -83.0566 L 31.0059 -83.0566 C 19.2383 -83.0566 12.4512 -76.3184 12.4512 -64.5508 L 12.4512 -5.81055 C 12.4512 5.9082 19.2383 12.6465 31.0059 12.6465 Z M 54.3457 -8.05664 C 51.8555 -8.05664 49.8047 -9.27734 48.291 -11.0352 L 34.2773 -27.2949 C 32.9102 -28.8574 32.4219 -30.2246 32.4219 -31.8848 C 32.4219 -35.4492 35.4004 -38.2324 38.8672 -38.2324 C 40.8691 -38.2324 42.4316 -37.3535 43.7988 -35.8398 L 54.2969 -23.6816 L 74.1699 -55.0293 C 75.7324 -57.4707 77.5391 -58.6914 79.8828 -58.6914 C 83.3496 -58.6914 86.4746 -56.1035 86.4746 -52.5879 C 86.4746 -51.2695 85.9863 -49.8047 85.0586 -48.3398 L 60.4004 -11.4258 C 58.9844 -9.375 56.7383 -8.05664 54.3457 -8.05664 Z"/>
  </g>
  <g id="Bold-M" transform="matrix(1 0 0 1 2280.68 1126)">
   <path d="M 29.8828 11.6699 L 88.7207 11.6699 C 99.9512 11.6699 106.152 5.46875 106.152 -5.66406 L 106.152 -64.6973 C 106.152 -75.8789 99.9512 -82.0312 88.7207 -82.0312 L 29.8828 -82.0312 C 18.6523 -82.0312 12.4512 -75.8789 12.4512 -64.6973 L 12.4512 -5.66406 C 12.4512 5.51758 18.6523 11.6699 29.8828 11.6699 Z M 53.0762 -8.78906 C 50.8789 -8.78906 49.1211 -9.86328 47.6562 -11.5723 L 33.5938 -28.2227 C 32.4707 -29.541 31.9824 -30.8594 31.9824 -32.3242 C 31.9824 -35.4492 34.5215 -37.8906 37.5977 -37.8906 C 39.3555 -37.8906 40.7715 -37.1094 42.0898 -35.6445 L 52.9785 -22.4609 L 73.8281 -55.5176 C 75.1953 -57.6172 76.8066 -58.6914 78.8086 -58.6914 C 81.7871 -58.6914 84.5703 -56.4941 84.5703 -53.3691 C 84.5703 -52.1484 84.0332 -50.7812 83.2031 -49.5117 L 58.4961 -11.8164 C 57.1777 -9.91211 55.2246 -8.78906 53.0762 -8.78906 Z"/>
  </g>
  <g id="Semibold-M" transform="matrix(1 0 0 1 1984.65 1126)">
   <path d="M 29.1016 10.9863 L 88.0859 10.9863 C 98.9746 10.9863 104.785 5.17578 104.785 -5.56641 L 104.785 -64.8438 C 104.785 -75.5859 98.9746 -81.3477 88.0859 -81.3477 L 29.1016 -81.3477 C 18.2617 -81.3477 12.4512 -75.5859 12.4512 -64.8438 L 12.4512 -5.56641 C 12.4512 5.22461 18.2617 10.9863 29.1016 10.9863 Z M 52.2461 -9.32617 C 50.2441 -9.32617 48.6328 -10.2539 47.168 -11.9629 L 33.1543 -28.8574 C 32.1289 -30.0293 31.6895 -31.2988 31.6895 -32.6172 C 31.6895 -35.4492 33.9355 -37.6465 36.6699 -37.6465 C 38.3301 -37.6465 39.6484 -36.9629 40.918 -35.4492 L 52.0996 -21.582 L 73.6328 -55.8594 C 74.8047 -57.7637 76.3184 -58.6914 78.0273 -58.6914 C 80.7129 -58.6914 83.252 -56.7871 83.252 -53.9551 C 83.252 -52.7832 82.666 -51.4648 81.9336 -50.293 L 57.1777 -12.1094 C 55.957 -10.3027 54.1992 -9.32617 52.2461 -9.32617 Z"/>
  </g>
  <g id="Medium-M" transform="matrix(1 0 0 1 1688.47 1126)">
   <path d="M 28.5156 10.4492 L 87.6465 10.4492 C 98.2422 10.4492 103.711 4.98047 103.711 -5.46875 L 103.711 -64.8926 C 103.711 -75.3418 98.2422 -80.8105 87.6465 -80.8105 L 28.5156 -80.8105 C 17.9688 -80.8105 12.4512 -75.3906 12.4512 -64.8926 L 12.4512 -5.46875 C 12.4512 4.98047 17.9688 10.4492 28.5156 10.4492 Z M 51.6113 -9.7168 C 49.707 -9.7168 48.2422 -10.5469 46.8262 -12.207 L 32.7637 -29.3457 C 31.8848 -30.4199 31.4453 -31.6406 31.4453 -32.8125 C 31.4453 -35.4492 33.4961 -37.4512 35.9863 -37.4512 C 37.5488 -37.4512 38.8184 -36.8164 40.0391 -35.3516 L 51.416 -20.9473 L 73.4375 -56.1035 C 74.5117 -57.8613 75.9277 -58.6914 77.4414 -58.6914 C 79.9316 -58.6914 82.2266 -56.9824 82.2266 -54.3945 C 82.2266 -53.2227 81.6406 -52.002 80.957 -50.9277 L 56.1523 -12.3535 C 55.0293 -10.5957 53.418 -9.7168 51.6113 -9.7168 Z"/>
  </g>
  <g id="Regular-M" transform="matrix(1 0 0 1 1392.45 1126)">
   <path d="M 27.7832 9.76562 L 87.0117 9.76562 C 97.2656 9.76562 102.344 4.6875 102.344 -5.37109 L 102.344 -64.9902 C 102.344 -75.0488 97.2656 -80.127 87.0117 -80.127 L 27.7832 -80.127 C 17.5781 -80.127 12.4512 -75.0977 12.4512 -64.9902 L 12.4512 -5.37109 C 12.4512 4.73633 17.5781 9.76562 27.7832 9.76562 Z M 50.7324 -10.2051 C 49.0723 -10.2051 47.7539 -10.9375 46.3867 -12.5977 L 32.3242 -29.9805 C 31.5918 -30.9082 31.1523 -32.0801 31.1523 -33.1543 C 31.1523 -35.4492 32.9102 -37.207 35.1074 -37.207 C 36.5234 -37.207 37.6953 -36.6699 38.8672 -35.1562 L 50.5371 -20.0684 L 73.1934 -56.4453 C 74.1699 -57.959 75.4395 -58.6914 76.709 -58.6914 C 78.8574 -58.6914 80.9082 -57.2754 80.9082 -54.9316 C 80.9082 -53.8574 80.3223 -52.6855 79.6875 -51.709 L 54.834 -12.5977 C 53.8086 -10.9863 52.4414 -10.2051 50.7324 -10.2051 Z"/>
  </g>
  <g id="Light-M" transform="matrix(1 0 0 1 1096.47 1126)">
   <path d="M 26.8555 9.0332 L 86.4746 9.0332 C 95.9961 9.0332 100.879 4.15039 100.879 -5.22461 L 100.879 -65.0879 C 100.879 -74.5117 95.9961 -79.3945 86.4746 -79.3945 L 26.8555 -79.3945 C 17.334 -79.3945 12.4512 -74.5605 12.4512 -65.0879 L 12.4512 -5.22461 C 12.4512 4.19922 17.334 9.0332 26.8555 9.0332 Z M 51.0254 -10.5957 C 49.7559 -10.5957 48.7305 -11.084 47.6562 -12.4023 L 32.7637 -30.3223 C 32.1777 -31.0547 31.8359 -31.9824 31.8359 -32.8125 C 31.8359 -34.668 33.252 -35.9863 34.9121 -35.9863 C 36.0352 -35.9863 36.9629 -35.5957 37.8418 -34.4238 L 50.8301 -18.4082 L 74.9023 -56.3965 C 75.6348 -57.6172 76.6113 -58.2031 77.6367 -58.2031 C 79.2969 -58.2031 80.9082 -57.0801 80.9082 -55.2246 C 80.9082 -54.3945 80.4688 -53.5156 79.9805 -52.7344 L 54.1992 -12.4512 C 53.3691 -11.1816 52.2949 -10.5957 51.0254 -10.5957 Z"/>
  </g>
  <g id="Thin-M" transform="matrix(1 0 0 1 800.758 1126)">
   <path d="M 25.6348 8.05664 L 85.7422 8.05664 C 94.3848 8.05664 98.877 3.4668 98.877 -5.0293 L 98.877 -65.2344 C 98.877 -73.7305 94.3848 -78.3691 85.7422 -78.3691 L 25.6348 -78.3691 C 16.9922 -78.3691 12.4512 -73.877 12.4512 -65.2344 L 12.4512 -5.0293 C 12.4512 3.56445 16.9922 8.05664 25.6348 8.05664 Z M 51.3672 -11.084 C 50.6348 -11.084 50.0488 -11.3281 49.3652 -12.1582 L 33.3496 -30.7617 C 32.959 -31.25 32.7148 -31.8359 32.7148 -32.4219 C 32.7148 -33.6426 33.7402 -34.375 34.668 -34.375 C 35.4492 -34.375 35.9863 -34.1309 36.5234 -33.4473 L 51.2695 -16.2109 L 77.0996 -56.3965 C 77.5391 -57.1289 78.2227 -57.5195 78.8574 -57.5195 C 79.8828 -57.5195 80.9082 -56.7871 80.9082 -55.5664 C 80.9082 -55.127 80.6641 -54.5898 80.3711 -54.1016 L 53.3203 -12.207 C 52.7832 -11.4258 52.0996 -11.084 51.3672 -11.084 Z"/>
  </g>
  <g id="Ultralight-M" transform="matrix(1 0 0 1 504.535 1126)">
   <path d="M 25 7.56836 L 85.3516 7.56836 C 93.5059 7.56836 97.9004 3.125 97.9004 -4.98047 L 97.9004 -65.2832 C 97.9004 -73.3887 93.5059 -77.832 85.3516 -77.832 L 25 -77.832 C 16.7969 -77.832 12.4512 -73.4863 12.4512 -65.2832 L 12.4512 -4.98047 C 12.4512 3.22266 16.7969 7.56836 25 7.56836 Z M 51.5625 -11.3281 C 51.0742 -11.3281 50.7324 -11.4746 50.2441 -12.0117 L 33.6426 -30.957 C 33.3496 -31.3477 33.2031 -31.7871 33.2031 -32.1777 C 33.2031 -33.1055 33.9844 -33.5938 34.5703 -33.5938 C 35.1074 -33.5938 35.4492 -33.3984 35.8398 -32.959 L 51.4648 -15.0879 L 78.2227 -56.3965 C 78.5156 -56.8848 79.0039 -57.1777 79.4922 -57.1777 C 80.1758 -57.1777 80.8594 -56.6406 80.8594 -55.7617 C 80.8594 -55.4688 80.7617 -55.127 80.5664 -54.834 L 52.8809 -12.0605 C 52.4902 -11.5234 52.002 -11.3281 51.5625 -11.3281 Z"/>
  </g>
  <g id="Black-S" transform="matrix(1 0 0 1 2885.5 696)">
   <path d="M 25 2.92969 L 70.8008 2.92969 C 80.3711 2.92969 86.0352 -2.73438 86.0352 -12.3047 L 86.0352 -58.1055 C 86.0352 -67.6758 80.3711 -73.3398 70.8008 -73.3398 L 25 -73.3398 C 15.4297 -73.3398 9.76562 -67.6758 9.76562 -58.1055 L 9.76562 -12.3047 C 9.76562 -2.73438 15.4297 2.92969 25 2.92969 Z M 43.3594 -13.4766 C 41.2109 -13.4766 39.4531 -14.5508 38.2324 -15.918 L 27.2949 -28.418 C 26.0742 -29.7852 25.6836 -30.9082 25.6836 -32.3242 C 25.6836 -35.4004 28.2715 -37.8418 31.2988 -37.8418 C 33.0078 -37.8418 34.2773 -37.0605 35.4004 -35.8887 L 43.3594 -27.002 L 58.3008 -50.4395 C 59.668 -52.5391 61.1816 -53.6133 63.2812 -53.6133 C 66.2598 -53.6133 68.9453 -51.3184 68.9453 -48.291 C 68.9453 -47.2168 68.6035 -45.9961 67.8223 -44.7754 L 48.5352 -16.3086 C 47.3633 -14.5996 45.4102 -13.4766 43.3594 -13.4766 Z"/>
  </g>
  <g id="Heavy-S" transform="matrix(1 0 0 1 2589.4 696)">
   <path d="M 24.3652 2.34375 L 70.2637 2.34375 C 79.541 2.34375 84.8145 -2.97852 84.8145 -12.207 L 84.8145 -58.2031 C 84.8145 -67.4316 79.541 -72.7539 70.2637 -72.7539 L 24.3652 -72.7539 C 15.0879 -72.7539 9.76562 -67.4316 9.76562 -58.2031 L 9.76562 -12.207 C 9.76562 -2.97852 15.0879 2.34375 24.3652 2.34375 Z M 42.4805 -13.916 C 40.4785 -13.916 38.8672 -14.8926 37.6465 -16.3086 L 26.7578 -29.0039 C 25.6836 -30.2734 25.293 -31.3477 25.293 -32.666 C 25.293 -35.498 27.6367 -37.7441 30.4199 -37.7441 C 32.0312 -37.7441 33.252 -37.0117 34.3262 -35.791 L 42.4316 -26.3184 L 57.9102 -50.7812 C 59.1309 -52.6855 60.5469 -53.6621 62.4512 -53.6621 C 65.1367 -53.6621 67.627 -51.6113 67.627 -48.8281 C 67.627 -47.7539 67.2363 -46.582 66.5039 -45.459 L 47.3145 -16.6016 C 46.1914 -14.9414 44.3848 -13.916 42.4805 -13.916 Z"/>
  </g>
  <g id="Bold-S" transform="matrix(1 0 0 1 2293.35 696)">
   <path d="M 23.6328 1.66016 L 69.6289 1.66016 C 78.6133 1.66016 83.4961 -3.22266 83.4961 -12.1094 L 83.4961 -58.3008 C 83.4961 -67.1875 78.6133 -72.0703 69.6289 -72.0703 L 23.6328 -72.0703 C 14.6973 -72.0703 9.76562 -67.1875 9.76562 -58.3008 L 9.76562 -12.1094 C 9.76562 -3.22266 14.6973 1.66016 23.6328 1.66016 Z M 41.5039 -14.4531 C 39.6973 -14.4531 38.2324 -15.332 37.0117 -16.748 L 26.2207 -29.6875 C 25.2441 -30.7617 24.9023 -31.8359 24.9023 -33.0566 C 24.9023 -35.5957 26.9531 -37.5977 29.4434 -37.5977 C 30.9082 -37.5977 32.0801 -36.9629 33.1543 -35.6934 L 41.4062 -25.5859 L 57.4219 -51.123 C 58.5449 -52.8809 59.8633 -53.7598 61.4746 -53.7598 C 63.916 -53.7598 66.1621 -51.9531 66.1621 -49.4141 C 66.1621 -48.3887 65.7227 -47.2656 65.0391 -46.1914 L 45.8984 -16.9434 C 44.873 -15.3809 43.2617 -14.4531 41.5039 -14.4531 Z"/>
  </g>
  <g id="Semibold-S" transform="matrix(1 0 0 1 1997.1 696)">
   <path d="M 23.0957 1.17188 L 69.1895 1.17188 C 77.9297 1.17188 82.5684 -3.36914 82.5684 -12.0117 L 82.5684 -58.3984 C 82.5684 -67.041 77.9297 -71.582 69.1895 -71.582 L 23.0957 -71.582 C 14.4043 -71.582 9.76562 -67.041 9.76562 -58.3984 L 9.76562 -12.0117 C 9.76562 -3.36914 14.4043 1.17188 23.0957 1.17188 Z M 40.8203 -14.7949 C 39.1113 -14.7949 37.7441 -15.625 36.5234 -17.041 L 25.8301 -30.127 C 24.9512 -31.1523 24.6094 -32.1777 24.6094 -33.3008 C 24.6094 -35.6445 26.4648 -37.5 28.7598 -37.5 C 30.1758 -37.5 31.2988 -36.9629 32.373 -35.6445 L 40.6738 -25.0488 L 57.1289 -51.416 C 58.1055 -52.9785 59.375 -53.8086 60.791 -53.8086 C 63.0859 -53.8086 65.1855 -52.1973 65.1855 -49.8047 C 65.1855 -48.8281 64.6973 -47.7051 64.0625 -46.7285 L 44.9707 -17.1875 C 43.9453 -15.6738 42.4805 -14.7949 40.8203 -14.7949 Z"/>
  </g>
  <g id="Medium-S" transform="matrix(1 0 0 1 1700.75 696)">
   <path d="M 22.7051 0.830078 L 68.8965 0.830078 C 77.4414 0.830078 81.8359 -3.51562 81.8359 -11.9629 L 81.8359 -58.4473 C 81.8359 -66.8945 77.4414 -71.2402 68.8965 -71.2402 L 22.7051 -71.2402 C 14.209 -71.2402 9.76562 -66.8945 9.76562 -58.4473 L 9.76562 -11.9629 C 9.76562 -3.51562 14.209 0.830078 22.7051 0.830078 Z M 40.332 -15.0879 C 38.6719 -15.0879 37.4023 -15.8203 36.1816 -17.2852 L 25.4883 -30.5176 C 24.7559 -31.3965 24.3652 -32.4707 24.3652 -33.4961 C 24.3652 -35.6934 26.123 -37.4512 28.2715 -37.4512 C 29.5898 -37.4512 30.7129 -36.9141 31.7383 -35.5957 L 40.1367 -24.6582 L 56.8848 -51.6113 C 57.8125 -53.0762 59.0332 -53.8086 60.3027 -53.8086 C 62.4512 -53.8086 64.4043 -52.3926 64.4043 -50.1465 C 64.4043 -49.1211 63.916 -48.0469 63.2812 -47.1191 L 44.2383 -17.3828 C 43.2617 -15.8691 41.8945 -15.0879 40.332 -15.0879 Z"/>
  </g>
  <g id="Regular-S" transform="matrix(1 0 0 1 1404.51 696)">
   <path d="M 22.2168 0.390625 L 68.457 0.390625 C 76.8066 0.390625 80.9082 -3.71094 80.9082 -11.9141 L 80.9082 -58.4961 C 80.9082 -66.6992 76.8066 -70.8008 68.457 -70.8008 L 22.2168 -70.8008 C 13.916 -70.8008 9.76562 -66.6992 9.76562 -58.4961 L 9.76562 -11.9141 C 9.76562 -3.71094 13.916 0.390625 22.2168 0.390625 Z M 39.6484 -15.4297 C 38.1348 -15.4297 36.9629 -16.1133 35.7422 -17.5781 L 25.0977 -30.957 C 24.4629 -31.7383 24.0723 -32.8125 24.0723 -33.7402 C 24.0723 -35.791 25.6348 -37.3535 27.5879 -37.3535 C 28.8574 -37.3535 29.9316 -36.9141 30.957 -35.5469 L 39.4531 -24.1699 L 56.543 -51.8555 C 57.4219 -53.2227 58.5449 -53.8574 59.668 -53.8574 C 61.5723 -53.8574 63.4277 -52.5879 63.4277 -50.5371 C 63.4277 -49.5605 62.8418 -48.5352 62.3047 -47.6074 L 43.3105 -17.5781 C 42.3828 -16.1621 41.1621 -15.4297 39.6484 -15.4297 Z"/>
  </g>
  <g id="Light-S" transform="matrix(1 0 0 1 1108.46 696)">
   <path d="M 21.3867 -0.292969 L 67.9688 -0.292969 C 75.7324 -0.292969 79.5898 -4.15039 79.5898 -11.7676 L 79.5898 -58.5938 C 79.5898 -66.2109 75.7324 -70.1172 67.9688 -70.1172 L 21.3867 -70.1172 C 13.6719 -70.1172 9.76562 -66.2598 9.76562 -58.5938 L 9.76562 -11.7676 C 9.76562 -4.15039 13.6719 -0.292969 21.3867 -0.292969 Z M 39.8926 -15.7715 C 38.7207 -15.7715 37.8418 -16.2598 36.8652 -17.4316 L 25.5371 -31.25 C 25 -31.8848 24.6582 -32.7148 24.6582 -33.4473 C 24.6582 -35.0586 25.9277 -36.2793 27.4414 -36.2793 C 28.418 -36.2793 29.248 -35.9375 30.0293 -34.8633 L 39.7461 -22.7051 L 58.0566 -51.8555 C 58.6914 -52.8809 59.5703 -53.418 60.498 -53.418 C 61.9629 -53.418 63.4277 -52.3926 63.4277 -50.7812 C 63.4277 -50.0488 62.9883 -49.2188 62.5488 -48.5352 L 42.7246 -17.4316 C 41.9922 -16.3086 41.0156 -15.7715 39.8926 -15.7715 Z"/>
  </g>
  <g id="Thin-S" transform="matrix(1 0 0 1 812.599 696)">
   <path d="M 20.3125 -1.12305 L 67.334 -1.12305 C 74.2676 -1.12305 77.8809 -4.78516 77.8809 -11.6211 L 77.8809 -58.6914 C 77.8809 -65.5762 74.2676 -69.2383 67.334 -69.2383 L 20.3125 -69.2383 C 13.3789 -69.2383 9.76562 -65.625 9.76562 -58.6914 L 9.76562 -11.6211 C 9.76562 -4.6875 13.3789 -1.12305 20.3125 -1.12305 Z M 40.1855 -16.2109 C 39.502 -16.2109 38.9648 -16.4551 38.3789 -17.1875 L 26.0254 -31.6406 C 25.6836 -32.0801 25.4883 -32.6172 25.4883 -33.1055 C 25.4883 -34.1797 26.3672 -34.8633 27.2461 -34.8633 C 27.8809 -34.8633 28.3691 -34.668 28.8574 -34.0332 L 40.0879 -20.752 L 60.0098 -51.8066 C 60.4004 -52.4902 60.9863 -52.832 61.5723 -52.832 C 62.4512 -52.832 63.3789 -52.1484 63.3789 -51.123 C 63.3789 -50.6836 63.1836 -50.1953 62.8906 -49.7559 L 41.9434 -17.2363 C 41.5039 -16.5039 40.8691 -16.2109 40.1855 -16.2109 Z"/>
  </g>
  <g id="Ultralight-S" transform="matrix(1 0 0 1 516.352 696)">
   <path d="M 19.7754 -1.5625 L 66.9922 -1.5625 C 73.5352 -1.5625 76.9531 -5.12695 76.9531 -11.5234 L 76.9531 -58.7891 C 76.9531 -65.2344 73.5352 -68.75 66.9922 -68.75 L 19.7754 -68.75 C 13.2324 -68.75 9.76562 -65.2832 9.76562 -58.7891 L 9.76562 -11.5234 C 9.76562 -5.0293 13.2324 -1.5625 19.7754 -1.5625 Z M 40.332 -16.4551 C 39.8926 -16.4551 39.5508 -16.5527 39.1113 -17.0898 L 26.3184 -31.8359 C 26.0254 -32.1777 25.8789 -32.5195 25.8789 -32.9102 C 25.8789 -33.6914 26.5625 -34.1309 27.1484 -34.1309 C 27.5879 -34.1309 27.9297 -33.9844 28.2715 -33.5938 L 40.2832 -19.7754 L 60.9863 -51.8066 C 61.2793 -52.2461 61.7188 -52.4902 62.1094 -52.4902 C 62.7441 -52.4902 63.3789 -52.0508 63.3789 -51.2695 C 63.3789 -50.9766 63.2812 -50.6836 63.0859 -50.3906 L 41.5527 -17.1387 C 41.2109 -16.6016 40.7715 -16.4551 40.332 -16.4551 Z"/>
  </g>
 </g>
</svg>
