<?xml version="1.0" encoding="UTF-8"?>
<!--Generator: Apple Native CoreSVG 123-->
<!DOCTYPE svg
PUBLIC "-//W3C//DTD SVG 1.1//EN"
       "http://www.w3.org/Graphics/SVG/1.1/DTD/svg11.dtd">
<svg version="1.1" xmlns="http://www.w3.org/2000/svg" xmlns:xlink="http://www.w3.org/1999/xlink" width="3300" height="2200">
 <!--glyph: "uni1000F1.medium", point size: 100.000000, font version: "Version 15.0d7e11", template writer version: "5"-->
 <g id="Notes">
  <rect height="2200" id="artboard" style="fill:white;opacity:1" width="3300" x="0" y="0"/>
  <line id="" style="fill:none;stroke:black;opacity:1;stroke-width:0.5;" x1="263" x2="3036" y1="292" y2="292"/>
  <text style="stroke:none;fill:black;font-family:-apple-system,&quot;SF Pro Display&quot;,&quot;SF Pro Text&quot;,Helvetica,sans-serif;font-weight:bold;" transform="matrix(1 0 0 1 263 322)">Weight/Scale Variations</text>
  <text style="stroke:none;fill:black;font-family:-apple-system,&quot;SF Pro Display&quot;,&quot;SF Pro Text&quot;,Helvetica,sans-serif;text-anchor:middle;" transform="matrix(1 0 0 1 559.711 322)">Ultralight</text>
  <text style="stroke:none;fill:black;font-family:-apple-system,&quot;SF Pro Display&quot;,&quot;SF Pro Text&quot;,Helvetica,sans-serif;text-anchor:middle;" transform="matrix(1 0 0 1 856.422 322)">Thin</text>
  <text style="stroke:none;fill:black;font-family:-apple-system,&quot;SF Pro Display&quot;,&quot;SF Pro Text&quot;,Helvetica,sans-serif;text-anchor:middle;" transform="matrix(1 0 0 1 1153.13 322)">Light</text>
  <text style="stroke:none;fill:black;font-family:-apple-system,&quot;SF Pro Display&quot;,&quot;SF Pro Text&quot;,Helvetica,sans-serif;text-anchor:middle;" transform="matrix(1 0 0 1 1449.84 322)">Regular</text>
  <text style="stroke:none;fill:black;font-family:-apple-system,&quot;SF Pro Display&quot;,&quot;SF Pro Text&quot;,Helvetica,sans-serif;text-anchor:middle;" transform="matrix(1 0 0 1 1746.56 322)">Medium</text>
  <text style="stroke:none;fill:black;font-family:-apple-system,&quot;SF Pro Display&quot;,&quot;SF Pro Text&quot;,Helvetica,sans-serif;text-anchor:middle;" transform="matrix(1 0 0 1 2043.27 322)">Semibold</text>
  <text style="stroke:none;fill:black;font-family:-apple-system,&quot;SF Pro Display&quot;,&quot;SF Pro Text&quot;,Helvetica,sans-serif;text-anchor:middle;" transform="matrix(1 0 0 1 2339.98 322)">Bold</text>
  <text style="stroke:none;fill:black;font-family:-apple-system,&quot;SF Pro Display&quot;,&quot;SF Pro Text&quot;,Helvetica,sans-serif;text-anchor:middle;" transform="matrix(1 0 0 1 2636.69 322)">Heavy</text>
  <text style="stroke:none;fill:black;font-family:-apple-system,&quot;SF Pro Display&quot;,&quot;SF Pro Text&quot;,Helvetica,sans-serif;text-anchor:middle;" transform="matrix(1 0 0 1 2933.4 322)">Black</text>
  <line id="" style="fill:none;stroke:black;opacity:1;stroke-width:0.5;" x1="263" x2="3036" y1="1903" y2="1903"/>
  <g id="" transform="matrix(1 0 0 1 263 1933)">
   <path d="M 9.24805 0.830078 C 13.5547 0.830078 17.1387 -2.74414 17.1387 -7.05078 C 17.1387 -11.3574 13.5449 -14.9316 9.23828 -14.9316 C 4.94141 -14.9316 1.36719 -11.3574 1.36719 -7.05078 C 1.36719 -2.74414 4.95117 0.830078 9.24805 0.830078 Z M 9.24805 -0.654297 C 5.70312 -0.654297 2.87109 -3.49609 2.87109 -7.05078 C 2.87109 -10.6055 5.69336 -13.4473 9.23828 -13.4473 C 12.793 -13.4473 15.6348 -10.6055 15.6445 -7.05078 C 15.6543 -3.49609 12.8027 -0.654297 9.24805 -0.654297 Z M 9.22852 -3.42773 C 9.69727 -3.42773 9.9707 -3.74023 9.9707 -4.25781 L 9.9707 -6.31836 L 12.1973 -6.31836 C 12.6953 -6.31836 13.0371 -6.57227 13.0371 -7.04102 C 13.0371 -7.51953 12.7148 -7.7832 12.1973 -7.7832 L 9.9707 -7.7832 L 9.9707 -10.0098 C 9.9707 -10.5273 9.69727 -10.8496 9.22852 -10.8496 C 8.75977 -10.8496 8.50586 -10.5078 8.50586 -10.0098 L 8.50586 -7.7832 L 6.29883 -7.7832 C 5.78125 -7.7832 5.44922 -7.51953 5.44922 -7.04102 C 5.44922 -6.57227 5.80078 -6.31836 6.29883 -6.31836 L 8.50586 -6.31836 L 8.50586 -4.25781 C 8.50586 -3.75977 8.75977 -3.42773 9.22852 -3.42773 Z"/>
  </g>
  <g id="" transform="matrix(1 0 0 1 281.506 1933)">
   <path d="M 11.709 2.91016 C 17.1582 2.91016 21.6699 -1.60156 21.6699 -7.05078 C 21.6699 -12.4902 17.1484 -17.0117 11.6992 -17.0117 C 6.25977 -17.0117 1.74805 -12.4902 1.74805 -7.05078 C 1.74805 -1.60156 6.26953 2.91016 11.709 2.91016 Z M 11.709 1.25 C 7.09961 1.25 3.41797 -2.44141 3.41797 -7.05078 C 3.41797 -11.6504 7.08984 -15.3516 11.6992 -15.3516 C 16.3086 -15.3516 20 -11.6504 20.0098 -7.05078 C 20.0195 -2.44141 16.3184 1.25 11.709 1.25 Z M 11.6895 -2.41211 C 12.207 -2.41211 12.5195 -2.77344 12.5195 -3.33984 L 12.5195 -6.23047 L 15.5762 -6.23047 C 16.123 -6.23047 16.5039 -6.51367 16.5039 -7.03125 C 16.5039 -7.55859 16.1426 -7.86133 15.5762 -7.86133 L 12.5195 -7.86133 L 12.5195 -10.9277 C 12.5195 -11.5039 12.207 -11.8555 11.6895 -11.8555 C 11.1719 -11.8555 10.8789 -11.4844 10.8789 -10.9277 L 10.8789 -7.86133 L 7.83203 -7.86133 C 7.26562 -7.86133 6.89453 -7.55859 6.89453 -7.03125 C 6.89453 -6.51367 7.28516 -6.23047 7.83203 -6.23047 L 10.8789 -6.23047 L 10.8789 -3.33984 C 10.8789 -2.79297 11.1719 -2.41211 11.6895 -2.41211 Z"/>
  </g>
  <g id="" transform="matrix(1 0 0 1 304.924 1933)">
   <path d="M 14.9707 5.67383 C 21.9336 5.67383 27.6953 -0.078125 27.6953 -7.04102 C 27.6953 -14.0039 21.9238 -19.7559 14.9609 -19.7559 C 8.00781 -19.7559 2.25586 -14.0039 2.25586 -7.04102 C 2.25586 -0.078125 8.01758 5.67383 14.9707 5.67383 Z M 14.9707 3.85742 C 8.93555 3.85742 4.08203 -1.00586 4.08203 -7.04102 C 4.08203 -13.0762 8.92578 -17.9395 14.9609 -17.9395 C 21.0059 -17.9395 25.8594 -13.0762 25.8691 -7.04102 C 25.8789 -1.00586 21.0156 3.85742 14.9707 3.85742 Z M 14.9512 -1.06445 C 15.5176 -1.06445 15.8691 -1.45508 15.8691 -2.06055 L 15.8691 -6.13281 L 20.1074 -6.13281 C 20.6934 -6.13281 21.1133 -6.46484 21.1133 -7.02148 C 21.1133 -7.59766 20.7227 -7.93945 20.1074 -7.93945 L 15.8691 -7.93945 L 15.8691 -12.1875 C 15.8691 -12.8027 15.5176 -13.1934 14.9512 -13.1934 C 14.3848 -13.1934 14.0625 -12.7832 14.0625 -12.1875 L 14.0625 -7.93945 L 9.83398 -7.93945 C 9.21875 -7.93945 8.80859 -7.59766 8.80859 -7.02148 C 8.80859 -6.46484 9.23828 -6.13281 9.83398 -6.13281 L 14.0625 -6.13281 L 14.0625 -2.06055 C 14.0625 -1.47461 14.3848 -1.06445 14.9512 -1.06445 Z"/>
  </g>
  <text style="stroke:none;fill:black;font-family:-apple-system,&quot;SF Pro Display&quot;,&quot;SF Pro Text&quot;,Helvetica,sans-serif;font-weight:bold;" transform="matrix(1 0 0 1 263 1953)">Design Variations</text>
  <text style="stroke:none;fill:black;font-family:-apple-system,&quot;SF Pro Display&quot;,&quot;SF Pro Text&quot;,Helvetica,sans-serif;" transform="matrix(1 0 0 1 263 1971)">Symbols are supported in up to nine weights and three scales.</text>
  <text style="stroke:none;fill:black;font-family:-apple-system,&quot;SF Pro Display&quot;,&quot;SF Pro Text&quot;,Helvetica,sans-serif;" transform="matrix(1 0 0 1 263 1989)">For optimal layout with text and other symbols, vertically align</text>
  <text style="stroke:none;fill:black;font-family:-apple-system,&quot;SF Pro Display&quot;,&quot;SF Pro Text&quot;,Helvetica,sans-serif;" transform="matrix(1 0 0 1 263 2007)">symbols with the adjacent text.</text>
  <rect height="14" id="" style="fill:#00AEEF;stroke:none;opacity:0.4;" width="3" x="776" y="1919"/>
  <g id="" transform="matrix(1 0 0 1 779 1933)">
   <path d="M 10.5273 0 L 12.373 0 L 7.17773 -14.0918 L 5.43945 -14.0918 L 0.244141 0 L 2.08984 0 L 3.50586 -4.0332 L 9.11133 -4.0332 Z M 6.2793 -11.9531 L 6.33789 -11.9531 L 8.59375 -5.52734 L 4.02344 -5.52734 Z"/>
  </g>
  <rect height="14" id="" style="fill:#00AEEF;stroke:none;opacity:0.4;" width="3" x="791.617" y="1919"/>
  <text style="stroke:none;fill:black;font-family:-apple-system,&quot;SF Pro Display&quot;,&quot;SF Pro Text&quot;,Helvetica,sans-serif;font-weight:bold;" transform="matrix(1 0 0 1 776 1953)">Margins</text>
  <text style="stroke:none;fill:black;font-family:-apple-system,&quot;SF Pro Display&quot;,&quot;SF Pro Text&quot;,Helvetica,sans-serif;" transform="matrix(1 0 0 1 776 1971)">Leading and trailing margins on the left and right side of each symbol</text>
  <text style="stroke:none;fill:black;font-family:-apple-system,&quot;SF Pro Display&quot;,&quot;SF Pro Text&quot;,Helvetica,sans-serif;" transform="matrix(1 0 0 1 776 1989)">can be adjusted by modifying the width of the blue rectangles.</text>
  <text style="stroke:none;fill:black;font-family:-apple-system,&quot;SF Pro Display&quot;,&quot;SF Pro Text&quot;,Helvetica,sans-serif;" transform="matrix(1 0 0 1 776 2007)">Modifications are automatically applied proportionally to all</text>
  <text style="stroke:none;fill:black;font-family:-apple-system,&quot;SF Pro Display&quot;,&quot;SF Pro Text&quot;,Helvetica,sans-serif;" transform="matrix(1 0 0 1 776 2025)">scales and weights.</text>
  <g id="" transform="matrix(1 0 0 1 1289 1933)">
   <path d="M 2.83203 3.11523 L 4.375 4.6582 C 5.22461 5.48828 6.19141 5.41992 7.06055 4.46289 L 17.2754 -6.66016 C 17.7051 -6.36719 18.0957 -6.37695 18.5645 -6.47461 L 19.6094 -6.68945 L 20.3027 -5.99609 L 20.2539 -5.47852 C 20.1855 -4.95117 20.3516 -4.53125 20.8496 -4.0332 L 21.6602 -3.22266 C 22.168 -2.71484 22.8223 -2.68555 23.3008 -3.16406 L 26.5527 -6.41602 C 27.0312 -6.89453 27.0117 -7.54883 26.5039 -8.05664 L 25.6836 -8.87695 C 25.1855 -9.375 24.7754 -9.55078 24.2383 -9.47266 L 23.7109 -9.41406 L 23.0566 -10.0781 L 23.3398 -11.2207 C 23.4863 -11.7871 23.3398 -12.2559 22.7148 -12.8613 L 20.3027 -15.2539 C 16.7578 -18.7793 12.2266 -18.6719 9.11133 -15.5371 C 8.69141 -15.1074 8.64258 -14.5215 8.91602 -14.0918 C 9.15039 -13.7207 9.62891 -13.4961 10.2734 -13.6621 C 11.7871 -14.043 13.3008 -13.9258 14.7852 -12.9199 L 14.1602 -11.3379 C 13.9258 -10.752 13.9453 -10.2734 14.1797 -9.83398 L 3.01758 0.439453 C 2.08008 1.30859 1.97266 2.25586 2.83203 3.11523 Z M 10.6738 -15.1465 C 13.3398 -17.1387 16.6504 -16.8262 19.0527 -14.4141 L 21.6797 -11.8066 C 21.9141 -11.5723 21.9434 -11.3867 21.8848 -11.0938 L 21.5039 -9.53125 L 23.0762 -7.95898 L 24.043 -8.04688 C 24.3262 -8.07617 24.4141 -8.05664 24.6387 -7.83203 L 25.2637 -7.20703 L 22.5098 -4.46289 L 21.8848 -5.07812 C 21.6602 -5.30273 21.6406 -5.40039 21.6699 -5.68359 L 21.7578 -6.64062 L 20.1953 -8.20312 L 18.5742 -7.89062 C 18.291 -7.83203 18.1445 -7.83203 17.9102 -8.07617 L 15.7324 -10.2539 C 15.5078 -10.4883 15.4785 -10.625 15.6055 -10.9473 L 16.5527 -13.2227 C 14.9512 -14.7559 12.8418 -15.6055 10.8008 -14.9512 C 10.7129 -14.9219 10.6445 -14.9414 10.6152 -14.9805 C 10.5859 -15.0293 10.5859 -15.0781 10.6738 -15.1465 Z M 4.10156 2.41211 C 3.61328 1.91406 3.78906 1.61133 4.12109 1.30859 L 15.0781 -8.80859 L 16.3086 -7.57812 L 6.15234 3.34961 C 5.84961 3.68164 5.46875 3.7793 5.06836 3.37891 Z"/>
  </g>
  <text style="stroke:none;fill:black;font-family:-apple-system,&quot;SF Pro Display&quot;,&quot;SF Pro Text&quot;,Helvetica,sans-serif;font-weight:bold;" transform="matrix(1 0 0 1 1289 1953)">Exporting</text>
  <text style="stroke:none;fill:black;font-family:-apple-system,&quot;SF Pro Display&quot;,&quot;SF Pro Text&quot;,Helvetica,sans-serif;" transform="matrix(1 0 0 1 1289 1971)">Symbols should be outlined when exporting to ensure the</text>
  <text style="stroke:none;fill:black;font-family:-apple-system,&quot;SF Pro Display&quot;,&quot;SF Pro Text&quot;,Helvetica,sans-serif;" transform="matrix(1 0 0 1 1289 1989)">design is preserved when submitting to Xcode.</text>
  <text id="template-version" style="stroke:none;fill:black;font-family:-apple-system,&quot;SF Pro Display&quot;,&quot;SF Pro Text&quot;,Helvetica,sans-serif;text-anchor:end;" transform="matrix(1 0 0 1 3036 1933)">Template v.1.0</text>
  <text style="stroke:none;fill:black;font-family:-apple-system,&quot;SF Pro Display&quot;,&quot;SF Pro Text&quot;,Helvetica,sans-serif;text-anchor:end;" transform="matrix(1 0 0 1 3036 1951)">Generated from xmark.square.fill</text>
  <text style="stroke:none;fill:black;font-family:-apple-system,&quot;SF Pro Display&quot;,&quot;SF Pro Text&quot;,Helvetica,sans-serif;text-anchor:end;" transform="matrix(1 0 0 1 3036 1969)">Typeset at 100 points</text>
  <text style="stroke:none;fill:black;font-family:-apple-system,&quot;SF Pro Display&quot;,&quot;SF Pro Text&quot;,Helvetica,sans-serif;" transform="matrix(1 0 0 1 263 726)">Small</text>
  <text style="stroke:none;fill:black;font-family:-apple-system,&quot;SF Pro Display&quot;,&quot;SF Pro Text&quot;,Helvetica,sans-serif;" transform="matrix(1 0 0 1 263 1156)">Medium</text>
  <text style="stroke:none;fill:black;font-family:-apple-system,&quot;SF Pro Display&quot;,&quot;SF Pro Text&quot;,Helvetica,sans-serif;" transform="matrix(1 0 0 1 263 1586)">Large</text>
 </g>
 <g id="Guides">
  <g id="H-reference" style="fill:#27AAE1;stroke:none;" transform="matrix(1 0 0 1 339 696)">
   <path d="M 54.9316 0 L 57.666 0 L 30.5664 -70.459 L 28.0762 -70.459 L 0.976562 0 L 3.66211 0 L 12.9395 -24.4629 L 45.7031 -24.4629 Z M 29.1992 -67.0898 L 29.4434 -67.0898 L 44.8242 -26.709 L 13.8184 -26.709 Z"/>
  </g>
  <line id="Baseline-S" style="fill:none;stroke:#27AAE1;opacity:1;stroke-width:0.577;" x1="263" x2="3036" y1="696" y2="696"/>
  <line id="Capline-S" style="fill:none;stroke:#27AAE1;opacity:1;stroke-width:0.577;" x1="263" x2="3036" y1="625.541" y2="625.541"/>
  <g id="H-reference" style="fill:#27AAE1;stroke:none;" transform="matrix(1 0 0 1 339 1126)">
   <path d="M 54.9316 0 L 57.666 0 L 30.5664 -70.459 L 28.0762 -70.459 L 0.976562 0 L 3.66211 0 L 12.9395 -24.4629 L 45.7031 -24.4629 Z M 29.1992 -67.0898 L 29.4434 -67.0898 L 44.8242 -26.709 L 13.8184 -26.709 Z"/>
  </g>
  <line id="Baseline-M" style="fill:none;stroke:#27AAE1;opacity:1;stroke-width:0.577;" x1="263" x2="3036" y1="1126" y2="1126"/>
  <line id="Capline-M" style="fill:none;stroke:#27AAE1;opacity:1;stroke-width:0.577;" x1="263" x2="3036" y1="1055.54" y2="1055.54"/>
  <g id="H-reference" style="fill:#27AAE1;stroke:none;" transform="matrix(1 0 0 1 339 1556)">
   <path d="M 54.9316 0 L 57.666 0 L 30.5664 -70.459 L 28.0762 -70.459 L 0.976562 0 L 3.66211 0 L 12.9395 -24.4629 L 45.7031 -24.4629 Z M 29.1992 -67.0898 L 29.4434 -67.0898 L 44.8242 -26.709 L 13.8184 -26.709 Z"/>
  </g>
  <line id="Baseline-L" style="fill:none;stroke:#27AAE1;opacity:1;stroke-width:0.577;" x1="263" x2="3036" y1="1556" y2="1556"/>
  <line id="Capline-L" style="fill:none;stroke:#27AAE1;opacity:1;stroke-width:0.577;" x1="263" x2="3036" y1="1485.54" y2="1485.54"/>
  <rect height="119.336" id="left-margin" style="fill:#00AEEF;stroke:none;opacity:0.4;" width="12.4512" x="1392.45" y="1030.79"/>
  <rect height="119.336" id="right-margin" style="fill:#00AEEF;stroke:none;opacity:0.4;" width="12.4512" x="1494.79" y="1030.79"/>
 </g>
 <g id="Symbols">
  <g id="Black-L" transform="matrix(1 0 0 1 2855.62 1556)">
   <path d="M 39.9902 26.5137 L 115.576 26.5137 C 130.811 26.5137 139.502 17.8711 139.502 2.68555 L 139.502 -73.0957 C 139.502 -88.2812 130.811 -96.875 115.576 -96.875 L 39.9902 -96.875 C 24.7559 -96.875 16.0645 -88.2812 16.0645 -73.0957 L 16.0645 2.68555 C 16.0645 17.8711 24.7559 26.5137 39.9902 26.5137 Z M 58.7891 -7.37305 C 54.0527 -7.37305 50.4395 -11.0352 50.4395 -15.8203 C 50.4395 -17.9688 51.3184 -20.0195 52.9297 -21.582 L 66.4551 -35.1074 L 52.9297 -48.6816 C 51.3184 -50.2441 50.4395 -52.2949 50.4395 -54.4434 C 50.4395 -59.2285 54.0527 -62.8418 58.7891 -62.8418 C 61.377 -62.8418 63.3301 -62.1094 64.9902 -60.4492 L 78.3691 -47.0703 L 91.8457 -60.4492 C 93.5059 -62.1582 95.459 -62.8906 97.998 -62.8906 C 102.734 -62.8906 106.396 -59.2773 106.396 -54.4434 C 106.396 -52.2949 105.518 -50.293 103.906 -48.6816 L 90.4297 -35.1074 L 103.857 -21.6309 C 105.469 -20.0195 106.348 -18.0176 106.348 -15.8203 C 106.348 -11.0352 102.734 -7.37305 97.998 -7.37305 C 95.4102 -7.37305 93.4082 -8.1543 91.748 -9.81445 L 78.3691 -23.0957 L 65.0391 -9.81445 C 63.3789 -8.1543 61.377 -7.37305 58.7891 -7.37305 Z"/>
  </g>
  <g id="Heavy-L" transform="matrix(1 0 0 1 2559.93 1556)">
   <path d="M 38.8184 25.4883 L 114.697 25.4883 C 129.346 25.4883 137.451 17.4316 137.451 2.88086 L 137.451 -73.2422 C 137.451 -87.793 129.346 -95.8496 114.697 -95.8496 L 38.8184 -95.8496 C 24.2188 -95.8496 16.0645 -87.793 16.0645 -73.2422 L 16.0645 2.88086 C 16.0645 17.4316 24.2188 25.4883 38.8184 25.4883 Z M 56.8848 -7.42188 C 52.6367 -7.42188 49.3652 -10.7422 49.3652 -14.9902 C 49.3652 -16.9434 50.1953 -18.75 51.6113 -20.166 L 66.5527 -35.1562 L 51.6113 -50.1465 C 50.1953 -51.5137 49.3652 -53.3691 49.3652 -55.3223 C 49.3652 -59.5703 52.6367 -62.793 56.8848 -62.793 C 59.1309 -62.793 60.8887 -62.1094 62.3535 -60.6445 L 77.1973 -45.8008 L 92.1875 -60.6445 C 93.6523 -62.207 95.4102 -62.8418 97.6074 -62.8418 C 101.855 -62.8418 105.127 -59.5703 105.127 -55.3223 C 105.127 -53.3691 104.346 -51.6113 102.881 -50.1465 L 87.9395 -35.1562 L 102.832 -20.2148 C 104.297 -18.75 105.078 -16.9434 105.078 -14.9902 C 105.078 -10.7422 101.807 -7.42188 97.6074 -7.42188 C 95.3125 -7.42188 93.5059 -8.20312 92.0898 -9.61914 L 77.1973 -24.4141 L 62.4023 -9.61914 C 60.9375 -8.1543 59.1309 -7.42188 56.8848 -7.42188 Z"/>
  </g>
  <g id="Bold-L" transform="matrix(1 0 0 1 2264.37 1556)">
   <path d="M 37.5 24.3652 L 113.721 24.3652 C 127.637 24.3652 135.156 16.8945 135.156 3.07617 L 135.156 -73.3887 C 135.156 -87.207 127.637 -94.7266 113.721 -94.7266 L 37.5 -94.7266 C 23.6328 -94.7266 16.0645 -87.2559 16.0645 -73.3887 L 16.0645 3.07617 C 16.0645 16.8945 23.6328 24.3652 37.5 24.3652 Z M 54.6875 -7.51953 C 51.0742 -7.51953 48.1934 -10.4004 48.1934 -14.0625 C 48.1934 -15.7715 48.9258 -17.334 50.1465 -18.5547 L 66.748 -35.1562 L 50.1465 -51.7578 C 48.9258 -52.9785 48.1934 -54.541 48.1934 -56.25 C 48.1934 -59.9121 51.0742 -62.6953 54.6875 -62.6953 C 56.6406 -62.6953 58.1543 -62.1094 59.375 -60.8398 L 75.9277 -44.3359 L 92.5293 -60.8398 C 93.8477 -62.207 95.3125 -62.793 97.2168 -62.793 C 100.879 -62.793 103.711 -59.9609 103.711 -56.2988 C 103.711 -54.5898 103.076 -53.0762 101.758 -51.8066 L 85.1562 -35.1562 L 101.709 -18.6035 C 102.979 -17.334 103.662 -15.8203 103.662 -14.0625 C 103.662 -10.4004 100.83 -7.51953 97.168 -7.51953 C 95.2148 -7.51953 93.6523 -8.20312 92.4316 -9.47266 L 75.9277 -25.9277 L 59.4727 -9.47266 C 58.2031 -8.20312 56.6406 -7.51953 54.6875 -7.51953 Z"/>
  </g>
  <g id="Semibold-L" transform="matrix(1 0 0 1 1968.44 1556)">
   <path d="M 36.6211 23.584 L 113.037 23.584 C 126.514 23.584 133.594 16.5039 133.594 3.17383 L 133.594 -73.5352 C 133.594 -86.8164 126.514 -93.9453 113.037 -93.9453 L 36.6211 -93.9453 C 23.1934 -93.9453 16.0645 -86.8652 16.0645 -73.5352 L 16.0645 3.17383 C 16.0645 16.5527 23.1934 23.584 36.6211 23.584 Z M 53.2227 -7.61719 C 49.9512 -7.61719 47.4121 -10.1562 47.4121 -13.4277 C 47.4121 -14.9414 47.998 -16.3574 49.1699 -17.4316 L 66.8457 -35.1562 L 49.1699 -52.8809 C 48.0469 -53.9551 47.4121 -55.3711 47.4121 -56.9336 C 47.4121 -60.1562 49.9512 -62.6465 53.2227 -62.6465 C 54.8828 -62.6465 56.25 -62.1094 57.3242 -60.9375 L 75 -43.3105 L 92.7734 -60.9863 C 93.9453 -62.207 95.3125 -62.7441 96.9238 -62.7441 C 100.195 -62.7441 102.734 -60.2051 102.734 -56.9824 C 102.734 -55.4199 102.148 -54.1016 100.977 -52.9297 L 83.252 -35.1562 L 100.928 -17.5293 C 102.051 -16.3574 102.686 -14.9902 102.686 -13.4277 C 102.686 -10.1562 100.146 -7.61719 96.875 -7.61719 C 95.166 -7.61719 93.75 -8.25195 92.6758 -9.32617 L 75 -26.9531 L 57.4219 -9.32617 C 56.2988 -8.20312 54.8828 -7.61719 53.2227 -7.61719 Z"/>
  </g>
  <g id="Medium-L" transform="matrix(1 0 0 1 1672.31 1556)">
   <path d="M 35.9375 22.998 L 112.5 22.998 C 125.635 22.998 132.422 16.2109 132.422 3.27148 L 132.422 -73.6328 C 132.422 -86.5234 125.635 -93.3105 112.5 -93.3105 L 35.9375 -93.3105 C 22.9004 -93.3105 16.0645 -86.5723 16.0645 -73.6328 L 16.0645 3.27148 C 16.0645 16.2598 22.9004 22.998 35.9375 22.998 Z M 52.0508 -7.66602 C 49.1211 -7.66602 46.7773 -10.0098 46.7773 -12.9395 C 46.7773 -14.3555 47.3633 -15.625 48.3887 -16.6016 L 66.8945 -35.1562 L 48.3887 -53.7598 C 47.3633 -54.7363 46.7773 -56.0059 46.7773 -57.4219 C 46.7773 -60.3516 49.1211 -62.5977 52.0508 -62.5977 C 53.6133 -62.5977 54.7852 -62.1094 55.8105 -61.084 L 74.3164 -42.5781 L 92.9688 -61.1328 C 94.043 -62.2559 95.2637 -62.6953 96.6797 -62.6953 C 99.6582 -62.6953 102.002 -60.4004 102.002 -57.4707 C 102.002 -56.0547 101.514 -54.834 100.391 -53.8086 L 81.8359 -35.1562 L 100.342 -16.6992 C 101.367 -15.625 101.953 -14.4043 101.953 -12.9395 C 101.953 -10.0098 99.6094 -7.66602 96.6797 -7.66602 C 95.1172 -7.66602 93.8477 -8.25195 92.8223 -9.22852 L 74.3164 -27.7344 L 55.9082 -9.22852 C 54.8828 -8.20312 53.6133 -7.66602 52.0508 -7.66602 Z"/>
  </g>
  <g id="Regular-L" transform="matrix(1 0 0 1 1376.38 1556)">
   <path d="M 35.0586 22.2168 L 111.816 22.2168 C 124.463 22.2168 130.859 15.8691 130.859 3.41797 L 130.859 -73.7305 C 130.859 -86.1816 124.463 -92.5293 111.816 -92.5293 L 35.0586 -92.5293 C 22.4609 -92.5293 16.0645 -86.2305 16.0645 -73.7305 L 16.0645 3.41797 C 16.0645 15.918 22.4609 22.2168 35.0586 22.2168 Z M 50.5859 -7.71484 C 48.0469 -7.71484 45.9961 -9.76562 45.9961 -12.3047 C 45.9961 -13.5742 46.4844 -14.6484 47.3633 -15.5273 L 66.9922 -35.2051 L 47.3633 -54.8828 C 46.4844 -55.7129 45.9961 -56.8359 45.9961 -58.0566 C 45.9961 -60.5957 48.0469 -62.5488 50.5859 -62.5488 C 51.9043 -62.5488 52.9297 -62.1094 53.8086 -61.1816 L 73.4375 -41.6016 L 93.2129 -61.2305 C 94.1895 -62.2559 95.2148 -62.6465 96.4355 -62.6465 C 98.9746 -62.6465 101.025 -60.6445 101.025 -58.1055 C 101.025 -56.8848 100.586 -55.8594 99.6094 -54.9316 L 79.9316 -35.2051 L 99.5605 -15.625 C 100.439 -14.6973 100.977 -13.623 100.977 -12.3047 C 100.977 -9.76562 98.9258 -7.71484 96.3867 -7.71484 C 95.0684 -7.71484 93.9453 -8.25195 93.0664 -9.13086 L 73.4375 -28.7598 L 53.9062 -9.13086 C 53.0273 -8.20312 51.9043 -7.71484 50.5859 -7.71484 Z"/>
  </g>
  <g id="Light-L" transform="matrix(1 0 0 1 1080.5 1556)">
   <path d="M 34.0332 21.4355 L 111.23 21.4355 C 123.096 21.4355 129.199 15.2344 129.199 3.56445 L 129.199 -73.8281 C 129.199 -85.5469 123.096 -91.6992 111.23 -91.6992 L 34.0332 -91.6992 C 22.168 -91.6992 16.0645 -85.6445 16.0645 -73.8281 L 16.0645 3.56445 C 16.0645 15.3809 22.168 21.4355 34.0332 21.4355 Z M 49.3164 -8.30078 C 47.3145 -8.30078 45.7031 -9.86328 45.7031 -11.8164 C 45.7031 -12.8418 46.0449 -13.6719 46.8262 -14.4043 L 67.5781 -35.2051 L 46.8262 -55.957 C 46.0938 -56.6406 45.7031 -57.5684 45.7031 -58.5449 C 45.7031 -60.498 47.3145 -62.0117 49.3164 -62.0117 C 50.3418 -62.0117 51.1719 -61.6699 51.9043 -60.8887 L 72.6074 -40.2344 L 93.4082 -60.9375 C 94.1895 -61.7676 95.0195 -62.0605 95.9961 -62.0605 C 97.998 -62.0605 99.6094 -60.5469 99.6094 -58.5938 C 99.6094 -57.5684 99.2676 -56.7383 98.4863 -56.0059 L 77.6855 -35.2051 L 98.4375 -14.4531 C 99.1699 -13.7207 99.5605 -12.8418 99.5605 -11.8164 C 99.5605 -9.86328 97.998 -8.30078 95.9473 -8.30078 C 94.9219 -8.30078 94.043 -8.69141 93.3105 -9.47266 L 72.6074 -30.127 L 52.002 -9.47266 C 51.2207 -8.69141 50.3418 -8.30078 49.3164 -8.30078 Z"/>
  </g>
  <g id="Thin-L" transform="matrix(1 0 0 1 784.889 1556)">
   <path d="M 32.666 20.3613 L 110.352 20.3613 C 121.24 20.3613 127.002 14.4531 127.002 3.75977 L 127.002 -73.9746 C 127.002 -84.7168 121.24 -90.5762 110.352 -90.5762 L 32.666 -90.5762 C 21.7773 -90.5762 16.0645 -84.8633 16.0645 -73.9746 L 16.0645 3.75977 C 16.0645 14.6484 21.7773 20.3613 32.666 20.3613 Z M 47.6562 -9.08203 C 46.3379 -9.08203 45.3613 -10.0098 45.3613 -11.2305 C 45.3613 -11.8652 45.5078 -12.3535 46.0938 -12.9883 L 68.3105 -35.2051 L 46.0938 -57.4219 C 45.5566 -57.9102 45.3613 -58.4961 45.3613 -59.1309 C 45.3613 -60.4004 46.3379 -61.2793 47.6562 -61.2793 C 48.3398 -61.2793 48.8281 -61.084 49.4629 -60.4492 L 71.5332 -38.3789 L 93.6035 -60.498 C 94.2383 -61.084 94.7754 -61.2793 95.4102 -61.2793 C 96.7285 -61.2793 97.7051 -60.4004 97.7051 -59.1797 C 97.7051 -58.4961 97.5098 -57.959 96.9727 -57.4219 L 74.7559 -35.2051 L 96.9727 -12.9883 C 97.5098 -12.4512 97.7051 -11.8652 97.7051 -11.2305 C 97.7051 -10.0098 96.7285 -9.08203 95.4102 -9.08203 C 94.7754 -9.08203 94.1895 -9.27734 93.6035 -9.91211 L 71.5332 -31.9824 L 49.4629 -9.91211 C 48.877 -9.27734 48.3398 -9.08203 47.6562 -9.08203 Z"/>
  </g>
  <g id="Ultralight-L" transform="matrix(1 0 0 1 488.739 1556)">
   <path d="M 31.9824 19.7754 L 109.961 19.7754 C 120.312 19.7754 125.879 14.0625 125.879 3.85742 L 125.879 -74.0723 C 125.879 -84.2773 120.312 -89.9902 109.961 -89.9902 L 31.9824 -89.9902 C 21.582 -89.9902 16.0645 -84.4727 16.0645 -74.0723 L 16.0645 3.85742 C 16.0645 14.2578 21.582 19.7754 31.9824 19.7754 Z M 46.7773 -9.47266 C 45.8008 -9.47266 45.166 -10.0586 45.166 -10.8887 C 45.166 -11.377 45.2148 -11.7188 45.7031 -12.2559 L 68.7012 -35.2051 L 45.7031 -58.1543 C 45.2637 -58.5938 45.166 -58.9844 45.166 -59.4727 C 45.166 -60.3516 45.8008 -60.8887 46.7773 -60.8887 C 47.3145 -60.8887 47.6562 -60.791 48.1934 -60.2539 L 70.9473 -37.5 L 93.7012 -60.2539 C 94.2383 -60.7422 94.6777 -60.8887 95.1172 -60.8887 C 96.0938 -60.8887 96.7285 -60.3027 96.7285 -59.4727 C 96.7285 -58.9844 96.6309 -58.5449 96.1914 -58.1543 L 73.2422 -35.2051 L 96.1914 -12.207 C 96.6309 -11.8164 96.7285 -11.377 96.7285 -10.8887 C 96.7285 -10.0586 96.0938 -9.47266 95.166 -9.47266 C 94.6777 -9.47266 94.2871 -9.61914 93.75 -10.1074 L 70.9473 -32.9102 L 48.1934 -10.1074 C 47.6562 -9.61914 47.3145 -9.47266 46.7773 -9.47266 Z"/>
  </g>
  <g id="Black-M" transform="matrix(1 0 0 1 2872.19 1126)">
   <path d="M 31.9824 13.5742 L 90.4297 13.5742 C 102.686 13.5742 109.961 6.29883 109.961 -5.95703 L 109.961 -64.4043 C 109.961 -76.6602 102.686 -83.9355 90.4297 -83.9355 L 31.9824 -83.9355 C 19.7266 -83.9355 12.4512 -76.6602 12.4512 -64.4043 L 12.4512 -5.95703 C 12.4512 6.29883 19.7266 13.5742 31.9824 13.5742 Z M 47.5098 -13.8184 C 43.4082 -13.8184 40.332 -16.8945 40.332 -21.0449 C 40.332 -22.9004 41.1133 -24.6582 42.4805 -26.0254 L 51.6113 -35.1562 L 42.4805 -44.2383 C 41.1133 -45.6543 40.332 -47.4121 40.332 -49.2188 C 40.332 -53.3691 43.4082 -56.4453 47.5098 -56.4453 C 49.7559 -56.4453 51.4648 -55.8105 52.9297 -54.3457 L 61.8652 -45.459 L 70.8008 -54.3457 C 72.2656 -55.8105 73.9746 -56.4453 76.2207 -56.4453 C 80.3223 -56.4453 83.3984 -53.3691 83.3984 -49.2188 C 83.3984 -47.4121 82.6172 -45.6055 81.25 -44.2383 L 72.2168 -35.1562 L 81.25 -26.0254 C 82.6172 -24.6582 83.3984 -22.9004 83.3984 -21.0449 C 83.3984 -16.8945 80.3223 -13.8184 76.2207 -13.8184 C 73.9746 -13.8184 72.2656 -14.4531 70.8008 -15.918 L 61.8652 -24.7559 L 52.9297 -15.918 C 51.4648 -14.4531 49.7559 -13.8184 47.5098 -13.8184 Z"/>
  </g>
  <g id="Heavy-M" transform="matrix(1 0 0 1 2576.39 1126)">
   <path d="M 31.0059 12.6465 L 89.6484 12.6465 C 101.416 12.6465 108.154 5.9082 108.154 -5.81055 L 108.154 -64.5508 C 108.154 -76.2695 101.416 -83.0566 89.6484 -83.0566 L 31.0059 -83.0566 C 19.2383 -83.0566 12.4512 -76.3184 12.4512 -64.5508 L 12.4512 -5.81055 C 12.4512 5.9082 19.2383 12.6465 31.0059 12.6465 Z M 45.7031 -13.7695 C 42.041 -13.7695 39.2578 -16.5527 39.2578 -20.2637 C 39.2578 -21.9238 39.9414 -23.4863 41.2109 -24.7559 L 51.6113 -35.1562 L 41.2109 -45.5566 C 39.9414 -46.7773 39.2578 -48.3887 39.2578 -50.0488 C 39.2578 -53.7109 42.041 -56.4941 45.7031 -56.4941 C 47.7051 -56.4941 49.2188 -55.9082 50.5371 -54.6387 L 60.791 -44.3848 L 71.1426 -54.6387 C 72.4121 -55.957 73.9258 -56.543 75.9277 -56.543 C 79.5898 -56.543 82.373 -53.7598 82.373 -50.0488 C 82.373 -48.3887 81.6895 -46.8262 80.4688 -45.5566 L 70.0684 -35.1562 L 80.4688 -24.7559 C 81.6895 -23.4863 82.373 -21.9238 82.373 -20.2637 C 82.373 -16.5527 79.5898 -13.7695 75.9277 -13.7695 C 73.9258 -13.7695 72.3633 -14.3555 71.0938 -15.6738 L 60.791 -25.8789 L 50.5371 -15.6738 C 49.2676 -14.3555 47.7051 -13.7695 45.7031 -13.7695 Z"/>
  </g>
  <g id="Bold-M" transform="matrix(1 0 0 1 2280.68 1126)">
   <path d="M 29.8828 11.6699 L 88.7207 11.6699 C 99.9512 11.6699 106.152 5.46875 106.152 -5.66406 L 106.152 -64.6973 C 106.152 -75.8789 99.9512 -82.0312 88.7207 -82.0312 L 29.8828 -82.0312 C 18.6523 -82.0312 12.4512 -75.8789 12.4512 -64.6973 L 12.4512 -5.66406 C 12.4512 5.51758 18.6523 11.6699 29.8828 11.6699 Z M 43.7012 -13.7207 C 40.5273 -13.7207 38.0859 -16.1621 38.0859 -19.3848 C 38.0859 -20.8496 38.6719 -22.2168 39.7461 -23.291 L 51.6113 -35.1562 L 39.7461 -47.0215 C 38.6719 -48.0957 38.0859 -49.4629 38.0859 -50.9277 C 38.0859 -54.1504 40.5273 -56.5918 43.7012 -56.5918 C 45.4102 -56.5918 46.7285 -56.0547 47.8516 -54.9316 L 59.6191 -43.1641 L 71.4844 -54.9805 C 72.6074 -56.1523 73.9258 -56.6406 75.5859 -56.6406 C 78.7598 -56.6406 81.25 -54.1992 81.25 -50.9766 C 81.25 -49.5117 80.6641 -48.1445 79.541 -47.0703 L 67.7246 -35.1562 L 79.541 -23.3398 C 80.6152 -22.2656 81.2012 -20.8984 81.2012 -19.3848 C 81.2012 -16.1621 78.7598 -13.7207 75.5859 -13.7207 C 73.877 -13.7207 72.5098 -14.2578 71.4355 -15.3809 L 59.6191 -27.0996 L 47.9004 -15.3809 C 46.7773 -14.2578 45.4102 -13.7207 43.7012 -13.7207 Z"/>
  </g>
  <g id="Semibold-M" transform="matrix(1 0 0 1 1984.65 1126)">
   <path d="M 29.1016 10.9863 L 88.0859 10.9863 C 98.9746 10.9863 104.785 5.17578 104.785 -5.56641 L 104.785 -64.8438 C 104.785 -75.5859 98.9746 -81.3477 88.0859 -81.3477 L 29.1016 -81.3477 C 18.2617 -81.3477 12.4512 -75.5859 12.4512 -64.8438 L 12.4512 -5.56641 C 12.4512 5.22461 18.2617 10.9863 29.1016 10.9863 Z M 42.334 -13.6719 C 39.502 -13.6719 37.2559 -15.918 37.2559 -18.7988 C 37.2559 -20.1172 37.793 -21.3867 38.7695 -22.3145 L 51.6113 -35.1562 L 38.7695 -48.0469 C 37.793 -48.9746 37.2559 -50.2441 37.2559 -51.5625 C 37.2559 -54.4434 39.502 -56.6406 42.334 -56.6406 C 43.8477 -56.6406 45.0195 -56.1523 45.9961 -55.1758 L 58.7891 -42.3828 L 71.7285 -55.1758 C 72.7539 -56.25 73.9258 -56.6895 75.3906 -56.6895 C 78.2227 -56.6895 80.4688 -54.4922 80.4688 -51.6113 C 80.4688 -50.2441 79.9805 -49.0723 78.9551 -48.0957 L 66.0645 -35.1562 L 78.9062 -22.3633 C 79.8828 -21.3867 80.4199 -20.166 80.4199 -18.7988 C 80.4199 -15.918 78.1738 -13.6719 75.3418 -13.6719 C 73.8281 -13.6719 72.6074 -14.209 71.6309 -15.1855 L 58.7891 -27.9297 L 46.0449 -15.1855 C 45.0684 -14.1602 43.8477 -13.6719 42.334 -13.6719 Z"/>
  </g>
  <g id="Medium-M" transform="matrix(1 0 0 1 1688.47 1126)">
   <path d="M 28.5156 10.4492 L 87.6465 10.4492 C 98.2422 10.4492 103.711 4.98047 103.711 -5.46875 L 103.711 -64.8926 C 103.711 -75.3418 98.2422 -80.8105 87.6465 -80.8105 L 28.5156 -80.8105 C 17.9688 -80.8105 12.4512 -75.3906 12.4512 -64.8926 L 12.4512 -5.46875 C 12.4512 4.98047 17.9688 10.4492 28.5156 10.4492 Z M 41.3086 -13.623 C 38.6719 -13.623 36.6211 -15.7227 36.6211 -18.3105 C 36.6211 -19.5801 37.1094 -20.7031 38.0371 -21.5332 L 51.6113 -35.2051 L 38.0371 -48.8281 C 37.1582 -49.6582 36.6211 -50.8301 36.6211 -52.0508 C 36.6211 -54.6875 38.6719 -56.6895 41.3086 -56.6895 C 42.627 -56.6895 43.7012 -56.2012 44.5801 -55.3223 L 58.2031 -41.748 L 71.9238 -55.3711 C 72.8516 -56.3477 73.9258 -56.7383 75.1953 -56.7383 C 77.7832 -56.7383 79.8828 -54.6875 79.8828 -52.0996 C 79.8828 -50.8301 79.4434 -49.8047 78.4668 -48.877 L 64.8438 -35.2051 L 78.418 -21.6309 C 79.2969 -20.7031 79.834 -19.6289 79.834 -18.3105 C 79.834 -15.7227 77.7832 -13.623 75.1465 -13.623 C 73.7793 -13.623 72.6562 -14.1602 71.7773 -14.9902 L 58.2031 -28.5645 L 44.6777 -14.9902 C 43.7988 -14.1113 42.627 -13.623 41.3086 -13.623 Z"/>
  </g>
  <g id="Regular-M" transform="matrix(1 0 0 1 1392.45 1126)">
   <path d="M 27.7832 9.76562 L 87.0117 9.76562 C 97.2656 9.76562 102.344 4.6875 102.344 -5.37109 L 102.344 -64.9902 C 102.344 -75.0488 97.2656 -80.127 87.0117 -80.127 L 27.7832 -80.127 C 17.5781 -80.127 12.4512 -75.0977 12.4512 -64.9902 L 12.4512 -5.37109 C 12.4512 4.73633 17.5781 9.76562 27.7832 9.76562 Z M 39.9414 -13.5742 C 37.6465 -13.5742 35.791 -15.4297 35.791 -17.7246 C 35.791 -18.8477 36.2793 -19.8242 37.0605 -20.5566 L 51.6113 -35.2051 L 37.0605 -49.8535 C 36.2793 -50.5371 35.791 -51.5625 35.791 -52.6855 C 35.791 -54.9316 37.6465 -56.7383 39.9414 -56.7383 C 41.0645 -56.7383 42.041 -56.2988 42.7246 -55.5176 L 57.4219 -40.918 L 72.168 -55.5664 C 72.998 -56.4453 73.877 -56.8359 74.9512 -56.8359 C 77.2461 -56.8359 79.1016 -54.9805 79.1016 -52.7344 C 79.1016 -51.6113 78.7109 -50.6836 77.8809 -49.9023 L 63.2324 -35.2051 L 77.832 -20.6543 C 78.5645 -19.873 79.0527 -18.8965 79.0527 -17.7246 C 79.0527 -15.4297 77.1973 -13.5742 74.9023 -13.5742 C 73.7305 -13.5742 72.7539 -14.0625 72.0215 -14.7949 L 57.4219 -29.4434 L 42.8223 -14.7949 C 42.1387 -14.0137 41.0645 -13.5742 39.9414 -13.5742 Z"/>
  </g>
  <g id="Light-M" transform="matrix(1 0 0 1 1096.47 1126)">
   <path d="M 26.8555 9.0332 L 86.4746 9.0332 C 95.9961 9.0332 100.879 4.15039 100.879 -5.22461 L 100.879 -65.0879 C 100.879 -74.5117 95.9961 -79.3945 86.4746 -79.3945 L 26.8555 -79.3945 C 17.334 -79.3945 12.4512 -74.5605 12.4512 -65.0879 L 12.4512 -5.22461 C 12.4512 4.19922 17.334 9.0332 26.8555 9.0332 Z M 38.8184 -14.1113 C 36.9629 -14.1113 35.5469 -15.5273 35.5469 -17.2852 C 35.5469 -18.2129 35.8887 -18.9453 36.5234 -19.5801 L 52.0996 -35.2051 L 36.5234 -50.8301 C 35.8887 -51.416 35.5469 -52.1973 35.5469 -53.0762 C 35.5469 -54.8828 36.9629 -56.25 38.8184 -56.25 C 39.6973 -56.25 40.4297 -55.9082 41.0645 -55.2734 L 56.6406 -39.6973 L 72.3145 -55.2734 C 72.998 -56.0059 73.7305 -56.2988 74.5605 -56.2988 C 76.3672 -56.2988 77.832 -54.8828 77.832 -53.125 C 77.832 -52.2461 77.5391 -51.5137 76.8555 -50.8301 L 61.2305 -35.2051 L 76.8066 -19.6289 C 77.4414 -18.9941 77.7832 -18.2129 77.7832 -17.2852 C 77.7832 -15.5273 76.3672 -14.1113 74.5605 -14.1113 C 73.6328 -14.1113 72.8516 -14.502 72.2168 -15.0879 L 56.6406 -30.6641 L 41.1133 -15.0879 C 40.5273 -14.4531 39.6973 -14.1113 38.8184 -14.1113 Z"/>
  </g>
  <g id="Thin-M" transform="matrix(1 0 0 1 800.758 1126)">
   <path d="M 25.6348 8.05664 L 85.7422 8.05664 C 94.3848 8.05664 98.877 3.4668 98.877 -5.0293 L 98.877 -65.2344 C 98.877 -73.7305 94.3848 -78.3691 85.7422 -78.3691 L 25.6348 -78.3691 C 16.9922 -78.3691 12.4512 -73.877 12.4512 -65.2344 L 12.4512 -5.0293 C 12.4512 3.56445 16.9922 8.05664 25.6348 8.05664 Z M 37.3047 -14.7949 C 36.1328 -14.7949 35.2539 -15.625 35.2539 -16.748 C 35.2539 -17.334 35.3516 -17.7734 35.8887 -18.3105 L 52.7832 -35.2051 L 35.8887 -52.0996 C 35.4492 -52.5391 35.2539 -53.0762 35.2539 -53.6621 C 35.2539 -54.7363 36.1328 -55.5664 37.3047 -55.5664 C 37.8906 -55.5664 38.3789 -55.3711 38.8672 -54.8828 L 55.6641 -38.0859 L 72.5098 -54.8828 C 72.998 -55.4199 73.4863 -55.6152 74.0723 -55.6152 C 75.2441 -55.6152 76.123 -54.7852 76.123 -53.6621 C 76.123 -53.0762 75.9766 -52.5879 75.4883 -52.0996 L 58.5938 -35.2051 L 75.4883 -18.3105 C 75.9277 -17.8711 76.123 -17.334 76.123 -16.748 C 76.123 -15.625 75.2441 -14.7949 74.0723 -14.7949 C 73.4863 -14.7949 72.9492 -14.9902 72.4609 -15.5273 L 55.6641 -32.3242 L 38.8672 -15.5273 C 38.3789 -14.9902 37.8906 -14.7949 37.3047 -14.7949 Z"/>
  </g>
  <g id="Ultralight-M" transform="matrix(1 0 0 1 504.535 1126)">
   <path d="M 25 7.56836 L 85.3516 7.56836 C 93.5059 7.56836 97.9004 3.125 97.9004 -4.98047 L 97.9004 -65.2832 C 97.9004 -73.3887 93.5059 -77.832 85.3516 -77.832 L 25 -77.832 C 16.7969 -77.832 12.4512 -73.4863 12.4512 -65.2832 L 12.4512 -4.98047 C 12.4512 3.22266 16.7969 7.56836 25 7.56836 Z M 36.5234 -15.1367 C 35.6445 -15.1367 35.0586 -15.6738 35.0586 -16.4551 C 35.0586 -16.8945 35.1074 -17.1875 35.5469 -17.627 L 53.125 -35.2051 L 35.5469 -52.7832 C 35.1562 -53.125 35.0586 -53.5156 35.0586 -53.9062 C 35.0586 -54.6875 35.6445 -55.2246 36.5234 -55.2246 C 37.0117 -55.2246 37.3047 -55.127 37.7441 -54.6875 L 55.1758 -37.2559 L 72.6074 -54.6875 C 73.0469 -55.127 73.3887 -55.2246 73.8281 -55.2246 C 74.6582 -55.2246 75.2441 -54.6875 75.2441 -53.9062 C 75.2441 -53.5156 75.1465 -53.125 74.8047 -52.7832 L 57.2266 -35.2051 L 74.8047 -17.627 C 75.1465 -17.2852 75.2441 -16.8945 75.2441 -16.4551 C 75.2441 -15.6738 74.6582 -15.1367 73.8281 -15.1367 C 73.3887 -15.1367 73.0469 -15.2832 72.6074 -15.7227 L 55.1758 -33.1543 L 37.7441 -15.7227 C 37.3047 -15.2832 37.0117 -15.1367 36.5234 -15.1367 Z"/>
  </g>
  <g id="Black-S" transform="matrix(1 0 0 1 2885.5 696)">
   <path d="M 25 2.92969 L 70.8008 2.92969 C 80.3711 2.92969 86.0352 -2.73438 86.0352 -12.3047 L 86.0352 -58.1055 C 86.0352 -67.6758 80.3711 -73.3398 70.8008 -73.3398 L 25 -73.3398 C 15.4297 -73.3398 9.76562 -67.6758 9.76562 -58.1055 L 9.76562 -12.3047 C 9.76562 -2.73438 15.4297 2.92969 25 2.92969 Z M 37.1094 -18.457 C 33.9355 -18.457 31.543 -20.8496 31.543 -24.0723 C 31.543 -25.4883 32.1289 -26.8555 33.2031 -27.9297 L 40.4297 -35.1562 L 33.2031 -42.3828 C 32.1289 -43.457 31.543 -44.8242 31.543 -46.2402 C 31.543 -49.4629 33.9355 -51.8555 37.1094 -51.8555 C 38.8672 -51.8555 40.1855 -51.3672 41.3086 -50.2441 L 48.3887 -43.1641 L 55.5176 -50.2441 C 56.6406 -51.3672 57.959 -51.8555 59.7168 -51.8555 C 62.8906 -51.8555 65.2832 -49.4629 65.2832 -46.2402 C 65.2832 -44.8242 64.6973 -43.457 63.623 -42.3828 L 56.4453 -35.1562 L 63.623 -27.9297 C 64.6973 -26.8555 65.2832 -25.4883 65.2832 -24.0723 C 65.2832 -20.8496 62.8906 -18.457 59.7168 -18.457 C 57.959 -18.457 56.6406 -18.9453 55.5176 -20.0684 L 48.3887 -27.0996 L 41.3086 -20.0684 C 40.1855 -18.9453 38.8672 -18.457 37.1094 -18.457 Z"/>
  </g>
  <g id="Heavy-S" transform="matrix(1 0 0 1 2589.4 696)">
   <path d="M 24.3652 2.34375 L 70.2637 2.34375 C 79.541 2.34375 84.8145 -2.97852 84.8145 -12.207 L 84.8145 -58.2031 C 84.8145 -67.4316 79.541 -72.7539 70.2637 -72.7539 L 24.3652 -72.7539 C 15.0879 -72.7539 9.76562 -67.4316 9.76562 -58.2031 L 9.76562 -12.207 C 9.76562 -2.97852 15.0879 2.34375 24.3652 2.34375 Z M 35.8887 -18.3594 C 32.959 -18.3594 30.7617 -20.5566 30.7617 -23.5352 C 30.7617 -24.8535 31.2988 -26.0742 32.2754 -27.0508 L 40.3809 -35.1562 L 32.2754 -43.2617 C 31.2988 -44.2383 30.7617 -45.5078 30.7617 -46.8262 C 30.7617 -49.7559 32.959 -51.9531 35.8887 -51.9531 C 37.4512 -51.9531 38.6719 -51.5137 39.6484 -50.4883 L 47.6562 -42.4805 L 55.7617 -50.4883 C 56.7871 -51.5137 57.959 -52.002 59.5215 -52.002 C 62.4512 -52.002 64.6484 -49.7559 64.6484 -46.8262 C 64.6484 -45.5078 64.1113 -44.2871 63.1348 -43.3105 L 55.0293 -35.1562 L 63.1348 -27.0508 C 64.1113 -26.0742 64.6484 -24.8535 64.6484 -23.5352 C 64.6484 -20.5566 62.4023 -18.3594 59.5215 -18.3594 C 57.9102 -18.3594 56.6895 -18.8477 55.7129 -19.8242 L 47.6562 -27.7832 L 39.6973 -19.8242 C 38.6719 -18.7988 37.4512 -18.3594 35.8887 -18.3594 Z"/>
  </g>
  <g id="Bold-S" transform="matrix(1 0 0 1 2293.35 696)">
   <path d="M 23.6328 1.66016 L 69.6289 1.66016 C 78.6133 1.66016 83.4961 -3.22266 83.4961 -12.1094 L 83.4961 -58.3008 C 83.4961 -67.1875 78.6133 -72.0703 69.6289 -72.0703 L 23.6328 -72.0703 C 14.6973 -72.0703 9.76562 -67.1875 9.76562 -58.3008 L 9.76562 -12.1094 C 9.76562 -3.22266 14.6973 1.66016 23.6328 1.66016 Z M 34.4727 -18.2129 C 31.8848 -18.2129 29.8828 -20.2637 29.8828 -22.9004 C 29.8828 -24.0723 30.3711 -25.2441 31.25 -26.0742 L 40.332 -35.2051 L 31.25 -44.2871 C 30.3711 -45.1172 29.8828 -46.2891 29.8828 -47.4609 C 29.8828 -50.0977 31.8848 -52.0996 34.4727 -52.0996 C 35.8398 -52.0996 36.9629 -51.6602 37.793 -50.7812 L 46.875 -41.748 L 56.0059 -50.7812 C 56.9336 -51.709 57.959 -52.1484 59.3262 -52.1484 C 61.9141 -52.1484 63.916 -50.0977 63.916 -47.5098 C 63.916 -46.2891 63.4766 -45.2148 62.5488 -44.3359 L 53.4668 -35.2051 L 62.5488 -26.123 C 63.4277 -25.2441 63.916 -24.1211 63.916 -22.9004 C 63.916 -20.2637 61.9141 -18.2129 59.2773 -18.2129 C 57.9102 -18.2129 56.7871 -18.7012 55.9082 -19.5801 L 46.875 -28.5645 L 37.8418 -19.5801 C 36.9629 -18.7012 35.8398 -18.2129 34.4727 -18.2129 Z"/>
  </g>
  <g id="Semibold-S" transform="matrix(1 0 0 1 1997.1 696)">
   <path d="M 23.0957 1.17188 L 69.1895 1.17188 C 77.9297 1.17188 82.5684 -3.36914 82.5684 -12.0117 L 82.5684 -58.3984 C 82.5684 -67.041 77.9297 -71.582 69.1895 -71.582 L 23.0957 -71.582 C 14.4043 -71.582 9.76562 -67.041 9.76562 -58.3984 L 9.76562 -12.0117 C 9.76562 -3.36914 14.4043 1.17188 23.0957 1.17188 Z M 33.5449 -18.1641 C 31.1523 -18.1641 29.248 -20.0684 29.248 -22.4609 C 29.248 -23.584 29.7363 -24.6094 30.5176 -25.3906 L 40.2832 -35.2051 L 30.5176 -44.9707 C 29.7363 -45.752 29.248 -46.7773 29.248 -47.9004 C 29.248 -50.3418 31.1523 -52.1484 33.5449 -52.1484 C 34.7656 -52.1484 35.7422 -51.7578 36.5234 -50.9277 L 46.2891 -41.2109 L 56.1523 -50.9766 C 57.0312 -51.8555 57.959 -52.2461 59.1797 -52.2461 C 61.5723 -52.2461 63.4277 -50.3418 63.4277 -47.9492 C 63.4277 -46.8262 63.0371 -45.8496 62.1582 -45.0195 L 52.3926 -35.2051 L 62.1582 -25.4395 C 62.9395 -24.6094 63.4277 -23.6328 63.4277 -22.4609 C 63.4277 -20.0684 61.5234 -18.1641 59.1309 -18.1641 C 57.8613 -18.1641 56.8359 -18.6035 56.0547 -19.3848 L 46.2891 -29.1504 L 36.6211 -19.3848 C 35.8398 -18.6035 34.7656 -18.1641 33.5449 -18.1641 Z"/>
  </g>
  <g id="Medium-S" transform="matrix(1 0 0 1 1700.75 696)">
   <path d="M 22.7051 0.830078 L 68.8965 0.830078 C 77.4414 0.830078 81.8359 -3.51562 81.8359 -11.9629 L 81.8359 -58.4473 C 81.8359 -66.8945 77.4414 -71.2402 68.8965 -71.2402 L 22.7051 -71.2402 C 14.209 -71.2402 9.76562 -66.8945 9.76562 -58.4473 L 9.76562 -11.9629 C 9.76562 -3.51562 14.209 0.830078 22.7051 0.830078 Z M 32.8125 -18.0664 C 30.5664 -18.0664 28.8086 -19.9219 28.8086 -22.1191 C 28.8086 -23.1934 29.248 -24.1699 29.9805 -24.9023 L 40.2344 -35.2051 L 29.9805 -45.5078 C 29.248 -46.1914 28.8086 -47.168 28.8086 -48.2422 C 28.8086 -50.4883 30.5664 -52.2461 32.8125 -52.2461 C 33.9355 -52.2461 34.8633 -51.8555 35.5469 -51.0742 L 45.8984 -40.8203 L 56.2988 -51.123 C 57.0801 -51.9531 57.959 -52.2949 59.082 -52.2949 C 61.2793 -52.2949 63.0859 -50.5371 63.0859 -48.291 C 63.0859 -47.2168 62.6953 -46.3379 61.9141 -45.5566 L 51.5625 -35.2051 L 61.8652 -24.9512 C 62.5977 -24.1699 63.0371 -23.2422 63.0371 -22.1191 C 63.0371 -19.9219 61.2793 -18.0664 59.0332 -18.0664 C 57.8613 -18.0664 56.8848 -18.5547 56.2012 -19.2871 L 45.8984 -29.541 L 35.6445 -19.2871 C 34.9121 -18.5059 33.9355 -18.0664 32.8125 -18.0664 Z"/>
  </g>
  <g id="Regular-S" transform="matrix(1 0 0 1 1404.51 696)">
   <path d="M 22.2168 0.390625 L 68.457 0.390625 C 76.8066 0.390625 80.9082 -3.71094 80.9082 -11.9141 L 80.9082 -58.4961 C 80.9082 -66.6992 76.8066 -70.8008 68.457 -70.8008 L 22.2168 -70.8008 C 13.916 -70.8008 9.76562 -66.6992 9.76562 -58.4961 L 9.76562 -11.9141 C 9.76562 -3.71094 13.916 0.390625 22.2168 0.390625 Z M 31.8359 -18.0176 C 29.834 -18.0176 28.1738 -19.6777 28.1738 -21.7285 C 28.1738 -22.7051 28.6133 -23.584 29.248 -24.2188 L 40.2344 -35.2051 L 29.248 -46.1914 C 28.6133 -46.8262 28.1738 -47.7051 28.1738 -48.6816 C 28.1738 -50.7324 29.834 -52.2949 31.8359 -52.2949 C 32.8613 -52.2949 33.6914 -51.9531 34.3262 -51.2695 L 45.3613 -40.2832 L 56.4453 -51.3184 C 57.1777 -52.0996 57.959 -52.3926 58.9355 -52.3926 C 60.9375 -52.3926 62.5977 -50.7812 62.5977 -48.7305 C 62.5977 -47.7539 62.2559 -46.9727 61.5234 -46.2402 L 50.5371 -35.2051 L 61.4746 -24.3164 C 62.1094 -23.584 62.5488 -22.7539 62.5488 -21.7285 C 62.5488 -19.6777 60.8887 -18.0176 58.8867 -18.0176 C 57.8613 -18.0176 56.9336 -18.457 56.3477 -19.0918 L 45.3613 -30.0781 L 34.4238 -19.0918 C 33.7891 -18.4082 32.8613 -18.0176 31.8359 -18.0176 Z"/>
  </g>
  <g id="Light-S" transform="matrix(1 0 0 1 1108.46 696)">
   <path d="M 21.3867 -0.292969 L 67.9688 -0.292969 C 75.7324 -0.292969 79.5898 -4.15039 79.5898 -11.7676 L 79.5898 -58.5938 C 79.5898 -66.2109 75.7324 -70.1172 67.9688 -70.1172 L 21.3867 -70.1172 C 13.6719 -70.1172 9.76562 -66.2598 9.76562 -58.5938 L 9.76562 -11.7676 C 9.76562 -4.15039 13.6719 -0.292969 21.3867 -0.292969 Z M 30.8594 -18.457 C 29.248 -18.457 27.9785 -19.7754 27.9785 -21.3379 C 27.9785 -22.1191 28.2715 -22.8027 28.8086 -23.3398 L 40.6738 -35.2051 L 28.8086 -47.0703 C 28.2715 -47.5586 27.9785 -48.291 27.9785 -49.0723 C 27.9785 -50.6348 29.248 -51.8555 30.8594 -51.8555 C 31.6406 -51.8555 32.2754 -51.6113 32.8125 -51.0254 L 44.6777 -39.209 L 56.5918 -51.0742 C 57.1777 -51.6602 57.8125 -51.9531 58.5938 -51.9531 C 60.2051 -51.9531 61.4746 -50.6836 61.4746 -49.0723 C 61.4746 -48.291 61.2305 -47.6562 60.5957 -47.0703 L 48.7305 -35.2051 L 60.5469 -23.3887 C 61.1328 -22.8516 61.4258 -22.168 61.4258 -21.3379 C 61.4258 -19.7754 60.1562 -18.457 58.5449 -18.457 C 57.7637 -18.457 57.0312 -18.7988 56.4941 -19.3359 L 44.6777 -31.1523 L 32.9102 -19.3359 C 32.373 -18.7988 31.6406 -18.457 30.8594 -18.457 Z"/>
  </g>
  <g id="Thin-S" transform="matrix(1 0 0 1 812.599 696)">
   <path d="M 20.3125 -1.12305 L 67.334 -1.12305 C 74.2676 -1.12305 77.8809 -4.78516 77.8809 -11.6211 L 77.8809 -58.6914 C 77.8809 -65.5762 74.2676 -69.2383 67.334 -69.2383 L 20.3125 -69.2383 C 13.3789 -69.2383 9.76562 -65.625 9.76562 -58.6914 L 9.76562 -11.6211 C 9.76562 -4.6875 13.3789 -1.12305 20.3125 -1.12305 Z M 29.4922 -19.0918 C 28.4668 -19.0918 27.6855 -19.873 27.6855 -20.8496 C 27.6855 -21.3867 27.832 -21.7773 28.2715 -22.2168 L 41.2109 -35.2051 L 28.2715 -48.1934 C 27.8809 -48.584 27.6855 -49.0234 27.6855 -49.5605 C 27.6855 -50.5371 28.4668 -51.3184 29.4922 -51.3184 C 30.0781 -51.3184 30.4688 -51.123 30.8594 -50.6836 L 43.7988 -37.793 L 56.7871 -50.7324 C 57.2266 -51.1719 57.666 -51.3184 58.1543 -51.3184 C 59.1797 -51.3184 59.9609 -50.5859 59.9609 -49.5605 C 59.9609 -49.0234 59.8145 -48.6328 59.4238 -48.1934 L 46.3867 -35.2051 L 59.375 -22.2168 C 59.7656 -21.8262 59.9609 -21.3867 59.9609 -20.8496 C 59.9609 -19.873 59.1797 -19.0918 58.1543 -19.0918 C 57.6172 -19.0918 57.1289 -19.2871 56.7383 -19.6777 L 43.7988 -32.6172 L 30.9082 -19.6777 C 30.4688 -19.2871 30.0781 -19.0918 29.4922 -19.0918 Z"/>
  </g>
  <g id="Ultralight-S" transform="matrix(1 0 0 1 516.352 696)">
   <path d="M 19.7754 -1.5625 L 66.9922 -1.5625 C 73.5352 -1.5625 76.9531 -5.12695 76.9531 -11.5234 L 76.9531 -58.7891 C 76.9531 -65.2344 73.5352 -68.75 66.9922 -68.75 L 19.7754 -68.75 C 13.2324 -68.75 9.76562 -65.2832 9.76562 -58.7891 L 9.76562 -11.5234 C 9.76562 -5.0293 13.2324 -1.5625 19.7754 -1.5625 Z M 28.8086 -19.4336 C 28.0762 -19.4336 27.5391 -19.9219 27.5391 -20.6055 C 27.5391 -20.9961 27.5879 -21.2402 27.9297 -21.6309 L 41.5527 -35.2051 L 27.9297 -48.7793 C 27.6367 -49.1211 27.5391 -49.4141 27.5391 -49.8047 C 27.5391 -50.4883 28.0762 -50.9766 28.8086 -50.9766 C 29.248 -50.9766 29.4922 -50.8789 29.8828 -50.5371 L 43.3594 -37.0117 L 56.8848 -50.5371 C 57.2266 -50.8789 57.5195 -50.9766 57.9102 -50.9766 C 58.6426 -50.9766 59.2285 -50.4883 59.2285 -49.8047 C 59.2285 -49.4141 59.082 -49.1211 58.7891 -48.7793 L 45.2148 -35.2051 L 58.7891 -21.6309 C 59.082 -21.2891 59.2285 -20.9961 59.2285 -20.6055 C 59.2285 -19.9219 58.6426 -19.4336 57.9102 -19.4336 C 57.5195 -19.4336 57.2266 -19.5312 56.8359 -19.873 L 43.3594 -33.3496 L 29.8828 -19.873 C 29.541 -19.5312 29.248 -19.4336 28.8086 -19.4336 Z"/>
  </g>
 </g>
</svg>
