<?xml version="1.0" encoding="UTF-8"?>
<!--Generator: Apple Native CoreSVG 123-->
<!DOCTYPE svg
PUBLIC "-//W3C//DTD SVG 1.1//EN"
       "http://www.w3.org/Graphics/SVG/1.1/DTD/svg11.dtd">
<svg version="1.1" xmlns="http://www.w3.org/2000/svg" xmlns:xlink="http://www.w3.org/1999/xlink" width="3300" height="2200">
 <!--glyph: "uni10018A.medium", point size: 100.000000, font version: "Version 15.0d7e11", template writer version: "5"-->
 <g id="Notes">
  <rect height="2200" id="artboard" style="fill:white;opacity:1" width="3300" x="0" y="0"/>
  <line id="" style="fill:none;stroke:black;opacity:1;stroke-width:0.5;" x1="263" x2="3036" y1="292" y2="292"/>
  <text style="stroke:none;fill:black;font-family:-apple-system,&quot;SF Pro Display&quot;,&quot;SF Pro Text&quot;,Helvetica,sans-serif;font-weight:bold;" transform="matrix(1 0 0 1 263 322)">Weight/Scale Variations</text>
  <text style="stroke:none;fill:black;font-family:-apple-system,&quot;SF Pro Display&quot;,&quot;SF Pro Text&quot;,Helvetica,sans-serif;text-anchor:middle;" transform="matrix(1 0 0 1 559.711 322)">Ultralight</text>
  <text style="stroke:none;fill:black;font-family:-apple-system,&quot;SF Pro Display&quot;,&quot;SF Pro Text&quot;,Helvetica,sans-serif;text-anchor:middle;" transform="matrix(1 0 0 1 856.422 322)">Thin</text>
  <text style="stroke:none;fill:black;font-family:-apple-system,&quot;SF Pro Display&quot;,&quot;SF Pro Text&quot;,Helvetica,sans-serif;text-anchor:middle;" transform="matrix(1 0 0 1 1153.13 322)">Light</text>
  <text style="stroke:none;fill:black;font-family:-apple-system,&quot;SF Pro Display&quot;,&quot;SF Pro Text&quot;,Helvetica,sans-serif;text-anchor:middle;" transform="matrix(1 0 0 1 1449.84 322)">Regular</text>
  <text style="stroke:none;fill:black;font-family:-apple-system,&quot;SF Pro Display&quot;,&quot;SF Pro Text&quot;,Helvetica,sans-serif;text-anchor:middle;" transform="matrix(1 0 0 1 1746.56 322)">Medium</text>
  <text style="stroke:none;fill:black;font-family:-apple-system,&quot;SF Pro Display&quot;,&quot;SF Pro Text&quot;,Helvetica,sans-serif;text-anchor:middle;" transform="matrix(1 0 0 1 2043.27 322)">Semibold</text>
  <text style="stroke:none;fill:black;font-family:-apple-system,&quot;SF Pro Display&quot;,&quot;SF Pro Text&quot;,Helvetica,sans-serif;text-anchor:middle;" transform="matrix(1 0 0 1 2339.98 322)">Bold</text>
  <text style="stroke:none;fill:black;font-family:-apple-system,&quot;SF Pro Display&quot;,&quot;SF Pro Text&quot;,Helvetica,sans-serif;text-anchor:middle;" transform="matrix(1 0 0 1 2636.69 322)">Heavy</text>
  <text style="stroke:none;fill:black;font-family:-apple-system,&quot;SF Pro Display&quot;,&quot;SF Pro Text&quot;,Helvetica,sans-serif;text-anchor:middle;" transform="matrix(1 0 0 1 2933.4 322)">Black</text>
  <line id="" style="fill:none;stroke:black;opacity:1;stroke-width:0.5;" x1="263" x2="3036" y1="1903" y2="1903"/>
  <g id="" transform="matrix(1 0 0 1 263 1933)">
   <path d="M 9.24805 0.830078 C 13.5547 0.830078 17.1387 -2.74414 17.1387 -7.05078 C 17.1387 -11.3574 13.5449 -14.9316 9.23828 -14.9316 C 4.94141 -14.9316 1.36719 -11.3574 1.36719 -7.05078 C 1.36719 -2.74414 4.95117 0.830078 9.24805 0.830078 Z M 9.24805 -0.654297 C 5.70312 -0.654297 2.87109 -3.49609 2.87109 -7.05078 C 2.87109 -10.6055 5.69336 -13.4473 9.23828 -13.4473 C 12.793 -13.4473 15.6348 -10.6055 15.6445 -7.05078 C 15.6543 -3.49609 12.8027 -0.654297 9.24805 -0.654297 Z M 9.22852 -3.42773 C 9.69727 -3.42773 9.9707 -3.74023 9.9707 -4.25781 L 9.9707 -6.31836 L 12.1973 -6.31836 C 12.6953 -6.31836 13.0371 -6.57227 13.0371 -7.04102 C 13.0371 -7.51953 12.7148 -7.7832 12.1973 -7.7832 L 9.9707 -7.7832 L 9.9707 -10.0098 C 9.9707 -10.5273 9.69727 -10.8496 9.22852 -10.8496 C 8.75977 -10.8496 8.50586 -10.5078 8.50586 -10.0098 L 8.50586 -7.7832 L 6.29883 -7.7832 C 5.78125 -7.7832 5.44922 -7.51953 5.44922 -7.04102 C 5.44922 -6.57227 5.80078 -6.31836 6.29883 -6.31836 L 8.50586 -6.31836 L 8.50586 -4.25781 C 8.50586 -3.75977 8.75977 -3.42773 9.22852 -3.42773 Z"/>
  </g>
  <g id="" transform="matrix(1 0 0 1 281.506 1933)">
   <path d="M 11.709 2.91016 C 17.1582 2.91016 21.6699 -1.60156 21.6699 -7.05078 C 21.6699 -12.4902 17.1484 -17.0117 11.6992 -17.0117 C 6.25977 -17.0117 1.74805 -12.4902 1.74805 -7.05078 C 1.74805 -1.60156 6.26953 2.91016 11.709 2.91016 Z M 11.709 1.25 C 7.09961 1.25 3.41797 -2.44141 3.41797 -7.05078 C 3.41797 -11.6504 7.08984 -15.3516 11.6992 -15.3516 C 16.3086 -15.3516 20 -11.6504 20.0098 -7.05078 C 20.0195 -2.44141 16.3184 1.25 11.709 1.25 Z M 11.6895 -2.41211 C 12.207 -2.41211 12.5195 -2.77344 12.5195 -3.33984 L 12.5195 -6.23047 L 15.5762 -6.23047 C 16.123 -6.23047 16.5039 -6.51367 16.5039 -7.03125 C 16.5039 -7.55859 16.1426 -7.86133 15.5762 -7.86133 L 12.5195 -7.86133 L 12.5195 -10.9277 C 12.5195 -11.5039 12.207 -11.8555 11.6895 -11.8555 C 11.1719 -11.8555 10.8789 -11.4844 10.8789 -10.9277 L 10.8789 -7.86133 L 7.83203 -7.86133 C 7.26562 -7.86133 6.89453 -7.55859 6.89453 -7.03125 C 6.89453 -6.51367 7.28516 -6.23047 7.83203 -6.23047 L 10.8789 -6.23047 L 10.8789 -3.33984 C 10.8789 -2.79297 11.1719 -2.41211 11.6895 -2.41211 Z"/>
  </g>
  <g id="" transform="matrix(1 0 0 1 304.924 1933)">
   <path d="M 14.9707 5.67383 C 21.9336 5.67383 27.6953 -0.078125 27.6953 -7.04102 C 27.6953 -14.0039 21.9238 -19.7559 14.9609 -19.7559 C 8.00781 -19.7559 2.25586 -14.0039 2.25586 -7.04102 C 2.25586 -0.078125 8.01758 5.67383 14.9707 5.67383 Z M 14.9707 3.85742 C 8.93555 3.85742 4.08203 -1.00586 4.08203 -7.04102 C 4.08203 -13.0762 8.92578 -17.9395 14.9609 -17.9395 C 21.0059 -17.9395 25.8594 -13.0762 25.8691 -7.04102 C 25.8789 -1.00586 21.0156 3.85742 14.9707 3.85742 Z M 14.9512 -1.06445 C 15.5176 -1.06445 15.8691 -1.45508 15.8691 -2.06055 L 15.8691 -6.13281 L 20.1074 -6.13281 C 20.6934 -6.13281 21.1133 -6.46484 21.1133 -7.02148 C 21.1133 -7.59766 20.7227 -7.93945 20.1074 -7.93945 L 15.8691 -7.93945 L 15.8691 -12.1875 C 15.8691 -12.8027 15.5176 -13.1934 14.9512 -13.1934 C 14.3848 -13.1934 14.0625 -12.7832 14.0625 -12.1875 L 14.0625 -7.93945 L 9.83398 -7.93945 C 9.21875 -7.93945 8.80859 -7.59766 8.80859 -7.02148 C 8.80859 -6.46484 9.23828 -6.13281 9.83398 -6.13281 L 14.0625 -6.13281 L 14.0625 -2.06055 C 14.0625 -1.47461 14.3848 -1.06445 14.9512 -1.06445 Z"/>
  </g>
  <text style="stroke:none;fill:black;font-family:-apple-system,&quot;SF Pro Display&quot;,&quot;SF Pro Text&quot;,Helvetica,sans-serif;font-weight:bold;" transform="matrix(1 0 0 1 263 1953)">Design Variations</text>
  <text style="stroke:none;fill:black;font-family:-apple-system,&quot;SF Pro Display&quot;,&quot;SF Pro Text&quot;,Helvetica,sans-serif;" transform="matrix(1 0 0 1 263 1971)">Symbols are supported in up to nine weights and three scales.</text>
  <text style="stroke:none;fill:black;font-family:-apple-system,&quot;SF Pro Display&quot;,&quot;SF Pro Text&quot;,Helvetica,sans-serif;" transform="matrix(1 0 0 1 263 1989)">For optimal layout with text and other symbols, vertically align</text>
  <text style="stroke:none;fill:black;font-family:-apple-system,&quot;SF Pro Display&quot;,&quot;SF Pro Text&quot;,Helvetica,sans-serif;" transform="matrix(1 0 0 1 263 2007)">symbols with the adjacent text.</text>
  <rect height="14" id="" style="fill:#00AEEF;stroke:none;opacity:0.4;" width="3" x="776" y="1919"/>
  <g id="" transform="matrix(1 0 0 1 779 1933)">
   <path d="M 10.5273 0 L 12.373 0 L 7.17773 -14.0918 L 5.43945 -14.0918 L 0.244141 0 L 2.08984 0 L 3.50586 -4.0332 L 9.11133 -4.0332 Z M 6.2793 -11.9531 L 6.33789 -11.9531 L 8.59375 -5.52734 L 4.02344 -5.52734 Z"/>
  </g>
  <rect height="14" id="" style="fill:#00AEEF;stroke:none;opacity:0.4;" width="3" x="791.617" y="1919"/>
  <text style="stroke:none;fill:black;font-family:-apple-system,&quot;SF Pro Display&quot;,&quot;SF Pro Text&quot;,Helvetica,sans-serif;font-weight:bold;" transform="matrix(1 0 0 1 776 1953)">Margins</text>
  <text style="stroke:none;fill:black;font-family:-apple-system,&quot;SF Pro Display&quot;,&quot;SF Pro Text&quot;,Helvetica,sans-serif;" transform="matrix(1 0 0 1 776 1971)">Leading and trailing margins on the left and right side of each symbol</text>
  <text style="stroke:none;fill:black;font-family:-apple-system,&quot;SF Pro Display&quot;,&quot;SF Pro Text&quot;,Helvetica,sans-serif;" transform="matrix(1 0 0 1 776 1989)">can be adjusted by modifying the width of the blue rectangles.</text>
  <text style="stroke:none;fill:black;font-family:-apple-system,&quot;SF Pro Display&quot;,&quot;SF Pro Text&quot;,Helvetica,sans-serif;" transform="matrix(1 0 0 1 776 2007)">Modifications are automatically applied proportionally to all</text>
  <text style="stroke:none;fill:black;font-family:-apple-system,&quot;SF Pro Display&quot;,&quot;SF Pro Text&quot;,Helvetica,sans-serif;" transform="matrix(1 0 0 1 776 2025)">scales and weights.</text>
  <g id="" transform="matrix(1 0 0 1 1289 1933)">
   <path d="M 2.83203 3.11523 L 4.375 4.6582 C 5.22461 5.48828 6.19141 5.41992 7.06055 4.46289 L 17.2754 -6.66016 C 17.7051 -6.36719 18.0957 -6.37695 18.5645 -6.47461 L 19.6094 -6.68945 L 20.3027 -5.99609 L 20.2539 -5.47852 C 20.1855 -4.95117 20.3516 -4.53125 20.8496 -4.0332 L 21.6602 -3.22266 C 22.168 -2.71484 22.8223 -2.68555 23.3008 -3.16406 L 26.5527 -6.41602 C 27.0312 -6.89453 27.0117 -7.54883 26.5039 -8.05664 L 25.6836 -8.87695 C 25.1855 -9.375 24.7754 -9.55078 24.2383 -9.47266 L 23.7109 -9.41406 L 23.0566 -10.0781 L 23.3398 -11.2207 C 23.4863 -11.7871 23.3398 -12.2559 22.7148 -12.8613 L 20.3027 -15.2539 C 16.7578 -18.7793 12.2266 -18.6719 9.11133 -15.5371 C 8.69141 -15.1074 8.64258 -14.5215 8.91602 -14.0918 C 9.15039 -13.7207 9.62891 -13.4961 10.2734 -13.6621 C 11.7871 -14.043 13.3008 -13.9258 14.7852 -12.9199 L 14.1602 -11.3379 C 13.9258 -10.752 13.9453 -10.2734 14.1797 -9.83398 L 3.01758 0.439453 C 2.08008 1.30859 1.97266 2.25586 2.83203 3.11523 Z M 10.6738 -15.1465 C 13.3398 -17.1387 16.6504 -16.8262 19.0527 -14.4141 L 21.6797 -11.8066 C 21.9141 -11.5723 21.9434 -11.3867 21.8848 -11.0938 L 21.5039 -9.53125 L 23.0762 -7.95898 L 24.043 -8.04688 C 24.3262 -8.07617 24.4141 -8.05664 24.6387 -7.83203 L 25.2637 -7.20703 L 22.5098 -4.46289 L 21.8848 -5.07812 C 21.6602 -5.30273 21.6406 -5.40039 21.6699 -5.68359 L 21.7578 -6.64062 L 20.1953 -8.20312 L 18.5742 -7.89062 C 18.291 -7.83203 18.1445 -7.83203 17.9102 -8.07617 L 15.7324 -10.2539 C 15.5078 -10.4883 15.4785 -10.625 15.6055 -10.9473 L 16.5527 -13.2227 C 14.9512 -14.7559 12.8418 -15.6055 10.8008 -14.9512 C 10.7129 -14.9219 10.6445 -14.9414 10.6152 -14.9805 C 10.5859 -15.0293 10.5859 -15.0781 10.6738 -15.1465 Z M 4.10156 2.41211 C 3.61328 1.91406 3.78906 1.61133 4.12109 1.30859 L 15.0781 -8.80859 L 16.3086 -7.57812 L 6.15234 3.34961 C 5.84961 3.68164 5.46875 3.7793 5.06836 3.37891 Z"/>
  </g>
  <text style="stroke:none;fill:black;font-family:-apple-system,&quot;SF Pro Display&quot;,&quot;SF Pro Text&quot;,Helvetica,sans-serif;font-weight:bold;" transform="matrix(1 0 0 1 1289 1953)">Exporting</text>
  <text style="stroke:none;fill:black;font-family:-apple-system,&quot;SF Pro Display&quot;,&quot;SF Pro Text&quot;,Helvetica,sans-serif;" transform="matrix(1 0 0 1 1289 1971)">Symbols should be outlined when exporting to ensure the</text>
  <text style="stroke:none;fill:black;font-family:-apple-system,&quot;SF Pro Display&quot;,&quot;SF Pro Text&quot;,Helvetica,sans-serif;" transform="matrix(1 0 0 1 1289 1989)">design is preserved when submitting to Xcode.</text>
  <text id="template-version" style="stroke:none;fill:black;font-family:-apple-system,&quot;SF Pro Display&quot;,&quot;SF Pro Text&quot;,Helvetica,sans-serif;text-anchor:end;" transform="matrix(1 0 0 1 3036 1933)">Template v.1.0</text>
  <text style="stroke:none;fill:black;font-family:-apple-system,&quot;SF Pro Display&quot;,&quot;SF Pro Text&quot;,Helvetica,sans-serif;text-anchor:end;" transform="matrix(1 0 0 1 3036 1951)">Generated from chevron.right</text>
  <text style="stroke:none;fill:black;font-family:-apple-system,&quot;SF Pro Display&quot;,&quot;SF Pro Text&quot;,Helvetica,sans-serif;text-anchor:end;" transform="matrix(1 0 0 1 3036 1969)">Typeset at 100 points</text>
  <text style="stroke:none;fill:black;font-family:-apple-system,&quot;SF Pro Display&quot;,&quot;SF Pro Text&quot;,Helvetica,sans-serif;" transform="matrix(1 0 0 1 263 726)">Small</text>
  <text style="stroke:none;fill:black;font-family:-apple-system,&quot;SF Pro Display&quot;,&quot;SF Pro Text&quot;,Helvetica,sans-serif;" transform="matrix(1 0 0 1 263 1156)">Medium</text>
  <text style="stroke:none;fill:black;font-family:-apple-system,&quot;SF Pro Display&quot;,&quot;SF Pro Text&quot;,Helvetica,sans-serif;" transform="matrix(1 0 0 1 263 1586)">Large</text>
 </g>
 <g id="Guides">
  <g id="H-reference" style="fill:#27AAE1;stroke:none;" transform="matrix(1 0 0 1 339 696)">
   <path d="M 54.9316 0 L 57.666 0 L 30.5664 -70.459 L 28.0762 -70.459 L 0.976562 0 L 3.66211 0 L 12.9395 -24.4629 L 45.7031 -24.4629 Z M 29.1992 -67.0898 L 29.4434 -67.0898 L 44.8242 -26.709 L 13.8184 -26.709 Z"/>
  </g>
  <line id="Baseline-S" style="fill:none;stroke:#27AAE1;opacity:1;stroke-width:0.577;" x1="263" x2="3036" y1="696" y2="696"/>
  <line id="Capline-S" style="fill:none;stroke:#27AAE1;opacity:1;stroke-width:0.577;" x1="263" x2="3036" y1="625.541" y2="625.541"/>
  <g id="H-reference" style="fill:#27AAE1;stroke:none;" transform="matrix(1 0 0 1 339 1126)">
   <path d="M 54.9316 0 L 57.666 0 L 30.5664 -70.459 L 28.0762 -70.459 L 0.976562 0 L 3.66211 0 L 12.9395 -24.4629 L 45.7031 -24.4629 Z M 29.1992 -67.0898 L 29.4434 -67.0898 L 44.8242 -26.709 L 13.8184 -26.709 Z"/>
  </g>
  <line id="Baseline-M" style="fill:none;stroke:#27AAE1;opacity:1;stroke-width:0.577;" x1="263" x2="3036" y1="1126" y2="1126"/>
  <line id="Capline-M" style="fill:none;stroke:#27AAE1;opacity:1;stroke-width:0.577;" x1="263" x2="3036" y1="1055.54" y2="1055.54"/>
  <g id="H-reference" style="fill:#27AAE1;stroke:none;" transform="matrix(1 0 0 1 339 1556)">
   <path d="M 54.9316 0 L 57.666 0 L 30.5664 -70.459 L 28.0762 -70.459 L 0.976562 0 L 3.66211 0 L 12.9395 -24.4629 L 45.7031 -24.4629 Z M 29.1992 -67.0898 L 29.4434 -67.0898 L 44.8242 -26.709 L 13.8184 -26.709 Z"/>
  </g>
  <line id="Baseline-L" style="fill:none;stroke:#27AAE1;opacity:1;stroke-width:0.577;" x1="263" x2="3036" y1="1556" y2="1556"/>
  <line id="Capline-L" style="fill:none;stroke:#27AAE1;opacity:1;stroke-width:0.577;" x1="263" x2="3036" y1="1485.54" y2="1485.54"/>
  <rect height="119.336" id="left-margin" style="fill:#00AEEF;stroke:none;opacity:0.4;" width="12.4512" x="1413.52" y="1030.79"/>
  <rect height="119.336" id="right-margin" style="fill:#00AEEF;stroke:none;opacity:0.4;" width="12.4512" x="1473.72" y="1030.79"/>
 </g>
 <g id="Symbols">
  <g id="Black-L" transform="matrix(1 0 0 1 2880.86 1556)">
   <path d="M 29.0039 24.3652 C 32.5195 24.3652 35.3516 23.2422 37.793 20.752 L 84.082 -24.707 C 87.4512 -28.125 88.9648 -31.2988 89.0137 -35.4492 C 89.0137 -39.502 87.5 -42.8223 84.082 -46.1914 L 37.793 -91.6992 C 35.3027 -94.1406 32.4219 -95.3125 29.0039 -95.3125 C 21.9238 -95.3125 16.0645 -89.5508 16.0645 -82.5684 C 16.0645 -79.0039 17.5781 -75.7324 20.3125 -73.0469 L 59.0332 -35.3516 L 20.3125 2.14844 C 17.5293 4.83398 16.0645 8.10547 16.0645 11.6211 C 16.0645 18.6035 21.9238 24.3652 29.0039 24.3652 Z"/>
  </g>
  <g id="Heavy-L" transform="matrix(1 0 0 1 2585.66 1556)">
   <path d="M 27.0996 22.9004 C 30.0781 22.9004 32.5684 21.875 34.668 19.7754 L 81.8359 -26.3184 C 84.668 -29.1504 85.9375 -31.9336 85.9863 -35.4004 C 85.9863 -38.8672 84.7168 -41.6992 81.8359 -44.4824 L 34.668 -90.625 C 32.5195 -92.6758 30.0293 -93.7012 27.0996 -93.7012 C 21.0449 -93.7012 16.0645 -88.8184 16.0645 -82.8125 C 16.0645 -79.834 17.334 -77.002 19.6289 -74.7559 L 60.3027 -35.3516 L 19.6289 3.95508 C 17.2852 6.20117 16.0645 8.98438 16.0645 11.9629 C 16.0645 17.9688 21.0449 22.9004 27.0996 22.9004 Z"/>
  </g>
  <g id="Bold-L" transform="matrix(1 0 0 1 2290.64 1556)">
   <path d="M 24.9512 21.2402 C 27.3926 21.2402 29.3945 20.3613 31.1035 18.7012 L 79.2969 -28.125 C 81.543 -30.3711 82.5684 -32.5684 82.6172 -35.3516 C 82.6172 -38.0859 81.543 -40.4297 79.3457 -42.5781 L 31.1035 -89.4043 C 29.3945 -91.0645 27.3926 -91.9434 24.9512 -91.9434 C 20.0195 -91.9434 16.0645 -87.9883 16.0645 -83.1543 C 16.0645 -80.7129 17.0898 -78.418 18.8965 -76.6602 L 61.6699 -35.3027 L 18.8965 5.95703 C 17.041 7.71484 16.0645 9.96094 16.0645 12.4023 C 16.0645 17.2852 20.0195 21.2402 24.9512 21.2402 Z"/>
  </g>
  <g id="Semibold-L" transform="matrix(1 0 0 1 1995.1 1556)">
   <path d="M 23.4863 20.0684 C 25.5371 20.0684 27.2461 19.3359 28.6621 17.9199 L 77.5879 -29.3457 C 79.3457 -31.1523 80.2734 -33.0566 80.2734 -35.3027 C 80.2734 -37.5977 79.3945 -39.5508 77.5879 -41.2598 L 28.6621 -88.5742 C 27.2461 -89.9414 25.5371 -90.7227 23.4863 -90.7227 C 19.3359 -90.7227 16.0645 -87.4512 16.0645 -83.3496 C 16.0645 -81.3477 16.8945 -79.4434 18.3594 -77.9785 L 62.5977 -35.3027 L 18.3594 7.32422 C 16.8945 8.78906 16.0645 10.6445 16.0645 12.6953 C 16.0645 16.7969 19.3359 20.0684 23.4863 20.0684 Z"/>
  </g>
  <g id="Medium-L" transform="matrix(1 0 0 1 1699.27 1556)">
   <path d="M 22.3633 19.1895 C 24.1211 19.1895 25.5859 18.5547 26.8066 17.3828 L 76.2695 -30.3223 C 77.7344 -31.7871 78.5156 -33.3984 78.5156 -35.3027 C 78.5156 -37.207 77.7344 -38.8672 76.2695 -40.2832 L 26.8066 -87.9395 C 25.5859 -89.1113 24.1211 -89.7949 22.3633 -89.7949 C 18.8477 -89.7949 16.0645 -87.0117 16.0645 -83.4961 C 16.0645 -81.7871 16.748 -80.1758 17.9688 -78.9551 L 63.3301 -35.2539 L 17.9688 8.34961 C 16.748 9.57031 16.0645 11.1816 16.0645 12.8906 C 16.0645 16.4551 18.8477 19.1895 22.3633 19.1895 Z"/>
  </g>
  <g id="Regular-L" transform="matrix(1 0 0 1 1403.7 1556)">
   <path d="M 20.9473 18.0664 C 22.3145 18.0664 23.4375 17.5293 24.3652 16.6016 L 74.5117 -31.543 C 75.5859 -32.6172 76.2207 -33.8379 76.2207 -35.2539 C 76.2207 -36.6699 75.6348 -37.9883 74.5605 -38.9648 L 24.4141 -87.1094 C 23.4863 -87.9883 22.3145 -88.5742 20.9473 -88.5742 C 18.1641 -88.5742 16.0645 -86.4746 16.0645 -83.6914 C 16.0645 -82.4219 16.6016 -81.1523 17.4316 -80.2734 L 64.2578 -35.2539 L 17.4316 9.7168 C 16.6016 10.6445 16.0645 11.8652 16.0645 13.1836 C 16.0645 15.9668 18.1641 18.0664 20.9473 18.0664 Z"/>
  </g>
  <g id="Light-L" transform="matrix(1 0 0 1 1107.99 1556)">
   <path d="M 19.7266 16.1621 C 20.752 16.1621 21.5332 15.7227 22.3145 15.0391 L 72.7539 -32.2266 C 73.6328 -33.1055 74.2188 -34.1309 74.2188 -35.2539 C 74.2188 -36.4258 73.6816 -37.4512 72.8027 -38.2324 L 22.3633 -85.498 C 21.582 -86.1816 20.752 -86.6699 19.7266 -86.6699 C 17.6758 -86.6699 16.0645 -85.0586 16.0645 -83.0078 C 16.0645 -82.0312 16.4062 -81.0547 17.0898 -80.4199 L 65.2344 -35.2051 L 17.0898 9.91211 C 16.4062 10.5957 16.0645 11.5234 16.0645 12.5 C 16.0645 14.5996 17.6758 16.1621 19.7266 16.1621 Z"/>
  </g>
  <g id="Thin-L" transform="matrix(1 0 0 1 812.623 1556)">
   <path d="M 18.1152 13.6719 C 18.7012 13.6719 19.043 13.3789 19.5312 12.9883 L 70.4102 -33.1543 C 71.0449 -33.7891 71.5332 -34.4727 71.5332 -35.2539 C 71.5332 -36.084 71.0938 -36.6699 70.459 -37.3047 L 19.6289 -83.3496 C 19.1406 -83.7402 18.7012 -84.1309 18.1152 -84.1309 C 16.9922 -84.1309 16.0645 -83.2031 16.0645 -82.0801 C 16.0645 -81.543 16.2109 -80.957 16.6016 -80.6641 L 66.5039 -35.2051 L 16.6016 10.1074 C 16.2109 10.498 16.0645 11.084 16.0645 11.6211 C 16.0645 12.7441 16.9922 13.6719 18.1152 13.6719 Z"/>
  </g>
  <g id="Ultralight-L" transform="matrix(1 0 0 1 516.596 1556)">
   <path d="M 17.2852 12.3535 C 17.627 12.3535 17.7734 12.1582 18.1152 11.9141 L 69.1895 -33.6426 C 69.7266 -34.1309 70.166 -34.6191 70.166 -35.2539 C 70.166 -35.8887 69.7754 -36.2793 69.2871 -36.8164 L 18.2129 -82.2754 C 17.8711 -82.5195 17.627 -82.8125 17.2852 -82.8125 C 16.6016 -82.8125 16.0645 -82.2754 16.0645 -81.5918 C 16.0645 -81.2988 16.1133 -80.9082 16.3574 -80.7617 L 67.1875 -35.2051 L 16.3574 10.2051 C 16.1133 10.4492 16.0645 10.8398 16.0645 11.1328 C 16.0645 11.8164 16.6016 12.3535 17.2852 12.3535 Z"/>
  </g>
  <g id="Black-M" transform="matrix(1 0 0 1 2891.19 1126)">
   <path d="M 24.3652 11.9141 C 27.5879 11.9141 30.1758 10.9375 32.4707 8.64258 L 67.2852 -25.2441 C 70.5078 -28.5645 71.9238 -31.543 71.9727 -35.4492 C 71.9727 -39.3066 70.5566 -42.334 67.2852 -45.6543 L 32.4707 -79.6387 C 30.127 -81.8359 27.5391 -82.9102 24.3652 -82.9102 C 17.8711 -82.9102 12.4512 -77.5391 12.4512 -71.1426 C 12.4512 -67.8711 13.8184 -64.8438 16.4551 -62.3047 L 44.6289 -35.3516 L 16.4551 -8.59375 C 13.7695 -6.05469 12.4512 -3.02734 12.4512 0.195312 C 12.4512 6.54297 17.8711 11.9141 24.3652 11.9141 Z"/>
  </g>
  <g id="Heavy-M" transform="matrix(1 0 0 1 2595.87 1126)">
   <path d="M 22.6074 10.791 C 25.3906 10.791 27.5879 9.91211 29.541 8.00781 L 65.2832 -26.8555 C 67.9688 -29.5898 69.1406 -32.1289 69.1895 -35.4004 C 69.1895 -38.6719 68.0176 -41.2598 65.2832 -43.9453 L 29.541 -78.8574 C 27.5391 -80.7129 25.3418 -81.6895 22.6074 -81.6895 C 17.041 -81.6895 12.4512 -77.0996 12.4512 -71.6309 C 12.4512 -68.8477 13.623 -66.2598 15.8203 -64.1602 L 45.7031 -35.3516 L 15.8203 -6.68945 C 13.5742 -4.54102 12.4512 -1.95312 12.4512 0.78125 C 12.4512 6.25 17.041 10.791 22.6074 10.791 Z"/>
  </g>
  <g id="Bold-M" transform="matrix(1 0 0 1 2300.7 1126)">
   <path d="M 20.6543 9.57031 C 22.9004 9.57031 24.707 8.78906 26.2695 7.22656 L 63.0371 -28.6133 C 65.0879 -30.7129 66.0645 -32.7637 66.1133 -35.3516 C 66.1133 -37.8906 65.1367 -40.0391 63.0371 -42.0898 L 26.2695 -77.9785 C 24.707 -79.4922 22.8516 -80.2734 20.6543 -80.2734 C 16.1133 -80.2734 12.4512 -76.6602 12.4512 -72.168 C 12.4512 -69.9219 13.3789 -67.8711 15.0879 -66.1621 L 46.9238 -35.3027 L 15.0879 -4.54102 C 13.3789 -2.83203 12.4512 -0.78125 12.4512 1.46484 C 12.4512 5.9082 16.1133 9.57031 20.6543 9.57031 Z"/>
  </g>
  <g id="Semibold-M" transform="matrix(1 0 0 1 2005.06 1126)">
   <path d="M 19.2871 8.69141 C 21.1914 8.69141 22.7051 8.00781 24.0234 6.73828 L 61.4746 -29.834 C 63.1348 -31.4941 63.916 -33.2031 63.9648 -35.3027 C 63.9648 -37.4023 63.1836 -39.1602 61.4746 -40.7715 L 24.0234 -77.3926 C 22.7051 -78.6621 21.1426 -79.3457 19.2871 -79.3457 C 15.4785 -79.3457 12.4512 -76.3184 12.4512 -72.5586 C 12.4512 -70.7031 13.2324 -68.9453 14.5996 -67.5781 L 47.8027 -35.3027 L 14.5996 -3.07617 C 13.2324 -1.70898 12.4512 0.0488281 12.4512 1.9043 C 12.4512 5.66406 15.4785 8.69141 19.2871 8.69141 Z"/>
  </g>
  <g id="Medium-M" transform="matrix(1 0 0 1 1709.18 1126)">
   <path d="M 18.2617 8.00781 C 19.873 8.00781 21.1914 7.42188 22.3145 6.34766 L 60.3027 -30.7617 C 61.6211 -32.1289 62.3047 -33.5449 62.3047 -35.3027 C 62.3047 -37.0117 61.6699 -38.5254 60.3027 -39.7949 L 22.3145 -76.9531 C 21.1914 -78.0273 19.873 -78.6133 18.2617 -78.6133 C 14.9902 -78.6133 12.4512 -76.0742 12.4512 -72.8516 C 12.4512 -71.2891 13.1348 -69.7754 14.209 -68.6523 L 48.4375 -35.2539 L 14.209 -1.95312 C 13.0859 -0.78125 12.4512 0.634766 12.4512 2.24609 C 12.4512 5.46875 14.9902 8.00781 18.2617 8.00781 Z"/>
  </g>
  <g id="Regular-M" transform="matrix(1 0 0 1 1413.52 1126)">
   <path d="M 16.8945 7.17773 C 18.1641 7.17773 19.2383 6.68945 20.0684 5.85938 L 58.7891 -31.9824 C 59.7168 -32.9102 60.2051 -34.0332 60.2051 -35.2539 C 60.2051 -36.5234 59.7168 -37.6953 58.7891 -38.5254 L 20.1172 -76.3184 C 19.2383 -77.1973 18.1641 -77.6855 16.8945 -77.6855 C 14.3555 -77.6855 12.4512 -75.7324 12.4512 -73.1934 C 12.4512 -72.0215 12.9395 -70.8496 13.7207 -70.0195 L 49.2676 -35.2539 L 13.7207 -0.488281 C 12.9395 0.341797 12.4512 1.46484 12.4512 2.68555 C 12.4512 5.22461 14.3555 7.17773 16.8945 7.17773 Z"/>
  </g>
  <g id="Light-M" transform="matrix(1 0 0 1 1117.71 1126)">
   <path d="M 15.8203 5.46875 C 16.7969 5.46875 17.5293 5.07812 18.2129 4.44336 L 57.1777 -32.6172 C 57.959 -33.3496 58.3984 -34.2285 58.3984 -35.2539 C 58.3984 -36.2793 57.959 -37.207 57.2266 -37.8906 L 18.2617 -74.9023 C 17.5781 -75.5371 16.7969 -75.9277 15.8203 -75.9277 C 13.916 -75.9277 12.4512 -74.4629 12.4512 -72.5586 C 12.4512 -71.6797 12.793 -70.8008 13.4277 -70.166 L 50.0977 -35.2539 L 13.4277 -0.341797 C 12.793 0.292969 12.4512 1.17188 12.4512 2.09961 C 12.4512 4.00391 13.916 5.46875 15.8203 5.46875 Z"/>
  </g>
  <g id="Thin-M" transform="matrix(1 0 0 1 822.194 1126)">
   <path d="M 14.3555 3.17383 C 14.9414 3.17383 15.332 2.92969 15.7227 2.58789 L 55.0781 -33.4473 C 55.6152 -33.9844 56.0059 -34.5703 56.0059 -35.2539 C 56.0059 -35.9863 55.6641 -36.5234 55.127 -37.0117 L 15.7715 -72.998 C 15.3809 -73.3887 14.9414 -73.6816 14.3555 -73.6816 C 13.2812 -73.6816 12.4512 -72.8027 12.4512 -71.7285 C 12.4512 -71.2402 12.5977 -70.7031 12.9883 -70.3613 L 51.2695 -35.2051 L 12.9883 -0.146484 C 12.5977 0.244141 12.4512 0.78125 12.4512 1.26953 C 12.4512 2.34375 13.2812 3.17383 14.3555 3.17383 Z"/>
  </g>
  <g id="Ultralight-M" transform="matrix(1 0 0 1 526.093 1126)">
   <path d="M 13.623 2.05078 C 14.0137 2.05078 14.1602 1.85547 14.4531 1.61133 L 54.0039 -33.8379 C 54.4434 -34.2773 54.7852 -34.7168 54.7852 -35.2539 C 54.7852 -35.791 54.4922 -36.1816 54.0527 -36.5723 L 14.5508 -72.0215 C 14.209 -72.2656 14.0137 -72.5098 13.623 -72.5098 C 12.9883 -72.5098 12.4512 -71.9727 12.4512 -71.2891 C 12.4512 -70.9961 12.5 -70.6543 12.7441 -70.459 L 51.8555 -35.2051 L 12.7441 -0.0488281 C 12.5 0.195312 12.4512 0.537109 12.4512 0.830078 C 12.4512 1.51367 12.9883 2.05078 13.623 2.05078 Z"/>
  </g>
  <g id="Black-S" transform="matrix(1 0 0 1 2900.42 696)">
   <path d="M 18.9941 1.66016 C 21.4844 1.66016 23.4863 0.878906 25.2441 -0.878906 L 52.5879 -27.5391 C 55.0781 -30.0781 56.1523 -32.373 56.2012 -35.4004 C 56.2012 -38.3789 55.127 -40.7227 52.5879 -43.2617 L 25.2441 -69.9707 C 23.4375 -71.6797 21.4355 -72.5098 18.9941 -72.5098 C 13.9648 -72.5098 9.76562 -68.3594 9.76562 -63.4277 C 9.76562 -60.8887 10.8398 -58.5449 12.8418 -56.5918 L 35.0586 -35.3516 L 12.8418 -14.209 C 10.791 -12.2559 9.76562 -9.91211 9.76562 -7.42188 C 9.76562 -2.49023 13.9648 1.66016 18.9941 1.66016 Z"/>
  </g>
  <g id="Heavy-S" transform="matrix(1 0 0 1 2604.66 696)">
   <path d="M 17.7734 0.976562 C 19.9219 0.976562 21.6797 0.292969 23.1934 -1.2207 L 51.2207 -28.6621 C 53.3203 -30.8105 54.248 -32.8125 54.2969 -35.3516 C 54.2969 -37.8906 53.3691 -39.9414 51.2207 -42.041 L 23.1934 -69.5312 C 21.6797 -70.9961 19.9219 -71.7773 17.7734 -71.7773 C 13.3789 -71.7773 9.76562 -68.1641 9.76562 -63.8672 C 9.76562 -61.6699 10.6934 -59.6191 12.4023 -57.959 L 35.791 -35.3027 L 12.4023 -12.7441 C 10.6445 -11.084 9.76562 -9.08203 9.76562 -6.88477 C 9.76562 -2.58789 13.3789 0.976562 17.7734 0.976562 Z"/>
  </g>
  <g id="Bold-S" transform="matrix(1 0 0 1 2309.02 696)">
   <path d="M 16.4062 0.244141 C 18.2129 0.244141 19.6777 -0.390625 20.9473 -1.61133 L 49.707 -29.9805 C 51.3672 -31.6406 52.0996 -33.252 52.1484 -35.3516 C 52.1484 -37.3535 51.3672 -39.0625 49.707 -40.6738 L 20.9473 -69.043 C 19.6777 -70.2637 18.1641 -70.8984 16.4062 -70.8984 C 12.7441 -70.8984 9.76562 -67.9688 9.76562 -64.3555 C 9.76562 -62.5488 10.5469 -60.8398 11.8652 -59.5215 L 36.6211 -35.3027 L 11.8652 -11.1328 C 10.498 -9.81445 9.76562 -8.10547 9.76562 -6.29883 C 9.76562 -2.68555 12.7441 0.244141 16.4062 0.244141 Z"/>
  </g>
  <g id="Semibold-S" transform="matrix(1 0 0 1 2013.07 696)">
   <path d="M 15.4297 -0.292969 C 16.9922 -0.292969 18.3105 -0.830078 19.3848 -1.9043 L 48.6328 -30.8594 C 50 -32.1777 50.6348 -33.5938 50.6348 -35.3027 C 50.6348 -37.0117 50 -38.4766 48.6816 -39.7461 L 19.3848 -68.7012 C 18.3105 -69.7754 16.9922 -70.3125 15.4297 -70.3125 C 12.3047 -70.3125 9.76562 -67.8223 9.76562 -64.6973 C 9.76562 -63.1348 10.4004 -61.7188 11.5234 -60.5469 L 37.207 -35.2539 L 11.5234 -10.0098 C 10.4004 -8.88672 9.76562 -7.4707 9.76562 -5.9082 C 9.76562 -2.7832 12.3047 -0.292969 15.4297 -0.292969 Z"/>
  </g>
  <g id="Medium-S" transform="matrix(1 0 0 1 1716.92 696)">
   <path d="M 14.7461 -0.683594 C 16.1133 -0.683594 17.2852 -1.17188 18.2129 -2.09961 L 47.8516 -31.4941 C 48.9746 -32.6172 49.5117 -33.8379 49.5117 -35.3027 C 49.5117 -36.7188 48.9746 -38.0371 47.8516 -39.0625 L 18.2129 -68.457 C 17.2363 -69.3848 16.1133 -69.873 14.7461 -69.873 C 11.9629 -69.873 9.76562 -67.7246 9.76562 -64.9414 C 9.76562 -63.623 10.3516 -62.3535 11.2793 -61.377 L 37.6465 -35.2539 L 11.2793 -9.17969 C 10.3516 -8.20312 9.76562 -6.98242 9.76562 -5.61523 C 9.76562 -2.83203 11.9629 -0.683594 14.7461 -0.683594 Z"/>
  </g>
  <g id="Regular-S" transform="matrix(1 0 0 1 1420.94 696)">
   <path d="M 13.8184 -1.17188 C 14.9414 -1.17188 15.918 -1.61133 16.6504 -2.34375 L 46.8262 -32.373 C 47.6074 -33.1543 48.0469 -34.1797 48.0469 -35.2539 C 48.0469 -36.3281 47.6074 -37.4023 46.8262 -38.1348 L 16.6504 -68.1152 C 15.918 -68.8965 14.9414 -69.3359 13.8184 -69.3359 C 11.5234 -69.3359 9.76562 -67.5781 9.76562 -65.2832 C 9.76562 -64.209 10.2539 -63.1836 10.9375 -62.4023 L 38.2324 -35.2539 L 10.9375 -8.10547 C 10.2539 -7.32422 9.76562 -6.34766 9.76562 -5.22461 C 9.76562 -2.92969 11.5234 -1.17188 13.8184 -1.17188 Z"/>
  </g>
  <g id="Light-S" transform="matrix(1 0 0 1 1125.01 696)">
   <path d="M 12.8418 -2.68555 C 13.6719 -2.68555 14.4043 -3.02734 14.9902 -3.61328 L 45.4102 -32.9102 C 46.0938 -33.5938 46.4844 -34.375 46.4844 -35.2539 C 46.4844 -36.1328 46.0938 -36.9629 45.4102 -37.5488 L 14.9902 -66.8457 C 14.4043 -67.4316 13.6719 -67.7734 12.8418 -67.7734 C 11.084 -67.7734 9.76562 -66.4551 9.76562 -64.7461 C 9.76562 -63.916 10.1074 -63.1348 10.6445 -62.5488 L 38.9648 -35.2539 L 10.6445 -7.95898 C 10.1074 -7.37305 9.76562 -6.5918 9.76562 -5.76172 C 9.76562 -4.00391 11.084 -2.68555 12.8418 -2.68555 Z"/>
  </g>
  <g id="Thin-S" transform="matrix(1 0 0 1 829.371 696)">
   <path d="M 11.5723 -4.6875 C 12.0605 -4.6875 12.4512 -4.93164 12.793 -5.27344 L 43.5547 -33.6426 C 44.043 -34.1309 44.3359 -34.6191 44.3359 -35.2539 C 44.3359 -35.8887 44.043 -36.377 43.6035 -36.8164 L 12.8418 -65.1855 C 12.4512 -65.5273 12.0605 -65.7715 11.5723 -65.7715 C 10.5469 -65.7715 9.76562 -64.9902 9.76562 -64.0137 C 9.76562 -63.5254 9.91211 -63.0371 10.2539 -62.7441 L 39.9414 -35.2051 L 10.2539 -7.76367 C 9.91211 -7.42188 9.76562 -6.93359 9.76562 -6.49414 C 9.76562 -5.46875 10.5469 -4.6875 11.5723 -4.6875 Z"/>
  </g>
  <g id="Ultralight-S" transform="matrix(1 0 0 1 533.197 696)">
   <path d="M 10.8887 -5.71289 C 11.2305 -5.71289 11.4258 -5.85938 11.6699 -6.10352 L 42.5781 -34.0332 C 42.9688 -34.4238 43.2617 -34.7656 43.2617 -35.2539 C 43.2617 -35.7422 43.0176 -36.0352 42.627 -36.4258 L 11.7188 -64.3066 C 11.4746 -64.5508 11.2305 -64.7461 10.8887 -64.7461 C 10.2539 -64.7461 9.76562 -64.2578 9.76562 -63.623 C 9.76562 -63.3301 9.81445 -62.9883 10.0586 -62.8418 L 40.4785 -35.2051 L 10.0586 -7.66602 C 9.81445 -7.4707 9.76562 -7.12891 9.76562 -6.83594 C 9.76562 -6.20117 10.2539 -5.71289 10.8887 -5.71289 Z"/>
  </g>
 </g>
</svg>
