<?xml version="1.0" encoding="UTF-8"?>
<!--Generator: Apple Native CoreSVG 123-->
<!DOCTYPE svg
PUBLIC "-//W3C//DTD SVG 1.1//EN"
       "http://www.w3.org/Graphics/SVG/1.1/DTD/svg11.dtd">
<svg version="1.1" xmlns="http://www.w3.org/2000/svg" xmlns:xlink="http://www.w3.org/1999/xlink" width="3300" height="2200">
 <!--glyph: "uni1000F2.medium", point size: 100.000000, font version: "Version 15.0d7e11", template writer version: "5"-->
 <g id="Notes">
  <rect height="2200" id="artboard" style="fill:white;opacity:1" width="3300" x="0" y="0"/>
  <line id="" style="fill:none;stroke:black;opacity:1;stroke-width:0.5;" x1="263" x2="3036" y1="292" y2="292"/>
  <text style="stroke:none;fill:black;font-family:-apple-system,&quot;SF Pro Display&quot;,&quot;SF Pro Text&quot;,Helvetica,sans-serif;font-weight:bold;" transform="matrix(1 0 0 1 263 322)">Weight/Scale Variations</text>
  <text style="stroke:none;fill:black;font-family:-apple-system,&quot;SF Pro Display&quot;,&quot;SF Pro Text&quot;,Helvetica,sans-serif;text-anchor:middle;" transform="matrix(1 0 0 1 559.711 322)">Ultralight</text>
  <text style="stroke:none;fill:black;font-family:-apple-system,&quot;SF Pro Display&quot;,&quot;SF Pro Text&quot;,Helvetica,sans-serif;text-anchor:middle;" transform="matrix(1 0 0 1 856.422 322)">Thin</text>
  <text style="stroke:none;fill:black;font-family:-apple-system,&quot;SF Pro Display&quot;,&quot;SF Pro Text&quot;,Helvetica,sans-serif;text-anchor:middle;" transform="matrix(1 0 0 1 1153.13 322)">Light</text>
  <text style="stroke:none;fill:black;font-family:-apple-system,&quot;SF Pro Display&quot;,&quot;SF Pro Text&quot;,Helvetica,sans-serif;text-anchor:middle;" transform="matrix(1 0 0 1 1449.84 322)">Regular</text>
  <text style="stroke:none;fill:black;font-family:-apple-system,&quot;SF Pro Display&quot;,&quot;SF Pro Text&quot;,Helvetica,sans-serif;text-anchor:middle;" transform="matrix(1 0 0 1 1746.56 322)">Medium</text>
  <text style="stroke:none;fill:black;font-family:-apple-system,&quot;SF Pro Display&quot;,&quot;SF Pro Text&quot;,Helvetica,sans-serif;text-anchor:middle;" transform="matrix(1 0 0 1 2043.27 322)">Semibold</text>
  <text style="stroke:none;fill:black;font-family:-apple-system,&quot;SF Pro Display&quot;,&quot;SF Pro Text&quot;,Helvetica,sans-serif;text-anchor:middle;" transform="matrix(1 0 0 1 2339.98 322)">Bold</text>
  <text style="stroke:none;fill:black;font-family:-apple-system,&quot;SF Pro Display&quot;,&quot;SF Pro Text&quot;,Helvetica,sans-serif;text-anchor:middle;" transform="matrix(1 0 0 1 2636.69 322)">Heavy</text>
  <text style="stroke:none;fill:black;font-family:-apple-system,&quot;SF Pro Display&quot;,&quot;SF Pro Text&quot;,Helvetica,sans-serif;text-anchor:middle;" transform="matrix(1 0 0 1 2933.4 322)">Black</text>
  <line id="" style="fill:none;stroke:black;opacity:1;stroke-width:0.5;" x1="263" x2="3036" y1="1903" y2="1903"/>
  <g id="" transform="matrix(1 0 0 1 263 1933)">
   <path d="M 9.24805 0.830078 C 13.5547 0.830078 17.1387 -2.74414 17.1387 -7.05078 C 17.1387 -11.3574 13.5449 -14.9316 9.23828 -14.9316 C 4.94141 -14.9316 1.36719 -11.3574 1.36719 -7.05078 C 1.36719 -2.74414 4.95117 0.830078 9.24805 0.830078 Z M 9.24805 -0.654297 C 5.70312 -0.654297 2.87109 -3.49609 2.87109 -7.05078 C 2.87109 -10.6055 5.69336 -13.4473 9.23828 -13.4473 C 12.793 -13.4473 15.6348 -10.6055 15.6445 -7.05078 C 15.6543 -3.49609 12.8027 -0.654297 9.24805 -0.654297 Z M 9.22852 -3.42773 C 9.69727 -3.42773 9.9707 -3.74023 9.9707 -4.25781 L 9.9707 -6.31836 L 12.1973 -6.31836 C 12.6953 -6.31836 13.0371 -6.57227 13.0371 -7.04102 C 13.0371 -7.51953 12.7148 -7.7832 12.1973 -7.7832 L 9.9707 -7.7832 L 9.9707 -10.0098 C 9.9707 -10.5273 9.69727 -10.8496 9.22852 -10.8496 C 8.75977 -10.8496 8.50586 -10.5078 8.50586 -10.0098 L 8.50586 -7.7832 L 6.29883 -7.7832 C 5.78125 -7.7832 5.44922 -7.51953 5.44922 -7.04102 C 5.44922 -6.57227 5.80078 -6.31836 6.29883 -6.31836 L 8.50586 -6.31836 L 8.50586 -4.25781 C 8.50586 -3.75977 8.75977 -3.42773 9.22852 -3.42773 Z"/>
  </g>
  <g id="" transform="matrix(1 0 0 1 281.506 1933)">
   <path d="M 11.709 2.91016 C 17.1582 2.91016 21.6699 -1.60156 21.6699 -7.05078 C 21.6699 -12.4902 17.1484 -17.0117 11.6992 -17.0117 C 6.25977 -17.0117 1.74805 -12.4902 1.74805 -7.05078 C 1.74805 -1.60156 6.26953 2.91016 11.709 2.91016 Z M 11.709 1.25 C 7.09961 1.25 3.41797 -2.44141 3.41797 -7.05078 C 3.41797 -11.6504 7.08984 -15.3516 11.6992 -15.3516 C 16.3086 -15.3516 20 -11.6504 20.0098 -7.05078 C 20.0195 -2.44141 16.3184 1.25 11.709 1.25 Z M 11.6895 -2.41211 C 12.207 -2.41211 12.5195 -2.77344 12.5195 -3.33984 L 12.5195 -6.23047 L 15.5762 -6.23047 C 16.123 -6.23047 16.5039 -6.51367 16.5039 -7.03125 C 16.5039 -7.55859 16.1426 -7.86133 15.5762 -7.86133 L 12.5195 -7.86133 L 12.5195 -10.9277 C 12.5195 -11.5039 12.207 -11.8555 11.6895 -11.8555 C 11.1719 -11.8555 10.8789 -11.4844 10.8789 -10.9277 L 10.8789 -7.86133 L 7.83203 -7.86133 C 7.26562 -7.86133 6.89453 -7.55859 6.89453 -7.03125 C 6.89453 -6.51367 7.28516 -6.23047 7.83203 -6.23047 L 10.8789 -6.23047 L 10.8789 -3.33984 C 10.8789 -2.79297 11.1719 -2.41211 11.6895 -2.41211 Z"/>
  </g>
  <g id="" transform="matrix(1 0 0 1 304.924 1933)">
   <path d="M 14.9707 5.67383 C 21.9336 5.67383 27.6953 -0.078125 27.6953 -7.04102 C 27.6953 -14.0039 21.9238 -19.7559 14.9609 -19.7559 C 8.00781 -19.7559 2.25586 -14.0039 2.25586 -7.04102 C 2.25586 -0.078125 8.01758 5.67383 14.9707 5.67383 Z M 14.9707 3.85742 C 8.93555 3.85742 4.08203 -1.00586 4.08203 -7.04102 C 4.08203 -13.0762 8.92578 -17.9395 14.9609 -17.9395 C 21.0059 -17.9395 25.8594 -13.0762 25.8691 -7.04102 C 25.8789 -1.00586 21.0156 3.85742 14.9707 3.85742 Z M 14.9512 -1.06445 C 15.5176 -1.06445 15.8691 -1.45508 15.8691 -2.06055 L 15.8691 -6.13281 L 20.1074 -6.13281 C 20.6934 -6.13281 21.1133 -6.46484 21.1133 -7.02148 C 21.1133 -7.59766 20.7227 -7.93945 20.1074 -7.93945 L 15.8691 -7.93945 L 15.8691 -12.1875 C 15.8691 -12.8027 15.5176 -13.1934 14.9512 -13.1934 C 14.3848 -13.1934 14.0625 -12.7832 14.0625 -12.1875 L 14.0625 -7.93945 L 9.83398 -7.93945 C 9.21875 -7.93945 8.80859 -7.59766 8.80859 -7.02148 C 8.80859 -6.46484 9.23828 -6.13281 9.83398 -6.13281 L 14.0625 -6.13281 L 14.0625 -2.06055 C 14.0625 -1.47461 14.3848 -1.06445 14.9512 -1.06445 Z"/>
  </g>
  <text style="stroke:none;fill:black;font-family:-apple-system,&quot;SF Pro Display&quot;,&quot;SF Pro Text&quot;,Helvetica,sans-serif;font-weight:bold;" transform="matrix(1 0 0 1 263 1953)">Design Variations</text>
  <text style="stroke:none;fill:black;font-family:-apple-system,&quot;SF Pro Display&quot;,&quot;SF Pro Text&quot;,Helvetica,sans-serif;" transform="matrix(1 0 0 1 263 1971)">Symbols are supported in up to nine weights and three scales.</text>
  <text style="stroke:none;fill:black;font-family:-apple-system,&quot;SF Pro Display&quot;,&quot;SF Pro Text&quot;,Helvetica,sans-serif;" transform="matrix(1 0 0 1 263 1989)">For optimal layout with text and other symbols, vertically align</text>
  <text style="stroke:none;fill:black;font-family:-apple-system,&quot;SF Pro Display&quot;,&quot;SF Pro Text&quot;,Helvetica,sans-serif;" transform="matrix(1 0 0 1 263 2007)">symbols with the adjacent text.</text>
  <rect height="14" id="" style="fill:#00AEEF;stroke:none;opacity:0.4;" width="3" x="776" y="1919"/>
  <g id="" transform="matrix(1 0 0 1 779 1933)">
   <path d="M 10.5273 0 L 12.373 0 L 7.17773 -14.0918 L 5.43945 -14.0918 L 0.244141 0 L 2.08984 0 L 3.50586 -4.0332 L 9.11133 -4.0332 Z M 6.2793 -11.9531 L 6.33789 -11.9531 L 8.59375 -5.52734 L 4.02344 -5.52734 Z"/>
  </g>
  <rect height="14" id="" style="fill:#00AEEF;stroke:none;opacity:0.4;" width="3" x="791.617" y="1919"/>
  <text style="stroke:none;fill:black;font-family:-apple-system,&quot;SF Pro Display&quot;,&quot;SF Pro Text&quot;,Helvetica,sans-serif;font-weight:bold;" transform="matrix(1 0 0 1 776 1953)">Margins</text>
  <text style="stroke:none;fill:black;font-family:-apple-system,&quot;SF Pro Display&quot;,&quot;SF Pro Text&quot;,Helvetica,sans-serif;" transform="matrix(1 0 0 1 776 1971)">Leading and trailing margins on the left and right side of each symbol</text>
  <text style="stroke:none;fill:black;font-family:-apple-system,&quot;SF Pro Display&quot;,&quot;SF Pro Text&quot;,Helvetica,sans-serif;" transform="matrix(1 0 0 1 776 1989)">can be adjusted by modifying the width of the blue rectangles.</text>
  <text style="stroke:none;fill:black;font-family:-apple-system,&quot;SF Pro Display&quot;,&quot;SF Pro Text&quot;,Helvetica,sans-serif;" transform="matrix(1 0 0 1 776 2007)">Modifications are automatically applied proportionally to all</text>
  <text style="stroke:none;fill:black;font-family:-apple-system,&quot;SF Pro Display&quot;,&quot;SF Pro Text&quot;,Helvetica,sans-serif;" transform="matrix(1 0 0 1 776 2025)">scales and weights.</text>
  <g id="" transform="matrix(1 0 0 1 1289 1933)">
   <path d="M 2.83203 3.11523 L 4.375 4.6582 C 5.22461 5.48828 6.19141 5.41992 7.06055 4.46289 L 17.2754 -6.66016 C 17.7051 -6.36719 18.0957 -6.37695 18.5645 -6.47461 L 19.6094 -6.68945 L 20.3027 -5.99609 L 20.2539 -5.47852 C 20.1855 -4.95117 20.3516 -4.53125 20.8496 -4.0332 L 21.6602 -3.22266 C 22.168 -2.71484 22.8223 -2.68555 23.3008 -3.16406 L 26.5527 -6.41602 C 27.0312 -6.89453 27.0117 -7.54883 26.5039 -8.05664 L 25.6836 -8.87695 C 25.1855 -9.375 24.7754 -9.55078 24.2383 -9.47266 L 23.7109 -9.41406 L 23.0566 -10.0781 L 23.3398 -11.2207 C 23.4863 -11.7871 23.3398 -12.2559 22.7148 -12.8613 L 20.3027 -15.2539 C 16.7578 -18.7793 12.2266 -18.6719 9.11133 -15.5371 C 8.69141 -15.1074 8.64258 -14.5215 8.91602 -14.0918 C 9.15039 -13.7207 9.62891 -13.4961 10.2734 -13.6621 C 11.7871 -14.043 13.3008 -13.9258 14.7852 -12.9199 L 14.1602 -11.3379 C 13.9258 -10.752 13.9453 -10.2734 14.1797 -9.83398 L 3.01758 0.439453 C 2.08008 1.30859 1.97266 2.25586 2.83203 3.11523 Z M 10.6738 -15.1465 C 13.3398 -17.1387 16.6504 -16.8262 19.0527 -14.4141 L 21.6797 -11.8066 C 21.9141 -11.5723 21.9434 -11.3867 21.8848 -11.0938 L 21.5039 -9.53125 L 23.0762 -7.95898 L 24.043 -8.04688 C 24.3262 -8.07617 24.4141 -8.05664 24.6387 -7.83203 L 25.2637 -7.20703 L 22.5098 -4.46289 L 21.8848 -5.07812 C 21.6602 -5.30273 21.6406 -5.40039 21.6699 -5.68359 L 21.7578 -6.64062 L 20.1953 -8.20312 L 18.5742 -7.89062 C 18.291 -7.83203 18.1445 -7.83203 17.9102 -8.07617 L 15.7324 -10.2539 C 15.5078 -10.4883 15.4785 -10.625 15.6055 -10.9473 L 16.5527 -13.2227 C 14.9512 -14.7559 12.8418 -15.6055 10.8008 -14.9512 C 10.7129 -14.9219 10.6445 -14.9414 10.6152 -14.9805 C 10.5859 -15.0293 10.5859 -15.0781 10.6738 -15.1465 Z M 4.10156 2.41211 C 3.61328 1.91406 3.78906 1.61133 4.12109 1.30859 L 15.0781 -8.80859 L 16.3086 -7.57812 L 6.15234 3.34961 C 5.84961 3.68164 5.46875 3.7793 5.06836 3.37891 Z"/>
  </g>
  <text style="stroke:none;fill:black;font-family:-apple-system,&quot;SF Pro Display&quot;,&quot;SF Pro Text&quot;,Helvetica,sans-serif;font-weight:bold;" transform="matrix(1 0 0 1 1289 1953)">Exporting</text>
  <text style="stroke:none;fill:black;font-family:-apple-system,&quot;SF Pro Display&quot;,&quot;SF Pro Text&quot;,Helvetica,sans-serif;" transform="matrix(1 0 0 1 1289 1971)">Symbols should be outlined when exporting to ensure the</text>
  <text style="stroke:none;fill:black;font-family:-apple-system,&quot;SF Pro Display&quot;,&quot;SF Pro Text&quot;,Helvetica,sans-serif;" transform="matrix(1 0 0 1 1289 1989)">design is preserved when submitting to Xcode.</text>
  <text id="template-version" style="stroke:none;fill:black;font-family:-apple-system,&quot;SF Pro Display&quot;,&quot;SF Pro Text&quot;,Helvetica,sans-serif;text-anchor:end;" transform="matrix(1 0 0 1 3036 1933)">Template v.1.0</text>
  <text style="stroke:none;fill:black;font-family:-apple-system,&quot;SF Pro Display&quot;,&quot;SF Pro Text&quot;,Helvetica,sans-serif;text-anchor:end;" transform="matrix(1 0 0 1 3036 1951)">Generated from checkmark.square</text>
  <text style="stroke:none;fill:black;font-family:-apple-system,&quot;SF Pro Display&quot;,&quot;SF Pro Text&quot;,Helvetica,sans-serif;text-anchor:end;" transform="matrix(1 0 0 1 3036 1969)">Typeset at 100 points</text>
  <text style="stroke:none;fill:black;font-family:-apple-system,&quot;SF Pro Display&quot;,&quot;SF Pro Text&quot;,Helvetica,sans-serif;" transform="matrix(1 0 0 1 263 726)">Small</text>
  <text style="stroke:none;fill:black;font-family:-apple-system,&quot;SF Pro Display&quot;,&quot;SF Pro Text&quot;,Helvetica,sans-serif;" transform="matrix(1 0 0 1 263 1156)">Medium</text>
  <text style="stroke:none;fill:black;font-family:-apple-system,&quot;SF Pro Display&quot;,&quot;SF Pro Text&quot;,Helvetica,sans-serif;" transform="matrix(1 0 0 1 263 1586)">Large</text>
 </g>
 <g id="Guides">
  <g id="H-reference" style="fill:#27AAE1;stroke:none;" transform="matrix(1 0 0 1 339 696)">
   <path d="M 54.9316 0 L 57.666 0 L 30.5664 -70.459 L 28.0762 -70.459 L 0.976562 0 L 3.66211 0 L 12.9395 -24.4629 L 45.7031 -24.4629 Z M 29.1992 -67.0898 L 29.4434 -67.0898 L 44.8242 -26.709 L 13.8184 -26.709 Z"/>
  </g>
  <line id="Baseline-S" style="fill:none;stroke:#27AAE1;opacity:1;stroke-width:0.577;" x1="263" x2="3036" y1="696" y2="696"/>
  <line id="Capline-S" style="fill:none;stroke:#27AAE1;opacity:1;stroke-width:0.577;" x1="263" x2="3036" y1="625.541" y2="625.541"/>
  <g id="H-reference" style="fill:#27AAE1;stroke:none;" transform="matrix(1 0 0 1 339 1126)">
   <path d="M 54.9316 0 L 57.666 0 L 30.5664 -70.459 L 28.0762 -70.459 L 0.976562 0 L 3.66211 0 L 12.9395 -24.4629 L 45.7031 -24.4629 Z M 29.1992 -67.0898 L 29.4434 -67.0898 L 44.8242 -26.709 L 13.8184 -26.709 Z"/>
  </g>
  <line id="Baseline-M" style="fill:none;stroke:#27AAE1;opacity:1;stroke-width:0.577;" x1="263" x2="3036" y1="1126" y2="1126"/>
  <line id="Capline-M" style="fill:none;stroke:#27AAE1;opacity:1;stroke-width:0.577;" x1="263" x2="3036" y1="1055.54" y2="1055.54"/>
  <g id="H-reference" style="fill:#27AAE1;stroke:none;" transform="matrix(1 0 0 1 339 1556)">
   <path d="M 54.9316 0 L 57.666 0 L 30.5664 -70.459 L 28.0762 -70.459 L 0.976562 0 L 3.66211 0 L 12.9395 -24.4629 L 45.7031 -24.4629 Z M 29.1992 -67.0898 L 29.4434 -67.0898 L 44.8242 -26.709 L 13.8184 -26.709 Z"/>
  </g>
  <line id="Baseline-L" style="fill:none;stroke:#27AAE1;opacity:1;stroke-width:0.577;" x1="263" x2="3036" y1="1556" y2="1556"/>
  <line id="Capline-L" style="fill:none;stroke:#27AAE1;opacity:1;stroke-width:0.577;" x1="263" x2="3036" y1="1485.54" y2="1485.54"/>
  <rect height="119.336" id="left-margin" style="fill:#00AEEF;stroke:none;opacity:0.4;" width="12.4512" x="1392.45" y="1030.79"/>
  <rect height="119.336" id="right-margin" style="fill:#00AEEF;stroke:none;opacity:0.4;" width="12.4512" x="1494.79" y="1030.79"/>
 </g>
 <g id="Symbols">
  <g id="Black-L" transform="matrix(1 0 0 1 2855.62 1556)">
   <path d="M 39.9902 26.5137 L 115.576 26.5137 C 130.811 26.5137 139.502 17.8711 139.502 2.68555 L 139.502 -73.0957 C 139.502 -88.2812 130.811 -96.875 115.576 -96.875 L 39.9902 -96.875 C 24.7559 -96.875 16.0645 -88.2812 16.0645 -73.0957 L 16.0645 2.68555 C 16.0645 17.8711 24.7559 26.5137 39.9902 26.5137 Z M 42.6758 6.29883 C 38.4766 6.29883 36.3281 4.39453 36.3281 -0.146484 L 36.3281 -70.2148 C 36.3281 -74.7559 38.4766 -76.6602 42.6758 -76.6602 L 112.842 -76.6602 C 117.09 -76.6602 119.238 -74.7559 119.238 -70.2148 L 119.238 -0.146484 C 119.238 4.39453 117.09 6.29883 112.842 6.29883 Z M 69.9219 -2.39258 C 72.9004 -2.39258 75.5859 -3.95508 77.2949 -6.54297 L 106.787 -50.9277 C 107.959 -52.6855 108.594 -54.4922 108.594 -56.1035 C 108.594 -60.4492 104.785 -63.5254 100.586 -63.5254 C 97.8027 -63.5254 95.6055 -62.0605 93.7012 -59.082 L 69.8242 -21.2891 L 57.4219 -35.9375 C 55.7617 -37.8906 53.8574 -38.9648 51.4648 -38.9648 C 47.168 -38.9648 43.6035 -35.5469 43.6035 -31.25 C 43.6035 -29.248 44.2383 -27.5391 45.8984 -25.6836 L 62.3535 -6.34766 C 64.4531 -3.85742 66.8457 -2.39258 69.9219 -2.39258 Z"/>
  </g>
  <g id="Heavy-L" transform="matrix(1 0 0 1 2559.93 1556)">
   <path d="M 38.8184 25.4883 L 114.697 25.4883 C 129.346 25.4883 137.451 17.4316 137.451 2.88086 L 137.451 -73.2422 C 137.451 -87.793 129.346 -95.8496 114.697 -95.8496 L 38.8184 -95.8496 C 24.2188 -95.8496 16.0645 -87.793 16.0645 -73.2422 L 16.0645 2.88086 C 16.0645 17.4316 24.2188 25.4883 38.8184 25.4883 Z M 40.918 8.00781 C 36.084 8.00781 33.5938 5.71289 33.5938 0.585938 L 33.5938 -70.9473 C 33.5938 -76.0742 36.084 -78.3691 40.918 -78.3691 L 112.549 -78.3691 C 117.383 -78.3691 119.922 -76.0742 119.922 -70.9473 L 119.922 0.585938 C 119.922 5.71289 117.383 8.00781 112.549 8.00781 Z M 68.8965 -2.73438 C 71.582 -2.73438 73.9746 -4.10156 75.5371 -6.49414 L 105.664 -52.2949 C 106.689 -53.8574 107.324 -55.5176 107.324 -57.0801 C 107.324 -60.9375 103.906 -63.6719 100.195 -63.6719 C 97.7051 -63.6719 95.7031 -62.3535 93.9941 -59.7168 L 68.75 -19.6777 L 55.5664 -35.5469 C 53.9551 -37.4512 52.2461 -38.3789 50 -38.3789 C 46.1914 -38.3789 43.0176 -35.3027 43.0176 -31.4453 C 43.0176 -29.6387 43.6523 -28.0762 45.0684 -26.3672 L 61.9629 -6.34766 C 63.9648 -4.05273 66.1133 -2.73438 68.8965 -2.73438 Z"/>
  </g>
  <g id="Bold-L" transform="matrix(1 0 0 1 2264.37 1556)">
   <path d="M 37.5 24.3652 L 113.721 24.3652 C 127.637 24.3652 135.156 16.8945 135.156 3.07617 L 135.156 -73.3887 C 135.156 -87.207 127.637 -94.7266 113.721 -94.7266 L 37.5 -94.7266 C 23.6328 -94.7266 16.0645 -87.2559 16.0645 -73.3887 L 16.0645 3.07617 C 16.0645 16.8945 23.6328 24.3652 37.5 24.3652 Z M 38.9648 9.91211 C 33.4473 9.91211 30.5176 7.17773 30.5176 1.41602 L 30.5176 -71.7285 C 30.5176 -77.5391 33.4473 -80.2734 38.9648 -80.2734 L 112.256 -80.2734 C 117.725 -80.2734 120.703 -77.5391 120.703 -71.7285 L 120.703 1.41602 C 120.703 7.17773 117.725 9.91211 112.256 9.91211 Z M 67.6758 -3.125 C 70.0684 -3.125 72.168 -4.29688 73.584 -6.44531 L 104.346 -53.8086 C 105.273 -55.1758 105.908 -56.6895 105.908 -58.1055 C 105.908 -61.5234 102.93 -63.8672 99.707 -63.8672 C 97.5586 -63.8672 95.752 -62.6953 94.3359 -60.4004 L 67.5293 -17.9199 L 53.418 -35.1074 C 51.9531 -36.9141 50.3906 -37.7441 48.4375 -37.7441 C 45.1172 -37.7441 42.3828 -35.0586 42.3828 -31.6895 C 42.3828 -30.0781 42.9199 -28.6621 44.1406 -27.1973 L 61.5723 -6.34766 C 63.3789 -4.19922 65.2832 -3.125 67.6758 -3.125 Z"/>
  </g>
  <g id="Semibold-L" transform="matrix(1 0 0 1 1968.44 1556)">
   <path d="M 36.6211 23.584 L 113.037 23.584 C 126.514 23.584 133.594 16.5039 133.594 3.17383 L 133.594 -73.5352 C 133.594 -86.8164 126.514 -93.9453 113.037 -93.9453 L 36.6211 -93.9453 C 23.1934 -93.9453 16.0645 -86.8652 16.0645 -73.5352 L 16.0645 3.17383 C 16.0645 16.5527 23.1934 23.584 36.6211 23.584 Z M 37.5977 11.2793 C 31.6406 11.2793 28.418 8.20312 28.418 1.95312 L 28.418 -72.3145 C 28.418 -78.5156 31.6406 -81.5918 37.5977 -81.5918 L 112.061 -81.5918 C 117.969 -81.5918 121.24 -78.5156 121.24 -72.3145 L 121.24 1.95312 C 121.24 8.20312 117.969 11.2793 112.061 11.2793 Z M 66.8945 -3.36914 C 69.043 -3.36914 70.8984 -4.44336 72.2168 -6.39648 L 103.467 -54.834 C 104.297 -56.1035 104.932 -57.5195 104.932 -58.8379 C 104.932 -61.9141 102.246 -63.9648 99.3652 -63.9648 C 97.4609 -63.9648 95.8496 -62.9395 94.5801 -60.8887 L 66.6992 -16.6504 L 51.9531 -34.8145 C 50.5859 -36.5723 49.1211 -37.2559 47.3145 -37.2559 C 44.3848 -37.2559 41.9434 -34.9121 41.9434 -31.8359 C 41.9434 -30.3711 42.4805 -29.0527 43.5059 -27.7344 L 61.2793 -6.34766 C 62.9883 -4.3457 64.6973 -3.36914 66.8945 -3.36914 Z"/>
  </g>
  <g id="Medium-L" transform="matrix(1 0 0 1 1672.31 1556)">
   <path d="M 35.9375 22.998 L 112.5 22.998 C 125.635 22.998 132.422 16.2109 132.422 3.27148 L 132.422 -73.6328 C 132.422 -86.5234 125.635 -93.3105 112.5 -93.3105 L 35.9375 -93.3105 C 22.9004 -93.3105 16.0645 -86.5723 16.0645 -73.6328 L 16.0645 3.27148 C 16.0645 16.2598 22.9004 22.998 35.9375 22.998 Z M 36.5723 12.2559 C 30.2246 12.2559 26.8066 8.98438 26.8066 2.39258 L 26.8066 -72.7051 C 26.8066 -79.2969 30.2246 -82.6172 36.5723 -82.6172 L 111.865 -82.6172 C 118.115 -82.6172 121.68 -79.2969 121.68 -72.7051 L 121.68 2.39258 C 121.68 8.98438 118.115 12.2559 111.865 12.2559 Z M 66.2598 -3.56445 C 68.2617 -3.56445 69.9707 -4.54102 71.1914 -6.39648 L 102.832 -55.6152 C 103.564 -56.7871 104.199 -58.1055 104.199 -59.375 C 104.199 -62.207 101.709 -64.0625 99.1211 -64.0625 C 97.4121 -64.0625 95.8984 -63.0859 94.7266 -61.2305 L 66.0645 -15.7227 L 50.8789 -34.6191 C 49.5605 -36.2793 48.1934 -36.9629 46.4844 -36.9629 C 43.7988 -36.9629 41.6016 -34.7656 41.6016 -31.9824 C 41.6016 -30.6152 42.0898 -29.3457 43.0664 -28.1738 L 61.084 -6.34766 C 62.6953 -4.44336 64.2578 -3.56445 66.2598 -3.56445 Z"/>
  </g>
  <g id="Regular-L" transform="matrix(1 0 0 1 1376.38 1556)">
   <path d="M 35.0586 22.2168 L 111.816 22.2168 C 124.463 22.2168 130.859 15.8691 130.859 3.41797 L 130.859 -73.7305 C 130.859 -86.1816 124.463 -92.5293 111.816 -92.5293 L 35.0586 -92.5293 C 22.4609 -92.5293 16.0645 -86.2305 16.0645 -73.7305 L 16.0645 3.41797 C 16.0645 15.918 22.4609 22.2168 35.0586 22.2168 Z M 35.2539 13.5742 C 28.418 13.5742 24.707 9.96094 24.707 2.97852 L 24.707 -73.291 C 24.707 -80.2734 28.418 -83.8867 35.2539 -83.8867 L 111.67 -83.8867 C 118.359 -83.8867 122.217 -80.2734 122.217 -73.291 L 122.217 2.97852 C 122.217 9.96094 118.359 13.5742 111.67 13.5742 Z M 65.4785 -3.80859 C 67.2363 -3.80859 68.7012 -4.63867 69.8242 -6.34766 L 101.953 -56.6406 C 102.637 -57.7148 103.223 -58.9355 103.223 -60.1074 C 103.223 -62.5977 101.025 -64.1602 98.7793 -64.1602 C 97.3145 -64.1602 95.9473 -63.3301 94.9707 -61.7188 L 65.2344 -14.502 L 49.4141 -34.3262 C 48.1934 -35.9375 46.9238 -36.5234 45.4102 -36.5234 C 43.0664 -36.5234 41.1621 -34.6191 41.1621 -32.1289 C 41.1621 -30.9082 41.6504 -29.7363 42.4316 -28.7109 L 60.8398 -6.29883 C 62.3047 -4.54102 63.6719 -3.80859 65.4785 -3.80859 Z"/>
  </g>
  <g id="Light-L" transform="matrix(1 0 0 1 1080.5 1556)">
   <path d="M 34.0332 21.4355 L 111.23 21.4355 C 123.096 21.4355 129.199 15.2344 129.199 3.56445 L 129.199 -73.8281 C 129.199 -85.5469 123.096 -91.6992 111.23 -91.6992 L 34.0332 -91.6992 C 22.168 -91.6992 16.0645 -85.6445 16.0645 -73.8281 L 16.0645 3.56445 C 16.0645 15.3809 22.168 21.4355 34.0332 21.4355 Z M 34.1797 14.7949 C 26.709 14.7949 22.7051 10.8398 22.7051 3.22266 L 22.7051 -73.4863 C 22.7051 -81.1523 26.709 -85.0586 34.1797 -85.0586 L 111.035 -85.0586 C 118.359 -85.0586 122.559 -81.1523 122.559 -73.4863 L 122.559 3.22266 C 122.559 10.8398 118.359 14.7949 111.035 14.7949 Z M 64.4531 -3.85742 C 65.8203 -3.85742 66.9922 -4.44336 67.8711 -5.81055 L 101.318 -57.9102 C 101.855 -58.6914 102.295 -59.6191 102.295 -60.5469 C 102.295 -62.5488 100.537 -63.7695 98.7793 -63.7695 C 97.6562 -63.7695 96.5332 -63.0859 95.752 -61.8164 L 64.3066 -12.4023 L 46.875 -33.3984 C 45.9473 -34.6191 44.9707 -35.0586 43.75 -35.0586 C 41.9434 -35.0586 40.3809 -33.6426 40.3809 -31.6406 C 40.3809 -30.6641 40.7715 -29.7363 41.4062 -28.9062 L 60.8887 -5.76172 C 62.0605 -4.39453 63.0859 -3.85742 64.4531 -3.85742 Z"/>
  </g>
  <g id="Thin-L" transform="matrix(1 0 0 1 784.889 1556)">
   <path d="M 32.666 20.3613 L 110.352 20.3613 C 121.24 20.3613 127.002 14.4531 127.002 3.75977 L 127.002 -73.9746 C 127.002 -84.7168 121.24 -90.5762 110.352 -90.5762 L 32.666 -90.5762 C 21.7773 -90.5762 16.0645 -84.8633 16.0645 -73.9746 L 16.0645 3.75977 C 16.0645 14.6484 21.7773 20.3613 32.666 20.3613 Z M 32.8125 16.4062 C 24.4141 16.4062 19.9707 12.0117 19.9707 3.56445 L 19.9707 -73.7793 C 19.9707 -82.2754 24.4141 -86.6699 32.8125 -86.6699 L 110.205 -86.6699 C 118.359 -86.6699 123.047 -82.2754 123.047 -73.7793 L 123.047 3.56445 C 123.047 12.0117 118.359 16.4062 110.205 16.4062 Z M 63.1348 -3.90625 C 63.916 -3.90625 64.6973 -4.19922 65.2344 -5.07812 L 100.488 -59.5215 C 100.781 -60.0098 101.025 -60.5957 101.025 -61.084 C 101.025 -62.4023 99.8535 -63.2324 98.8281 -63.2324 C 98.0469 -63.2324 97.3145 -62.793 96.8262 -62.0117 L 63.0371 -9.61914 L 43.5059 -32.2266 C 42.9199 -32.9102 42.334 -33.2031 41.5039 -33.2031 C 40.4785 -33.2031 39.3555 -32.373 39.3555 -31.0059 C 39.3555 -30.3711 39.5996 -29.7363 40.0879 -29.1504 L 60.9863 -4.98047 C 61.7676 -4.15039 62.3535 -3.90625 63.1348 -3.90625 Z"/>
  </g>
  <g id="Ultralight-L" transform="matrix(1 0 0 1 488.739 1556)">
   <path d="M 31.9824 19.7754 L 109.961 19.7754 C 120.312 19.7754 125.879 14.0625 125.879 3.85742 L 125.879 -74.0723 C 125.879 -84.2773 120.312 -89.9902 109.961 -89.9902 L 31.9824 -89.9902 C 21.582 -89.9902 16.0645 -84.4727 16.0645 -74.0723 L 16.0645 3.85742 C 16.0645 14.2578 21.582 19.7754 31.9824 19.7754 Z M 32.1289 17.2363 C 23.1934 17.2363 18.6035 12.6465 18.6035 3.75977 L 18.6035 -73.9258 C 18.6035 -82.8125 23.1934 -87.4512 32.1289 -87.4512 L 109.766 -87.4512 C 118.359 -87.4512 123.291 -82.8125 123.291 -73.9258 L 123.291 3.75977 C 123.291 12.6465 118.359 17.2363 109.766 17.2363 Z M 62.4512 -3.90625 C 62.9883 -3.90625 63.5254 -4.10156 63.916 -4.6875 L 100.049 -60.3516 C 100.244 -60.6934 100.342 -61.084 100.342 -61.377 C 100.342 -62.3535 99.5605 -62.9395 98.8281 -62.9395 C 98.291 -62.9395 97.7051 -62.5977 97.4121 -62.1094 L 62.4023 -8.20312 L 41.748 -31.5918 C 41.3574 -32.0312 41.0156 -32.2266 40.3809 -32.2266 C 39.7461 -32.2266 38.8184 -31.7383 38.8184 -30.7129 C 38.8184 -30.2246 39.0137 -29.7363 39.3555 -29.2969 L 61.0352 -4.58984 C 61.5723 -4.00391 61.9629 -3.90625 62.4512 -3.90625 Z"/>
  </g>
  <g id="Black-M" transform="matrix(1 0 0 1 2872.19 1126)">
   <path d="M 31.9824 13.5742 L 90.4297 13.5742 C 102.686 13.5742 109.961 6.29883 109.961 -5.95703 L 109.961 -64.4043 C 109.961 -76.6602 102.686 -83.9355 90.4297 -83.9355 L 31.9824 -83.9355 C 19.7266 -83.9355 12.4512 -76.6602 12.4512 -64.4043 L 12.4512 -5.95703 C 12.4512 6.29883 19.7266 13.5742 31.9824 13.5742 Z M 34.9121 -4.73633 C 32.0801 -4.73633 30.7617 -5.81055 30.7617 -8.88672 L 30.7617 -61.4746 C 30.7617 -64.5508 32.0801 -65.6738 34.9121 -65.6738 L 87.5 -65.6738 C 90.332 -65.6738 91.6504 -64.5508 91.6504 -61.4746 L 91.6504 -8.88672 C 91.6504 -5.81055 90.332 -4.73633 87.5 -4.73633 Z M 55.0781 -9.375 C 57.5195 -9.375 59.8633 -10.6934 61.2305 -12.7441 L 83.9844 -46.2402 C 84.9121 -47.7051 85.3516 -49.1211 85.3516 -50.3906 C 85.3516 -54.0039 82.1289 -56.7383 78.5645 -56.7383 C 76.123 -56.7383 74.3164 -55.4688 72.6562 -52.9785 L 55.0781 -25.4395 L 45.7031 -35.8398 C 44.3848 -37.2559 42.9199 -38.1348 40.8691 -38.1348 C 37.2559 -38.1348 34.1797 -35.2539 34.1797 -31.5918 C 34.1797 -29.9316 34.668 -28.6133 36.1328 -26.9531 L 48.8281 -12.5488 C 50.5371 -10.5957 52.5391 -9.375 55.0781 -9.375 Z"/>
  </g>
  <g id="Heavy-M" transform="matrix(1 0 0 1 2576.39 1126)">
   <path d="M 31.0059 12.6465 L 89.6484 12.6465 C 101.416 12.6465 108.154 5.9082 108.154 -5.81055 L 108.154 -64.5508 C 108.154 -76.2695 101.416 -83.0566 89.6484 -83.0566 L 31.0059 -83.0566 C 19.2383 -83.0566 12.4512 -76.3184 12.4512 -64.5508 L 12.4512 -5.81055 C 12.4512 5.9082 19.2383 12.6465 31.0059 12.6465 Z M 33.252 -3.17383 C 29.9316 -3.17383 28.2715 -4.63867 28.2715 -8.1543 L 28.2715 -62.207 C 28.2715 -65.7715 29.9316 -67.2363 33.252 -67.2363 L 87.3535 -67.2363 C 90.6738 -67.2363 92.334 -65.7715 92.334 -62.207 L 92.334 -8.1543 C 92.334 -4.63867 90.6738 -3.17383 87.3535 -3.17383 Z M 54.1992 -9.7168 C 56.4453 -9.7168 58.5449 -10.8887 59.8145 -12.8418 L 82.9102 -47.4121 C 83.7402 -48.7305 84.2285 -50.0977 84.2285 -51.3184 C 84.2285 -54.5898 81.2988 -56.9824 78.0762 -56.9824 C 75.9277 -56.9824 74.2188 -55.8594 72.7539 -53.6133 L 54.1504 -24.2188 L 44.2871 -35.6445 C 43.0176 -37.0605 41.6016 -37.8906 39.7949 -37.8906 C 36.4746 -37.8906 33.7402 -35.2539 33.7402 -31.9336 C 33.7402 -30.4199 34.2285 -29.1504 35.498 -27.6855 L 48.4375 -12.6953 C 50 -10.8398 51.8555 -9.7168 54.1992 -9.7168 Z"/>
  </g>
  <g id="Bold-M" transform="matrix(1 0 0 1 2280.68 1126)">
   <path d="M 29.8828 11.6699 L 88.7207 11.6699 C 99.9512 11.6699 106.152 5.46875 106.152 -5.66406 L 106.152 -64.6973 C 106.152 -75.8789 99.9512 -82.0312 88.7207 -82.0312 L 29.8828 -82.0312 C 18.6523 -82.0312 12.4512 -75.8789 12.4512 -64.6973 L 12.4512 -5.66406 C 12.4512 5.51758 18.6523 11.6699 29.8828 11.6699 Z M 31.3965 -1.41602 C 27.5391 -1.41602 25.5371 -3.27148 25.5371 -7.32422 L 25.5371 -63.0371 C 25.5371 -67.1387 27.5391 -68.9453 31.3965 -68.9453 L 87.207 -68.9453 C 91.0156 -68.9453 93.0664 -67.1387 93.0664 -63.0371 L 93.0664 -7.32422 C 93.0664 -3.27148 91.0156 -1.41602 87.207 -1.41602 Z M 53.1738 -10.1074 C 55.2246 -10.1074 57.0312 -11.1328 58.252 -12.9395 L 81.6895 -48.6816 C 82.4707 -49.9023 82.959 -51.1719 82.959 -52.3438 C 82.959 -55.2734 80.3711 -57.3242 77.5391 -57.3242 C 75.6836 -57.3242 74.1699 -56.2988 72.9004 -54.2969 L 53.0762 -22.9004 L 42.7246 -35.4492 C 41.5039 -36.8652 40.1855 -37.5977 38.5254 -37.5977 C 35.6445 -37.5977 33.252 -35.2539 33.252 -32.373 C 33.252 -30.957 33.6914 -29.7852 34.7656 -28.5156 L 47.9492 -12.8418 C 49.4629 -11.084 51.0742 -10.1074 53.1738 -10.1074 Z"/>
  </g>
  <g id="Semibold-M" transform="matrix(1 0 0 1 1984.65 1126)">
   <path d="M 29.1016 10.9863 L 88.0859 10.9863 C 98.9746 10.9863 104.785 5.17578 104.785 -5.56641 L 104.785 -64.8438 C 104.785 -75.5859 98.9746 -81.3477 88.0859 -81.3477 L 29.1016 -81.3477 C 18.2617 -81.3477 12.4512 -75.5859 12.4512 -64.8438 L 12.4512 -5.56641 C 12.4512 5.22461 18.2617 10.9863 29.1016 10.9863 Z M 30.127 -0.195312 C 25.8789 -0.195312 23.6328 -2.34375 23.6328 -6.78711 L 23.6328 -63.623 C 23.6328 -68.0664 25.8789 -70.166 30.127 -70.166 L 87.1094 -70.166 C 91.2598 -70.166 93.6035 -68.0664 93.6035 -63.623 L 93.6035 -6.78711 C 93.6035 -2.34375 91.2598 -0.195312 87.1094 -0.195312 Z M 52.4902 -10.4004 C 54.3945 -10.4004 56.0547 -11.3281 57.1777 -13.0371 L 80.8105 -49.5605 C 81.543 -50.6836 82.0801 -51.9043 82.0801 -53.0273 C 82.0801 -55.7129 79.7363 -57.5195 77.1973 -57.5195 C 75.5371 -57.5195 74.1211 -56.5918 72.998 -54.834 L 52.3438 -21.9727 L 41.6504 -35.3027 C 40.4785 -36.7188 39.209 -37.3535 37.6465 -37.3535 C 35.0586 -37.3535 32.9102 -35.3027 32.9102 -32.6172 C 32.9102 -31.3477 33.3496 -30.2246 34.3262 -29.0527 L 47.6562 -12.9395 C 49.0723 -11.2793 50.5859 -10.4004 52.4902 -10.4004 Z"/>
  </g>
  <g id="Medium-M" transform="matrix(1 0 0 1 1688.47 1126)">
   <path d="M 28.5156 10.4492 L 87.6465 10.4492 C 98.2422 10.4492 103.711 4.98047 103.711 -5.46875 L 103.711 -64.8926 C 103.711 -75.3418 98.2422 -80.8105 87.6465 -80.8105 L 28.5156 -80.8105 C 17.9688 -80.8105 12.4512 -75.3906 12.4512 -64.8926 L 12.4512 -5.46875 C 12.4512 4.98047 17.9688 10.4492 28.5156 10.4492 Z M 29.1504 0.732422 C 24.6582 0.732422 22.168 -1.61133 22.168 -6.34766 L 22.168 -64.0137 C 22.168 -68.75 24.6582 -71.0938 29.1504 -71.0938 L 87.0117 -71.0938 C 91.4551 -71.0938 93.9941 -68.75 93.9941 -64.0137 L 93.9941 -6.34766 C 93.9941 -1.61133 91.4551 0.732422 87.0117 0.732422 Z M 52.002 -10.5957 C 53.7598 -10.5957 55.2734 -11.4746 56.3477 -13.0859 L 80.1758 -50.2441 C 80.8594 -51.2695 81.3965 -52.4414 81.3965 -53.5645 C 81.3965 -56.0547 79.248 -57.666 76.9043 -57.666 C 75.3906 -57.666 74.0723 -56.8359 73.0469 -55.1758 L 51.8066 -21.2891 L 40.8203 -35.1562 C 39.6973 -36.6211 38.4766 -37.207 37.0117 -37.207 C 34.6191 -37.207 32.666 -35.3027 32.666 -32.8125 C 32.666 -31.6406 33.1055 -30.5176 33.9355 -29.4922 L 47.4121 -13.0371 C 48.7793 -11.377 50.1953 -10.5957 52.002 -10.5957 Z"/>
  </g>
  <g id="Regular-M" transform="matrix(1 0 0 1 1392.45 1126)">
   <path d="M 27.7832 9.76562 L 87.0117 9.76562 C 97.2656 9.76562 102.344 4.6875 102.344 -5.37109 L 102.344 -64.9902 C 102.344 -75.0488 97.2656 -80.127 87.0117 -80.127 L 27.7832 -80.127 C 17.5781 -80.127 12.4512 -75.0977 12.4512 -64.9902 L 12.4512 -5.37109 C 12.4512 4.73633 17.5781 9.76562 27.7832 9.76562 Z M 27.8809 1.9043 C 22.998 1.9043 20.3125 -0.683594 20.3125 -5.76172 L 20.3125 -64.5996 C 20.3125 -69.6777 22.998 -72.2656 27.8809 -72.2656 L 86.9141 -72.2656 C 91.748 -72.2656 94.4824 -69.6777 94.4824 -64.5996 L 94.4824 -5.76172 C 94.4824 -0.683594 91.748 1.9043 86.9141 1.9043 Z M 51.3184 -10.8398 C 52.9297 -10.8398 54.248 -11.6211 55.2734 -13.1836 L 79.3457 -51.123 C 79.9805 -52.0508 80.5664 -53.1738 80.5664 -54.248 C 80.5664 -56.4941 78.5645 -57.9102 76.5137 -57.9102 C 75.2441 -57.9102 74.0234 -57.1289 73.1445 -55.6641 L 51.0742 -20.3613 L 39.7461 -35.0586 C 38.623 -36.4746 37.5 -37.0117 36.1328 -37.0117 C 34.0332 -37.0117 32.3242 -35.3027 32.3242 -33.1055 C 32.3242 -32.0312 32.7637 -30.957 33.4473 -30.0293 L 47.1191 -13.1348 C 48.4375 -11.5723 49.6582 -10.8398 51.3184 -10.8398 Z"/>
  </g>
  <g id="Light-M" transform="matrix(1 0 0 1 1096.47 1126)">
   <path d="M 26.8555 9.0332 L 86.4746 9.0332 C 95.9961 9.0332 100.879 4.15039 100.879 -5.22461 L 100.879 -65.0879 C 100.879 -74.5117 95.9961 -79.3945 86.4746 -79.3945 L 26.8555 -79.3945 C 17.334 -79.3945 12.4512 -74.5605 12.4512 -65.0879 L 12.4512 -5.22461 C 12.4512 4.19922 17.334 9.0332 26.8555 9.0332 Z M 26.9531 2.97852 C 21.4844 2.97852 18.5059 0.0976562 18.5059 -5.56641 L 18.5059 -64.7949 C 18.5059 -70.4102 21.4844 -73.3398 26.9531 -73.3398 L 86.3281 -73.3398 C 91.748 -73.3398 94.8242 -70.4102 94.8242 -64.7949 L 94.8242 -5.56641 C 94.8242 0.0976562 91.748 2.97852 86.3281 2.97852 Z M 50.3906 -10.8887 C 51.6602 -10.8887 52.6855 -11.4746 53.4668 -12.6465 L 78.8086 -52.2461 C 79.2969 -52.9785 79.6875 -53.8086 79.6875 -54.6387 C 79.6875 -56.4453 78.125 -57.5195 76.5625 -57.5195 C 75.5371 -57.5195 74.5605 -56.9336 73.877 -55.8105 L 50.2441 -18.5059 L 37.4512 -34.2285 C 36.6211 -35.3516 35.7422 -35.7422 34.6191 -35.7422 C 33.0078 -35.7422 31.6406 -34.4238 31.6406 -32.666 C 31.6406 -31.8359 31.9824 -30.957 32.5684 -30.2246 L 47.168 -12.6465 C 48.1934 -11.377 49.1699 -10.8887 50.3906 -10.8887 Z"/>
  </g>
  <g id="Thin-M" transform="matrix(1 0 0 1 800.758 1126)">
   <path d="M 25.6348 8.05664 L 85.7422 8.05664 C 94.3848 8.05664 98.877 3.4668 98.877 -5.0293 L 98.877 -65.2344 C 98.877 -73.7305 94.3848 -78.3691 85.7422 -78.3691 L 25.6348 -78.3691 C 16.9922 -78.3691 12.4512 -73.877 12.4512 -65.2344 L 12.4512 -5.0293 C 12.4512 3.56445 16.9922 8.05664 25.6348 8.05664 Z M 25.7324 4.44336 C 19.3848 4.44336 16.0645 1.12305 16.0645 -5.22461 L 16.0645 -65.0391 C 16.0645 -71.4355 19.3848 -74.7559 25.7324 -74.7559 L 85.5957 -74.7559 C 91.748 -74.7559 95.2637 -71.4355 95.2637 -65.0391 L 95.2637 -5.22461 C 95.2637 1.12305 91.748 4.44336 85.5957 4.44336 Z M 49.2188 -10.9375 C 49.9512 -10.9375 50.6348 -11.2305 51.123 -12.0117 L 78.0762 -53.7109 C 78.3203 -54.1504 78.5645 -54.6875 78.5645 -55.1758 C 78.5645 -56.2988 77.5391 -57.0312 76.5625 -57.0312 C 75.9277 -57.0312 75.2441 -56.6406 74.8047 -55.957 L 49.1211 -16.0156 L 34.4238 -33.1543 C 33.9355 -33.7891 33.3496 -34.082 32.666 -34.082 C 31.6895 -34.082 30.7129 -33.3008 30.7129 -32.0801 C 30.7129 -31.543 30.957 -30.957 31.3477 -30.4688 L 47.2656 -11.9629 C 47.9004 -11.1816 48.4863 -10.9375 49.2188 -10.9375 Z"/>
  </g>
  <g id="Ultralight-M" transform="matrix(1 0 0 1 504.535 1126)">
   <path d="M 25 7.56836 L 85.3516 7.56836 C 93.5059 7.56836 97.9004 3.125 97.9004 -4.98047 L 97.9004 -65.2832 C 97.9004 -73.3887 93.5059 -77.832 85.3516 -77.832 L 25 -77.832 C 16.7969 -77.832 12.4512 -73.4863 12.4512 -65.2832 L 12.4512 -4.98047 C 12.4512 3.22266 16.7969 7.56836 25 7.56836 Z M 25.0977 5.17578 C 18.3594 5.17578 14.8438 1.66016 14.8438 -5.07812 L 14.8438 -65.1855 C 14.8438 -71.9727 18.3594 -75.4395 25.0977 -75.4395 L 85.2051 -75.4395 C 91.748 -75.4395 95.5078 -71.9727 95.5078 -65.1855 L 95.5078 -5.07812 C 95.5078 1.66016 91.748 5.17578 85.2051 5.17578 Z M 48.6328 -10.9375 C 49.0723 -10.9375 49.5605 -11.1328 49.9512 -11.6699 L 77.6855 -54.4434 C 77.832 -54.7363 77.9785 -55.127 77.9785 -55.4199 C 77.9785 -56.25 77.2461 -56.7871 76.5625 -56.7871 C 76.123 -56.7871 75.6348 -56.4941 75.293 -56.0059 L 48.5352 -14.6973 L 32.9102 -32.6172 C 32.5195 -33.0078 32.1777 -33.2031 31.6406 -33.2031 C 31.0547 -33.2031 30.2246 -32.7148 30.2246 -31.7871 C 30.2246 -31.3965 30.4199 -30.957 30.7129 -30.6152 L 47.3145 -11.6211 C 47.7539 -11.084 48.1445 -10.9375 48.6328 -10.9375 Z"/>
  </g>
  <g id="Black-S" transform="matrix(1 0 0 1 2885.5 696)">
   <path d="M 25 2.92969 L 70.8008 2.92969 C 80.3711 2.92969 86.0352 -2.73438 86.0352 -12.3047 L 86.0352 -58.1055 C 86.0352 -67.6758 80.3711 -73.3398 70.8008 -73.3398 L 25 -73.3398 C 15.4297 -73.3398 9.76562 -67.6758 9.76562 -58.1055 L 9.76562 -12.3047 C 9.76562 -2.73438 15.4297 2.92969 25 2.92969 Z M 27.2461 -11.2305 C 25 -11.2305 23.9258 -12.1094 23.9258 -14.5508 L 23.9258 -55.8594 C 23.9258 -58.3008 25 -59.1797 27.2461 -59.1797 L 68.5547 -59.1797 C 70.8008 -59.1797 71.875 -58.3008 71.875 -55.8594 L 71.875 -14.5508 C 71.875 -12.1094 70.8008 -11.2305 68.5547 -11.2305 Z M 43.1152 -14.9902 C 45.0195 -14.9902 46.8262 -16.0156 47.9004 -17.627 L 65.7227 -43.9453 C 66.4551 -45.0684 66.7969 -46.1914 66.7969 -47.168 C 66.7969 -50 64.3066 -52.0996 61.5234 -52.0996 C 59.6191 -52.0996 58.2031 -51.123 56.9336 -49.1699 L 43.1152 -27.4902 L 35.7422 -35.6934 C 34.7168 -36.8164 33.5449 -37.5 31.9824 -37.5 C 29.1504 -37.5 26.7578 -35.2539 26.7578 -32.4219 C 26.7578 -31.1035 27.1484 -30.0781 28.2715 -28.8086 L 38.2324 -17.4805 C 39.5508 -15.9668 41.1133 -14.9902 43.1152 -14.9902 Z"/>
  </g>
  <g id="Heavy-S" transform="matrix(1 0 0 1 2589.4 696)">
   <path d="M 24.3652 2.34375 L 70.2637 2.34375 C 79.541 2.34375 84.8145 -2.97852 84.8145 -12.207 L 84.8145 -58.2031 C 84.8145 -67.4316 79.541 -72.7539 70.2637 -72.7539 L 24.3652 -72.7539 C 15.0879 -72.7539 9.76562 -67.4316 9.76562 -58.2031 L 9.76562 -12.207 C 9.76562 -2.97852 15.0879 2.34375 24.3652 2.34375 Z M 26.0742 -10.1562 C 23.5352 -10.1562 22.2656 -11.2793 22.2656 -14.0137 L 22.2656 -56.3965 C 22.2656 -59.1309 23.5352 -60.2539 26.0742 -60.2539 L 68.5059 -60.2539 C 71.0449 -60.2539 72.3633 -59.1309 72.3633 -56.3965 L 72.3633 -14.0137 C 72.3633 -11.2793 71.0449 -10.1562 68.5059 -10.1562 Z M 42.5293 -15.2344 C 44.3359 -15.2344 45.9961 -16.2109 47.0215 -17.7734 L 64.9414 -44.6777 C 65.625 -45.752 66.0156 -46.8262 66.0156 -47.8516 C 66.0156 -50.4395 63.7207 -52.3438 61.1328 -52.3438 C 59.4238 -52.3438 58.1055 -51.4648 56.9336 -49.6582 L 42.4805 -26.8066 L 34.9121 -35.6445 C 33.8867 -36.8164 32.7637 -37.4512 31.2988 -37.4512 C 28.6621 -37.4512 26.5137 -35.3516 26.5137 -32.7637 C 26.5137 -31.4941 26.9043 -30.5176 27.8809 -29.3457 L 37.8906 -17.627 C 39.209 -16.1621 40.6738 -15.2344 42.5293 -15.2344 Z"/>
  </g>
  <g id="Bold-S" transform="matrix(1 0 0 1 2293.35 696)">
   <path d="M 23.6328 1.66016 L 69.6289 1.66016 C 78.6133 1.66016 83.4961 -3.22266 83.4961 -12.1094 L 83.4961 -58.3008 C 83.4961 -67.1875 78.6133 -72.0703 69.6289 -72.0703 L 23.6328 -72.0703 C 14.6973 -72.0703 9.76562 -67.1875 9.76562 -58.3008 L 9.76562 -12.1094 C 9.76562 -3.22266 14.6973 1.66016 23.6328 1.66016 Z M 24.8047 -8.93555 C 21.9238 -8.93555 20.3613 -10.3516 20.3613 -13.4277 L 20.3613 -56.9824 C 20.3613 -60.0586 21.9238 -61.4746 24.8047 -61.4746 L 68.457 -61.4746 C 71.3379 -61.4746 72.9004 -60.0586 72.9004 -56.9824 L 72.9004 -13.4277 C 72.9004 -10.3516 71.3379 -8.93555 68.457 -8.93555 Z M 41.8945 -15.5762 C 43.5547 -15.5762 45.0684 -16.4062 46.0449 -17.9199 L 64.1113 -45.5566 C 64.7461 -46.5332 65.1855 -47.6074 65.1855 -48.584 C 65.1855 -50.9766 63.0371 -52.6367 60.7422 -52.6367 C 59.2285 -52.6367 57.959 -51.8066 56.9336 -50.1953 L 41.7969 -26.0254 L 33.9844 -35.5957 C 33.0078 -36.8164 31.8848 -37.3535 30.5176 -37.3535 C 28.125 -37.3535 26.2207 -35.498 26.2207 -33.1055 C 26.2207 -31.9824 26.6113 -31.0059 27.4902 -29.9316 L 37.5488 -17.8223 C 38.8184 -16.3574 40.1367 -15.5762 41.8945 -15.5762 Z"/>
  </g>
  <g id="Semibold-S" transform="matrix(1 0 0 1 1997.1 696)">
   <path d="M 23.0957 1.17188 L 69.1895 1.17188 C 77.9297 1.17188 82.5684 -3.36914 82.5684 -12.0117 L 82.5684 -58.3984 C 82.5684 -67.041 77.9297 -71.582 69.1895 -71.582 L 23.0957 -71.582 C 14.4043 -71.582 9.76562 -67.041 9.76562 -58.3984 L 9.76562 -12.0117 C 9.76562 -3.36914 14.4043 1.17188 23.0957 1.17188 Z M 23.877 -8.10547 C 20.752 -8.10547 19.0918 -9.7168 19.0918 -12.9883 L 19.0918 -57.4219 C 19.0918 -60.6934 20.752 -62.3047 23.877 -62.3047 L 68.4082 -62.3047 C 71.5332 -62.3047 73.2422 -60.6934 73.2422 -57.4219 L 73.2422 -12.9883 C 73.2422 -9.7168 71.5332 -8.10547 68.4082 -8.10547 Z M 41.4062 -15.7715 C 43.0176 -15.7715 44.3848 -16.5527 45.3613 -18.0176 L 63.4766 -46.1426 C 64.1113 -47.0703 64.5508 -48.0957 64.5508 -49.0723 C 64.5508 -51.3184 62.5977 -52.832 60.4492 -52.832 C 59.082 -52.832 57.9102 -52.0508 56.9336 -50.5371 L 41.3086 -25.4395 L 33.3496 -35.5469 C 32.373 -36.8164 31.2988 -37.3535 29.9805 -37.3535 C 27.7832 -37.3535 26.0254 -35.5469 26.0254 -33.3496 C 26.0254 -32.2754 26.416 -31.2988 27.1973 -30.3711 L 37.3047 -17.9688 C 38.5254 -16.5039 39.7949 -15.7715 41.4062 -15.7715 Z"/>
  </g>
  <g id="Medium-S" transform="matrix(1 0 0 1 1700.75 696)">
   <path d="M 22.7051 0.830078 L 68.8965 0.830078 C 77.4414 0.830078 81.8359 -3.51562 81.8359 -11.9629 L 81.8359 -58.4473 C 81.8359 -66.8945 77.4414 -71.2402 68.8965 -71.2402 L 22.7051 -71.2402 C 14.209 -71.2402 9.76562 -66.8945 9.76562 -58.4473 L 9.76562 -11.9629 C 9.76562 -3.51562 14.209 0.830078 22.7051 0.830078 Z M 23.1934 -7.4707 C 19.9219 -7.4707 18.0664 -9.22852 18.0664 -12.6953 L 18.0664 -57.7148 C 18.0664 -61.1816 19.9219 -62.9395 23.1934 -62.9395 L 68.4082 -62.9395 C 71.6797 -62.9395 73.5352 -61.1816 73.5352 -57.7148 L 73.5352 -12.6953 C 73.5352 -9.22852 71.6797 -7.4707 68.4082 -7.4707 Z M 41.0645 -15.918 C 42.627 -15.918 43.8965 -16.6992 44.8242 -18.0664 L 63.0371 -46.582 C 63.623 -47.4609 64.1113 -48.4863 64.1113 -49.4629 C 64.1113 -51.6113 62.2559 -52.9785 60.2539 -52.9785 C 58.9844 -52.9785 57.8125 -52.2461 56.9336 -50.8301 L 40.918 -25.0488 L 32.9102 -35.498 C 31.8848 -36.7676 30.8594 -37.3047 29.5898 -37.3047 C 27.4902 -37.3047 25.8789 -35.6445 25.8789 -33.5449 C 25.8789 -32.5195 26.2695 -31.543 26.9531 -30.6641 L 37.1094 -18.0664 C 38.3301 -16.6504 39.5508 -15.918 41.0645 -15.918 Z"/>
  </g>
  <g id="Regular-S" transform="matrix(1 0 0 1 1404.51 696)">
   <path d="M 22.2168 0.390625 L 68.457 0.390625 C 76.8066 0.390625 80.9082 -3.71094 80.9082 -11.9141 L 80.9082 -58.4961 C 80.9082 -66.6992 76.8066 -70.8008 68.457 -70.8008 L 22.2168 -70.8008 C 13.916 -70.8008 9.76562 -66.6992 9.76562 -58.4961 L 9.76562 -11.9141 C 9.76562 -3.71094 13.916 0.390625 22.2168 0.390625 Z M 22.3145 -6.68945 C 18.7988 -6.68945 16.7969 -8.54492 16.7969 -12.2559 L 16.7969 -58.1543 C 16.7969 -61.8164 18.7988 -63.7207 22.3145 -63.7207 L 68.3594 -63.7207 C 71.875 -63.7207 73.877 -61.8164 73.877 -58.1543 L 73.877 -12.2559 C 73.877 -8.54492 71.875 -6.68945 68.3594 -6.68945 Z M 40.625 -16.1133 C 42.0898 -16.1133 43.2617 -16.7969 44.1406 -18.1641 L 62.4512 -47.168 C 63.0371 -47.998 63.5254 -48.9746 63.5254 -49.9512 C 63.5254 -51.9531 61.8164 -53.1738 59.9609 -53.1738 C 58.8379 -53.1738 57.7637 -52.4902 56.9336 -51.1719 L 40.4297 -24.5117 L 32.2754 -35.4492 C 31.2988 -36.7676 30.2246 -37.2559 29.0527 -37.2559 C 27.1484 -37.2559 25.6836 -35.6934 25.6836 -33.7891 C 25.6836 -32.8125 26.0742 -31.8848 26.6602 -31.1035 L 36.8652 -18.1641 C 38.0371 -16.748 39.1602 -16.1133 40.625 -16.1133 Z"/>
  </g>
  <g id="Light-S" transform="matrix(1 0 0 1 1108.46 696)">
   <path d="M 21.3867 -0.292969 L 67.9688 -0.292969 C 75.7324 -0.292969 79.5898 -4.15039 79.5898 -11.7676 L 79.5898 -58.5938 C 79.5898 -66.2109 75.7324 -70.1172 67.9688 -70.1172 L 21.3867 -70.1172 C 13.6719 -70.1172 9.76562 -66.2598 9.76562 -58.5938 L 9.76562 -11.7676 C 9.76562 -4.15039 13.6719 -0.292969 21.3867 -0.292969 Z M 21.4844 -5.71289 C 17.4316 -5.71289 15.1855 -7.86133 15.1855 -12.0605 L 15.1855 -58.3008 C 15.1855 -62.5 17.4316 -64.6973 21.4844 -64.6973 L 67.8711 -64.6973 C 71.875 -64.6973 74.1699 -62.5 74.1699 -58.3008 L 74.1699 -12.0605 C 74.1699 -7.86133 71.875 -5.71289 67.8711 -5.71289 Z M 39.8438 -16.1621 C 40.9668 -16.1621 41.8945 -16.6504 42.5781 -17.7246 L 61.9629 -48.1445 C 62.4023 -48.7793 62.793 -49.5605 62.793 -50.293 C 62.793 -51.8555 61.377 -52.832 59.9609 -52.832 C 59.082 -52.832 58.2031 -52.2949 57.6172 -51.2695 L 39.6973 -22.8516 L 30.2246 -34.7656 C 29.4922 -35.7422 28.6621 -36.1328 27.7344 -36.1328 C 26.2695 -36.1328 25.0488 -34.9609 25.0488 -33.3984 C 25.0488 -32.6172 25.3418 -31.8848 25.8789 -31.25 L 36.9141 -17.7246 C 37.8418 -16.6016 38.7207 -16.1621 39.8438 -16.1621 Z"/>
  </g>
  <g id="Thin-S" transform="matrix(1 0 0 1 812.599 696)">
   <path d="M 20.3125 -1.12305 L 67.334 -1.12305 C 74.2676 -1.12305 77.8809 -4.78516 77.8809 -11.6211 L 77.8809 -58.6914 C 77.8809 -65.5762 74.2676 -69.2383 67.334 -69.2383 L 20.3125 -69.2383 C 13.3789 -69.2383 9.76562 -65.625 9.76562 -58.6914 L 9.76562 -11.6211 C 9.76562 -4.6875 13.3789 -1.12305 20.3125 -1.12305 Z M 20.4102 -4.44336 C 15.625 -4.44336 13.0859 -6.93359 13.0859 -11.8164 L 13.0859 -58.5449 C 13.0859 -63.3789 15.625 -65.918 20.4102 -65.918 L 67.2363 -65.918 C 71.875 -65.918 74.5605 -63.3789 74.5605 -58.5449 L 74.5605 -11.8164 C 74.5605 -6.93359 71.875 -4.44336 67.2363 -4.44336 Z M 38.8184 -16.1621 C 39.4531 -16.1621 40.0879 -16.5039 40.5273 -17.1875 L 61.3281 -49.4141 C 61.5723 -49.8047 61.7676 -50.293 61.7676 -50.7324 C 61.7676 -51.7578 60.8887 -52.4414 60.0098 -52.4414 C 59.4238 -52.4414 58.8379 -52.0508 58.4473 -51.416 L 38.7207 -20.6543 L 27.5879 -33.7891 C 27.0996 -34.4238 26.6113 -34.6191 25.9766 -34.6191 C 25.0977 -34.6191 24.2676 -33.9355 24.2676 -32.9102 C 24.2676 -32.373 24.4629 -31.8848 24.8047 -31.4453 L 37.0117 -17.1387 C 37.5977 -16.4551 38.1348 -16.1621 38.8184 -16.1621 Z"/>
  </g>
  <g id="Ultralight-S" transform="matrix(1 0 0 1 516.352 696)">
   <path d="M 19.7754 -1.5625 L 66.9922 -1.5625 C 73.5352 -1.5625 76.9531 -5.12695 76.9531 -11.5234 L 76.9531 -58.7891 C 76.9531 -65.2344 73.5352 -68.75 66.9922 -68.75 L 19.7754 -68.75 C 13.2324 -68.75 9.76562 -65.2832 9.76562 -58.7891 L 9.76562 -11.5234 C 9.76562 -5.0293 13.2324 -1.5625 19.7754 -1.5625 Z M 19.873 -3.75977 C 14.6484 -3.75977 11.9629 -6.44531 11.9629 -11.6699 L 11.9629 -58.6426 C 11.9629 -63.8672 14.6484 -66.5527 19.873 -66.5527 L 66.8945 -66.5527 C 71.875 -66.5527 74.7559 -63.8672 74.7559 -58.6426 L 74.7559 -11.6699 C 74.7559 -6.44531 71.875 -3.75977 66.8945 -3.75977 Z M 38.2812 -16.2109 C 38.7207 -16.2109 39.1113 -16.3574 39.4531 -16.8457 L 60.9863 -50.0977 C 61.1328 -50.3418 61.2305 -50.6836 61.2305 -50.9766 C 61.2305 -51.709 60.5957 -52.1973 60.0098 -52.1973 C 59.5703 -52.1973 59.1797 -51.9531 58.8867 -51.5137 L 38.1836 -19.4824 L 26.1719 -33.3008 C 25.8789 -33.6914 25.5371 -33.8867 25.0488 -33.8867 C 24.5117 -33.8867 23.8281 -33.3984 23.8281 -32.6172 C 23.8281 -32.2754 23.9746 -31.8848 24.2676 -31.543 L 37.0605 -16.7969 C 37.5 -16.3086 37.793 -16.2109 38.2812 -16.2109 Z"/>
  </g>
 </g>
</svg>
