<?xml version="1.0" encoding="UTF-8"?>
<!--Generator: Apple Native CoreSVG 123-->
<!DOCTYPE svg
PUBLIC "-//W3C//DTD SVG 1.1//EN"
       "http://www.w3.org/Graphics/SVG/1.1/DTD/svg11.dtd">
<svg version="1.1" xmlns="http://www.w3.org/2000/svg" xmlns:xlink="http://www.w3.org/1999/xlink" width="3300" height="2200">
 <!--glyph: "uni10012C.medium", point size: 100.000000, font version: "Version 15.0d7e11", template writer version: "5"-->
 <g id="Notes">
  <rect height="2200" id="artboard" style="fill:white;opacity:1" width="3300" x="0" y="0"/>
  <line id="" style="fill:none;stroke:black;opacity:1;stroke-width:0.5;" x1="263" x2="3036" y1="292" y2="292"/>
  <text style="stroke:none;fill:black;font-family:-apple-system,&quot;SF Pro Display&quot;,&quot;SF Pro Text&quot;,Helvetica,sans-serif;font-weight:bold;" transform="matrix(1 0 0 1 263 322)">Weight/Scale Variations</text>
  <text style="stroke:none;fill:black;font-family:-apple-system,&quot;SF Pro Display&quot;,&quot;SF Pro Text&quot;,Helvetica,sans-serif;text-anchor:middle;" transform="matrix(1 0 0 1 559.711 322)">Ultralight</text>
  <text style="stroke:none;fill:black;font-family:-apple-system,&quot;SF Pro Display&quot;,&quot;SF Pro Text&quot;,Helvetica,sans-serif;text-anchor:middle;" transform="matrix(1 0 0 1 856.422 322)">Thin</text>
  <text style="stroke:none;fill:black;font-family:-apple-system,&quot;SF Pro Display&quot;,&quot;SF Pro Text&quot;,Helvetica,sans-serif;text-anchor:middle;" transform="matrix(1 0 0 1 1153.13 322)">Light</text>
  <text style="stroke:none;fill:black;font-family:-apple-system,&quot;SF Pro Display&quot;,&quot;SF Pro Text&quot;,Helvetica,sans-serif;text-anchor:middle;" transform="matrix(1 0 0 1 1449.84 322)">Regular</text>
  <text style="stroke:none;fill:black;font-family:-apple-system,&quot;SF Pro Display&quot;,&quot;SF Pro Text&quot;,Helvetica,sans-serif;text-anchor:middle;" transform="matrix(1 0 0 1 1746.56 322)">Medium</text>
  <text style="stroke:none;fill:black;font-family:-apple-system,&quot;SF Pro Display&quot;,&quot;SF Pro Text&quot;,Helvetica,sans-serif;text-anchor:middle;" transform="matrix(1 0 0 1 2043.27 322)">Semibold</text>
  <text style="stroke:none;fill:black;font-family:-apple-system,&quot;SF Pro Display&quot;,&quot;SF Pro Text&quot;,Helvetica,sans-serif;text-anchor:middle;" transform="matrix(1 0 0 1 2339.98 322)">Bold</text>
  <text style="stroke:none;fill:black;font-family:-apple-system,&quot;SF Pro Display&quot;,&quot;SF Pro Text&quot;,Helvetica,sans-serif;text-anchor:middle;" transform="matrix(1 0 0 1 2636.69 322)">Heavy</text>
  <text style="stroke:none;fill:black;font-family:-apple-system,&quot;SF Pro Display&quot;,&quot;SF Pro Text&quot;,Helvetica,sans-serif;text-anchor:middle;" transform="matrix(1 0 0 1 2933.4 322)">Black</text>
  <line id="" style="fill:none;stroke:black;opacity:1;stroke-width:0.5;" x1="263" x2="3036" y1="1903" y2="1903"/>
  <g id="" transform="matrix(1 0 0 1 263 1933)">
   <path d="M 9.24805 0.830078 C 13.5547 0.830078 17.1387 -2.74414 17.1387 -7.05078 C 17.1387 -11.3574 13.5449 -14.9316 9.23828 -14.9316 C 4.94141 -14.9316 1.36719 -11.3574 1.36719 -7.05078 C 1.36719 -2.74414 4.95117 0.830078 9.24805 0.830078 Z M 9.24805 -0.654297 C 5.70312 -0.654297 2.87109 -3.49609 2.87109 -7.05078 C 2.87109 -10.6055 5.69336 -13.4473 9.23828 -13.4473 C 12.793 -13.4473 15.6348 -10.6055 15.6445 -7.05078 C 15.6543 -3.49609 12.8027 -0.654297 9.24805 -0.654297 Z M 9.22852 -3.42773 C 9.69727 -3.42773 9.9707 -3.74023 9.9707 -4.25781 L 9.9707 -6.31836 L 12.1973 -6.31836 C 12.6953 -6.31836 13.0371 -6.57227 13.0371 -7.04102 C 13.0371 -7.51953 12.7148 -7.7832 12.1973 -7.7832 L 9.9707 -7.7832 L 9.9707 -10.0098 C 9.9707 -10.5273 9.69727 -10.8496 9.22852 -10.8496 C 8.75977 -10.8496 8.50586 -10.5078 8.50586 -10.0098 L 8.50586 -7.7832 L 6.29883 -7.7832 C 5.78125 -7.7832 5.44922 -7.51953 5.44922 -7.04102 C 5.44922 -6.57227 5.80078 -6.31836 6.29883 -6.31836 L 8.50586 -6.31836 L 8.50586 -4.25781 C 8.50586 -3.75977 8.75977 -3.42773 9.22852 -3.42773 Z"/>
  </g>
  <g id="" transform="matrix(1 0 0 1 281.506 1933)">
   <path d="M 11.709 2.91016 C 17.1582 2.91016 21.6699 -1.60156 21.6699 -7.05078 C 21.6699 -12.4902 17.1484 -17.0117 11.6992 -17.0117 C 6.25977 -17.0117 1.74805 -12.4902 1.74805 -7.05078 C 1.74805 -1.60156 6.26953 2.91016 11.709 2.91016 Z M 11.709 1.25 C 7.09961 1.25 3.41797 -2.44141 3.41797 -7.05078 C 3.41797 -11.6504 7.08984 -15.3516 11.6992 -15.3516 C 16.3086 -15.3516 20 -11.6504 20.0098 -7.05078 C 20.0195 -2.44141 16.3184 1.25 11.709 1.25 Z M 11.6895 -2.41211 C 12.207 -2.41211 12.5195 -2.77344 12.5195 -3.33984 L 12.5195 -6.23047 L 15.5762 -6.23047 C 16.123 -6.23047 16.5039 -6.51367 16.5039 -7.03125 C 16.5039 -7.55859 16.1426 -7.86133 15.5762 -7.86133 L 12.5195 -7.86133 L 12.5195 -10.9277 C 12.5195 -11.5039 12.207 -11.8555 11.6895 -11.8555 C 11.1719 -11.8555 10.8789 -11.4844 10.8789 -10.9277 L 10.8789 -7.86133 L 7.83203 -7.86133 C 7.26562 -7.86133 6.89453 -7.55859 6.89453 -7.03125 C 6.89453 -6.51367 7.28516 -6.23047 7.83203 -6.23047 L 10.8789 -6.23047 L 10.8789 -3.33984 C 10.8789 -2.79297 11.1719 -2.41211 11.6895 -2.41211 Z"/>
  </g>
  <g id="" transform="matrix(1 0 0 1 304.924 1933)">
   <path d="M 14.9707 5.67383 C 21.9336 5.67383 27.6953 -0.078125 27.6953 -7.04102 C 27.6953 -14.0039 21.9238 -19.7559 14.9609 -19.7559 C 8.00781 -19.7559 2.25586 -14.0039 2.25586 -7.04102 C 2.25586 -0.078125 8.01758 5.67383 14.9707 5.67383 Z M 14.9707 3.85742 C 8.93555 3.85742 4.08203 -1.00586 4.08203 -7.04102 C 4.08203 -13.0762 8.92578 -17.9395 14.9609 -17.9395 C 21.0059 -17.9395 25.8594 -13.0762 25.8691 -7.04102 C 25.8789 -1.00586 21.0156 3.85742 14.9707 3.85742 Z M 14.9512 -1.06445 C 15.5176 -1.06445 15.8691 -1.45508 15.8691 -2.06055 L 15.8691 -6.13281 L 20.1074 -6.13281 C 20.6934 -6.13281 21.1133 -6.46484 21.1133 -7.02148 C 21.1133 -7.59766 20.7227 -7.93945 20.1074 -7.93945 L 15.8691 -7.93945 L 15.8691 -12.1875 C 15.8691 -12.8027 15.5176 -13.1934 14.9512 -13.1934 C 14.3848 -13.1934 14.0625 -12.7832 14.0625 -12.1875 L 14.0625 -7.93945 L 9.83398 -7.93945 C 9.21875 -7.93945 8.80859 -7.59766 8.80859 -7.02148 C 8.80859 -6.46484 9.23828 -6.13281 9.83398 -6.13281 L 14.0625 -6.13281 L 14.0625 -2.06055 C 14.0625 -1.47461 14.3848 -1.06445 14.9512 -1.06445 Z"/>
  </g>
  <text style="stroke:none;fill:black;font-family:-apple-system,&quot;SF Pro Display&quot;,&quot;SF Pro Text&quot;,Helvetica,sans-serif;font-weight:bold;" transform="matrix(1 0 0 1 263 1953)">Design Variations</text>
  <text style="stroke:none;fill:black;font-family:-apple-system,&quot;SF Pro Display&quot;,&quot;SF Pro Text&quot;,Helvetica,sans-serif;" transform="matrix(1 0 0 1 263 1971)">Symbols are supported in up to nine weights and three scales.</text>
  <text style="stroke:none;fill:black;font-family:-apple-system,&quot;SF Pro Display&quot;,&quot;SF Pro Text&quot;,Helvetica,sans-serif;" transform="matrix(1 0 0 1 263 1989)">For optimal layout with text and other symbols, vertically align</text>
  <text style="stroke:none;fill:black;font-family:-apple-system,&quot;SF Pro Display&quot;,&quot;SF Pro Text&quot;,Helvetica,sans-serif;" transform="matrix(1 0 0 1 263 2007)">symbols with the adjacent text.</text>
  <rect height="14" id="" style="fill:#00AEEF;stroke:none;opacity:0.4;" width="3" x="776" y="1919"/>
  <g id="" transform="matrix(1 0 0 1 779 1933)">
   <path d="M 10.5273 0 L 12.373 0 L 7.17773 -14.0918 L 5.43945 -14.0918 L 0.244141 0 L 2.08984 0 L 3.50586 -4.0332 L 9.11133 -4.0332 Z M 6.2793 -11.9531 L 6.33789 -11.9531 L 8.59375 -5.52734 L 4.02344 -5.52734 Z"/>
  </g>
  <rect height="14" id="" style="fill:#00AEEF;stroke:none;opacity:0.4;" width="3" x="791.617" y="1919"/>
  <text style="stroke:none;fill:black;font-family:-apple-system,&quot;SF Pro Display&quot;,&quot;SF Pro Text&quot;,Helvetica,sans-serif;font-weight:bold;" transform="matrix(1 0 0 1 776 1953)">Margins</text>
  <text style="stroke:none;fill:black;font-family:-apple-system,&quot;SF Pro Display&quot;,&quot;SF Pro Text&quot;,Helvetica,sans-serif;" transform="matrix(1 0 0 1 776 1971)">Leading and trailing margins on the left and right side of each symbol</text>
  <text style="stroke:none;fill:black;font-family:-apple-system,&quot;SF Pro Display&quot;,&quot;SF Pro Text&quot;,Helvetica,sans-serif;" transform="matrix(1 0 0 1 776 1989)">can be adjusted by modifying the width of the blue rectangles.</text>
  <text style="stroke:none;fill:black;font-family:-apple-system,&quot;SF Pro Display&quot;,&quot;SF Pro Text&quot;,Helvetica,sans-serif;" transform="matrix(1 0 0 1 776 2007)">Modifications are automatically applied proportionally to all</text>
  <text style="stroke:none;fill:black;font-family:-apple-system,&quot;SF Pro Display&quot;,&quot;SF Pro Text&quot;,Helvetica,sans-serif;" transform="matrix(1 0 0 1 776 2025)">scales and weights.</text>
  <g id="" transform="matrix(1 0 0 1 1289 1933)">
   <path d="M 2.83203 3.11523 L 4.375 4.6582 C 5.22461 5.48828 6.19141 5.41992 7.06055 4.46289 L 17.2754 -6.66016 C 17.7051 -6.36719 18.0957 -6.37695 18.5645 -6.47461 L 19.6094 -6.68945 L 20.3027 -5.99609 L 20.2539 -5.47852 C 20.1855 -4.95117 20.3516 -4.53125 20.8496 -4.0332 L 21.6602 -3.22266 C 22.168 -2.71484 22.8223 -2.68555 23.3008 -3.16406 L 26.5527 -6.41602 C 27.0312 -6.89453 27.0117 -7.54883 26.5039 -8.05664 L 25.6836 -8.87695 C 25.1855 -9.375 24.7754 -9.55078 24.2383 -9.47266 L 23.7109 -9.41406 L 23.0566 -10.0781 L 23.3398 -11.2207 C 23.4863 -11.7871 23.3398 -12.2559 22.7148 -12.8613 L 20.3027 -15.2539 C 16.7578 -18.7793 12.2266 -18.6719 9.11133 -15.5371 C 8.69141 -15.1074 8.64258 -14.5215 8.91602 -14.0918 C 9.15039 -13.7207 9.62891 -13.4961 10.2734 -13.6621 C 11.7871 -14.043 13.3008 -13.9258 14.7852 -12.9199 L 14.1602 -11.3379 C 13.9258 -10.752 13.9453 -10.2734 14.1797 -9.83398 L 3.01758 0.439453 C 2.08008 1.30859 1.97266 2.25586 2.83203 3.11523 Z M 10.6738 -15.1465 C 13.3398 -17.1387 16.6504 -16.8262 19.0527 -14.4141 L 21.6797 -11.8066 C 21.9141 -11.5723 21.9434 -11.3867 21.8848 -11.0938 L 21.5039 -9.53125 L 23.0762 -7.95898 L 24.043 -8.04688 C 24.3262 -8.07617 24.4141 -8.05664 24.6387 -7.83203 L 25.2637 -7.20703 L 22.5098 -4.46289 L 21.8848 -5.07812 C 21.6602 -5.30273 21.6406 -5.40039 21.6699 -5.68359 L 21.7578 -6.64062 L 20.1953 -8.20312 L 18.5742 -7.89062 C 18.291 -7.83203 18.1445 -7.83203 17.9102 -8.07617 L 15.7324 -10.2539 C 15.5078 -10.4883 15.4785 -10.625 15.6055 -10.9473 L 16.5527 -13.2227 C 14.9512 -14.7559 12.8418 -15.6055 10.8008 -14.9512 C 10.7129 -14.9219 10.6445 -14.9414 10.6152 -14.9805 C 10.5859 -15.0293 10.5859 -15.0781 10.6738 -15.1465 Z M 4.10156 2.41211 C 3.61328 1.91406 3.78906 1.61133 4.12109 1.30859 L 15.0781 -8.80859 L 16.3086 -7.57812 L 6.15234 3.34961 C 5.84961 3.68164 5.46875 3.7793 5.06836 3.37891 Z"/>
  </g>
  <text style="stroke:none;fill:black;font-family:-apple-system,&quot;SF Pro Display&quot;,&quot;SF Pro Text&quot;,Helvetica,sans-serif;font-weight:bold;" transform="matrix(1 0 0 1 1289 1953)">Exporting</text>
  <text style="stroke:none;fill:black;font-family:-apple-system,&quot;SF Pro Display&quot;,&quot;SF Pro Text&quot;,Helvetica,sans-serif;" transform="matrix(1 0 0 1 1289 1971)">Symbols should be outlined when exporting to ensure the</text>
  <text style="stroke:none;fill:black;font-family:-apple-system,&quot;SF Pro Display&quot;,&quot;SF Pro Text&quot;,Helvetica,sans-serif;" transform="matrix(1 0 0 1 1289 1989)">design is preserved when submitting to Xcode.</text>
  <text id="template-version" style="stroke:none;fill:black;font-family:-apple-system,&quot;SF Pro Display&quot;,&quot;SF Pro Text&quot;,Helvetica,sans-serif;text-anchor:end;" transform="matrix(1 0 0 1 3036 1933)">Template v.1.0</text>
  <text style="stroke:none;fill:black;font-family:-apple-system,&quot;SF Pro Display&quot;,&quot;SF Pro Text&quot;,Helvetica,sans-serif;text-anchor:end;" transform="matrix(1 0 0 1 3036 1951)">Generated from arrow.up.arrow.down</text>
  <text style="stroke:none;fill:black;font-family:-apple-system,&quot;SF Pro Display&quot;,&quot;SF Pro Text&quot;,Helvetica,sans-serif;text-anchor:end;" transform="matrix(1 0 0 1 3036 1969)">Typeset at 100 points</text>
  <text style="stroke:none;fill:black;font-family:-apple-system,&quot;SF Pro Display&quot;,&quot;SF Pro Text&quot;,Helvetica,sans-serif;" transform="matrix(1 0 0 1 263 726)">Small</text>
  <text style="stroke:none;fill:black;font-family:-apple-system,&quot;SF Pro Display&quot;,&quot;SF Pro Text&quot;,Helvetica,sans-serif;" transform="matrix(1 0 0 1 263 1156)">Medium</text>
  <text style="stroke:none;fill:black;font-family:-apple-system,&quot;SF Pro Display&quot;,&quot;SF Pro Text&quot;,Helvetica,sans-serif;" transform="matrix(1 0 0 1 263 1586)">Large</text>
 </g>
 <g id="Guides">
  <g id="H-reference" style="fill:#27AAE1;stroke:none;" transform="matrix(1 0 0 1 339 696)">
   <path d="M 54.9316 0 L 57.666 0 L 30.5664 -70.459 L 28.0762 -70.459 L 0.976562 0 L 3.66211 0 L 12.9395 -24.4629 L 45.7031 -24.4629 Z M 29.1992 -67.0898 L 29.4434 -67.0898 L 44.8242 -26.709 L 13.8184 -26.709 Z"/>
  </g>
  <line id="Baseline-S" style="fill:none;stroke:#27AAE1;opacity:1;stroke-width:0.577;" x1="263" x2="3036" y1="696" y2="696"/>
  <line id="Capline-S" style="fill:none;stroke:#27AAE1;opacity:1;stroke-width:0.577;" x1="263" x2="3036" y1="625.541" y2="625.541"/>
  <g id="H-reference" style="fill:#27AAE1;stroke:none;" transform="matrix(1 0 0 1 339 1126)">
   <path d="M 54.9316 0 L 57.666 0 L 30.5664 -70.459 L 28.0762 -70.459 L 0.976562 0 L 3.66211 0 L 12.9395 -24.4629 L 45.7031 -24.4629 Z M 29.1992 -67.0898 L 29.4434 -67.0898 L 44.8242 -26.709 L 13.8184 -26.709 Z"/>
  </g>
  <line id="Baseline-M" style="fill:none;stroke:#27AAE1;opacity:1;stroke-width:0.577;" x1="263" x2="3036" y1="1126" y2="1126"/>
  <line id="Capline-M" style="fill:none;stroke:#27AAE1;opacity:1;stroke-width:0.577;" x1="263" x2="3036" y1="1055.54" y2="1055.54"/>
  <g id="H-reference" style="fill:#27AAE1;stroke:none;" transform="matrix(1 0 0 1 339 1556)">
   <path d="M 54.9316 0 L 57.666 0 L 30.5664 -70.459 L 28.0762 -70.459 L 0.976562 0 L 3.66211 0 L 12.9395 -24.4629 L 45.7031 -24.4629 Z M 29.1992 -67.0898 L 29.4434 -67.0898 L 44.8242 -26.709 L 13.8184 -26.709 Z"/>
  </g>
  <line id="Baseline-L" style="fill:none;stroke:#27AAE1;opacity:1;stroke-width:0.577;" x1="263" x2="3036" y1="1556" y2="1556"/>
  <line id="Capline-L" style="fill:none;stroke:#27AAE1;opacity:1;stroke-width:0.577;" x1="263" x2="3036" y1="1485.54" y2="1485.54"/>
  <rect height="119.336" id="left-margin" style="fill:#00AEEF;stroke:none;opacity:0.4;" width="12.4512" x="1379.68" y="1030.79"/>
  <rect height="119.336" id="right-margin" style="fill:#00AEEF;stroke:none;opacity:0.4;" width="12.4512" x="1507.56" y="1030.79"/>
 </g>
 <g id="Symbols">
  <g id="Black-L" transform="matrix(1 0 0 1 2838.4 1556)">
   <path d="M 128.906 25.6348 C 131.982 25.6348 135.254 24.4141 137.305 22.3633 L 170.361 -10.9863 C 172.656 -13.2324 173.926 -16.2109 173.926 -19.1406 C 173.926 -25.7324 169.238 -30.127 163.086 -30.127 C 159.521 -30.127 157.031 -28.5645 154.932 -26.416 L 145.947 -17.1875 L 139.697 -9.32617 L 140.332 -23.0469 L 140.332 -84.082 C 140.332 -91.3086 135.791 -96.0938 128.906 -96.0938 C 122.07 -96.0938 117.48 -91.3086 117.48 -84.082 L 117.48 -23.0469 L 118.115 -9.32617 L 111.865 -17.1875 L 102.93 -26.416 C 100.83 -28.5645 98.3398 -30.127 94.7754 -30.127 C 88.623 -30.127 83.9844 -25.7324 83.9844 -19.1406 C 83.9844 -16.2109 85.2539 -13.2324 87.5 -10.9863 L 120.508 22.3633 C 122.559 24.4141 125.83 25.6348 128.906 25.6348 Z M 60.9863 25.6348 C 67.8711 25.6348 72.4609 20.8496 72.4609 13.623 L 72.4609 -47.4121 L 71.7773 -61.1328 L 78.0762 -53.2715 L 87.0605 -44.043 C 89.1113 -41.8945 91.6016 -40.332 95.166 -40.332 C 101.367 -40.332 106.006 -44.7266 106.006 -51.3184 C 106.006 -54.248 104.736 -57.2266 102.441 -59.4727 L 69.3848 -92.8223 C 67.3828 -94.873 64.0625 -96.0938 60.9863 -96.0938 C 57.9102 -96.0938 54.6387 -94.873 52.6367 -92.8223 L 19.6289 -59.4727 C 17.334 -57.2266 16.0645 -54.248 16.0645 -51.3184 C 16.0645 -44.7266 20.7031 -40.332 26.9043 -40.332 C 30.4688 -40.332 32.959 -41.8945 35.0098 -44.043 L 43.9453 -53.2715 L 50.2441 -61.1328 L 49.5605 -47.4121 L 49.5605 13.623 C 49.5605 20.8496 54.1504 25.6348 60.9863 25.6348 Z"/>
  </g>
  <g id="Heavy-L" transform="matrix(1 0 0 1 2542.84 1556)">
   <path d="M 127.344 25.2441 C 130.029 25.2441 132.812 24.1699 134.619 22.3633 L 168.604 -11.9141 C 170.557 -13.8672 171.631 -16.4551 171.631 -18.9941 C 171.631 -24.6582 167.627 -28.4668 162.256 -28.4668 C 159.229 -28.4668 157.031 -27.1973 155.273 -25.3418 L 143.945 -13.7207 L 136.572 -4.73633 L 137.207 -18.75 L 137.207 -85.4492 C 137.207 -91.6016 133.252 -95.7031 127.344 -95.7031 C 121.484 -95.7031 117.529 -91.6016 117.529 -85.4492 L 117.529 -18.75 L 118.164 -4.73633 L 110.791 -13.7207 L 99.5117 -25.3418 C 97.7051 -27.1973 95.5566 -28.4668 92.4805 -28.4668 C 87.1582 -28.4668 83.1055 -24.6582 83.1055 -18.9941 C 83.1055 -16.4551 84.2285 -13.8672 86.1816 -11.9141 L 120.117 22.3633 C 121.875 24.1699 124.707 25.2441 127.344 25.2441 Z M 60.3027 25.2441 C 66.2109 25.2441 70.166 21.1426 70.166 14.9902 L 70.166 -51.709 L 69.5312 -65.7227 L 76.9043 -56.7383 L 88.2324 -45.1172 C 89.9902 -43.2617 92.1387 -41.9922 95.2148 -41.9922 C 100.537 -41.9922 104.59 -45.8008 104.59 -51.4648 C 104.59 -54.0039 103.467 -56.5918 101.514 -58.5449 L 67.5293 -92.8223 C 65.7715 -94.6289 62.9395 -95.7031 60.3027 -95.7031 C 57.6172 -95.7031 54.834 -94.6289 53.0273 -92.8223 L 19.1406 -58.5449 C 17.1875 -56.5918 16.0645 -54.0039 16.0645 -51.4648 C 16.0645 -45.8008 20.0684 -41.9922 25.4395 -41.9922 C 28.4668 -41.9922 30.6641 -43.2617 32.4219 -45.1172 L 43.7012 -56.7383 L 51.0742 -65.7227 L 50.4395 -51.709 L 50.4395 14.9902 C 50.4395 21.1426 54.3945 25.2441 60.3027 25.2441 Z"/>
  </g>
  <g id="Bold-L" transform="matrix(1 0 0 1 2247.4 1556)">
   <path d="M 125.635 24.8047 C 127.832 24.8047 130.078 23.9258 131.592 22.3633 L 166.602 -12.9883 C 168.164 -14.5508 169.092 -16.748 169.092 -18.7988 C 169.092 -23.4863 165.771 -26.6602 161.328 -26.6602 C 158.887 -26.6602 157.08 -25.6348 155.615 -24.1211 L 141.699 -9.86328 L 133.105 0.341797 L 133.691 -13.9648 L 133.691 -86.9141 C 133.691 -91.8945 130.42 -95.2637 125.635 -95.2637 C 120.801 -95.2637 117.529 -91.8945 117.529 -86.9141 L 117.529 -13.9648 L 118.164 0.341797 L 109.57 -9.86328 L 95.6543 -24.1211 C 94.1895 -25.6348 92.3828 -26.6602 89.9414 -26.6602 C 85.498 -26.6602 82.1777 -23.4863 82.1777 -18.7988 C 82.1777 -16.748 83.1055 -14.5508 84.7168 -12.9883 L 119.678 22.3633 C 121.191 23.9258 123.438 24.8047 125.635 24.8047 Z M 59.5215 24.8047 C 64.3066 24.8047 67.5781 21.4355 67.5781 16.4551 L 67.5781 -56.4941 L 66.9922 -70.8008 L 75.5859 -60.5957 L 89.502 -46.3379 C 90.9668 -44.8242 92.7734 -43.7988 95.2148 -43.7988 C 99.6582 -43.7988 102.979 -46.9727 102.979 -51.6602 C 102.979 -53.7109 102.051 -55.9082 100.488 -57.4707 L 65.4785 -92.8223 C 63.9648 -94.3848 61.7188 -95.2637 59.5215 -95.2637 C 57.3242 -95.2637 55.0781 -94.3848 53.5156 -92.8223 L 18.5547 -57.4707 C 16.9922 -55.9082 16.0645 -53.7109 16.0645 -51.6602 C 16.0645 -46.9727 19.3848 -43.7988 23.8281 -43.7988 C 26.2695 -43.7988 28.0762 -44.8242 29.541 -46.3379 L 43.457 -60.5957 L 52.0508 -70.8008 L 51.416 -56.4941 L 51.416 16.4551 C 51.416 21.4355 54.6875 24.8047 59.5215 24.8047 Z"/>
  </g>
  <g id="Semibold-L" transform="matrix(1 0 0 1 1951.57 1556)">
   <path d="M 124.414 24.5117 C 126.318 24.5117 128.174 23.7793 129.541 22.4121 L 165.234 -13.7207 C 166.553 -15.0391 167.334 -16.9434 167.334 -18.6523 C 167.334 -22.7051 164.551 -25.3906 160.693 -25.3906 C 158.643 -25.3906 157.129 -24.5605 155.859 -23.291 L 140.137 -7.22656 L 130.713 3.80859 L 131.299 -10.6445 L 131.299 -87.9395 C 131.299 -92.0898 128.516 -94.9707 124.414 -94.9707 C 120.361 -94.9707 117.578 -92.0898 117.578 -87.9395 L 117.578 -10.6445 L 118.164 3.80859 L 108.74 -7.22656 L 93.0176 -23.291 C 91.748 -24.5605 90.2344 -25.3906 88.1836 -25.3906 C 84.375 -25.3906 81.543 -22.7051 81.543 -18.6523 C 81.543 -16.9434 82.3242 -15.0391 83.6426 -13.7207 L 119.336 22.4121 C 120.703 23.7793 122.559 24.5117 124.414 24.5117 Z M 58.9844 24.5117 C 63.0371 24.5117 65.8203 21.6309 65.8203 17.4805 L 65.8203 -59.8145 L 65.2344 -74.2676 L 74.6582 -63.2324 L 90.4297 -47.168 C 91.6504 -45.8984 93.1641 -45.0684 95.2637 -45.0684 C 99.0723 -45.0684 101.904 -47.7539 101.904 -51.8066 C 101.904 -53.5156 101.074 -55.4199 99.7559 -56.7383 L 64.0625 -92.8711 C 62.6953 -94.2383 60.8398 -94.9707 58.9844 -94.9707 C 57.0801 -94.9707 55.2246 -94.2383 53.8574 -92.8711 L 18.2129 -56.7383 C 16.8457 -55.4199 16.0645 -53.5156 16.0645 -51.8066 C 16.0645 -47.7539 18.8965 -45.0684 22.7051 -45.0684 C 24.7559 -45.0684 26.3184 -45.8984 27.5391 -47.168 L 43.2617 -63.2324 L 52.6855 -74.2676 L 52.0996 -59.8145 L 52.0996 17.4805 C 52.0996 21.6309 54.8828 24.5117 58.9844 24.5117 Z"/>
  </g>
  <g id="Medium-L" transform="matrix(1 0 0 1 1655.52 1556)">
   <path d="M 123.535 24.2676 C 125.146 24.2676 126.758 23.6328 127.93 22.4121 L 164.16 -14.2578 C 165.332 -15.4297 166.016 -17.0898 166.016 -18.5547 C 166.016 -22.0703 163.574 -24.4141 160.254 -24.4141 C 158.447 -24.4141 157.129 -23.7305 156.055 -22.7051 L 138.916 -5.22461 L 128.906 6.39648 L 129.492 -8.10547 L 129.492 -88.6719 C 129.492 -92.2363 127.051 -94.7266 123.535 -94.7266 C 120.02 -94.7266 117.578 -92.2363 117.578 -88.6719 L 117.578 -8.10547 L 118.164 6.39648 L 108.105 -5.22461 L 91.0156 -22.7051 C 89.9414 -23.7305 88.623 -24.4141 86.8164 -24.4141 C 83.4961 -24.4141 81.0547 -22.0703 81.0547 -18.5547 C 81.0547 -17.0898 81.7383 -15.4297 82.9102 -14.2578 L 119.092 22.4121 C 120.312 23.6328 121.875 24.2676 123.535 24.2676 Z M 58.5449 24.2676 C 62.0605 24.2676 64.502 21.7773 64.502 18.2129 L 64.502 -62.3535 L 63.916 -76.8555 L 73.9746 -65.2344 L 91.1133 -47.7539 C 92.1387 -46.7285 93.5059 -46.0449 95.2637 -46.0449 C 98.584 -46.0449 101.025 -48.3887 101.025 -51.9043 C 101.025 -53.3691 100.342 -55.0293 99.2188 -56.2012 L 62.9883 -92.8711 C 61.7676 -94.0918 60.2051 -94.7266 58.5449 -94.7266 C 56.9336 -94.7266 55.3223 -94.0918 54.1504 -92.8711 L 17.9199 -56.2012 C 16.748 -55.0293 16.0645 -53.3691 16.0645 -51.9043 C 16.0645 -48.3887 18.5059 -46.0449 21.875 -46.0449 C 23.6328 -46.0449 24.9512 -46.7285 26.0254 -47.7539 L 43.1152 -65.2344 L 53.1738 -76.8555 L 52.5879 -62.3535 L 52.5879 18.2129 C 52.5879 21.7773 55.0293 24.2676 58.5449 24.2676 Z"/>
  </g>
  <g id="Regular-L" transform="matrix(1 0 0 1 1359.66 1556)">
   <path d="M 122.363 23.9746 C 123.682 23.9746 124.902 23.4863 125.879 22.4121 L 162.842 -14.9902 C 163.721 -15.918 164.307 -17.2852 164.307 -18.457 C 164.307 -21.2891 162.354 -23.1445 159.619 -23.1445 C 158.252 -23.1445 157.178 -22.7051 156.299 -21.875 L 137.402 -2.58789 L 126.514 9.7168 L 127.1 -4.83398 L 127.1 -89.6973 C 127.1 -92.4316 125.098 -94.4336 122.363 -94.4336 C 119.58 -94.4336 117.627 -92.4316 117.627 -89.6973 L 117.627 -4.83398 L 118.164 9.7168 L 107.275 -2.58789 L 88.3789 -21.875 C 87.5488 -22.7051 86.4746 -23.1445 85.1074 -23.1445 C 82.373 -23.1445 80.4199 -21.2891 80.4199 -18.457 C 80.4199 -17.2852 80.957 -15.918 81.8848 -14.9902 L 118.799 22.4121 C 119.824 23.4863 121.045 23.9746 122.363 23.9746 Z M 58.0078 23.9746 C 60.791 23.9746 62.7441 21.9727 62.7441 19.2383 L 62.7441 -65.625 L 62.207 -80.1758 L 73.0469 -67.8711 L 91.9922 -48.584 C 92.8223 -47.7539 93.8965 -47.3145 95.2637 -47.3145 C 97.998 -47.3145 99.9512 -49.1699 99.9512 -52.002 C 99.9512 -53.1738 99.4141 -54.541 98.4863 -55.4688 L 61.5723 -92.8711 C 60.5469 -93.9453 59.3262 -94.4336 58.0078 -94.4336 C 56.6895 -94.4336 55.4688 -93.9453 54.4434 -92.8711 L 17.5293 -55.4688 C 16.6016 -54.541 16.0645 -53.1738 16.0645 -52.002 C 16.0645 -49.1699 18.0176 -47.3145 20.752 -47.3145 C 22.1191 -47.3145 23.1934 -47.7539 24.0234 -48.584 L 42.9688 -67.8711 L 53.8086 -80.1758 L 53.2715 -65.625 L 53.2715 19.2383 C 53.2715 21.9727 55.2246 23.9746 58.0078 23.9746 Z"/>
  </g>
  <g id="Light-L" transform="matrix(1 0 0 1 1063.46 1556)">
   <path d="M 121.826 23.5352 C 122.852 23.5352 123.73 23.1445 124.512 22.3633 L 162.207 -15.5273 C 162.891 -16.2109 163.281 -17.1875 163.281 -18.0664 C 163.281 -20.2148 161.816 -21.6309 159.766 -21.6309 C 158.74 -21.6309 157.91 -21.2891 157.275 -20.7031 L 136.719 0.0976562 L 124.951 12.8906 L 125.391 -1.26953 L 125.391 -90.4785 C 125.391 -92.4805 123.926 -93.9941 121.826 -93.9941 C 119.775 -93.9941 118.311 -92.4805 118.311 -90.4785 L 118.311 -1.26953 L 118.75 12.8906 L 106.982 0.0976562 L 86.4258 -20.7031 C 85.791 -21.2891 84.9609 -21.6309 83.8867 -21.6309 C 81.8848 -21.6309 80.4199 -20.2148 80.4199 -18.0664 C 80.4199 -17.1875 80.8105 -16.2109 81.4941 -15.5273 L 119.189 22.3633 C 119.971 23.1445 120.85 23.5352 121.826 23.5352 Z M 57.5195 23.5352 C 59.5703 23.5352 61.0352 22.0215 61.0352 20.0195 L 61.0352 -69.1895 L 60.6445 -83.3496 L 72.3633 -70.5566 L 92.9688 -49.7559 C 93.5547 -49.1699 94.4336 -48.8281 95.459 -48.8281 C 97.4609 -48.8281 98.9746 -50.2441 98.9746 -52.3926 C 98.9746 -53.2715 98.5352 -54.248 97.8516 -54.9316 L 60.1562 -92.8223 C 59.375 -93.6035 58.4961 -93.9941 57.5195 -93.9941 C 56.4941 -93.9941 55.6152 -93.6035 54.8828 -92.8223 L 17.1875 -54.9316 C 16.4551 -54.248 16.0645 -53.2715 16.0645 -52.3926 C 16.0645 -50.2441 17.5781 -48.8281 19.5801 -48.8281 C 20.6055 -48.8281 21.4844 -49.1699 22.0703 -49.7559 L 42.627 -70.5566 L 54.3945 -83.3496 L 53.9551 -69.1895 L 53.9551 20.0195 C 53.9551 22.0215 55.4688 23.5352 57.5195 23.5352 Z"/>
  </g>
  <g id="Thin-L" transform="matrix(1 0 0 1 767.409 1556)">
   <path d="M 121.191 22.9492 C 121.777 22.9492 122.217 22.7539 122.607 22.3145 L 161.377 -16.2109 C 161.768 -16.6016 161.963 -17.041 161.963 -17.627 C 161.963 -18.8477 161.084 -19.6289 160.01 -19.6289 C 159.424 -19.6289 158.887 -19.4336 158.545 -19.1406 L 135.791 3.66211 L 122.9 16.8945 L 123.145 3.36914 L 123.145 -91.4551 C 123.145 -92.5293 122.314 -93.4082 121.191 -93.4082 C 120.068 -93.4082 119.238 -92.5293 119.238 -91.4551 L 119.238 3.36914 L 119.434 16.8945 L 106.543 3.66211 L 83.8379 -19.1406 C 83.4961 -19.4336 82.959 -19.6289 82.3242 -19.6289 C 81.2988 -19.6289 80.4199 -18.8477 80.4199 -17.627 C 80.4199 -17.041 80.6152 -16.6016 81.0059 -16.2109 L 119.727 22.3145 C 120.166 22.7539 120.605 22.9492 121.191 22.9492 Z M 56.8359 22.9492 C 57.959 22.9492 58.7891 22.0703 58.7891 20.9961 L 58.7891 -73.8281 L 58.5938 -87.3535 L 71.4844 -74.1211 L 94.2383 -51.3184 C 94.5312 -51.0254 95.1172 -50.8301 95.7031 -50.8301 C 96.7285 -50.8301 97.6562 -51.6113 97.6562 -52.832 C 97.6562 -53.418 97.4121 -53.8574 97.0215 -54.248 L 58.3008 -92.7734 C 57.8613 -93.2129 57.4219 -93.4082 56.8359 -93.4082 C 56.25 -93.4082 55.8105 -93.2129 55.4199 -92.7734 L 16.6992 -54.248 C 16.2598 -53.8574 16.0645 -53.418 16.0645 -52.832 C 16.0645 -51.6113 16.9434 -50.8301 18.0176 -50.8301 C 18.6035 -50.8301 19.1895 -51.0254 19.4824 -51.3184 L 42.2363 -74.1211 L 55.127 -87.3535 L 54.8828 -73.8281 L 54.8828 20.9961 C 54.8828 22.0703 55.7129 22.9492 56.8359 22.9492 Z"/>
  </g>
  <g id="Ultralight-L" transform="matrix(1 0 0 1 471.039 1556)">
   <path d="M 120.85 22.6562 C 121.24 22.6562 121.436 22.5098 121.68 22.3145 L 160.938 -16.5527 C 161.182 -16.7969 161.279 -16.9922 161.279 -17.3828 C 161.279 -18.1152 160.742 -18.6035 160.156 -18.6035 C 159.766 -18.6035 159.375 -18.5059 159.229 -18.3105 L 135.352 5.51758 L 121.875 18.8965 L 121.973 5.76172 L 121.973 -91.9922 C 121.973 -92.5293 121.484 -93.1152 120.85 -93.1152 C 120.215 -93.1152 119.727 -92.5293 119.727 -91.9922 L 119.727 5.76172 L 119.824 18.8965 L 106.348 5.51758 L 82.4707 -18.3105 C 82.3242 -18.5059 81.9336 -18.6035 81.543 -18.6035 C 80.957 -18.6035 80.4199 -18.1152 80.4199 -17.3828 C 80.4199 -16.9922 80.5176 -16.7969 80.7617 -16.5527 L 120.02 22.3145 C 120.264 22.5098 120.459 22.6562 120.85 22.6562 Z M 56.4941 22.6562 C 57.1777 22.6562 57.666 22.0703 57.666 21.5332 L 57.666 -76.2207 L 57.5684 -89.3555 L 70.9961 -75.9766 L 94.873 -52.1484 C 95.0195 -51.9531 95.459 -51.8555 95.8008 -51.8555 C 96.3867 -51.8555 96.9727 -52.3438 96.9727 -53.0762 C 96.9727 -53.4668 96.8262 -53.6621 96.582 -53.9062 L 57.3242 -92.7734 C 57.1289 -92.9688 56.8848 -93.1152 56.4941 -93.1152 C 56.1523 -93.1152 55.9082 -92.9688 55.6641 -92.7734 L 16.4062 -53.9062 C 16.1621 -53.6621 16.0645 -53.4668 16.0645 -53.0762 C 16.0645 -52.3438 16.6504 -51.8555 17.1875 -51.8555 C 17.5781 -51.8555 17.9688 -51.9531 18.1641 -52.1484 L 42.041 -75.9766 L 55.4688 -89.3555 L 55.3711 -76.2207 L 55.3711 21.5332 C 55.3711 22.0703 55.8594 22.6562 56.4941 22.6562 Z"/>
  </g>
  <g id="Black-M" transform="matrix(1 0 0 1 2858.52 1126)">
   <path d="M 101.709 12.2559 C 104.492 12.2559 107.52 11.1328 109.277 9.375 L 134.082 -15.4297 C 136.182 -17.4805 137.305 -20.0684 137.305 -22.8027 C 137.305 -28.7109 133.057 -32.7148 127.588 -32.7148 C 124.316 -32.7148 122.07 -31.1523 120.166 -29.1992 L 115.479 -24.4141 L 111.572 -19.4824 L 112.061 -29.7363 L 112.061 -71.7285 C 112.061 -78.3691 107.959 -82.7148 101.709 -82.7148 C 95.459 -82.7148 91.3574 -78.3691 91.3574 -71.7285 L 91.3574 -29.7363 L 91.8457 -19.4824 L 87.9883 -24.4141 L 83.3496 -29.1992 C 81.4453 -31.1523 79.1992 -32.7148 75.9277 -32.7148 C 70.4102 -32.7148 66.2109 -28.7109 66.2109 -22.8027 C 66.2109 -20.0684 67.334 -17.4805 69.4336 -15.4297 L 94.1406 9.375 C 95.8984 11.1328 98.9258 12.2559 101.709 12.2559 Z M 47.9492 12.2559 C 54.1992 12.2559 58.3008 7.91016 58.3008 1.26953 L 58.3008 -40.7227 L 57.8613 -50.9766 L 61.7188 -46.0449 L 66.4062 -41.2598 C 68.3105 -39.3066 70.5566 -37.7441 73.8281 -37.7441 C 79.3457 -37.7441 83.5449 -41.748 83.5449 -47.6562 C 83.5449 -50.3906 82.4219 -52.9785 80.3223 -55.0293 L 55.5176 -79.834 C 53.7598 -81.5918 50.7324 -82.7148 47.9492 -82.7148 C 45.2148 -82.7148 42.1875 -81.5918 40.3809 -79.834 L 15.6738 -55.0293 C 13.5742 -52.9785 12.4512 -50.3906 12.4512 -47.6562 C 12.4512 -41.748 16.6992 -37.7441 22.168 -37.7441 C 25.4395 -37.7441 27.7344 -39.3066 29.5898 -41.2598 L 34.2285 -46.0449 L 38.0859 -50.9766 L 37.6465 -40.7227 L 37.6465 1.26953 C 37.6465 7.91016 41.748 12.2559 47.9492 12.2559 Z"/>
  </g>
  <g id="Heavy-M" transform="matrix(1 0 0 1 2562.91 1126)">
   <path d="M 100.146 11.9141 C 102.588 11.9141 105.127 10.9375 106.689 9.375 L 132.324 -16.3086 C 134.082 -18.1152 135.107 -20.3613 135.107 -22.7051 C 135.107 -27.832 131.445 -31.2988 126.66 -31.2988 C 123.828 -31.2988 121.875 -30.0293 120.264 -28.3691 L 113.428 -21.3867 L 108.594 -15.332 L 109.082 -25.9277 L 109.082 -72.998 C 109.082 -78.6621 105.518 -82.373 100.146 -82.373 C 94.7754 -82.373 91.2109 -78.6621 91.2109 -72.998 L 91.2109 -25.9277 L 91.6992 -15.332 L 86.8652 -21.3867 L 80.127 -28.3691 C 78.4668 -30.0293 76.5137 -31.2988 73.7305 -31.2988 C 68.9453 -31.2988 65.2832 -27.832 65.2832 -22.7051 C 65.2832 -20.3613 66.2598 -18.1152 68.0664 -16.3086 L 93.6035 9.375 C 95.166 10.9375 97.7539 11.9141 100.146 11.9141 Z M 47.3145 11.9141 C 52.6855 11.9141 56.25 8.20312 56.25 2.53906 L 56.25 -44.5312 L 55.7617 -55.127 L 60.5957 -49.0723 L 67.4316 -42.0898 C 69.043 -40.4297 70.9961 -39.1602 73.8281 -39.1602 C 78.6133 -39.1602 82.2266 -42.627 82.2266 -47.7539 C 82.2266 -50.0977 81.25 -52.3438 79.4922 -54.1504 L 53.8574 -79.834 C 52.2949 -81.3965 49.707 -82.373 47.3145 -82.373 C 44.9219 -82.373 42.334 -81.3965 40.7715 -79.834 L 15.2344 -54.1504 C 13.4277 -52.3438 12.4512 -50.0977 12.4512 -47.7539 C 12.4512 -42.627 16.1133 -39.1602 20.8984 -39.1602 C 23.6816 -39.1602 25.6348 -40.4297 27.2949 -42.0898 L 34.0332 -49.0723 L 38.8672 -55.127 L 38.3789 -44.5312 L 38.3789 2.53906 C 38.3789 8.20312 41.9434 11.9141 47.3145 11.9141 Z"/>
  </g>
  <g id="Bold-M" transform="matrix(1 0 0 1 2267.44 1126)">
   <path d="M 98.3887 11.5723 C 100.391 11.5723 102.49 10.791 103.809 9.42383 L 130.322 -17.334 C 131.787 -18.7988 132.617 -20.7031 132.617 -22.6074 C 132.617 -26.8555 129.59 -29.7363 125.586 -29.7363 C 123.34 -29.7363 121.729 -28.7598 120.361 -27.3926 L 111.182 -17.9688 L 105.273 -10.7422 L 105.762 -21.6797 L 105.762 -74.3652 C 105.762 -78.9551 102.783 -82.0312 98.3887 -82.0312 C 94.043 -82.0312 91.0645 -78.9551 91.0645 -74.3652 L 91.0645 -21.6797 L 91.5527 -10.7422 L 85.6445 -17.9688 L 76.4648 -27.3926 C 75.1465 -28.7598 73.5352 -29.7363 71.2891 -29.7363 C 67.2852 -29.7363 64.2578 -26.8555 64.2578 -22.6074 C 64.2578 -20.7031 65.0879 -18.7988 66.5527 -17.334 L 93.0176 9.42383 C 94.3359 10.791 96.4355 11.5723 98.3887 11.5723 Z M 46.582 11.5723 C 50.9766 11.5723 53.9551 8.49609 53.9551 3.90625 L 53.9551 -48.7793 L 53.4668 -59.7168 L 59.375 -52.4902 L 68.5547 -43.0664 C 69.9219 -41.6992 71.5332 -40.7227 73.7793 -40.7227 C 77.7832 -40.7227 80.8105 -43.6035 80.8105 -47.8516 C 80.8105 -49.7559 79.9805 -51.6602 78.5156 -53.125 L 52.002 -79.8828 C 50.6836 -81.25 48.584 -82.0312 46.582 -82.0312 C 44.6289 -82.0312 42.5293 -81.25 41.2109 -79.8828 L 14.7461 -53.125 C 13.2812 -51.6602 12.4512 -49.7559 12.4512 -47.8516 C 12.4512 -43.6035 15.4785 -40.7227 19.4336 -40.7227 C 21.7285 -40.7227 23.3398 -41.6992 24.6582 -43.0664 L 33.8379 -52.4902 L 39.7461 -59.7168 L 39.2578 -48.7793 L 39.2578 3.90625 C 39.2578 8.49609 42.2363 11.5723 46.582 11.5723 Z"/>
  </g>
  <g id="Semibold-M" transform="matrix(1 0 0 1 1971.59 1126)">
   <path d="M 97.2168 11.3281 C 98.9258 11.3281 100.635 10.6445 101.855 9.42383 L 128.955 -18.0176 C 130.176 -19.2871 130.908 -20.9473 130.908 -22.5586 C 130.908 -26.1719 128.32 -28.6133 124.854 -28.6133 C 122.949 -28.6133 121.582 -27.8809 120.459 -26.709 L 109.619 -15.5762 L 102.979 -7.61719 L 103.467 -18.75 L 103.467 -75.3418 C 103.467 -79.1504 100.928 -81.7871 97.2168 -81.7871 C 93.5059 -81.7871 90.9668 -79.1504 90.9668 -75.3418 L 90.9668 -18.75 L 91.4551 -7.61719 L 84.8145 -15.5762 L 73.9746 -26.709 C 72.8516 -27.8809 71.4844 -28.6133 69.5801 -28.6133 C 66.1133 -28.6133 63.5254 -26.1719 63.5254 -22.5586 C 63.5254 -20.9473 64.2578 -19.2871 65.4785 -18.0176 L 92.5781 9.42383 C 93.75 10.6445 95.5078 11.3281 97.2168 11.3281 Z M 46.0938 11.3281 C 49.8047 11.3281 52.3926 8.69141 52.3926 4.88281 L 52.3926 -51.709 L 51.8555 -62.8418 L 58.4961 -54.8828 L 69.3848 -43.75 C 70.5078 -42.5781 71.875 -41.8457 73.7793 -41.8457 C 77.2461 -41.8457 79.7852 -44.2871 79.7852 -47.9004 C 79.7852 -49.5117 79.0527 -51.1719 77.832 -52.4414 L 50.7324 -79.8828 C 49.5605 -81.1035 47.8027 -81.7871 46.0938 -81.7871 C 44.3848 -81.7871 42.6758 -81.1035 41.4551 -79.8828 L 14.4043 -52.4414 C 13.1836 -51.1719 12.4512 -49.5117 12.4512 -47.9004 C 12.4512 -44.2871 14.9902 -41.8457 18.457 -41.8457 C 20.3613 -41.8457 21.7285 -42.5781 22.9004 -43.75 L 33.6914 -54.8828 L 40.332 -62.8418 L 39.8438 -51.709 L 39.8438 4.88281 C 39.8438 8.69141 42.3828 11.3281 46.0938 11.3281 Z"/>
  </g>
  <g id="Medium-M" transform="matrix(1 0 0 1 1675.54 1126)">
   <path d="M 96.2891 11.1328 C 97.8027 11.1328 99.2676 10.5469 100.342 9.42383 L 127.881 -18.5547 C 128.955 -19.6289 129.59 -21.1426 129.59 -22.4609 C 129.59 -25.6836 127.344 -27.832 124.316 -27.832 C 122.705 -27.832 121.484 -27.1973 120.508 -26.2207 L 108.398 -13.8184 L 101.221 -5.27344 L 101.709 -16.5527 L 101.709 -76.0742 C 101.709 -79.3457 99.5117 -81.5918 96.2891 -81.5918 C 93.0664 -81.5918 90.8691 -79.3457 90.8691 -76.0742 L 90.8691 -16.5527 L 91.3574 -5.27344 L 84.1797 -13.8184 L 72.0703 -26.2207 C 71.0938 -27.1973 69.9219 -27.832 68.3105 -27.832 C 65.2344 -27.832 62.9883 -25.6836 62.9883 -22.4609 C 62.9883 -21.1426 63.623 -19.6289 64.6973 -18.5547 L 92.2363 9.42383 C 93.3594 10.5469 94.8242 11.1328 96.2891 11.1328 Z M 45.752 11.1328 C 48.9258 11.1328 51.1719 8.88672 51.1719 5.61523 L 51.1719 -53.9062 L 50.6836 -65.1855 L 57.8613 -56.6406 L 69.9707 -44.2383 C 70.9473 -43.2617 72.1191 -42.627 73.7305 -42.627 C 76.8066 -42.627 79.0039 -44.7754 79.0039 -47.998 C 79.0039 -49.3164 78.418 -50.8301 77.3438 -51.9043 L 49.7559 -79.8828 C 48.6816 -81.0059 47.2168 -81.5918 45.752 -81.5918 C 44.2383 -81.5918 42.7734 -81.0059 41.6992 -79.8828 L 14.1602 -51.9043 C 13.0859 -50.8301 12.4512 -49.3164 12.4512 -47.998 C 12.4512 -44.7754 14.6484 -42.627 17.7246 -42.627 C 19.3359 -42.627 20.5566 -43.2617 21.5332 -44.2383 L 33.5938 -56.6406 L 40.8203 -65.1855 L 40.2832 -53.9062 L 40.2832 5.61523 C 40.2832 8.88672 42.5293 11.1328 45.752 11.1328 Z"/>
  </g>
  <g id="Regular-M" transform="matrix(1 0 0 1 1379.68 1126)">
   <path d="M 95.1172 10.8887 C 96.2891 10.8887 97.4121 10.4492 98.3887 9.47266 L 126.562 -19.2383 C 127.393 -20.0684 127.881 -21.3379 127.881 -22.4121 C 127.881 -25 126.123 -26.7578 123.584 -26.7578 C 122.314 -26.7578 121.387 -26.3184 120.605 -25.5371 L 106.885 -11.4746 L 98.9746 -2.24609 L 99.4629 -13.6719 L 99.4629 -77.002 C 99.4629 -79.541 97.6562 -81.3477 95.1172 -81.3477 C 92.5781 -81.3477 90.7227 -79.541 90.7227 -77.002 L 90.7227 -13.6719 L 91.2598 -2.24609 L 83.3496 -11.4746 L 69.5801 -25.5371 C 68.8477 -26.3184 67.8711 -26.7578 66.6016 -26.7578 C 64.1113 -26.7578 62.3047 -25 62.3047 -22.4121 C 62.3047 -21.3379 62.8418 -20.0684 63.6719 -19.2383 L 91.8457 9.47266 C 92.7734 10.4492 93.8965 10.8887 95.1172 10.8887 Z M 45.2637 10.8887 C 47.8027 10.8887 49.6094 9.08203 49.6094 6.54297 L 49.6094 -56.7871 L 49.1211 -68.2129 L 57.0312 -58.9844 L 70.752 -44.9219 C 71.5332 -44.1406 72.4609 -43.7012 73.7305 -43.7012 C 76.2695 -43.7012 78.0273 -45.459 78.0273 -48.0469 C 78.0273 -49.1211 77.5391 -50.3906 76.6602 -51.2207 L 48.4863 -79.9316 C 47.5586 -80.9082 46.4355 -81.3477 45.2637 -81.3477 C 44.043 -81.3477 42.9199 -80.9082 41.9922 -79.9316 L 13.8184 -51.2207 C 12.9883 -50.3906 12.4512 -49.1211 12.4512 -48.0469 C 12.4512 -45.459 14.209 -43.7012 16.748 -43.7012 C 18.0176 -43.7012 18.9941 -44.1406 19.7266 -44.9219 L 33.4961 -58.9844 L 41.4062 -68.2129 L 40.8691 -56.7871 L 40.8691 6.54297 C 40.8691 9.08203 42.7246 10.8887 45.2637 10.8887 Z"/>
  </g>
  <g id="Light-M" transform="matrix(1 0 0 1 1083.41 1126)">
   <path d="M 94.6777 10.498 C 95.5566 10.498 96.3867 10.1562 97.1191 9.42383 L 125.977 -19.7266 C 126.611 -20.3613 127.002 -21.2891 127.002 -22.1191 C 127.002 -24.0723 125.635 -25.3906 123.73 -25.3906 C 122.803 -25.3906 122.021 -25.0488 121.484 -24.4629 L 106.25 -9.0332 L 97.5586 0.634766 L 97.9492 -10.498 L 97.9492 -77.6855 C 97.9492 -79.5898 96.582 -80.957 94.6777 -80.957 C 92.7246 -80.957 91.3574 -79.5898 91.3574 -77.6855 L 91.3574 -10.498 L 91.748 0.634766 L 83.0566 -9.0332 L 67.8223 -24.4629 C 67.2852 -25.0488 66.5039 -25.3906 65.5762 -25.3906 C 63.6719 -25.3906 62.3047 -24.0723 62.3047 -22.1191 C 62.3047 -21.2891 62.6953 -20.3613 63.3301 -19.7266 L 92.1875 9.42383 C 92.9199 10.1562 93.75 10.498 94.6777 10.498 Z M 44.7754 10.498 C 46.7285 10.498 48.0957 9.13086 48.0957 7.22656 L 48.0957 -59.9609 L 47.7051 -71.0938 L 56.3965 -61.4258 L 71.582 -45.9961 C 72.168 -45.4102 72.9492 -45.0684 73.877 -45.0684 C 75.7812 -45.0684 77.1484 -46.3867 77.1484 -48.3398 C 77.1484 -49.1699 76.7578 -50.0977 76.123 -50.7324 L 47.2656 -79.8828 C 46.5332 -80.6152 45.7031 -80.957 44.7754 -80.957 C 43.8965 -80.957 43.0664 -80.6152 42.334 -79.8828 L 13.4766 -50.7324 C 12.8418 -50.0977 12.4512 -49.1699 12.4512 -48.3398 C 12.4512 -46.3867 13.8184 -45.0684 15.6738 -45.0684 C 16.6504 -45.0684 17.4316 -45.4102 17.9688 -45.9961 L 33.2031 -61.4258 L 41.8945 -71.0938 L 41.5039 -59.9609 L 41.5039 7.22656 C 41.5039 9.13086 42.8711 10.498 44.7754 10.498 Z"/>
  </g>
  <g id="Thin-M" transform="matrix(1 0 0 1 787.282 1126)">
   <path d="M 94.043 9.96094 C 94.6289 9.96094 95.0684 9.76562 95.459 9.375 L 125.244 -20.3125 C 125.586 -20.7031 125.83 -21.1426 125.83 -21.6797 C 125.83 -22.8027 125 -23.584 123.975 -23.584 C 123.389 -23.584 122.9 -23.3887 122.607 -23.0957 L 105.469 -5.85938 L 95.7031 4.3457 L 95.8984 -6.29883 L 95.8984 -78.6133 C 95.8984 -79.6387 95.1172 -80.4199 94.043 -80.4199 C 92.9688 -80.4199 92.1875 -79.6387 92.1875 -78.6133 L 92.1875 -6.29883 L 92.4316 4.3457 L 82.666 -5.85938 L 65.5273 -23.0957 C 65.2344 -23.3887 64.6973 -23.584 64.1602 -23.584 C 63.1348 -23.584 62.3047 -22.8027 62.3047 -21.6797 C 62.3047 -21.1426 62.5 -20.7031 62.8906 -20.3125 L 92.6758 9.375 C 93.0664 9.76562 93.5059 9.96094 94.043 9.96094 Z M 44.1895 9.96094 C 45.2637 9.96094 46.0449 9.17969 46.0449 8.1543 L 46.0449 -64.1602 L 45.8496 -74.8047 L 55.5664 -64.5996 L 72.7539 -47.3633 C 73.0469 -47.0703 73.5352 -46.875 74.1211 -46.875 C 75.1465 -46.875 75.9766 -47.6562 75.9766 -48.7793 C 75.9766 -49.3164 75.7324 -49.7559 75.3906 -50.1465 L 45.6055 -79.834 C 45.166 -80.2246 44.7754 -80.4199 44.1895 -80.4199 C 43.6523 -80.4199 43.2129 -80.2246 42.8223 -79.834 L 13.0371 -50.1465 C 12.6465 -49.7559 12.4512 -49.3164 12.4512 -48.7793 C 12.4512 -47.6562 13.2812 -46.875 14.3066 -46.875 C 14.8438 -46.875 15.332 -47.0703 15.6738 -47.3633 L 32.8125 -64.5996 L 42.5781 -74.8047 L 42.334 -64.1602 L 42.334 8.1543 C 42.334 9.17969 43.1152 9.96094 44.1895 9.96094 Z"/>
  </g>
  <g id="Ultralight-M" transform="matrix(1 0 0 1 490.888 1126)">
   <path d="M 93.75 9.7168 C 94.1406 9.7168 94.3359 9.61914 94.5801 9.375 L 124.854 -20.6543 C 125.098 -20.8984 125.195 -21.0938 125.195 -21.4844 C 125.195 -22.168 124.658 -22.6562 124.072 -22.6562 C 123.73 -22.6562 123.34 -22.5586 123.193 -22.3633 L 105.029 -4.19922 L 94.7754 6.15234 L 94.873 -4.15039 L 94.873 -79.0527 C 94.873 -79.6387 94.4336 -80.1758 93.75 -80.1758 C 93.1152 -80.1758 92.627 -79.6387 92.627 -79.0527 L 92.627 -4.15039 L 92.7246 6.15234 L 82.4707 -4.19922 L 64.3555 -22.3633 C 64.1602 -22.5586 63.7695 -22.6562 63.4277 -22.6562 C 62.8418 -22.6562 62.3047 -22.168 62.3047 -21.4844 C 62.3047 -21.0938 62.4512 -20.8984 62.6465 -20.6543 L 92.9199 9.375 C 93.1641 9.61914 93.4082 9.7168 93.75 9.7168 Z M 43.8965 9.7168 C 44.5312 9.7168 45.0195 9.17969 45.0195 8.59375 L 45.0195 -66.3086 L 44.9219 -76.6113 L 55.1758 -66.2598 L 73.3398 -48.0957 C 73.4863 -47.9004 73.877 -47.8027 74.2188 -47.8027 C 74.8047 -47.8027 75.3418 -48.291 75.3418 -48.9746 C 75.3418 -49.3652 75.2441 -49.5605 75 -49.8047 L 44.7266 -79.834 C 44.4824 -80.0781 44.2383 -80.1758 43.8965 -80.1758 C 43.5547 -80.1758 43.3105 -80.0781 43.0664 -79.834 L 12.793 -49.8047 C 12.5488 -49.5605 12.4512 -49.3652 12.4512 -48.9746 C 12.4512 -48.291 12.9883 -47.8027 13.5742 -47.8027 C 13.916 -47.8027 14.3066 -47.9004 14.4531 -48.0957 L 32.6172 -66.2598 L 42.8711 -76.6113 L 42.7734 -66.3086 L 42.7734 8.59375 C 42.7734 9.17969 43.2617 9.7168 43.8965 9.7168 Z"/>
  </g>
  <g id="Black-S" transform="matrix(1 0 0 1 2874.81 696)">
   <path d="M 79.5898 1.95312 C 81.7383 1.95312 84.082 1.07422 85.4492 -0.292969 L 104.932 -19.7754 C 106.543 -21.3867 107.422 -23.3887 107.422 -25.4883 C 107.422 -30.0781 104.15 -33.1543 99.9023 -33.1543 C 97.3633 -33.1543 95.6055 -31.9824 94.1406 -30.4688 L 90.332 -26.5625 L 87.207 -22.6074 L 87.5977 -30.6641 L 87.5977 -63.916 C 87.5977 -69.043 84.4238 -72.4121 79.5898 -72.4121 C 74.7559 -72.4121 71.582 -69.043 71.582 -63.916 L 71.582 -30.6641 L 71.9727 -22.6074 L 68.8477 -26.5625 L 65.0879 -30.4688 C 63.623 -31.9824 61.8652 -33.1543 59.3262 -33.1543 C 55.0781 -33.1543 51.8066 -30.0781 51.8066 -25.4883 C 51.8066 -23.3887 52.6855 -21.3867 54.2969 -19.7754 L 73.7305 -0.292969 C 75.0977 1.07422 77.4414 1.95312 79.5898 1.95312 Z M 37.5488 1.95312 C 42.3828 1.95312 45.5566 -1.41602 45.5566 -6.54297 L 45.5566 -39.7949 L 45.166 -47.8516 L 48.291 -43.8965 L 52.0996 -39.9902 C 53.5645 -38.4766 55.3223 -37.3047 57.8613 -37.3047 C 62.1094 -37.3047 65.3809 -40.3809 65.3809 -44.9707 C 65.3809 -47.0703 64.502 -49.0723 62.8906 -50.6836 L 43.4082 -70.166 C 42.041 -71.5332 39.6973 -72.4121 37.5488 -72.4121 C 35.4004 -72.4121 33.0566 -71.5332 31.6895 -70.166 L 12.2559 -50.6836 C 10.6445 -49.0723 9.76562 -47.0703 9.76562 -44.9707 C 9.76562 -40.3809 13.0371 -37.3047 17.2852 -37.3047 C 19.8242 -37.3047 21.582 -38.4766 23.0469 -39.9902 L 26.8066 -43.8965 L 29.9316 -47.8516 L 29.541 -39.7949 L 29.541 -6.54297 C 29.541 -1.41602 32.7148 1.95312 37.5488 1.95312 Z"/>
  </g>
  <g id="Heavy-S" transform="matrix(1 0 0 1 2578.9 696)">
   <path d="M 78.4668 1.75781 C 80.3223 1.75781 82.373 0.976562 83.5938 -0.292969 L 103.613 -20.4102 C 105.029 -21.8262 105.811 -23.6328 105.811 -25.4395 C 105.811 -29.4922 102.93 -32.2266 99.1699 -32.2266 C 96.9727 -32.2266 95.4102 -31.25 94.1406 -29.9316 L 88.8672 -24.5117 L 85.1074 -19.8242 L 85.498 -28.125 L 85.498 -64.7949 C 85.498 -69.2383 82.666 -72.2168 78.4668 -72.2168 C 74.2188 -72.2168 71.3867 -69.2383 71.3867 -64.7949 L 71.3867 -28.125 L 71.7773 -19.8242 L 68.0664 -24.5117 L 62.793 -29.9316 C 61.5234 -31.25 59.9609 -32.2266 57.7637 -32.2266 C 54.0039 -32.2266 51.123 -29.4922 51.123 -25.4395 C 51.123 -23.6328 51.9043 -21.8262 53.2715 -20.4102 L 73.291 -0.292969 C 74.5117 0.976562 76.5625 1.75781 78.4668 1.75781 Z M 37.1094 1.75781 C 41.3574 1.75781 44.1406 -1.2207 44.1406 -5.66406 L 44.1406 -42.334 L 43.75 -50.6348 L 47.5098 -45.9473 L 52.7832 -40.5273 C 54.0527 -39.209 55.6152 -38.2324 57.8125 -38.2324 C 61.6211 -38.2324 64.502 -40.9668 64.502 -45.0195 C 64.502 -46.8262 63.7207 -48.6328 62.3047 -50.0488 L 42.2852 -70.166 C 41.0156 -71.4355 39.0137 -72.2168 37.1094 -72.2168 C 35.2051 -72.2168 33.1543 -71.4355 31.9336 -70.166 L 11.9629 -50.0488 C 10.5469 -48.6328 9.76562 -46.8262 9.76562 -45.0195 C 9.76562 -40.9668 12.6465 -38.2324 16.4062 -38.2324 C 18.6523 -38.2324 20.166 -39.209 21.4844 -40.5273 L 26.709 -45.9473 L 30.4688 -50.6348 L 30.0781 -42.334 L 30.0781 -5.66406 C 30.0781 -1.2207 32.8613 1.75781 37.1094 1.75781 Z"/>
  </g>
  <g id="Bold-S" transform="matrix(1 0 0 1 2283.07 696)">
   <path d="M 77.1484 1.51367 C 78.7598 1.51367 80.4688 0.878906 81.5918 -0.244141 L 102.197 -21.1426 C 103.369 -22.3145 104.053 -23.877 104.053 -25.4395 C 104.053 -28.9062 101.611 -31.2012 98.3398 -31.2012 C 96.4844 -31.2012 95.2148 -30.4199 94.0918 -29.2969 L 87.207 -22.168 L 82.7148 -16.6992 L 83.1543 -25.2441 L 83.1543 -65.7715 C 83.1543 -69.4824 80.7129 -71.9727 77.1484 -71.9727 C 73.584 -71.9727 71.1914 -69.4824 71.1914 -65.7715 L 71.1914 -25.2441 L 71.582 -16.6992 L 67.1387 -22.168 L 60.2539 -29.2969 C 59.1797 -30.4199 57.8613 -31.2012 56.0059 -31.2012 C 52.7344 -31.2012 50.3418 -28.9062 50.3418 -25.4395 C 50.3418 -23.877 50.9766 -22.3145 52.1484 -21.1426 L 72.7539 -0.244141 C 73.877 0.878906 75.5371 1.51367 77.1484 1.51367 Z M 36.6211 1.51367 C 40.1855 1.51367 42.5781 -0.976562 42.5781 -4.6875 L 42.5781 -45.2148 L 42.1875 -53.7598 L 46.6309 -48.291 L 53.5645 -41.1621 C 54.6387 -40.0391 55.957 -39.2578 57.7637 -39.2578 C 61.0352 -39.2578 63.4766 -41.6016 63.4766 -45.0684 C 63.4766 -46.582 62.793 -48.1445 61.6211 -49.3164 L 41.0156 -70.2148 C 39.8926 -71.3379 38.2324 -71.9727 36.6211 -71.9727 C 35.0098 -71.9727 33.3008 -71.3379 32.2266 -70.2148 L 11.6211 -49.3164 C 10.4492 -48.1445 9.76562 -46.582 9.76562 -45.0684 C 9.76562 -41.6016 12.207 -39.2578 15.4785 -39.2578 C 17.2852 -39.2578 18.6035 -40.0391 19.6777 -41.1621 L 26.6113 -48.291 L 31.0547 -53.7598 L 30.6641 -45.2148 L 30.6641 -4.6875 C 30.6641 -0.976562 33.0566 1.51367 36.6211 1.51367 Z"/>
  </g>
  <g id="Semibold-S" transform="matrix(1 0 0 1 1986.99 696)">
   <path d="M 76.2695 1.36719 C 77.6855 1.36719 79.1504 0.830078 80.1758 -0.244141 L 101.172 -21.6309 C 102.197 -22.6562 102.783 -24.0723 102.783 -25.3906 C 102.783 -28.4668 100.684 -30.4688 97.7539 -30.4688 C 96.1914 -30.4688 95.0195 -29.834 94.0918 -28.9062 L 86.0352 -20.5566 L 81.1035 -14.5508 L 81.4941 -23.291 L 81.4941 -66.4551 C 81.4941 -69.6289 79.3945 -71.8262 76.2695 -71.8262 C 73.1934 -71.8262 71.0449 -69.6289 71.0449 -66.4551 L 71.0449 -23.291 L 71.4844 -14.5508 L 66.5039 -20.5566 L 58.4961 -28.9062 C 57.5195 -29.834 56.3965 -30.4688 54.834 -30.4688 C 51.9043 -30.4688 49.7559 -28.4668 49.7559 -25.3906 C 49.7559 -24.0723 50.3906 -22.6562 51.416 -21.6309 L 72.4121 -0.244141 C 73.4375 0.830078 74.8535 1.36719 76.2695 1.36719 Z M 36.2793 1.36719 C 39.3555 1.36719 41.5039 -0.830078 41.5039 -4.00391 L 41.5039 -47.168 L 41.0645 -55.9082 L 46.0449 -49.9023 L 54.1016 -41.5527 C 55.0293 -40.625 56.1523 -39.9902 57.7637 -39.9902 C 60.6445 -39.9902 62.793 -41.9922 62.793 -45.0684 C 62.793 -46.3867 62.207 -47.8027 61.1816 -48.8281 L 40.1367 -70.2148 C 39.1113 -71.2891 37.6953 -71.8262 36.2793 -71.8262 C 34.8633 -71.8262 33.3984 -71.2891 32.373 -70.2148 L 11.377 -48.8281 C 10.3516 -47.8027 9.76562 -46.3867 9.76562 -45.0684 C 9.76562 -41.9922 11.9141 -39.9902 14.7949 -39.9902 C 16.4062 -39.9902 17.5293 -40.625 18.457 -41.5527 L 26.5137 -49.9023 L 31.4453 -55.9082 L 31.0547 -47.168 L 31.0547 -4.00391 C 31.0547 -0.830078 33.1543 1.36719 36.2793 1.36719 Z"/>
  </g>
  <g id="Medium-S" transform="matrix(1 0 0 1 1690.75 696)">
   <path d="M 75.5859 1.26953 C 76.9043 1.26953 78.125 0.78125 79.1016 -0.195312 L 100.439 -21.9727 C 101.318 -22.9004 101.855 -24.2188 101.855 -25.3906 C 101.855 -28.125 99.9512 -29.9316 97.3145 -29.9316 C 95.9473 -29.9316 94.9219 -29.4434 94.0918 -28.5645 L 85.1562 -19.3848 L 79.834 -12.9395 L 80.2734 -21.8262 L 80.2734 -66.9434 C 80.2734 -69.7754 78.3691 -71.7285 75.5859 -71.7285 C 72.8516 -71.7285 70.9473 -69.7754 70.9473 -66.9434 L 70.9473 -21.8262 L 71.3867 -12.9395 L 66.0645 -19.3848 L 57.1289 -28.5645 C 56.2988 -29.4434 55.2734 -29.9316 53.9062 -29.9316 C 51.2695 -29.9316 49.3652 -28.125 49.3652 -25.3906 C 49.3652 -24.2188 49.9023 -22.9004 50.8301 -21.9727 L 72.1191 -0.195312 C 73.0957 0.78125 74.3164 1.26953 75.5859 1.26953 Z M 35.9863 1.26953 C 38.7695 1.26953 40.6738 -0.683594 40.6738 -3.51562 L 40.6738 -48.6328 L 40.2344 -57.5195 L 45.5566 -51.0742 L 54.4922 -41.8945 C 55.3223 -41.0156 56.3477 -40.5273 57.7148 -40.5273 C 60.3516 -40.5273 62.2559 -42.334 62.2559 -45.0684 C 62.2559 -46.2402 61.7188 -47.5586 60.8398 -48.4863 L 39.502 -70.2637 C 38.5254 -71.2402 37.3047 -71.7285 35.9863 -71.7285 C 34.7168 -71.7285 33.4961 -71.2402 32.5195 -70.2637 L 11.2305 -48.4863 C 10.3027 -47.5586 9.76562 -46.2402 9.76562 -45.0684 C 9.76562 -42.334 11.6699 -40.5273 14.3066 -40.5273 C 15.6738 -40.5273 16.6992 -41.0156 17.5293 -41.8945 L 26.4648 -51.0742 L 31.7871 -57.5195 L 31.3477 -48.6328 L 31.3477 -3.51562 C 31.3477 -0.683594 33.252 1.26953 35.9863 1.26953 Z"/>
  </g>
  <g id="Regular-S" transform="matrix(1 0 0 1 1394.64 696)">
   <path d="M 74.7559 1.12305 C 75.8301 1.12305 76.8555 0.683594 77.6855 -0.195312 L 99.4141 -22.4609 C 100.195 -23.2422 100.635 -24.4141 100.635 -25.3418 C 100.635 -27.6855 99.0234 -29.248 96.7773 -29.248 C 95.6055 -29.248 94.7754 -28.8574 94.0918 -28.1738 L 84.0332 -17.7734 L 78.2227 -10.8398 L 78.6621 -19.873 L 78.6621 -67.627 C 78.6621 -69.9219 77.0508 -71.582 74.7559 -71.582 C 72.4609 -71.582 70.8008 -69.9219 70.8008 -67.627 L 70.8008 -19.873 L 71.2402 -10.8398 L 65.4297 -17.7734 L 55.3711 -28.1738 C 54.6875 -28.8574 53.8574 -29.248 52.7344 -29.248 C 50.4395 -29.248 48.8281 -27.6855 48.8281 -25.3418 C 48.8281 -24.4141 49.3164 -23.2422 50.0488 -22.4609 L 71.7773 -0.195312 C 72.6074 0.683594 73.6328 1.12305 74.7559 1.12305 Z M 35.6934 1.12305 C 37.9883 1.12305 39.5996 -0.537109 39.5996 -2.83203 L 39.5996 -50.5859 L 39.1602 -59.6191 L 44.9707 -52.6855 L 55.0293 -42.2852 C 55.7129 -41.6016 56.543 -41.2109 57.7148 -41.2109 C 59.9609 -41.2109 61.5723 -42.7734 61.5723 -45.1172 C 61.5723 -46.0449 61.1328 -47.2168 60.3516 -47.998 L 38.623 -70.2637 C 37.793 -71.1426 36.7676 -71.582 35.6934 -71.582 C 34.5703 -71.582 33.5449 -71.1426 32.7148 -70.2637 L 10.9863 -47.998 C 10.2539 -47.2168 9.76562 -46.0449 9.76562 -45.1172 C 9.76562 -42.7734 11.377 -41.2109 13.6719 -41.2109 C 14.7949 -41.2109 15.625 -41.6016 16.3086 -42.2852 L 26.3672 -52.6855 L 32.1777 -59.6191 L 31.7383 -50.5859 L 31.7383 -2.83203 C 31.7383 -0.537109 33.3984 1.12305 35.6934 1.12305 Z"/>
  </g>
  <g id="Light-S" transform="matrix(1 0 0 1 1098.32 696)">
   <path d="M 74.3164 0.78125 C 75.1465 0.78125 75.9277 0.439453 76.5625 -0.244141 L 98.9258 -22.9004 C 99.5117 -23.4863 99.8535 -24.3164 99.8535 -25.0488 C 99.8535 -26.8555 98.6328 -28.0273 96.9238 -28.0273 C 96.0449 -28.0273 95.3613 -27.7344 94.8242 -27.1973 L 83.4961 -15.625 L 76.9531 -8.20312 L 77.3438 -17.0898 L 77.3438 -68.2129 C 77.3438 -69.9707 76.0742 -71.2402 74.3164 -71.2402 C 72.6074 -71.2402 71.3379 -69.9707 71.3379 -68.2129 L 71.3379 -17.0898 L 71.7285 -8.20312 L 65.1855 -15.625 L 53.8574 -27.1973 C 53.3203 -27.7344 52.6367 -28.0273 51.7578 -28.0273 C 50.0488 -28.0273 48.8281 -26.8555 48.8281 -25.0488 C 48.8281 -24.3164 49.1699 -23.4863 49.7559 -22.9004 L 72.1191 -0.244141 C 72.7539 0.439453 73.4863 0.78125 74.3164 0.78125 Z M 35.2539 0.78125 C 37.0117 0.78125 38.2812 -0.488281 38.2812 -2.24609 L 38.2812 -53.3691 L 37.8906 -62.2559 L 44.4336 -54.834 L 55.7617 -43.2617 C 56.2988 -42.7246 56.9824 -42.4316 57.8613 -42.4316 C 59.5703 -42.4316 60.791 -43.6035 60.791 -45.4102 C 60.791 -46.1426 60.4492 -46.9727 59.8633 -47.5586 L 37.5 -70.2148 C 36.8652 -70.8984 36.084 -71.2402 35.2539 -71.2402 C 34.4238 -71.2402 33.6914 -70.8984 33.0566 -70.2148 L 10.6934 -47.5586 C 10.1074 -46.9727 9.76562 -46.1426 9.76562 -45.4102 C 9.76562 -43.6035 10.9863 -42.4316 12.6953 -42.4316 C 13.5742 -42.4316 14.2578 -42.7246 14.7949 -43.2617 L 26.123 -54.834 L 32.666 -62.2559 L 32.2754 -53.3691 L 32.2754 -2.24609 C 32.2754 -0.488281 33.5449 0.78125 35.2539 0.78125 Z"/>
  </g>
  <g id="Thin-S" transform="matrix(1 0 0 1 802.125 696)">
   <path d="M 73.8281 0.292969 C 74.3164 0.292969 74.7559 0.0976562 75.0977 -0.244141 L 98.291 -23.4375 C 98.6328 -23.7793 98.8281 -24.2188 98.8281 -24.707 C 98.8281 -25.7324 98.0469 -26.4648 97.0703 -26.4648 C 96.582 -26.4648 96.1426 -26.2695 95.8496 -25.9766 L 82.7637 -12.8418 L 75.3418 -4.93164 L 75.5371 -13.3789 L 75.5371 -69.043 C 75.5371 -69.9707 74.8047 -70.752 73.8281 -70.752 C 72.8027 -70.752 72.0703 -69.9707 72.0703 -69.043 L 72.0703 -13.3789 L 72.3145 -4.93164 L 64.8438 -12.8418 L 51.8066 -25.9766 C 51.5137 -26.2695 51.0742 -26.4648 50.5371 -26.4648 C 49.5605 -26.4648 48.8281 -25.7324 48.8281 -24.707 C 48.8281 -24.2188 49.0234 -23.7793 49.3652 -23.4375 L 72.5098 -0.244141 C 72.9004 0.0976562 73.3398 0.292969 73.8281 0.292969 Z M 34.7656 0.292969 C 35.7422 0.292969 36.4746 -0.488281 36.4746 -1.41602 L 36.4746 -57.0801 L 36.2793 -65.5273 L 43.7012 -57.6172 L 56.7871 -44.4824 C 57.0801 -44.1895 57.5195 -43.9941 58.0078 -43.9941 C 58.9844 -43.9941 59.7656 -44.7266 59.7656 -45.752 C 59.7656 -46.2402 59.5703 -46.6797 59.2285 -47.0215 L 36.0352 -70.2148 C 35.6934 -70.5566 35.2539 -70.752 34.7656 -70.752 C 34.2773 -70.752 33.8379 -70.5566 33.4473 -70.2148 L 10.3027 -47.0215 C 9.96094 -46.6797 9.76562 -46.2402 9.76562 -45.752 C 9.76562 -44.7266 10.498 -43.9941 11.4746 -43.9941 C 12.0117 -43.9941 12.4512 -44.1895 12.7441 -44.4824 L 25.7812 -57.6172 L 33.252 -65.5273 L 33.0078 -57.0801 L 33.0078 -1.41602 C 33.0078 -0.488281 33.7402 0.292969 34.7656 0.292969 Z"/>
  </g>
  <g id="Ultralight-S" transform="matrix(1 0 0 1 505.683 696)">
   <path d="M 73.5352 0.0488281 C 73.877 0.0488281 74.1211 -0.0488281 74.3652 -0.292969 L 97.9492 -23.7305 C 98.1445 -23.9258 98.291 -24.1699 98.291 -24.5117 C 98.291 -25.1953 97.7539 -25.6348 97.2168 -25.6348 C 96.875 -25.6348 96.5332 -25.5371 96.3867 -25.3418 L 82.4219 -11.377 L 74.5117 -3.32031 L 74.6094 -11.4746 L 74.6094 -69.4336 C 74.6094 -70.0195 74.1699 -70.5078 73.5352 -70.5078 C 72.9004 -70.5078 72.4609 -70.0195 72.4609 -69.4336 L 72.4609 -11.4746 L 72.6074 -3.32031 L 64.6973 -11.377 L 50.7324 -25.3418 C 50.5371 -25.5371 50.2441 -25.6348 49.9023 -25.6348 C 49.3164 -25.6348 48.8281 -25.1953 48.8281 -24.5117 C 48.8281 -24.1699 48.9258 -23.9258 49.1699 -23.7305 L 72.7539 -0.292969 C 72.998 -0.0488281 73.1934 0.0488281 73.5352 0.0488281 Z M 34.4727 0.0488281 C 35.1074 0.0488281 35.5469 -0.439453 35.5469 -1.02539 L 35.5469 -58.9844 L 35.4492 -67.1387 L 43.3594 -59.082 L 57.3242 -45.1172 C 57.4707 -44.9219 57.8125 -44.8242 58.1543 -44.8242 C 58.6914 -44.8242 59.2285 -45.2637 59.2285 -45.9473 C 59.2285 -46.2891 59.082 -46.5332 58.8867 -46.7285 L 35.3027 -70.166 C 35.0586 -70.4102 34.8145 -70.5078 34.4727 -70.5078 C 34.1309 -70.5078 33.9355 -70.4102 33.6914 -70.166 L 10.1074 -46.7285 C 9.86328 -46.5332 9.76562 -46.2891 9.76562 -45.9473 C 9.76562 -45.2637 10.2539 -44.8242 10.8398 -44.8242 C 11.1816 -44.8242 11.4746 -44.9219 11.6699 -45.1172 L 25.6348 -59.082 L 33.5449 -67.1387 L 33.3984 -58.9844 L 33.3984 -1.02539 C 33.3984 -0.439453 33.8379 0.0488281 34.4727 0.0488281 Z"/>
  </g>
 </g>
</svg>
