<?xml version="1.0" encoding="UTF-8"?>
<!--Generator: Apple Native CoreSVG 123-->
<!DOCTYPE svg
PUBLIC "-//W3C//DTD SVG 1.1//EN"
       "http://www.w3.org/Graphics/SVG/1.1/DTD/svg11.dtd">
<svg version="1.1" xmlns="http://www.w3.org/2000/svg" xmlns:xlink="http://www.w3.org/1999/xlink" width="3300" height="2200">
 <!--glyph: "uni1002CA.medium", point size: 100.000000, font version: "Version 15.0d7e11", template writer version: "5"-->
 <g id="Notes">
  <rect height="2200" id="artboard" style="fill:white;opacity:1" width="3300" x="0" y="0"/>
  <line id="" style="fill:none;stroke:black;opacity:1;stroke-width:0.5;" x1="263" x2="3036" y1="292" y2="292"/>
  <text style="stroke:none;fill:black;font-family:-apple-system,&quot;SF Pro Display&quot;,&quot;SF Pro Text&quot;,Helvetica,sans-serif;font-weight:bold;" transform="matrix(1 0 0 1 263 322)">Weight/Scale Variations</text>
  <text style="stroke:none;fill:black;font-family:-apple-system,&quot;SF Pro Display&quot;,&quot;SF Pro Text&quot;,Helvetica,sans-serif;text-anchor:middle;" transform="matrix(1 0 0 1 559.711 322)">Ultralight</text>
  <text style="stroke:none;fill:black;font-family:-apple-system,&quot;SF Pro Display&quot;,&quot;SF Pro Text&quot;,Helvetica,sans-serif;text-anchor:middle;" transform="matrix(1 0 0 1 856.422 322)">Thin</text>
  <text style="stroke:none;fill:black;font-family:-apple-system,&quot;SF Pro Display&quot;,&quot;SF Pro Text&quot;,Helvetica,sans-serif;text-anchor:middle;" transform="matrix(1 0 0 1 1153.13 322)">Light</text>
  <text style="stroke:none;fill:black;font-family:-apple-system,&quot;SF Pro Display&quot;,&quot;SF Pro Text&quot;,Helvetica,sans-serif;text-anchor:middle;" transform="matrix(1 0 0 1 1449.84 322)">Regular</text>
  <text style="stroke:none;fill:black;font-family:-apple-system,&quot;SF Pro Display&quot;,&quot;SF Pro Text&quot;,Helvetica,sans-serif;text-anchor:middle;" transform="matrix(1 0 0 1 1746.56 322)">Medium</text>
  <text style="stroke:none;fill:black;font-family:-apple-system,&quot;SF Pro Display&quot;,&quot;SF Pro Text&quot;,Helvetica,sans-serif;text-anchor:middle;" transform="matrix(1 0 0 1 2043.27 322)">Semibold</text>
  <text style="stroke:none;fill:black;font-family:-apple-system,&quot;SF Pro Display&quot;,&quot;SF Pro Text&quot;,Helvetica,sans-serif;text-anchor:middle;" transform="matrix(1 0 0 1 2339.98 322)">Bold</text>
  <text style="stroke:none;fill:black;font-family:-apple-system,&quot;SF Pro Display&quot;,&quot;SF Pro Text&quot;,Helvetica,sans-serif;text-anchor:middle;" transform="matrix(1 0 0 1 2636.69 322)">Heavy</text>
  <text style="stroke:none;fill:black;font-family:-apple-system,&quot;SF Pro Display&quot;,&quot;SF Pro Text&quot;,Helvetica,sans-serif;text-anchor:middle;" transform="matrix(1 0 0 1 2933.4 322)">Black</text>
  <line id="" style="fill:none;stroke:black;opacity:1;stroke-width:0.5;" x1="263" x2="3036" y1="1903" y2="1903"/>
  <g id="" transform="matrix(1 0 0 1 263 1933)">
   <path d="M 9.24805 0.830078 C 13.5547 0.830078 17.1387 -2.74414 17.1387 -7.05078 C 17.1387 -11.3574 13.5449 -14.9316 9.23828 -14.9316 C 4.94141 -14.9316 1.36719 -11.3574 1.36719 -7.05078 C 1.36719 -2.74414 4.95117 0.830078 9.24805 0.830078 Z M 9.24805 -0.654297 C 5.70312 -0.654297 2.87109 -3.49609 2.87109 -7.05078 C 2.87109 -10.6055 5.69336 -13.4473 9.23828 -13.4473 C 12.793 -13.4473 15.6348 -10.6055 15.6445 -7.05078 C 15.6543 -3.49609 12.8027 -0.654297 9.24805 -0.654297 Z M 9.22852 -3.42773 C 9.69727 -3.42773 9.9707 -3.74023 9.9707 -4.25781 L 9.9707 -6.31836 L 12.1973 -6.31836 C 12.6953 -6.31836 13.0371 -6.57227 13.0371 -7.04102 C 13.0371 -7.51953 12.7148 -7.7832 12.1973 -7.7832 L 9.9707 -7.7832 L 9.9707 -10.0098 C 9.9707 -10.5273 9.69727 -10.8496 9.22852 -10.8496 C 8.75977 -10.8496 8.50586 -10.5078 8.50586 -10.0098 L 8.50586 -7.7832 L 6.29883 -7.7832 C 5.78125 -7.7832 5.44922 -7.51953 5.44922 -7.04102 C 5.44922 -6.57227 5.80078 -6.31836 6.29883 -6.31836 L 8.50586 -6.31836 L 8.50586 -4.25781 C 8.50586 -3.75977 8.75977 -3.42773 9.22852 -3.42773 Z"/>
  </g>
  <g id="" transform="matrix(1 0 0 1 281.506 1933)">
   <path d="M 11.709 2.91016 C 17.1582 2.91016 21.6699 -1.60156 21.6699 -7.05078 C 21.6699 -12.4902 17.1484 -17.0117 11.6992 -17.0117 C 6.25977 -17.0117 1.74805 -12.4902 1.74805 -7.05078 C 1.74805 -1.60156 6.26953 2.91016 11.709 2.91016 Z M 11.709 1.25 C 7.09961 1.25 3.41797 -2.44141 3.41797 -7.05078 C 3.41797 -11.6504 7.08984 -15.3516 11.6992 -15.3516 C 16.3086 -15.3516 20 -11.6504 20.0098 -7.05078 C 20.0195 -2.44141 16.3184 1.25 11.709 1.25 Z M 11.6895 -2.41211 C 12.207 -2.41211 12.5195 -2.77344 12.5195 -3.33984 L 12.5195 -6.23047 L 15.5762 -6.23047 C 16.123 -6.23047 16.5039 -6.51367 16.5039 -7.03125 C 16.5039 -7.55859 16.1426 -7.86133 15.5762 -7.86133 L 12.5195 -7.86133 L 12.5195 -10.9277 C 12.5195 -11.5039 12.207 -11.8555 11.6895 -11.8555 C 11.1719 -11.8555 10.8789 -11.4844 10.8789 -10.9277 L 10.8789 -7.86133 L 7.83203 -7.86133 C 7.26562 -7.86133 6.89453 -7.55859 6.89453 -7.03125 C 6.89453 -6.51367 7.28516 -6.23047 7.83203 -6.23047 L 10.8789 -6.23047 L 10.8789 -3.33984 C 10.8789 -2.79297 11.1719 -2.41211 11.6895 -2.41211 Z"/>
  </g>
  <g id="" transform="matrix(1 0 0 1 304.924 1933)">
   <path d="M 14.9707 5.67383 C 21.9336 5.67383 27.6953 -0.078125 27.6953 -7.04102 C 27.6953 -14.0039 21.9238 -19.7559 14.9609 -19.7559 C 8.00781 -19.7559 2.25586 -14.0039 2.25586 -7.04102 C 2.25586 -0.078125 8.01758 5.67383 14.9707 5.67383 Z M 14.9707 3.85742 C 8.93555 3.85742 4.08203 -1.00586 4.08203 -7.04102 C 4.08203 -13.0762 8.92578 -17.9395 14.9609 -17.9395 C 21.0059 -17.9395 25.8594 -13.0762 25.8691 -7.04102 C 25.8789 -1.00586 21.0156 3.85742 14.9707 3.85742 Z M 14.9512 -1.06445 C 15.5176 -1.06445 15.8691 -1.45508 15.8691 -2.06055 L 15.8691 -6.13281 L 20.1074 -6.13281 C 20.6934 -6.13281 21.1133 -6.46484 21.1133 -7.02148 C 21.1133 -7.59766 20.7227 -7.93945 20.1074 -7.93945 L 15.8691 -7.93945 L 15.8691 -12.1875 C 15.8691 -12.8027 15.5176 -13.1934 14.9512 -13.1934 C 14.3848 -13.1934 14.0625 -12.7832 14.0625 -12.1875 L 14.0625 -7.93945 L 9.83398 -7.93945 C 9.21875 -7.93945 8.80859 -7.59766 8.80859 -7.02148 C 8.80859 -6.46484 9.23828 -6.13281 9.83398 -6.13281 L 14.0625 -6.13281 L 14.0625 -2.06055 C 14.0625 -1.47461 14.3848 -1.06445 14.9512 -1.06445 Z"/>
  </g>
  <text style="stroke:none;fill:black;font-family:-apple-system,&quot;SF Pro Display&quot;,&quot;SF Pro Text&quot;,Helvetica,sans-serif;font-weight:bold;" transform="matrix(1 0 0 1 263 1953)">Design Variations</text>
  <text style="stroke:none;fill:black;font-family:-apple-system,&quot;SF Pro Display&quot;,&quot;SF Pro Text&quot;,Helvetica,sans-serif;" transform="matrix(1 0 0 1 263 1971)">Symbols are supported in up to nine weights and three scales.</text>
  <text style="stroke:none;fill:black;font-family:-apple-system,&quot;SF Pro Display&quot;,&quot;SF Pro Text&quot;,Helvetica,sans-serif;" transform="matrix(1 0 0 1 263 1989)">For optimal layout with text and other symbols, vertically align</text>
  <text style="stroke:none;fill:black;font-family:-apple-system,&quot;SF Pro Display&quot;,&quot;SF Pro Text&quot;,Helvetica,sans-serif;" transform="matrix(1 0 0 1 263 2007)">symbols with the adjacent text.</text>
  <rect height="14" id="" style="fill:#00AEEF;stroke:none;opacity:0.4;" width="3" x="776" y="1919"/>
  <g id="" transform="matrix(1 0 0 1 779 1933)">
   <path d="M 10.5273 0 L 12.373 0 L 7.17773 -14.0918 L 5.43945 -14.0918 L 0.244141 0 L 2.08984 0 L 3.50586 -4.0332 L 9.11133 -4.0332 Z M 6.2793 -11.9531 L 6.33789 -11.9531 L 8.59375 -5.52734 L 4.02344 -5.52734 Z"/>
  </g>
  <rect height="14" id="" style="fill:#00AEEF;stroke:none;opacity:0.4;" width="3" x="791.617" y="1919"/>
  <text style="stroke:none;fill:black;font-family:-apple-system,&quot;SF Pro Display&quot;,&quot;SF Pro Text&quot;,Helvetica,sans-serif;font-weight:bold;" transform="matrix(1 0 0 1 776 1953)">Margins</text>
  <text style="stroke:none;fill:black;font-family:-apple-system,&quot;SF Pro Display&quot;,&quot;SF Pro Text&quot;,Helvetica,sans-serif;" transform="matrix(1 0 0 1 776 1971)">Leading and trailing margins on the left and right side of each symbol</text>
  <text style="stroke:none;fill:black;font-family:-apple-system,&quot;SF Pro Display&quot;,&quot;SF Pro Text&quot;,Helvetica,sans-serif;" transform="matrix(1 0 0 1 776 1989)">can be adjusted by modifying the width of the blue rectangles.</text>
  <text style="stroke:none;fill:black;font-family:-apple-system,&quot;SF Pro Display&quot;,&quot;SF Pro Text&quot;,Helvetica,sans-serif;" transform="matrix(1 0 0 1 776 2007)">Modifications are automatically applied proportionally to all</text>
  <text style="stroke:none;fill:black;font-family:-apple-system,&quot;SF Pro Display&quot;,&quot;SF Pro Text&quot;,Helvetica,sans-serif;" transform="matrix(1 0 0 1 776 2025)">scales and weights.</text>
  <g id="" transform="matrix(1 0 0 1 1289 1933)">
   <path d="M 2.83203 3.11523 L 4.375 4.6582 C 5.22461 5.48828 6.19141 5.41992 7.06055 4.46289 L 17.2754 -6.66016 C 17.7051 -6.36719 18.0957 -6.37695 18.5645 -6.47461 L 19.6094 -6.68945 L 20.3027 -5.99609 L 20.2539 -5.47852 C 20.1855 -4.95117 20.3516 -4.53125 20.8496 -4.0332 L 21.6602 -3.22266 C 22.168 -2.71484 22.8223 -2.68555 23.3008 -3.16406 L 26.5527 -6.41602 C 27.0312 -6.89453 27.0117 -7.54883 26.5039 -8.05664 L 25.6836 -8.87695 C 25.1855 -9.375 24.7754 -9.55078 24.2383 -9.47266 L 23.7109 -9.41406 L 23.0566 -10.0781 L 23.3398 -11.2207 C 23.4863 -11.7871 23.3398 -12.2559 22.7148 -12.8613 L 20.3027 -15.2539 C 16.7578 -18.7793 12.2266 -18.6719 9.11133 -15.5371 C 8.69141 -15.1074 8.64258 -14.5215 8.91602 -14.0918 C 9.15039 -13.7207 9.62891 -13.4961 10.2734 -13.6621 C 11.7871 -14.043 13.3008 -13.9258 14.7852 -12.9199 L 14.1602 -11.3379 C 13.9258 -10.752 13.9453 -10.2734 14.1797 -9.83398 L 3.01758 0.439453 C 2.08008 1.30859 1.97266 2.25586 2.83203 3.11523 Z M 10.6738 -15.1465 C 13.3398 -17.1387 16.6504 -16.8262 19.0527 -14.4141 L 21.6797 -11.8066 C 21.9141 -11.5723 21.9434 -11.3867 21.8848 -11.0938 L 21.5039 -9.53125 L 23.0762 -7.95898 L 24.043 -8.04688 C 24.3262 -8.07617 24.4141 -8.05664 24.6387 -7.83203 L 25.2637 -7.20703 L 22.5098 -4.46289 L 21.8848 -5.07812 C 21.6602 -5.30273 21.6406 -5.40039 21.6699 -5.68359 L 21.7578 -6.64062 L 20.1953 -8.20312 L 18.5742 -7.89062 C 18.291 -7.83203 18.1445 -7.83203 17.9102 -8.07617 L 15.7324 -10.2539 C 15.5078 -10.4883 15.4785 -10.625 15.6055 -10.9473 L 16.5527 -13.2227 C 14.9512 -14.7559 12.8418 -15.6055 10.8008 -14.9512 C 10.7129 -14.9219 10.6445 -14.9414 10.6152 -14.9805 C 10.5859 -15.0293 10.5859 -15.0781 10.6738 -15.1465 Z M 4.10156 2.41211 C 3.61328 1.91406 3.78906 1.61133 4.12109 1.30859 L 15.0781 -8.80859 L 16.3086 -7.57812 L 6.15234 3.34961 C 5.84961 3.68164 5.46875 3.7793 5.06836 3.37891 Z"/>
  </g>
  <text style="stroke:none;fill:black;font-family:-apple-system,&quot;SF Pro Display&quot;,&quot;SF Pro Text&quot;,Helvetica,sans-serif;font-weight:bold;" transform="matrix(1 0 0 1 1289 1953)">Exporting</text>
  <text style="stroke:none;fill:black;font-family:-apple-system,&quot;SF Pro Display&quot;,&quot;SF Pro Text&quot;,Helvetica,sans-serif;" transform="matrix(1 0 0 1 1289 1971)">Symbols should be outlined when exporting to ensure the</text>
  <text style="stroke:none;fill:black;font-family:-apple-system,&quot;SF Pro Display&quot;,&quot;SF Pro Text&quot;,Helvetica,sans-serif;" transform="matrix(1 0 0 1 1289 1989)">design is preserved when submitting to Xcode.</text>
  <text id="template-version" style="stroke:none;fill:black;font-family:-apple-system,&quot;SF Pro Display&quot;,&quot;SF Pro Text&quot;,Helvetica,sans-serif;text-anchor:end;" transform="matrix(1 0 0 1 3036 1933)">Template v.1.0</text>
  <text style="stroke:none;fill:black;font-family:-apple-system,&quot;SF Pro Display&quot;,&quot;SF Pro Text&quot;,Helvetica,sans-serif;text-anchor:end;" transform="matrix(1 0 0 1 3036 1951)">Generated from flag.fill</text>
  <text style="stroke:none;fill:black;font-family:-apple-system,&quot;SF Pro Display&quot;,&quot;SF Pro Text&quot;,Helvetica,sans-serif;text-anchor:end;" transform="matrix(1 0 0 1 3036 1969)">Typeset at 100 points</text>
  <text style="stroke:none;fill:black;font-family:-apple-system,&quot;SF Pro Display&quot;,&quot;SF Pro Text&quot;,Helvetica,sans-serif;" transform="matrix(1 0 0 1 263 726)">Small</text>
  <text style="stroke:none;fill:black;font-family:-apple-system,&quot;SF Pro Display&quot;,&quot;SF Pro Text&quot;,Helvetica,sans-serif;" transform="matrix(1 0 0 1 263 1156)">Medium</text>
  <text style="stroke:none;fill:black;font-family:-apple-system,&quot;SF Pro Display&quot;,&quot;SF Pro Text&quot;,Helvetica,sans-serif;" transform="matrix(1 0 0 1 263 1586)">Large</text>
 </g>
 <g id="Guides">
  <g id="H-reference" style="fill:#27AAE1;stroke:none;" transform="matrix(1 0 0 1 339 696)">
   <path d="M 54.9316 0 L 57.666 0 L 30.5664 -70.459 L 28.0762 -70.459 L 0.976562 0 L 3.66211 0 L 12.9395 -24.4629 L 45.7031 -24.4629 Z M 29.1992 -67.0898 L 29.4434 -67.0898 L 44.8242 -26.709 L 13.8184 -26.709 Z"/>
  </g>
  <line id="Baseline-S" style="fill:none;stroke:#27AAE1;opacity:1;stroke-width:0.577;" x1="263" x2="3036" y1="696" y2="696"/>
  <line id="Capline-S" style="fill:none;stroke:#27AAE1;opacity:1;stroke-width:0.577;" x1="263" x2="3036" y1="625.541" y2="625.541"/>
  <g id="H-reference" style="fill:#27AAE1;stroke:none;" transform="matrix(1 0 0 1 339 1126)">
   <path d="M 54.9316 0 L 57.666 0 L 30.5664 -70.459 L 28.0762 -70.459 L 0.976562 0 L 3.66211 0 L 12.9395 -24.4629 L 45.7031 -24.4629 Z M 29.1992 -67.0898 L 29.4434 -67.0898 L 44.8242 -26.709 L 13.8184 -26.709 Z"/>
  </g>
  <line id="Baseline-M" style="fill:none;stroke:#27AAE1;opacity:1;stroke-width:0.577;" x1="263" x2="3036" y1="1126" y2="1126"/>
  <line id="Capline-M" style="fill:none;stroke:#27AAE1;opacity:1;stroke-width:0.577;" x1="263" x2="3036" y1="1055.54" y2="1055.54"/>
  <g id="H-reference" style="fill:#27AAE1;stroke:none;" transform="matrix(1 0 0 1 339 1556)">
   <path d="M 54.9316 0 L 57.666 0 L 30.5664 -70.459 L 28.0762 -70.459 L 0.976562 0 L 3.66211 0 L 12.9395 -24.4629 L 45.7031 -24.4629 Z M 29.1992 -67.0898 L 29.4434 -67.0898 L 44.8242 -26.709 L 13.8184 -26.709 Z"/>
  </g>
  <line id="Baseline-L" style="fill:none;stroke:#27AAE1;opacity:1;stroke-width:0.577;" x1="263" x2="3036" y1="1556" y2="1556"/>
  <line id="Capline-L" style="fill:none;stroke:#27AAE1;opacity:1;stroke-width:0.577;" x1="263" x2="3036" y1="1485.54" y2="1485.54"/>
  <rect height="119.336" id="left-margin" style="fill:#00AEEF;stroke:none;opacity:0.4;" width="15.2832" x="1393.69" y="1030.79"/>
  <rect height="119.336" id="right-margin" style="fill:#00AEEF;stroke:none;opacity:0.4;" width="10.3027" x="1495.69" y="1030.79"/>
 </g>
 <g id="Symbols">
  <g id="Black-L" transform="matrix(1 0 0 1 2858.86 1556)">
   <path d="M 27.5391 29.541 C 32.7148 29.541 37.0605 25.3418 37.0605 20.0195 L 37.0605 -12.3047 C 39.1113 -12.8418 42.627 -13.5742 46.875 -13.5742 C 68.5547 -13.5742 86.3281 -1.9043 108.643 -1.9043 C 118.018 -1.9043 124.756 -3.61328 129.932 -6.05469 C 135.01 -8.49609 137.158 -13.3789 137.158 -19.6289 L 137.158 -79.0039 C 137.158 -85.4492 132.959 -90.0391 126.709 -90.0391 C 121.631 -90.0391 116.406 -88.3789 108.447 -88.3789 C 87.3047 -88.3789 68.3594 -100.049 46.6797 -100.049 C 37.8906 -100.049 31.7383 -98.584 25.6348 -95.752 C 20.6543 -93.4082 18.1152 -90.1367 18.1152 -84.2285 L 18.1152 20.0195 C 18.1152 25.2441 22.4121 29.541 27.5391 29.541 Z"/>
  </g>
  <g id="Heavy-L" transform="matrix(1 0 0 1 2562.91 1556)">
   <path d="M 26.7578 28.6133 C 31.25 28.6133 34.9609 24.9512 34.9609 20.3613 L 34.9609 -12.8418 C 36.9629 -13.3789 41.0156 -14.502 46.582 -14.502 C 68.5547 -14.502 85.5469 -2.92969 107.812 -2.92969 C 117.188 -2.92969 123.242 -4.44336 128.271 -6.83594 C 133.105 -9.13086 135.4 -13.5742 135.4 -19.5312 L 135.4 -79.834 C 135.4 -85.498 131.592 -89.4043 126.025 -89.4043 C 121.436 -89.4043 116.064 -87.4512 107.422 -87.4512 C 86.084 -87.4512 68.2129 -99.0723 46.1914 -99.0723 C 37.2559 -99.0723 31.6895 -97.7051 25.9277 -95.0684 C 21.1426 -92.8223 18.6035 -89.5996 18.6035 -83.9355 L 18.6035 20.3613 C 18.6035 24.9023 22.3145 28.6133 26.7578 28.6133 Z"/>
  </g>
  <g id="Bold-L" transform="matrix(1 0 0 1 2267 1556)">
   <path d="M 25.8789 27.5879 C 29.5898 27.5879 32.666 24.5605 32.666 20.752 L 32.666 -13.4277 C 34.5703 -13.9648 39.2578 -15.5762 46.2402 -15.5762 C 68.6035 -15.5762 84.6191 -4.05273 106.836 -4.05273 C 116.26 -4.05273 121.533 -5.41992 126.416 -7.71484 C 131.006 -9.86328 133.447 -13.7695 133.447 -19.4336 L 133.447 -80.7129 C 133.447 -85.5469 130.078 -88.6719 125.293 -88.6719 C 121.24 -88.6719 115.723 -86.4746 106.348 -86.4746 C 84.668 -86.4746 68.0664 -97.998 45.7031 -97.998 C 36.5723 -97.998 31.5918 -96.7285 26.2207 -94.2871 C 21.7285 -92.1875 19.0918 -89.0625 19.0918 -83.5449 L 19.0918 20.752 C 19.0918 24.4629 22.168 27.5879 25.8789 27.5879 Z"/>
  </g>
  <g id="Semibold-L" transform="matrix(1 0 0 1 1970.88 1556)">
   <path d="M 25.2441 26.8555 C 28.4668 26.8555 31.0547 24.2676 31.0547 21.0449 L 31.0547 -13.8184 C 32.959 -14.4043 38.0859 -16.2598 45.9961 -16.2598 C 68.6035 -16.2598 83.9844 -4.83398 106.152 -4.83398 C 115.625 -4.83398 120.361 -6.10352 125.146 -8.30078 C 129.541 -10.3516 132.08 -13.916 132.08 -19.3848 L 132.08 -81.3477 C 132.08 -85.5469 129.004 -88.1836 124.756 -88.1836 C 121.094 -88.1836 115.479 -85.791 105.566 -85.791 C 83.7402 -85.791 67.9688 -97.2656 45.3613 -97.2656 C 36.084 -97.2656 31.543 -96.0449 26.4648 -93.75 C 22.0703 -91.748 19.4824 -88.6719 19.4824 -83.3008 L 19.4824 21.0449 C 19.4824 24.2188 22.1191 26.8555 25.2441 26.8555 Z"/>
  </g>
  <g id="Medium-L" transform="matrix(1 0 0 1 1674.58 1556)">
   <path d="M 24.8047 26.3184 C 27.5879 26.3184 29.834 24.0723 29.834 21.2402 L 29.834 -14.1602 C 31.6895 -14.6973 37.1582 -16.8457 45.8008 -16.8457 C 68.6035 -16.8457 83.4961 -5.41992 105.664 -5.41992 C 115.137 -5.41992 119.482 -6.5918 124.219 -8.74023 C 128.467 -10.6934 131.055 -14.0137 131.055 -19.3359 L 131.055 -81.8359 C 131.055 -85.5469 128.223 -87.8418 124.365 -87.8418 C 120.996 -87.8418 115.283 -85.3027 104.98 -85.3027 C 83.0078 -85.3027 67.9199 -96.6797 45.1172 -96.6797 C 35.7422 -96.6797 31.4941 -95.5566 26.6113 -93.3594 C 22.3633 -91.4062 19.7266 -88.3789 19.7266 -83.1055 L 19.7266 21.2402 C 19.7266 23.9746 22.0215 26.3184 24.8047 26.3184 Z"/>
  </g>
  <g id="Regular-L" transform="matrix(1 0 0 1 1378.43 1556)">
   <path d="M 24.1699 25.6348 C 26.4648 25.6348 28.2715 23.7793 28.2715 21.4844 L 28.2715 -14.5508 C 30.0781 -15.0879 35.9375 -17.5293 45.5566 -17.5293 C 68.6523 -17.5293 82.9102 -6.20117 104.98 -6.20117 C 114.502 -6.20117 118.359 -7.27539 122.949 -9.32617 C 127.002 -11.1816 129.688 -14.1602 129.688 -19.2871 L 129.688 -82.4219 C 129.688 -85.5957 127.148 -87.3535 123.877 -87.3535 C 120.85 -87.3535 115.039 -84.6191 104.199 -84.6191 C 82.0801 -84.6191 67.8223 -95.9473 44.7754 -95.9473 C 35.2539 -95.9473 31.4453 -94.873 26.8555 -92.8223 C 22.7539 -90.9668 20.0684 -87.9883 20.0684 -82.8613 L 20.0684 21.4844 C 20.0684 23.7305 21.9727 25.6348 24.1699 25.6348 Z"/>
  </g>
  <g id="Light-L" transform="matrix(1 0 0 1 1083.16 1556)">
   <path d="M 23.7305 24.2188 C 25.4883 24.2188 26.9043 22.8027 26.9043 21.0449 L 26.9043 -16.5039 C 28.9551 -16.8457 34.8145 -19.4824 44.9219 -19.4824 C 67.5781 -19.4824 81.3965 -8.20312 103.467 -8.20312 C 112.5 -8.20312 116.553 -9.32617 120.898 -11.2793 C 124.609 -12.9883 127.051 -15.5273 127.051 -19.7266 L 127.051 -81.7871 C 127.051 -84.6191 125 -86.0352 122.266 -86.0352 C 119.336 -86.0352 113.574 -83.252 102.686 -83.252 C 80.6152 -83.252 66.7969 -94.4824 44.1406 -94.4824 C 35.1074 -94.4824 31.0547 -93.4082 26.709 -91.4551 C 22.998 -89.7461 20.5566 -87.207 20.5566 -82.959 L 20.5566 21.0449 C 20.5566 22.7539 22.0215 24.2188 23.7305 24.2188 Z"/>
  </g>
  <g id="Thin-L" transform="matrix(1 0 0 1 788.356 1556)">
   <path d="M 23.1445 22.4121 C 24.2188 22.4121 25.0977 21.5332 25.0977 20.4102 L 25.0977 -19.0918 C 27.4902 -19.1406 33.3008 -22.0215 44.043 -22.0215 C 66.2109 -22.0215 79.3945 -10.9375 101.367 -10.9375 C 109.814 -10.9375 114.16 -12.0117 118.115 -13.8184 C 121.387 -15.332 123.584 -17.334 123.584 -20.3613 L 123.584 -80.957 C 123.584 -83.3008 122.168 -84.375 120.166 -84.375 C 117.383 -84.375 111.572 -81.4453 100.684 -81.4453 C 78.6133 -81.4453 65.4297 -92.5781 43.3105 -92.5781 C 34.8633 -92.5781 30.5176 -91.4551 26.5625 -89.6484 C 23.3398 -88.1348 21.1426 -86.1328 21.1426 -83.1055 L 21.1426 20.4102 C 21.1426 21.4355 22.1191 22.4121 23.1445 22.4121 Z"/>
  </g>
  <g id="Ultralight-L" transform="matrix(1 0 0 1 492.621 1556)">
   <path d="M 22.8516 21.4355 C 23.584 21.4355 24.1699 20.8496 24.1699 20.0684 L 24.1699 -20.3613 C 26.7578 -20.3125 32.5195 -23.3398 43.6035 -23.3398 C 65.5273 -23.3398 78.418 -12.3047 100.342 -12.3047 C 108.447 -12.3047 112.988 -13.4277 116.748 -15.1367 C 119.775 -16.5527 121.777 -18.2617 121.777 -20.7031 L 121.777 -80.5176 C 121.777 -82.6172 120.752 -83.4961 119.043 -83.4961 C 116.357 -83.4961 110.547 -80.5176 99.6094 -80.5176 C 77.5879 -80.5176 64.6973 -91.5527 42.9199 -91.5527 C 34.7656 -91.5527 30.2734 -90.4297 26.5137 -88.7207 C 23.4863 -87.3047 21.4844 -85.5957 21.4844 -83.1543 L 21.4844 20.0684 C 21.4844 20.8008 22.1191 21.4355 22.8516 21.4355 Z"/>
  </g>
  <g id="Black-M" transform="matrix(1 0 0 1 2875.42 1126)">
   <path d="M 22.2168 15.4297 C 26.8555 15.4297 30.7617 11.6699 30.7617 6.88477 L 30.7617 -17.7734 C 32.6172 -18.0664 34.5215 -18.2129 36.4258 -18.2129 C 52.5391 -18.2129 67.1875 -9.13086 84.5215 -9.13086 C 91.5039 -9.13086 97.7539 -10.6445 101.807 -12.6465 C 105.859 -14.6484 107.275 -18.7988 107.275 -23.5352 L 107.275 -67.7246 C 107.275 -73.584 103.76 -77.9297 98.2422 -77.9297 C 93.7012 -77.9297 89.8438 -76.8555 84.5703 -76.8555 C 68.5059 -76.8555 52.5879 -85.9863 36.4258 -85.9863 C 30.0781 -85.9863 24.4629 -84.7168 19.3848 -82.3242 C 15.4785 -80.4688 13.6719 -78.0273 13.6719 -73.6816 L 13.6719 6.88477 C 13.6719 11.6211 17.5293 15.4297 22.2168 15.4297 Z"/>
  </g>
  <g id="Heavy-M" transform="matrix(1 0 0 1 2579.14 1126)">
   <path d="M 21.4355 14.7949 C 25.4883 14.7949 28.8574 11.5234 28.8574 7.37305 L 28.8574 -17.8711 C 30.5664 -18.2129 33.1055 -18.75 36.2305 -18.75 C 52.832 -18.75 66.6992 -9.7168 83.9844 -9.7168 C 91.1133 -9.7168 96.582 -11.0352 100.537 -12.9883 C 104.443 -14.8438 106.055 -18.6523 106.055 -23.291 L 106.055 -68.7988 C 106.055 -73.877 102.832 -77.5391 97.9004 -77.5391 C 93.8965 -77.5391 89.8926 -76.2695 83.8867 -76.2695 C 67.5293 -76.2695 52.6855 -85.3027 36.084 -85.3027 C 29.4922 -85.3027 24.5117 -84.1309 19.7754 -81.9336 C 15.9668 -80.127 14.0625 -77.6855 14.0625 -73.3398 L 14.0625 7.37305 C 14.0625 11.4746 17.3828 14.7949 21.4355 14.7949 Z"/>
  </g>
  <g id="Bold-M" transform="matrix(1 0 0 1 2282.9 1126)">
   <path d="M 20.6055 14.0625 C 23.9746 14.0625 26.709 11.377 26.709 7.95898 L 26.709 -17.9199 C 28.2715 -18.3594 31.543 -19.3359 36.0352 -19.3359 C 53.1738 -19.3359 66.1621 -10.3516 83.3984 -10.3516 C 90.6738 -10.3516 95.2637 -11.5234 99.1211 -13.3301 C 102.832 -15.0879 104.639 -18.457 104.639 -23.0469 L 104.639 -69.9707 C 104.639 -74.2188 101.758 -77.0996 97.5586 -77.0996 C 94.0918 -77.0996 89.9414 -75.5859 83.1055 -75.5859 C 66.5039 -75.5859 52.8809 -84.5215 35.7422 -84.5215 C 28.7598 -84.5215 24.5117 -83.4961 20.1172 -81.4941 C 16.5039 -79.7852 14.502 -77.2949 14.502 -72.9004 L 14.502 7.95898 C 14.502 11.3281 17.2363 14.0625 20.6055 14.0625 Z"/>
  </g>
  <g id="Semibold-M" transform="matrix(1 0 0 1 1986.53 1126)">
   <path d="M 20.0195 13.5742 C 22.9004 13.5742 25.2441 11.2793 25.2441 8.34961 L 25.2441 -18.0176 C 26.709 -18.457 30.4199 -19.7266 35.8887 -19.7266 C 53.3691 -19.7266 65.7715 -10.791 82.959 -10.791 C 90.3809 -10.791 94.3359 -11.8164 98.1445 -13.623 C 101.758 -15.2832 103.711 -18.3105 103.711 -22.9004 L 103.711 -70.752 C 103.711 -74.4141 101.025 -76.8555 97.3145 -76.8555 C 94.2383 -76.8555 89.9414 -75.0977 82.5684 -75.0977 C 65.7715 -75.0977 52.9785 -84.0332 35.498 -84.0332 C 28.2715 -84.0332 24.5605 -83.0566 20.4102 -81.1523 C 16.8457 -79.541 14.7949 -77.0508 14.7949 -72.6074 L 14.7949 8.34961 C 14.7949 11.1816 17.1387 13.5742 20.0195 13.5742 Z"/>
  </g>
  <g id="Medium-M" transform="matrix(1 0 0 1 1690.06 1126)">
   <path d="M 19.5801 13.1836 C 22.0703 13.1836 24.1211 11.1816 24.1211 8.64258 L 24.1211 -18.0664 C 25.4883 -18.5547 29.5898 -20.0195 35.791 -20.0195 C 53.5645 -20.0195 65.4785 -11.1328 82.666 -11.1328 C 90.1855 -11.1328 93.6523 -12.0605 97.4121 -13.8184 C 100.928 -15.3809 102.979 -18.2617 102.979 -22.7539 L 102.979 -71.3867 C 102.979 -74.6094 100.488 -76.6113 97.168 -76.6113 C 94.3848 -76.6113 89.9902 -74.7559 82.1777 -74.7559 C 65.1855 -74.7559 53.0273 -83.6426 35.3027 -83.6426 C 27.9297 -83.6426 24.5605 -82.7148 20.6055 -80.957 C 17.1387 -79.3457 14.9902 -76.8066 14.9902 -72.3633 L 14.9902 8.64258 C 14.9902 11.1328 17.0898 13.1836 19.5801 13.1836 Z"/>
  </g>
  <g id="Regular-M" transform="matrix(1 0 0 1 1393.69 1126)">
   <path d="M 18.9941 12.6953 C 21.0449 12.6953 22.7051 11.084 22.7051 9.0332 L 22.7051 -18.1152 C 23.9258 -18.6523 28.5156 -20.4102 35.6934 -20.4102 C 53.7598 -20.4102 65.0879 -11.5723 82.2754 -11.5723 C 89.8926 -11.5723 92.7246 -12.4023 96.4355 -14.0625 C 99.8047 -15.5762 102.002 -18.1152 102.002 -22.6074 L 102.002 -72.168 C 102.002 -74.8047 99.7559 -76.3184 96.9238 -76.3184 C 94.5312 -76.3184 90.0391 -74.2676 81.6406 -74.2676 C 64.4531 -74.2676 53.1738 -83.1055 35.0586 -83.1055 C 27.4414 -83.1055 24.5605 -82.2754 20.8496 -80.6152 C 17.4805 -79.1016 15.2832 -76.5625 15.2832 -72.1191 L 15.2832 9.0332 C 15.2832 11.0352 16.9922 12.6953 18.9941 12.6953 Z"/>
  </g>
  <g id="Light-M" transform="matrix(1 0 0 1 1098.27 1126)">
   <path d="M 18.6035 11.4746 C 20.166 11.4746 21.4355 10.2051 21.4355 8.59375 L 21.4355 -19.8242 C 22.9492 -20.2148 27.4902 -22.168 35.1074 -22.168 C 52.832 -22.168 63.7695 -13.3789 80.8594 -13.3789 C 88.0859 -13.3789 91.1133 -14.209 94.5801 -15.8203 C 97.6562 -17.1875 99.6582 -19.3359 99.6582 -22.998 L 99.6582 -71.582 C 99.6582 -73.9258 97.8516 -75.1953 95.459 -75.1953 C 93.1641 -75.1953 88.6719 -73.0469 80.2734 -73.0469 C 63.1348 -73.0469 52.2461 -81.7871 34.5215 -81.7871 C 27.2949 -81.7871 24.2188 -80.957 20.752 -79.3945 C 17.7246 -78.0273 15.7227 -75.8301 15.7227 -72.168 L 15.7227 8.59375 C 15.7227 10.1562 17.041 11.4746 18.6035 11.4746 Z"/>
  </g>
  <g id="Thin-M" transform="matrix(1 0 0 1 803.273 1126)">
   <path d="M 18.0664 9.81445 C 19.043 9.81445 19.8242 9.0332 19.8242 8.00781 L 19.8242 -22.168 C 21.6309 -22.2656 26.123 -24.4629 34.3262 -24.4629 C 51.6113 -24.4629 61.9629 -15.8203 79.0039 -15.8203 C 85.6934 -15.8203 89.0137 -16.6504 92.1387 -18.1152 C 94.7754 -19.2871 96.5332 -20.9961 96.5332 -23.584 L 96.5332 -70.8496 C 96.5332 -72.7539 95.3125 -73.6816 93.5547 -73.6816 C 91.4062 -73.6816 86.9141 -71.4355 78.4668 -71.4355 C 61.3281 -71.4355 50.9766 -80.0781 33.7402 -80.0781 C 27.0996 -80.0781 23.7793 -79.1992 20.6055 -77.7832 C 18.0176 -76.5625 16.2598 -74.9023 16.2598 -72.3145 L 16.2598 8.00781 C 16.2598 8.98438 17.0898 9.81445 18.0664 9.81445 Z"/>
  </g>
  <g id="Ultralight-M" transform="matrix(1 0 0 1 507.441 1126)">
   <path d="M 17.8223 8.98438 C 18.457 8.98438 18.9941 8.44727 18.9941 7.71484 L 18.9941 -23.3398 C 20.9473 -23.3398 25.4395 -25.6348 33.9355 -25.6348 C 50.9766 -25.6348 61.084 -17.041 78.0762 -17.041 C 84.4727 -17.041 87.8906 -17.9199 90.8691 -19.2871 C 93.3105 -20.4102 94.9219 -21.8262 94.9219 -23.877 L 94.9219 -70.459 C 94.9219 -72.168 93.9941 -72.9004 92.5781 -72.9004 C 90.4785 -72.9004 85.9863 -70.6055 77.5391 -70.6055 C 60.4492 -70.6055 50.3906 -79.1992 33.3984 -79.1992 C 27.002 -79.1992 23.5352 -78.3203 20.5566 -76.9531 C 18.1641 -75.8301 16.5527 -74.4141 16.5527 -72.3633 L 16.5527 7.71484 C 16.5527 8.39844 17.1387 8.98438 17.8223 8.98438 Z"/>
  </g>
  <g id="Black-S" transform="matrix(1 0 0 1 2887.99 696)">
   <path d="M 17.334 4.44336 C 20.9473 4.44336 23.9746 1.51367 23.9746 -2.19727 L 23.9746 -21.5332 C 25.3906 -21.7773 26.9531 -21.9238 28.5156 -21.9238 C 41.2109 -21.9238 52.6367 -14.7949 66.2109 -14.7949 C 71.6797 -14.7949 76.5137 -15.9668 79.6875 -17.5293 C 82.8613 -19.0918 83.9844 -22.3145 83.9844 -26.0254 L 83.9844 -60.791 C 83.9844 -65.332 81.25 -68.6523 76.9531 -68.6523 C 73.4375 -68.6523 70.4102 -67.8223 66.2109 -67.8223 C 53.6133 -67.8223 41.2109 -74.9512 28.5156 -74.9512 C 23.5352 -74.9512 19.1895 -73.9746 15.2344 -72.1191 C 12.1582 -70.6543 10.7422 -68.75 10.7422 -65.332 L 10.7422 -2.19727 C 10.7422 1.46484 13.7207 4.44336 17.334 4.44336 Z"/>
  </g>
  <g id="Heavy-S" transform="matrix(1 0 0 1 2591.47 696)">
   <path d="M 16.7969 4.10156 C 19.9707 4.10156 22.6562 1.51367 22.6562 -1.75781 L 22.6562 -21.3867 C 23.9258 -21.7285 25.9766 -22.1191 28.4668 -22.1191 C 41.5527 -22.1191 52.3926 -15.0391 65.9668 -15.0391 C 71.582 -15.0391 75.7812 -16.0645 78.9062 -17.5781 C 82.0312 -19.0918 83.3008 -22.0703 83.3008 -25.8301 L 83.3008 -61.6699 C 83.3008 -65.625 80.7617 -68.5059 76.8555 -68.5059 C 73.7305 -68.5059 70.6055 -67.4805 65.8203 -67.4805 C 53.0273 -67.4805 41.4062 -74.5605 28.3203 -74.5605 C 23.0469 -74.5605 19.2383 -73.6816 15.5273 -71.9238 C 12.5 -70.5566 10.9863 -68.5547 10.9863 -65.0391 L 10.9863 -1.75781 C 10.9863 1.46484 13.623 4.10156 16.7969 4.10156 Z"/>
  </g>
  <g id="Bold-S" transform="matrix(1 0 0 1 2294.96 696)">
   <path d="M 16.2109 3.71094 C 18.9453 3.71094 21.1914 1.51367 21.1914 -1.26953 L 21.1914 -21.2402 C 22.3145 -21.6309 24.9023 -22.3633 28.3691 -22.3633 C 41.8945 -22.3633 52.1484 -15.2832 65.6738 -15.2832 C 71.4844 -15.2832 74.9512 -16.2109 78.0762 -17.6758 C 81.0547 -19.0918 82.5195 -21.7773 82.5195 -25.5859 L 82.5195 -62.6465 C 82.5195 -66.0156 80.1758 -68.3105 76.8066 -68.3105 C 74.0723 -68.3105 70.8008 -67.1387 65.4297 -67.1387 C 52.3926 -67.1387 41.6504 -74.1699 28.125 -74.1699 C 22.5586 -74.1699 19.2871 -73.3398 15.8203 -71.7773 C 12.8906 -70.4102 11.2793 -68.3594 11.2793 -64.6973 L 11.2793 -1.26953 C 11.2793 1.46484 13.5254 3.71094 16.2109 3.71094 Z"/>
  </g>
  <g id="Semibold-S" transform="matrix(1 0 0 1 1998.39 696)">
   <path d="M 15.7715 3.41797 C 18.2129 3.41797 20.166 1.46484 20.166 -0.927734 L 20.166 -21.1426 C 21.1914 -21.582 24.1699 -22.5098 28.3203 -22.5098 C 42.1387 -22.5098 51.9531 -15.4785 65.4785 -15.4785 C 71.4355 -15.4785 74.4141 -16.3086 77.4902 -17.7246 C 80.4199 -19.043 81.9824 -21.582 81.9824 -25.3906 L 81.9824 -63.2812 C 81.9824 -66.2598 79.7852 -68.2129 76.7578 -68.2129 C 74.3164 -68.2129 70.9473 -66.8457 65.1367 -66.8457 C 51.9531 -66.8457 41.7969 -73.877 27.9785 -73.877 C 22.168 -73.877 19.3359 -73.1445 16.0156 -71.6309 C 13.1348 -70.3125 11.4746 -68.2129 11.4746 -64.4531 L 11.4746 -0.927734 C 11.4746 1.41602 13.4277 3.41797 15.7715 3.41797 Z"/>
  </g>
  <g id="Medium-S" transform="matrix(1 0 0 1 1701.78 696)">
   <path d="M 15.4785 3.22266 C 17.627 3.22266 19.3848 1.46484 19.3848 -0.683594 L 19.3848 -21.0938 C 20.3613 -21.5332 23.584 -22.6074 28.2715 -22.6074 C 42.334 -22.6074 51.8066 -15.625 65.332 -15.625 C 71.3867 -15.625 73.9746 -16.3574 77.0508 -17.7734 C 79.8828 -19.043 81.5918 -21.4355 81.5918 -25.293 L 81.5918 -63.8184 C 81.5918 -66.4062 79.4922 -68.1152 76.709 -68.1152 C 74.4629 -68.1152 71.0449 -66.6504 64.8926 -66.6504 C 51.6113 -66.6504 41.9434 -73.6816 27.8809 -73.6816 C 21.9238 -73.6816 19.3848 -72.9492 16.1621 -71.5332 C 13.3301 -70.2148 11.5723 -68.1152 11.5723 -64.3066 L 11.5723 -0.683594 C 11.5723 1.41602 13.3789 3.22266 15.4785 3.22266 Z"/>
  </g>
  <g id="Regular-S" transform="matrix(1 0 0 1 1405.22 696)">
   <path d="M 15.0879 2.92969 C 16.8945 2.92969 18.3594 1.46484 18.3594 -0.341797 L 18.3594 -20.9961 C 19.2383 -21.4844 22.8516 -22.8027 28.2227 -22.8027 C 42.5781 -22.8027 51.6602 -15.8203 65.1367 -15.8203 C 71.2891 -15.8203 73.4375 -16.4551 76.4648 -17.8223 C 79.248 -19.043 81.0547 -21.2402 81.0547 -25.0977 L 81.0547 -64.4531 C 81.0547 -66.6504 79.1016 -67.9688 76.6113 -67.9688 C 74.707 -67.9688 71.1914 -66.4062 64.6484 -66.4062 C 51.1719 -66.4062 42.0898 -73.3887 27.7344 -73.3887 C 21.582 -73.3887 19.4336 -72.7539 16.4062 -71.3867 C 13.623 -70.166 11.7676 -67.9688 11.7676 -64.0625 L 11.7676 -0.341797 C 11.7676 1.41602 13.2812 2.92969 15.0879 2.92969 Z"/>
  </g>
  <g id="Light-S" transform="matrix(1 0 0 1 1109.65 696)">
   <path d="M 14.7461 1.85547 C 16.1621 1.85547 17.2852 0.683594 17.2852 -0.732422 L 17.2852 -22.5098 C 18.3594 -22.8516 21.9238 -24.3164 27.7344 -24.3164 C 41.748 -24.3164 50.4395 -17.4316 63.8672 -17.4316 C 69.7266 -17.4316 72.0215 -18.0664 74.8047 -19.3359 C 77.3438 -20.459 79.0039 -22.3145 79.0039 -25.4883 L 79.0039 -63.9648 C 79.0039 -65.8691 77.3926 -66.9922 75.3418 -66.9922 C 73.4863 -66.9922 69.9707 -65.332 63.4277 -65.332 C 49.9512 -65.332 41.2598 -72.2168 27.2461 -72.2168 C 21.4355 -72.2168 19.1406 -71.582 16.3086 -70.3125 C 13.8184 -69.1895 12.1582 -67.334 12.1582 -64.1602 L 12.1582 -0.732422 C 12.1582 0.634766 13.3301 1.85547 14.7461 1.85547 Z"/>
  </g>
  <g id="Thin-S" transform="matrix(1 0 0 1 814.454 696)">
   <path d="M 14.2578 0.390625 C 15.1367 0.390625 15.8691 -0.341797 15.8691 -1.2207 L 15.8691 -24.5605 C 17.1875 -24.6582 20.752 -26.3672 27.0508 -26.3672 C 40.6738 -26.3672 48.877 -19.5312 62.2559 -19.5312 C 67.5781 -19.5312 70.1172 -20.2148 72.6562 -21.3867 C 74.8047 -22.3633 76.2207 -23.7305 76.2207 -25.9766 L 76.2207 -63.2812 C 76.2207 -64.8438 75.1465 -65.625 73.6816 -65.625 C 71.9238 -65.625 68.4082 -63.916 61.8164 -63.916 C 48.3887 -63.916 40.1855 -70.7031 26.6113 -70.7031 C 21.2402 -70.7031 18.7012 -70.0195 16.2109 -68.8965 C 14.0625 -67.9199 12.6465 -66.5039 12.6465 -64.2578 L 12.6465 -1.2207 C 12.6465 -0.390625 13.3789 0.390625 14.2578 0.390625 Z"/>
  </g>
  <g id="Ultralight-S" transform="matrix(1 0 0 1 518.525 696)">
   <path d="M 14.0137 -0.341797 C 14.5996 -0.341797 15.0879 -0.878906 15.0879 -1.51367 L 15.0879 -25.5859 C 16.6016 -25.6348 20.1172 -27.3926 26.709 -27.3926 C 40.1367 -27.3926 48.0957 -20.6543 61.4258 -20.6543 C 66.5039 -20.6543 69.1895 -21.3379 71.5332 -22.4121 C 73.4863 -23.291 74.8047 -24.5117 74.8047 -26.2695 L 74.8047 -62.9395 C 74.8047 -64.3066 73.9746 -64.9414 72.8027 -64.9414 C 71.1426 -64.9414 67.627 -63.1348 60.9863 -63.1348 C 47.6074 -63.1348 39.6484 -69.9219 26.2695 -69.9219 C 21.1426 -69.9219 18.5059 -69.2383 16.1133 -68.1152 C 14.1602 -67.2363 12.8906 -66.0645 12.8906 -64.3066 L 12.8906 -1.51367 C 12.8906 -0.927734 13.4277 -0.341797 14.0137 -0.341797 Z"/>
  </g>
 </g>
</svg>
