<?xml version="1.0" encoding="UTF-8"?>
<!--Generator: Apple Native CoreSVG 123-->
<!DOCTYPE svg
PUBLIC "-//W3C//DTD SVG 1.1//EN"
       "http://www.w3.org/Graphics/SVG/1.1/DTD/svg11.dtd">
<svg version="1.1" xmlns="http://www.w3.org/2000/svg" xmlns:xlink="http://www.w3.org/1999/xlink" width="3300" height="2200">
 <!--glyph: "uni1002C5.medium", point size: 100.000000, font version: "Version 15.0d7e11", template writer version: "5"-->
 <g id="Notes">
  <rect height="2200" id="artboard" style="fill:white;opacity:1" width="3300" x="0" y="0"/>
  <line id="" style="fill:none;stroke:black;opacity:1;stroke-width:0.5;" x1="263" x2="3036" y1="292" y2="292"/>
  <text style="stroke:none;fill:black;font-family:-apple-system,&quot;SF Pro Display&quot;,&quot;SF Pro Text&quot;,Helvetica,sans-serif;font-weight:bold;" transform="matrix(1 0 0 1 263 322)">Weight/Scale Variations</text>
  <text style="stroke:none;fill:black;font-family:-apple-system,&quot;SF Pro Display&quot;,&quot;SF Pro Text&quot;,Helvetica,sans-serif;text-anchor:middle;" transform="matrix(1 0 0 1 559.711 322)">Ultralight</text>
  <text style="stroke:none;fill:black;font-family:-apple-system,&quot;SF Pro Display&quot;,&quot;SF Pro Text&quot;,Helvetica,sans-serif;text-anchor:middle;" transform="matrix(1 0 0 1 856.422 322)">Thin</text>
  <text style="stroke:none;fill:black;font-family:-apple-system,&quot;SF Pro Display&quot;,&quot;SF Pro Text&quot;,Helvetica,sans-serif;text-anchor:middle;" transform="matrix(1 0 0 1 1153.13 322)">Light</text>
  <text style="stroke:none;fill:black;font-family:-apple-system,&quot;SF Pro Display&quot;,&quot;SF Pro Text&quot;,Helvetica,sans-serif;text-anchor:middle;" transform="matrix(1 0 0 1 1449.84 322)">Regular</text>
  <text style="stroke:none;fill:black;font-family:-apple-system,&quot;SF Pro Display&quot;,&quot;SF Pro Text&quot;,Helvetica,sans-serif;text-anchor:middle;" transform="matrix(1 0 0 1 1746.56 322)">Medium</text>
  <text style="stroke:none;fill:black;font-family:-apple-system,&quot;SF Pro Display&quot;,&quot;SF Pro Text&quot;,Helvetica,sans-serif;text-anchor:middle;" transform="matrix(1 0 0 1 2043.27 322)">Semibold</text>
  <text style="stroke:none;fill:black;font-family:-apple-system,&quot;SF Pro Display&quot;,&quot;SF Pro Text&quot;,Helvetica,sans-serif;text-anchor:middle;" transform="matrix(1 0 0 1 2339.98 322)">Bold</text>
  <text style="stroke:none;fill:black;font-family:-apple-system,&quot;SF Pro Display&quot;,&quot;SF Pro Text&quot;,Helvetica,sans-serif;text-anchor:middle;" transform="matrix(1 0 0 1 2636.69 322)">Heavy</text>
  <text style="stroke:none;fill:black;font-family:-apple-system,&quot;SF Pro Display&quot;,&quot;SF Pro Text&quot;,Helvetica,sans-serif;text-anchor:middle;" transform="matrix(1 0 0 1 2933.4 322)">Black</text>
  <line id="" style="fill:none;stroke:black;opacity:1;stroke-width:0.5;" x1="263" x2="3036" y1="1903" y2="1903"/>
  <g id="" transform="matrix(1 0 0 1 263 1933)">
   <path d="M 9.24805 0.830078 C 13.5547 0.830078 17.1387 -2.74414 17.1387 -7.05078 C 17.1387 -11.3574 13.5449 -14.9316 9.23828 -14.9316 C 4.94141 -14.9316 1.36719 -11.3574 1.36719 -7.05078 C 1.36719 -2.74414 4.95117 0.830078 9.24805 0.830078 Z M 9.24805 -0.654297 C 5.70312 -0.654297 2.87109 -3.49609 2.87109 -7.05078 C 2.87109 -10.6055 5.69336 -13.4473 9.23828 -13.4473 C 12.793 -13.4473 15.6348 -10.6055 15.6445 -7.05078 C 15.6543 -3.49609 12.8027 -0.654297 9.24805 -0.654297 Z M 9.22852 -3.42773 C 9.69727 -3.42773 9.9707 -3.74023 9.9707 -4.25781 L 9.9707 -6.31836 L 12.1973 -6.31836 C 12.6953 -6.31836 13.0371 -6.57227 13.0371 -7.04102 C 13.0371 -7.51953 12.7148 -7.7832 12.1973 -7.7832 L 9.9707 -7.7832 L 9.9707 -10.0098 C 9.9707 -10.5273 9.69727 -10.8496 9.22852 -10.8496 C 8.75977 -10.8496 8.50586 -10.5078 8.50586 -10.0098 L 8.50586 -7.7832 L 6.29883 -7.7832 C 5.78125 -7.7832 5.44922 -7.51953 5.44922 -7.04102 C 5.44922 -6.57227 5.80078 -6.31836 6.29883 -6.31836 L 8.50586 -6.31836 L 8.50586 -4.25781 C 8.50586 -3.75977 8.75977 -3.42773 9.22852 -3.42773 Z"/>
  </g>
  <g id="" transform="matrix(1 0 0 1 281.506 1933)">
   <path d="M 11.709 2.91016 C 17.1582 2.91016 21.6699 -1.60156 21.6699 -7.05078 C 21.6699 -12.4902 17.1484 -17.0117 11.6992 -17.0117 C 6.25977 -17.0117 1.74805 -12.4902 1.74805 -7.05078 C 1.74805 -1.60156 6.26953 2.91016 11.709 2.91016 Z M 11.709 1.25 C 7.09961 1.25 3.41797 -2.44141 3.41797 -7.05078 C 3.41797 -11.6504 7.08984 -15.3516 11.6992 -15.3516 C 16.3086 -15.3516 20 -11.6504 20.0098 -7.05078 C 20.0195 -2.44141 16.3184 1.25 11.709 1.25 Z M 11.6895 -2.41211 C 12.207 -2.41211 12.5195 -2.77344 12.5195 -3.33984 L 12.5195 -6.23047 L 15.5762 -6.23047 C 16.123 -6.23047 16.5039 -6.51367 16.5039 -7.03125 C 16.5039 -7.55859 16.1426 -7.86133 15.5762 -7.86133 L 12.5195 -7.86133 L 12.5195 -10.9277 C 12.5195 -11.5039 12.207 -11.8555 11.6895 -11.8555 C 11.1719 -11.8555 10.8789 -11.4844 10.8789 -10.9277 L 10.8789 -7.86133 L 7.83203 -7.86133 C 7.26562 -7.86133 6.89453 -7.55859 6.89453 -7.03125 C 6.89453 -6.51367 7.28516 -6.23047 7.83203 -6.23047 L 10.8789 -6.23047 L 10.8789 -3.33984 C 10.8789 -2.79297 11.1719 -2.41211 11.6895 -2.41211 Z"/>
  </g>
  <g id="" transform="matrix(1 0 0 1 304.924 1933)">
   <path d="M 14.9707 5.67383 C 21.9336 5.67383 27.6953 -0.078125 27.6953 -7.04102 C 27.6953 -14.0039 21.9238 -19.7559 14.9609 -19.7559 C 8.00781 -19.7559 2.25586 -14.0039 2.25586 -7.04102 C 2.25586 -0.078125 8.01758 5.67383 14.9707 5.67383 Z M 14.9707 3.85742 C 8.93555 3.85742 4.08203 -1.00586 4.08203 -7.04102 C 4.08203 -13.0762 8.92578 -17.9395 14.9609 -17.9395 C 21.0059 -17.9395 25.8594 -13.0762 25.8691 -7.04102 C 25.8789 -1.00586 21.0156 3.85742 14.9707 3.85742 Z M 14.9512 -1.06445 C 15.5176 -1.06445 15.8691 -1.45508 15.8691 -2.06055 L 15.8691 -6.13281 L 20.1074 -6.13281 C 20.6934 -6.13281 21.1133 -6.46484 21.1133 -7.02148 C 21.1133 -7.59766 20.7227 -7.93945 20.1074 -7.93945 L 15.8691 -7.93945 L 15.8691 -12.1875 C 15.8691 -12.8027 15.5176 -13.1934 14.9512 -13.1934 C 14.3848 -13.1934 14.0625 -12.7832 14.0625 -12.1875 L 14.0625 -7.93945 L 9.83398 -7.93945 C 9.21875 -7.93945 8.80859 -7.59766 8.80859 -7.02148 C 8.80859 -6.46484 9.23828 -6.13281 9.83398 -6.13281 L 14.0625 -6.13281 L 14.0625 -2.06055 C 14.0625 -1.47461 14.3848 -1.06445 14.9512 -1.06445 Z"/>
  </g>
  <text style="stroke:none;fill:black;font-family:-apple-system,&quot;SF Pro Display&quot;,&quot;SF Pro Text&quot;,Helvetica,sans-serif;font-weight:bold;" transform="matrix(1 0 0 1 263 1953)">Design Variations</text>
  <text style="stroke:none;fill:black;font-family:-apple-system,&quot;SF Pro Display&quot;,&quot;SF Pro Text&quot;,Helvetica,sans-serif;" transform="matrix(1 0 0 1 263 1971)">Symbols are supported in up to nine weights and three scales.</text>
  <text style="stroke:none;fill:black;font-family:-apple-system,&quot;SF Pro Display&quot;,&quot;SF Pro Text&quot;,Helvetica,sans-serif;" transform="matrix(1 0 0 1 263 1989)">For optimal layout with text and other symbols, vertically align</text>
  <text style="stroke:none;fill:black;font-family:-apple-system,&quot;SF Pro Display&quot;,&quot;SF Pro Text&quot;,Helvetica,sans-serif;" transform="matrix(1 0 0 1 263 2007)">symbols with the adjacent text.</text>
  <rect height="14" id="" style="fill:#00AEEF;stroke:none;opacity:0.4;" width="3" x="776" y="1919"/>
  <g id="" transform="matrix(1 0 0 1 779 1933)">
   <path d="M 10.5273 0 L 12.373 0 L 7.17773 -14.0918 L 5.43945 -14.0918 L 0.244141 0 L 2.08984 0 L 3.50586 -4.0332 L 9.11133 -4.0332 Z M 6.2793 -11.9531 L 6.33789 -11.9531 L 8.59375 -5.52734 L 4.02344 -5.52734 Z"/>
  </g>
  <rect height="14" id="" style="fill:#00AEEF;stroke:none;opacity:0.4;" width="3" x="791.617" y="1919"/>
  <text style="stroke:none;fill:black;font-family:-apple-system,&quot;SF Pro Display&quot;,&quot;SF Pro Text&quot;,Helvetica,sans-serif;font-weight:bold;" transform="matrix(1 0 0 1 776 1953)">Margins</text>
  <text style="stroke:none;fill:black;font-family:-apple-system,&quot;SF Pro Display&quot;,&quot;SF Pro Text&quot;,Helvetica,sans-serif;" transform="matrix(1 0 0 1 776 1971)">Leading and trailing margins on the left and right side of each symbol</text>
  <text style="stroke:none;fill:black;font-family:-apple-system,&quot;SF Pro Display&quot;,&quot;SF Pro Text&quot;,Helvetica,sans-serif;" transform="matrix(1 0 0 1 776 1989)">can be adjusted by modifying the width of the blue rectangles.</text>
  <text style="stroke:none;fill:black;font-family:-apple-system,&quot;SF Pro Display&quot;,&quot;SF Pro Text&quot;,Helvetica,sans-serif;" transform="matrix(1 0 0 1 776 2007)">Modifications are automatically applied proportionally to all</text>
  <text style="stroke:none;fill:black;font-family:-apple-system,&quot;SF Pro Display&quot;,&quot;SF Pro Text&quot;,Helvetica,sans-serif;" transform="matrix(1 0 0 1 776 2025)">scales and weights.</text>
  <g id="" transform="matrix(1 0 0 1 1289 1933)">
   <path d="M 2.83203 3.11523 L 4.375 4.6582 C 5.22461 5.48828 6.19141 5.41992 7.06055 4.46289 L 17.2754 -6.66016 C 17.7051 -6.36719 18.0957 -6.37695 18.5645 -6.47461 L 19.6094 -6.68945 L 20.3027 -5.99609 L 20.2539 -5.47852 C 20.1855 -4.95117 20.3516 -4.53125 20.8496 -4.0332 L 21.6602 -3.22266 C 22.168 -2.71484 22.8223 -2.68555 23.3008 -3.16406 L 26.5527 -6.41602 C 27.0312 -6.89453 27.0117 -7.54883 26.5039 -8.05664 L 25.6836 -8.87695 C 25.1855 -9.375 24.7754 -9.55078 24.2383 -9.47266 L 23.7109 -9.41406 L 23.0566 -10.0781 L 23.3398 -11.2207 C 23.4863 -11.7871 23.3398 -12.2559 22.7148 -12.8613 L 20.3027 -15.2539 C 16.7578 -18.7793 12.2266 -18.6719 9.11133 -15.5371 C 8.69141 -15.1074 8.64258 -14.5215 8.91602 -14.0918 C 9.15039 -13.7207 9.62891 -13.4961 10.2734 -13.6621 C 11.7871 -14.043 13.3008 -13.9258 14.7852 -12.9199 L 14.1602 -11.3379 C 13.9258 -10.752 13.9453 -10.2734 14.1797 -9.83398 L 3.01758 0.439453 C 2.08008 1.30859 1.97266 2.25586 2.83203 3.11523 Z M 10.6738 -15.1465 C 13.3398 -17.1387 16.6504 -16.8262 19.0527 -14.4141 L 21.6797 -11.8066 C 21.9141 -11.5723 21.9434 -11.3867 21.8848 -11.0938 L 21.5039 -9.53125 L 23.0762 -7.95898 L 24.043 -8.04688 C 24.3262 -8.07617 24.4141 -8.05664 24.6387 -7.83203 L 25.2637 -7.20703 L 22.5098 -4.46289 L 21.8848 -5.07812 C 21.6602 -5.30273 21.6406 -5.40039 21.6699 -5.68359 L 21.7578 -6.64062 L 20.1953 -8.20312 L 18.5742 -7.89062 C 18.291 -7.83203 18.1445 -7.83203 17.9102 -8.07617 L 15.7324 -10.2539 C 15.5078 -10.4883 15.4785 -10.625 15.6055 -10.9473 L 16.5527 -13.2227 C 14.9512 -14.7559 12.8418 -15.6055 10.8008 -14.9512 C 10.7129 -14.9219 10.6445 -14.9414 10.6152 -14.9805 C 10.5859 -15.0293 10.5859 -15.0781 10.6738 -15.1465 Z M 4.10156 2.41211 C 3.61328 1.91406 3.78906 1.61133 4.12109 1.30859 L 15.0781 -8.80859 L 16.3086 -7.57812 L 6.15234 3.34961 C 5.84961 3.68164 5.46875 3.7793 5.06836 3.37891 Z"/>
  </g>
  <text style="stroke:none;fill:black;font-family:-apple-system,&quot;SF Pro Display&quot;,&quot;SF Pro Text&quot;,Helvetica,sans-serif;font-weight:bold;" transform="matrix(1 0 0 1 1289 1953)">Exporting</text>
  <text style="stroke:none;fill:black;font-family:-apple-system,&quot;SF Pro Display&quot;,&quot;SF Pro Text&quot;,Helvetica,sans-serif;" transform="matrix(1 0 0 1 1289 1971)">Symbols should be outlined when exporting to ensure the</text>
  <text style="stroke:none;fill:black;font-family:-apple-system,&quot;SF Pro Display&quot;,&quot;SF Pro Text&quot;,Helvetica,sans-serif;" transform="matrix(1 0 0 1 1289 1989)">design is preserved when submitting to Xcode.</text>
  <text id="template-version" style="stroke:none;fill:black;font-family:-apple-system,&quot;SF Pro Display&quot;,&quot;SF Pro Text&quot;,Helvetica,sans-serif;text-anchor:end;" transform="matrix(1 0 0 1 3036 1933)">Template v.1.0</text>
  <text style="stroke:none;fill:black;font-family:-apple-system,&quot;SF Pro Display&quot;,&quot;SF Pro Text&quot;,Helvetica,sans-serif;text-anchor:end;" transform="matrix(1 0 0 1 3036 1951)">Generated from star.circle</text>
  <text style="stroke:none;fill:black;font-family:-apple-system,&quot;SF Pro Display&quot;,&quot;SF Pro Text&quot;,Helvetica,sans-serif;text-anchor:end;" transform="matrix(1 0 0 1 3036 1969)">Typeset at 100 points</text>
  <text style="stroke:none;fill:black;font-family:-apple-system,&quot;SF Pro Display&quot;,&quot;SF Pro Text&quot;,Helvetica,sans-serif;" transform="matrix(1 0 0 1 263 726)">Small</text>
  <text style="stroke:none;fill:black;font-family:-apple-system,&quot;SF Pro Display&quot;,&quot;SF Pro Text&quot;,Helvetica,sans-serif;" transform="matrix(1 0 0 1 263 1156)">Medium</text>
  <text style="stroke:none;fill:black;font-family:-apple-system,&quot;SF Pro Display&quot;,&quot;SF Pro Text&quot;,Helvetica,sans-serif;" transform="matrix(1 0 0 1 263 1586)">Large</text>
 </g>
 <g id="Guides">
  <g id="H-reference" style="fill:#27AAE1;stroke:none;" transform="matrix(1 0 0 1 339 696)">
   <path d="M 54.9316 0 L 57.666 0 L 30.5664 -70.459 L 28.0762 -70.459 L 0.976562 0 L 3.66211 0 L 12.9395 -24.4629 L 45.7031 -24.4629 Z M 29.1992 -67.0898 L 29.4434 -67.0898 L 44.8242 -26.709 L 13.8184 -26.709 Z"/>
  </g>
  <line id="Baseline-S" style="fill:none;stroke:#27AAE1;opacity:1;stroke-width:0.577;" x1="263" x2="3036" y1="696" y2="696"/>
  <line id="Capline-S" style="fill:none;stroke:#27AAE1;opacity:1;stroke-width:0.577;" x1="263" x2="3036" y1="625.541" y2="625.541"/>
  <g id="H-reference" style="fill:#27AAE1;stroke:none;" transform="matrix(1 0 0 1 339 1126)">
   <path d="M 54.9316 0 L 57.666 0 L 30.5664 -70.459 L 28.0762 -70.459 L 0.976562 0 L 3.66211 0 L 12.9395 -24.4629 L 45.7031 -24.4629 Z M 29.1992 -67.0898 L 29.4434 -67.0898 L 44.8242 -26.709 L 13.8184 -26.709 Z"/>
  </g>
  <line id="Baseline-M" style="fill:none;stroke:#27AAE1;opacity:1;stroke-width:0.577;" x1="263" x2="3036" y1="1126" y2="1126"/>
  <line id="Capline-M" style="fill:none;stroke:#27AAE1;opacity:1;stroke-width:0.577;" x1="263" x2="3036" y1="1055.54" y2="1055.54"/>
  <g id="H-reference" style="fill:#27AAE1;stroke:none;" transform="matrix(1 0 0 1 339 1556)">
   <path d="M 54.9316 0 L 57.666 0 L 30.5664 -70.459 L 28.0762 -70.459 L 0.976562 0 L 3.66211 0 L 12.9395 -24.4629 L 45.7031 -24.4629 Z M 29.1992 -67.0898 L 29.4434 -67.0898 L 44.8242 -26.709 L 13.8184 -26.709 Z"/>
  </g>
  <line id="Baseline-L" style="fill:none;stroke:#27AAE1;opacity:1;stroke-width:0.577;" x1="263" x2="3036" y1="1556" y2="1556"/>
  <line id="Capline-L" style="fill:none;stroke:#27AAE1;opacity:1;stroke-width:0.577;" x1="263" x2="3036" y1="1485.54" y2="1485.54"/>
  <rect height="119.336" id="left-margin" style="fill:#00AEEF;stroke:none;opacity:0.4;" width="8.74023" x="1391.3" y="1030.79"/>
  <rect height="119.336" id="right-margin" style="fill:#00AEEF;stroke:none;opacity:0.4;" width="8.74023" x="1499.65" y="1030.79"/>
 </g>
 <g id="Symbols">
  <g id="Black-L" transform="matrix(1 0 0 1 2854.05 1556)">
   <path d="M 79.3457 32.8613 C 116.748 32.8613 147.412 2.19727 147.412 -35.2051 C 147.412 -72.6074 116.748 -103.271 79.2969 -103.271 C 41.8945 -103.271 11.2793 -72.6074 11.2793 -35.2051 C 11.2793 2.19727 41.9434 32.8613 79.3457 32.8613 Z M 79.3457 12.4023 C 52.9785 12.4023 31.7383 -8.83789 31.7383 -35.2051 C 31.7383 -61.5723 52.9297 -82.8125 79.2969 -82.8125 C 105.664 -82.8125 126.953 -61.5723 126.953 -35.2051 C 127.002 -8.83789 105.713 12.4023 79.3457 12.4023 Z M 57.5684 -4.78516 C 59.082 -3.51562 60.9863 -3.85742 63.4277 -5.71289 L 79.3457 -17.334 L 95.2637 -5.71289 C 97.6562 -3.85742 99.6094 -3.51562 101.172 -4.78516 C 102.783 -5.95703 103.076 -8.00781 102.1 -10.791 L 95.8984 -29.3457 L 111.816 -40.7715 C 114.258 -42.5293 115.234 -44.3359 114.551 -46.1914 C 113.965 -47.998 112.158 -48.9746 109.18 -48.9746 L 89.5996 -48.7793 L 83.5449 -67.5781 C 82.666 -70.4102 81.2988 -71.7773 79.3457 -71.7773 C 77.3438 -71.7773 75.8789 -70.3125 75.0488 -67.5781 L 69.0918 -48.7793 L 49.4629 -48.9746 C 46.5332 -48.9746 44.7754 -47.998 44.1895 -46.1914 C 43.457 -44.2871 44.3359 -42.5293 46.7773 -40.7715 L 62.793 -29.2969 L 56.543 -10.791 C 55.5664 -8.00781 55.9082 -6.00586 57.5684 -4.78516 Z"/>
  </g>
  <g id="Heavy-L" transform="matrix(1 0 0 1 2558.39 1556)">
   <path d="M 78.2715 31.7871 C 115.088 31.7871 145.312 1.61133 145.312 -35.2051 C 145.312 -72.0215 115.039 -102.197 78.2715 -102.197 C 41.4551 -102.197 11.2793 -72.0215 11.2793 -35.2051 C 11.2793 1.61133 41.5039 31.7871 78.2715 31.7871 Z M 78.2715 14.0137 C 51.0254 14.0137 29.0527 -7.95898 29.0527 -35.2051 C 29.0527 -62.5 50.9766 -84.4727 78.2715 -84.4727 C 105.518 -84.4727 127.49 -62.5 127.539 -35.2051 C 127.539 -7.95898 105.566 14.0137 78.2715 14.0137 Z M 55.6152 -3.66211 C 57.1289 -2.44141 58.9844 -2.7832 61.3281 -4.54102 L 78.2715 -16.9434 L 95.2637 -4.54102 C 97.6074 -2.7832 99.4141 -2.44141 100.977 -3.66211 C 102.49 -4.78516 102.783 -6.68945 101.855 -9.375 L 95.2148 -29.248 L 112.256 -41.4551 C 114.6 -43.1641 115.527 -44.873 114.893 -46.6797 C 114.307 -48.4375 112.549 -49.3652 109.717 -49.3652 L 88.7695 -49.1699 L 82.3242 -69.1895 C 81.4941 -71.9238 80.1758 -73.2422 78.2715 -73.2422 C 76.3672 -73.2422 75 -71.875 74.1699 -69.1895 L 67.7734 -49.1699 L 46.875 -49.3652 C 43.9941 -49.3652 42.2852 -48.4375 41.748 -46.6797 C 41.1133 -44.8242 41.9434 -43.1641 44.2871 -41.4551 L 61.3281 -29.1992 L 54.6875 -9.375 C 53.7598 -6.68945 54.1016 -4.83398 55.6152 -3.66211 Z"/>
  </g>
  <g id="Bold-L" transform="matrix(1 0 0 1 2262.88 1556)">
   <path d="M 77.0996 30.6152 C 113.232 30.6152 142.92 0.878906 142.92 -35.2051 C 142.92 -71.3379 113.184 -101.025 77.0508 -101.025 C 40.9668 -101.025 11.2793 -71.3379 11.2793 -35.2051 C 11.2793 0.878906 41.0156 30.6152 77.0996 30.6152 Z M 77.0996 15.8691 C 48.8281 15.8691 26.0742 -6.93359 26.0742 -35.2051 C 26.0742 -63.4766 48.7793 -86.2793 77.0508 -86.2793 C 105.371 -86.2793 128.125 -63.4766 128.174 -35.2051 C 128.174 -6.93359 105.371 15.8691 77.0996 15.8691 Z M 53.5156 -2.39258 C 54.9316 -1.2207 56.6895 -1.5625 58.9355 -3.22266 L 77.0996 -16.5039 L 95.2637 -3.22266 C 97.5098 -1.5625 99.2676 -1.2207 100.732 -2.39258 C 102.197 -3.4668 102.49 -5.27344 101.562 -7.86133 L 94.4824 -29.1504 L 112.744 -42.2363 C 114.99 -43.8477 115.82 -45.5078 115.234 -47.2168 C 114.648 -48.877 113.037 -49.8047 110.303 -49.8047 L 87.8418 -49.6094 L 81.0059 -71.0449 C 80.1758 -73.6328 78.9062 -74.9023 77.0996 -74.9023 C 75.293 -74.9023 73.9746 -73.6328 73.1934 -71.0449 L 66.3574 -49.6094 L 43.9453 -49.8047 C 41.2109 -49.8047 39.5508 -48.877 39.0137 -47.2168 C 38.4277 -45.459 39.209 -43.8477 41.4551 -42.2363 L 59.7168 -29.1504 L 52.5879 -7.86133 C 51.709 -5.27344 52.002 -3.51562 53.5156 -2.39258 Z"/>
  </g>
  <g id="Semibold-L" transform="matrix(1 0 0 1 1966.97 1556)">
   <path d="M 76.2695 29.7852 C 111.914 29.7852 141.309 0.439453 141.309 -35.2051 C 141.309 -70.8496 111.865 -100.244 76.2695 -100.244 C 40.625 -100.244 11.2793 -70.8496 11.2793 -35.2051 C 11.2793 0.439453 40.6738 29.7852 76.2695 29.7852 Z M 76.2695 17.0898 C 47.3145 17.0898 24.0234 -6.25 24.0234 -35.2051 C 24.0234 -64.209 47.2656 -87.5 76.2695 -87.5 C 105.225 -87.5 128.564 -64.209 128.613 -35.2051 C 128.662 -6.25 105.273 17.0898 76.2695 17.0898 Z M 52.002 -1.51367 C 53.4668 -0.390625 55.127 -0.732422 57.3242 -2.29492 L 76.2695 -16.2109 L 95.2637 -2.29492 C 97.4609 -0.732422 99.1211 -0.390625 100.586 -1.51367 C 101.953 -2.53906 102.246 -4.29688 101.416 -6.78711 L 93.9941 -29.1016 L 113.037 -42.7734 C 115.234 -44.2871 116.064 -45.9473 115.479 -47.6074 C 114.893 -49.2188 113.33 -50.0977 110.693 -50.0977 L 87.2559 -49.9023 L 80.0781 -72.3145 C 79.2969 -74.8535 78.0273 -76.0742 76.2695 -76.0742 C 74.5117 -76.0742 73.2422 -74.8047 72.5098 -72.3145 L 65.332 -49.9023 L 41.8945 -50.0977 C 39.2578 -50.0977 37.5977 -49.2188 37.1094 -47.6074 C 36.5723 -45.8984 37.3047 -44.2871 39.502 -42.7734 L 58.5938 -29.0527 L 51.1719 -6.78711 C 50.293 -4.29688 50.5859 -2.58789 52.002 -1.51367 Z"/>
  </g>
  <g id="Medium-L" transform="matrix(1 0 0 1 1670.87 1556)">
   <path d="M 75.6836 29.1992 C 110.938 29.1992 140.088 0.0488281 140.088 -35.2051 C 140.088 -70.459 110.889 -99.6094 75.6348 -99.6094 C 40.3809 -99.6094 11.2793 -70.459 11.2793 -35.2051 C 11.2793 0.0488281 40.3809 29.1992 75.6836 29.1992 Z M 75.6836 18.0664 C 46.1426 18.0664 22.4609 -5.71289 22.4609 -35.2051 C 22.4609 -64.6973 46.1426 -88.4766 75.6348 -88.4766 C 105.127 -88.4766 128.906 -64.6973 128.906 -35.2051 C 128.955 -5.71289 105.176 18.0664 75.6836 18.0664 Z M 50.9277 -0.830078 C 52.2949 0.244141 53.9551 -0.0976562 56.1035 -1.61133 L 75.6836 -15.9668 L 95.2637 -1.61133 C 97.4121 -0.0976562 99.0234 0.244141 100.439 -0.830078 C 101.807 -1.85547 102.1 -3.51562 101.27 -6.00586 L 93.6035 -29.0039 L 113.33 -43.1641 C 115.43 -44.6777 116.211 -46.2402 115.674 -47.8516 C 115.088 -49.4629 113.574 -50.293 110.986 -50.293 L 86.7676 -50.1465 L 79.3457 -73.291 C 78.6133 -75.7324 77.3926 -76.9531 75.6836 -76.9531 C 73.9258 -76.9531 72.7051 -75.7324 71.9727 -73.291 L 64.5996 -50.1465 L 40.3809 -50.293 C 37.7441 -50.293 36.1816 -49.4629 35.6934 -47.8516 C 35.2051 -46.2402 35.8887 -44.6777 38.0371 -43.1641 L 57.7637 -29.0039 L 50.0977 -6.00586 C 49.2676 -3.51562 49.5117 -1.85547 50.9277 -0.830078 Z"/>
  </g>
  <g id="Regular-L" transform="matrix(1 0 0 1 1374.97 1556)">
   <path d="M 74.8535 28.3691 C 109.668 28.3691 138.477 -0.390625 138.477 -35.2051 C 138.477 -70.0195 109.619 -98.7793 74.8047 -98.7793 C 40.0391 -98.7793 11.2793 -70.0195 11.2793 -35.2051 C 11.2793 -0.390625 40.0879 28.3691 74.8535 28.3691 Z M 74.8535 19.2871 C 44.6777 19.2871 20.4102 -5.0293 20.4102 -35.2051 C 20.4102 -65.3809 44.6289 -89.6973 74.8047 -89.6973 C 105.029 -89.6973 129.297 -65.3809 129.346 -35.2051 C 129.395 -5.0293 105.078 19.2871 74.8535 19.2871 Z M 49.4629 0.0488281 C 50.8301 1.07422 52.3926 0.732422 54.4434 -0.732422 L 74.8535 -15.6738 L 95.2637 -0.732422 C 97.3145 0.732422 98.9258 1.07422 100.293 0.0488281 C 101.611 -0.927734 101.855 -2.53906 101.074 -4.98047 L 93.1152 -28.9551 L 113.623 -43.7012 C 115.674 -45.1172 116.455 -46.6797 115.918 -48.2422 C 115.381 -49.8047 113.916 -50.5859 111.377 -50.5859 L 86.1328 -50.4395 L 78.418 -74.5605 C 77.7344 -76.9043 76.5625 -78.0762 74.8535 -78.0762 C 73.1934 -78.0762 72.0215 -76.9043 71.2891 -74.5605 L 63.623 -50.4395 L 38.3789 -50.5859 C 35.8398 -50.5859 34.2773 -49.8047 33.8379 -48.2422 C 33.3984 -46.6797 34.0332 -45.1172 36.084 -43.7012 L 56.6406 -28.9551 L 48.6816 -4.98047 C 47.8516 -2.53906 48.1445 -0.976562 49.4629 0.0488281 Z"/>
  </g>
  <g id="Light-L" transform="matrix(1 0 0 1 1079.18 1556)">
   <path d="M 73.9258 27.4902 C 108.301 27.4902 136.621 -0.830078 136.621 -35.1562 C 136.621 -69.5312 108.252 -97.8516 73.9258 -97.8516 C 39.5508 -97.8516 11.2793 -69.5312 11.2793 -35.1562 C 11.2793 -0.830078 39.5996 27.4902 73.9258 27.4902 Z M 73.9258 20.6055 C 43.1152 20.6055 18.2129 -4.3457 18.2129 -35.1562 C 18.2129 -66.0156 43.0664 -90.918 73.9258 -90.918 C 104.736 -90.918 129.688 -66.0156 129.736 -35.1562 C 129.736 -4.3457 104.785 20.6055 73.9258 20.6055 Z M 48.1445 0.976562 C 49.2676 1.85547 50.5371 1.61133 52.3438 0.341797 L 73.9258 -15.4785 L 95.5078 0.341797 C 97.3145 1.61133 98.6328 1.80664 99.7559 0.976562 C 100.83 0.195312 101.123 -1.12305 100.439 -3.22266 L 92.041 -28.6621 L 113.77 -44.2383 C 115.576 -45.5078 116.113 -46.7773 115.674 -48.0957 C 115.234 -49.3652 114.062 -50.0977 111.816 -50.0977 L 85.1074 -50 L 76.9531 -75.4395 C 76.3184 -77.5391 75.3418 -78.418 73.9258 -78.418 C 72.5586 -78.418 71.582 -77.5391 70.9473 -75.4395 L 62.793 -50 L 36.0352 -50.0977 C 33.8379 -50.0977 32.5684 -49.3652 32.2266 -48.0957 C 31.8848 -46.7773 32.3242 -45.5078 34.1309 -44.2383 L 55.8105 -28.6621 L 47.4609 -3.22266 C 46.7285 -1.12305 47.0215 0.146484 48.1445 0.976562 Z"/>
  </g>
  <g id="Thin-L" transform="matrix(1 0 0 1 783.693 1556)">
   <path d="M 72.7051 26.3184 C 106.494 26.3184 134.18 -1.36719 134.18 -35.1074 C 134.18 -68.8965 106.494 -96.582 72.7051 -96.582 C 38.9648 -96.582 11.2793 -68.8965 11.2793 -35.1074 C 11.2793 -1.36719 38.9648 26.3184 72.7051 26.3184 Z M 72.7051 22.3145 C 41.0156 22.3145 15.2832 -3.41797 15.2832 -35.1074 C 15.2832 -66.8457 41.0156 -92.5781 72.7051 -92.5781 C 104.395 -92.5781 130.176 -66.8457 130.176 -35.1074 C 130.176 -3.41797 104.443 22.3145 72.7051 22.3145 Z M 46.3867 2.29492 C 47.2168 2.88086 48.0957 2.7832 49.5605 1.75781 L 72.7051 -15.1855 L 95.8496 1.75781 C 97.3145 2.7832 98.2422 2.83203 99.0234 2.29492 C 99.8535 1.70898 100.146 0.732422 99.5605 -0.976562 L 90.6738 -28.2227 L 113.916 -44.9707 C 115.381 -45.9961 115.625 -46.9727 115.332 -47.9492 C 115.088 -48.8281 114.258 -49.4141 112.451 -49.4141 L 83.7891 -49.4141 L 75 -76.6602 C 74.5117 -78.3203 73.7305 -78.9062 72.7051 -78.9062 C 71.7285 -78.9062 70.9473 -78.3203 70.459 -76.6602 L 61.6699 -49.4141 L 33.0078 -49.4141 C 31.2012 -49.4141 30.2734 -48.8281 30.0781 -47.9492 C 29.8828 -46.9727 30.0781 -45.9961 31.4941 -44.9707 L 54.7363 -28.2227 L 45.8984 -0.976562 C 45.2637 0.732422 45.6055 1.66016 46.3867 2.29492 Z"/>
  </g>
  <g id="Ultralight-L" transform="matrix(1 0 0 1 487.616 1556)">
   <path d="M 72.1191 25.7324 C 105.566 25.7324 132.91 -1.61133 132.91 -35.1074 C 132.91 -68.5547 105.566 -95.8984 72.1191 -95.8984 C 38.623 -95.8984 11.2793 -68.5547 11.2793 -35.1074 C 11.2793 -1.61133 38.623 25.7324 72.1191 25.7324 Z M 72.1191 23.2422 C 39.9414 23.2422 13.7695 -2.97852 13.7695 -35.1074 C 13.7695 -67.2363 39.9414 -93.4082 72.1191 -93.4082 C 104.248 -93.4082 130.42 -67.2363 130.42 -35.1074 C 130.42 -2.97852 104.248 23.2422 72.1191 23.2422 Z M 45.5078 2.92969 C 46.1426 3.41797 46.875 3.36914 48.1445 2.49023 L 72.1191 -14.9902 L 96.0449 2.49023 C 97.3145 3.36914 98.0469 3.32031 98.6816 2.92969 C 99.3164 2.49023 99.6582 1.70898 99.1211 0.195312 L 89.9902 -28.0273 L 114.014 -45.3613 C 115.283 -46.2402 115.381 -47.0703 115.186 -47.8516 C 114.99 -48.584 114.355 -49.1211 112.744 -49.1211 L 83.1055 -49.1211 L 74.0234 -77.2949 C 73.5352 -78.7109 72.9004 -79.1504 72.1191 -79.1504 C 71.2891 -79.1504 70.6543 -78.7109 70.166 -77.2949 L 61.1328 -49.1211 L 31.4453 -49.1211 C 29.834 -49.1211 29.1504 -48.584 29.0039 -47.8516 C 28.9062 -47.0703 28.9062 -46.2402 30.1758 -45.3613 L 54.1992 -28.0273 L 45.0684 0.195312 C 44.5312 1.70898 44.873 2.39258 45.5078 2.92969 Z"/>
  </g>
  <g id="Black-M" transform="matrix(1 0 0 1 2870.97 1126)">
   <path d="M 62.4023 18.457 C 91.9922 18.457 116.113 -5.61523 116.113 -35.2051 C 116.113 -64.7949 91.9922 -88.8672 62.4023 -88.8672 C 32.8125 -88.8672 8.74023 -64.7949 8.74023 -35.2051 C 8.74023 -5.61523 32.8125 18.457 62.4023 18.457 Z M 62.4023 0.195312 C 42.8711 0.195312 27.002 -15.625 27.002 -35.2051 C 27.002 -54.7363 42.8711 -70.6055 62.4023 -70.6055 C 81.9824 -70.6055 97.8027 -54.7363 97.8027 -35.2051 C 97.8027 -15.625 81.9824 0.195312 62.4023 0.195312 Z M 46.4844 -12.6465 C 47.6074 -11.7188 49.0234 -11.9141 50.8789 -13.3301 L 62.4023 -21.7773 L 73.9258 -13.3301 C 75.8301 -11.9141 77.2461 -11.7188 78.418 -12.6465 C 79.5898 -13.5254 79.834 -15.0879 79.1016 -17.1875 L 74.6582 -30.6641 L 86.1816 -38.8672 C 88.0371 -40.2344 88.7207 -41.6016 88.2324 -42.9688 C 87.793 -44.3359 86.4258 -45.1172 84.1797 -45.1172 L 69.9707 -44.9707 L 65.5762 -58.5449 C 64.8926 -60.7422 63.8184 -61.7188 62.4023 -61.7188 C 60.9375 -61.7188 59.8145 -60.6445 59.1797 -58.5449 L 54.834 -44.9707 L 40.6738 -45.1172 C 38.4277 -45.1172 37.1094 -44.3359 36.6699 -42.9688 C 36.1328 -41.5527 36.7188 -40.2344 38.623 -38.8672 L 50.1953 -30.5664 L 45.6543 -17.1875 C 44.9219 -15.0879 45.2148 -13.5742 46.4844 -12.6465 Z"/>
  </g>
  <g id="Heavy-M" transform="matrix(1 0 0 1 2575.19 1126)">
   <path d="M 61.5234 17.5781 C 90.5273 17.5781 114.258 -6.15234 114.258 -35.2051 C 114.258 -64.2578 90.5273 -87.9883 61.4746 -87.9883 C 32.4707 -87.9883 8.74023 -64.2578 8.74023 -35.2051 C 8.74023 -6.15234 32.4707 17.5781 61.5234 17.5781 Z M 61.5234 1.66016 C 41.1133 1.66016 24.6582 -14.8438 24.6582 -35.2051 C 24.6582 -55.5664 41.1133 -72.0703 61.4746 -72.0703 C 81.8848 -72.0703 98.3398 -55.5664 98.3398 -35.2051 C 98.3398 -14.8438 81.8848 1.66016 61.5234 1.66016 Z M 44.7266 -11.6699 C 45.8496 -10.7422 47.2656 -10.9375 49.1211 -12.3535 L 61.5234 -21.3867 L 73.877 -12.3535 C 75.7324 -10.9375 77.1484 -10.7422 78.3203 -11.6699 C 79.4922 -12.5488 79.7363 -14.0625 79.0039 -16.1621 L 74.2188 -30.6152 L 86.6211 -39.502 C 88.4277 -40.8203 89.1113 -42.1875 88.623 -43.5547 C 88.1836 -44.9219 86.8164 -45.6543 84.6191 -45.6543 L 69.3848 -45.5078 L 64.6484 -60.1074 C 63.9648 -62.2559 62.9395 -63.2812 61.5234 -63.2812 C 60.0098 -63.2812 58.9355 -62.207 58.3008 -60.1074 L 53.6621 -45.5078 L 38.3789 -45.6543 C 36.1816 -45.6543 34.8633 -44.9219 34.4238 -43.5547 C 33.8867 -42.1387 34.5215 -40.8203 36.377 -39.502 L 48.8281 -30.5664 L 43.9453 -16.1621 C 43.2129 -14.0625 43.5059 -12.5977 44.7266 -11.6699 Z"/>
  </g>
  <g id="Bold-M" transform="matrix(1 0 0 1 2279.5 1126)">
   <path d="M 60.498 16.5039 C 88.8672 16.5039 112.207 -6.78711 112.207 -35.2051 C 112.207 -63.623 88.8672 -86.9629 60.4492 -86.9629 C 32.0312 -86.9629 8.74023 -63.623 8.74023 -35.2051 C 8.74023 -6.78711 32.0801 16.5039 60.498 16.5039 Z M 60.498 3.22266 C 39.1602 3.22266 22.0703 -13.916 22.0703 -35.2051 C 22.0703 -56.4941 39.1602 -73.6816 60.4492 -73.6816 C 81.7383 -73.6816 98.9258 -56.4941 98.9258 -35.2051 C 98.9746 -13.916 81.7871 3.22266 60.498 3.22266 Z M 42.7734 -10.5469 C 43.9453 -9.61914 45.3613 -9.91211 47.168 -11.2305 L 60.498 -20.9961 L 73.8281 -11.2305 C 75.6348 -9.91211 77.0508 -9.61914 78.2227 -10.5469 C 79.3945 -11.4258 79.5898 -12.8906 78.9062 -14.9902 L 73.6816 -30.6152 L 87.0605 -40.1855 C 88.8672 -41.4551 89.5996 -42.8223 89.1113 -44.1895 C 88.623 -45.5566 87.3047 -46.2402 85.1074 -46.2402 L 68.6523 -46.1426 L 63.623 -61.8652 C 62.9395 -63.9648 61.9141 -64.9902 60.498 -64.9902 C 58.9844 -64.9902 57.959 -63.916 57.3242 -61.8652 L 52.2949 -46.1426 L 35.8398 -46.2402 C 33.6426 -46.2402 32.3242 -45.5566 31.8848 -44.1895 C 31.3965 -42.7734 32.0312 -41.4551 33.8379 -40.1855 L 47.2656 -30.5664 L 42.041 -14.9902 C 41.3086 -12.8906 41.5527 -11.4746 42.7734 -10.5469 Z"/>
  </g>
  <g id="Semibold-M" transform="matrix(1 0 0 1 1983.5 1126)">
   <path d="M 59.7656 15.8203 C 87.7441 15.8203 110.791 -7.22656 110.791 -35.2051 C 110.791 -63.1836 87.6953 -86.2793 59.7656 -86.2793 C 31.7871 -86.2793 8.74023 -63.1836 8.74023 -35.2051 C 8.74023 -7.22656 31.7871 15.8203 59.7656 15.8203 Z M 59.7656 4.3457 C 37.8418 4.3457 20.2637 -13.2812 20.2637 -35.2051 C 20.2637 -57.1289 37.793 -74.8047 59.7656 -74.8047 C 81.6895 -74.8047 99.3164 -57.1289 99.3652 -35.2051 C 99.3652 -13.2812 81.6895 4.3457 59.7656 4.3457 Z M 41.4062 -9.76562 C 42.5781 -8.83789 43.9941 -9.17969 45.8008 -10.4492 L 59.7656 -20.7031 L 73.7793 -10.4492 C 75.5371 -9.17969 76.9531 -8.88672 78.1738 -9.76562 C 79.2969 -10.6445 79.541 -12.1094 78.8086 -14.1602 L 73.3398 -30.5664 L 87.4023 -40.625 C 89.209 -41.9434 89.8926 -43.2617 89.4043 -44.6289 C 88.9648 -45.9961 87.6465 -46.6797 85.4492 -46.6797 L 68.1641 -46.5332 L 62.8906 -63.0859 C 62.2559 -65.1367 61.2305 -66.1621 59.7656 -66.1621 C 58.3008 -66.1621 57.2754 -65.0879 56.6406 -63.0859 L 51.3672 -46.5332 L 34.082 -46.6797 C 31.9336 -46.6797 30.5664 -45.9961 30.1758 -44.6289 C 29.6875 -43.2129 30.3223 -41.9434 32.1289 -40.625 L 46.1914 -30.5664 L 40.7227 -14.1602 C 39.9902 -12.1094 40.2344 -10.6934 41.4062 -9.76562 Z"/>
  </g>
  <g id="Medium-M" transform="matrix(1 0 0 1 1687.3 1126)">
   <path d="M 59.2285 15.2832 C 86.9141 15.2832 109.766 -7.56836 109.766 -35.2051 C 109.766 -62.8906 86.8652 -85.7422 59.1797 -85.7422 C 31.543 -85.7422 8.74023 -62.8906 8.74023 -35.2051 C 8.74023 -7.56836 31.5918 15.2832 59.2285 15.2832 Z M 59.2285 5.17578 C 36.8164 5.17578 18.8965 -12.8418 18.8965 -35.2051 C 18.8965 -57.6172 36.8164 -75.6348 59.1797 -75.6348 C 81.5918 -75.6348 99.6094 -57.6172 99.6582 -35.2051 C 99.707 -12.8418 81.6406 5.17578 59.2285 5.17578 Z M 40.3809 -9.17969 C 41.6016 -8.30078 42.9688 -8.59375 44.7754 -9.86328 L 59.2285 -20.5078 L 73.7305 -9.86328 C 75.4883 -8.59375 76.9043 -8.30078 78.0762 -9.17969 C 79.248 -10.0586 79.4434 -11.5234 78.7598 -13.5742 L 73.0957 -30.5664 L 87.6465 -41.0156 C 89.4043 -42.2363 90.1367 -43.6035 89.6484 -44.9707 C 89.1602 -46.2891 87.8906 -47.0215 85.6934 -47.0215 L 67.8223 -46.875 L 62.3535 -63.9648 C 61.7188 -66.0156 60.6934 -67.041 59.2285 -67.041 C 57.7637 -67.041 56.7383 -66.0156 56.1523 -63.9648 L 50.6836 -46.875 L 32.7637 -47.0215 C 30.6152 -47.0215 29.248 -46.2891 28.8574 -44.9707 C 28.418 -43.5547 29.0527 -42.2363 30.8105 -41.0156 L 45.4102 -30.5664 L 39.6973 -13.5742 C 39.0137 -11.5234 39.2578 -10.1074 40.3809 -9.17969 Z"/>
  </g>
  <g id="Regular-M" transform="matrix(1 0 0 1 1391.3 1126)">
   <path d="M 58.5449 14.5508 C 85.791 14.5508 108.35 -8.00781 108.35 -35.2539 C 108.35 -62.4512 85.7422 -85.0586 58.4961 -85.0586 C 31.2988 -85.0586 8.74023 -62.4512 8.74023 -35.2539 C 8.74023 -8.00781 31.3477 14.5508 58.5449 14.5508 Z M 58.5449 6.25 C 35.498 6.25 17.0898 -12.207 17.0898 -35.2539 C 17.0898 -58.252 35.4492 -76.7578 58.4961 -76.7578 C 81.543 -76.7578 100 -58.252 100.049 -35.2539 C 100.098 -12.207 81.5918 6.25 58.5449 6.25 Z M 39.0625 -8.44727 C 40.2832 -7.51953 41.6504 -7.86133 43.4082 -9.13086 L 58.5449 -20.2148 L 73.6816 -9.13086 C 75.4395 -7.86133 76.8555 -7.51953 78.0273 -8.44727 C 79.1504 -9.32617 79.3945 -10.7422 78.7109 -12.7441 L 72.7539 -30.5664 L 87.9883 -41.4551 C 89.7461 -42.6758 90.4297 -43.9941 89.9414 -45.4102 C 89.502 -46.7285 88.1836 -47.4121 86.0352 -47.4121 L 67.334 -47.2656 L 61.6211 -65.1855 C 61.0352 -67.1875 60.0098 -68.2617 58.5449 -68.2617 C 57.0801 -68.2617 56.1035 -67.1875 55.4688 -65.1855 L 49.7559 -47.2656 L 31.0547 -47.4121 C 28.9062 -47.4121 27.5391 -46.7285 27.1484 -45.4102 C 26.709 -43.9941 27.3438 -42.6758 29.1016 -41.4551 L 44.3359 -30.5664 L 38.3789 -12.7441 C 37.6953 -10.7422 37.9395 -9.32617 39.0625 -8.44727 Z"/>
  </g>
  <g id="Light-M" transform="matrix(1 0 0 1 1095.42 1126)">
   <path d="M 57.7148 13.7695 C 84.5215 13.7695 106.689 -8.39844 106.689 -35.2051 C 106.689 -62.0117 84.5215 -84.1797 57.666 -84.1797 C 30.8594 -84.1797 8.74023 -62.0117 8.74023 -35.2051 C 8.74023 -8.39844 30.9082 13.7695 57.7148 13.7695 Z M 57.7148 7.4707 C 34.082 7.4707 15.0879 -11.5723 15.0879 -35.2051 C 15.0879 -58.8379 34.082 -77.832 57.666 -77.832 C 81.2988 -77.832 100.342 -58.8379 100.391 -35.2051 C 100.391 -11.5723 81.3477 7.4707 57.7148 7.4707 Z M 37.8906 -7.56836 C 38.8672 -6.83594 39.9902 -7.08008 41.5039 -8.1543 L 57.7148 -20.0195 L 73.9258 -8.1543 C 75.4395 -7.08008 76.5625 -6.83594 77.5391 -7.56836 C 78.5156 -8.30078 78.7109 -9.42383 78.125 -11.2305 L 71.8262 -30.2734 L 88.0859 -41.9434 C 89.5996 -43.0176 90.1367 -44.1406 89.7461 -45.2637 C 89.3555 -46.3867 88.3301 -46.9727 86.4746 -46.9727 L 66.4062 -46.875 L 60.3027 -66.0156 C 59.7656 -67.7246 58.9355 -68.5547 57.7148 -68.5547 C 56.4941 -68.5547 55.6641 -67.7246 55.127 -66.0156 L 49.0234 -46.875 L 28.9551 -46.9727 C 27.0996 -46.9727 26.0254 -46.3867 25.6836 -45.2637 C 25.3906 -44.1406 25.8301 -43.0176 27.3438 -41.9434 L 43.6035 -30.2734 L 37.3047 -11.2305 C 36.7188 -9.42383 36.9629 -8.30078 37.8906 -7.56836 Z"/>
  </g>
  <g id="Thin-M" transform="matrix(1 0 0 1 799.806 1126)">
   <path d="M 56.6406 12.7441 C 82.9102 12.7441 104.492 -8.83789 104.492 -35.1562 C 104.492 -61.4746 82.9102 -83.0566 56.5918 -83.0566 C 30.3223 -83.0566 8.74023 -61.4746 8.74023 -35.1562 C 8.74023 -8.83789 30.3223 12.7441 56.6406 12.7441 Z M 56.6406 8.98438 C 32.2266 8.98438 12.4512 -10.791 12.4512 -35.1562 C 12.4512 -59.5215 32.2266 -79.2969 56.5918 -79.2969 C 81.0059 -79.2969 100.781 -59.5215 100.781 -35.1562 C 100.781 -10.791 81.0059 8.98438 56.6406 8.98438 Z M 36.3281 -6.44531 C 37.0117 -5.9082 37.8418 -6.00586 39.0137 -6.88477 L 56.6406 -19.7266 L 74.2188 -6.88477 C 75.4395 -6.00586 76.2207 -5.95703 76.9043 -6.44531 C 77.5879 -6.93359 77.832 -7.76367 77.3438 -9.17969 L 70.6055 -29.8828 L 88.2324 -42.627 C 89.4531 -43.457 89.6973 -44.2871 89.4531 -45.1172 C 89.209 -45.8984 88.4766 -46.3867 87.0117 -46.3867 L 65.2344 -46.3379 L 58.5449 -67.0898 C 58.1055 -68.457 57.4707 -68.9453 56.6406 -68.9453 C 55.7617 -68.9453 55.127 -68.457 54.6875 -67.0898 L 48.0469 -46.3379 L 26.2207 -46.3867 C 24.7559 -46.3867 23.9746 -45.8984 23.7793 -45.1172 C 23.584 -44.2871 23.7793 -43.457 25 -42.627 L 42.6758 -29.8828 L 35.8887 -9.17969 C 35.4004 -7.76367 35.6445 -6.98242 36.3281 -6.44531 Z"/>
  </g>
  <g id="Ultralight-M" transform="matrix(1 0 0 1 503.656 1126)">
   <path d="M 56.0547 12.207 C 82.0801 12.207 103.369 -9.08203 103.369 -35.1562 C 103.369 -61.1816 82.0801 -82.4707 56.0547 -82.4707 C 30.0293 -82.4707 8.74023 -61.1816 8.74023 -35.1562 C 8.74023 -9.08203 30.0293 12.207 56.0547 12.207 Z M 56.0547 9.81445 C 31.2988 9.81445 11.1328 -10.3516 11.1328 -35.1562 C 11.1328 -59.9121 31.2988 -80.0781 56.0547 -80.0781 C 80.8594 -80.0781 100.977 -59.9121 100.977 -35.1562 C 100.977 -10.3516 80.8594 9.81445 56.0547 9.81445 Z M 35.5469 -5.85938 C 36.084 -5.41992 36.7188 -5.46875 37.7441 -6.25 L 56.0547 -19.6289 L 74.3652 -6.25 C 75.4395 -5.46875 76.0254 -5.51758 76.5625 -5.85938 C 77.1484 -6.20117 77.3926 -6.88477 76.9531 -8.10547 L 69.9707 -29.6875 L 88.3301 -42.9688 C 89.4043 -43.7012 89.502 -44.3848 89.3066 -45.0195 C 89.1113 -45.6543 88.5742 -46.0938 87.3047 -46.0938 L 64.5996 -46.0938 L 57.666 -67.6758 C 57.2754 -68.7988 56.7383 -69.1895 56.0547 -69.1895 C 55.3711 -69.1895 54.834 -68.7988 54.4922 -67.6758 L 47.5098 -46.0938 L 24.8535 -46.0938 C 23.5352 -46.0938 22.9492 -45.6543 22.8027 -45.0195 C 22.7051 -44.3848 22.7539 -43.7012 23.7793 -42.9688 L 42.1875 -29.6875 L 35.1562 -8.10547 C 34.7168 -6.88477 35.0098 -6.29883 35.5469 -5.85938 Z"/>
  </g>
  <g id="Black-S" transform="matrix(1 0 0 1 2884.57 696)">
   <path d="M 48.8281 6.78711 C 71.9727 6.78711 90.8203 -12.0605 90.8203 -35.2051 C 90.8203 -58.3496 71.9727 -77.1973 48.8281 -77.1973 C 25.6836 -77.1973 6.83594 -58.3496 6.83594 -35.2051 C 6.83594 -12.0605 25.6836 6.78711 48.8281 6.78711 Z M 48.8281 -7.37305 C 33.4473 -7.37305 20.9961 -19.8242 20.9961 -35.2051 C 20.9961 -50.5859 33.4473 -63.0371 48.8281 -63.0371 C 64.209 -63.0371 76.6602 -50.5859 76.6602 -35.2051 C 76.6602 -19.8242 64.209 -7.37305 48.8281 -7.37305 Z M 36.2793 -17.4805 C 37.1582 -16.748 38.2812 -16.8945 39.7461 -18.0176 L 48.8281 -24.6582 L 57.9102 -18.0176 C 59.375 -16.8945 60.498 -16.748 61.4258 -17.4805 C 62.3535 -18.1641 62.5488 -19.3848 61.9629 -21.0449 L 58.4473 -31.6406 L 67.5293 -38.1348 C 68.9941 -39.209 69.5312 -40.2832 69.1406 -41.3574 C 68.7988 -42.4316 67.7246 -43.0176 65.9668 -43.0176 L 54.7852 -42.9199 L 51.3184 -53.6133 C 50.7812 -55.3223 49.9512 -56.1035 48.8281 -56.1035 C 47.6562 -56.1035 46.7773 -55.2734 46.2891 -53.6133 L 42.8711 -42.9199 L 31.6895 -43.0176 C 29.9316 -43.0176 28.9062 -42.4316 28.5645 -41.3574 C 28.125 -40.2344 28.6133 -39.209 30.0781 -38.1348 L 39.209 -31.5918 L 35.6445 -21.0449 C 35.0586 -19.3848 35.3027 -18.2129 36.2793 -17.4805 Z"/>
  </g>
  <g id="Heavy-S" transform="matrix(1 0 0 1 2588.47 696)">
   <path d="M 48.2422 6.15234 C 70.9961 6.15234 89.5996 -12.4512 89.5996 -35.2051 C 89.5996 -57.959 70.9961 -76.6113 48.1934 -76.6113 C 25.4395 -76.6113 6.83594 -57.959 6.83594 -35.2051 C 6.83594 -12.4512 25.4395 6.15234 48.2422 6.15234 Z M 48.2422 -6.39648 C 32.2754 -6.39648 19.4336 -19.2871 19.4336 -35.2051 C 19.4336 -51.1719 32.2754 -64.0137 48.1934 -64.0137 C 64.1602 -64.0137 77.002 -51.1719 77.0508 -35.2051 C 77.0508 -19.2871 64.1602 -6.39648 48.2422 -6.39648 Z M 35.0586 -16.7969 C 35.9863 -16.0645 37.1582 -16.2598 38.623 -17.3828 L 48.2422 -24.4141 L 57.8613 -17.3828 C 59.3262 -16.2598 60.4492 -16.0645 61.4258 -16.7969 C 62.3535 -17.5293 62.5488 -18.75 61.9629 -20.4102 L 58.2031 -31.6406 L 67.8223 -38.5254 C 69.3359 -39.5996 69.873 -40.7227 69.4824 -41.7969 C 69.1406 -42.9199 68.0176 -43.5059 66.2598 -43.5059 L 54.3945 -43.3594 L 50.7324 -54.7363 C 50.1953 -56.4453 49.3652 -57.2266 48.2422 -57.2266 C 47.0215 -57.2266 46.1426 -56.3965 45.6543 -54.7363 L 42.041 -43.3594 L 30.1758 -43.5059 C 28.418 -43.5059 27.3438 -42.9199 27.002 -41.7969 C 26.5625 -40.6738 27.0996 -39.5996 28.5645 -38.5254 L 38.2324 -31.5918 L 34.4727 -20.4102 C 33.8867 -18.75 34.082 -17.5293 35.0586 -16.7969 Z"/>
  </g>
  <g id="Bold-S" transform="matrix(1 0 0 1 2292.44 696)">
   <path d="M 47.5586 5.46875 C 69.873 5.46875 88.2324 -12.8906 88.2324 -35.2051 C 88.2324 -57.5684 69.873 -75.9277 47.5098 -75.9277 C 25.1953 -75.9277 6.83594 -57.5684 6.83594 -35.2051 C 6.83594 -12.8906 25.1953 5.46875 47.5586 5.46875 Z M 47.5586 -5.32227 C 30.957 -5.32227 17.6758 -18.6523 17.6758 -35.2051 C 17.6758 -51.8066 30.957 -65.1367 47.5098 -65.1367 C 64.1113 -65.1367 77.4414 -51.8066 77.4414 -35.2051 C 77.4414 -18.6523 64.1113 -5.32227 47.5586 -5.32227 Z M 33.7402 -16.0645 C 34.668 -15.2832 35.8398 -15.5273 37.3535 -16.6016 L 47.5586 -24.1211 L 57.7637 -16.6016 C 59.2285 -15.5273 60.4004 -15.2832 61.377 -16.0645 C 62.3535 -16.7969 62.5 -18.0176 61.9629 -19.7266 L 57.959 -31.6895 L 68.2129 -39.0137 C 69.6777 -40.0879 70.2637 -41.1621 69.873 -42.2852 C 69.4824 -43.4082 68.3594 -43.9941 66.6016 -43.9941 L 54.0039 -43.8965 L 50.0977 -55.957 C 49.6094 -57.666 48.7305 -58.5449 47.5586 -58.5449 C 46.3379 -58.5449 45.459 -57.6172 44.9219 -55.957 L 41.1133 -43.8965 L 28.5156 -43.9941 C 26.709 -43.9941 25.6348 -43.4082 25.2441 -42.2852 C 24.8535 -41.1621 25.3906 -40.0879 26.8555 -39.0137 L 37.1582 -31.6406 L 33.1055 -19.7266 C 32.5195 -18.0176 32.7148 -16.7969 33.7402 -16.0645 Z"/>
  </g>
  <g id="Semibold-S" transform="matrix(1 0 0 1 1996.2 696)">
   <path d="M 47.0703 4.98047 C 69.0918 4.98047 87.3047 -13.1836 87.3047 -35.2539 C 87.3047 -57.2754 69.0918 -75.4883 47.0215 -75.4883 C 25 -75.4883 6.83594 -57.2754 6.83594 -35.2539 C 6.83594 -13.1836 25.0488 4.98047 47.0703 4.98047 Z M 47.0703 -4.58984 C 30.0781 -4.58984 16.4551 -18.2129 16.4551 -35.2539 C 16.4551 -52.2461 30.0293 -65.8691 47.0215 -65.8691 C 64.0625 -65.8691 77.6855 -52.2461 77.7344 -35.2539 C 77.7344 -18.2129 64.0625 -4.58984 47.0703 -4.58984 Z M 32.8125 -15.5762 C 33.7891 -14.7949 34.9609 -15.0391 36.4258 -16.1133 L 47.0703 -23.9258 L 57.7148 -16.1133 C 59.1797 -15.0391 60.3516 -14.7949 61.377 -15.5762 C 62.3535 -16.3086 62.5 -17.5293 61.9141 -19.2383 L 57.7637 -31.6895 L 68.457 -39.3066 C 69.9219 -40.3809 70.5078 -41.5039 70.1172 -42.627 C 69.7266 -43.7988 68.6035 -44.3848 66.7969 -44.3848 L 53.7109 -44.2383 L 49.6582 -56.7871 C 49.1699 -58.4961 48.291 -59.4238 47.0703 -59.4238 C 45.8496 -59.4238 44.9707 -58.4961 44.4336 -56.7871 L 40.4785 -44.2383 L 27.3438 -44.3848 C 25.5371 -44.3848 24.4141 -43.7988 24.0723 -42.627 C 23.6328 -41.4551 24.2188 -40.3809 25.6836 -39.3066 L 36.377 -31.6406 L 32.1777 -19.2383 C 31.6406 -17.5293 31.7871 -16.3086 32.8125 -15.5762 Z"/>
  </g>
  <g id="Medium-S" transform="matrix(1 0 0 1 1699.83 696)">
   <path d="M 46.7285 4.63867 C 68.5547 4.63867 86.6211 -13.4277 86.6211 -35.2539 C 86.6211 -57.0312 68.5059 -75.1465 46.6797 -75.1465 C 24.8535 -75.1465 6.83594 -57.0312 6.83594 -35.2539 C 6.83594 -13.4277 24.9023 4.63867 46.7285 4.63867 Z M 46.7285 -4.00391 C 29.3945 -4.00391 15.5273 -17.9199 15.5273 -35.2539 C 15.5273 -52.5879 29.3457 -66.4551 46.6797 -66.4551 C 64.0137 -66.4551 77.8809 -52.5879 77.9297 -35.2539 C 77.9785 -17.9199 64.0625 -4.00391 46.7285 -4.00391 Z M 32.0801 -15.1855 C 33.1055 -14.3555 34.3262 -14.6484 35.791 -15.7227 L 46.7285 -23.7305 L 57.666 -15.7227 C 59.1309 -14.6484 60.3516 -14.3555 61.377 -15.1855 C 62.3535 -15.918 62.5 -17.1387 61.9141 -18.8477 L 57.6172 -31.6895 L 68.6035 -39.5508 C 70.1172 -40.625 70.752 -41.748 70.3125 -42.9199 C 69.9219 -44.043 68.7988 -44.6289 66.9922 -44.6289 L 53.4668 -44.5312 L 49.3652 -57.4219 C 48.8281 -59.1797 47.9492 -60.0586 46.7285 -60.0586 C 45.459 -60.0586 44.5801 -59.1309 44.0918 -57.4219 L 39.9902 -44.5312 L 26.4648 -44.6289 C 24.6582 -44.6289 23.4863 -44.043 23.1445 -42.9199 C 22.7539 -41.748 23.3398 -40.625 24.8047 -39.5508 L 35.8398 -31.6895 L 31.4941 -18.8477 C 30.9082 -17.1387 31.1035 -15.918 32.0801 -15.1855 Z"/>
  </g>
  <g id="Regular-S" transform="matrix(1 0 0 1 1403.58 696)">
   <path d="M 46.2402 4.15039 C 67.7734 4.15039 85.6934 -13.7207 85.6934 -35.2539 C 85.6934 -56.7871 67.7246 -74.6582 46.1914 -74.6582 C 24.707 -74.6582 6.83594 -56.7871 6.83594 -35.2539 C 6.83594 -13.7207 24.7559 4.15039 46.2402 4.15039 Z M 46.2402 -3.27148 C 28.5156 -3.27148 14.3555 -17.4805 14.3555 -35.2539 C 14.3555 -53.0273 28.4668 -67.2363 46.1914 -67.2363 C 63.9648 -67.2363 78.1738 -53.0273 78.2227 -35.2539 C 78.2715 -17.4805 64.0137 -3.27148 46.2402 -3.27148 Z M 31.1523 -14.6484 C 32.2266 -13.8672 33.4473 -14.1602 34.9121 -15.2344 L 46.2402 -23.5352 L 57.6172 -15.2344 C 59.082 -14.1602 60.3027 -13.8672 61.3281 -14.6484 C 62.3535 -15.4297 62.5 -16.6504 61.9141 -18.3594 L 57.4219 -31.6895 L 68.8477 -39.8926 C 70.3613 -40.918 70.9961 -42.041 70.5566 -43.2617 C 70.166 -44.4336 68.9941 -45.0195 67.1875 -45.0195 L 53.1738 -44.873 L 48.9258 -58.3008 C 48.3887 -60.0098 47.5586 -60.9375 46.2402 -60.9375 C 44.9707 -60.9375 44.1406 -60.0098 43.6035 -58.3008 L 39.3555 -44.873 L 25.293 -45.0195 C 23.4863 -45.0195 22.3145 -44.4336 21.9238 -43.2617 C 21.582 -42.041 22.168 -40.918 23.6328 -39.8926 L 35.1074 -31.6895 L 30.6152 -18.3594 C 30.0293 -16.6504 30.1758 -15.4297 31.1523 -14.6484 Z"/>
  </g>
  <g id="Light-S" transform="matrix(1 0 0 1 1107.6 696)">
   <path d="M 45.5078 3.4668 C 66.6992 3.4668 84.2285 -14.0625 84.2285 -35.2051 C 84.2285 -56.3965 66.6504 -73.9258 45.5078 -73.9258 C 24.3164 -73.9258 6.83594 -56.3965 6.83594 -35.2051 C 6.83594 -14.0625 24.3652 3.4668 45.5078 3.4668 Z M 45.5078 -2.24609 C 27.2461 -2.24609 12.5977 -16.9434 12.5977 -35.2051 C 12.5977 -53.5156 27.1973 -68.2129 45.5078 -68.2129 C 63.7695 -68.2129 78.4668 -53.5156 78.5156 -35.2051 C 78.5156 -16.9434 63.8184 -2.24609 45.5078 -2.24609 Z M 30.127 -13.916 C 30.957 -13.2324 31.9824 -13.4766 33.252 -14.4043 L 45.5078 -23.3887 L 57.8125 -14.4043 C 59.082 -13.4766 60.0586 -13.2812 60.9375 -13.916 C 61.7676 -14.502 61.9141 -15.5273 61.4258 -16.9922 L 56.5918 -31.4453 L 68.9453 -40.332 C 70.2637 -41.2109 70.7031 -42.1387 70.3613 -43.1641 C 70.0684 -44.0918 69.1406 -44.5801 67.5781 -44.5801 L 52.3926 -44.5312 L 47.7539 -59.0332 C 47.3145 -60.498 46.582 -61.2305 45.5078 -61.2305 C 44.4824 -61.2305 43.75 -60.498 43.3105 -59.0332 L 38.6719 -44.5312 L 23.4863 -44.5801 C 21.9238 -44.5801 20.9473 -44.0918 20.6543 -43.1641 C 20.3613 -42.1387 20.8008 -41.2109 22.0703 -40.332 L 34.4238 -31.4453 L 29.6387 -16.9922 C 29.1504 -15.5273 29.2969 -14.502 30.127 -13.916 Z"/>
  </g>
  <g id="Thin-S" transform="matrix(1 0 0 1 811.867 696)">
   <path d="M 44.5801 2.53906 C 65.2832 2.53906 82.2754 -14.4531 82.2754 -35.2051 C 82.2754 -55.9082 65.2344 -72.9004 44.5312 -72.9004 C 23.8281 -72.9004 6.83594 -55.9082 6.83594 -35.2051 C 6.83594 -14.4531 23.877 2.53906 44.5801 2.53906 Z M 44.5801 -0.878906 C 25.5859 -0.878906 10.2539 -16.2109 10.2539 -35.2051 C 10.2539 -54.1504 25.5859 -69.4824 44.5312 -69.4824 C 63.5254 -69.4824 78.8574 -54.1504 78.8574 -35.2051 C 78.8574 -16.2109 63.5254 -0.878906 44.5801 -0.878906 Z M 28.7598 -12.8906 C 29.3457 -12.4512 30.0293 -12.5488 31.0547 -13.2812 L 44.5801 -23.1445 L 58.0566 -13.2812 C 59.082 -12.5488 59.7656 -12.4512 60.3516 -12.8906 C 60.9375 -13.3301 61.1328 -14.0137 60.7422 -15.1855 L 55.5176 -31.1035 L 69.0918 -40.8691 C 70.1172 -41.6016 70.3613 -42.2852 70.1172 -43.0176 C 69.9219 -43.7012 69.2871 -44.0918 68.0664 -44.0918 L 51.3184 -44.043 L 46.1914 -59.9609 C 45.8496 -61.1328 45.3125 -61.5723 44.5801 -61.5723 C 43.8477 -61.5723 43.2617 -61.1328 42.9199 -59.9609 L 37.793 -44.043 L 21.0449 -44.0918 C 19.8242 -44.0918 19.1406 -43.7012 18.9941 -43.0176 C 18.7988 -42.2852 18.9941 -41.6016 20.0195 -40.8691 L 33.5938 -31.1035 L 28.3691 -15.1855 C 27.9785 -14.0137 28.1738 -13.3301 28.7598 -12.8906 Z"/>
  </g>
  <g id="Ultralight-S" transform="matrix(1 0 0 1 515.644 696)">
   <path d="M 44.043 2.05078 C 64.502 2.05078 81.2988 -14.6973 81.2988 -35.1562 C 81.2988 -55.6152 64.502 -72.3633 44.043 -72.3633 C 23.584 -72.3633 6.83594 -55.6152 6.83594 -35.1562 C 6.83594 -14.6973 23.584 2.05078 44.043 2.05078 Z M 44.043 -0.146484 C 24.7559 -0.146484 9.08203 -15.8691 9.08203 -35.1562 C 9.08203 -54.4434 24.7559 -70.166 44.043 -70.166 C 63.3789 -70.166 79.0527 -54.4434 79.0527 -35.1562 C 79.0527 -15.8691 63.3789 -0.146484 44.043 -0.146484 Z M 28.0273 -12.3535 C 28.5156 -12.0117 29.0527 -12.0605 29.8828 -12.6953 L 44.043 -23.0469 L 58.2031 -12.6953 C 59.082 -12.0605 59.6191 -12.0605 60.0586 -12.3535 C 60.5469 -12.6953 60.7422 -13.2812 60.4004 -14.2578 L 54.9805 -30.957 L 69.1895 -41.2109 C 70.0195 -41.7969 70.166 -42.3828 70.0195 -42.9199 C 69.8242 -43.457 69.3848 -43.7988 68.3105 -43.7988 L 50.7812 -43.7988 L 45.4102 -60.498 C 45.1172 -61.4258 44.6289 -61.7676 44.043 -61.7676 C 43.5059 -61.7676 43.0176 -61.4258 42.7246 -60.498 L 37.3535 -43.7988 L 19.8242 -43.7988 C 18.75 -43.7988 18.2129 -43.457 18.1152 -42.9199 C 18.0176 -42.3828 18.0664 -41.7969 18.9453 -41.2109 L 33.1543 -30.957 L 27.7344 -14.2578 C 27.3926 -13.2812 27.5879 -12.7441 28.0273 -12.3535 Z"/>
  </g>
 </g>
</svg>
